<svg xmlns="http://www.w3.org/2000/svg" width="688.14mm" height="401.21mm" viewBox="0 0 1950.63 1137.29"><defs><style>.cls-1{fill:#ceae3f}</style></defs><title>main_title</title><g id="レイヤー_2" data-name="レイヤー 2"><path class="cls-1" d="M1928.57 1116.52c-11.74-3.88-16.95-17.53-18.13-29.34-1.57-15.4-1.82-31.66-1.82-60.93 0-27.18-.06-175.48-.06-175.48 0-14.5 4.12-21 18.59-22.38 3-.3 8.53-.52 13.53-.52v-9.47H1821.5v9.45a148.55 148.55 0 0 1 18.61.81c12.38 1.39 17.49 9.05 19.86 15.31 4.94 13.17 4.38 51.16 4.56 108.37.1 19.42-.32 131.27-.45 146.37-.18 10.62-5 14.87-10 16.86-6 2.36-16.32 3.06-22.88 3.06v9.42h119.43v-9.42c-9.3 0-16.63-.27-22.06-2.11zm-162.11-13.18c-26.11-23.59-89.31-113-120.55-159.28 30.18-33.33 61.62-69 80.16-90 19.8-22.58 29.39-26 49.45-26.18v-9.48H1672v9.45c16.59.13 32.82 1 34.62 10.62.84 4.5-2.87 10.15-5.79 14.54-12.52 18.88-93.31 110.38-120.37 137.36V850.52c0-13.65 4.71-20.92 18.59-22.24 3-.3 8.54-.43 13.56-.43v-9.45H1495.2v9.45a129.35 129.35 0 0 1 17.44.83c11.45 1.3 17.11 8.51 19.66 15.79 5.39 15.21 4.59 50.54 4.76 107.73.09 19.4-.33 131.74-.49 146.85-.13 10.6-3.32 14.53-8.3 16.52-6 2.36-16 3.06-22.53 3.06v9.42h116.16v-9.42c-9.32 0-16.62-.27-22-2.11-11.77-3.88-16.34-17.19-17.53-29-1.55-15.38-1.85-31.67-1.85-60.91v-12.74c8.78-8.57 21-21.34 34.71-36.2 21.95 33.15 68.93 98.79 93 127.1 9.89 11.6 21 22.29 46.59 23.29 13.45.55 38.92.49 50.78 0v-9.42c-8.65-.39-13-1.39-16.91-2.63a57.3 57.3 0 0 1-22.23-12.67zm-704.33-148.97c30.57-9.08 61.81-33.32 61.81-68 0-18.84-7.53-31.52-15.71-40.05-26.79-27.94-74.51-27.88-111.21-27.88h-107.8v9.45c21 0 32.24 3.75 37.06 22.73 3.59 14.16 3.2 35.31 3.2 101.23v146.24c0 9.18-2.42 13.56-5.87 16.14-6.14 4.58-16.65 4.44-25.1 4.44v9.42h117.74c23.83 0 43.8-.84 60.24-5.23 43.22-11.52 67.92-40.48 67.92-81.5-.01-56.03-43.55-78-82.28-86.99zm-78.38-118.81c6.69-.27 22.88-.39 31-.11 13.5.51 31.93.11 47.55 17.25a58 58 0 0 1 14.59 37.81c0 28.06-10.6 46.5-33.45 60.37a407.7 407.7 0 0 0-70.56-3.64V844.66c.02-9.13 2.83-8.8 10.87-9.1zm68.2 271.35c-8.86 3.4-21.49 5.43-36.09 5.43 0 0-17 .51-24.58-.86-16.25-3-18.37-7.46-18.37-58v-88.9c31.7-2 58.53.06 76.4 6.23 25.89 8.94 47.1 36.6 47.1 68 0 31.68-16.88 57.55-44.46 68.1zM767.86 827.86a127.73 127.73 0 0 1 17.29.81c12.37 1.39 17.46 9.32 19.82 15.56 5 13.2 4.38 55.43 4.38 67.86v89.11c0 24.45.09 45.6-12.14 68.76-14.05 26.6-42.77 47.35-88 47.35-26.18 0-50-10.66-64.42-26.65-15.55-17.25-19.62-33.87-19.62-71.34V850.91c0-16 4.46-21.1 18.35-22.46 3.06-.31 8-.6 13-.6v-9.45H539.23v9.45a127.48 127.48 0 0 1 17.3.81c12.38 1.39 17.47 9.32 19.83 15.56 5 13.2 4.59 33.25 4.59 67.86l-.08 95.74c0 38.47 3.62 64 22.57 87.88 16.41 20.68 41.86 41.41 99.4 41.41 75.16 0 123.68-46.55 123.68-116.92 0-27.19.61-159.79.67-168.53.09-17.22 3.47-21.79 18.16-23.23 3.06-.3 7.23-.58 12.21-.58v-9.45h-89.7zM409.12 941.05C385.2 931.9 341 920.91 341 882.8c0-18.49 11.63-42.46 38.22-51.23s56.93-4.28 72.4 3.9c13.17 7 14.84 15.11 16.1 26.16l10.57-.73-1.16-40.32c-16.65-5.9-33.48-9.37-58.71-10-60.23-1.42-108.57 36.54-108.57 87.66 0 61.2 53.18 78.12 78.39 87.62 51.55 19.43 79.37 33.56 79.37 70 0 36.17-37.78 65-78 63.36-27.14-1.1-45.65-12.05-62.5-29.54-6.36-6.59-16.93-22.34-20.94-39.77l-11.29 1.6 10.48 59.26c19.84 15.1 51.14 26 78.37 26.51 75.77 1.62 119.05-51.29 119.05-95.41.04-67.57-54.02-86.32-93.66-100.82zM14.21 818.4L0 866.38l9.85 3.11c6.93-20.18 22.13-25.85 44.89-30.12a327.25 327.25 0 0 1 49.19-3.89h9.41c0 40.7.45 229.39-.6 262-.39 12.05-2.61 16.77-9.62 19-6.21 2-17.24 2.16-22.64 2.16v9.42h122.87v-9.42c-8 0-20.06-.78-26.39-2.84-6.9-2.26-16.43-8.88-17.44-25.63-.65-11.4-2.21-26.31-2.43-63.41-.19-27.11-.13-160.87-.13-191.41h11.8c22.62 0 43.93 2.88 48.68 3.81 25.36 5.09 38.74 11.41 45.82 30.25l9.86-3.07-15.24-47.94zM1436.57 1086c-18.19-44.07-78.46-204.77-90.32-250.81-3.82-14.74 5-20.3 10.13-21.24l-2.87-9-39.28 8.83c-19.71 49.82-44.26 110-67.47 164.26-19.33 45.05-31 74.65-40.17 95.44-11.15 25.28-14.27 34.57-19.89 39-5 4-13.08 5.72-25.3 6.11v9.42h105.85v-9.42c-10.83-.52-18.46-1.46-25.5-3.09-20.7-4.77-20.19-15.59-15.17-31.9 5.75-18.69 15.19-44.58 25.82-72.3h106c14.68 42.74 27.72 78.77 31 88.62 2.52 7.81 1.81 11.56-.81 14.25-3.49 3.63-13.83 4.36-21.37 4.42v9.42H1479v-9.42c-8.7 0-16.35-.94-22.67-4.72-7.46-4.42-14.33-14.61-19.76-27.87zm-177.8-91.19c20.19-51.8 42.8-106.25 52.54-130.19 4.17 15.45 26 84.19 36.47 115.48 1.67 4.94 3.31 9.87 5 14.71zM72.1 43.23c.19 2.79.8 60.7.8 66.83 0 5.13-.21 19.33-.42 33.07-.2 13.29-.38 25.83-.38 30.23 0 2.2 0 8.89 6.28 8.89 4.39 0 11-3.27 11.88-10.55.48-4.28 1.53-4.28 5.95-4.28h77.33c3.38 0 4.88.27 5.14 2.86v.34c.38 2.87 1.08 8.22 7.23 8.22 3.24 0 12.49-2.81 12.49-15.3 0-3.84-.42-14.47-.84-24.75-.4-9.85-.77-19.14-.77-22.36-.4-20.22-.4-41.4-.4-61.88 0-3.47 0-6.22 1.95-9.05l.51-.64c2.73-3.42 3.55-4.76 3.55-5.73 0-4.82-13.63-13.69-16.1-13.69-1.68 0-3.82 2.14-7.43 6.35-.49.57-.87 1-1 1.19-2 1.87-4.47 1.87-8.15 1.87h-48.21c.49-1.78 11.13-14.25 16.09-15.54l.94-.24c6.49-1.66 8.23-2.11 8.23-5.2C146.76 8.42 124.87 0 123.46 0c-1.76 0-2 1.4-2.85 6-1.08 5.67-5.14 23.41-8 27.29-1.22 1.53-3.76 1.53-5.62 1.53H95.41c-3.1 0-3.75 0-7.72-1.7-9.7-4-11-4.51-12.91-4.51-3.48 0-3.48 2.92-3.48 3.88s.11 2.23.29 4.21c.14 1.71.33 3.84.51 6.53zm21.1 40.85h82.34c3 0 4.94.57 4.94 3.33v26.24c0 1.7-.75 3.74-4.34 3.74H93.41c-3.36 0-4.74-.91-4.74-3.13V88c0-3.44 2.18-3.92 4.54-3.92zm.4 41.27h82.54c3.82 0 4.34 1.79 4.34 3.53v26.64c0 3-1.11 3.94-4.74 3.94H93.81c-1.76 0-4.42-.54-4.54-1.93 0-.63-.05-6-.11-11.19 0-4.69-.09-9.17-.09-9.65 0-10.91.17-11.34 4.54-11.34zm86.67-52c0 2.08-1.37 2.93-4.74 2.93H93.41c-4.34 0-4.34-1.9-4.34-3.74v-26c0-2.24.77-3.74 4.54-3.74h81.94c4.74 0 4.74 2.16 4.74 3.74zm101.31 81.18c0-3.35-.56-13.38-3.06-15.43a2 2 0 0 0-1.67-.45l-.32.11c-.68.34-.82.7-2.21 5.56-.45 1.58-1 3.36-1.17 3.85-4 8.45-7.58 11.84-10.86 14.57l-.73.58c-6.09 4.79-8.37 6.58-8.37 11.44a8.61 8.61 0 0 0 8.28 8.89c8.22 0 20.11-10.37 20.11-29.12zM263 72l.49.4c2.52 1.91 6.17 5.94 9.19 14.24l.28.79c3 8.51 3.93 11.08 8.33 11.08 3.41 0 7.08-3.86 7.08-10.09 0-14.6-20.67-20.5-24.11-20.5-1.72 0-2.87.83-2.87 2.07.02.75.52 1.15 1.61 2.01zm95.37 96.88c1.3 7.84 2 12.16 7.68 12.16s9.69-6.91 9.69-13.09c0-12.42-19.85-29.92-24.91-29.92a2.16 2.16 0 0 0-2.14 1.11l-.11.32c-.2 1 .23 2.47 1.54 5.08 5 8.91 6.28 11.31 8.07 23.23zM395.11 17.5c1.66 2 3.78 6.83 4.55 10.3 1.4 6 3 12.8 10.46 12.8 5.44 0 8.68-5.43 8.68-10.69 0-10.86-13.74-17-21.86-18.92-4.32-1-5-.43-5.39.31-.54 1.08-.2 1.5 2.42 4.77z"/><path class="cls-1" d="M255.27 72.06c4.46 0 14-9.74 28.35-29.08 3.75-5.32 3.81-5.37 6.7-5.37h21.44c3.72 0 3.93.22 3.93 1.93 0 2-2.59 9.63-3.93 13Q309.18 59.46 306 66c-.71-11.19-16.72-15.73-23.49-15.73 0 0-3.48 0-3.48 1.88 0 .7 0 .7 3.07 3.3 1 .84 2 1.66 2.28 2 2.59 2.77 5.76 7 7 10.82s2.09 6.61 7.2 6.61a7.88 7.88 0 0 0 3.15-.62 139.78 139.78 0 0 1-40.16 45.19c-7.56 5.4-8.35 6-8.35 7.85a2.65 2.65 0 0 0 2.68 2.68c2.07 0 16.71-6.95 21.16-10 22.68-15.68 36.01-33.33 50.94-67.52 3.52-8.29 5-11.27 9.34-13.55 1.55-.66 3-1.58 3-3.78C340.28 30.8 326.95 22 324 22c-2.27 0-2.8.68-6.23 5.12-1.28 1.7-3.18 2.49-6 2.49h-18c-1.69 0-1.72-.31-1.76-.26.38-1.35 4.61-10.71 5.82-11.6 3.9-2.34 5.63-3.48 5.63-5.9 0-4.39-16.62-9.49-17.5-9.49-3 0-3.29 2.71-3.48 4.4-.62 9.76-10.48 34.24-22.83 52.45-.29.38-7.06 9.43-7.06 10.58a2.54 2.54 0 0 0 2.68 2.27zM306 139.83c-1.57 0-2.28.94-2.28 1.87l.12.54s2.82 6 3 6.33c1.89 4.91 2.11 9.83 2.32 14.39.19 9.08.38 18.48 8.48 18.48 5.09 0 10.09-6.78 10.09-13.69-.07-16.42-20.01-27.92-21.73-27.92z"/><path class="cls-1" d="M421.15 112.54C387.69 94.26 376.54 69.1 376.54 64c0-2 1.13-2.33 4.74-2.33h35.26c7.28 0 12.09 0 12.09-4.08 0-3.14-16.64-15.1-18.5-15.1-2.63 0-3.54 1.48-7.89 8.61-1.56 2.49-2.85 2.81-11.54 2.81h-7.41c-3.45 0-5.54 0-5.54-5.34 0-3.64 1.27-28.9 2.26-31.07.12-.22.77-1 1.24-1.51 1.78-2.07 2.51-3 2.51-3.87 0-2.78-3.41-4.23-3.83-4.4C376.71 6.49 363.71 4 362.44 4a2.2 2.2 0 0 0-2.27 2.28 26.08 26.08 0 0 0 1.27 5.13c.35 1.18.68 2.24.76 2.7.19 1.37.78 24.06.78 27 0 12.55-.76 12.55-5.74 12.55-2.12 0-8-.32-13.72-.62s-10.83-.58-12.72-.58a1.68 1.68 0 0 0-1.87 1.67c0 .85.23 1.13 1.09 2.21l3.89 4.7c.92.92 1.58 1.58 2.7 1.58.18 0 1.13-.1 2.24-.23S342 62 342.47 62c4.21-.18 10.18-.4 14.77-.4 2.46 0 3.33.32 3.33 2.13 0 2.76-3.19 18.42-12.21 32.16-10.27 15.8-19.89 22.15-30.09 28.88l-.82.54c-2.55 1.69-3.16 2.1-3.16 3.32s1 2.28 2.88 2.28c1.62 0 17.47-4.79 30.69-15.94a81.25 81.25 0 0 0 25.25-39.54l.32.78.25.59c6.74 17.45 9 23.33 19.22 36.19 5.32 6.69 15.3 17.31 19.43 17.31 1.22 0 2.75-1.27 5.69-4a23.3 23.3 0 0 1 2.36-2c.46-.26 2.09-.94 3.67-1.59 6.47-2.68 7-3 7-4.12s-.05-1.11-9.9-6.05zM395.7 143c-.71 0-2.19 0-2.74 1.11l-.13.57c0 .54 0 .54 7.21 11.79l2 3.09a100.8 100.8 0 0 1 5.09 12l.2.63c1.9 5.9 3.69 11.47 10.22 11.47 5.64 0 8.69-5.82 8.69-11.29-.02-17.07-26.87-29.37-30.54-29.37zM603.44 11.42c-1.87 0-8.49 1-8.49 4.08 0 .81.46 2.31 3.44 3.2 6.31 2.29 14.25 7 17.47 10.44 4 4.66 6.49 7.46 11.42 7.46 3.88 0 6.28-3.68 6.28-7.08 0-.18-.35-18.1-30.12-18.1zm-18.02 55.1l.87.42c15 6.71 15.47 20.34 15.47 21.88 0 4.77-.43 5.1-7.76 10.64-.31.26-1.33.87-2.31 1.46-4.55 2.74-6 3.81-6 5.13 0 1.65 1.93 1.89 5.12 2.29.91.11 1.76.21 2.12.31.69.25 2.33 1.07 4.06 1.94 4.83 2.42 8.38 4.14 10 4.14 9.39 0 12.69-14.58 12.69-17.72-.19-9.8-9.16-36.71-36.33-36.71-2.33 0-2.68 1.55-2.68 2.48.06 1.33 1.49 2.16 4.75 3.74zM485 89.29c2 0 6.41-1.49 13.39-3.94 5.45-1.91 11.62-4.08 13.72-4.11a.83.83 0 0 1 .06.36c0 1-1.77 6.58-2.73 9-10.65 29.6-18.85 38.7-24.38 44.85-12.19 13.41-13.75 15.13-13.75 19.89S474.29 163 479 163c17.5 0 37-50.66 44.89-77.44l.38-1.29c1.63-5.54 1.83-6.17 2.41-6.9 1-1.22 11.61-4.32 18.23-4.32s12.55 1.67 12.55 13.75c0 10.92-4.31 27.78-6.17 34.53-5.59 20.83-12.45 23.5-17.8 23.5a49.11 49.11 0 0 1-9.81-1.34c-4.4-1.47-5.14-1.47-5.41-1.47a2.22 2.22 0 0 0-2.28 2.27c0 .52.28 1.22 1.37 3.77.52 1.23 1.12 2.61 1.31 3.27l.4 1.15c2.32 6.65 4.72 13.52 12.62 13.52s16.21-6.54 21.41-12.68c12.23-14.76 17.52-50.27 17.52-65.12 0-17.11-10.18-26.92-27.92-26.92-.89 0-3.53.25-7.17.59-2 .19-4.26.41-4.64.41-.93 0-.93-.26-.93-.53 0-2.92 5.17-20.93 6.87-26.85a14.93 14.93 0 0 0 .74-2.8c0-5.76-8-14.09-22.51-14.09-2.72 0-4.48 1.13-4.48 2.87 0 1 .31 1.37 2.76 4.3l.92 1.1c4.37 5.51 4.73 11.27 4.73 16.24 0 8.16-1 20.61-2.93 22.48-2.65.64-27.61 5.89-33.06 5.89-1.29 0-6.47-1.26-9.57-2a24.73 24.73 0 0 0-3.66-.8 3 3 0 0 0-3.03 2.91c0 5.3 9.77 18.29 18.26 18.29zm99.89-54.51c8.09 5.52 10 6.84 14 11.59 6.07 7.25 8.07 9.07 11.59 9.07 4.39 0 7.08-5.29 7.08-9.09s-5.61-18.7-31.52-18.7c-2.11 0-4.68 1.42-4.68 3.08-.03 1.89 3.52 4.05 3.53 4.05zM149.24 374.76l.15 1.26c1.32 11 2 16.49 8.12 16.49 4 0 11.69-5.1 11.69-13.09 0-18.7-28.05-50.35-31.12-50.35a1.94 1.94 0 0 0-2.07 1.87c0 .42.13.82 1.42 3.85.31.73.58 1.36.68 1.64 5.89 14.37 9.55 23.92 11.13 38.33zM73.37 354.1c-1.82 0-2.27 2.15-2.88 5.83-2.15 13.9-4.38 28.26-16.17 44.77l-.45.6c-6.43 8.7-7.42 10-7.42 14 0 5 3.48 8.69 8.29 8.69 16.84 0 23.11-31.38 23.11-51.16 0-10.38-.78-22.73-4.48-22.73z"/><path class="cls-1" d="M116.43 354.15l.74-.33c1.11-.66 3-1.77 3-4.06 0-6.57-22.41-9.49-23.91-9.49a2.62 2.62 0 0 0-2.73 2.73 4.65 4.65 0 0 0 .93 2.48l.65 1.18c1 1.72 1.82 5.6 2 7.73.76 5.48 1 40.7 1 52.91 0 25.21 2.18 33.93 44.95 33.93 25.25 0 33.42-1.81 39.67-5.16 7.55-4.08 13.69-12.58 13.69-19 0-2.69-.65-3.37-4.35-7.27-7.46-8-8.15-12.31-9.29-19.36-.75-4.85-1.52-6.49-3.06-6.49-2.47 0-2.47 1.89-2.47 4.28 0 8.17-1.86 16.3-3.77 23.92-3.08 11.77-11.31 13.67-29.82 13.67-21 0-26.57-3.32-28-5.31-1.74-2.26-1.94-6.16-1.94-37.89 0-22.87.57-26.5.75-27.09s.3-.73 1.96-1.38zm92.17-75.37c-1.75 0-4 2.44-8.32 7.92-1 1.21-1.75 2.22-2.2 2.67-.82.82-2.05 1-9.72 1h-13c-1.39 0-1.53 0-1.53-4.14 0-7.34.22-9.21.35-9.67a18.61 18.61 0 0 1 1-1.69c1.28-2.11 1.89-3.2 1.89-4.06 0-2.77-1.7-3.36-5.08-4.54l-.81-.28c-8.18-2.66-10.65-3.27-13.21-3.27-1.16 0-3.88 0-3.88 2.68 0 .38 0 1.09 2.24 5.5.57 2.46.57 6.51.57 18.54 0 .86-1.17.93-1.53.93H118c-2.13 0-2.13 0-2.13-4.74 0-7.06 0-7.74.56-8.88a19.43 19.43 0 0 1 1-1.76c1.18-2 1.66-2.85 1.66-3.58 0-5.76-19.08-8.48-20.3-8.48-2.27 0-3.68 1.33-3.68 3.48 0 1.24 2.27 7 2.27 7 1.15 3.32 1.73 8.71 1.73 16 0 .8 0 .93-1.53.93H83.39c-9.26 0-18-.19-27.23-.58-1.25-.21-7.55-.82-9-.82a1.85 1.85 0 0 0-2.07 1.87 2.39 2.39 0 0 0 .71 1.51l4.45 5.19a3.35 3.35 0 0 0 2.72 1.78 32.36 32.36 0 0 0 4.28-.6c7-.4 20.67-.4 25.17-.4h15c1.43 0 1.73 0 1.73 1.53 0 1-.1 4-.19 7.07-.1 3.27-.21 6.62-.21 7.75 0 6.28 2.25 9.09 7.28 9.09 4.88 0 10.69-2 10.69-11.49 0-1-.1-3.73-.2-6.46s-.2-5.37-.2-6.36.15-1.13 1.93-1.13h37.06c.94 0 1.2.09 1.33.53v17.43c0 5 .56 9.89 7.28 9.89s10.89-4.14 10.89-11.09c0-.32-.09-2-.2-4-.17-3-.4-7.08-.4-8.27 0-4.2.16-4.54 2.13-4.54h40.47c7.28 0 12.09 0 12.09-4.28 0-3.66-18.9-15.18-20.3-15.18zm-18.23 67.31a2.13 2.13 0 0 0-2.07 2.07c0 1.21 2.75 5.81 2.76 5.81 9.48 17.69 14.56 33.65 15.28 41 1 11.94 1.45 17.39 8.48 17.39 6.16 0 10.09-9.12 10.09-13.89-.01-24.26-32.81-52.38-34.54-52.38zM334.4 305a34.27 34.27 0 0 1-18.73-5.2c-.05 0-5.46-3.42-6.32-3.42-1.35 0-2.07 1.38-2.07 2.68 0 8.25 12.93 19.24 28 20.3h.54c1 .06 2 .12 2.46.21-.18 3.35-1.55 25.25-1.71 26.29-.33.89-2.78 3-18.44 3a75.48 75.48 0 0 1-23.77-3.52l-.9-.38c-3.76-1.6-6.15-2.52-7.19-2.52a1.82 1.82 0 0 0-1.87 2.07c0 2.18 3.38 7.31 6.21 10.15 9.18 8.57 23 8.55 28.51 8.56 1.32 0 4.82-.24 8.52-.49s7.52-.51 8.91-.51a1.42 1.42 0 0 1 .59.08 5.39 5.39 0 0 1 .14 1.7c.19 5.23.4 18.58.4 22.79 0 3.18 0 5.69-.24 6.08a2.14 2.14 0 0 1-.69.06c-.65 0-2.59-.13-4.65-.27-2.42-.16-5-.33-6-.33-27.53 0-37.33 11.63-37.33 22.51 0 8.86 7.31 22.91 26.92 22.91 16.79 0 30.67-10.81 35.34-21.26.77-1.69 1-2.18 1.32-2.18 1.5 0 8.92 5.2 13 10.36l.28.34c7.22 8.62 8.15 9.73 11.51 9.73 3.89 0 8.08-3.7 8.08-9.69 0-10.79-14.68-21.65-29.27-27.63-3.39-1.29-3.4-1.41-4.14-7.52l-.05-.43c-.23-2.33-2.4-25-2.4-28.72 0-1 0-1.09 5.93-3.2.32-.11 32.33-10.81 32.33-20.44 0-5.61-6.12-6.06-14.7-6.68-.38 0-1.82-.28-2.87-.48a24 24 0 0 0-3.35-.52c-2.11 0-2.27 1.43-2.27 1.87a9.93 9.93 0 0 0 .44 2.13 13.25 13.25 0 0 1 .36 1.47c0 5.13-13 9.15-15.35 9.15-1.31 0-1.33 0-1.33-4.54 0-8 .77-18.22.94-19l.06-.32c.15-2.18.15-2.18 1.32-2.48l.76-.24c6.28-2 19.35-6.17 19.35-14.19 0-3.75-3.81-5.08-7.08-5.08a23.79 23.79 0 0 0-7.25 1.55l-.4.13c-2.79 1-4.07 1.47-4.7 1.64a47.1 47.1 0 0 1 2.9-12.36c.16-.38.62-1.2 1.18-2.22 2.23-4 3.93-7.26 3.93-8.9 0-5.42-12-10.49-17.5-10.49-2 0-6.28 0-6.28 2.68a5.65 5.65 0 0 0 .92 2.3 11.73 11.73 0 0 1 .55 1.11v.12c.58 1.28 3.49 7.88 3.49 11.89 0 4.44-.63 15.54-1.18 17.38.1.5-.2 1.97-5.16 1.97zm-2.46 110.51c-4.35 4-12.68 7.08-19 7.08-3.83 0-14.75-1.61-14.75-8.75 0-10 20-10.15 20.16-10.15 6.62 0 17 1.44 17.87 3.45.45 1-.76 5.27-4.29 8.4zM585 418.88c0-5.52-4-8.69-11.09-8.69-.79 0-3.4.19-7.58.49-4.59.33-9.8.71-11.45.71-12.21 0-23.17-2.65-23.17-34.59-.02-50.73 27.29-73.8 52.59-73.8 1 0 4.34.54 7.33 1a88.26 88.26 0 0 0 8.9 1.19c3.83 0 9.49-2.76 9.49-8.69 0-7.48-9.07-10.89-17.5-10.89-13 0-56.77 12.31-75.47 17.57l-1.8.51c-27.54 7.84-30.32 8.57-38.52 8.57a19.92 19.92 0 0 1-2-.37c-3.94-.85-5.89-1.12-6.76 0-.71.77-1.3 2.31 0 5.26 2.4 5.5 10 13.11 18 13.11 2.33 0 4.38-1.11 6.74-2.39l.7-.38c6.3-3.63 44-19.71 57.34-21.16-.88.71-1.95 1.54-2.93 2.28-25.64 23-29.47 58.78-29.47 78.08 0 29.29 14.18 44.14 42.14 44.14 4.07-.06 24.51-.63 24.51-11.95z"/><path class="cls-1" d="M607.34 324.92a19.89 19.89 0 0 0-5.41-1.07c-3.37 0-4.08 1.35-4.08 2.47 0 1.56 1.1 2.65 2.27 3.59 5.28 4.3 11.17 11.41 12.85 15.53l.25.6c2 4.81 4.48 10.8 9.94 10.8 3.52 0 7.08-3 7.08-8.68.01-10.9-11.87-19.69-22.9-23.24zm-30.76 8.69a1.94 1.94 0 0 0-.76 1.53c0 .9.76 2.37 2.27 4.39 6.37 8.16 7.69 9.85 9.84 15.33 3.25 7.92 5.31 12.41 9.79 12.41 3.83 0 8.28-4.14 8.28-9.49 0-7.48-7.63-20.08-24.64-24.68-1.49-.34-3.65-.4-4.78.51zm-378.4 324.71c-.62 0-1.26.25-11.67 5.8-3.45 1.84-6.7 3.57-7.9 4.13-18 8.51-32.54 10.3-41.53 10.3-24.38 0-29.38-14.79-29.38-37 0-16.29 5.49-60.48 8.38-71 .12-.48.64-1.82 1.2-3.23 1.55-4 2.65-6.86 2.65-8.3 0-5.42-9.23-22.11-20.5-22.11-2 0-4.08 1.15-4.08 3.27 0 .34 0 .37 1.32 3.51.44 1.05.86 2 1 2.4a24 24 0 0 1 1.7 9.32c0 5.79-1.92 22.94-2.6 28.51-4.22 39.43-4.61 43.44-4.61 55.83 0 39.65 11.88 56.56 39.74 56.56 37.08 0 68.59-31.84 68.59-35.73a2.2 2.2 0 0 0-2.31-2.26zm197.57-24.83l-1-.53c-3.36-1.78-3.79-2.07-3.8-3.75 0-.54.94-5.82 1.6-9.68.82-4.83 1.08-6.42 1.17-7 .22-.38.63-1 1.1-1.73 2.31-3.55 3.35-5.32 3.35-6.48 0-9.24-19.11-12.29-19.3-12.29-2.87 0-3.48 1.35-3.48 2.47 0 .37.12 1.44.46 4.19s.75 6.17.75 7c0 3.35-1.29 15.45-2.76 17.15a9.24 9.24 0 0 1-2.56-.73 164.85 164.85 0 0 0-38.17-8.08c-1.84-.15-8.21-.08-12.87 0h-4.05c1.86-3.8 15.63-27.29 28.9-39.63 10.74-9.91 12.63-12.48 12.63-17.16 0-3.45-3.21-13.29-17.5-13.29-3.93 0-10.27.71-19.91 6.81-11.85 7.51-14 7.82-20.15 7.82-.39 0-1.81-.2-3-.36a37.76 37.76 0 0 0-3.85-.44c-.67 0-2.87.24-2.87 3.28 0 1.26 6.09 16.1 14.29 16.1 3.94 0 9.42-3.21 16.27-9.53 10.77-9.43 13.15-9.7 13.38-9.7s.88 0 1.14 1.29-1.43 6.2-2.45 8.24c-.44.79-6.19 9.57-12.28 18.86-7.43 11.32-15.84 24.16-18.31 28.14-1.76 2.64-2.06 2.74-4.37 3.51-19.77 7-39.71 22.3-39.71 40.87 0 5.64 3.54 17.3 14.49 17.3 13.35 0 16.93-7.6 34.1-44.15l.31-.65c3.24-6.87 3.44-7.28 15.08-7.28 8.08 0 20.93 1.54 36.3 8.89C369 638 369 638.84 369 640c0 1.83-4.07 8.06-5.81 10.73-11.73 18.2-21.47 26-40.76 39.21 0 0-4.51 2.56-4.51 3.95 0 .56.28 1.87 2.88 1.87 1.9 0 11-2.35 22.22-8.16 23.39-12.18 33.24-25.83 39.77-37.54l.22-.38c.56-1 .88-1.41 1.49-1.41.44 0 1.86.57 6.52 4.25.74.59.94.74.86.66 14.21 12.18 16.55 13.93 21.06 13.93 2.93 0 8.68-2.68 8.68-8.89-.01-10.85-17.47-20.22-25.87-24.73zm-100.65-4.44c-1.76 4.69-13.54 28.67-22.61 28.67-2.61 0-3.94-1.53-3.94-4.54.01-10.7 19.45-23.36 26.55-24.13zm231.9 6.5c0-1.64-1-2.87-2.27-2.87-2.77 0-6.85 6.67-7.3 7.43-6 10.06-6.52 10.4-9.12 10.4-5.39 0-15.35-13.85-15.35-33.59 0-10.18 1.81-17.27 4.74-25.43.49-1.44.89-2.56 1.21-3.45 1-2.8 1.26-3.56 1.26-5 0-6.18-9.48-22.71-19.5-22.71a2.26 2.26 0 0 0-2.47 2.07c0 1.27.18 1.9 1.32 6l.33 1.18a54.57 54.57 0 0 1 1.36 11.28c0 2.5-.69 9.89-1.36 17-.71 7.62-1.45 15.5-1.45 18.41 0 39.19 26 60.57 39.34 60.57 4.27 0 8.89-2.86 8.89-7.48a31.37 31.37 0 0 0-1.32-5.75l-.34-1.22a25.91 25.91 0 0 1-1.15-7.65c0-4.07.37-5.72 2.54-14.82a24.63 24.63 0 0 0 .64-4.37zm70.43-48.86c-9-7.31-21.12-7.9-21.24-7.9-1.81 0-3.08.94-3.08 2.28 0 1.16 1.26 2.48 7.11 7.41 1.29 1.08 2.39 2 2.88 2.5 10.25 10.24 10.25 18.44 10.25 34.76 0 12.79 6.95 14.7 11.09 14.7 5.15 0 11.29-2.52 11.29-14.5 0-15.14-7.01-30.18-18.3-39.25zm152.04 21.55a49.82 49.82 0 0 0-18 3.27c-.62.21-1.6.57-2.59.93l-2 .71c.17-3 17.08-29.81 31.5-40 9.84-6.76 14.77-10.16 14.77-16.67 0-10.05-14.3-15.1-22.31-15.1-4.7 0-6.3.7-18.73 6.11-5.41 2.32-20 7.11-30.55 7.11-4.79 0-6.08 0-6.08 1.88s6.84 15.09 16.9 15.09c4.11 0 7.25-1.08 15-7.5l.44-.36c3.64-3 14.72-12.17 21.39-12.17 1.75 0 2.53.9 2.53 1.53 0 1.88-3.47 7-9.18 15.09-30.61 43-32.32 45.14-45.21 60.21-13.89 16.24-16.13 21.22-16.13 26.87a6.78 6.78 0 0 0 7.08 6.88c5.92 0 8.22-3.92 12-10.43l.49-.82c4.5-7.75 21.11-33 46-33 18.58 0 32.58 12.54 32.58 29.18s-13.92 27.58-19.56 27.58c-1.91 0-2.79-1-5.28-4.24l-.52-.68c-4.73-6.07-12.7-13.31-23.84-13.31-11.89 0-21.11 9.41-21.11 17.5 0 10.58 14.2 21.91 35.33 21.91 31.72 0 51.35-23.12 51.35-44.54.08-24.17-20.28-43.03-46.27-43.03zm-20.23 58c6.79 0 10.95 7.48 10.95 11.55a2.06 2.06 0 0 1-2.13 2.33c-8.2 0-16-4-16-8.14.04-2.56 3.22-5.7 7.18-5.7z"/></g></svg>