<?xml version="1.0" standalone="no"?>
<!DOCTYPE svg PUBLIC "-//W3C//DTD SVG 1.1//EN" "http://www.w3.org/Graphics/SVG/1.1/DTD/svg11.dtd" >
<svg xmlns="http://www.w3.org/2000/svg">
<metadata>Generated by IcoMoon</metadata>
<defs>
<font id="icomoon" horiz-adv-x="1024">
<font-face units-per-em="1024" ascent="960" descent="-64" />
<missing-glyph horiz-adv-x="1024" />
<glyph unicode="&#x20;" horiz-adv-x="512" d="" />
<glyph unicode="&#xe900;" glyph-name="txt-valign-top" d="M284.444 705.896h455.111v-37.926h-455.111v37.926zM523.378 603.496l-11.378 11.378-11.378-11.378-113.778-102.4c-7.585-7.585-7.585-18.963 0-26.548s18.963-7.585 26.548 0l79.644 72.059v-299.615c0-11.378 7.585-18.963 18.963-18.963s18.963 11.378 18.963 22.756v299.615l83.437-72.059c7.585-7.585 18.963-7.585 26.548 0s7.585 18.963 0 26.548l-117.57 98.607z" />
<glyph unicode="&#xe901;" glyph-name="txt-justify_icn" d="M170.667 580.741h678.874v-37.926h-678.874v37.926zM170.667 463.17h678.874v-37.926h-678.874v37.926zM170.667 353.185v-37.926c125.156 0 678.874 0 678.874 0v37.926h-678.874z" />
<glyph unicode="&#xe902;" glyph-name="eyeDropper" d="M571.372 669.307l70.167 70.167c32.391 32.391 80.962 32.391 113.353 0s32.391-80.962 0-113.353l-70.167-70.167 21.596-21.596c21.596-21.596 21.596-53.981 0-75.569s-53.981-21.596-75.569 0l-156.539 156.539c-21.596 21.596-21.596 53.981 0 75.569s53.981 21.596 75.569 0l21.596-21.596zM447.226 539.761l-205.114-205.114 5.399-70.167-32.391-26.989c-10.798-10.798-10.798-21.596 0-32.391s21.596-10.798 32.391 0c0 0 0 0 0 0l21.596 21.596 80.962-5.399 205.114 205.114-107.954 113.353zM333.873 280.666h-32.391v32.391l151.137 151.137 32.391-37.784-151.137-145.744z" />
<glyph unicode="&#xe903;" glyph-name="lowercase" d="M410.203 215.151c-3.217 6.287-6.033 16.529-8.445 30.726-23.325-24.541-51.879-36.811-85.66-36.811-32.776 0-59.52 9.431-80.231 28.292s-31.067 42.185-31.067 69.97c0 35.087 12.869 61.96 38.607 80.618 25.939 18.861 62.938 28.292 110.996 28.292h44.941v21.6c0 17.036-4.725 30.624-14.176 40.765-9.451 10.343-23.828 15.515-43.132 15.515-16.69 0-30.363-4.259-41.020-12.777-10.658-8.315-15.986-18.962-15.986-31.943h-73.294c0 18.050 5.932 34.884 17.796 50.5 11.864 15.819 27.95 28.191 48.259 37.115 20.51 8.924 43.333 13.386 68.468 13.386 38.205 0 68.669-9.735 91.391-29.205 22.722-19.267 34.385-46.444 34.988-81.53v-148.459c0-29.611 4.122-53.238 12.367-70.883v-5.171h-74.802zM329.671 268.389c14.478 0 28.051 3.549 40.719 10.648 12.869 7.098 22.52 16.63 28.955 28.596v62.061h-39.512c-27.146 0-47.556-4.766-61.229-14.298s-20.51-23.019-20.51-40.461c0-14.197 4.624-25.554 13.875-34.073 9.451-8.315 22.018-12.473 37.702-12.473zM744.398 215.151c-3.217 6.287-6.032 16.529-8.445 30.726-23.325-24.541-51.879-36.811-85.66-36.811-32.776 0-59.52 9.431-80.23 28.292s-31.067 42.185-31.067 69.97c0 35.087 12.87 61.96 38.608 80.618 25.939 18.861 62.938 28.292 110.996 28.292h44.941v21.6c0 17.036-4.725 30.624-14.176 40.765-9.451 10.343-23.828 15.515-43.132 15.515-16.689 0-30.363-4.259-41.020-12.777-10.657-8.315-15.986-18.962-15.986-31.943h-73.294c0 18.050 5.932 34.884 17.796 50.5 11.864 15.819 27.95 28.191 48.259 37.115 20.511 8.924 43.333 13.386 68.468 13.386 38.205 0 68.669-9.735 91.391-29.205 22.722-19.267 34.385-46.444 34.988-81.53v-148.459c0-29.611 4.122-53.238 12.367-70.883v-5.171h-74.802zM663.866 268.389c14.477 0 28.050 3.549 40.718 10.648 12.869 7.098 22.521 16.63 28.955 28.596v62.061h-39.512c-27.146 0-47.555-4.766-61.229-14.298s-20.51-23.019-20.51-40.461c0-14.197 4.625-25.554 13.875-34.073 9.451-8.315 22.019-12.473 37.703-12.473z" />
<glyph unicode="&#xe904;" glyph-name="uppercase" d="M451.533 314.6h-188l-39.333-113h-87.667l183.334 485.334h75.667l183.667-485.334h-88.001l-39.666 113zM287.2 382.6h140.667l-70.334 201.333-70.333-201.333zM818.2 314.6h-188l-39.334-113h-87.667l183.334 485.334h75.667l183.669-485.334h-88.003l-39.666 113zM653.866 382.6h140.667l-70.333 201.333-70.334-201.333z" />
<glyph unicode="&#xe905;" glyph-name="lineThrough" d="M678.667 686.933v-324.334c0-51.556-16.556-92.444-49.667-122.666-32.889-30-76.778-45-131.667-45-55.556 0-99.667 14.778-132.334 44.333-32.667 29.778-49 71-49 123.667v324h84v-324.667c0-32.444 8.222-57.222 24.666-74.334s40.667-25.666 72.667-25.666c64.889 0 97.333 34.222 97.333 102.666v322h84zM273.067 474.666h445v-68.133h-445v68.133z" />
<glyph unicode="&#xe906;" glyph-name="underline" d="M677.4 686.933v-324.334c0-51.555-16.555-92.444-49.667-122.666-32.889-30-76.777-45-131.667-45-55.555 0-99.667 14.778-132.334 44.333-32.666 29.778-49 71-49 123.667v324h84v-324.667c0-32.444 8.222-57.222 24.667-74.334s40.666-25.666 72.666-25.666c64.889 0 97.333 34.222 97.333 102.666v322h84zM273.067 116h445v-33.333h-445v33.333z" />
<glyph unicode="&#xe907;" glyph-name="italic" d="M491.6 201.6h-82l84.333 485.334h82l-84.333-485.334z" />
<glyph unicode="&#xe908;" glyph-name="bold" d="M341.333 194.090v485.334h174.333c62.444 0 109.889-11.444 142.333-34.333 32.667-22.889 49-56.111 49-99.667 0-25.111-5.778-46.556-17.334-64.333s-28.556-30.889-51-39.334c25.333-6.666 44.777-19.111 58.333-37.333s20.333-40.445 20.333-66.666c0-47.556-15.111-83.334-45.333-107.334-30-23.778-74.555-35.888-133.667-36.334h-197zM458.334 400.424v-116.334h76.666c21.111 0 37.334 4.778 48.667 14.334 11.334 9.777 17 23.444 17 41 0 40.445-20.111 60.778-60.333 61h-82zM458.334 477.090h61c25.556 0.223 43.778 4.889 54.667 14s16.333 22.555 16.333 40.333c0 20.445-5.889 35.111-17.667 44-11.777 9.112-30.777 13.667-57 13.667h-57.333v-112z" />
<glyph unicode="&#xe909;" glyph-name="speaker-view" d="M757.76 693.76v-286.72c0-33.933-27.507-61.44-61.44-61.44h-175.837l149.359-149.359-28.963-28.963-149.359 149.359-149.359-149.359-28.962 28.963 149.358 149.359h-155.357c-33.932 0-61.44 27.507-61.44 61.44v286.72h-61.44v40.96h634.88v-40.96h-61.44zM716.8 693.76h-430.080v-286.72c0-11.311 9.169-20.48 20.48-20.48h389.12c11.311 0 20.48 9.169 20.48 20.48v286.72z" />
<glyph unicode="&#xe90a;" glyph-name="i_icn" d="M512 637.63v0c49.304 0 94.815-41.719 94.815-94.815v-455.111c0-49.304-41.719-94.815-94.815-94.815v0c-49.304 0-94.815 41.719-94.815 94.815v455.111c0 53.096 45.511 94.815 94.815 94.815zM606.815 808.296c0-52.365-42.45-94.815-94.815-94.815s-94.815 42.45-94.815 94.815c0 52.365 42.45 94.815 94.815 94.815s94.815-42.45 94.815-94.815z" />
<glyph unicode="&#xe90b;" glyph-name="addMenu_icn" d="M589.824 706.048c-98.304 0-180.224-81.92-180.224-180.224s81.92-180.224 180.224-180.224 180.224 81.92 180.224 180.224-81.92 180.224-180.224 180.224v0zM282.624 128.512c-12.288-12.288-28.672-20.48-45.056-20.48-36.864 0-65.536 28.672-65.536 65.536 0 20.48 8.192 36.864 24.576 49.152l167.936 155.648c-28.672 40.96-45.056 90.112-45.056 147.456 0 147.456 118.784 266.24 266.24 266.24s266.24-118.784 266.24-266.24-118.784-266.24-266.24-266.24c-45.056 0-90.112 12.288-131.072 32.768l-172.032-163.84z" />
<glyph unicode="&#xe90c;" glyph-name="arrow_down_icn" d="M527.17 387.319l94.815 87.23c7.585 7.585 7.585 18.963 3.793 26.548-7.585 7.585-18.963 7.585-26.548 3.793l-83.437-75.852-83.437 75.852c-7.585 7.585-18.963 7.585-26.548-3.793-7.585-7.585-7.585-18.963 3.793-26.548l94.815-87.23c3.793-3.793 7.585-3.793 11.378-3.793s7.585 0 11.378 3.793z" />
<glyph unicode="&#xe90d;" glyph-name="arrow_icn" d="M720.593 626.252c0 0 0 0 0 0 0 7.585-3.793 15.17-11.378 18.963-3.793 3.793-11.378 7.585-18.963 11.378 0 0 0 0 0 0-3.793 0-3.793 0-7.585 0 0 0 0 0 0 0v0h-216.178c-18.963 0-37.926-15.17-37.926-37.926 0-18.963 15.17-37.926 37.926-37.926h128.948l-280.652-280.652c-15.17-15.17-15.17-37.926 0-53.096s37.926-15.17 53.096 0l280.652 280.652v-128.948c0-18.963 15.17-37.926 37.926-37.926v0c18.963 0 37.926 15.17 37.926 37.926v219.97c0 0 0 0 0 0-3.793 3.793-3.793 7.585-3.793 7.585z" />
<glyph unicode="&#xe90e;" glyph-name="arrow_next_icn" d="M610.607 466.963l-151.704 166.874c-11.378 11.378-30.341 15.17-45.511 3.793-11.378-11.378-15.17-30.341-3.793-45.511l132.741-144.119-132.741-144.119c-11.378-11.378-11.378-34.133 3.793-45.511 11.378-11.378 34.133-11.378 45.511 3.793l151.704 166.874c3.793 7.585 7.585 15.17 7.585 18.963 0 7.585-3.793 15.17-7.585 18.963z" />
<glyph unicode="&#xe90f;" glyph-name="arrow_prev_icn" d="M402.015 448c0-3.793 3.793-11.378 7.585-18.963l151.704-166.874c11.378-15.17 34.133-15.17 45.511-3.793 15.17 11.378 15.17 34.133 3.793 45.511l-132.741 144.119 132.741 144.119c11.378 15.17 7.585 34.133-3.793 45.511-15.17 11.378-34.133 7.585-45.511-3.793l-151.704-166.874c-3.793-3.793-7.585-11.378-7.585-18.963z" />
<glyph unicode="&#xe910;" glyph-name="arrow_up_icn" d="M500.622 504.889l-94.815-87.23c-7.585-7.585-7.585-18.963-3.793-26.548 7.585-7.585 18.963-7.585 26.548-3.793l83.437 75.852 83.437-75.852c7.585-7.585 18.963-7.585 26.548 3.793 7.585 7.585 7.585 18.963-3.793 26.548l-94.815 87.23c-3.793 3.793-7.585 3.793-11.378 3.793s-7.585 0-11.378-3.793z" />
<glyph unicode="&#xe911;" glyph-name="check_icn" d="M675.081 561.778v0c-7.585 7.585-22.756 7.585-34.133 0l-182.044-182.044-79.644 83.437c-7.585 7.585-18.963 7.585-26.548 0l-3.793-3.793c-7.585-7.585-7.585-18.963 0-26.548l98.607-98.607c0 0 3.793 0 3.793-3.793 7.585-7.585 22.756-3.793 30.341 3.793l197.215 197.215c7.585 7.585 7.585 22.756-3.793 30.341z" />
<glyph unicode="&#xe912;" glyph-name="circle_icn" d="M512 144.593c-166.874 0-303.407 136.533-303.407 303.407s136.533 303.407 303.407 303.407 303.407-136.533 303.407-303.407-136.533-303.407-303.407-303.407zM512 717.274c-147.911 0-269.274-121.363-269.274-269.274s121.363-269.274 269.274-269.274 269.274 121.363 269.274 269.274-121.363 269.274-269.274 269.274z" />
<glyph unicode="&#xe913;" glyph-name="closeBtn" d="M534.756 448l182.044 182.044c7.585 7.585 7.585 15.17 0 22.756s-15.17 7.585-22.756 0l-182.044-182.044-182.044 182.044c-3.793 3.793-15.17 3.793-22.756 0s-3.793-18.963 0-22.756l182.044-182.044-182.044-182.044c-7.585-7.585-7.585-15.17 0-22.756s15.17-7.585 22.756 0l182.044 182.044 182.044-182.044c7.585-7.585 15.17-7.585 22.756 0s7.585 15.17 0 22.756l-182.044 182.044z" />
<glyph unicode="&#xe914;" glyph-name="cursor_icn" d="M367.881 713.481c7.585 3.793 15.17 0 18.963-3.793l273.067-257.896c3.793-3.793 7.585-11.378 3.793-15.17 0-7.585-3.793-11.378-11.378-15.17l-94.815-41.719 56.889-136.533c7.585-15.17 0-37.926-18.963-45.511l-26.548-11.378c-15.17-7.585-34.133 0-41.719 15.17l-56.889 136.533-91.022-41.719c-3.793 0-22.756-3.793-22.756 18.963v383.052c3.793 3.793 3.793 11.378 11.378 15.17z" />
<glyph unicode="&#xe915;" glyph-name="disconnect" d="M625.778 140.8h-417.185v614.4h420.978v-140.326c0-11.378-7.585-18.963-18.963-18.963s-22.756 7.585-22.756 18.963v98.607h-341.333v-530.963h341.333v94.815c0 11.378 7.585 18.963 18.963 18.963s18.963-7.585 18.963-18.963c0 3.793 0-136.533 0-136.533zM807.822 448l-117.57 117.57c-7.585 7.585-18.963 7.585-26.548 0s-7.585-18.963 0-26.548l79.644-83.437h-254.104c-11.378 0-18.963-7.585-18.963-18.963s7.585-18.963 18.963-18.963h254.104l-75.852-79.644c-7.585-7.585-7.585-18.963 0-26.548 3.793-3.793 7.585-7.585 15.17-7.585s11.378 3.793 15.17 7.585l117.57 117.57c0 0 0 11.378-7.585 18.963z" />
<glyph unicode="&#xe916;" glyph-name="fb_icn" d="M663.704 448h-94.815v-352.711h-151.704v352.711h-68.267v125.156h68.267v79.644c0 56.889 26.548 147.911 147.911 147.911h109.985v-121.363h-79.644c-11.378 0-30.341-7.585-30.341-34.133v-75.852h109.985l-11.378-121.363z" />
<glyph unicode="&#xe917;" glyph-name="fullScreen_icn" d="M887.467 770.37c0 0 0-147.911 0-147.911l79.644-64.474v212.385c0 41.719-34.133 75.852-79.644 75.852h-273.067l94.815-75.852h178.252zM314.785 770.37l94.815 75.852h-303.407c-26.548 0-49.304-22.756-49.304-49.304v-242.726l79.644 64.474v151.704h178.252zM314.785 125.63l94.815-75.852h-303.407c-26.548 0-49.304 22.756-49.304 49.304v242.726l79.644-64.474v-151.704h178.252zM887.467 273.541l79.644 64.474v-242.726c0-26.548-22.756-49.304-49.304-49.304h-303.407l94.815 75.852h178.252v151.704z" />
<glyph unicode="&#xe918;" glyph-name="smallScreen_icn" d="M970.904 557.985h-273.067c-45.511 0-79.644 34.133-79.644 75.852v212.385l79.644-64.474v-147.911c0 0 178.252 0 178.252 0l94.815-75.852zM337.541 781.748l79.644 64.474v-242.726c0-26.548-22.756-49.304-49.304-49.304h-303.407l94.815 75.852h178.252v151.704zM337.541 114.252l79.644-64.474v242.726c0 26.548-22.756 49.304-49.304 49.304h-303.407l94.815-75.852h178.252v-151.704zM876.089 262.163l94.815 75.852h-303.407c-26.548 0-49.304-22.756-49.304-49.304v-238.933l79.644 64.474v147.911h178.252z" />
<glyph unicode="&#xe919;" glyph-name="help_icn" d="M512 163.556c-159.289 0-284.444 125.156-284.444 284.444s125.156 284.444 284.444 284.444 284.444-125.156 284.444-284.444-125.156-284.444-284.444-284.444zM512 690.726c-132.741 0-242.726-109.985-242.726-242.726s109.985-242.726 242.726-242.726 242.726 109.985 242.726 242.726-109.985 242.726-242.726 242.726zM519.585 622.459c56.889 0 98.607-34.133 98.607-79.644 0-34.133-15.17-56.889-45.511-72.059-26.548-15.17-37.926-30.341-37.926-53.096v-11.378h-41.719v15.17c0 34.133 11.378 49.304 41.719 68.267 30.341 15.17 37.926 30.341 37.926 53.096s-18.963 45.511-49.304 45.511c-30.341 0-49.304-15.17-53.096-49.304h-45.511c-3.793 45.511 34.133 83.437 94.815 83.437zM485.452 330.43c0 15.17 11.378 30.341 30.341 30.341 15.17 0 30.341-11.378 30.341-30.341 0-15.17-11.378-26.548-30.341-26.548-18.963-3.793-30.341 11.378-30.341 26.548z" />
<glyph unicode="&#xe91a;" glyph-name="link_icn" d="M303.407 197.689c-11.378 0-18.963 0-30.341 3.793-30.341 7.585-53.096 30.341-72.059 56.889-26.548 56.889-7.585 132.741 45.511 166.874l121.363 75.852 22.756-34.133-125.156-72.059c-37.926-22.756-49.304-75.852-30.341-117.57 11.378-22.756 30.341-34.133 45.511-37.926 18.963-7.585 37.926-3.793 56.889 7.585l166.874 102.4c37.926 22.756 49.304 75.852 30.341 117.57l-15.17 34.133 34.133 18.963 18.963-34.133c30.341-56.889 11.378-132.741-41.719-166.874l-166.874-102.4c-22.756-15.17-41.719-18.963-60.681-18.963zM466.489 387.319l-11.378 26.548c-30.341 56.889-11.378 132.741 41.719 166.874l166.874 102.4c26.548 15.17 56.889 22.756 83.437 11.378 30.341-7.585 56.889-34.133 72.059-60.681 30.341-56.889 11.378-132.741-41.719-166.874l-102.4-64.474-22.756 30.341 102.4 64.474c37.926 26.548 49.304 79.644 30.341 121.363-11.378 22.756-30.341 34.133-49.304 41.719-18.963 3.793-37.926 3.793-53.096-7.585l-166.874-102.4c-34.133-26.548-49.304-79.644-30.341-121.363l11.378-26.548-30.341-15.17z" />
<glyph unicode="&#xe91b;" glyph-name="lock_icn" d="M678.874 516.267v125.156c0 64.474-56.889 121.363-121.363 121.363h-83.437c-64.474 0-121.363-56.889-121.363-121.363v-125.156h-83.437v-326.163h496.83v326.163c-3.793 0-87.23 0-87.23 0zM398.222 637.63c0 45.511 34.133 75.852 75.852 75.852h87.23c34.133 0 64.474-34.133 64.474-64.474v-132.741h-231.348v121.363zM713.007 239.407h-394.43v227.556h394.43c0 0 0-227.556 0-227.556z" />
<glyph unicode="&#xe91c;" glyph-name="lock-unlock_icn" d="M678.874 516.267v0h-280.652v125.156c0 64.474-56.889 121.363-121.363 121.363h-26.548c-64.474 0-121.363-56.889-121.363-121.363v-56.889h49.304v64.474c0 34.133 34.133 64.474 64.474 64.474h34.133c45.511 0 75.852-34.133 75.852-75.852v-121.363h-83.437v-326.163h496.83v326.163c-3.793 0-87.23 0-87.23 0zM713.007 239.407h-394.43v227.556h394.43c0 0 0-227.556 0-227.556z" />
<glyph unicode="&#xe91d;" glyph-name="mail_icn" d="M204.8 649.007v0h614.4c0 0 0 0 0 0s3.793 0 3.793 0c0 0 0 0 0 0s3.793-3.793 3.793-3.793c0 0 0 0 0 0s0 0 0 0v0c0 0 0 0 0 0s0 0 0 0c0-3.793 3.793-3.793 3.793-7.585v-375.467c0-7.585-7.585-15.17-15.17-15.17h-614.4c-7.585 0-15.17 7.585-15.17 15.17v375.467c0 3.793 0 3.793 3.793 7.585 0 0 0 0 0 0v0c0 0 0 0 0 0v0 0c0 0 0 0 0 0v0c0 0 3.793 3.793 3.793 3.793v0c7.585 0 7.585 0 11.378 0v0zM781.274 622.459h-538.548l269.274-219.97 269.274 219.97zM417.185 444.207l-197.215 163.081v-314.785l197.215 151.704zM804.030 292.504v314.785l-197.215-163.081 197.215-151.704zM512 372.148c-3.793 0-7.585 0-7.585 3.793l-64.474 49.304-201.007-151.704h546.133l-201.007 151.704-64.474-49.304c0-3.793-3.793-3.793-7.585-3.793z" />
<glyph unicode="&#xe91e;" glyph-name="menu_icn" d="M280.652 656.593h462.696c18.963 0 34.133-15.17 34.133-34.133v0c0-18.963-15.17-34.133-34.133-34.133h-462.696c-18.963 0-34.133 15.17-34.133 34.133v0c0 18.963 15.17 34.133 34.133 34.133zM280.652 482.133h462.696c18.963 0 34.133-15.17 34.133-34.133v0c0-18.963-15.17-34.133-34.133-34.133h-462.696c-18.963 0-34.133 15.17-34.133 34.133v0c0 18.963 15.17 34.133 34.133 34.133zM280.652 307.674h326.163c18.963 0 34.133-15.17 34.133-34.133v0c0-18.963-15.17-34.133-34.133-34.133h-326.163c-18.963 0-34.133 15.17-34.133 34.133v0c0 18.963 15.17 34.133 34.133 34.133z" />
<glyph unicode="&#xe91f;" glyph-name="minus_icon" d="M625.778 474.548v-53.096h-227.556v53.096z" />
<glyph unicode="&#xe920;" glyph-name="paragraph_icn" d="M436.148 504.889h417.185v37.926h-417.185zM436.148 656.593h417.185v37.926h-417.185zM170.667 656.593h189.63v37.926h-189.63zM284.444 504.889v151.704h-37.926v-151.704zM170.667 353.185h682.667v37.926h-682.667zM170.667 201.481h606.815v37.926h-606.815z" />
<glyph unicode="&#xe921;" glyph-name="pen_icn" d="M835.608 676.58l-89.892 89.892c-30.82 30.82-79.618 30.82-107.87 0l-349.292-349.292c-10.274-10.274-17.978-25.684-20.546-41.094l-41.094-218.308 218.308 41.094c12.842 2.568 30.82 10.274 41.094 20.546l349.292 349.292c28.252 28.252 28.252 77.050 0 107.87zM355.332 409.476l251.696 251.696 125.848-125.848-251.696-251.696-125.848 125.848zM291.124 219.42l28.252 146.394c0 2.568 0 5.136 2.568 5.136l123.28-123.28c-2.568 0-2.568 0-5.136-2.568l-148.962-25.684zM799.652 604.668l-30.82-30.82-125.848 125.848 30.82 30.82c10.274 10.274 25.684 10.274 35.956 0l89.892-89.892c7.704-10.274 7.704-28.252 0-35.956z" />
<glyph unicode="&#xe922;" glyph-name="pic_icn" d="M132.741 751.407v-606.815h758.519v606.815h-758.519zM853.333 713.481v-417.185l-193.422 193.422c-7.585 7.585-18.963 7.585-26.548 0l-212.385-212.385-140.326 140.326c-7.585 7.585-18.963 7.585-26.548 0l-83.437-83.437v379.259h682.667zM170.667 182.519v98.607l94.815 94.815 136.533-136.533c7.585-7.585 18.963-7.585 26.548 0l212.385 212.385 208.593-208.593v-60.681h-678.874zM398.222 440.415c53.096 0 94.815 41.719 94.815 94.815s-41.719 94.815-94.815 94.815-94.815-41.719-94.815-94.815 41.719-94.815 94.815-94.815zM398.222 592.119c30.341 0 56.889-26.548 56.889-56.889s-26.548-56.889-56.889-56.889-56.889 26.548-56.889 56.889 26.548 56.889 56.889 56.889z" />
<glyph unicode="&#xe923;" glyph-name="play_icn" d="M367.881 311.467v273.067c0 11.378 11.378 15.17 18.963 11.378l246.519-136.533c7.585-3.793 7.585-18.963 0-22.756l-246.519-136.533c-7.585-3.793-18.963 3.793-18.963 11.378z" />
<glyph unicode="&#xe924;" glyph-name="plus_icn" d="M489.244 637.63h45.511v-166.874h166.874v-45.511h-166.874v-166.874h-45.511v166.874h-166.874v45.511h166.874z" />
<glyph unicode="&#xe925;" glyph-name="profile_icn" d="M591.644 432.83c41.719 26.548 72.059 75.852 72.059 128.948 0 83.437-68.267 151.704-151.704 151.704s-151.704-68.267-151.704-151.704c0-53.096 30.341-102.4 72.059-128.948-87.23-30.341-147.911-113.778-147.911-212.385 0-11.378 0-26.548 3.793-37.926h447.526c3.793 11.378 3.793 26.548 3.793 37.926 0 98.607-60.681 182.044-147.911 212.385zM398.222 561.778c0 64.474 49.304 113.778 113.778 113.778s113.778-49.304 113.778-113.778-49.304-113.778-113.778-113.778c-64.474 0-113.778 49.304-113.778 113.778zM322.37 220.444c0 106.193 83.437 189.63 189.63 189.63s189.63-83.437 189.63-189.63h-379.259z" />
<glyph unicode="&#xe926;" glyph-name="rect_icn" d="M132.741 751.407v-606.815h758.519v606.815h-758.519zM853.333 182.519h-682.667v530.963h682.667v-530.963z" />
<glyph unicode="&#xe927;" glyph-name="redo_icn" d="M360.296 144.593h75.852v75.852h-75.852c-83.437 0-151.704 68.267-151.704 151.704s68.267 151.704 151.704 151.704h367.881l-94.815-94.815 53.096-56.889 185.837 185.837-185.837 189.63-53.096-53.096 94.815-94.815h-367.881c-125.156 0-227.556-102.4-227.556-227.556 0-128.948 102.4-227.556 227.556-227.556z" />
<glyph unicode="&#xe928;" glyph-name="save_icn" d="M701.63 550.4c-7.585 0-15.17 0-18.963-3.793-11.378 91.022-87.23 159.289-178.252 159.289-98.607 0-182.044-79.644-182.044-182.044 0-7.585 0-15.17 3.793-22.756h-26.548c-87.23 0-155.496-68.267-155.496-155.496s68.267-155.496 155.496-155.496h424.77v3.793c87.23 11.378 155.496 87.23 155.496 178.252 0 98.607-79.644 178.252-178.252 178.252z" />
<glyph unicode="&#xe929;" glyph-name="settings_icn" d="M802.321 448.169l-142.309-246.484h-284.617l-142.309 246.484 142.309 246.483h284.617l142.309-246.483zM630.544 643.621h-225.696l-112.855-195.453 112.855-195.453h225.696l112.854 195.453-112.854 195.453zM419.272 447.899c0 54.353 44.059 98.412 98.412 98.412s98.412-44.059 98.412-98.412c0-54.353-44.058-98.412-98.412-98.412s-98.412 44.058-98.412 98.412zM517.694 495.289c-26.166 0-47.381-21.213-47.381-47.381s21.213-47.381 47.381-47.381c26.166 0 47.381 21.213 47.381 47.381s-21.213 47.381-47.381 47.381z" />
<glyph unicode="&#xe92a;" glyph-name="tabMenu_icn" d="M329.956 118.044c-75.852 0-140.326 64.474-140.326 140.326s64.474 140.326 140.326 140.326 140.326-64.474 140.326-140.326-64.474-140.326-140.326-140.326zM329.956 360.77c-56.889 0-98.607-45.511-98.607-98.607 0-56.889 45.511-98.607 98.607-98.607s98.607 45.511 98.607 98.607c0 53.096-41.719 98.607-98.607 98.607zM443.733 740.030v-212.385h-212.385v212.385h212.385zM481.659 781.748h-292.030v-292.030h292.030v292.030zM792.652 368.356v-212.385h-212.385v212.385h212.385zM834.37 406.281h-292.030v-292.030h292.030v292.030zM568.889 736.237h242.726v-41.719h-242.726v41.719zM568.889 656.593h242.726v-41.719h-242.726v41.719zM568.889 573.156h182.044v-41.719h-182.044v41.719z" />
<glyph unicode="&#xe92b;" glyph-name="text_icn" d="M549.926 205.274v417.185h147.911v68.267h-371.674v-68.267h147.911v-417.185z" />
<glyph unicode="&#xe92c;" glyph-name="trash_icon" d="M447.526 495.17h41.719v-254.104h-41.719v254.104zM530.963 495.17h41.719v-254.104h-41.719v254.104zM402.015 753.067h212.385v-41.719h-212.385v41.719zM785.067 631.704h-549.926l3.793-41.719h83.437v-390.637c3.793-26.548 22.756-79.644 79.644-79.644h219.97c60.681 0 75.852 49.304 79.644 79.644v390.637h83.437v41.719zM621.985 161.422h-219.97c-34.133 0-37.926 37.926-37.926 37.926v390.637h295.822v-386.844c0-3.793-7.585-41.719-37.926-41.719v0z" />
<glyph unicode="&#xe92d;" glyph-name="twitter_icn" d="M396.8 192c238.933 0 366.933 196.267 366.933 366.933 0 4.267 0 12.8 0 17.067 25.6 17.067 46.933 42.667 64 68.267-21.333-8.533-46.933-17.067-72.533-21.333 25.6 17.067 46.933 42.667 55.467 72.533-25.6-12.8-51.2-25.6-81.067-29.867-25.6 25.6-55.467 42.667-93.867 42.667-72.533 0-128-59.733-128-128 0-8.533 0-21.333 4.267-29.867-110.933 0-209.067 51.2-273.067 128-8.533-17.067-17.067-38.4-17.067-64 0-46.933 21.333-85.333 55.467-106.667-21.333 0-42.667 8.533-59.733 17.067 0 0 0 0 0 0 0-64 42.667-115.2 102.4-128-12.8-4.267-21.333-4.267-34.133-4.267-8.533 0-17.067 0-25.6 4.267 17.067-51.2 64-89.6 119.467-89.6-42.667-34.133-98.133-55.467-162.133-55.467-8.533 0-21.333 0-29.867 0 68.267-38.4 132.267-59.733 209.067-59.733z" />
<glyph unicode="&#xe92e;" glyph-name="txt-center_icn" d="M265.481 353.185h493.037v-37.926h-493.037v37.926zM204.8 466.963h610.607v-37.926h-610.607v37.926zM341.333 580.741h341.333v-37.926h-341.333v37.926z" />
<glyph unicode="&#xe92f;" glyph-name="txt-left_icn" d="M682.667 542.815h18.963v37.926h-530.963v-37.926h18.963zM830.578 463.17h-659.911v-37.926h678.874v37.926zM189.63 353.185h-18.963v-37.926h379.259v37.926h-18.963z" />
<glyph unicode="&#xe930;" glyph-name="txt-right_icn" d="M849.541 542.815v37.926c-178.252 0-352.711 0-530.963 0v-37.926c170.667 0 530.963 0 530.963 0zM170.667 463.17v-37.926c227.556 0 455.111 0 678.874 0v37.926c0 0-458.904 0-678.874 0zM470.281 353.185v-37.926c125.156 0 254.104 0 379.259 0v37.926c-117.57 0-379.259 0-379.259 0z" />
<glyph unicode="&#xe931;" glyph-name="undo_icn" d="M644.741 747.615h-75.852v-75.852h75.852c83.437 0 151.704-68.267 151.704-151.704s-68.267-151.704-151.704-151.704h-367.881l94.815 94.815-53.096 56.889-185.837-185.837 185.837-189.63 53.096 53.096-94.815 94.815h367.881c125.156 0 227.556 102.4 227.556 227.556 0 128.948-102.4 227.556-227.556 227.556z" />
<glyph unicode="&#xe932;" glyph-name="vid_icn" d="M189.63 599.704v-303.407c0-64.474 49.304-113.778 113.778-113.778h417.185c64.474 0 113.778 49.304 113.778 113.778v303.407c0 64.474-49.304 113.778-113.778 113.778h-417.185c-64.474 0-113.778-49.304-113.778-113.778zM151.704 599.704c0 83.437 68.267 151.704 151.704 151.704h417.185c83.437 0 151.704-68.267 151.704-151.704v-303.407c0-83.437-68.267-151.704-151.704-151.704h-417.185c-83.437 0-151.704 68.267-151.704 151.704v303.407zM436.148 334.222c-3.793 0-7.585 0-11.378 3.793s-7.585 7.585-7.585 15.17v189.63c0 7.585 3.793 11.378 7.585 15.17s11.378 3.793 18.963 0l189.63-94.815c7.585-3.793 11.378-11.378 11.378-15.17s-3.793-15.17-11.378-15.17l-189.63-94.815c0-3.793-3.793-3.793-7.585-3.793zM455.111 512.474v-128.948l128.948 64.474-128.948 64.474z" />
<glyph unicode="&#xe933;" glyph-name="zoom_icn" d="M565.096 633.837c-72.059 0-132.741-56.889-132.741-132.741 0-72.059 56.889-132.741 132.741-132.741 72.059 0 132.741 56.889 132.741 132.741 0 72.059-60.681 132.741-132.741 132.741v0zM345.126 216.652c-7.585-7.585-18.963-15.17-34.133-15.17-26.548 0-45.511 18.963-45.511 45.511 0 15.17 7.585 26.548 15.17 34.133l121.363 113.778c-18.963 30.341-30.341 68.267-30.341 106.193 0 106.193 87.23 193.422 193.422 193.422s193.422-87.23 193.422-193.422c0-106.193-87.23-193.422-193.422-193.422-34.133 0-64.474 7.585-94.815 22.756l-125.156-113.778z" />
<glyph unicode="&#xe934;" glyph-name="duplicate_icn" horiz-adv-x="1210" d="M93.091 866.909v-651.636h837.818v651.636h-837.818zM0 960h1024v-837.818h-1024v837.818zM279.273 680.727v-651.636h837.818v651.636h-837.818zM186.182 773.818h1024v-837.818h-1024v837.818z" />
<glyph unicode="&#xe935;" glyph-name="linkedin" d="M876.089 834.844h-690.252c-34.133 0-60.681-26.548-60.681-60.681v-694.044c0-30.341 26.548-56.889 60.681-56.889h690.252c34.133 0 60.681 26.548 60.681 56.889v694.044c0 34.133-26.548 60.681-60.681 60.681zM367.881 144.593h-121.363v386.844h121.363v-386.844zM307.2 584.533c-37.926 0-68.267 30.341-68.267 68.267s30.341 68.267 68.267 68.267c37.926 0 68.267-30.341 68.267-68.267s-30.341-68.267-68.267-68.267zM815.407 144.593h-121.363v189.63c0 45.511 0 102.4-60.681 102.4s-72.059-49.304-72.059-98.607v-189.63h-121.363v383.052h113.778v-53.096c15.17 30.341 56.889 60.681 113.778 60.681 121.363 0 144.119-79.644 144.119-182.044v-212.385z" />
<glyph unicode="&#xe936;" glyph-name="miniPlus" d="M600.74 471.659l345.506 345.506-97.815 97.815-345.506-345.506-366.805 366.805-97.815-97.815 366.805-366.805-345.506-345.506 97.815-97.815 345.506 345.506 377.060-377.060 97.815 97.815z" />
<glyph unicode="&#xe937;" glyph-name="pause" d="M413.393 622.459v0c18.963 0 34.133-15.17 34.133-34.133v-276.859c0-18.963-15.17-34.133-34.133-34.133v0c-18.963 0-34.133 15.17-34.133 34.133v276.859c-3.793 18.963 15.17 34.133 34.133 34.133zM580.267 622.459v0c18.963 0 34.133-15.17 34.133-34.133v-276.859c0-18.963-15.17-34.133-34.133-34.133v0c-18.963 0-34.133 15.17-34.133 34.133v276.859c0 18.963 15.17 34.133 34.133 34.133z" />
<glyph unicode="&#xe938;" glyph-name="linkedin-outline" d="M367.881 144.593h-121.363v386.844h121.363v-386.844zM307.2 584.533c-37.926 0-68.267 30.341-68.267 68.267s30.341 68.267 68.267 68.267c37.926 0 68.267-30.341 68.267-68.267s-30.341-68.267-68.267-68.267zM815.407 144.593h-121.363v189.63c0 45.511 0 102.4-60.681 102.4s-72.059-49.304-72.059-98.607v-189.63h-121.363v383.052h113.778v-53.096c15.17 30.341 56.889 60.681 113.778 60.681 121.363 0 144.119-79.644 144.119-182.044v-212.385z" />
<glyph unicode="&#xe939;" glyph-name="stop" d="M671.289 258.37h-318.578c-18.963 0-30.341 15.17-30.341 30.341v318.578c0 18.963 15.17 30.341 30.341 30.341h314.785c18.963 0 30.341-15.17 30.341-30.341v-314.785c3.793-18.963-11.378-34.133-26.548-34.133z" />
<glyph unicode="&#xe93a;" glyph-name="record-vox" d="M807.822 599.704c-11.378 3.793-22.756 3.793-30.341-3.793l-102.4-79.644v68.267c0 41.719-34.133 75.852-75.852 75.852h-326.163c-41.719 0-75.852-34.133-75.852-75.852v-276.859c0-41.719 34.133-75.852 75.852-75.852h322.37c41.719 0 75.852 34.133 75.852 75.852v75.852l102.4-79.644c3.793-3.793 11.378-7.585 18.963-7.585 3.793 0 7.585 0 15.17 3.793 11.378 3.793 18.963 15.17 18.963 26.548v242.726c0 11.378-7.585 22.756-18.963 30.341zM640.948 311.467c0-26.548-18.963-45.511-45.511-45.511h-322.37c-26.548 0-45.511 18.963-45.511 45.511v273.067c0 26.548 18.963 45.511 45.511 45.511h322.37c26.548 0 45.511-18.963 45.511-45.511v-273.067zM796.444 326.637l-121.363 94.815v56.889l121.363 91.022v-242.726zM443.733 523.852h-3.793c-41.719 0-75.852-34.133-75.852-75.852s34.133-75.852 75.852-75.852h3.793c41.719 0 75.852 34.133 75.852 75.852s-34.133 75.852-75.852 75.852z" />
<glyph unicode="&#xe93b;" glyph-name="vox-hide" horiz-adv-x="1004" d="M245.76 693.76c-3.7 0-7.255-0.485-10.619-1.385-10.927-2.921-22.153 3.569-25.074 14.497s3.569 22.153 14.497 25.074c6.783 1.813 13.893 2.774 21.196 2.774h21.333c11.311 0 20.48-9.169 20.48-20.48s-9.169-20.48-20.48-20.48h-21.333zM331.947 714.24c0 11.311 9.169 20.48 20.48 20.48h42.667c11.311 0 20.48-9.169 20.48-20.48s-9.169-20.48-20.48-20.48h-42.667c-11.311 0-20.48 9.169-20.48 20.48zM459.946 714.24c0 11.311 9.169 20.48 20.48 20.48h42.668c11.311 0 20.48-9.169 20.48-20.48s-9.169-20.48-20.48-20.48h-42.668c-11.311 0-20.48 9.169-20.48 20.48zM587.946 714.24c0 11.311 9.169 20.48 20.48 20.48h42.668c11.311 0 20.48-9.169 20.48-20.48s-9.169-20.48-20.48-20.48h-42.668c-11.311 0-20.48 9.169-20.48 20.48zM715.946 714.24c0 11.311 9.169 20.48 20.48 20.48h21.334c7.303 0 14.414-0.961 21.197-2.774 10.926-2.921 17.416-14.147 14.496-25.074s-14.146-17.417-25.074-14.497c-3.365 0.899-6.918 1.385-10.619 1.385h-21.334c-11.311 0-20.48 9.169-20.48 20.48zM191.688 688.493c10.927-2.921 17.417-14.147 14.497-25.074-0.899-3.364-1.385-6.919-1.385-10.619v-22.756c0-11.311-9.169-20.48-20.48-20.48s-20.48 9.169-20.48 20.48v22.756c0 7.303 0.961 14.413 2.774 21.196 2.921 10.927 14.147 17.417 25.074 14.497zM811.831 688.493c10.928 2.921 22.153-3.569 25.076-14.497 1.812-6.783 2.773-13.893 2.773-21.196v-22.756c0-11.311-9.169-20.48-20.48-20.48s-20.48 9.169-20.48 20.48v22.756c0 3.7-0.485 7.255-1.384 10.619-2.92 10.927 3.57 22.153 14.496 25.074zM184.32 559.502c11.311 0 20.48-9.169 20.48-20.48v-45.511c0-11.311-9.169-20.48-20.48-20.48s-20.48 9.169-20.48 20.48v45.511c0 11.311 9.169 20.48 20.48 20.48zM819.2 559.502c11.311 0 20.48-9.169 20.48-20.48v-45.511c0-11.311-9.169-20.48-20.48-20.48s-20.48 9.169-20.48 20.48v45.511c0 11.311 9.169 20.48 20.48 20.48zM184.32 422.969c11.311 0 20.48-9.169 20.48-20.48v-45.511c0-11.311-9.169-20.48-20.48-20.48s-20.48 9.169-20.48 20.48v45.511c0 11.311 9.169 20.48 20.48 20.48zM819.2 422.969c11.311 0 20.48-9.169 20.48-20.48v-45.511c0-11.311-9.169-20.48-20.48-20.48s-20.48 9.169-20.48 20.48v45.511c0 11.311 9.169 20.48 20.48 20.48zM184.32 286.435c11.311 0 20.48-9.169 20.48-20.48v-22.755c0-3.701 0.485-7.254 1.385-10.619 2.921-10.928-3.569-22.153-14.497-25.074s-22.153 3.57-25.074 14.496c-1.813 6.783-2.774 13.894-2.774 21.197v22.755c0 11.311 9.169 20.48 20.48 20.48zM819.2 286.435c11.311 0 20.48-9.169 20.48-20.48v-22.755c0-7.303-0.961-14.414-2.773-21.197-2.922-10.926-14.148-17.416-25.076-14.496-10.926 2.92-17.416 14.146-14.496 25.074 0.899 3.365 1.384 6.918 1.384 10.619v22.755c0 11.311 9.169 20.48 20.48 20.48zM210.067 189.129c2.921 10.926 14.147 17.416 25.074 14.496 3.364-0.899 6.919-1.384 10.619-1.384h21.333c11.311 0 20.48-9.169 20.48-20.48s-9.169-20.48-20.48-20.48h-21.333c-7.303 0-14.413 0.961-21.196 2.773-10.927 2.922-17.417 14.148-14.497 25.076zM793.453 189.129c2.92-10.928-3.57-22.153-14.496-25.076-6.783-1.812-13.894-2.773-21.197-2.773h-21.334c-11.311 0-20.48 9.169-20.48 20.48s9.169 20.48 20.48 20.48h21.334c3.701 0 7.254 0.485 10.619 1.384 10.928 2.92 22.153-3.57 25.074-14.496zM331.947 181.76c0 11.311 9.169 20.48 20.48 20.48h42.667c11.311 0 20.48-9.169 20.48-20.48s-9.169-20.48-20.48-20.48h-42.667c-11.311 0-20.48 9.169-20.48 20.48zM459.946 181.76c0 11.311 9.169 20.48 20.48 20.48h42.668c11.311 0 20.48-9.169 20.48-20.48s-9.169-20.48-20.48-20.48h-42.668c-11.311 0-20.48 9.169-20.48 20.48zM587.946 181.76c0 11.311 9.169 20.48 20.48 20.48h42.668c11.311 0 20.48-9.169 20.48-20.48s-9.169-20.48-20.48-20.48h-42.668c-11.311 0-20.48 9.169-20.48 20.48zM430.080 345.6c0-45.243-36.677-81.92-81.92-81.92s-81.92 36.677-81.92 81.92c0 45.243 36.677 81.92 81.92 81.92s81.92-36.677 81.92-81.92z" />
<glyph unicode="&#xe93c;" glyph-name="vox-show" horiz-adv-x="1004" d="M163.84 652.8c0 45.243 36.677 81.92 81.92 81.92h512c45.242 0 81.92-36.677 81.92-81.92v-409.6c0-45.242-36.678-81.92-81.92-81.92h-512c-45.243 0-81.92 36.678-81.92 81.92v409.6zM245.76 693.76c-22.622 0-40.96-18.338-40.96-40.96v-409.6c0-22.622 18.338-40.96 40.96-40.96h512c22.622 0 40.96 18.338 40.96 40.96v409.6c0 22.622-18.338 40.96-40.96 40.96h-512zM430.080 345.6c0-45.243-36.677-81.92-81.92-81.92s-81.92 36.677-81.92 81.92c0 45.243 36.677 81.92 81.92 81.92s81.92-36.677 81.92-81.92z" />
<glyph unicode="&#xe93d;" glyph-name="dislike" d="M819.2 202.24v348.16h-122.88v-348.16h122.88zM655.36 535.607v14.793c0 22.62 18.339 40.96 40.96 40.96h122.88c22.621 0 40.96-18.34 40.96-40.96v-348.16c0-22.622-18.339-40.961-40.96-40.961h-122.88c-22.621 0-40.96 18.339-40.96 40.961v14.471c-41.806-31.191-76.589-71.111-101.806-117.199l-60.162-109.952c-33.585-61.378-127.246-27.869-114.274 40.883l30.482 161.556h-163.617c-37.755 0-66.576 33.731-60.69 71.021l39.309 248.955c6.287 39.817 40.608 69.145 80.919 69.145h298.639l51.2-45.513zM655.36 480.805l-66.773 59.355h-283.066c-20.156 0-37.317-14.664-40.46-34.572l-39.307-248.955c-1.964-12.429 7.645-23.673 20.23-23.673h213.029l-39.645-210.111c-1.352-7.167 0.176-11.604 2.046-14.565 2.179-3.45 6.035-6.674 11.18-8.516 5.147-1.841 10.172-1.795 14.045-0.509 3.324 1.103 7.32 3.563 10.822 9.961l60.162 109.952c32.842 60.023 80.267 110.639 137.738 147.28v214.352z" />
<glyph unicode="&#xe93e;" glyph-name="like" d="M327.68 253.439v-51.2h-122.88v348.16h122.88v-296.96zM419.84 171.519h298.639c40.311 0 74.631 29.327 80.919 69.145l39.309 248.955c5.886 37.29-22.936 71.021-60.69 71.021h-163.617l30.482 161.556c12.972 68.753-80.689 102.262-114.274 40.883l-60.162-109.952c-25.217-46.088-60-86.008-101.806-117.199v14.471c0 22.622-18.339 40.961-40.96 40.961h-122.88c-22.621 0-40.96-18.339-40.96-40.961v-348.16c0-22.62 18.339-40.96 40.96-40.96h122.88c22.621 0 40.96 18.34 40.96 40.96v14.793l51.2-45.513zM368.64 486.186c57.471 36.641 104.897 87.257 137.738 147.28l60.162 109.952c3.502 6.398 7.498 8.858 10.822 9.961 3.873 1.286 8.899 1.332 14.045-0.509s9.001-5.065 11.18-8.516c1.87-2.961 3.398-7.398 2.046-14.565l-39.645-210.111h213.029c12.585 0 22.194-11.244 20.23-23.673l-39.307-248.955c-3.144-19.909-20.304-34.572-40.46-34.572h-283.066l-66.773 59.355v214.352z" />
<glyph unicode="&#xe93f;" glyph-name="share" d="M579.105 374.272c-204.974 0-321.289-114.688-353.825-172.032 0 314.573 235.882 360.448 353.825 344.064v147.456l219.615-233.472-219.615-221.184v135.168z" />
<glyph unicode="&#xe940;" glyph-name="download-doc" d="M491.52 395.044v134.876c0 11.311 9.17 20.48 20.48 20.48s20.48-9.169 20.48-20.48v-134.876l46.958 46.958c7.997 7.998 20.965 7.998 28.962 0 8.001-7.998 8.001-20.965 0-28.963l-81.727-81.727c-0.062-0.063-0.127-0.129-0.193-0.193-7.99-7.991-20.94-7.997-28.94-0.025-0.008 0.008-0.015 0.016-0.023 0.025-0.065 0.063-0.128 0.129-0.19 0.193l-81.728 81.727c-8 7.998-8 20.965 0 28.963 7.998 7.998 20.965 7.998 28.962 0l46.958-46.958zM350.898 734.72h447.822v-573.44h-593.92v449.819l146.098 123.621zM365.902 693.76l-120.142-101.659v-389.861h512v491.52h-391.858zM367.017 732.819c7.234-3.355 11.863-10.605 11.863-18.579v-112.64c0-11.311-9.169-20.48-20.48-20.48h-133.12c-8.594 0-16.274 5.366-19.23 13.436s-0.559 17.127 6.002 22.678l133.12 112.64c6.087 5.151 14.611 6.3 21.846 2.945zM281.189 622.080h56.731v48.003l-56.731-48.003z" />
<glyph unicode="&#xe941;" glyph-name="duplicae-viewer" d="M204.8 693.76h491.52v-389.12h-491.52v389.12zM245.76 652.8v-307.2h409.6v307.2h-409.6zM327.684 591.364h491.52v-389.12h-491.52v389.12zM368.644 550.404v-307.2h409.6v307.2h-409.6z" />
<glyph unicode="&#xe942;" glyph-name="notCinema" d="M348.072 437.707c-0.014-5.424-2.192-10.62-6.055-14.444l-133.12-131.776c-8.039-7.958-21.032-7.918-29.021 0.089-7.991 8.005-7.951 20.946 0.088 28.903l118.55 117.353-118.624 118.625c-7.998 7.998-7.972 20.939 0.059 28.905 8.032 7.964 21.025 7.938 29.023-0.060l133.119-133.121c3.843-3.843 5.995-9.050 5.981-14.474zM681.807 423.984c-8.014 7.982-8.014 20.922 0 28.904l132.991 132.449c8.013 7.98 21.008 7.982 29.022 0s8.013-20.924 0-28.904l-118.48-117.997 118.48-117.997c8.013-7.98 8.014-20.922 0-28.904s-21.009-7.98-29.022 0l-132.991 132.449zM388.985 437.76c0 11.311 9.169 20.48 20.48 20.48h204.8c11.311 0 20.48-9.169 20.48-20.48s-9.169-20.48-20.48-20.48h-204.8c-11.311 0-20.48 9.169-20.48 20.48z" />
<glyph unicode="&#xe943;" glyph-name="filter" d="M245.76 591.36c0 11.311 9.169 20.48 20.48 20.48h491.52c11.311 0 20.48-9.169 20.48-20.48s-9.169-20.48-20.48-20.48h-491.52c-11.311 0-20.48 9.169-20.48 20.48zM245.76 448c0 11.311 8.993 20.48 20.086 20.48h328.467c11.094 0 20.087-9.169 20.087-20.48s-8.993-20.48-20.087-20.48h-328.467c-11.093 0-20.086 9.169-20.086 20.48zM245.76 304.64c0 11.311 9.169 20.48 20.48 20.48h178.296c11.312 0 20.48-9.169 20.48-20.48s-9.169-20.48-20.48-20.48h-178.296c-11.311 0-20.48 9.169-20.48 20.48z" />
<glyph unicode="&#xe944;" glyph-name="dislikeFilled" d="M860.16 202.24c0-22.622-18.339-40.961-40.96-40.961h-122.88c-22.621 0-40.96 18.339-40.96 40.961v14.471c-41.806-31.191-76.589-71.111-101.806-117.199l-60.162-109.952c-33.585-61.378-127.246-27.869-114.274 40.883l30.482 161.556h-163.617c-37.755 0-66.576 33.731-60.69 71.021l39.309 248.955c6.287 39.817 40.608 69.145 80.919 69.145h298.639l51.2-45.513v14.793c0 22.62 18.339 40.96 40.96 40.96h122.88c22.621 0 40.96-18.34 40.96-40.96v-348.16z" />
<glyph unicode="&#xe945;" glyph-name="likeFilled" d="M368.64 535.928v14.471c0 22.622-18.339 40.961-40.96 40.961h-122.88c-22.621 0-40.96-18.339-40.96-40.961v-348.16c0-22.62 18.339-40.96 40.96-40.96h122.88c22.621 0 40.96 18.34 40.96 40.96v14.793l51.2-45.513h298.639c40.311 0 74.631 29.327 80.919 69.145l39.309 248.953c5.886 37.292-22.936 71.023-60.69 71.023h-163.617l30.482 161.556c12.972 68.752-80.689 102.262-114.274 40.883l-60.162-109.952c-25.217-46.088-60-86.008-101.806-117.199z" />
<glyph unicode="&#xe946;" glyph-name="popup" d="M634.88 509.44v-307.2h-409.6v307.2h409.6zM184.32 550.4v-389.12h491.52v389.12h-491.52zM348.16 673.28h491.52v-348.16h-491.52v348.16zM389.12 714.24c0-11.311-9.169-20.48-20.48-20.48s-20.48 9.169-20.48 20.48c0 11.311 9.169 20.48 20.48 20.48s20.48-9.169 20.48-20.48zM450.56 714.24c0-11.311-9.169-20.48-20.48-20.48s-20.48 9.169-20.48 20.48c0 11.311 9.169 20.48 20.48 20.48s20.48-9.169 20.48-20.48zM512 714.24c0-11.311-9.169-20.48-20.48-20.48s-20.48 9.169-20.48 20.48c0 11.311 9.169 20.48 20.48 20.48s20.48-9.169 20.48-20.48z" />
<glyph unicode="&#xe94c;" glyph-name="line_icn" d="M274.705 240.289l447.939 442.399 26.651-26.984-447.939-442.399-26.651 26.984z" />
<glyph unicode="&#xe94d;" glyph-name="unlink_icn" d="M724.385 649.007c-49.304 26.548-106.193 11.378-144.119-26.548l-60.681-60.681c-3.793-3.793-3.793-7.585 0-11.378l34.133-34.133 68.267 64.474c18.963 18.963 53.096 26.548 79.644 15.17 41.719-22.756 49.304-75.852 18.963-106.193l-75.852-64.474 41.719-41.719 68.267 68.267c56.889 56.889 45.511 155.496-30.341 197.215zM470.281 246.993c-30.341-30.341-83.437-22.756-106.193 18.963-11.378 26.548-3.793 56.889 15.17 79.644l68.267 64.474-34.133 34.133c-3.793 3.793-7.585 3.793-11.378 0l-60.681-60.681c-41.719-41.719-53.096-109.985-18.963-159.289 45.511-64.474 136.533-72.059 189.63-18.963l68.267 68.267-41.719 41.719-68.267-68.267zM364.089 516.267h-117.57c-3.793 0-7.585-3.793-7.585-7.585v-37.926c0-3.793 3.793-7.585 7.585-7.585h117.57c3.793 0 7.585 3.793 7.585 7.585v37.926c0 3.793-3.793 7.585-7.585 7.585zM409.6 592.119l-91.022 68.267c-7.585 3.793-11.378 3.793-15.17 0l-22.756-30.341c-3.793-3.793-3.793-11.378 3.793-15.17l94.815-72.059c3.793-3.793 11.378-3.793 11.378 0l22.756 30.341c3.793 7.585 0 15.17-3.793 18.963zM493.037 732.444h-37.926c-3.793 0-7.585-3.793-7.585-7.585v-117.57c0-3.793 3.793-7.585 7.585-7.585h37.926c3.793 0 7.585 3.793 7.585 7.585v113.778c0 7.585-3.793 11.378-7.585 11.378z" />
<glyph unicode="&#xe94e;" glyph-name="delete" d="M443.733 482.133h34.133v-204.8h-34.133v204.8zM512 482.133h34.133v-204.8h-34.133v204.8zM409.6 686.933h170.667v-34.133h-170.667v34.133zM716.8 591.36h-443.733l3.413-34.133h68.267v-314.027c3.413-20.48 17.067-64.853 64.853-64.853h177.493c47.787 0 61.44 40.96 64.853 64.853v314.027h68.267l-3.413 34.133zM583.68 212.48h-177.493c-27.307 0-30.72 30.72-30.72 30.72v314.027h238.933v-310.613c0-3.413-3.413-34.133-30.72-34.133z" />
<glyph unicode="&#xe94f;" glyph-name="cinema" d="M853.933 453.637c8.014-7.982 8.014-20.922 0-28.904l-132.991-132.449c-8.013-7.98-21.008-7.982-29.022 0s-8.013 20.924 0 28.904l118.48 117.997-118.48 117.997c-8.013 7.98-8.014 20.922 0 28.904s21.009 7.98 29.022 0l132.991-132.449zM169.811 423.388c-8.014 7.982-8.014 20.922 0 28.904l132.991 132.449c8.013 7.98 21.008 7.982 29.022 0s8.013-20.924 0-28.904l-118.48-117.997 118.48-117.997c8.013-7.98 8.014-20.922 0-28.904s-21.009-7.98-29.022 0l-132.991 132.449zM307.2 438.516c0 11.311 9.169 20.48 20.48 20.48h368.64c11.311 0 20.48-9.169 20.48-20.48s-9.169-20.48-20.48-20.48h-368.64c-11.311 0-20.48 9.169-20.48 20.48z" />
<glyph unicode="&#xe950;" glyph-name="keyboard" d="M854.016 206.336h-675.84c-51.2 0-96.256 45.056-96.256 98.304v339.968c0 26.624 22.528 49.152 49.152 49.152h774.144c26.624 0 49.152-22.528 49.152-49.152v-339.968c-2.048-53.248-45.056-98.304-100.352-98.304zM131.072 669.184c-12.288 0-24.576-10.24-24.576-24.576v-339.968c0-40.96 32.768-73.728 73.728-73.728h675.84c40.96 0 73.728 32.768 73.728 73.728v339.968c0 12.288-10.24 24.576-24.576 24.576h-774.144zM221.184 534.016h-45.056c-16.384 0-30.72 14.336-30.72 30.72v45.056c0 16.384 14.336 30.72 30.72 30.72h45.056c16.384 0 30.72-14.336 30.72-30.72v-45.056c0-16.384-14.336-30.72-30.72-30.72zM176.128 615.936c-4.096 0-6.144-2.048-6.144-6.144v-45.056c0-4.096 2.048-6.144 6.144-6.144h45.056c4.096 0 6.144 2.048 6.144 6.144v45.056c0 4.096-2.048 6.144-6.144 6.144h-45.056zM350.208 534.016h-45.056c-16.384 0-30.72 14.336-30.72 30.72v45.056c0 16.384 14.336 30.72 30.72 30.72h45.056c16.384 0 30.72-14.336 30.72-30.72v-45.056c0-16.384-14.336-30.72-30.72-30.72zM305.152 615.936c-4.096 0-6.144-2.048-6.144-6.144v-45.056c0-4.096 2.048-6.144 6.144-6.144h45.056c4.096 0 6.144 2.048 6.144 6.144v45.056c0 4.096-2.048 6.144-6.144 6.144h-45.056zM479.232 534.016h-45.056c-16.384 0-30.72 14.336-30.72 30.72v45.056c0 16.384 14.336 30.72 30.72 30.72h45.056c16.384 0 30.72-14.336 30.72-30.72v-45.056c0-16.384-14.336-30.72-30.72-30.72zM434.176 615.936c-4.096 0-6.144-2.048-6.144-6.144v-45.056c0-4.096 2.048-6.144 6.144-6.144h45.056c4.096 0 6.144 2.048 6.144 6.144v45.056c0 4.096-2.048 6.144-6.144 6.144h-45.056zM608.256 534.016h-45.056c-16.384 0-30.72 14.336-30.72 30.72v45.056c0 16.384 14.336 30.72 30.72 30.72h45.056c16.384 0 30.72-14.336 30.72-30.72v-45.056c0-16.384-14.336-30.72-30.72-30.72zM563.2 615.936c-4.096 0-6.144-2.048-6.144-6.144v-45.056c0-4.096 2.048-6.144 6.144-6.144h45.056c4.096 0 6.144 2.048 6.144 6.144v45.056c0 4.096-2.048 6.144-6.144 6.144h-45.056zM737.28 534.016h-45.056c-16.384 0-30.72 14.336-30.72 30.72v45.056c0 16.384 14.336 30.72 30.72 30.72h45.056c16.384 0 30.72-14.336 30.72-30.72v-45.056c0-16.384-14.336-30.72-30.72-30.72zM692.224 615.936c-4.096 0-6.144-2.048-6.144-6.144v-45.056c0-4.096 2.048-6.144 6.144-6.144h45.056c4.096 0 6.144 2.048 6.144 6.144v45.056c0 4.096-2.048 6.144-6.144 6.144h-45.056zM866.304 534.016h-45.056c-16.384 0-30.72 14.336-30.72 30.72v45.056c0 16.384 14.336 30.72 30.72 30.72h45.056c16.384 0 30.72-14.336 30.72-30.72v-45.056c0-16.384-14.336-30.72-30.72-30.72zM821.248 615.936c-4.096 0-6.144-2.048-6.144-6.144v-45.056c0-4.096 2.048-6.144 6.144-6.144h45.056c4.096 0 6.144 2.048 6.144 6.144v45.056c0 4.096-2.048 6.144-6.144 6.144h-45.056zM296.96 396.8h-120.832c-16.384 0-30.72 14.336-30.72 30.72v45.056c0 16.384 14.336 30.72 30.72 30.72h120.832c16.384 0 30.72-14.336 30.72-30.72v-45.056c0-16.384-14.336-30.72-30.72-30.72zM176.128 478.72c-4.096 0-6.144-2.048-6.144-6.144v-45.056c0-4.096 2.048-6.144 6.144-6.144h120.832c4.096 0 6.144 2.048 6.144 6.144v45.056c0 4.096-2.048 6.144-6.144 6.144h-120.832zM731.136 271.872h-423.936c-16.384 0-30.72 14.336-30.72 30.72v45.056c0 16.384 14.336 30.72 30.72 30.72h421.888c16.384 0 30.72-14.336 30.72-30.72v-45.056c2.048-16.384-12.288-30.72-28.672-30.72zM307.2 353.792c-4.096 0-6.144-2.048-6.144-6.144v-45.056c0-4.096 2.048-6.144 6.144-6.144h421.888c4.096 0 6.144 2.048 6.144 6.144v45.056c0 4.096-2.048 6.144-6.144 6.144h-421.888zM866.304 396.8h-100.352c-16.384 0-30.72 14.336-30.72 30.72v45.056c0 16.384 14.336 30.72 30.72 30.72h100.352c16.384 0 30.72-14.336 30.72-30.72v-45.056c0-16.384-14.336-30.72-30.72-30.72zM765.952 478.72c-4.096 0-6.144-2.048-6.144-6.144v-45.056c0-4.096 2.048-6.144 6.144-6.144h100.352c4.096 0 6.144 2.048 6.144 6.144v45.056c0 4.096-2.048 6.144-6.144 6.144h-100.352zM221.184 271.872h-45.056c-16.384 0-30.72 14.336-30.72 30.72v45.056c0 16.384 14.336 30.72 30.72 30.72h45.056c16.384 0 30.72-14.336 30.72-30.72v-45.056c0-16.384-14.336-30.72-30.72-30.72zM176.128 353.792c-4.096 0-6.144-2.048-6.144-6.144v-45.056c0-4.096 2.048-6.144 6.144-6.144h45.056c4.096 0 6.144 2.048 6.144 6.144v45.056c0 4.096-2.048 6.144-6.144 6.144h-45.056zM866.304 271.872h-45.056c-16.384 0-30.72 14.336-30.72 30.72v45.056c0 16.384 14.336 30.72 30.72 30.72h45.056c16.384 0 30.72-14.336 30.72-30.72v-45.056c0-16.384-14.336-30.72-30.72-30.72zM821.248 353.792c-4.096 0-6.144-2.048-6.144-6.144v-45.056c0-4.096 2.048-6.144 6.144-6.144h45.056c4.096 0 6.144 2.048 6.144 6.144v45.056c0 4.096-2.048 6.144-6.144 6.144h-45.056zM555.008 396.8h-45.056c-16.384 0-30.72 14.336-30.72 30.72v45.056c0 16.384 14.336 30.72 30.72 30.72h45.056c16.384 0 30.72-14.336 30.72-30.72v-45.056c0-16.384-14.336-30.72-30.72-30.72zM509.952 478.72c-4.096 0-6.144-2.048-6.144-6.144v-45.056c0-4.096 2.048-6.144 6.144-6.144h45.056c4.096 0 6.144 2.048 6.144 6.144v45.056c0 4.096-2.048 6.144-6.144 6.144h-45.056zM421.888 396.8h-45.056c-16.384 0-30.72 14.336-30.72 30.72v45.056c0 16.384 14.336 30.72 30.72 30.72h45.056c16.384 0 30.72-14.336 30.72-30.72v-45.056c0-16.384-14.336-30.72-30.72-30.72zM376.832 478.72c-4.096 0-6.144-2.048-6.144-6.144v-45.056c0-4.096 2.048-6.144 6.144-6.144h45.056c4.096 0 6.144 2.048 6.144 6.144v45.056c0 4.096-2.048 6.144-6.144 6.144h-45.056zM684.032 396.8h-45.056c-16.384 0-30.72 14.336-30.72 30.72v45.056c0 16.384 14.336 30.72 30.72 30.72h45.056c16.384 0 30.72-14.336 30.72-30.72v-45.056c0-16.384-14.336-30.72-30.72-30.72zM638.976 478.72c-4.096 0-6.144-2.048-6.144-6.144v-45.056c0-4.096 2.048-6.144 6.144-6.144h45.056c4.096 0 6.144 2.048 6.144 6.144v45.056c0 4.096-2.048 6.144-6.144 6.144h-45.056z" />
<glyph unicode="&#xe951;" glyph-name="reload" d="M819.2 666.453v-163.84c0-6.827-3.413-13.653-6.827-20.48-6.827-6.827-13.653-6.827-20.48-6.827h-167.253c-6.827 0-13.653 3.413-20.48 6.827-6.827 6.827-6.827 13.653-6.827 20.48s3.413 13.653 6.827 20.48c6.827 6.827 13.653 6.827 20.48 6.827h92.16c-37.547 37.547-68.267 64.853-75.093 71.68-20.48 20.48-44.373 37.547-71.68 47.787s-54.613 17.067-85.333 17.067c-30.72 0-58.027-6.827-85.333-17.067s-51.2-27.307-71.68-47.787c-20.48-20.48-37.547-44.373-47.787-71.68s-17.067-54.613-17.067-81.92c0-27.307 6.827-58.027 17.067-81.92 10.24-27.307 27.307-51.2 47.787-71.68s44.373-37.547 71.68-47.787c27.307-10.24 54.613-17.067 85.333-17.067s58.027 6.827 85.333 17.067c27.307 10.24 51.2 27.307 71.68 47.787 10.24 10.24 23.893 23.893 30.72 37.547 10.24 13.653 17.067 27.307 20.48 44.373 0 3.413 3.413 6.827 6.827 10.24s6.827 3.413 10.24 6.827c3.413 0 6.827 3.413 10.24 3.413s6.827 0 10.24 0c3.413 0 6.827-3.413 10.24-6.827s3.413-6.827 6.827-6.827c0-3.413 3.413-6.827 3.413-10.24s0-6.827 0-10.24c-13.653-37.547-37.547-71.68-64.853-102.4-27.307-27.307-58.027-47.787-92.16-61.44-17.067-6.827-34.133-10.24-51.2-13.653-34.133-6.827-71.68-6.827-105.813 0-17.067 3.413-34.133 6.827-51.2 13.653-34.133 13.653-64.853 34.133-92.16 61.44-34.133 20.48-54.613 51.2-68.267 85.333s-20.48 68.267-20.48 102.4c0 34.133 6.827 71.68 20.48 102.4 13.653 34.133 34.133 64.853 61.44 88.747 27.307 27.307 58.027 47.787 92.16 61.44 17.067 6.827 34.133 10.24 51.2 13.653 34.133 6.827 71.68 6.827 105.813 0 17.067-3.413 34.133-6.827 51.2-13.653 34.133-13.653 64.853-34.133 92.16-61.44 6.827-6.827 40.96-40.96 81.92-78.507v102.4c0 6.827 3.413 13.653 6.827 20.48 6.827 6.827 13.653 6.827 20.48 6.827s13.653-3.413 20.48-6.827c6.827-3.413 10.24-10.24 10.24-17.067z" />
<glyph unicode="&#xe952;" glyph-name="volume" d="M191.147 314.88h116.053l180.907-167.253c3.413-3.413 6.827-3.413 10.24-6.827s6.827 0 13.653 0c3.413 0 6.827 3.413 10.24 6.827s3.413 6.827 3.413 10.24v576.853c0 3.413 0 6.827-3.413 10.24s-6.827 6.827-10.24 10.24c-3.413 0-6.827 3.413-13.653 0-3.413 0-6.827-3.413-10.24-6.827l-180.907-167.253h-116.053c-6.827 0-10.24-3.413-13.653-6.827-3.413 0-6.827-6.827-6.827-10.24v-228.693c0-3.413 3.413-10.24 6.827-13.653 3.413-6.827 6.827-6.827 13.653-6.827zM211.627 543.573h102.4c6.827 0 10.24 3.413 13.653 6.827l150.187 139.947v-484.693l-146.773 139.947c-3.413 3.413-10.24 6.827-13.653 6.827h-102.4v191.147zM587.093 372.907c-6.827 0-10.24-3.413-13.653-6.827s-6.827-6.827-6.827-13.653 3.413-10.24 6.827-13.653c3.413-3.413 10.24-6.827 13.653-6.827 68.267 0 126.293 51.2 126.293 116.053s-54.613 116.053-126.293 116.053c-6.827 0-10.24-3.413-13.653-6.827s-6.827-6.827-6.827-13.653c0-3.413 3.413-10.24 6.827-13.653s10.24-6.827 13.653-6.827c44.373 0 81.92-34.133 81.92-75.093s-37.547-75.093-81.92-75.093zM604.16 229.547c-10.24 0-17.067-6.827-17.067-17.067s6.827-17.067 17.067-17.067v34.133zM604.16 700.587c-10.24 0-17.067-6.827-17.067-17.067s6.827-17.067 17.067-17.067v34.133zM802.133 448c0-122.88-88.747-218.453-197.973-218.453v-34.133c129.707 0 232.107 112.64 232.107 252.587h-34.133zM604.16 666.453c109.227 0 197.973-95.573 197.973-218.453h34.133c0 136.533-102.4 252.587-232.107 252.587v-34.133z" />
<glyph unicode="&#xe953;" glyph-name="mute" d="M191.147 314.88h116.053l180.907-167.253c3.413-3.413 6.827-3.413 10.24-6.827s6.827 0 13.653 0c3.413 0 6.827 3.413 10.24 6.827s3.413 6.827 3.413 10.24v576.853c0 3.413 0 6.827-3.413 10.24s-6.827 6.827-10.24 10.24c-3.413 0-6.827 3.413-13.653 0-3.413 0-6.827-3.413-10.24-6.827l-180.907-167.253h-116.053c-6.827 0-10.24-3.413-13.653-6.827-3.413 0-6.827-6.827-6.827-10.24v-228.693c0-3.413 3.413-10.24 6.827-13.653 3.413-6.827 6.827-6.827 13.653-6.827zM211.627 543.573h102.4c6.827 0 10.24 3.413 13.653 6.827l150.187 139.947v-484.693l-146.773 139.947c-3.413 3.413-10.24 6.827-13.653 6.827h-102.4v191.147z" />
<glyph unicode="&#xe954;" glyph-name="hide" d="M512 618.667c-116.053 0-228.693-150.187-235.52-153.6-3.413-6.827-3.413-10.24-3.413-17.067s3.413-10.24 3.413-17.067c6.827-6.827 119.467-153.6 235.52-153.6s228.693 150.187 235.52 153.6c3.413 3.413 3.413 10.24 3.413 17.067s-3.413 10.24-3.413 17.067c-6.827 6.827-119.467 153.6-235.52 153.6zM512 321.707c-81.92 0-163.84 88.747-197.973 126.293 30.72 37.547 116.053 126.293 197.973 126.293s163.84-88.747 197.973-126.293c-34.133-37.547-116.053-126.293-197.973-126.293zM409.6 448c0-58.027 47.787-102.4 102.4-102.4s102.4 47.787 102.4 102.4-47.787 102.4-102.4 102.4-102.4-44.373-102.4-102.4zM556.373 448c0-23.893-20.48-44.373-44.373-44.373s-44.373 20.48-44.373 44.373c0 23.893 20.48 44.373 44.373 44.373s44.373-20.48 44.373-44.373z" />
<glyph unicode="&#xe955;" glyph-name="exitFullScreen" d="M839.68 468.48h-245.76c-34.816 0-61.44-26.624-61.44-61.44v-245.76c0-12.288 8.192-20.48 20.48-20.48s20.48 8.192 20.48 20.48v245.76c0 12.288 8.192 20.48 20.48 20.48h245.76c12.288 0 20.48 8.192 20.48 20.48s-8.192 20.48-20.48 20.48zM471.040 755.2c-12.288 0-20.48-8.192-20.48-20.48v-245.76c0-12.288-8.192-20.48-20.48-20.48h-245.76c-12.288 0-20.48-8.192-20.48-20.48s8.192-20.48 20.48-20.48h245.76c34.816 0 61.44 26.624 61.44 61.44v245.76c0 12.288-8.192 20.48-20.48 20.48z" />
<glyph unicode="&#xe956;" glyph-name="fullScreen" horiz-adv-x="1004" d="M783.059 518.275c-12.047 0-20.078-8.031-20.078-20.078v-240.941c0-12.047-8.031-20.078-20.078-20.078h-240.941c-12.047 0-20.078-8.031-20.078-20.078s8.031-20.078 20.078-20.078h240.941c34.133 0 60.235 26.102 60.235 60.235v240.941c0 10.039-8.031 20.078-20.078 20.078zM501.961 739.137c0 12.047-8.031 20.078-20.078 20.078h-240.941c-34.133 0-60.235-26.102-60.235-60.235v-240.941c0-12.047 8.031-20.078 20.078-20.078s20.078 8.031 20.078 20.078v240.941c0 12.047 8.031 20.078 20.078 20.078h240.941c12.047 0 20.078 8.031 20.078 20.078z" />
<glyph unicode="&#xe957;" glyph-name="arrow-next" d="M555.008 450.048l-145.408-153.6c-4.096-4.096-6.144-10.24-6.144-16.384s2.048-12.288 6.144-16.384c4.096-4.096 10.24-6.144 16.384-6.144s12.288 2.048 16.384 6.144l161.792 172.032c4.096 4.096 6.144 10.24 6.144 16.384s-2.048 12.288-6.144 16.384l-161.792 172.032c-4.096 4.096-10.24 6.144-16.384 6.144s-12.288-2.048-16.384-6.144c-4.096-4.096-6.144-10.24-6.144-16.384s2.048-12.288 6.144-16.384l145.408-157.696z" />
<glyph unicode="&#xe958;" glyph-name="arrow-prev" horiz-adv-x="1004" d="M447.749 460.047l142.557 152.596c4.016 4.016 6.024 10.039 6.024 16.063s-2.008 12.047-6.024 16.063c-4.016 4.016-10.039 6.024-16.063 6.024s-12.047-2.008-16.063-6.024l-156.612-168.659c-4.016-4.016-6.024-10.039-6.024-16.063s2.008-12.047 6.024-16.063l158.62-168.659c4.016-4.016 10.039-6.024 16.063-6.024s12.047 2.008 16.063 6.024c4.016 4.016 6.024 10.039 6.024 16.063s-2.008 12.047-6.024 16.063l-144.565 152.596z" />
<glyph unicode="&#xe959;" glyph-name="hand" d="M692.907 659.627c23.893 10.24 51.2 3.413 68.267-13.653 27.307-30.72 23.893-85.333 23.893-88.747v-293.547h-44.373v310.613c0 0 0 44.373-23.893 44.373s-23.893-23.893-23.893-27.307v-109.227c0-13.653-10.24-23.893-23.893-23.893s-23.893 10.24-23.893 23.893v150.187c0 0 3.413 40.96-23.893 40.96-23.893 0-23.893-17.067-23.893-17.067v-170.667c0-13.653-10.24-23.893-23.893-23.893s-23.893 10.24-23.893 23.893v177.493c0 23.893 0 44.373-23.893 44.373s-23.893-23.893-23.893-40.96c0-3.413 0-3.413 0-6.827v-177.493c0-13.653-10.24-23.893-23.893-23.893s-23.893 10.24-23.893 23.893v150.187c0 23.893-3.413 37.547-23.893 37.547-23.893 0-23.893-27.307-23.893-44.373v-235.52c0-10.24-3.413-17.067-23.893-17.067-10.24-3.413-23.893 0-27.307 10.24l-13.653 34.133c-3.413 10.24-23.893 30.72-40.96 30.72 0 0-3.413-3.413-10.24-3.413-3.413-3.413-6.827-6.827-6.827-10.24 0 0 0-3.413 0-3.413-3.413-17.067 13.653-58.027 27.307-71.68 0-3.413 54.613-122.88 95.573-167.253 0 0 3.413-3.413 3.413-3.413v-64.853c-13.653 10.24-27.307 23.893-40.96 40.96-44.373 51.2-95.573 167.253-98.987 170.667 0 3.413-40.96 68.267-27.307 112.64 3.413 17.067 13.653 30.72 30.72 40.96 10.24 3.413 23.893 10.24 30.72 10.24 30.72 0 54.613-23.893 68.267-37.547v170.667c0 0 0 37.547 23.893 58.027 13.653 13.653 27.307 23.893 51.2 23.893 3.413 0 10.24 0 13.653-3.413 3.413 0 10.24-3.413 13.653-3.413 0 10.24 10.24 17.067 17.067 27.307 23.893 27.307 68.267 27.307 92.16 0 3.413-10.24 10.24-13.653 10.24-23.893 3.413 0 6.827 0 13.653 3.413 6.827 0 10.24 3.413 20.48 3.413 23.893 0 40.96-10.24 51.2-17.067 10.24-17.067 13.653-27.307 13.653-40.96z" />
<glyph unicode="&#xe95a;" glyph-name="edit" d="M770.048 630.272l-71.68 71.68c-24.576 24.576-63.488 24.576-86.016 0l-278.528-278.528c-8.192-8.192-14.336-20.48-16.384-32.768l-32.768-174.080 174.080 32.768c10.24 2.048 24.576 8.192 32.768 16.384l278.528 278.528c22.528 22.528 22.528 61.44 0 86.016zM387.072 417.28l200.704 200.704 100.352-100.352-200.704-200.704-100.352 100.352zM335.872 265.728l22.528 116.736c0 2.048 0 4.096 2.048 4.096l98.304-98.304c-2.048 0-2.048 0-4.096-2.048l-118.784-20.48zM741.376 572.928l-24.576-24.576-100.352 100.352 24.576 24.576c8.192 8.192 20.48 8.192 28.672 0l71.68-71.68c6.144-8.192 6.144-22.528 0-28.672z" />
<glyph unicode="&#xe95b;" glyph-name="record" horiz-adv-x="1004" d="M502.4 549h-6c-54.2 0-98.4-44.2-98.4-98.4s44.2-100.4 98.4-100.4h6c54.2 0 98.4 44.2 98.4 98.4s-42.2 100.4-98.4 100.4v0zM757.8 160h-517c-34.2 0-62 27.8-62 62v455c0 34.2 27.8 62 62 62h517c34.2 0 62-27.8 62-62v-455c0-34.2-27.8-62-62-62zM240.8 697.8c-11.4 0-20.6-9.2-20.6-20.6v-455.2c0-11.4 9.2-20.6 20.6-20.6h517c11.4 0 20.6 9.2 20.6 20.6v455c0 11.4-9.2 20.6-20.6 20.6h-517z" />
<glyph unicode="&#xe95c;" glyph-name="txt-valign-middle" d="M504.415 368.356l-11.378 11.378-11.378-11.378-113.778-102.4c-7.585-7.585-7.585-18.963 0-26.548s18.963-7.585 26.548 0l83.437 72.059v-147.911c0-11.378 7.585-18.963 18.963-18.963s18.963 7.585 18.963 18.963v147.911l83.437-72.059c7.585-7.585 18.963-7.585 26.548 0s7.585 18.963 0 26.548l-121.363 102.4zM367.881 630.044c-7.585 7.585-11.378 18.963-3.793 26.548s18.963 7.585 26.548 0l83.437-72.059v147.911c0 11.378 7.585 18.963 18.963 18.963s18.963-7.585 18.963-18.963v-147.911l83.437 72.059c7.585 7.585 18.963 7.585 26.548 0s7.585-18.963 0-26.548l-125.156-113.778-128.948 113.778zM265.481 463.17h455.111v-37.926h-455.111v37.926z" />
<glyph unicode="&#xe95d;" glyph-name="txt-valign-bottom" d="M284.444 246.993h455.111v-37.926h-455.111v37.926zM500.622 311.467l11.378-11.378 11.378 11.378 113.778 102.4c7.585 7.585 7.585 18.963 0 26.548s-18.963 7.585-26.548 0l-79.644-72.059v299.615c0 11.378-7.585 18.963-18.963 18.963s-18.963-11.378-18.963-22.756v-299.615l-83.437 72.059c-7.585 7.585-18.963 7.585-26.548 0s-7.585-18.963 0-26.548l117.57-98.607z" />
<glyph unicode="&#xe95f;" glyph-name="code_icn" d="M147.911 482.133c68.267-3.793 64.474 53.096 64.474 125.156 0 121.363 3.793 178.252 140.326 178.252v-60.681c-64.474 0-75.852-11.378-75.852-72.059 0-83.437 11.378-170.667-56.889-204.8 53.096-30.341 56.889-75.852 56.889-155.496s-7.585-121.363 75.852-121.363v-60.681c-132.741 0-140.326 37.926-140.326 170.667 0 83.437 3.793 128.948-64.474 128.948v72.059zM876.089 413.867c-68.267 0-64.474-49.304-64.474-128.948 0-132.741-7.585-170.667-140.326-170.667v60.681c83.437-3.793 75.852 41.719 75.852 121.363 0 75.852 3.793 125.156 56.889 155.496-68.267 34.133-56.889 121.363-56.889 204.8 0 56.889-11.378 72.059-75.852 72.059v56.889c136.533 0 140.326-56.889 140.326-178.252 0-72.059-3.793-128.948 64.474-125.156v-68.267z" />
</font>
</defs>
</svg>
