<svg id="レイヤー_1" data-name="レイヤー 1" xmlns="http://www.w3.org/2000/svg" width="127.36" height="127.36" viewBox="0 0 127.36 127.36"><defs><style>.cls-1{fill:none}.cls-2{clip-path:url(#clip-path)}.cls-3{fill:gray}</style><clipPath id="clip-path"><path class="cls-1" d="M0 0h127.36v127.36H0z"/></clipPath></defs><title>in</title><g class="cls-2"><path class="cls-3" d="M90.12 127.36H37.24A37.28 37.28 0 0 1 0 90.12V37.24A37.28 37.28 0 0 1 37.24 0h52.88a37.28 37.28 0 0 1 37.24 37.24v52.88a37.28 37.28 0 0 1-37.24 37.24M37.24 11.87a25.39 25.39 0 0 0-25.37 25.37v52.88a25.39 25.39 0 0 0 25.36 25.36h52.89a25.39 25.39 0 0 0 25.36-25.36V37.24a25.39 25.39 0 0 0-25.36-25.37z"/><path class="cls-3" d="M105.64 29.72a7.94 7.94 0 1 1-7.94-7.94 7.94 7.94 0 0 1 7.94 7.94M63.68 96.6A32.92 32.92 0 1 1 96.6 63.68 33 33 0 0 1 63.68 96.6m0-54a21 21 0 1 0 21 21 21.07 21.07 0 0 0-21-21"/></g></svg>