<svg id="レイヤー_1" data-name="レイヤー 1" xmlns="http://www.w3.org/2000/svg" width="150" height="142.92" viewBox="0 0 150 142.92"><defs><style>.cls-1{fill:none}.cls-2{clip-path:url(#clip-path)}.cls-3{fill:gray}</style><clipPath id="clip-path"><path class="cls-1" d="M0 0h150v142.92H0z"/></clipPath></defs><title>ln</title><g class="cls-2"><path class="cls-3" d="M133.93 98.31C118.19 116.42 83 138.48 75 141.85s-6.82-2.15-6.5-4c.19-1.13 1.07-6.42 1.07-6.42.25-1.92.51-4.89-.24-6.78-.84-2.09-4.17-3.17-6.61-3.7-36-4.76-62.72-30-62.72-60C0 27.3 33.65 0 75 0s75 27.3 75 60.86c0 13.43-5.21 25.53-16.08 37.45zM59.76 44.65H54.5A1.46 1.46 0 0 0 53 46.1v32.68a1.46 1.46 0 0 0 1.46 1.46h5.26a1.46 1.46 0 0 0 1.46-1.46V46.1a1.46 1.46 0 0 0-1.46-1.46m36.21 0h-5.22a1.46 1.46 0 0 0-1.46 1.46v19.42l-15-20.22-.11-.15-.08-.15H74l-.07-.05H67.8a1.46 1.46 0 0 0-1.46 1.46v32.37a1.46 1.46 0 0 0 1.46 1.46h5.26a1.46 1.46 0 0 0 1.46-1.46V59.37l15 20.25a1.45 1.45 0 0 0 .37.36l.09.06h.24a1.4 1.4 0 0 0 .37.05H96a1.46 1.46 0 0 0 1.46-1.46V46.1A1.46 1.46 0 0 0 96 44.65M47.08 72.06H32.79v-26a1.46 1.46 0 0 0-1.46-1.46h-5.27a1.46 1.46 0 0 0-1.46 1.5v32.68a1.45 1.45 0 0 0 .41 1 1.45 1.45 0 0 0 1 .41h21a1.46 1.46 0 0 0 1.46-1.46v-5.21a1.46 1.46 0 0 0-1.46-1.46M125 52.83a1.46 1.46 0 0 0 1.46-1.46v-5.26a1.46 1.46 0 0 0-1.46-1.47h-21a1.45 1.45 0 0 0-1 .41 1.45 1.45 0 0 0-.41 1v32.73a1.45 1.45 0 0 0 .41 1 1.45 1.45 0 0 0 1 .41h21a1.46 1.46 0 0 0 1.46-1.46v-5.21a1.46 1.46 0 0 0-1.46-1.46h-14.27v-5.53H125a1.46 1.46 0 0 0 1.46-1.46v-5.26a1.46 1.46 0 0 0-1.46-1.46h-14.27v-5.52z"/></g></svg>