<svg id="レイヤー_1" xmlns="http://www.w3.org/2000/svg" xmlns:xlink="http://www.w3.org/1999/xlink" viewBox="0 0 150 142.9"><style>.st0{clip-path:url(#SVGID_2_)}.st1{fill:#1dcd00}</style><title>ln</title><defs><path id="SVGID_1_" d="M0 0h150v142.9H0z"/></defs><clipPath id="SVGID_2_"><use xlink:href="#SVGID_1_" overflow="visible"/></clipPath><g class="st0"><path class="st1" d="M133.9 98.3C118.2 116.4 83 138.5 75 141.9s-6.8-2.1-6.5-4c.2-1.1 1.1-6.4 1.1-6.4.2-1.9.5-4.9-.2-6.8-.8-2.1-4.2-3.2-6.6-3.7C26.7 116.2 0 91 0 61 0 27.3 33.7 0 75 0s75 27.3 75 60.9c0 13.4-5.2 25.5-16.1 37.4zM59.8 44.7h-5.3c-.8 0-1.5.6-1.5 1.4v32.7c0 .8.7 1.5 1.5 1.5h5.3c.8 0 1.5-.7 1.5-1.5V46.1c-.1-.8-.8-1.5-1.5-1.4m36.1-.1h-5.2c-.8 0-1.5.7-1.5 1.5v19.4l-15-20.2-.1-.2V45h-6.5c-.8 0-1.5.7-1.5 1.5v32.4c0 .8.7 1.5 1.5 1.5h5.3c.8 0 1.5-.7 1.5-1.5V59.4l15 20.2c.1.1.2.3.4.4h.5c.1 0 .2 0 .4.1H96c.8 0 1.5-.7 1.5-1.5V46.1c0-.8-.7-1.5-1.6-1.5M47.1 72.1H32.8v-26c0-.8-.7-1.5-1.5-1.5H26c-.8 0-1.5.7-1.5 1.5v32.7c0 .4.1.7.4 1 .3.3.6.4 1 .4h21c.8 0 1.5-.7 1.5-1.5v-5.2c.1-.8-.6-1.4-1.3-1.4M125 52.8c.8 0 1.5-.7 1.5-1.5V46c0-.8-.6-1.5-1.4-1.5h-21c-.4 0-.7.1-1 .4-.3.3-.4.6-.4 1v32.7c0 .4.1.7.4 1 .3.3.6.4 1 .4h21c.8 0 1.5-.7 1.5-1.5v-5.2c0-.8-.7-1.5-1.5-1.5h-14.3v-5.5H125c.8 0 1.5-.7 1.5-1.5v-5.3c0-.8-.7-1.5-1.5-1.5h-14.3v-5.5H125z"/></g></svg>