<svg id="レイヤー_1" data-name="レイヤー 1" xmlns="http://www.w3.org/2000/svg" width="1547.72" height="263.68" viewBox="0 0 1547.72 263.68"><defs><style>.cls-1{fill:#fff}</style></defs><title>tsubaki</title><path class="cls-1" d="M1530.22 247.21c-9.31-3.08-13.45-13.91-14.39-23.28-1.24-12.22-1.45-25.12-1.45-48.35V36.34c0-11.51 3.27-16.68 14.75-17.76 2.4-.24 6.77-.42 10.73-.42v-7.5h-94.57v7.5a117.83 117.83 0 0 1 14.77.64c9.82 1.1 13.88 7.18 15.76 12.15 3.92 10.45 3.47 40.6 3.61 86 .08 15.41-.25 104.15-.36 116.14-.14 8.42-3.95 11.8-7.93 13.38-4.73 1.88-12.95 2.43-18.15 2.43v7.48h94.76v-7.48c-7.38 0-13.16-.21-17.5-1.67m-128.66-10.48c-20.72-18.72-70.86-89.63-95.65-126.38 23.95-26.45 48.89-54.72 63.6-71.43 15.71-17.92 23.32-20.62 39.23-20.77v-7.5h-82.12v7.5c13.17.11 26 .83 27.47 8.42.67 3.57-2.28 8.06-4.6 11.54-9.93 15-74 87.58-95.51 109v-111c0-10.83 3.73-16.6 14.75-17.64 2.42-.24 6.78-.34 10.76-.34v-7.5h-93.13v7.5a102.56 102.56 0 0 1 13.84.66c9.09 1 13.58 6.75 15.6 12.52 4.28 12.07 3.64 40.1 3.78 85.48.07 15.4-.26 104.53-.39 116.51-.11 8.41-2.63 11.53-6.59 13.1-4.75 1.88-12.67 2.43-17.88 2.43v7.48h92.16v-7.48c-7.39 0-13.19-.21-17.49-1.67-9.34-3.08-13-13.64-13.91-23-1.23-12.2-1.47-25.13-1.47-48.33v-10.1c7-6.8 16.64-16.93 27.54-28.72 17.42 26.31 54.7 78.38 73.82 100.85 7.84 9.21 16.64 17.69 37 18.48 10.67.44 30.88.39 40.29 0v-7.48c-6.86-.31-10.33-1.1-13.42-2.09a45.46 45.46 0 0 1-17.63-10M842.75 118.55c24.25-7.2 49-26.44 49-54 0-15-6-25-12.46-31.78-21.26-22.17-59.12-22.12-88.24-22.12h-85.5v7.5c16.67 0 25.58 3 29.41 18 2.85 11.23 2.54 28 2.54 80.32v116c0 7.28-1.92 10.76-4.66 12.81-4.87 3.64-13.21 3.52-19.92 3.52v7.48h93.42c18.91 0 34.75-.66 47.8-4.15 34.29-9.14 53.89-32.12 53.89-64.67 0-44.42-34.55-61.86-65.28-69m-62.2-94.27c5.31-.22 18.15-.31 24.62-.09 10.71.4 25.33.09 37.73 13.69a46 46 0 0 1 11.58 30c0 22.26-8.41 36.9-26.54 47.9a323.48 323.48 0 0 0-56-2.88V31.5c0-7.24 2.23-7 8.61-7.21m54.11 215.3c-7 2.7-17.05 4.31-28.64 4.31 0 0-13.48.4-19.5-.68-12.89-2.36-14.58-5.92-14.58-46v-70.58c25.16-1.56 46.44.05 60.62 4.94 20.55 7.09 37.37 29 37.37 54 0 25.11-13.39 45.64-35.28 54M609.26 18.17a101.29 101.29 0 0 1 13.72.64c9.81 1.1 13.85 7.39 15.72 12.35 4 10.47 3.47 44 3.47 53.84v70.7c0 19.4.07 36.18-9.63 54.55-11.15 21.1-33.93 37.57-69.83 37.57-20.77 0-39.68-8.46-51.12-21.15C499.26 213 496 199.8 496 170.07V36.46c0-12.7 3.54-16.74 14.56-17.82 2.43-.25 6.37-.47 10.34-.47v-7.5h-93.05v7.5a101.09 101.09 0 0 1 13.72.64c9.82 1.1 13.86 7.39 15.73 12.35 3.95 10.47 3.64 26.38 3.64 53.84l-.06 76c0 30.53 2.87 50.77 17.9 69.73 13 16.41 33.21 32.86 78.87 32.86 59.64 0 98.14-36.93 98.14-92.77 0-21.57.49-126.78.53-133.72.07-13.66 2.75-17.29 14.41-18.43 2.43-.24 5.73-.46 9.69-.46v-7.5h-71.16zM324.62 108c-19-7.26-54.07-16-54.07-46.22a43.57 43.57 0 0 1 30.32-40.64c21.14-7 45.17-3.4 57.45 3.1 10.45 5.54 11.77 12 12.77 20.76l8.39-.58-.92-32C365.34 7.71 352 5 332 4.48c-47.79-1.13-86.14 29-86.14 69.55 0 48.56 42.2 62 62.2 69.52 40.9 15.42 63 26.63 63 55.5 0 28.7-30 51.56-61.85 50.27-21.53-.88-36.22-9.57-49.59-23.44-5-5.23-13.44-17.73-16.61-31.56l-9 1.27 8.32 47c15.74 12 40.57 20.59 62.19 21C364.62 264.94 399 223 399 187.95c0-53.59-42.89-68.46-74.34-80M11.28 10.66L0 48.74l7.82 2.46c5.5-16 17.56-20.51 35.62-23.9a259.7 259.7 0 0 1 39-3.09h7.46c0 32.29.35 182-.47 207.89-.31 9.56-2.07 13.31-7.63 15.08-4.93 1.55-13.68 1.72-18 1.72v7.48h97.48v-7.48c-6.32 0-15.91-.62-20.94-2.25-5.48-1.79-13-7.05-13.84-20.34-.52-9-1.75-20.88-1.93-50.31-.15-21.51-.11-127.64-.11-151.87h9.36a252.2 252.2 0 0 1 38.63 3c20.12 4 30.74 9.05 36.35 24l7.82-2.44-12.09-38zM1139.84 223c-14.43-35-62.26-162.47-71.66-199-3-11.69 4-16.1 8-16.85L1073.93 0l-31.16 7c-15.64 39.53-35.12 87.29-53.53 130.33-15.33 35.75-24.62 59.23-31.87 75.73-8.85 20.06-11.33 27.43-15.78 31-4 3.18-10.38 4.54-20.07 4.85v7.48h84v-7.48a111.62 111.62 0 0 1-20.24-2.45c-16.42-3.78-16-12.37-12-25.31 4.56-14.83 12-35.37 20.49-57.37h84.12c11.65 33.91 22 62.5 24.56 70.32 2 6.2 1.43 9.17-.64 11.3-2.77 2.88-11 3.46-17 3.51v7.48h88.73v-7.48c-6.91 0-13-.75-18-3.74-5.93-3.54-11.36-11.62-15.69-22.14m-141.09-72.38c16-41.1 34-84.3 41.69-103.3 3.31 12.26 20.6 66.8 28.94 91.63 1.32 3.92 2.63 7.83 3.94 11.67z"/></svg>