<svg id="レイヤー_1" data-name="レイヤー 1" xmlns="http://www.w3.org/2000/svg" width="120" height="97.53" viewBox="0 0 120 97.53"><defs><style>.cls-1{fill:none}.cls-2{clip-path:url(#clip-path)}.cls-3{fill:gray}</style><clipPath id="clip-path"><path class="cls-1" d="M0 0h120v97.53H0z"/></clipPath></defs><title>tw</title><g class="cls-2"><path class="cls-3" d="M37.74 97.53c45.28 0 70-37.52 70-70q0-1.6-.07-3.18A50.13 50.13 0 0 0 120 11.55a49.12 49.12 0 0 1-14.14 3.88A24.7 24.7 0 0 0 116.69 1.8a49.34 49.34 0 0 1-15.63 6 24.64 24.64 0 0 0-42 22.45A69.9 69.9 0 0 1 8.35 4.51 24.64 24.64 0 0 0 16 37.38 24.45 24.45 0 0 1 4.82 34.3v.31a24.63 24.63 0 0 0 19.75 24.14 24.58 24.58 0 0 1-11.12.42 24.65 24.65 0 0 0 23 17.1A49.4 49.4 0 0 1 5.87 86.81 50 50 0 0 1 0 86.47a69.7 69.7 0 0 0 37.74 11.06"/></g></svg>