<svg id="レイヤー_1" xmlns="http://www.w3.org/2000/svg" xmlns:xlink="http://www.w3.org/1999/xlink" viewBox="0 0 120 97.5"><style>.st0{clip-path:url(#SVGID_2_)}.st1{fill:#1da1f2}</style><title>tw</title><defs><path id="SVGID_1_" d="M0 0h120v97.5H0z"/></defs><clipPath id="SVGID_2_"><use xlink:href="#SVGID_1_" overflow="visible"/></clipPath><g class="st0"><path class="st1" d="M37.7 97.5c45.3 0 70-37.5 70-70 0-1.1 0-2.1-.1-3.2 4.8-3.5 9-7.8 12.3-12.8-4.5 2-9.3 3.3-14.1 3.9 5.1-3.1 9-7.9 10.8-13.6-4.8 2.9-10.1 4.9-15.6 6-9.2-9.9-24.8-10.5-34.8-1.2-6.5 6-9.2 15.1-7.2 23.7-19.8-1-38.2-10.4-50.7-25.7C1.8 15.8 5.2 30.2 16 37.4c-3.9-.1-7.8-1.2-11.2-3.1v.3c0 11.7 8.3 21.8 19.8 24.1-3.6 1-7.4 1.1-11.1.4 3.2 10 12.5 16.9 23 17.1C27.7 83.1 17 86.8 5.9 86.8c-2 0-3.9-.1-5.9-.3 11.3 7.2 24.4 11 37.7 11"/></g></svg>