<?xml version="1.0" standalone="no"?>
<!DOCTYPE svg PUBLIC "-//W3C//DTD SVG 1.1//EN" "http://www.w3.org/Graphics/SVG/1.1/DTD/svg11.dtd" >
<svg xmlns="http://www.w3.org/2000/svg">
<metadata></metadata>
<defs>
<font id="utm_facebook_ktregular" horiz-adv-x="1277" >
<font-face units-per-em="2048" ascent="1638" descent="-410" />
<missing-glyph horiz-adv-x="430" />
<glyph horiz-adv-x="0" />
<glyph unicode="&#xd;" horiz-adv-x="571" />
<glyph unicode=" "  horiz-adv-x="430" />
<glyph unicode="&#x09;" horiz-adv-x="430" />
<glyph unicode="&#xa0;" horiz-adv-x="430" />
<glyph unicode="!" horiz-adv-x="581" d="M163 0v287h254v-287h-254zM165 797v608h250v-608l-51 -355h-148z" />
<glyph unicode="&#x22;" horiz-adv-x="792" d="M122 899v506h178v-506h-178zM491 899v506h178v-506h-178z" />
<glyph unicode="#" horiz-adv-x="1429" d="M102 334l10 172h252l17 325h-259l11 173h256l16 319h186l-16 -319h318l16 319h186l-18 -319h246l-11 -173h-243l-17 -325h250l-10 -172h-248l-16 -334h-185l17 334h-318l-18 -334h-184l16 334h-254zM548 506h320l14 325h-317z" />
<glyph unicode="$" horiz-adv-x="1036" d="M102 47l45 205q79 -25 155 -38q93 -17 177 -17q124 0 163 36q33 32 33 134q0 100 -31 130q-35 34 -188 70q-225 54 -289 134q-57 71 -57 272q0 179 75 263q80 88 269 103v230h207v-230q131 -7 242 -34l-27 -215q-167 34 -334 34q-109 0 -144 -28q-38 -31 -38 -129 t28 -124q28 -24 175 -65q249 -70 312 -150q33 -41 43 -106q7 -47 7 -153q0 -184 -65 -270q-72 -94 -250 -113v-228h-205v226q-160 9 -303 63z" />
<glyph unicode="%" horiz-adv-x="1796" d="M102 930v164q0 138 68 209q78 81 251 81q174 0 252 -81q68 -71 68 -209v-164q0 -139 -68 -209q-78 -82 -252 -82q-173 0 -251 82q-68 70 -68 209zM299 915q0 -106 122 -106q123 0 123 106v193q0 106 -123 106q-122 0 -122 -106v-193zM534 43l551 1341l158 -63l-551 -1341 zM1044 270v164q0 139 68 209q78 82 252 82q173 0 251 -82q68 -70 68 -209v-164q0 -138 -68 -209q-78 -81 -251 -81q-174 0 -252 81q-68 71 -68 209zM1241 256q0 -106 123 -106q122 0 122 106v193q0 106 -122 106q-123 0 -123 -106v-193z" />
<glyph unicode="&#x26;" horiz-adv-x="1341" d="M143 315v115q0 210 166 270q-141 70 -141 248v107q0 159 94 239q105 90 338 90q218 0 405 -41l-22 -204q-182 32 -394 32q-170 0 -170 -127v-122q0 -136 142 -136h688v-211h-199v-528q-102 -34 -234 -51q-120 -16 -241 -16q-232 0 -338 92q-94 82 -94 243zM395 342 q0 -156 186 -156q55 0 110 4q68 5 122 15v370h-232q-186 0 -186 -147v-86z" />
<glyph unicode="'" horiz-adv-x="423" d="M122 899v506h178v-506h-178z" />
<glyph unicode="(" horiz-adv-x="686" d="M143 623q0 278 88 523q79 220 229 415l185 -107q-131 -213 -187 -393q-63 -199 -63 -438q0 -240 63 -439q56 -180 187 -393l-185 -106q-150 194 -229 415q-88 245 -88 523z" />
<glyph unicode=")" horiz-adv-x="686" d="M40 -209q130 213 187 393q63 199 63 439q0 239 -63 438q-57 180 -187 393l184 107q151 -195 230 -415q88 -245 88 -523t-88 -523q-80 -221 -230 -415z" />
<glyph unicode="*" horiz-adv-x="1028" d="M122 999v121h279l-152 240l100 65l162 -249l162 249l102 -65l-155 -240h284v-121h-278l149 -231l-104 -66l-160 248l-160 -248l-104 66l149 231h-274z" />
<glyph unicode="+" horiz-adv-x="1081" d="M122 399v197h315v317h205v-317h316v-197h-316v-317h-205v317h-315z" />
<glyph unicode="," horiz-adv-x="561" d="M133 -221l115 221h-95v287h254v-303l-159 -269z" />
<glyph unicode="-" horiz-adv-x="761" d="M122 469v209h516v-209h-516z" />
<glyph unicode="." horiz-adv-x="561" d="M153 0v287h254v-287h-254z" />
<glyph unicode="/" horiz-adv-x="940" d="M112 -240l508 1624h227l-510 -1624h-225z" />
<glyph unicode="0" horiz-adv-x="1150" d="M133 346v631q0 168 96 260q111 106 346 106q236 0 347 -106q96 -92 96 -260v-631q0 -168 -96 -260q-111 -106 -347 -106q-235 0 -346 106q-96 92 -96 260zM383 371q0 -94 37 -131q42 -41 155 -41q114 0 156 41q37 37 37 131v581q0 94 -37 131q-42 41 -156 41 q-113 0 -155 -41q-37 -37 -37 -131v-581z" />
<glyph unicode="1" horiz-adv-x="786" d="M20 1106l377 217h225v-1323h-250v1047l-248 -138z" />
<glyph unicode="2" horiz-adv-x="1026" d="M102 1290q80 23 165 37q104 16 206 16q230 0 331 -80q95 -76 95 -241v-47q0 -143 -32 -216q-34 -76 -175 -249q-80 -98 -135 -164l-109 -127h455v-219h-795v215q23 25 53 57l22 25q12 13 21 22l68 75q59 65 154 175l116 137q46 56 67 92q40 65 40 160v35q0 129 -191 129 q-135 0 -321 -41z" />
<glyph unicode="3" horiz-adv-x="1007" d="M102 23l27 206q150 -30 292 -30q131 0 175 31q38 29 38 112v80q0 131 -147 131h-293v223h248q168 0 168 144v79q0 125 -189 125q-132 0 -282 -28l-27 211q148 36 332 36q231 0 328 -77q88 -70 88 -224v-127q0 -182 -148 -247q172 -58 172 -248v-117q0 -163 -94 -238 q-107 -85 -360 -85q-75 0 -169 11q-102 13 -159 32z" />
<glyph unicode="4" horiz-adv-x="1157" d="M57 291v231l530 801h334v-819h174v-213h-174v-291h-246v291h-618zM307 504h368v571z" />
<glyph unicode="5" horiz-adv-x="1028" d="M122 29l31 204q155 -34 313 -34q131 0 169 36q30 27 30 117v66q0 75 -34 105q-37 34 -142 38q-180 8 -326 10v752h729v-217h-479v-330l184 -8q171 -9 249 -94q69 -75 69 -219v-125q0 -177 -85 -256q-102 -94 -360 -94q-183 0 -348 49z" />
<glyph unicode="6" horiz-adv-x="1077" d="M122 371v497q0 262 143 373q131 102 422 102q130 0 236 -24l-17 -209q-89 18 -192 18q-191 0 -262 -46q-80 -53 -80 -203v-127q107 36 244 36q348 0 348 -337v-99q0 -174 -90 -266q-103 -106 -330 -106q-247 0 -343 107q-79 88 -79 284zM372 344q0 -149 172 -149 q170 0 170 149v100q0 129 -137 129q-105 0 -205 -43v-186z" />
<glyph unicode="7" horiz-adv-x="942" d="M51 1104v219h829v-211l-473 -1112h-260l471 1104h-567z" />
<glyph unicode="8" horiz-adv-x="1118" d="M122 319v87q0 171 195 268q-162 94 -162 254v92q0 156 91 236q100 87 312 87q213 0 313 -87q91 -80 91 -236v-92q0 -81 -33 -137q-38 -65 -129 -117q110 -55 155 -121q39 -58 39 -147v-87q0 -182 -98 -260q-100 -79 -338 -79t-338 79q-98 78 -98 260zM364 324 q0 -138 194 -138q195 0 195 138v55q0 68 -32 102q-38 40 -163 88q-125 -48 -162 -88q-32 -34 -32 -102v-55zM396 928q0 -59 28 -88q31 -32 134 -72q103 40 134 72q28 29 28 88v86q0 125 -162 125t-162 -125v-86z" />
<glyph unicode="9" horiz-adv-x="1067" d="M102 872v99q0 181 93 272q103 100 327 100q246 0 343 -107q79 -87 79 -284v-497q0 -262 -143 -373q-132 -102 -423 -102q-130 0 -235 24l22 209q90 -18 187 -18q197 0 270 54q72 53 72 195v127q-108 -36 -244 -36q-348 0 -348 337zM352 879q0 -129 137 -129q105 0 205 43 v186q0 149 -172 149q-170 0 -170 -149v-100z" />
<glyph unicode=":" horiz-adv-x="561" d="M153 0v287h254v-287h-254zM153 623v286h254v-286h-254z" />
<glyph unicode=";" horiz-adv-x="561" d="M133 -221l115 221h-95v287h254v-303l-159 -269zM153 623v286h254v-286h-254z" />
<glyph unicode="&#x3c;" horiz-adv-x="1200" d="M102 432v135l885 451l78 -152l-727 -366l729 -367l-80 -153z" />
<glyph unicode="=" horiz-adv-x="1103" d="M143 233v173h817v-173h-817zM143 618v173h817v-173h-817z" />
<glyph unicode="&#x3e;" horiz-adv-x="1200" d="M133 133l729 367l-727 366l78 152l885 -451v-135l-885 -452z" />
<glyph unicode="?" horiz-adv-x="1005" d="M102 1380q173 45 356 45q255 0 350 -93q85 -83 85 -288q0 -158 -24 -223q-31 -83 -142 -174q-59 -47 -120 -95q-25 -19 -63 -48l-75 -58l-142 191l189 149q88 71 108 112q19 37 19 132q0 100 -40 135q-43 37 -171 37q-146 0 -293 -37zM301 0v287h254v-287h-254z" />
<glyph unicode="@" horiz-adv-x="1511" d="M102 682q0 304 191 502q194 200 497 200q292 0 466 -166q163 -156 163 -395q0 -89 -17 -162q-18 -82 -58 -141q-93 -137 -296 -137q-160 0 -205 96q-85 -51 -200 -51q-90 0 -126 60q-30 50 -16 128l37 209q35 193 246 193q147 0 264 -70l-76 -424q38 -10 72 -10 q119 0 171 94q40 74 40 211q0 181 -116 293q-125 121 -349 121q-226 0 -372 -154q-146 -155 -146 -397q0 -257 145 -401q148 -148 422 -148q165 0 318 60l47 -138q-155 -75 -363 -75q-357 0 -553 196q-186 187 -186 506zM645 614q-11 -63 47 -63q76 0 149 51l47 270 q-54 23 -110 23q-84 0 -98 -80z" />
<glyph unicode="A" horiz-adv-x="1323" d="M51 0l430 1364h361l430 -1364h-271l-88 283h-506l-86 -283h-270zM471 506h377l-187 645z" />
<glyph unicode="B" horiz-adv-x="1181" d="M153 0v1364h537q362 0 362 -291v-141q0 -156 -151 -221q198 -43 198 -252v-146q0 -313 -373 -313h-573zM411 213h264q166 0 166 133v103q0 137 -143 137h-287v-373zM411 793h246q137 0 137 127v120q0 111 -135 111h-248v-358z" />
<glyph unicode="C" horiz-adv-x="1071" d="M122 375v614q0 395 485 395q194 0 371 -45l-29 -223q-188 35 -333 35q-236 0 -236 -207v-524q0 -207 236 -207q145 0 333 35l29 -223q-177 -45 -371 -45q-485 0 -485 395z" />
<glyph unicode="D" horiz-adv-x="1236" d="M153 0v1364h508q236 0 352 -110q101 -94 101 -257v-630q0 -162 -101 -257q-116 -110 -352 -110h-508zM411 227h223q221 0 221 201v508q0 201 -221 201h-223v-910z" />
<glyph unicode="E" horiz-adv-x="1101" d="M153 0v1364h836v-227h-578v-330h533v-227h-533v-353h578v-227h-836z" />
<glyph unicode="F" horiz-adv-x="1069" d="M153 0v1364h844v-227h-586v-363h541v-227h-541v-547h-258z" />
<glyph unicode="G" horiz-adv-x="1196" d="M122 391v582q0 411 518 411q93 0 191 -10q115 -12 200 -35l-28 -225q-173 37 -383 37q-240 0 -240 -213v-516q0 -211 238 -211q99 0 211 16v414h243v-600q-215 -61 -456 -61q-494 0 -494 411z" />
<glyph unicode="H" horiz-adv-x="1329" d="M153 0v1364h258v-561h506v561h258v-1364h-258v575h-506v-575h-258z" />
<glyph unicode="I" horiz-adv-x="585" d="M163 0v1364h258v-1364h-258z" />
<glyph unicode="J" horiz-adv-x="555" d="M-20 -248q125 120 145 148q29 39 29 100v1364h258v-1387q0 -103 -56 -182q-52 -71 -222 -217z" />
<glyph unicode="K" horiz-adv-x="1253" d="M153 0v1364h258v-1364h-258zM448 690l422 674h293l-430 -674l458 -690h-297z" />
<glyph unicode="L" horiz-adv-x="1034" d="M153 0v1364h258v-1137h561v-227h-819z" />
<glyph unicode="M" horiz-adv-x="1671" d="M133 0l61 1364h289l352 -969l353 969h288l62 -1364h-264l-23 883l-252 -707h-327l-252 707l-23 -883h-264z" />
<glyph unicode="N" horiz-adv-x="1421" d="M153 0v1364h344l518 -1036v1036h252v-1364h-344l-518 1034v-1034h-252z" />
<glyph unicode="O" d="M122 399v566q0 187 114 295q131 124 402 124t403 -124q113 -108 113 -295v-566q0 -187 -113 -295q-132 -124 -403 -124t-402 124q-114 108 -114 295zM380 414q0 -207 258 -207t258 207v536q0 207 -258 207t-258 -207v-536z" />
<glyph unicode="P" horiz-adv-x="1179" d="M153 0v1364h532q231 0 335 -94q98 -89 98 -275v-186q0 -367 -445 -367h-262v-442h-258zM411 670h260q189 0 189 166v139q0 162 -189 162h-260v-467z" />
<glyph unicode="Q" d="M122 399v566q0 187 114 295q131 124 402 124t403 -124q113 -108 113 -295v-566q0 -150 -74 -250q-84 -113 -256 -151l109 -256l-231 -96l-144 338q-228 15 -339 137q-97 105 -97 278zM380 414q0 -207 258 -207t258 207v536q0 207 -258 207t-258 -207v-536z" />
<glyph unicode="R" horiz-adv-x="1331" d="M153 0v1364h559q232 0 336 -94q98 -89 98 -275v-178q0 -256 -205 -330l338 -487h-309l-313 451h-246v-451h-258zM411 674h291q186 0 186 166v135q0 162 -186 162h-291v-463z" />
<glyph unicode="S" horiz-adv-x="1105" d="M98 61l45 203q101 -31 189 -46q99 -17 196 -17q136 0 179 36q38 32 38 134q0 115 -33 145q-35 33 -217 72q-244 54 -311 132q-63 74 -63 294q0 192 99 278q107 92 359 92q199 0 398 -45l-29 -217q-188 41 -365 41q-127 0 -167 -33q-37 -30 -37 -122q0 -117 31 -146 q32 -28 208 -71q265 -64 330 -141q55 -66 55 -279q0 -209 -88 -293q-105 -98 -391 -98q-254 0 -426 81z" />
<glyph unicode="T" horiz-adv-x="1122" d="M51 1137v227h1020v-227h-381v-1137h-258v1137h-381z" />
<glyph unicode="U" horiz-adv-x="1294" d="M143 395v969h258v-948q0 -209 246 -209t246 209v948h258v-969q0 -181 -109 -288q-129 -127 -395 -127q-267 0 -396 127q-108 107 -108 288z" />
<glyph unicode="V" horiz-adv-x="1228" d="M16 1364h268l330 -1137l330 1137h268l-408 -1364h-380z" />
<glyph unicode="W" horiz-adv-x="1933" d="M30 1364h256l260 -1057l248 1057h344l248 -1057l260 1057h256l-338 -1364h-348l-250 1098l-250 -1098h-348z" />
<glyph unicode="X" horiz-adv-x="1253" d="M51 0l428 686l-412 678h277l282 -475l283 475h277l-412 -678l428 -686h-279l-297 483l-296 -483h-279z" />
<glyph unicode="Y" horiz-adv-x="1159" d="M10 1364h274l295 -688l295 688h275l-441 -969v-395h-258v395z" />
<glyph unicode="Z" horiz-adv-x="1177" d="M133 0v217l631 928h-606v219h890v-219l-626 -926h633v-219h-922z" />
<glyph unicode="[" horiz-adv-x="671" d="M174 -258v1876h436v-205h-186v-1466h186v-205h-436z" />
<glyph unicode="\" horiz-adv-x="940" d="M92 1384h227l508 -1624h-225z" />
<glyph unicode="]" horiz-adv-x="671" d="M61 -53h186v1466h-186v205h436v-1876h-436v205z" />
<glyph unicode="^" horiz-adv-x="972" d="M92 852l305 553h174l309 -553l-155 -92l-240 436l-241 -436z" />
<glyph unicode="_" horiz-adv-x="899" d="M-2 -20h903v-132h-903v132z" />
<glyph unicode="`" horiz-adv-x="643" d="M122 1292l98 152q72 -54 152 -107q68 -45 147 -94l-92 -139q-75 42 -149 88q-63 39 -156 100z" />
<glyph unicode="a" horiz-adv-x="1005" d="M102 276q0 281 291 281h239v105q0 86 -35 116q-39 33 -155 33q-130 0 -277 -31l-30 191q155 47 342 47q229 0 320 -87q85 -80 85 -274v-657h-205l-18 68q-134 -88 -297 -88q-131 0 -198 83q-62 78 -62 213zM344 279q0 -101 100 -101q98 0 188 51v148h-184 q-104 0 -104 -98z" />
<glyph unicode="b" horiz-adv-x="1081" d="M143 14v1391l250 35v-482q61 26 134 42q84 18 161 18q301 0 301 -342v-293q0 -202 -85 -292q-105 -111 -374 -111q-84 0 -184 8q-116 9 -203 26zM393 201q60 -8 149 -8q116 0 160 47q37 40 37 135v307q0 123 -127 123q-49 0 -113 -18q-55 -15 -106 -39v-547z" />
<glyph unicode="c" horiz-adv-x="858" d="M98 362v273q0 203 98 292q99 91 332 91q133 0 244 -37l-31 -205q-98 27 -207 27q-186 0 -186 -166v-277q0 -165 186 -165q104 0 207 26l31 -205q-107 -36 -244 -36q-233 0 -332 90q-98 89 -98 292z" />
<glyph unicode="d" horiz-adv-x="1091" d="M102 326v340q0 352 330 352q130 0 266 -29v416l250 35v-1440h-199l-24 84q-145 -104 -316 -104q-307 0 -307 346zM352 319q0 -126 123 -126q125 0 223 90v495q-122 27 -221 27q-125 0 -125 -133v-353z" />
<glyph unicode="e" horiz-adv-x="985" d="M98 365v264q0 176 87 273q103 116 327 116q221 0 315 -120q76 -96 76 -282v-213h-555v-51q0 -168 194 -168q150 0 306 47l38 -188q-166 -63 -366 -63q-226 0 -329 102q-93 94 -93 283zM348 604h317v49q0 160 -151 160q-166 0 -166 -160v-49z" />
<glyph unicode="f" horiz-adv-x="743" d="M51 799v198h160v140q0 309 317 309q113 0 215 -29l-26 -192q-76 16 -144 16q-112 0 -112 -119v-125h254l-15 -198h-239v-799h-250v799h-160z" />
<glyph unicode="g" horiz-adv-x="1001" d="M81 592v94q3 162 94 244q99 88 307 88q88 0 170 -21h308v-125l-111 -30q35 -67 35 -156v-94q0 -326 -402 -326q-39 0 -57 2q-59 -37 -59 -80q0 -37 55 -43l289 -30q213 -25 213 -242q0 -167 -86 -228q-95 -69 -365 -69q-92 0 -193 13q-112 14 -192 38l31 187 q172 -43 336 -43q148 0 193 15q44 15 44 64q0 70 -94 80l-289 33q-196 23 -196 191q0 55 34 102q25 35 70 68q-135 81 -135 268zM317 602q0 -135 165 -135q168 0 168 135v76q0 139 -168 139q-165 0 -165 -139v-76z" />
<glyph unicode="h" horiz-adv-x="1116" d="M143 0v1405l250 35v-518q185 96 364 96q226 0 226 -295v-723h-250v696q0 80 -80 80q-100 0 -260 -84v-692h-250z" />
<glyph unicode="i" horiz-adv-x="536" d="M143 0v997h250v-997h-250zM143 1139v288h250v-288h-250z" />
<glyph unicode="j" horiz-adv-x="522" d="M-16 -264q112 104 132 133q24 36 24 111v1017h250v-1050q0 -94 -50 -164q-47 -67 -211 -207zM140 1139v288h250v-288h-250z" />
<glyph unicode="k" horiz-adv-x="1040" d="M143 0v1405l250 35v-1440h-250zM428 504l284 493h279l-293 -493l305 -504h-274z" />
<glyph unicode="l" horiz-adv-x="536" d="M143 0v1405l250 35v-1440h-250z" />
<glyph unicode="m" horiz-adv-x="1705" d="M143 0v997h190l25 -84q212 105 399 105q137 0 189 -107q209 107 401 107q226 0 226 -295v-723h-250v696q0 80 -80 80q-115 0 -260 -84v-692h-250v696q0 80 -80 80q-100 0 -260 -84v-692h-250z" />
<glyph unicode="n" horiz-adv-x="1116" d="M143 0v997h190l25 -84q212 105 399 105q226 0 226 -295v-723h-250v696q0 80 -80 80q-100 0 -260 -84v-692h-250z" />
<glyph unicode="o" horiz-adv-x="1064" d="M98 373v252q0 175 89 273q108 120 345 120t346 -120q88 -98 88 -273v-252q0 -176 -88 -274q-109 -119 -346 -119t-345 119q-89 98 -89 274zM348 365q0 -172 184 -172t184 172v268q0 172 -184 172t-184 -172v-268z" />
<glyph unicode="p" horiz-adv-x="1091" d="M143 -438v1435h199l24 -84q145 105 316 105q307 0 307 -346v-340q0 -352 -330 -352q-130 0 -266 28v-411zM393 219q122 -26 221 -26q125 0 125 133v352q0 127 -123 127q-126 0 -223 -90v-496z" />
<glyph unicode="q" horiz-adv-x="1081" d="M102 322v292q0 203 85 293q105 111 374 111q84 0 184 -8q116 -10 203 -27v-1386l-250 -35v477q-61 -25 -134 -41q-85 -18 -161 -18q-301 0 -301 342zM352 315q0 -122 127 -122q48 0 112 17q56 16 107 40v547q-60 8 -150 8q-115 0 -159 -47q-37 -40 -37 -135v-308z" />
<glyph unicode="r" horiz-adv-x="681" d="M143 0v997h211l16 -110q54 36 119 70q85 44 143 61l25 -230q-120 -53 -264 -145v-643h-250z" />
<glyph unicode="s" horiz-adv-x="915" d="M108 37l35 190q147 -43 297 -43q80 0 105 22q22 19 22 79q0 51 -27 74q-34 29 -147 57q-177 43 -228 106q-45 56 -45 207q0 155 80 220q84 69 293 69q166 0 299 -35l-25 -199q-151 29 -274 29q-127 0 -127 -86q0 -60 20 -77q20 -18 121 -44q207 -54 257 -108 q49 -51 49 -207q0 -159 -68 -228q-81 -83 -293 -83q-183 0 -344 57z" />
<glyph unicode="t" horiz-adv-x="727" d="M30 799v198h150v248l249 35v-283h256l-16 -198h-240v-523q0 -88 90 -88q54 0 125 21l29 -191q-92 -38 -219 -38q-274 0 -274 264v555h-150z" />
<glyph unicode="u" horiz-adv-x="1116" d="M133 274v723h250v-696q0 -80 80 -80q99 0 260 84v692h250v-997h-191l-24 84q-213 -104 -400 -104q-225 0 -225 294z" />
<glyph unicode="v" horiz-adv-x="989" d="M10 997h256l227 -757l230 757h256l-320 -997h-330z" />
<glyph unicode="w" horiz-adv-x="1441" d="M36 997h233l123 -667l199 667h260l197 -667l123 667h233l-184 -997h-289l-211 717l-211 -717h-289z" />
<glyph unicode="x" horiz-adv-x="958" d="M24 0l322 502l-316 495h250l199 -303l196 303h250l-315 -495l323 -502h-256l-198 309l-201 -309h-254z" />
<glyph unicode="y" horiz-adv-x="978" d="M10 997h256l227 -757l230 757h256l-320 -997l-133 -403h-237l124 403h-88z" />
<glyph unicode="z" horiz-adv-x="942" d="M112 0v193l444 612h-438v192h727v-192l-444 -612h459v-193h-748z" />
<glyph unicode="{" horiz-adv-x="696" d="M92 567v193h41q86 0 86 82v475q0 301 266 301h170v-201h-104q-82 0 -82 -84v-434q0 -107 -32 -161q-40 -69 -136 -74q96 -6 136 -74q32 -55 32 -162v-434q0 -84 82 -84h104v-201h-170q-266 0 -266 301v475q0 82 -86 82h-41z" />
<glyph unicode="|" horiz-adv-x="522" d="M184 -430v2048h154v-2048h-154z" />
<glyph unicode="}" horiz-adv-x="696" d="M40 -90h104q82 0 82 84v434q0 107 32 162q40 68 136 74q-96 5 -136 74q-32 54 -32 161v434q0 84 -82 84h-104v201h170q266 0 266 -301v-475q0 -82 86 -82h41v-193h-41q-86 0 -86 -82v-475q0 -301 -266 -301h-170v201z" />
<glyph unicode="~" horiz-adv-x="987" d="M71 471q27 70 44 104q23 50 49 80q59 68 167 68q38 0 84 -21l62 -35l98 -60q42 -21 74 -21q53 0 89 46q23 30 46 93l141 -78q-39 -116 -95 -176q-72 -76 -181 -76q-43 0 -90 21q-33 15 -80 47l-37 25q-21 13 -35 21q-37 21 -62 21q-51 0 -81 -39l-32 -56q-1 -4 -6 -14 l-14 -28z" />
<glyph unicode="&#xa8;" horiz-adv-x="1024" />
<glyph unicode="&#xa9;" horiz-adv-x="1568" d="M81 682q0 298 192 498q199 206 510 206q312 0 511 -206q192 -200 192 -498q0 -297 -192 -496q-199 -206 -511 -206q-311 0 -510 206q-192 199 -192 496zM280 682q0 -219 137 -363q141 -147 366 -147q226 0 367 147q137 144 137 363q0 220 -137 364q-141 148 -367 148 q-225 0 -366 -148q-137 -144 -137 -364zM501 590v192q0 260 315 260q109 0 187 -22l-27 -180q-77 18 -160 18q-100 0 -100 -92v-158q0 -94 100 -94q86 0 160 16l27 -180q-81 -22 -187 -22q-315 0 -315 262z" />
<glyph unicode="&#xad;" horiz-adv-x="761" d="M122 469v209h516v-209h-516z" />
<glyph unicode="&#xae;" horiz-adv-x="923" d="M92 1055q0 158 101 263q103 107 268 107t269 -107q101 -105 101 -263q0 -159 -101 -264q-104 -109 -269 -109t-268 109q-101 105 -101 264zM213 1055q0 -112 60 -182q66 -76 188 -76q121 0 188 76q61 70 61 182q0 111 -61 180q-67 76 -188 76q-122 0 -188 -76 q-60 -69 -60 -180zM336 893v340h141q113 0 113 -98v-33q0 -62 -45 -84l86 -125h-95l-77 111h-41v-111h-82zM418 1077h53q39 0 39 33v16q0 31 -39 31h-53v-80z" />
<glyph unicode="&#xb4;" horiz-adv-x="1024" />
<glyph unicode="&#xb6;" horiz-adv-x="1024" d="M93 1086q0 157 107.5 253t285.5 96h443v-70h-127v-1365h-82v1365h-166v-1365h-84v738q-174 8 -275.5 102.5t-101.5 245.5z" />
<glyph unicode="&#xbc;" horiz-adv-x="1757" d="M102 1171l276 152h148v-829h-186v616l-170 -84zM454 -20l613 1425l141 -62l-610 -1425zM960 166v135l299 528h254v-518h121v-145h-121v-166h-178v166h-375zM1144 311h191v361z" />
<glyph unicode="&#xbd;" horiz-adv-x="1810" d="M102 1171l276 152h148v-829h-186v616l-170 -84zM454 -20l613 1425l141 -62l-610 -1425zM1103 805q120 41 267 41q262 0 262 -223v-35q0 -73 -12 -110q-20 -58 -86 -136l-160 -182h272v-160h-528v141l84 91l110 120q94 103 118 142q15 27 15 67v37q0 78 -94 78 q-96 0 -215 -31z" />
<glyph unicode="&#xbe;" horiz-adv-x="1824" d="M153 510l14 141q110 -16 230 -16q90 0 90 74v63q0 72 -82 72h-203v141h193q77 0 77 68v63q0 76 -108 76q-84 0 -184 -14l-17 141q107 24 209 24q281 0 281 -206v-62q0 -108 -92 -155q106 -36 106 -164v-54q0 -111 -56 -162q-65 -59 -225 -59q-140 0 -233 29zM522 -20 l612 1425l141 -62l-610 -1425zM1027 166v135l300 528h253v-518h121v-145h-121v-166h-178v166h-375zM1212 311h190v361z" />
<glyph unicode="&#xc0;" horiz-adv-x="1323" d="M51 0l430 1364h361l430 -1364h-271l-88 283h-506l-86 -283h-270zM409 1622l99 152q54 -43 129 -93l141 -90l-90 -139q-167 88 -279 170zM471 506h377l-187 645z" />
<glyph unicode="&#xc1;" horiz-adv-x="1323" d="M51 0l430 1364h361l430 -1364h-271l-88 283h-506l-86 -283h-270zM471 506h377l-187 645zM561 1591q88 55 142 90q75 49 130 93l97 -152q-119 -87 -279 -170z" />
<glyph unicode="&#xc2;" horiz-adv-x="1323" d="M51 0l430 1364h361l430 -1364h-271l-88 283h-506l-86 -283h-270zM401 1567q133 89 260 186q77 -58 128 -95q63 -45 132 -91l-69 -115q-92 43 -191 100q-97 -56 -188 -100zM471 506h377l-187 645z" />
<glyph unicode="&#xc3;" horiz-adv-x="1323" d="M51 0l430 1364h361l430 -1364h-271l-88 283h-506l-86 -283h-270zM340 1556q37 70 86 112q56 48 117 48q58 0 129 -41q77 -45 106 -45q57 0 84 76l119 -61q-56 -172 -203 -172q-70 0 -131 40q-68 43 -100 43q-31 0 -60 -28q-11 -10 -24 -27l-21 -28zM471 506h377l-187 645 z" />
<glyph unicode="&#xc8;" horiz-adv-x="1101" d="M153 0v1364h836v-227h-578v-330h533v-227h-533v-353h578v-227h-836zM333 1622l99 152q54 -43 129 -93l141 -90l-90 -139q-167 88 -279 170z" />
<glyph unicode="&#xc9;" horiz-adv-x="1101" d="M153 0v1364h836v-227h-578v-330h533v-227h-533v-353h578v-227h-836zM438 1591q88 55 141 90q75 49 131 93l96 -152q-119 -87 -278 -170z" />
<glyph unicode="&#xca;" horiz-adv-x="1101" d="M153 0v1364h836v-227h-578v-330h533v-227h-533v-353h578v-227h-836zM323 1567q133 89 260 186q77 -58 128 -95q63 -45 132 -91l-69 -115q-93 43 -191 100q-97 -56 -188 -100z" />
<glyph unicode="&#xcc;" horiz-adv-x="585" d="M26 1622l98 152q54 -43 129 -93l142 -90l-90 -139q-168 88 -279 170zM163 0v1364h258v-1364h-258z" />
<glyph unicode="&#xcd;" horiz-adv-x="585" d="M163 0v1364h258v-1364h-258zM190 1591q88 55 141 90q75 49 131 93l96 -152q-119 -87 -278 -170z" />
<glyph unicode="&#xd2;" d="M122 399v566q0 187 114 295q131 124 402 124t403 -124q113 -108 113 -295v-566q0 -187 -113 -295q-132 -124 -403 -124t-402 124q-114 108 -114 295zM360 1622l98 152q54 -43 129 -93l141 -90l-90 -139q-167 88 -278 170zM380 414q0 -207 258 -207t258 207v536 q0 207 -258 207t-258 -207v-536z" />
<glyph unicode="&#xd3;" d="M122 399v566q0 187 114 295q131 124 402 124t403 -124q113 -108 113 -295v-566q0 -187 -113 -295q-132 -124 -403 -124t-402 124q-114 108 -114 295zM380 414q0 -207 258 -207t258 207v536q0 207 -258 207t-258 -207v-536zM511 1591q88 55 142 90q75 49 131 93l96 -152 q-119 -87 -279 -170z" />
<glyph unicode="&#xd4;" d="M122 399v566q0 187 114 295q131 124 402 124t403 -124q113 -108 113 -295v-566q0 -187 -113 -295q-132 -124 -403 -124t-402 124q-114 108 -114 295zM378 1567q133 89 260 186q77 -58 128 -95q63 -45 132 -91l-69 -115q-93 43 -191 100q-97 -56 -188 -100zM380 414 q0 -207 258 -207t258 207v536q0 207 -258 207t-258 -207v-536z" />
<glyph unicode="&#xd5;" d="M122 399v566q0 187 114 295q131 124 402 124t403 -124q113 -108 113 -295v-566q0 -187 -113 -295q-132 -124 -403 -124t-402 124q-114 108 -114 295zM306 1556q38 70 86 112q57 48 117 48q59 0 129 -41q77 -45 107 -45q56 0 84 76l118 -61q-56 -172 -202 -172 q-70 0 -131 40q-69 43 -101 43q-31 0 -60 -28q-11 -10 -23 -27l-21 -28zM380 414q0 -207 258 -207t258 207v536q0 207 -258 207t-258 -207v-536z" />
<glyph unicode="&#xd9;" horiz-adv-x="1294" d="M143 395v969h258v-948q0 -209 246 -209t246 209v948h258v-969q0 -181 -109 -288q-129 -127 -395 -127q-267 0 -396 127q-108 107 -108 288zM397 1622l98 152q54 -43 129 -93l142 -90l-91 -139q-167 88 -278 170z" />
<glyph unicode="&#xda;" horiz-adv-x="1294" d="M143 395v969h258v-948q0 -209 246 -209t246 209v948h258v-969q0 -181 -109 -288q-129 -127 -395 -127q-267 0 -396 127q-108 107 -108 288zM503 1591q89 55 142 90q75 49 131 93l96 -152q-119 -87 -278 -170z" />
<glyph unicode="&#xdd;" horiz-adv-x="1159" d="M10 1364h274l295 -688l295 688h275l-441 -969v-395h-258v395zM504 1591q88 55 141 90q75 49 131 93l96 -152q-119 -87 -278 -170z" />
<glyph unicode="&#xe0;" horiz-adv-x="1005" d="M102 276q0 281 291 281h239v105q0 86 -35 116q-39 33 -155 33q-130 0 -277 -31l-30 191q155 47 342 47q229 0 320 -87q85 -80 85 -274v-657h-205l-18 68q-134 -88 -297 -88q-131 0 -198 83q-62 78 -62 213zM268 1292l98 152q72 -54 152 -107q68 -45 147 -94l-92 -139 q-75 42 -149 88q-63 39 -156 100zM344 279q0 -101 100 -101q98 0 188 51v148h-184q-104 0 -104 -98z" />
<glyph unicode="&#xe1;" horiz-adv-x="1005" d="M102 276q0 281 291 281h239v105q0 86 -35 116q-39 33 -155 33q-130 0 -277 -31l-30 191q155 47 342 47q229 0 320 -87q85 -80 85 -274v-657h-205l-18 68q-134 -88 -297 -88q-131 0 -198 83q-62 78 -62 213zM344 279q0 -101 100 -101q98 0 188 51v148h-184 q-104 0 -104 -98zM344 1243q149 92 299 201l98 -152l-156 -100q-75 -46 -151 -88z" />
<glyph unicode="&#xe2;" horiz-adv-x="1005" d="M102 276q0 281 291 281h239v105q0 86 -35 116q-39 33 -155 33q-130 0 -277 -31l-30 191q155 47 342 47q229 0 320 -87q85 -80 85 -274v-657h-205l-18 68q-134 -88 -297 -88q-131 0 -198 83q-62 78 -62 213zM231 1202q138 100 287 223l142 -114q77 -61 142 -109l-77 -110 q-65 37 -112 68l-95 65q-95 -67 -207 -133zM344 279q0 -101 100 -101q98 0 188 51v148h-184q-104 0 -104 -98z" />
<glyph unicode="&#xe3;" horiz-adv-x="1005" d="M102 276q0 281 291 281h239v105q0 86 -35 116q-39 33 -155 33q-130 0 -277 -31l-30 191q155 47 342 47q229 0 320 -87q85 -80 85 -274v-657h-205l-18 68q-134 -88 -297 -88q-131 0 -198 83q-62 78 -62 213zM188 1206q38 69 86 110q57 48 117 48q63 0 129 -41 q74 -43 106 -43q57 0 84 76l119 -62q-56 -172 -203 -172q-68 0 -131 39q-63 43 -100 43q-31 0 -60 -28q-11 -10 -24 -26l-21 -28zM344 279q0 -101 100 -101q98 0 188 51v148h-184q-104 0 -104 -98z" />
<glyph unicode="&#xe8;" horiz-adv-x="985" d="M98 365v264q0 176 87 273q103 116 327 116q221 0 315 -120q76 -96 76 -282v-213h-555v-51q0 -168 194 -168q150 0 306 47l38 -188q-166 -63 -366 -63q-226 0 -329 102q-93 94 -93 283zM245 1292l99 152q72 -54 152 -107q68 -45 147 -94l-92 -139q-76 42 -150 88 q-63 39 -156 100zM348 604h317v49q0 160 -151 160q-166 0 -166 -160v-49z" />
<glyph unicode="&#xe9;" horiz-adv-x="985" d="M98 365v264q0 176 87 273q103 116 327 116q221 0 315 -120q76 -96 76 -282v-213h-555v-51q0 -168 194 -168q150 0 306 47l38 -188q-166 -63 -366 -63q-226 0 -329 102q-93 94 -93 283zM338 1243q149 92 299 201l98 -152l-156 -100q-75 -46 -151 -88zM348 604h317v49 q0 160 -151 160q-166 0 -166 -160v-49z" />
<glyph unicode="&#xea;" horiz-adv-x="985" d="M98 365v264q0 176 87 273q103 116 327 116q221 0 315 -120q76 -96 76 -282v-213h-555v-51q0 -168 194 -168q150 0 306 47l38 -188q-166 -63 -366 -63q-226 0 -329 102q-93 94 -93 283zM223 1202q138 100 287 223l142 -114q77 -61 142 -109l-78 -110q-64 37 -111 68 l-95 65q-95 -67 -207 -133zM348 604h317v49q0 160 -151 160q-166 0 -166 -160v-49z" />
<glyph unicode="&#xec;" horiz-adv-x="536" d="M-24 1292l98 152q72 -54 152 -107q68 -45 147 -94l-92 -139q-75 42 -149 88q-63 39 -156 100zM144 0v997h250v-997h-250z" />
<glyph unicode="&#xed;" horiz-adv-x="536" d="M143 0v997h250v-997h-250zM170 1243q149 92 299 201l98 -152l-156 -100q-75 -46 -151 -88z" />
<glyph unicode="&#xf2;" horiz-adv-x="1064" d="M98 373v252q0 175 89 273q108 120 345 120t346 -120q88 -98 88 -273v-252q0 -176 -88 -274q-109 -119 -346 -119t-345 119q-89 98 -89 274zM260 1292l98 152q72 -54 152 -107q68 -45 147 -94l-92 -139q-76 42 -150 88q-62 39 -155 100zM348 365q0 -172 184 -172t184 172 v268q0 172 -184 172t-184 -172v-268z" />
<glyph unicode="&#xf3;" horiz-adv-x="1064" d="M98 373v252q0 175 89 273q108 120 345 120t346 -120q88 -98 88 -273v-252q0 -176 -88 -274q-109 -119 -346 -119t-345 119q-89 98 -89 274zM348 365q0 -172 184 -172t184 172v268q0 172 -184 172t-184 -172v-268zM391 1243q149 92 299 201l98 -152l-156 -100 q-74 -46 -151 -88z" />
<glyph unicode="&#xf4;" horiz-adv-x="1064" d="M98 373v252q0 175 89 273q108 120 345 120t346 -120q88 -98 88 -273v-252q0 -176 -88 -274q-109 -119 -346 -119t-345 119q-89 98 -89 274zM248 1202q137 100 286 223l143 -114q77 -61 142 -109l-78 -110q-64 37 -112 68l-95 65q-95 -67 -207 -133zM348 365 q0 -172 184 -172t184 172v268q0 172 -184 172t-184 -172v-268z" />
<glyph unicode="&#xf5;" horiz-adv-x="1064" d="M98 373v252q0 175 89 273q108 120 345 120t346 -120q88 -98 88 -273v-252q0 -176 -88 -274q-109 -119 -346 -119t-345 119q-89 98 -89 274zM215 1206q37 69 86 110q56 48 116 48q64 0 130 -41q73 -43 106 -43q57 0 84 76l119 -62q-56 -172 -203 -172q-68 0 -131 39 q-63 43 -100 43q-31 0 -60 -28q-11 -10 -24 -26l-21 -28zM348 365q0 -172 184 -172t184 172v268q0 172 -184 172t-184 -172v-268z" />
<glyph unicode="&#xf7;" horiz-adv-x="1706" />
<glyph unicode="&#xf9;" horiz-adv-x="582" />
<glyph unicode="&#xfa;" horiz-adv-x="580" />
<glyph unicode="&#xfd;" horiz-adv-x="629" />
<glyph unicode="&#x2000;" horiz-adv-x="887" />
<glyph unicode="&#x2001;" horiz-adv-x="1774" />
<glyph unicode="&#x2002;" horiz-adv-x="887" />
<glyph unicode="&#x2003;" horiz-adv-x="1774" />
<glyph unicode="&#x2004;" horiz-adv-x="591" />
<glyph unicode="&#x2005;" horiz-adv-x="443" />
<glyph unicode="&#x2006;" horiz-adv-x="295" />
<glyph unicode="&#x2007;" horiz-adv-x="295" />
<glyph unicode="&#x2008;" horiz-adv-x="221" />
<glyph unicode="&#x2009;" horiz-adv-x="354" />
<glyph unicode="&#x200a;" horiz-adv-x="98" />
<glyph unicode="&#x2010;" horiz-adv-x="761" d="M122 469v209h516v-209h-516z" />
<glyph unicode="&#x2011;" horiz-adv-x="761" d="M122 469v209h516v-209h-516z" />
<glyph unicode="&#x2012;" horiz-adv-x="761" d="M122 469v209h516v-209h-516z" />
<glyph unicode="&#x2013;" horiz-adv-x="1269" d="M122 469v209h1024v-209h-1024z" />
<glyph unicode="&#x2014;" horiz-adv-x="2293" d="M122 469v209h2048v-209h-2048z" />
<glyph unicode="&#x2018;" horiz-adv-x="561" d="M153 868v303l160 269l114 -64l-114 -221h94v-287h-254z" />
<glyph unicode="&#x2019;" horiz-adv-x="540" d="M133 897l115 221h-95v287h254v-303l-159 -268z" />
<glyph unicode="&#x201c;" horiz-adv-x="970" d="M153 868v303l160 269l114 -64l-114 -221h94v-287h-254zM563 868v303l159 269l115 -64l-115 -221h95v-287h-254z" />
<glyph unicode="&#x201d;" horiz-adv-x="970" d="M133 897l115 221h-95v287h254v-303l-159 -268zM543 897l114 221h-94v287h254v-303l-160 -268z" />
<glyph unicode="&#x2026;" horiz-adv-x="1683" d="M153 0v287h254v-287h-254zM714 0v287h254v-287h-254zM1275 0v287h254v-287h-254z" />
<glyph unicode="&#x202f;" horiz-adv-x="354" />
<glyph unicode="&#x205f;" horiz-adv-x="443" />
<glyph unicode="&#x25fc;" horiz-adv-x="995" d="M0 0v995h995v-995h-995z" />
</font>
</defs>
</svg>
