<?xml version="1.0" encoding="UTF-8" standalone="no"?>
<svg xmlns:svg="http://www.w3.org/2000/svg" xmlns="http://www.w3.org/2000/svg" xmlns:xlink="http://www.w3.org/1999/xlink" version="1.0" width="200px" height="25px" viewBox="0 0 128 16" xml:space="preserve"><rect x="0" y="0" width="100%" height="100%" fill="none" />
<g><path fill="#0057a4" fill-opacity="1" d="M-42.7,3.84A4.16,4.16,0,0,1-38.54,8a4.16,4.16,0,0,1-4.16,4.16A4.16,4.16,0,0,1-46.86,8,4.16,4.16,0,0,1-42.7,3.84Zm12.8-.64A4.8,4.8,0,0,1-25.1,8a4.8,4.8,0,0,1-4.8,4.8A4.8,4.8,0,0,1-34.7,8,4.8,4.8,0,0,1-29.9,3.2Zm12.8-.64A5.44,5.44,0,0,1-11.66,8a5.44,5.44,0,0,1-5.44,5.44A5.44,5.44,0,0,1-22.54,8,5.44,5.44,0,0,1-17.1,2.56Z"/><animateTransform attributeName="transform" type="translate" values="23 0;36 0;49 0;62 0;74.5 0;87.5 0;100 0;113 0;125.5 0;138.5 0;151.5 0;164.5 0;178 0" calcMode="discrete" dur="1000ms" repeatCount="indefinite"/></g></svg>
