<?xml version="1.0" standalone="no"?>
<!DOCTYPE svg PUBLIC "-//W3C//DTD SVG 1.1//EN" "http://www.w3.org/Graphics/SVG/1.1/DTD/svg11.dtd" >
<svg xmlns="http://www.w3.org/2000/svg" xmlns:xlink="http://www.w3.org/1999/xlink" version="1.1">
<metadata></metadata>
<defs>
<font id="samsung_interfacebold" horiz-adv-x="1105" >
<font-face units-per-em="2048" ascent="1638" descent="-410" />
<missing-glyph horiz-adv-x="409" />
<glyph horiz-adv-x="0" />
<glyph unicode="&#xd;" horiz-adv-x="409" />
<glyph unicode=" "  horiz-adv-x="409" />
<glyph unicode="&#x09;" horiz-adv-x="409" />
<glyph unicode="&#xa0;" horiz-adv-x="409" />
<glyph unicode="!" horiz-adv-x="493" d="M80 143.5q0 -67.5 48 -117t119.5 -49.5t119 49.5t47.5 117t-47 114.5q-51 51 -119 51q-72 0 -120 -49t-48 -116.5zM115 432h270v934h-270v-934z" />
<glyph unicode="&#x22;" horiz-adv-x="833" d="M102 803h238v563h-238v-563zM494 803h237v563h-237v-563z" />
<glyph unicode="#" horiz-adv-x="1374" d="M72 422h284v-270h234v270h205v-270h231v270h287v233h-287v207h287v232h-287v272h-231v-272h-205v272h-234v-272h-284v-232h284v-207h-284v-233zM590 655v207h205v-207h-205z" />
<glyph unicode="$" d="M43 248q129 -231 434 -271v-262h187v265q166 27 268 120q117 106 117 271q0 123 -54 207q-98 145 -293 219q-86 31 -147 55q-78 33 -121 61q-68 43 -67 107q0 66 56 102.5t150 36.5q164 0 250 -131l226 117q-117 215 -385 246v295h-187v-302q-168 -29 -266 -112 q-117 -100 -117 -260q0 -111 45 -181q80 -131 264 -200q20 -8 77 -30.5t87 -35.5q106 -47 142 -76q61 -55 61 -135q0 -66 -58.5 -103.5t-156.5 -37.5q-193 0 -295 166z" />
<glyph unicode="%" horiz-adv-x="1466" d="M53 1030q0 -160 74 -255t215 -95q139 0 217 100q74 96 74 250q0 147 -72 244q-80 104 -219 104q-141 0 -217 -102q-72 -96 -72 -246zM225 1030q0 74 27 125q29 59 90 59t92 -59q27 -51 27 -125q0 -76 -27 -127q-31 -59 -92 -59t-90 59q-27 51 -27 127zM272 84l170 -98 l756 1300l-176 94zM836 342q0 -160 73.5 -255t214.5 -95q139 0 217 100q74 94 74 250q0 147 -72 244q-80 104 -219 104q-141 0 -217 -102q-72 -96 -71 -246zM1008 342q0 74 26 125q29 59 90.5 59t92.5 -59q27 -51 26 -125q0 -76 -26 -127q-31 -59 -92.5 -59t-90.5 59 q-26 51 -26 127z" />
<glyph unicode="&#x26;" horiz-adv-x="1386" d="M61 373q0 -188 132 -293q121 -102 321 -103q238 0 418 142l104 -119h330l-262 301q78 105 168 285l-223 96q-51 -113 -107 -197l-203 234q145 76 209 154.5t64 183.5q0 152 -105 239q-100 84 -264 84q-174 0 -278 -86q-115 -94 -115 -250q0 -135 123 -272 q-147 -70 -221 -156q-90 -100 -91 -243zM326 385q0 78 46 128t132 93l8 4l272 -317q-113 -96 -247 -96q-100 0 -155.5 51t-55.5 137zM496 1065q0 117 135 117q63 0 100 -34t37 -93q0 -57 -38 -93t-132 -81l-18 22q-31 35 -44.5 53.5t-26.5 48t-13 60.5z" />
<glyph unicode="'" horiz-adv-x="442" d="M102 803h238v563h-238v-563z" />
<glyph unicode="(" horiz-adv-x="638" d="M82 698q0 -285 128 -490.5t368 -324.5l81 166q-307 217 -307 649q0 430 305 648l-79 167q-240 -119 -368 -325.5t-128 -489.5z" />
<glyph unicode=")" horiz-adv-x="638" d="M-20 49l81 -166q240 119 368 325t128 490q0 283 -128 490t-368 325l-79 -167q305 -217 305 -648q0 -432 -307 -649z" />
<glyph unicode="*" horiz-adv-x="931" d="M55 1235l228 -139l-224 -135l105 -177l196 125v-215h203v215l203 -125l104 177l-219 137l226 137l-119 166l-195 -121v205h-203v-205l-188 121z" />
<glyph unicode="+" d="M47 436h393v-405h224v405h393v226h-393v411h-224v-411h-393v-226z" />
<glyph unicode="," horiz-adv-x="477" d="M6 -111l35 -106q176 47 274 147q84 84 84 183q0 68 -43 114.5t-108 46.5q-68 0 -108 -49t-40 -116q0 -92 62 -136q-50 -59 -156 -84z" />
<glyph unicode="-" horiz-adv-x="675" d="M78 436h520v226h-520v-226z" />
<glyph unicode="." horiz-adv-x="454" d="M78 124.5q0 -61.5 38.5 -104.5t112.5 -43q72 0 110 44.5t38 103.5q0 61 -39 105t-109 44q-74 0 -112.5 -44t-38.5 -105.5z" />
<glyph unicode="/" horiz-adv-x="1112" d="M0 51l207 -117l905 1526l-203 109z" />
<glyph unicode="0" d="M39 672q0 -281 113 -469q135 -226 401 -226q264 0 401 228q113 184 113 467q0 281 -113 469q-137 225 -401 225t-401 -225q-113 -188 -113 -469zM319 671.5q0 198.5 56 325.5q59 133 178 133q121 0 180 -133q53 -121 53 -325.5t-55 -321.5q-63 -137 -178 -137 q-119 0 -178 137q-56 123 -56 321.5z" />
<glyph unicode="1" d="M135 1071l127 -199l258 156v-1028h281v1343h-215z" />
<glyph unicode="2" d="M51 1049l223 -121q119 203 271 202q86 0 132 -44t46 -123q0 -78 -32 -142.5t-97 -148.5q-100 -127 -229 -256q-84 -84 -248 -256v-160h927v231h-526q53 57 148 146q90 88 151 164q188 229 189 440q0 180 -127 287q-117 98 -306 98q-186 0 -327 -94q-121 -82 -195 -223z " />
<glyph unicode="3" d="M29 262q166 -285 512 -285q207 0 342 105q150 115 149 313q0 227 -198 299q176 66 176 307q0 166 -129 269q-121 96 -303 96q-346 0 -506 -287l219 -125q94 174 250 174q92 0 142 -37.5t50 -105.5q0 -86 -70.5 -139t-203.5 -64v-207q141 -2 219 -51t78 -141 q0 -82 -61.5 -129t-155.5 -47q-86 0 -152 37q-80 43 -139 143z" />
<glyph unicode="4" d="M55 342h598v-342h269v342h141v236h-141v765h-222l-645 -798v-203zM369 578l284 360v-360h-284z" />
<glyph unicode="5" d="M78 233q82 -135 213 -198q113 -57 256 -58q195 0 327 115q145 121 146 334q0 240 -170 356q-158 106 -434 107h-8v225h548v229h-792v-671h176q221 0 322 -68q86 -57 86 -190q0 -96 -58.5 -150.5t-146.5 -54.5q-78 0 -134.5 36t-111.5 122z" />
<glyph unicode="6" d="M100 481q0 -248 144 -385q125 -119 321 -119q217 0 342 140q113 129 113 319.5t-107 313.5q-109 125 -288 124q-111 0 -191 -51q53 125 178 211t289 123l-57 209q-354 -57 -559 -332q-184 -246 -185 -553zM381 465q0 80 14 133q84 47 166 47t132 -62.5t50 -168.5 q0 -96 -47 -149.5t-127 -53.5q-78 0 -129 61q-59 70 -59 193z" />
<glyph unicode="7" d="M61 1114h656l-500 -1114h289l532 1180v163h-977v-229z" />
<glyph unicode="8" d="M84 379q0 -166 123 -277q131 -125 346 -125q213 0 348 125q121 115 121 279q0 94 -45 180t-129 133q74 51 113.5 131t39.5 160q0 160 -112 266q-125 115 -334 115q-199 0 -326 -117q-123 -117 -123 -268q0 -176 154 -289q-82 -47 -129 -133t-47 -180zM356 393 q0 78 53.5 132.5t141.5 54.5q90 0 145.5 -54.5t55.5 -132.5q0 -82 -51.5 -133t-145.5 -51t-146.5 51t-52.5 133zM379 969q0 70 47 121q51 55 127 55q78 0 129 -55q47 -51 47 -121t-49 -123t-127 -53q-76 0 -125 51t-49 125z" />
<glyph unicode="9" d="M90 920q0 -176 103 -302q109 -135 292 -135q113 0 193 54q-57 -127 -183 -220.5t-286 -128.5l57 -211q352 61 559 326q184 240 185 553q0 250 -144 389q-127 121 -321 121q-215 0 -340 -139q-115 -127 -115 -307zM369 922q0 86 45 145q49 63 129 63q74 0 125 -59 q61 -76 61 -201q0 -72 -14 -118q-66 -41 -166 -41q-82 0 -133 67q-47 59 -47 144z" />
<glyph unicode=":" horiz-adv-x="454" d="M78 124.5q0 -61.5 38.5 -104.5t112.5 -43q72 0 110 44.5t38 103.5q0 61 -39 105t-109 44q-74 0 -112.5 -44t-38.5 -105.5zM78 837.5q0 -61.5 38.5 -104.5t112.5 -43q72 0 110 44t38 104q0 61 -39 105t-109 44q-74 0 -112.5 -44t-38.5 -105.5z" />
<glyph unicode=";" horiz-adv-x="477" d="M6 -111l35 -106q176 47 274 147q84 84 84 183q0 68 -43 114.5t-108 46.5q-68 0 -108 -49t-40 -116q0 -92 62 -136q-50 -59 -156 -84zM109 837.5q0 -61.5 38.5 -104.5t112.5 -43q72 0 110 44t38 104q0 61 -39 105t-109 44q-74 0 -112.5 -44t-38.5 -105.5z" />
<glyph unicode="&#x3c;" d="M47 465l959 -334l71 229l-559 193l539 174l-70 225l-940 -317v-170z" />
<glyph unicode="=" d="M47 217h1010v225h-1010v-225zM47 657h1010v226h-1010v-226z" />
<glyph unicode="&#x3e;" d="M29 360l71 -229l959 334v170l-940 317l-70 -225l539 -174z" />
<glyph unicode="?" horiz-adv-x="864" d="M-25 1139l197 -131q111 166 244 166q80 0 123 -39t43 -111q0 -37 -15 -66q-29 -55 -92 -116q-31 -29 -59 -60q-68 -80 -88 -110q-47 -76 -47 -154v-86h260v49q0 90 139 221q172 166 172 314q0 176 -109.5 277.5t-310.5 101.5q-293 0 -457 -256zM244 143q0 -72 51 -118 q47 -48 115 -48q72 0 120 49.5t48 117t-48.5 116.5t-119.5 49q-68 0 -119 -51q-47 -47 -47 -115z" />
<glyph unicode="@" horiz-adv-x="1695" d="M61 385q0 -360 226 -553q213 -186 592 -186q289 0 553 123l-80 172q-233 -102 -459 -103q-274 0 -436 131q-172 139 -172 408q0 309 184 497q180 180 457 181q231 0 364 -122t133 -347q0 -164 -59 -271q-70 -127 -190 -127q-51 0 -52 52q0 28 8 53l158 534 q-154 43 -307 43q-258 0 -414 -161q-143 -154 -143 -377q0 -156 79 -249t224 -93q127 0 219 80q57 -80 176 -80q227 0 377 186q135 172 135 422q0 301 -188 473q-190 172 -500 172q-385 0 -633 -235q-252 -240 -252 -623zM651 324q0 162 82 257t228 95q24 0 53 -4l-109 -367 q-12 -53 -14 -80q-59 -37 -125 -37q-115 0 -115 136z" />
<glyph unicode="A" horiz-adv-x="1325" d="M0 0h279l112 274h527l110 -274h297l-569 1366h-195zM475 506l176 448l176 -448h-352z" />
<glyph unicode="B" horiz-adv-x="1253" d="M158 0h577q209 0 332 96q135 102 135 289q0 244 -256 338q92 55 135 120.5t43 162.5q0 174 -135 270q-127 90 -346 90h-485v-1366zM430 233v351h213q127 0 195 -33q84 -43 84 -145q0 -98 -84 -142q-63 -31 -195 -31h-213zM430 807v326h154q131 0 188 -27q76 -39 76 -137 q0 -162 -264 -162h-154z" />
<glyph unicode="C" horiz-adv-x="1245" d="M92 678q0 -332 170 -520q162 -186 440 -187q170 0 287 69.5t207 231.5l-215 131q-47 -102 -110.5 -145t-157.5 -43q-145 0 -242 125q-98 127 -98 338q0 223 100 358q86 117 227 117q186 0 265 -201l223 123q-143 319 -494 320q-256 0 -418 -174q-184 -199 -184 -543z" />
<glyph unicode="D" horiz-adv-x="1357" d="M158 0h415q195 0 340 70q170 80 267 256q86 162 86 364q0 205 -86 367q-90 168 -265 248q-137 61 -352 61h-405v-1366zM434 246v874h117q162 0 258 -61q176 -109 176 -381q0 -117 -47 -223q-94 -209 -393 -209h-111z" />
<glyph unicode="E" horiz-adv-x="1200" d="M158 0h985v248h-709v311h547v248h-547v311h662v248h-938v-1366z" />
<glyph unicode="F" horiz-adv-x="1097" d="M158 0h276v551h520v244h-520v323h653v248h-929v-1366z" />
<glyph unicode="G" horiz-adv-x="1284" d="M92 678q0 -326 174 -520q164 -186 439 -187q291 0 497 90v658h-481v-236h223v-245q-78 -23 -209 -23q-154 0 -256 127q-106 129 -106 336q0 225 102 358q90 117 225 117q170 0 258 -182l224 125q-74 154 -189.5 226.5t-298.5 72.5q-258 0 -420 -174q-182 -197 -182 -543z " />
<glyph unicode="H" horiz-adv-x="1411" d="M158 0h276v578h543v-578h276v1366h-276v-541h-543v541h-276v-1366z" />
<glyph unicode="I" horiz-adv-x="591" d="M158 0h276v1366h-276v-1366z" />
<glyph unicode="J" horiz-adv-x="608" d="M-88 -59l51 -234q233 39 354 137q133 109 134 293v1229h-277v-1184q0 -96 -61.5 -154t-200.5 -87z" />
<glyph unicode="K" horiz-adv-x="1312" d="M158 0h276v520l127 127l440 -647h312l-563 834l536 532h-328l-524 -522v522h-276v-1366z" />
<glyph unicode="L" horiz-adv-x="1132" d="M158 0h964v248h-688v1118h-276v-1366z" />
<glyph unicode="M" horiz-adv-x="1650" d="M158 0h272v772l363 -780h98l330 772v-764h272v1366h-285l-364 -909l-404 909h-282v-1366z" />
<glyph unicode="N" horiz-adv-x="1423" d="M158 0h272v903l594 -903h242v1366h-273v-852l-553 852h-282v-1366z" />
<glyph unicode="O" horiz-adv-x="1447" d="M92 684q0 -287 156 -487q174 -226 473 -226q297 0 477 226q158 197 158 487.5t-158 486.5q-178 223 -477 224q-297 0 -473 -224q-156 -199 -156 -487zM371 684.5q0 192.5 90 325.5q96 143 260 143q168 0 264 -143q90 -133 90 -325.5t-90 -326.5q-96 -143 -264 -143 q-164 0 -260 143q-90 134 -90 326.5z" />
<glyph unicode="P" horiz-adv-x="1214" d="M158 0h270v492h203q272 0 409 141q113 115 113 313q0 190 -121 299q-137 121 -416 121h-458v-1366zM428 727v403h176q150 0 213.5 -50t63.5 -150q0 -203 -277 -203h-176z" />
<glyph unicode="Q" horiz-adv-x="1447" d="M92 684q0 -242 119 -432q127 -205 354 -260q51 -137 186.5 -208t383.5 -79l32 219q-221 0 -260 74q211 61 336 268q113 188 113 418q0 291 -158 487q-178 223 -477 224q-297 0 -473 -224q-156 -199 -156 -487zM371 684q0 193 90 326q96 143 260 143q168 0 264 -143 q90 -133 90 -325.5t-90 -326.5q-96 -143 -264 -143q-174 0 -270 160q-80 131 -80 309z" />
<glyph unicode="R" horiz-adv-x="1275" d="M158 0h270v512h150l337 -512h314l-352 532q319 94 319 422q0 217 -158 326q-125 86 -333 86h-547v-1366zM428 748v380h215q152 0 216.5 -46t64.5 -146q0 -96 -64.5 -142t-216.5 -46h-215z" />
<glyph unicode="S" horiz-adv-x="1138" d="M53 223q152 -252 522 -252q207 0 345 99q151 110 151 297q0 178 -108 282q-94 92 -316 170q-152 53 -215 99.5t-63 115.5q0 61 55 97t158 36q201 0 282 -151l199 141q-70 109 -168 166q-127 72 -311 72q-236 0 -361 -107q-121 -100 -121 -274q0 -160 105 -258 q80 -78 278 -148q190 -66 252 -116q63 -53 64 -138q0 -68 -62.5 -108.5t-167.5 -40.5h-3q-209 0 -304 157z" />
<glyph unicode="T" horiz-adv-x="1112" d="M10 1118h408v-1118h278v1118h406v248h-1092v-248z" />
<glyph unicode="U" horiz-adv-x="1406" d="M150 469q0 -225 161 -365q152 -133 391 -133q238 0 394 133q162 139 161 365v897h-276v-870q0 -127 -72.5 -204t-204 -77t-205 77t-73.5 204v870h-276v-897z" />
<glyph unicode="V" horiz-adv-x="1298" d="M0 1366l604 -1366h170l524 1366h-272l-340 -938l-391 938h-295z" />
<glyph unicode="W" horiz-adv-x="1593" d="M0 1366l311 -1366h174l310 915l311 -915h174l313 1366h-274l-172 -811l-266 811h-170l-267 -811l-168 811h-276z" />
<glyph unicode="X" horiz-adv-x="1185" d="M0 0h309l283 471l285 -471h309l-445 711l412 655h-311l-250 -416l-250 416h-311l413 -655z" />
<glyph unicode="Y" horiz-adv-x="1189" d="M0 1366l461 -817v-549h276v549l453 817h-303l-283 -543l-297 543h-307z" />
<glyph unicode="Z" horiz-adv-x="1175" d="M70 0h1046v248h-702l690 885v233h-977v-248h639l-696 -893v-225z" />
<glyph unicode="[" horiz-adv-x="614" d="M135 -293h479v225h-223v1350h223v225h-479v-1800z" />
<glyph unicode="\" horiz-adv-x="1112" d="M0 1460l905 -1526l207 117l-909 1518z" />
<glyph unicode="]" horiz-adv-x="614" d="M0 -68v-225h479v1800h-479v-225h225v-1350h-225z" />
<glyph unicode="^" d="M113 659l247 -79l191 454l205 -436l239 92l-346 676h-198z" />
<glyph unicode="_" horiz-adv-x="1024" d="M0 -307v-185h1024v185h-1024z" />
<glyph unicode="`" horiz-adv-x="905" d="M182 1331l469 -229l72 110l-412 289z" />
<glyph unicode="a" horiz-adv-x="1052" d="M174 61q100 -84 238 -84q164 0 256 97l12 -74h246v635q0 193 -109 289q-100 88 -282 88q-104 0 -197 -33q-123 -43 -193 -133l183 -127q76 88 184 88q143 0 143 -133v-33q-252 -18 -381 -72q-204 -86 -204 -276q0 -143 104 -232zM330 297q0 94 106 131q53 19 221 33v-201 q-82 -72 -182 -72q-72 0 -108.5 29t-36.5 80z" />
<glyph unicode="b" horiz-adv-x="1132" d="M133 61q205 -84 391 -84q233 0 377 125q160 139 160 410q0 205 -119 344q-135 156 -367 156q-84 0 -174 -23v406l-268 -41v-1293zM401 211v563q78 23 131 23q115 0 191 -72q78 -78 78 -219q0 -152 -78 -232.5t-209 -80.5q-56 0 -113 18z" />
<glyph unicode="c" horiz-adv-x="997" d="M72 489q0 -240 147 -380q135 -131 334 -132q301 1 422 261l-201 108q-41 -76 -90 -112.5t-125 -36.5q-102 0 -163.5 78.5t-61.5 218.5q0 154 65 231q59 74 144 74q141 0 205 -178l210 104q-43 121 -137 195q-117 92 -284 92q-195 0 -322 -129q-143 -147 -143 -394z" />
<glyph unicode="d" horiz-adv-x="1140" d="M72 498q0 -223 114 -367q121 -154 328 -154q143 0 238 99l12 -76h244v1395l-267 -41v-371q-98 29 -176 29q-236 0 -370 -160q-123 -147 -123 -354zM332 504q0 115 65 203q70 90 201 90q61 0 143 -29v-487q-23 -35 -74 -60.5t-100 -25.5q-117 0 -180 92q-55 78 -55 217z " />
<glyph unicode="e" horiz-adv-x="1075" d="M72 494q0 -250 145 -390q129 -127 340 -127q154 0 262.5 54.5t192.5 179.5l-199 121q-57 -82 -113.5 -109.5t-134.5 -27.5q-90 0 -147 55q-66 63 -78 180h674q-4 287 -127 434.5t-336 147.5q-203 0 -338 -135q-141 -141 -141 -383zM346 612q12 88 72.5 142.5t132.5 54.5 t125 -49q57 -54 65 -148h-395z" />
<glyph unicode="f" horiz-adv-x="686" d="M33 782h137v-782h268v782h205l33 205h-240v33q0 151 119 151h2q94 0 182 -41l78 205q-123 59 -303 60q-156 0 -244 -88q-100 -100 -100 -285v-35h-137v-205z" />
<glyph unicode="g" horiz-adv-x="1134" d="M72 506q0 -225 143 -365q141 -141 371 -141q92 0 147 20v-49q0 -176 -190 -176q-152 1 -258 101l-174 -138q147 -172 432 -172q238 0 348 108.5t110 346.5v938q-16 2 -182 22q-113 10 -190 11q-272 0 -422 -154q-135 -135 -135 -352zM332 506q0 137 78.5 215t220.5 78 q51 0 102 -8v-549q-35 -23 -110 -23q-135 0 -213 77t-78 210z" />
<glyph unicode="h" horiz-adv-x="1181" d="M133 0h268v702q109 96 220 97q98 0 137 -62q28 -49 28 -162v-8v-567h269v586q0 201 -86 311q-92 115 -285 115q-162 0 -283 -90v473l-268 -41v-1354z" />
<glyph unicode="i" horiz-adv-x="532" d="M106 1245q0 -59 42 -102t118 -43t118 43t42 102q0 57 -42 100.5t-118 43.5t-118 -43t-42 -101zM133 0h266v1001l-266 -40v-961z" />
<glyph unicode="j" horiz-adv-x="552" d="M-16 -238l147 -163q145 76 219 180q70 102 70 260v962l-266 -40v-922q0 -94 -33 -150q-31 -51 -137 -127zM129 1245q0 -59 42 -102t118 -43q74 0 115.5 43t41.5 102q0 57 -42 100.5t-115 43.5q-76 0 -118 -43t-42 -101z" />
<glyph unicode="k" horiz-adv-x="1081" d="M133 0h268v420l97 90l282 -510h301l-389 682l340 305h-321l-310 -278v686l-268 -41v-1354z" />
<glyph unicode="l" horiz-adv-x="534" d="M133 0h268v1395l-268 -41v-1354z" />
<glyph unicode="m" horiz-adv-x="1798" d="M133 0h268v702q96 96 205 97q88 0 129 -64q35 -57 35 -155v-580h266v596q0 55 -8 96q39 45 98.5 76t114.5 31q88 0 129 -64q35 -57 35 -155v-580h266v596q0 201 -97 308.5t-290 107.5q-190 0 -332 -125q-102 125 -303 125q-147 0 -260 -99l-12 86l-244 -36v-963z" />
<glyph unicode="n" horiz-adv-x="1189" d="M133 0h268v700q98 98 217 99q109 0 146 -60q31 -51 31 -176v-563h268v584q0 428 -373 428q-174 0 -301 -103l-14 90l-242 -36v-963z" />
<glyph unicode="o" horiz-adv-x="1138" d="M72 498q0 -211 125 -357q137 -164 372.5 -164t374.5 164q123 147 123 357q0 207 -123 354q-139 160 -375 160q-238 0 -372 -160q-125 -145 -125 -354zM334 498q0 133 61 213q63 86 174 86t176 -86q59 -82 60 -213q0 -129 -60 -213q-66 -88 -176 -88q-113 0 -174 88 q-61 82 -61 213z" />
<glyph unicode="p" horiz-adv-x="1134" d="M133 -387h268v393q68 -29 138 -29q254 0 399 166q125 143 125 359q0 231 -107 364q-115 145 -323 146q-141 0 -244 -99l-14 86l-242 -36v-1350zM399 227v478q27 39 76 66.5t103 27.5q117 0 174 -90q51 -82 51 -215q0 -123 -66 -203q-72 -92 -213 -92h-4q-53 0 -121 28z " />
<glyph unicode="q" horiz-adv-x="1134" d="M72 496q0 -223 131 -363q145 -156 383 -156q76 0 147 19v-383h268v1366q-248 33 -372 33q-274 0 -422 -158q-135 -141 -135 -358zM332 496q0 127 71 211q82 92 228 92q51 0 102 -8v-572q-37 -22 -104 -22h-6q-135 0 -217 88q-74 80 -74 211z" />
<glyph unicode="r" horiz-adv-x="759" d="M133 0h268v692q66 88 177 88q61 0 147 -35l47 232q-92 31 -154 31q-131 0 -229 -107l-14 98l-242 -36v-963z" />
<glyph unicode="s" horiz-adv-x="993" d="M59 211q133 -233 453 -234q188 0 301 76q123 80 123 234q0 139 -100 215q-90 68 -281 106q-113 23 -152 43q-41 23 -41 68q0 92 152 92q143 0 229 -115l189 129q-127 186 -418 187q-188 0 -295 -82q-110 -83 -110 -213q0 -135 94 -209q76 -61 252 -100q137 -27 186 -60 q45 -29 45 -74q0 -96 -162 -96q-184 0 -266 154z" />
<glyph unicode="t" horiz-adv-x="753" d="M31 782h145v-542q0 -133 86 -203q72 -59 187 -60q150 0 301 101l-97 182q-80 -63 -147 -63q-25 0 -44.5 19.5t-19.5 62.5v503h224l32 205h-256v270l-266 -40v-230h-145v-205z" />
<glyph unicode="u" horiz-adv-x="1185" d="M127 399q0 -197 90 -305q95 -114 280 -114h3q172 0 297 98l10 -78h246v987h-269v-704q-111 -90 -217 -90q-102 0 -139 61q-33 55 -33 172v575l-268 -40v-562z" />
<glyph unicode="v" horiz-adv-x="1091" d="M0 987l436 -987h232l424 987h-273l-262 -655l-272 655h-285z" />
<glyph unicode="w" horiz-adv-x="1468" d="M0 987l352 -987h195l186 571l189 -571h194l352 987h-278l-178 -594l-197 594h-164l-194 -594l-178 594h-279z" />
<glyph unicode="x" horiz-adv-x="1046" d="M0 987l377 -500l-371 -487h279l231 311l229 -311h302l-377 506l360 481h-274l-228 -305l-227 305h-301z" />
<glyph unicode="y" horiz-adv-x="1058" d="M0 987l410 -946l-76 -170q-33 -72 -94 -72q-70 0 -142 35l-84 -190q129 -55 250 -56q209 0 283 179l512 1220h-271l-245 -674l-258 674h-285z" />
<glyph unicode="z" horiz-adv-x="1040" d="M74 0h872l33 203h-590l557 592v192h-850v-205h543l-565 -600v-182z" />
<glyph unicode="{" horiz-adv-x="600" d="M35 608q92 -12 133 -51t41 -115v-262q0 -156 89.5 -230.5t279.5 -76.5l22 176q-90 2 -123 51q-25 37 -24 117v225q0 174 -146 242q145 59 146 242v221q0 82 24 119q33 51 123 53l-22 178q-190 -4 -279.5 -77.5t-89.5 -229.5v-264q0 -76 -41 -115t-133 -51v-152z" />
<glyph unicode="|" horiz-adv-x="563" d="M154 -152h256v1663h-256v-1663z" />
<glyph unicode="}" horiz-adv-x="600" d="M0 49l23 -176q190 2 279 77t89 230v262q0 76 41 115t133 51v152q-92 12 -133 51t-41 115v264q0 156 -89 229.5t-279 77.5l-23 -178q92 -2 125 -53q23 -33 22 -119v-221q0 -182 146 -242q-145 -68 -146 -242v-225q0 -82 -22 -117q-33 -49 -125 -51z" />
<glyph unicode="~" d="M63 1036h236q18 106 104 107q49 0 148 -56q98 -57 201 -57q119 0 194 70q84 78 96 235h-235q-10 -68 -38 -91t-69 -23q-33 0 -63 18q-31 14 -68 37q-102 55 -202 55q-257 0 -304 -295z" />
<glyph unicode="&#xa1;" horiz-adv-x="493" d="M80 845.5q0 -67.5 48 -116.5t119.5 -49t119 49t47.5 116.5t-47 115.5q-51 51 -119 51q-72 0 -120 -49.5t-48 -117zM115 -379h270v936h-270v-936z" />
<glyph unicode="&#xa2;" d="M170 678q0 -141 86 -252q94 -121 258 -147v-302h172v297q115 14 232 80l-87 183q-80 -39 -120 -50q-49 -12 -88 -12q-96 0 -152 66q-49 57 -49 135q0 86 43 143q51 66 149 66q94 0 215 -84l109 182q-111 92 -252 100v283h-172v-285q-166 -23 -260 -143q-84 -109 -84 -260 z" />
<glyph unicode="&#xa3;" d="M70 504h143v-504h821v248h-559v256h408v223h-408v201q0 111 55 166q43 45 105 45q102 0 170 -142l239 113q-106 270 -409 270q-180 0 -297 -112q-125 -125 -125 -328v-213h-143v-223z" />
<glyph unicode="&#xa4;" horiz-adv-x="1511" d="M0 199l176 -170l326 309q111 -59 246 -59q143 0 258 61l329 -311l176 170l-333 315q63 106 63 246q0 129 -53 227l323 303l-184 166l-305 -291q-117 70 -270 70q-150 0 -265 -68l-303 289l-184 -166l322 -303q-57 -106 -58 -233q0 -131 64 -244zM508 756q0 109 67 182 q63 74 177 74q111 0 178 -74t67 -182q0 -106 -67.5 -180t-177.5 -74q-106 0 -177 76q-67 72 -67 178z" />
<glyph unicode="&#xa5;" d="M10 1356l350 -682h-264v-137h324v-119h-324v-137h324v-281h276v281h324v137h-324v119h324v137h-266l342 682h-299l-232 -590l-248 590h-307z" />
<glyph unicode="&#xa6;" horiz-adv-x="563" d="M154 -152h256v631h-256v-631zM154 879h256v632h-256v-632z" />
<glyph unicode="&#xa7;" d="M158 -129q154 -166 379 -166q150 0 256 78q117 82 116 221q0 150 -139 260q176 86 176 250q0 63 -18 115q-35 96 -113 174q-82 78 -158 131q-55 39 -73 53q-72 57 -72 121q0 31 26.5 51.5t65.5 20.5q92 0 180 -88l164 147q-135 154 -346 154q-156 0 -250 -75t-94 -204 q0 -143 139 -264q-92 -37 -152.5 -107.5t-60.5 -160.5q0 -68 21 -117q39 -96 129 -168q92 -76 166 -119q55 -39 73 -53q74 -59 74 -115q0 -39 -31.5 -65.5t-91.5 -26.5q-115 0 -213 113zM438 582q0 98 99 141q164 -123 163 -211q0 -94 -77 -131q-101 65 -142 106 q-43 45 -43 95z" />
<glyph unicode="&#xa8;" horiz-adv-x="905" d="M127 1292q0 -59 38 -102t95 -43q55 0 94 44t39 101q0 59 -38 102.5t-95 43.5q-59 0 -96 -42t-37 -104zM512 1292q0 -57 39 -101t94 -44q57 0 95 43t38 102q0 61 -36.5 103.5t-96.5 42.5q-57 0 -95 -43t-38 -103z" />
<glyph unicode="&#xa9;" horiz-adv-x="1587" d="M90 608q0 -334 199 -549q197 -217 506 -217q332 0 526 240q176 217 176 526q0 307 -176 525q-193 238 -526 237q-330 0 -527 -237q-178 -215 -178 -525zM264 608q0 248 135 416q143 184 396 184q248 0 395 -184q133 -170 133 -416q0 -248 -133 -418q-147 -184 -395 -184 q-252 0 -396 184q-135 168 -135 418zM395 604q0 -217 115 -342q113 -125 301 -125q221 0 346 205l-160 94q-72 -121 -180 -121q-90 0 -151.5 79t-61.5 210q0 139 64 223q53 72 139 72q106 0 178 -129l164 88q-100 217 -346 217q-174 0 -283 -114q-125 -129 -125 -357z" />
<glyph unicode="&#xaa;" horiz-adv-x="759" d="M61 834q0 -104 74 -168q68 -61 174 -62q113 0 197 68l8 -54h184v461q0 143 -77.5 212t-212.5 69q-80 0 -148 -25q-88 -33 -143 -100l139 -96q61 66 139 65q41 0 70 -26.5t29 -67.5v-20q-186 -14 -279 -52q-154 -61 -154 -204zM260 836q0 53 66 79q51 21 170 31v-123 q-66 -61 -140 -61q-47 0 -71.5 21.5t-24.5 52.5z" />
<glyph unicode="&#xab;" horiz-adv-x="1187" d="M31 512l465 -420l163 156l-321 276l293 283l-176 139zM510 512l465 -420l164 156l-322 276l293 283l-176 139z" />
<glyph unicode="&#xac;" d="M43 731h776v-532h234v755h-1010v-223z" />
<glyph unicode="&#xad;" horiz-adv-x="675" d="M78 436h520v226h-520v-226z" />
<glyph unicode="&#xae;" horiz-adv-x="1589" d="M92 608q0 -307 178 -526q195 -240 525 -240q332 0 526 240q176 217 176 526q0 307 -176 525q-193 238 -524 237q-330 0 -527 -237q-178 -215 -178 -525zM264 608q0 248 135 416q147 184 398 184q248 0 395 -184q133 -170 133 -416q0 -250 -135 -418q-147 -184 -393 -184 q-248 0 -398 184q-135 166 -135 418zM502 209h190v301h94l158 -301h203l-174 323q166 57 166 246q0 262 -326 262h-311v-831zM692 684v182h115q78 0 106.5 -16t28.5 -66q0 -59 -31.5 -79.5t-111.5 -20.5h-107z" />
<glyph unicode="&#xaf;" horiz-adv-x="905" d="M82 1184h743v182h-743v-182z" />
<glyph unicode="&#xb0;" horiz-adv-x="811" d="M82 1061q0 -143 102 -230q95 -77 224 -77q123 0 219 80q102 82 102 225q0 141 -102 227q-96 80 -221 80q-123 0 -220 -78q-104 -88 -104 -227zM295 1059q0 61 32.5 95t78 34t78 -34t32.5 -95q0 -59 -32.5 -93t-78 -34t-78 34t-32.5 93z" />
<glyph unicode="&#xb1;" d="M49 0h1010v225h-1010v-225zM49 729h393v-405h224v405h393v225h-393v412h-224v-412h-393v-225z" />
<glyph unicode="&#xb2;" horiz-adv-x="645" d="M41 1180l160 -82q35 72 65 94q29 20 56 20q59 0 59 -63q0 -49 -59 -113q-55 -61 -113 -112l-129 -117v-117h528v170h-225q66 49 119 109q90 96 90 202q0 100 -65.5 153.5t-170.5 53.5q-209 0 -315 -198z" />
<glyph unicode="&#xb3;" horiz-adv-x="645" d="M33 844q106 -164 301 -164q113 0 188 51q88 59 88 168q0 98 -90 148q78 49 78 145q0 88 -76 141q-70 45 -168 45q-201 0 -307 -164l158 -84q55 88 125 89q68 0 67 -52q0 -10 -2 -16q-4 -23 -45 -37q-14 -6 -63 -10v-133q74 0 102 -25q18 -16 19 -41q0 -66 -80 -65 q-78 0 -135 88z" />
<glyph unicode="&#xb4;" horiz-adv-x="905" d="M182 1212l74 -110l467 229l-129 170z" />
<glyph unicode="&#xb5;" horiz-adv-x="1236" d="M133 -387h250v440q72 -76 207 -76q178 0 274 134q37 -133 191 -134q88 0 162 31l-29 180l-35 -6q-20 -4 -31 -4q-57 0 -57 94v715h-266v-536v-31q0 -27 -2 -41q-4 -55 -15 -78q-47 -115 -196 -115q-92 0 -138.5 55.5t-46.5 145.5v614l-268 -40v-1348z" />
<glyph unicode="&#xb6;" horiz-adv-x="1085" d="M33 938q0 -164 104 -281q109 -127 273 -141v-813h219v1663h-164q-188 0 -311 -129q-121 -127 -121 -299zM727 -297h223v1663h-223v-1663z" />
<glyph unicode="&#xb7;" horiz-adv-x="667" d="M184 753.5q0 -61.5 39 -104.5t113 -43q72 0 109.5 44t37.5 104q0 61 -38.5 105t-108.5 44q-74 0 -113 -44t-39 -105.5z" />
<glyph unicode="&#xb8;" horiz-adv-x="905" d="M221 -348q88 -39 193 -39q129 0 200.5 49t71.5 139q0 53 -42 88t-99 43l104 144h-196l-142 -201q61 -4 119 -16q59 -18 59 -47q0 -49 -73 -50q-76 0 -144 27z" />
<glyph unicode="&#xb9;" horiz-adv-x="645" d="M111 1210l82 -147l139 74v-447h200v672h-151z" />
<glyph unicode="&#xba;" horiz-adv-x="845" d="M61 983q0 -152 91 -260q98 -119 270 -119q174 0 272 121q90 109 90 258.5t-90 257.5q-98 119 -272 119q-172 0 -270 -119q-90 -109 -91 -258zM276 983q0 90 38 146.5t110 56.5t108.5 -56.5t36.5 -146.5q0 -86 -37.5 -142.5t-109.5 -56.5t-109 56.5t-37 142.5z" />
<glyph unicode="&#xbb;" horiz-adv-x="1187" d="M49 248l164 -156l465 420l-424 434l-176 -139l293 -283zM528 248l164 -156l465 420l-424 434l-176 -139l293 -283z" />
<glyph unicode="&#xbc;" horiz-adv-x="1466" d="M111 1210l82 -147l139 74v-447h200v672h-151zM291 84l170 -98l756 1300l-177 94zM846 147h313v-145h199v145h84v144h-84v383h-182l-330 -377v-150zM1008 291l151 176v-176h-151z" />
<glyph unicode="&#xbd;" horiz-adv-x="1466" d="M111 1210l82 -147l139 74v-447h200v672h-151zM270 84l170 -98l756 1300l-176 94zM862 492l160 -82q35 72 65 94q29 20 56 20q59 0 59 -63q0 -49 -59 -113q-55 -61 -113 -112l-129 -117v-117h529v170h-226q66 49 119 109q90 96 90 202q0 100 -65.5 153.5t-169.5 53.5 q-209 0 -316 -198z" />
<glyph unicode="&#xbe;" horiz-adv-x="1466" d="M33 844q106 -164 301 -164q113 0 188 51q88 59 88 168q0 98 -90 148q78 49 78 145q0 88 -76 141q-70 45 -168 45q-201 0 -307 -164l158 -84q55 88 125 89q68 0 67 -52q0 -10 -2 -16q-4 -23 -45 -37q-14 -6 -63 -10v-133q74 0 102 -25q18 -16 19 -41q0 -66 -80 -65 q-78 0 -135 88zM311 84l170 -98l756 1300l-176 94zM846 147h313v-145h199v145h84v144h-84v383h-182l-330 -377v-150zM1008 291l151 176v-176h-151z" />
<glyph unicode="&#xbf;" horiz-adv-x="864" d="M12 -27q0 -176 109.5 -277.5t310.5 -101.5q289 0 457 256l-197 132q-111 -166 -246 -166q-78 0 -120.5 39t-42.5 110q0 41 14 70q25 53 92 115l60 57q53 53 88 112q45 82 45 152v86h-258v-49q0 -37 -21.5 -78t-46.5 -68.5t-72 -74.5q-84 -88 -116 -140q-55 -86 -56 -174z M287 845.5q0 -67.5 47 -116.5t118.5 -49t120 49t48.5 116.5t-48.5 117t-120 49.5t-118.5 -49.5t-47 -117z" />
<glyph unicode="&#xc0;" horiz-adv-x="1325" d="M0 0h279l112 274h527l110 -274h297l-569 1366h-195zM360 1608l340 -168l74 110l-285 228zM475 506l176 448l176 -448h-352z" />
<glyph unicode="&#xc1;" horiz-adv-x="1325" d="M0 0h279l112 274h527l110 -274h297l-569 1366h-195zM475 506l176 448l176 -448h-352zM543 1550l73 -110l340 168l-129 170z" />
<glyph unicode="&#xc2;" horiz-adv-x="1325" d="M0 0h279l112 274h527l110 -274h297l-569 1366h-195zM344 1505l137 -94l170 164l170 -162l144 86l-224 244h-176zM475 506l176 448l176 -448h-352z" />
<glyph unicode="&#xc3;" horiz-adv-x="1325" d="M0 0h279l112 274h527l110 -274h297l-569 1366h-195zM319 1485l140 -70q41 111 78 111q23 0 90 -41q88 -53 143 -53q68 0 126 62.5t85 158.5l-141 71q-39 -111 -80 -110q-16 0 -86 41q-82 53 -139 53q-72 0 -131.5 -63.5t-84.5 -159.5zM475 506l176 448l176 -448h-352z " />
<glyph unicode="&#xc4;" horiz-adv-x="1325" d="M0 0h279l112 274h527l110 -274h297l-569 1366h-195zM326 1671q0 -59 38 -102t95 -43q55 0 94 44t39 101q0 59 -38 102.5t-95 43.5q-59 0 -96 -42t-37 -104zM475 506l176 448l176 -448h-352zM711 1671q0 -57 39 -101t94 -44q57 0 95 43t38 102q0 61 -37 103.5t-96 42.5 q-57 0 -95 -43t-38 -103z" />
<glyph unicode="&#xc5;" horiz-adv-x="1325" d="M0 0h279l112 274h527l110 -274h297l-569 1366q117 57 116 203q0 88 -53 151q-59 70 -162 70q-100 0 -159 -70q-53 -66 -54 -155q0 -143 117 -199zM475 506l176 448l176 -448h-352zM578 1571q0 41 21.5 66.5t58 25.5t59 -25.5t22.5 -68.5t-22.5 -68.5t-59.5 -25.5 q-39 0 -59 27.5t-20 68.5z" />
<glyph unicode="&#xc6;" horiz-adv-x="1890" d="M0 0h311l219 360h418v-360h885v248h-608v315h444v246h-444v309h561v248h-955zM657 594l291 489v-489h-291z" />
<glyph unicode="&#xc7;" horiz-adv-x="1245" d="M92 678q0 -299 141 -485q133 -181 371 -216l-80 -112q68 -4 109 -15q49 -12 49 -43q0 -43 -59 -43q-92 0 -152 31l-55 -151q80 -43 200 -43q131 0 205 51t74 149q0 96 -131 125l39 54q129 16 222 84.5t171 207.5l-215 131q-55 -104 -125 -149q-57 -39 -143 -39 q-143 0 -240 125q-100 131 -100 338q0 223 100 358q86 117 227 117q96 0 157 -52t108 -151l223 125q-143 319 -494 320q-256 0 -418 -174q-184 -199 -184 -543z" />
<glyph unicode="&#xc8;" horiz-adv-x="1200" d="M158 0h985v248h-709v311h547v248h-547v311h662v248h-938v-1366zM360 1608l340 -168l74 110l-285 228z" />
<glyph unicode="&#xc9;" horiz-adv-x="1200" d="M158 0h985v248h-709v311h547v248h-547v311h662v248h-938v-1366zM543 1550l73 -110l340 168l-129 170z" />
<glyph unicode="&#xca;" horiz-adv-x="1200" d="M158 0h985v248h-709v311h547v248h-547v311h662v248h-938v-1366zM344 1505l137 -94l170 164l170 -162l144 86l-224 244h-176z" />
<glyph unicode="&#xcb;" horiz-adv-x="1200" d="M158 0h985v248h-709v311h547v248h-547v311h662v248h-938v-1366zM303 1671q0 -59 38 -102t95 -43q55 0 94 44t39 101q0 59 -37.5 102.5t-95.5 43.5q-59 0 -96 -42t-37 -104zM688 1671q0 -57 39 -101t94 -44q57 0 95 43t38 102q0 61 -36.5 103.5t-96.5 42.5q-57 0 -95 -43 t-38 -103z" />
<glyph unicode="&#xcc;" horiz-adv-x="591" d="M45 1608l340 -168l74 110l-285 228zM158 0h276v1366h-276v-1366z" />
<glyph unicode="&#xcd;" horiz-adv-x="591" d="M133 1550l74 -110l340 168l-129 170zM158 0h276v1366h-276v-1366z" />
<glyph unicode="&#xce;" horiz-adv-x="591" d="M-49 1585l137 -92l207 199l207 -197l141 86l-248 270h-196zM158 0h276v1366h-276v-1366z" />
<glyph unicode="&#xcf;" horiz-adv-x="591" d="M-27 1671q0 -59 38 -102t95 -43q55 0 94.5 44t39.5 101q0 59 -38 102.5t-96 43.5q-59 0 -96 -42t-37 -104zM158 0h276v1366h-276v-1366zM358 1671q0 -57 39.5 -101t94.5 -44q57 0 95 43t38 102q0 61 -37 103.5t-96 42.5q-57 0 -95.5 -43t-38.5 -103z" />
<glyph unicode="&#xd0;" horiz-adv-x="1357" d="M-12 596h170v-596h415q197 0 342 70q170 80 265 256q86 166 86 364q0 203 -86 365q-94 170 -265 250q-139 61 -352 61h-405v-555h-170v-215zM434 246v350h311v215h-311v309h117q166 0 260 -61q84 -55 129 -157.5t45 -223.5t-45 -223q-90 -209 -393 -209h-113z" />
<glyph unicode="&#xd1;" horiz-adv-x="1423" d="M158 0h272v903l594 -903h242v1366h-273v-852l-553 852h-282v-1366zM305 1559l141 -74q16 45 50 86q37 43 75 43q27 0 121 -58q98 -59 156 -59q180 0 260 238l-139 71q-20 -49 -54 -89t-73 -40q-25 0 -56 19l-65 41q-98 57 -156 57q-90 0 -156.5 -63t-103.5 -172z" />
<glyph unicode="&#xd2;" horiz-adv-x="1447" d="M92 684q0 -287 156 -487q174 -226 473 -226q297 0 477 226q158 197 158 487.5t-158 486.5q-178 223 -477 224q-297 0 -473 -224q-156 -199 -156 -487zM371 684.5q0 192.5 90 325.5q96 143 260 143q168 0 264 -143q90 -133 90 -325.5t-90 -326.5q-96 -143 -264 -143 q-164 0 -260 143q-90 134 -90 326.5zM428 1608l340 -168l74 110l-285 228z" />
<glyph unicode="&#xd3;" horiz-adv-x="1447" d="M92 684q0 -287 156 -487q174 -226 473 -226q297 0 477 226q158 197 158 487.5t-158 486.5q-178 223 -477 224q-297 0 -473 -224q-156 -199 -156 -487zM371 684.5q0 192.5 90 325.5q96 143 260 143q168 0 264 -143q90 -133 90 -325.5t-90 -326.5q-96 -143 -264 -143 q-164 0 -260 143q-90 134 -90 326.5zM610 1550l74 -110l340 168l-129 170z" />
<glyph unicode="&#xd4;" horiz-adv-x="1447" d="M92 684q0 -287 156 -487q174 -226 473 -226q297 0 477 226q158 197 158 487.5t-158 486.5q-178 223 -477 224q-297 0 -473 -224q-156 -199 -156 -487zM371 684.5q0 192.5 90 325.5q96 143 260 143q168 0 264 -143q90 -133 90 -325.5t-90 -326.5q-96 -143 -264 -143 q-164 0 -260 143q-90 134 -90 326.5zM412 1505l137 -94l170 164l170 -162l143 86l-223 244h-176z" />
<glyph unicode="&#xd5;" horiz-adv-x="1447" d="M92 684q0 -287 156 -487q174 -226 473 -226q297 0 477 226q158 197 158 487.5t-158 486.5q-178 223 -477 224q-297 0 -473 -224q-156 -199 -156 -487zM371 684.5q0 192.5 90 325.5q96 143 260 143q168 0 264 -143q90 -133 90 -325.5t-90 -326.5q-96 -143 -264 -143 q-164 0 -260 143q-90 134 -90 326.5zM387 1485l139 -70q41 111 78 111q23 0 90 -41q88 -53 144 -53q68 0 126 62.5t85 158.5l-142 71q-39 -111 -80 -110q-16 0 -86 41q-82 53 -139 53q-72 0 -131 -63.5t-84 -159.5z" />
<glyph unicode="&#xd6;" horiz-adv-x="1447" d="M92 684q0 -287 156 -487q174 -226 473 -226q297 0 477 226q158 197 158 487.5t-158 486.5q-178 223 -477 224q-297 0 -473 -224q-156 -199 -156 -487zM371 684.5q0 192.5 90 325.5q96 143 260 143q168 0 264 -143q90 -133 90 -325.5t-90 -326.5q-96 -143 -264 -143 q-164 0 -260 143q-90 134 -90 326.5zM393 1671q0 -59 38 -102t95 -43q55 0 94 44t39 101q0 59 -37.5 102.5t-95.5 43.5q-59 0 -96 -42t-37 -104zM778 1671q0 -57 39 -101t94 -44q57 0 95 43t38 102q0 61 -36.5 103.5t-96.5 42.5q-57 0 -95 -43t-38 -103z" />
<glyph unicode="&#xd7;" d="M133 287l158 -158l262 260l262 -260l158 158l-260 262l260 262l-158 158l-262 -260l-262 260l-158 -158l260 -262z" />
<glyph unicode="&#xd8;" horiz-adv-x="1447" d="M66 90l174 -149l122 141q150 -111 359 -111q297 0 477 226q158 197 158 487q0 229 -109 416l152 176l-176 147l-129 -149q-158 121 -373 121q-297 0 -473 -224q-156 -199 -156 -487q0 -250 115 -430zM371 684q0 193 90 326q96 143 260 143q115 0 203 -76l-523 -600 q-31 96 -30 207zM532 279l517 593q27 -96 26 -188q0 -193 -90 -326q-96 -143 -264 -143q-111 1 -189 64z" />
<glyph unicode="&#xd9;" horiz-adv-x="1406" d="M150 469q0 -225 161 -365q152 -133 391 -133q238 0 394 133q162 139 161 365v897h-276v-870q0 -127 -72.5 -204t-204 -77t-205 77t-73.5 204v870h-276v-897zM408 1608l340 -168l73 110l-284 228z" />
<glyph unicode="&#xda;" horiz-adv-x="1406" d="M150 469q0 -225 161 -365q152 -133 391 -133q238 0 394 133q162 139 161 365v897h-276v-870q0 -127 -72.5 -204t-204 -77t-205 77t-73.5 204v870h-276v-897zM590 1550l74 -110l340 168l-130 170z" />
<glyph unicode="&#xdb;" horiz-adv-x="1406" d="M150 469q0 -225 161 -365q152 -133 391 -133q238 0 394 133q162 139 161 365v897h-276v-870q0 -127 -72.5 -204t-204 -77t-205 77t-73.5 204v870h-276v-897zM362 1585l138 -92l207 199l206 -197l142 86l-248 270h-197z" />
<glyph unicode="&#xdc;" horiz-adv-x="1406" d="M150 469q0 -225 161 -365q152 -133 391 -133q238 0 394 133q162 139 161 365v897h-276v-870q0 -127 -72.5 -204t-204 -77t-205 77t-73.5 204v870h-276v-897zM381 1671q0 -59 38 -102t95 -43q55 0 94 44t39 101q0 59 -38 102.5t-95 43.5q-59 0 -96 -42t-37 -104zM766 1671 q0 -57 39 -101t94 -44q57 0 95 43t38 102q0 61 -37 103.5t-96 42.5q-57 0 -95 -43t-38 -103z" />
<glyph unicode="&#xdd;" horiz-adv-x="1189" d="M0 1366l461 -817v-549h276v549l453 817h-303l-283 -543l-297 543h-307zM489 1550l74 -110l340 168l-129 170z" />
<glyph unicode="&#xde;" horiz-adv-x="1187" d="M158 0h276v281h182q262 0 399.5 117.5t137.5 338.5q0 211 -140.5 314.5t-398.5 103.5h-180v211h-276v-1366zM434 516v406h166q150 0 222.5 -45.5t72.5 -158t-84 -161.5q-72 -41 -219 -41h-158z" />
<glyph unicode="&#xdf;" horiz-adv-x="1241" d="M33 782h141v-782h268v940q0 121 72 186q55 49 135 50q68 0 121 -33q61 -41 74 -121q-129 -2 -207 -90q-70 -78 -70 -195q0 -102 43 -157q63 -82 185 -142q41 -20 73 -43q74 -55 74 -114q0 -41 -21.5 -63.5t-58.5 -22.5q-80 0 -123 102l-221 -107q96 -213 346 -213 q139 0 236 86q100 90 100 234q0 111 -47 180q-16 20 -34.5 40t-33 32t-36 25.5t-31.5 19.5t-31.5 17.5t-25.5 13.5q-49 27 -68 41q-63 41 -64 82q0 33 28 51t67 18h176v176q0 188 -139 301q-125 98 -313.5 98.5t-321.5 -98.5q-147 -113 -150 -307h-143v-205z" />
<glyph unicode="&#xe0;" horiz-adv-x="1052" d="M70 291q0 -141 104 -230q100 -84 238 -84q164 0 256 97l12 -74h246v635q0 193 -109 289q-100 88 -282 88q-104 0 -197 -33q-123 -43 -193 -133l183 -127q76 88 184 88q143 0 143 -133v-33q-252 -18 -381 -72q-205 -86 -204 -278zM233 1253l340 -168l74 111l-285 227z M330 297q0 94 106 131q53 19 221 33v-201q-82 -72 -182 -72q-72 0 -108.5 29t-36.5 80z" />
<glyph unicode="&#xe1;" horiz-adv-x="1052" d="M70 291q0 -141 104 -230q100 -84 238 -84q164 0 256 97l12 -74h246v635q0 193 -109 289q-100 88 -282 88q-104 0 -197 -33q-123 -43 -193 -133l183 -127q76 88 184 88q143 0 143 -133v-33q-252 -18 -381 -72q-205 -86 -204 -278zM330 297q0 94 106 131q53 19 221 33v-201 q-82 -72 -182 -72q-72 0 -108.5 29t-36.5 80zM416 1196l73 -111l340 168l-129 170z" />
<glyph unicode="&#xe2;" horiz-adv-x="1052" d="M70 291q0 -141 104 -230q100 -84 238 -84q164 0 256 97l12 -74h246v635q0 193 -109 289q-100 88 -282 88q-104 0 -197 -33q-123 -43 -193 -133l183 -127q76 88 184 88q143 0 143 -133v-33q-252 -18 -381 -72q-205 -86 -204 -278zM219 1151l137 -94l170 164l170 -162 l144 86l-224 244h-176zM330 297q0 94 106 131q53 19 221 33v-201q-82 -72 -182 -72q-72 0 -108.5 29t-36.5 80z" />
<glyph unicode="&#xe3;" horiz-adv-x="1052" d="M70 291q0 -141 104 -230q100 -84 238 -84q164 0 256 97l12 -74h246v635q0 193 -109 289q-100 88 -282 88q-104 0 -197 -33q-123 -43 -193 -133l183 -127q76 88 184 88q143 0 143 -133v-33q-252 -18 -381 -72q-205 -86 -204 -278zM193 1130l139 -69q41 111 78 110 q23 0 90 -41q88 -53 143 -53q68 0 126 62.5t85 158.5l-141 72q-39 -111 -80 -110q-16 0 -86 40q-82 53 -139 54q-72 0 -131.5 -63.5t-83.5 -160.5zM330 297q0 94 106 131q53 19 221 33v-201q-82 -72 -182 -72q-72 0 -108.5 29t-36.5 80z" />
<glyph unicode="&#xe4;" horiz-adv-x="1052" d="M70 291q0 -141 104 -230q100 -84 238 -84q164 0 256 97l12 -74h246v635q0 193 -109 289q-100 88 -282 88q-104 0 -197 -33q-123 -43 -193 -133l183 -127q76 88 184 88q143 0 143 -133v-33q-252 -18 -381 -72q-205 -86 -204 -278zM197 1292q0 -59 38 -102t95 -43 q55 0 94 44t39 101q0 59 -38 102.5t-95 43.5q-59 0 -96 -42t-37 -104zM330 297q0 94 106 131q53 19 221 33v-201q-82 -72 -182 -72q-72 0 -108.5 29t-36.5 80zM582 1292q0 -57 39 -101t94 -44q57 0 95 43t38 102q0 61 -37 103.5t-96 42.5q-57 0 -95 -43t-38 -103z" />
<glyph unicode="&#xe5;" horiz-adv-x="1052" d="M70 291q0 -141 104 -230q100 -84 238 -84q164 0 256 97l12 -74h246v635q0 193 -109 289q-100 88 -282 88q-104 0 -197 -33q-123 -43 -193 -133l183 -127q76 88 184 88q143 0 143 -133v-33q-252 -18 -381 -72q-205 -86 -204 -278zM313 1303q0 -94 58.5 -157t154.5 -63 q104 0 162 72q53 63 53 151.5t-53 151.5q-59 70 -162 70q-100 0 -159 -70q-53 -66 -54 -155zM330 297q0 94 106 131q53 19 221 33v-201q-82 -72 -182 -72q-72 0 -108.5 29t-36.5 80zM446 1309q0 41 21.5 66.5t58.5 25.5t59.5 -25.5t22.5 -68.5t-22.5 -69t-59.5 -26 q-39 0 -59.5 28t-20.5 69z" />
<glyph unicode="&#xe6;" horiz-adv-x="1628" d="M70 303q0 -152 108 -244q96 -82 254 -82q133 0 217 36t152 110q115 -145 350 -146q262 0 412 234l-189 113q-78 -127 -227 -127q-94 0 -154 57q-68 63 -69 176h643q-2 279 -123 438q-113 143 -311 144q-205 0 -314 -125q-98 125 -305 125q-233 0 -362 -158l167 -141 q86 94 187 94q68 0 107.5 -32t39.5 -87v-49q-242 -12 -381 -72q-203 -86 -202 -264zM336 295q0 76 96 115q86 32 223 36v-110q0 -70 -63 -113q-53 -39 -125 -39q-131 0 -131 111zM928 614q14 88 64 140.5t130 52.5q76 0 123 -53.5t51 -139.5h-368z" />
<glyph unicode="&#xe7;" horiz-adv-x="997" d="M72 489q0 -209 110 -342q100 -128 264 -157l-79 -115q61 -4 118 -16q59 -18 60 -47q0 -49 -74 -50q-76 0 -143 27l-52 -137q88 -39 193 -39q129 0 200.5 49t71.5 139q0 53 -42 88t-99 43l37 52q236 35 338 254l-201 108q-41 -76 -90 -112.5t-125 -36.5 q-102 0 -163.5 78.5t-61.5 218.5q0 154 65 231q59 74 144 74q141 0 205 -178l210 104q-43 121 -137 195q-117 92 -284 92q-195 0 -322 -129q-143 -147 -143 -394z" />
<glyph unicode="&#xe8;" horiz-adv-x="1075" d="M72 494q0 -250 145 -390q129 -127 340 -127q154 0 262.5 54.5t192.5 179.5l-199 121q-57 -82 -113.5 -109.5t-134.5 -27.5q-90 0 -147 55q-66 63 -78 180h674q-4 287 -127 434.5t-336 147.5q-203 0 -338 -135q-141 -141 -141 -383zM254 1253l340 -168l74 111l-285 227z M346 612q12 88 72.5 142.5t132.5 54.5t125 -49q57 -54 65 -148h-395z" />
<glyph unicode="&#xe9;" horiz-adv-x="1075" d="M72 494q0 -250 145 -390q129 -127 340 -127q154 0 262.5 54.5t192.5 179.5l-199 121q-57 -82 -113.5 -109.5t-134.5 -27.5q-90 0 -147 55q-66 63 -78 180h674q-4 287 -127 434.5t-336 147.5q-203 0 -338 -135q-141 -141 -141 -383zM346 612q12 88 72.5 142.5t132.5 54.5 t125 -49q57 -54 65 -148h-395zM436 1196l74 -111l340 168l-129 170z" />
<glyph unicode="&#xea;" horiz-adv-x="1075" d="M72 494q0 -250 145 -390q129 -127 340 -127q154 0 262.5 54.5t192.5 179.5l-199 121q-57 -82 -113.5 -109.5t-134.5 -27.5q-90 0 -147 55q-66 63 -78 180h674q-4 287 -127 434.5t-336 147.5q-203 0 -338 -135q-141 -141 -141 -383zM240 1151l137 -94l170 164l170 -162 l143 86l-223 244h-176zM346 612q12 88 72.5 142.5t132.5 54.5t125 -49q57 -54 65 -148h-395z" />
<glyph unicode="&#xeb;" horiz-adv-x="1075" d="M72 494q0 -250 145 -390q129 -127 340 -127q154 0 262.5 54.5t192.5 179.5l-199 121q-57 -82 -113.5 -109.5t-134.5 -27.5q-90 0 -147 55q-66 63 -78 180h674q-4 287 -127 434.5t-336 147.5q-203 0 -338 -135q-141 -141 -141 -383zM227 1292q0 -59 38 -102t95 -43 q55 0 94.5 44t39.5 101q0 59 -38 102.5t-96 43.5q-59 0 -96 -42t-37 -104zM346 612q12 88 72.5 142.5t132.5 54.5t125 -49q57 -54 65 -148h-395zM612 1292q0 -57 39 -101t94 -44q57 0 95.5 43t38.5 102q0 61 -37 103.5t-97 42.5q-57 0 -95 -43t-38 -103z" />
<glyph unicode="&#xec;" horiz-adv-x="532" d="M-23 1253l340 -168l74 111l-285 227zM133 0h266v1001l-266 -40v-961z" />
<glyph unicode="&#xed;" horiz-adv-x="532" d="M133 0h266v1001l-266 -40v-961zM160 1196l73 -111l340 168l-129 170z" />
<glyph unicode="&#xee;" horiz-adv-x="532" d="M-76 1206l137 -92l207 199l207 -197l141 86l-247 271h-197zM133 0h266v1001l-266 -40v-961z" />
<glyph unicode="&#xef;" horiz-adv-x="532" d="M-57 1292q0 -59 38 -102t95 -43q55 0 94 44t39 101q0 59 -38 102.5t-95 43.5q-59 0 -96 -42t-37 -104zM133 0h266v1001l-266 -40v-961zM328 1292q0 -57 39 -101t94 -44q57 0 95 43t38 102q0 61 -37 103.5t-96 42.5q-57 0 -95 -43t-38 -103z" />
<glyph unicode="&#xf0;" horiz-adv-x="1165" d="M80 492q0 -242 151 -383q139 -129 353 -129q242 0 374 149q129 145 129 381q0 205 -63 369q-70 182 -217 311l113 145l-156 119l-119 -151q-121 63 -289 90l-51 -174q135 -23 242 -93q119 -76 168 -176q-82 51 -189 51q-211 0 -331 -151q-115 -139 -115 -358zM340 494 q0 143 65.5 217.5t174.5 74.5q96 0 190 -51q41 -118 41 -233q0 -145 -74 -230q-63 -76 -159 -75q-94 0 -162 75q-76 82 -76 222z" />
<glyph unicode="&#xf1;" horiz-adv-x="1189" d="M133 0h268v700q98 98 217 99q109 0 146 -60q31 -51 31 -176v-563h268v584q0 428 -373 428q-174 0 -301 -103l-14 90l-242 -36v-963zM182 1180l142 -74q16 45 49 86q37 43 76 43q27 0 120 -57q98 -59 156 -60q180 0 260 238l-139 71q-20 -49 -54 -89t-73 -40q-25 0 -55 19 l-66 41q-98 57 -156 57q-90 0 -156.5 -63t-103.5 -172z" />
<glyph unicode="&#xf2;" horiz-adv-x="1138" d="M72 498q0 -211 125 -357q137 -164 372.5 -164t374.5 164q123 147 123 357q0 207 -123 354q-139 160 -375 160q-238 0 -372 -160q-125 -145 -125 -354zM279 1253l339 -168l74 111l-284 227zM334 498q0 133 61 213q63 86 174 86t176 -86q59 -82 60 -213q0 -129 -60 -213 q-66 -88 -176 -88q-113 0 -174 88q-61 82 -61 213z" />
<glyph unicode="&#xf3;" horiz-adv-x="1138" d="M72 498q0 -211 125 -357q137 -164 372.5 -164t374.5 164q123 147 123 357q0 207 -123 354q-139 160 -375 160q-238 0 -372 -160q-125 -145 -125 -354zM334 498q0 133 61 213q63 86 174 86t176 -86q59 -82 60 -213q0 -129 -60 -213q-66 -88 -176 -88q-113 0 -174 88 q-61 82 -61 213zM461 1196l74 -111l339 168l-129 170z" />
<glyph unicode="&#xf4;" horiz-adv-x="1138" d="M72 498q0 -211 125 -357q137 -164 372.5 -164t374.5 164q123 147 123 357q0 207 -123 354q-139 160 -375 160q-238 0 -372 -160q-125 -145 -125 -354zM264 1151l137 -94l170 164l170 -162l144 86l-223 244h-177zM334 498q0 133 61 213q63 86 174 86t176 -86 q59 -82 60 -213q0 -129 -60 -213q-66 -88 -176 -88q-113 0 -174 88q-61 82 -61 213z" />
<glyph unicode="&#xf5;" horiz-adv-x="1138" d="M72 498q0 -211 125 -357q137 -164 372.5 -164t374.5 164q123 147 123 357q0 207 -123 354q-139 160 -375 160q-238 0 -372 -160q-125 -145 -125 -354zM238 1130l139 -69q41 111 78 110q23 0 90 -41q88 -53 143 -53q68 0 126 62.5t85 158.5l-141 72q-39 -111 -80 -110 q-16 0 -86 40q-82 53 -139 54q-72 0 -131.5 -63.5t-83.5 -160.5zM334 498q0 133 61 213q63 86 174 86t176 -86q59 -82 60 -213q0 -129 -60 -213q-66 -88 -176 -88q-113 0 -174 88q-61 82 -61 213z" />
<glyph unicode="&#xf6;" horiz-adv-x="1138" d="M72 498q0 -211 125 -357q137 -164 372.5 -164t374.5 164q123 147 123 357q0 207 -123 354q-139 160 -375 160q-238 0 -372 -160q-125 -145 -125 -354zM254 1292q0 -59 38 -102t95 -43q55 0 94 44t39 101q0 59 -38 102.5t-95 43.5q-59 0 -96 -42t-37 -104zM334 498 q0 133 61 213q63 86 174 86t176 -86q59 -82 60 -213q0 -129 -60 -213q-66 -88 -176 -88q-113 0 -174 88q-61 82 -61 213zM639 1292q0 -57 39 -101t94 -44q57 0 95 43t38 102q0 61 -37 103.5t-96 42.5q-57 0 -95 -43t-38 -103z" />
<glyph unicode="&#xf7;" d="M47 436h1010v226h-1010v-226zM389 182q0 -68 47 -115t119 -47t118 47.5t46 114.5q0 66 -47 113t-117 47q-72 0 -119 -48t-47 -112zM389 928q0 -68 47 -115t119 -47t118 47t46 115q0 66 -47 112.5t-117 46.5q-72 0 -119 -48t-47 -111z" />
<glyph unicode="&#xf8;" horiz-adv-x="1138" d="M72 498q0 -236 149 -385l-84 -125l142 -97l83 125q92 -39 207 -39q236 0 375 164q123 147 123 357q0 219 -135 366l80 119l-142 96l-77 -114q-98 47 -224 47q-238 0 -372 -160q-125 -145 -125 -354zM334 498q0 133 61 213q63 86 174 86q48 0 97 -23l-299 -444 q-33 66 -33 168zM492 209l288 430q25 -61 25 -141q0 -129 -60 -213q-66 -88 -176 -88q-40 0 -77 12z" />
<glyph unicode="&#xf9;" horiz-adv-x="1185" d="M127 399q0 -197 90 -305q96 -115 283 -114q172 0 297 98l10 -78h246v987h-269v-704q-111 -90 -217 -90q-102 0 -139 61q-33 55 -33 172v575l-268 -40v-562zM279 1253l339 -168l74 111l-284 227z" />
<glyph unicode="&#xfa;" horiz-adv-x="1185" d="M127 399q0 -197 90 -305q96 -115 283 -114q172 0 297 98l10 -78h246v987h-269v-704q-111 -90 -217 -90q-102 0 -139 61q-33 55 -33 172v575l-268 -40v-562zM461 1196l74 -111l339 168l-129 170z" />
<glyph unicode="&#xfb;" horiz-adv-x="1185" d="M127 399q0 -197 90 -305q96 -115 283 -114q172 0 297 98l10 -78h246v987h-269v-704q-111 -90 -217 -90q-102 0 -139 61q-33 55 -33 172v575l-268 -40v-562zM242 1206l137 -92l207 199l207 -197l141 86l-248 271h-197z" />
<glyph unicode="&#xfc;" horiz-adv-x="1185" d="M127 399q0 -197 90 -305q96 -115 283 -114q172 0 297 98l10 -78h246v987h-269v-704q-111 -90 -217 -90q-102 0 -139 61q-33 55 -33 172v575l-268 -40v-562zM266 1292q0 -59 38 -102t95 -43q55 0 94 44t39 101q0 59 -37.5 102.5t-95.5 43.5q-59 0 -96 -42t-37 -104z M651 1292q0 -57 39 -101t94 -44q57 0 95.5 43t38.5 102q0 61 -37 103.5t-97 42.5q-57 0 -95 -43t-38 -103z" />
<glyph unicode="&#xfd;" horiz-adv-x="1058" d="M0 987l410 -946l-76 -170q-33 -72 -94 -72q-70 0 -142 35l-84 -190q129 -55 250 -56q209 0 283 179l512 1220h-271l-245 -674l-258 674h-285zM430 1196l74 -111l340 168l-129 170z" />
<glyph unicode="&#xfe;" horiz-adv-x="1134" d="M133 -387h266v393q68 -29 138 -29q256 0 401 166q125 143 125 359q0 231 -107 364q-119 145 -325 146q-139 0 -232 -88v471l-266 -41v-1741zM399 225v480q27 39 75 66.5t101 27.5q119 0 177 -90q51 -82 51 -215q0 -123 -68 -203q-76 -92 -213 -92q-62 -1 -123 26z" />
<glyph unicode="&#xff;" horiz-adv-x="1058" d="M0 987l410 -946l-76 -170q-33 -72 -94 -72q-70 0 -142 35l-84 -190q129 -55 250 -56q209 0 283 179l512 1220h-271l-245 -674l-258 674h-285zM211 1292q0 -59 38 -102t95 -43q55 0 94 44t39 101q0 59 -38 102.5t-95 43.5q-59 0 -96 -42t-37 -104zM596 1292q0 -57 39 -101 t94 -44q57 0 95 43t38 102q0 61 -37 103.5t-96 42.5q-57 0 -95 -43t-38 -103z" />
<glyph unicode="&#x100;" horiz-adv-x="1325" d="M0 0h279l112 274h527l110 -274h297l-569 1366h-195zM281 1563h743v182h-743v-182zM475 506l176 448l176 -448h-352z" />
<glyph unicode="&#x101;" horiz-adv-x="1052" d="M70 291q0 -141 104 -230q100 -84 238 -84q164 0 256 97l12 -74h246v635q0 193 -109 289q-100 88 -282 88q-104 0 -197 -33q-123 -43 -193 -133l183 -127q76 88 184 88q143 0 143 -133v-33q-252 -18 -381 -72q-205 -86 -204 -278zM154 1184h743v182h-743v-182zM330 297 q0 94 106 131q53 19 221 33v-201q-82 -72 -182 -72q-72 0 -108.5 29t-36.5 80z" />
<glyph unicode="&#x102;" horiz-adv-x="1325" d="M0 0h279l112 274h527l110 -274h297l-569 1366h-195zM360 1716q2 -133 93 -213q84 -72 202 -71q111 0 197 73q92 82 94 211h-174q-23 -123 -117 -123q-91 0 -114 123h-181zM475 506l176 448l176 -448h-352z" />
<glyph unicode="&#x103;" horiz-adv-x="1052" d="M70 291q0 -141 104 -230q100 -84 238 -84q164 0 256 97l12 -74h246v635q0 193 -109 289q-100 88 -282 88q-104 0 -197 -33q-123 -43 -193 -133l183 -127q76 88 184 88q143 0 143 -133v-33q-252 -18 -381 -72q-205 -86 -204 -278zM233 1362q2 -133 93 -213q84 -72 202 -72 q111 0 197 74q92 82 94 211h-174q-23 -123 -117 -123q-91 0 -114 123h-181zM330 297q0 94 106 131q53 19 221 33v-201q-82 -72 -182 -72q-72 0 -108.5 29t-36.5 80z" />
<glyph unicode="&#x104;" horiz-adv-x="1325" d="M0 0h279l112 274h527l110 -274h53q-121 -86 -120 -201q0 -82 54 -127t156 -45q92 0 158 37l-49 137q-33 -18 -74 -18q-49 0 -49 55q0 92 115 162h53l-569 1366h-195zM475 506l176 448l176 -448h-352z" />
<glyph unicode="&#x105;" horiz-adv-x="1052" d="M70 291q0 -141 104 -230q100 -84 238 -84q164 0 256 97l12 -74q-109 -82 -109 -201q0 -82 54.5 -127t156.5 -45q92 0 158 37l-49 137q-33 -18 -74 -18q-49 0 -49 55q0 86 102 162h56v635q0 193 -109 289q-100 88 -282 88q-104 0 -197 -33q-123 -43 -193 -133l183 -127 q76 88 184 88q63 0 103 -37t40 -96v-33q-252 -18 -381 -72q-205 -86 -204 -278zM330 297q0 94 106 131q53 19 221 33v-201q-82 -72 -182 -72q-72 0 -108.5 29t-36.5 80z" />
<glyph unicode="&#x106;" horiz-adv-x="1245" d="M92 678q0 -332 170 -520q162 -186 440 -187q170 0 287 69.5t207 231.5l-215 131q-47 -102 -110.5 -145t-157.5 -43q-145 0 -242 125q-98 127 -98 338q0 223 100 358q86 117 227 117q186 0 265 -201l223 123q-143 319 -494 320q-256 0 -418 -174q-184 -199 -184 -543z M406 1591l73 -110l467 229l-129 170z" />
<glyph unicode="&#x107;" horiz-adv-x="997" d="M72 489q0 -240 147 -380q135 -131 334 -132q301 1 422 261l-201 108q-41 -76 -90 -112.5t-125 -36.5q-102 0 -163.5 78.5t-61.5 218.5q0 154 65 231q59 74 144 74q141 0 205 -178l210 104q-43 121 -137 195q-117 92 -284 92q-195 0 -322 -129q-143 -147 -143 -394z M264 1212l74 -110l467 229l-129 170z" />
<glyph unicode="&#x108;" horiz-adv-x="1245" d="M92 678q0 -332 170 -520q162 -186 440 -187q170 0 287 69.5t207 231.5l-215 131q-47 -102 -110.5 -145t-157.5 -43q-145 0 -242 125q-98 127 -98 338q0 223 100 358q86 117 227 117q186 0 265 -201l223 123q-143 319 -494 320q-256 0 -418 -174q-184 -199 -184 -543z M344 1585l137 -92l207 199l207 -197l141 86l-248 270h-196z" />
<glyph unicode="&#x109;" horiz-adv-x="997" d="M72 489q0 -240 147 -380q135 -131 334 -132q301 1 422 261l-201 108q-41 -76 -90 -112.5t-125 -36.5q-102 0 -163.5 78.5t-61.5 218.5q0 154 65 231q59 74 144 74q141 0 205 -178l210 104q-43 121 -137 195q-117 92 -284 92q-195 0 -322 -129q-143 -147 -143 -394z M197 1206l137 -92l207 199l207 -197l141 86l-248 271h-197z" />
<glyph unicode="&#x10a;" horiz-adv-x="1245" d="M92 678q0 -332 170 -520q162 -186 440 -187q170 0 287 69.5t207 231.5l-215 131q-47 -102 -110.5 -145t-157.5 -43q-145 0 -242 125q-98 127 -98 338q0 223 100 358q86 117 227 117q186 0 265 -201l223 123q-143 319 -494 320q-256 0 -418 -174q-184 -199 -184 -543z M555 1671.5q0 -63.5 41 -111t102.5 -47.5t103.5 47.5t42 111t-42 110.5t-103.5 47t-102.5 -47t-41 -110.5z" />
<glyph unicode="&#x10b;" horiz-adv-x="997" d="M72 489q0 -240 147 -380q135 -131 334 -132q301 1 422 261l-201 108q-41 -76 -90 -112.5t-125 -36.5q-102 0 -163.5 78.5t-61.5 218.5q0 154 65 231q59 74 144 74q141 0 205 -178l210 104q-43 121 -137 195q-117 92 -284 92q-195 0 -322 -129q-143 -147 -143 -394z M395 1292.5q0 -63.5 41 -110.5t102.5 -47t103.5 47t42 110.5t-42 110.5t-103.5 47t-102.5 -47t-41 -110.5z" />
<glyph unicode="&#x10c;" horiz-adv-x="1245" d="M92 678q0 -332 170 -520q162 -186 440 -187q170 0 287 69.5t207 231.5l-215 131q-47 -102 -110.5 -145t-157.5 -43q-145 0 -242 125q-98 127 -98 338q0 223 100 358q86 117 227 117q186 0 265 -201l223 123q-143 319 -494 320q-256 0 -418 -174q-184 -199 -184 -543z M348 1759l248 -266h197l247 272l-141 84l-207 -194l-207 196z" />
<glyph unicode="&#x10d;" horiz-adv-x="997" d="M72 489q0 -240 147 -380q135 -131 334 -132q301 1 422 261l-201 108q-41 -76 -90 -112.5t-125 -36.5q-102 0 -163.5 78.5t-61.5 218.5q0 154 65 231q59 74 144 74q141 0 205 -178l210 104q-43 121 -137 195q-117 92 -284 92q-195 0 -322 -129q-143 -147 -143 -394z M197 1380l247 -266h197l248 272l-141 84l-207 -194l-207 197z" />
<glyph unicode="&#x10e;" horiz-adv-x="1357" d="M158 0h415q195 0 340 70q170 80 267 256q86 162 86 364q0 205 -86 367q-90 168 -265 248q-137 61 -352 61h-405v-1366zM266 1759l248 -266h197l247 272l-141 84l-207 -194l-207 196zM434 246v874h117q162 0 258 -61q176 -109 176 -381q0 -117 -47 -223 q-94 -209 -393 -209h-111z" />
<glyph unicode="&#x10f;" horiz-adv-x="1140" d="M72 498q0 -223 114 -367q121 -154 328 -154q143 0 238 99l12 -76h244v1395l-267 -41v-371q-98 29 -176 29q-236 0 -370 -160q-123 -147 -123 -354zM332 504q0 115 65 203q70 90 201 90q61 0 143 -29v-487q-23 -35 -74 -60.5t-100 -25.5q-117 0 -180 92q-55 78 -55 217z M1106 1018h149l70 348h-219v-348z" />
<glyph unicode="&#x110;" horiz-adv-x="1357" d="M-12 596h170v-596h415q197 0 342 70q170 80 265 256q86 166 86 364q0 203 -86 365q-94 170 -265 250q-139 61 -352 61h-405v-555h-170v-215zM434 246v350h311v215h-311v309h117q166 0 260 -61q84 -55 129 -157.5t45 -223.5t-45 -223q-90 -209 -393 -209h-113z" />
<glyph unicode="&#x111;" horiz-adv-x="1140" d="M72 492q0 -225 114 -365q119 -150 328 -150q143 0 238 99l12 -76h244v1090h131v170h-131v135l-267 -41v-94h-245v-170h245v-123q-98 29 -176 28q-238 0 -370 -153q-123 -141 -123 -350zM332 498q0 119 65 196q72 86 201 86q61 1 143 -28v-471q-23 -35 -74 -60.5 t-100 -25.5q-119 0 -180 88q-55 78 -55 215z" />
<glyph unicode="&#x112;" horiz-adv-x="1200" d="M158 0h985v248h-709v311h547v248h-547v311h662v248h-938v-1366zM248 1563h743v182h-743v-182z" />
<glyph unicode="&#x113;" horiz-adv-x="1075" d="M72 494q0 -250 145 -390q129 -127 340 -127q154 0 262.5 54.5t192.5 179.5l-199 121q-57 -82 -113.5 -109.5t-134.5 -27.5q-90 0 -147 55q-66 63 -78 180h674q-4 287 -127 434.5t-336 147.5q-203 0 -338 -135q-141 -141 -141 -383zM164 1184h743v182h-743v-182zM346 612 q12 88 72.5 142.5t132.5 54.5t125 -49q57 -54 65 -148h-395z" />
<glyph unicode="&#x114;" horiz-adv-x="1200" d="M158 0h985v248h-709v311h547v248h-547v311h662v248h-938v-1366zM289 1772q2 -137 108 -216q94 -74 236 -73q131 0 231 76q109 84 111 213h-205q-27 -125 -137 -125q-106 0 -133 125h-211z" />
<glyph unicode="&#x115;" horiz-adv-x="1075" d="M72 494q0 -250 145 -390q129 -127 340 -127q154 0 262.5 54.5t192.5 179.5l-199 121q-57 -82 -113.5 -109.5t-134.5 -27.5q-90 0 -147 55q-66 63 -78 180h674q-4 287 -127 434.5t-336 147.5q-203 0 -338 -135q-141 -141 -141 -383zM217 1393q2 -137 109 -215 q96 -74 235 -74q131 0 232 76q109 84 110 213h-205q-27 -125 -137 -125q-106 0 -133 125h-211zM346 612q12 88 72.5 142.5t132.5 54.5t125 -49q57 -54 65 -148h-395z" />
<glyph unicode="&#x116;" horiz-adv-x="1200" d="M158 0h985v248h-709v311h547v248h-547v311h662v248h-938v-1366zM485 1671.5q0 -63.5 41 -111t102.5 -47.5t103.5 47.5t42 111t-42 110.5t-103.5 47t-102.5 -47t-41 -110.5z" />
<glyph unicode="&#x117;" horiz-adv-x="1075" d="M72 494q0 -250 145 -390q129 -127 340 -127q154 0 262.5 54.5t192.5 179.5l-199 121q-57 -82 -113.5 -109.5t-134.5 -27.5q-90 0 -147 55q-66 63 -78 180h674q-4 287 -127 434.5t-336 147.5q-203 0 -338 -135q-141 -141 -141 -383zM346 612q12 88 72.5 142.5t132.5 54.5 t125 -49q57 -54 65 -148h-395zM403 1292.5q0 -63.5 41 -110.5t102.5 -47t103.5 47t42 110.5t-42 110.5t-103.5 47t-102.5 -47t-41 -110.5z" />
<glyph unicode="&#x118;" horiz-adv-x="1200" d="M158 0h721q-109 -94 -109 -201q0 -82 54.5 -127t156.5 -45q92 0 158 37l-49 137q-33 -18 -74 -18q-49 0 -49 55q0 86 102 162h74v248h-709v311h547v248h-547v311h662v248h-938v-1366z" />
<glyph unicode="&#x119;" horiz-adv-x="1075" d="M72 494q0 -233 125 -370.5t346 -146.5q-82 -86 -82 -178q0 -82 54 -127t157 -45q91 0 157 37l-49 137q-33 -18 -73 -18q-49 0 -50 55q0 92 123 176q133 47 232 197l-199 121q-57 -82 -113.5 -109.5t-134.5 -27.5q-90 0 -147 55q-66 63 -78 180h674q-4 287 -127 434.5 t-336 147.5q-203 0 -338 -135q-141 -141 -141 -383zM346 612q12 88 72.5 142.5t132.5 54.5t125 -49q57 -54 65 -148h-395z" />
<glyph unicode="&#x11a;" horiz-adv-x="1200" d="M158 0h985v248h-709v311h547v248h-547v311h662v248h-938v-1366zM289 1759l248 -266h196l248 272l-141 84l-207 -194l-207 196z" />
<glyph unicode="&#x11b;" horiz-adv-x="1075" d="M72 494q0 -250 145 -390q129 -127 340 -127q154 0 262.5 54.5t192.5 179.5l-199 121q-57 -82 -113.5 -109.5t-134.5 -27.5q-90 0 -147 55q-66 63 -78 180h674q-4 287 -127 434.5t-336 147.5q-203 0 -338 -135q-141 -141 -141 -383zM203 1380l248 -266h196l248 272 l-141 84l-207 -194l-207 197zM346 612q12 88 72.5 142.5t132.5 54.5t125 -49q57 -54 65 -148h-395z" />
<glyph unicode="&#x11c;" horiz-adv-x="1284" d="M92 678q0 -326 174 -520q164 -186 439 -187q291 0 497 90v658h-481v-236h223v-245q-78 -23 -209 -23q-154 0 -256 127q-106 129 -106 336q0 225 102 358q90 117 225 117q170 0 258 -182l224 125q-74 154 -189.5 226.5t-298.5 72.5q-258 0 -420 -174q-182 -197 -182 -543z M354 1585l138 -92l206 199l207 -197l142 86l-248 270h-197z" />
<glyph unicode="&#x11d;" horiz-adv-x="1134" d="M72 506q0 -225 143 -365q141 -141 371 -141q92 0 147 20v-49q0 -176 -190 -176q-152 1 -258 101l-174 -138q147 -172 432 -172q238 0 348 108.5t110 346.5v938q-16 2 -182 22q-113 10 -190 11q-272 0 -422 -154q-135 -135 -135 -352zM229 1206l138 -92l206 199l207 -197 l142 86l-248 271h-197zM332 506q0 137 78.5 215t220.5 78q51 0 102 -8v-549q-35 -23 -110 -23q-135 0 -213 77t-78 210z" />
<glyph unicode="&#x11e;" horiz-adv-x="1284" d="M92 678q0 -326 174 -520q164 -186 439 -187q291 0 497 90v658h-481v-236h223v-245q-78 -23 -209 -23q-154 0 -256 127q-106 129 -106 336q0 225 102 358q90 117 225 117q170 0 258 -182l224 125q-74 154 -189.5 226.5t-298.5 72.5q-258 0 -420 -174q-182 -197 -182 -543z M360 1772q2 -137 109 -216q94 -74 236 -73q131 0 231 76q109 84 111 213h-205q-27 -125 -137 -125q-107 0 -134 125h-211z" />
<glyph unicode="&#x11f;" horiz-adv-x="1134" d="M72 506q0 -225 143 -365q141 -141 371 -141q92 0 147 20v-49q0 -176 -190 -176q-152 1 -258 101l-174 -138q147 -172 432 -172q238 0 348 108.5t110 346.5v938q-16 2 -182 22q-113 10 -190 11q-272 0 -422 -154q-135 -135 -135 -352zM231 1393q2 -137 109 -215 q94 -74 235 -74q131 0 232 76q109 84 111 213h-205q-27 -125 -138 -125q-106 0 -133 125h-211zM332 506q0 137 78.5 215t220.5 78q51 0 102 -8v-549q-35 -23 -110 -23q-135 0 -213 77t-78 210z" />
<glyph unicode="&#x120;" horiz-adv-x="1284" d="M92 678q0 -326 174 -520q164 -186 439 -187q291 0 497 90v658h-481v-236h223v-245q-78 -23 -209 -23q-154 0 -256 127q-106 129 -106 336q0 225 102 358q90 117 225 117q170 0 258 -182l224 125q-74 154 -189.5 226.5t-298.5 72.5q-258 0 -420 -174q-182 -197 -182 -543z M547 1671.5q0 -63.5 41 -111t102.5 -47.5t103.5 47.5t42 111t-42 110.5t-103.5 47t-102.5 -47t-41 -110.5z" />
<glyph unicode="&#x121;" horiz-adv-x="1134" d="M72 506q0 -225 143 -365q141 -141 371 -141q92 0 147 20v-49q0 -176 -190 -176q-152 1 -258 101l-174 -138q147 -172 432 -172q238 0 348 108.5t110 346.5v938q-16 2 -182 22q-113 10 -190 11q-272 0 -422 -154q-135 -135 -135 -352zM332 506q0 137 78.5 215t220.5 78 q51 0 102 -8v-549q-35 -23 -110 -23q-135 0 -213 77t-78 210zM430 1292.5q0 -63.5 41 -110.5t102.5 -47t103.5 47t42 110.5t-42 110.5t-103.5 47t-102.5 -47t-41 -110.5z" />
<glyph unicode="&#x122;" horiz-adv-x="1284" d="M92 678q0 -326 174 -520q164 -186 439 -187q291 0 497 90v658h-481v-236h223v-245q-78 -23 -209 -23q-154 0 -256 127q-106 129 -106 336q0 225 102 358q90 117 225 117q170 0 258 -182l224 125q-74 154 -189.5 226.5t-298.5 72.5q-258 0 -420 -174q-182 -197 -182 -543z M477 -371h189l176 281h-238z" />
<glyph unicode="&#x123;" horiz-adv-x="1134" d="M72 506q0 -225 143 -365q141 -141 371 -141q92 0 147 20v-49q0 -176 -190 -176q-152 1 -258 101l-174 -138q147 -172 432 -172q238 0 348 108.5t110 346.5v938q-16 2 -182 22q-113 10 -190 11q-272 0 -422 -154q-135 -135 -135 -352zM332 506q0 137 78.5 215t220.5 78 q51 0 102 -8v-549q-35 -23 -110 -23q-135 0 -213 77t-78 210zM467 1145h223l121 266h-170z" />
<glyph unicode="&#x124;" horiz-adv-x="1411" d="M158 0h276v578h543v-578h276v1366h-276v-541h-543v541h-276v-1366zM365 1585l137 -92l207 199l206 -197l142 86l-248 270h-197z" />
<glyph unicode="&#x125;" horiz-adv-x="1181" d="M133 0h268v702q109 96 220 97q98 0 137 -62q29 -51 28 -170v-567h269v586q0 201 -86 311q-92 115 -285 115q-162 0 -283 -90v473l-268 -41v-1354zM150 1585l137 -92l207 199l206 -197l142 86l-248 270h-197z" />
<glyph unicode="&#x126;" horiz-adv-x="1411" d="M14 989h144v-989h276v578h543v-578h276v989h144v199h-144v178h-276v-178h-543v178h-276v-178h-144v-199zM438 825v164h543v-164h-543z" />
<glyph unicode="&#x127;" horiz-adv-x="1181" d="M6 1090h127v-1090h268v702q68 51 95 64q70 33 125 33q72 0 118.5 -57.5t46.5 -174.5v-567h269v586q0 203 -86 309q-94 117 -285 117q-162 0 -283 -90v168h306v170h-306v135l-268 -41v-94h-127v-170z" />
<glyph unicode="&#x128;" horiz-adv-x="591" d="M-45 1485l139 -70q41 111 78 111q23 0 90 -41q88 -53 144 -53q68 0 125.5 62.5t84.5 158.5l-141 71q-39 -111 -80 -110q-16 0 -86 41q-82 53 -139 53q-72 0 -131 -63.5t-84 -159.5zM158 0h276v1366h-276v-1366z" />
<glyph unicode="&#x129;" horiz-adv-x="532" d="M-63 1130l139 -69q41 111 78 110q23 0 90 -41q88 -53 143 -53q68 0 126 62.5t85 158.5l-141 72q-39 -111 -80 -110q-16 0 -86 40q-82 53 -139 54q-72 0 -131.5 -63.5t-83.5 -160.5zM133 0h266v1001l-266 -40v-961z" />
<glyph unicode="&#x12a;" horiz-adv-x="591" d="M-68 1563h744v182h-744v-182zM158 0h276v1366h-276v-1366z" />
<glyph unicode="&#x12b;" horiz-adv-x="532" d="M-102 1184h743v182h-743v-182zM133 0h266v1001l-266 -40v-961z" />
<glyph unicode="&#x12c;" horiz-adv-x="591" d="M-41 1772q2 -137 109 -216q96 -74 235 -73q131 0 232 76q109 84 110 213h-205q-27 -125 -137 -125q-106 0 -133 125h-211zM158 0h276v1366h-276v-1366z" />
<glyph unicode="&#x12d;" horiz-adv-x="532" d="M-72 1393q2 -137 109 -215q96 -74 235 -74q131 0 232 76q109 84 110 213h-204q-27 -125 -138 -125q-106 0 -133 125h-211zM133 0h266v1001l-266 -40v-961z" />
<glyph unicode="&#x12e;" horiz-adv-x="591" d="M94 -201q0 -82 54.5 -127t156.5 -45q92 0 158 37l-49 137q-33 -18 -74 -18q-49 0 -49 55q0 86 102 162h41v1366h-276v-1366h45q-109 -88 -109 -201z" />
<glyph unicode="&#x12f;" horiz-adv-x="532" d="M59 -201q0 -82 54.5 -127t156.5 -45q92 0 158 37l-49 137q-33 -18 -74 -18q-49 0 -49 55q0 84 102 162h41v1001l-266 -40v-961h35q-109 -92 -109 -201zM106 1245q0 -59 42 -102t118 -43t118 43t42 102q0 57 -42 100.5t-118 43.5t-118 -43t-42 -101z" />
<glyph unicode="&#x130;" horiz-adv-x="591" d="M158 0h276v1366h-276v-1366zM158 1671.5q0 -63.5 41 -111t102 -47.5t103 47.5t42 111t-42 110.5t-103 47t-102 -47t-41 -110.5z" />
<glyph unicode="&#x131;" horiz-adv-x="532" d="M133 0h266v1001l-266 -40v-961z" />
<glyph unicode="&#x132;" horiz-adv-x="1185" d="M158 0h276v1366h-276v-1366zM489 -59l52 -234q233 39 354 137q133 109 133 293v1229h-276v-1184q0 -96 -62 -154t-201 -87z" />
<glyph unicode="&#x133;" horiz-adv-x="1067" d="M106 1245q0 -59 42 -102t118 -43t118 43t42 102q0 57 -42 100.5t-118 43.5t-118 -43t-42 -101zM133 0h266v1001l-266 -40v-961zM498 -238l147 -163q145 76 219 180q70 102 70 260v962l-266 -40v-922q0 -94 -33 -150q-31 -51 -137 -127zM643 1245q0 -59 42 -102t118 -43 q74 0 116 43t42 102q0 57 -42 100.5t-116 43.5q-76 0 -118 -43t-42 -101z" />
<glyph unicode="&#x134;" horiz-adv-x="608" d="M-88 -59l51 -234q233 39 354 137q133 109 134 293v1229h-277v-1184q0 -96 -61.5 -154t-200.5 -87zM-29 1585l138 -92l206 199l207 -197l142 86l-248 270h-197z" />
<glyph unicode="&#x135;" horiz-adv-x="552" d="M-55 1206l137 -92l207 199l207 -197l141 86l-248 271h-196zM-16 -238l147 -163q145 76 219 180q70 102 70 260v962l-266 -40v-922q0 -94 -33 -150q-31 -51 -137 -127z" />
<glyph unicode="&#x136;" horiz-adv-x="1312" d="M158 0h276v520l127 127l440 -647h312l-563 834l536 532h-328l-524 -522v522h-276v-1366zM483 -371h189l176 281h-238z" />
<glyph unicode="&#x137;" horiz-adv-x="1081" d="M133 0h268v420l97 90l282 -510h301l-389 682l340 305h-321l-310 -278v686l-268 -41v-1354zM336 -371h188l176 281h-237z" />
<glyph unicode="&#x138;" horiz-adv-x="1081" d="M133 0h266v311l99 111l282 -422h301l-393 600l354 387h-317l-326 -354v368l-266 -40v-961z" />
<glyph unicode="&#x139;" horiz-adv-x="1132" d="M70 1591l73 -110l467 229l-129 170zM158 0h964v248h-688v1118h-276v-1366z" />
<glyph unicode="&#x13a;" horiz-adv-x="534" d="M41 1591l74 -110l467 229l-129 170zM133 0h268v1395l-268 -41v-1354z" />
<glyph unicode="&#x13b;" horiz-adv-x="1132" d="M158 0h964v248h-688v1118h-276v-1366zM403 -371h189l176 281h-238z" />
<glyph unicode="&#x13c;" horiz-adv-x="534" d="M14 -371h189l176 281h-238zM133 0h268v1395l-268 -41v-1354z" />
<glyph unicode="&#x13d;" horiz-adv-x="1132" d="M158 0h964v248h-688v1118h-276v-1366zM557 1018h150l69 348h-219v-348z" />
<glyph unicode="&#x13e;" horiz-adv-x="534" d="M133 0h268v1395l-268 -41v-1354zM504 1018h149l70 348h-219v-348z" />
<glyph unicode="&#x13f;" horiz-adv-x="1132" d="M158 0h964v248h-688v1118h-276v-1366zM715 714.5q0 -63.5 41 -110.5t102.5 -47t103.5 47t42 110.5t-42 110.5t-103.5 47t-102.5 -47t-41 -110.5z" />
<glyph unicode="&#x140;" horiz-adv-x="753" d="M133 0h268v1395l-268 -41v-1354zM506 714.5q0 -63.5 41 -110.5t102.5 -47t103.5 47t42 110.5t-42 110.5t-103.5 47t-102.5 -47t-41 -110.5z" />
<glyph unicode="&#x141;" horiz-adv-x="1132" d="M-72 608l109 -168l121 72v-512h966v248h-690v432l305 188l-116 170l-189 -118v446h-276v-616z" />
<glyph unicode="&#x142;" horiz-adv-x="620" d="M-41 608l94 -159l123 73v-522h268v680l252 156l-98 155l-154 -98v502l-268 -41v-617z" />
<glyph unicode="&#x143;" horiz-adv-x="1423" d="M158 0h272v903l594 -903h242v1366h-273v-852l-553 852h-282v-1366zM494 1591l73 -110l467 229l-129 170z" />
<glyph unicode="&#x144;" horiz-adv-x="1189" d="M133 0h268v700q98 98 217 99q109 0 146 -60q31 -51 31 -176v-563h268v584q0 428 -373 428q-174 0 -301 -103l-14 90l-242 -36v-963zM330 1212l73 -110l467 229l-129 170z" />
<glyph unicode="&#x145;" horiz-adv-x="1423" d="M158 0h272v903l594 -903h242v1366h-273v-852l-553 852h-282v-1366zM508 -371h188l176 281h-237z" />
<glyph unicode="&#x146;" horiz-adv-x="1189" d="M133 0h268v700q98 98 217 99q109 0 146 -60q31 -51 31 -176v-563h268v584q0 428 -373 428q-174 0 -301 -103l-14 90l-242 -36v-963zM391 -371h189l176 281h-238z" />
<glyph unicode="&#x147;" horiz-adv-x="1423" d="M158 0h272v903l594 -903h242v1366h-273v-852l-553 852h-282v-1366zM377 1759l248 -266h196l248 272l-141 84l-207 -194l-207 196z" />
<glyph unicode="&#x148;" horiz-adv-x="1189" d="M133 0h268v700q98 98 217 99q109 0 146 -60q31 -51 31 -176v-563h268v584q0 428 -373 428q-174 0 -301 -103l-14 90l-242 -36v-963zM258 1380l248 -266h196l248 272l-141 84l-207 -194l-207 197z" />
<glyph unicode="&#x149;" horiz-adv-x="1222" d="M102 1130l27 -81q133 33 213 112q63 63 64 142q0 53 -34 88.5t-83 35.5q-53 0 -84 -38.5t-31 -90.5q0 -68 49 -104q-43 -48 -121 -64zM166 0h268v700q98 98 217 99q109 0 146 -60q31 -51 30 -176v-563h269v584q0 428 -373 428q-174 0 -301 -103l-14 90l-242 -36v-963z " />
<glyph unicode="&#x14a;" horiz-adv-x="1423" d="M158 0h272v903l569 -866q0 -92 -32 -148q-35 -55 -138 -127l148 -163q150 82 213 172q76 106 76 268v1327h-273v-852l-553 852h-282v-1366z" />
<glyph unicode="&#x14b;" horiz-adv-x="1189" d="M133 0h268v700q98 98 217 99q109 0 146 -60q31 -51 31 -176v-563q-4 -74 -40 -125t-128 -113l147 -163q145 82 209 159q80 102 80 242v584q0 428 -373 428q-174 0 -301 -103l-14 90l-242 -36v-963z" />
<glyph unicode="&#x14c;" horiz-adv-x="1447" d="M92 684q0 -287 156 -487q174 -226 473 -226q297 0 477 226q158 197 158 487.5t-158 486.5q-178 223 -477 224q-297 0 -473 -224q-156 -199 -156 -487zM356 1563h744v182h-744v-182zM371 684.5q0 192.5 90 325.5q96 143 260 143q168 0 264 -143q90 -133 90 -325.5 t-90 -326.5q-96 -143 -264 -143q-164 0 -260 143q-90 134 -90 326.5z" />
<glyph unicode="&#x14d;" horiz-adv-x="1138" d="M72 498q0 -211 125 -357q137 -164 372.5 -164t374.5 164q123 147 123 357q0 207 -123 354q-139 160 -375 160q-238 0 -372 -160q-125 -145 -125 -354zM203 1184h743v182h-743v-182zM334 498q0 133 61 213q63 86 174 86t176 -86q59 -82 60 -213q0 -129 -60 -213 q-66 -88 -176 -88q-113 0 -174 88q-61 82 -61 213z" />
<glyph unicode="&#x14e;" horiz-adv-x="1447" d="M92 684q0 -287 156 -487q174 -226 473 -226q297 0 477 226q158 197 158 487.5t-158 486.5q-178 223 -477 224q-297 0 -473 -224q-156 -199 -156 -487zM371 684.5q0 192.5 90 325.5q96 143 260 143q168 0 264 -143q90 -133 90 -325.5t-90 -326.5q-96 -143 -264 -143 q-164 0 -260 143q-90 134 -90 326.5zM387 1772q2 -137 109 -216q96 -74 235 -73q131 0 232 76q109 84 110 213h-205q-27 -125 -137 -125q-106 0 -133 125h-211z" />
<glyph unicode="&#x14f;" horiz-adv-x="1138" d="M72 498q0 -211 125 -357q137 -164 372.5 -164t374.5 164q123 147 123 357q0 207 -123 354q-139 160 -375 160q-238 0 -372 -160q-125 -145 -125 -354zM238 1393q2 -137 108 -215q94 -74 236 -74q131 0 231 76q109 84 111 213h-205q-27 -125 -137 -125q-106 0 -133 125 h-211zM334 498q0 133 61 213q63 86 174 86t176 -86q59 -82 60 -213q0 -129 -60 -213q-66 -88 -176 -88q-113 0 -174 88q-61 82 -61 213z" />
<glyph unicode="&#x150;" horiz-adv-x="1447" d="M92 684q0 -287 156 -487q174 -226 473 -226q297 0 477 226q158 197 158 487.5t-158 486.5q-178 223 -477 224q-297 0 -473 -224q-156 -199 -156 -487zM369 1583l86 -96l387 250l-137 155zM371 684.5q0 192.5 90 325.5q96 143 260 143q168 0 264 -143q90 -133 90 -325.5 t-90 -326.5q-96 -143 -264 -143q-164 0 -260 143q-90 134 -90 326.5zM752 1575l90 -96l387 250l-144 155z" />
<glyph unicode="&#x151;" horiz-adv-x="1138" d="M72 498q0 -211 125 -357q137 -164 372.5 -164t374.5 164q123 147 123 357q0 207 -123 354q-139 160 -375 160q-238 0 -372 -160q-125 -145 -125 -354zM229 1196l80 -88l387 250l-131 147zM334 498q0 133 61 213q63 86 174 86t176 -86q59 -82 60 -213q0 -129 -60 -213 q-66 -88 -176 -88q-113 0 -174 88q-61 82 -61 213zM606 1196l82 -88l387 250l-135 147z" />
<glyph unicode="&#x152;" horiz-adv-x="1937" d="M92 684q0 -305 201 -496q195 -188 504 -188h1083v248h-663v311h501v248h-501v311h616v248h-1036q-311 0 -504 -182q-201 -188 -201 -500zM371 684q0 197 118 320q115 115 293 114h158v-870h-158q-174 0 -290 123q-121 127 -121 313z" />
<glyph unicode="&#x153;" horiz-adv-x="1728" d="M72 495.5q0 -227.5 133 -370.5q131 -147 340 -147.5t344 145.5q139 -145 362 -146q270 0 414 236l-199 121q-55 -80 -106 -108.5t-113 -28.5q-198 0 -225 233h645q0 262 -108 416q-117 166 -349 166q-119 0 -196 -39q-70 -33 -127 -105q-106 143 -338 144 q-211 0 -344 -144q-133 -145 -133 -372.5zM336 498q0 147 67 229q57 70 142 70q82 0 143 -70q66 -82 66 -225q0 -129 -47 -211q-55 -96 -162 -96t-162 100q-47 82 -47 203zM1024 614q4 68 57.5 131.5t132.5 63.5q86 0 138 -66q43 -57 47 -129h-375z" />
<glyph unicode="&#x154;" horiz-adv-x="1275" d="M158 0h270v512h150l337 -512h314l-352 532q319 94 319 422q0 217 -158 326q-125 86 -333 86h-547v-1366zM403 1591l74 -110l467 229l-129 170zM428 748v380h215q152 0 216.5 -46t64.5 -146q0 -96 -64.5 -142t-216.5 -46h-215z" />
<glyph unicode="&#x155;" horiz-adv-x="759" d="M133 0h268v692q66 88 177 88q61 0 147 -35l47 232q-92 31 -154 31q-131 0 -229 -107l-14 98l-242 -36v-963zM207 1212l74 -110l467 229l-130 170z" />
<glyph unicode="&#x156;" horiz-adv-x="1275" d="M158 0h270v512h150l337 -512h314l-352 532q319 94 319 422q0 217 -158 326q-125 86 -333 86h-547v-1366zM428 -371h188l177 281h-238zM428 748v380h215q152 0 216.5 -46t64.5 -146q0 -96 -64.5 -142t-216.5 -46h-215z" />
<glyph unicode="&#x157;" horiz-adv-x="759" d="M20 -371h189l176 281h-238zM133 0h268v692q66 88 177 88q61 0 147 -35l47 232q-92 31 -154 31q-131 0 -229 -107l-14 98l-242 -36v-963z" />
<glyph unicode="&#x158;" horiz-adv-x="1275" d="M158 0h270v512h150l337 -512h314l-352 532q319 94 319 422q0 217 -158 326q-125 86 -333 86h-547v-1366zM297 1759l248 -266h196l248 272l-141 84l-207 -194l-207 196zM428 748v380h215q152 0 216.5 -46t64.5 -146q0 -96 -64.5 -142t-216.5 -46h-215z" />
<glyph unicode="&#x159;" horiz-adv-x="759" d="M106 1380l248 -266h197l248 272l-142 84l-206 -194l-207 197zM133 0h268v692q66 88 177 88q61 0 147 -35l47 232q-92 31 -154 31q-131 0 -229 -107l-14 98l-242 -36v-963z" />
<glyph unicode="&#x15a;" horiz-adv-x="1138" d="M53 223q152 -252 522 -252q207 0 345 99q152 111 151 299q0 176 -108 280q-94 92 -316 170q-152 53 -215 99.5t-63 115.5q0 61 55 97t158 36q201 0 282 -151l199 141q-70 109 -168 166q-127 72 -311 72q-236 0 -361 -107q-121 -100 -121 -274q0 -160 105 -258 q80 -78 278 -148q190 -66 252 -116q63 -53 64 -138q0 -68 -62.5 -108.5t-167.5 -40.5q-211 -1 -307 157zM330 1591l73 -110l467 229l-129 170z" />
<glyph unicode="&#x15b;" horiz-adv-x="993" d="M59 211q133 -233 453 -234q188 0 301 76q123 80 123 234q0 139 -100 215q-90 68 -281 106q-113 23 -152 43q-41 23 -41 68q0 92 152 92q143 0 229 -115l189 129q-127 186 -418 187q-188 0 -295 -82q-111 -84 -110 -215q0 -133 94 -207q76 -61 252 -100q137 -27 186 -60 q45 -29 45 -74q0 -96 -162 -96q-184 0 -266 154zM272 1212l74 -110l467 229l-129 170z" />
<glyph unicode="&#x15c;" horiz-adv-x="1138" d="M53 223q152 -252 522 -252q207 0 345 99q152 111 151 299q0 176 -108 280q-94 92 -316 170q-152 53 -215 99.5t-63 115.5q0 61 55 97t158 36q201 0 282 -151l199 141q-70 109 -168 166q-127 72 -311 72q-236 0 -361 -107q-121 -100 -121 -274q0 -160 105 -258 q80 -78 278 -148q190 -66 252 -116q63 -53 64 -138q0 -68 -62.5 -108.5t-167.5 -40.5q-211 -1 -307 157zM236 1585l137 -92l207 199l206 -197l142 86l-248 270h-197z" />
<glyph unicode="&#x15d;" horiz-adv-x="993" d="M59 211q133 -233 453 -234q188 0 301 76q123 80 123 234q0 139 -100 215q-90 68 -281 106q-113 23 -152 43q-41 23 -41 68q0 92 152 92q143 0 229 -115l189 129q-127 186 -418 187q-188 0 -295 -82q-111 -84 -110 -215q0 -133 94 -207q76 -61 252 -100q137 -27 186 -60 q45 -29 45 -74q0 -96 -162 -96q-184 0 -266 154zM164 1206l137 -92l207 199l207 -197l141 86l-248 271h-196z" />
<glyph unicode="&#x15e;" horiz-adv-x="1138" d="M53 223q140 -232 459 -250l-76 -108q68 -4 109 -15q49 -12 49 -43q0 -43 -59 -43q-92 0 -152 31l-55 -151q80 -43 200 -43q131 0 205 51t74 149q0 96 -131 125l45 60q147 29 248 125q102 102 102 258q0 176 -108 280q-94 92 -316 170q-152 53 -215 99.5t-63 115.5 q0 61 55 97t158 36q184 0 282 -151l199 141q-70 109 -168 166q-127 72 -311 72q-236 0 -361 -107q-121 -100 -121 -274q0 -160 105 -258q80 -78 278 -148q190 -66 252 -116q63 -53 64 -138q0 -68 -62.5 -108.5t-167.5 -40.5q-211 0 -307 157z" />
<glyph unicode="&#x15f;" horiz-adv-x="993" d="M59 211q111 -202 373 -229l-74 -107q61 -4 119 -16q59 -18 60 -47q0 -49 -74 -50q-76 0 -144 27l-51 -137q88 -39 193 -39q129 0 200.5 49t71.5 139q0 53 -42 88t-99 43l39 54q305 51 305 301q0 139 -100 215q-90 68 -281 106q-113 23 -152 43q-41 23 -41 68q0 92 152 92 q143 0 229 -115l189 129q-127 186 -418 187q-184 0 -294.5 -82t-110.5 -213q0 -133 94 -211q82 -68 252 -98q135 -25 182 -58q49 -33 49 -76q0 -45 -46 -70.5t-128 -25.5q-172 0 -254 154z" />
<glyph unicode="&#x160;" horiz-adv-x="1138" d="M53 223q152 -252 522 -252q207 0 345 99q152 111 151 299q0 176 -108 280q-94 92 -316 170q-152 53 -215 99.5t-63 115.5q0 61 55 97t158 36q201 0 282 -151l199 141q-70 109 -168 166q-127 72 -311 72q-236 0 -361 -107q-121 -100 -121 -274q0 -160 105 -258 q80 -78 278 -148q190 -66 252 -116q63 -53 64 -138q0 -68 -62.5 -108.5t-167.5 -40.5q-211 -1 -307 157zM246 1759l248 -266h196l248 272l-141 84l-207 -194l-207 196z" />
<glyph unicode="&#x161;" horiz-adv-x="993" d="M59 211q133 -233 453 -234q188 0 301 76q123 80 123 234q0 139 -100 215q-90 68 -281 106q-113 23 -152 43q-41 23 -41 68q0 92 152 92q143 0 229 -115l189 129q-127 186 -418 187q-188 0 -295 -82q-111 -84 -110 -215q0 -133 94 -207q76 -61 252 -100q137 -27 186 -60 q45 -29 45 -74q0 -96 -162 -96q-184 0 -266 154zM172 1380l248 -266h196l248 272l-141 84l-207 -194l-207 197z" />
<glyph unicode="&#x162;" horiz-adv-x="1112" d="M10 1118h408v-1118h43l-96 -135q68 -4 108 -15q49 -12 49 -43q0 -43 -59 -43q-92 0 -152 31l-55 -151q80 -43 201 -43q131 0 204.5 51t73.5 149q0 96 -131 125l55 74h37v1118h406v248h-1092v-248z" />
<glyph unicode="&#x163;" horiz-adv-x="753" d="M31 782h145v-542q0 -193 166 -246l-82 -119q61 -4 119 -16q59 -18 59 -47q0 -49 -73 -50q-76 0 -144 27l-51 -137q88 -39 192 -39q129 0 201 49t72 139q0 53 -42 88t-99 43l36 54q117 20 220 92l-97 182q-80 -63 -147 -63q-25 0 -44.5 19.5t-19.5 62.5v503h224l32 205 h-256v270l-266 -40v-230h-145v-205z" />
<glyph unicode="&#x164;" horiz-adv-x="1112" d="M10 1118h408v-1118h278v1118h406v248h-1092v-248zM217 1759l248 -266h197l247 272l-141 84l-207 -194l-207 196z" />
<glyph unicode="&#x165;" horiz-adv-x="753" d="M31 782h145v-542q0 -133 86 -203q72 -59 187 -60q150 0 301 101l-97 182q-80 -63 -147 -63q-25 0 -44.5 19.5t-19.5 62.5v503h224l32 205h-256v270l-266 -40v-230h-145v-205zM545 1087h149l70 349h-219v-349z" />
<glyph unicode="&#x166;" horiz-adv-x="1112" d="M10 1118h408v-354h-316v-199h316v-565h278v565h308v199h-308v354h406v248h-1092v-248z" />
<glyph unicode="&#x167;" horiz-adv-x="753" d="M31 424h145v-184q0 -133 86 -203q72 -59 187 -60q150 0 301 101l-97 182q-80 -63 -147 -63q-25 0 -44.5 19.5t-19.5 62.5v145h240v207h-240v151h224l32 205h-256v270l-266 -40v-230h-145v-205h145v-151h-145v-207z" />
<glyph unicode="&#x168;" horiz-adv-x="1406" d="M150 469q0 -225 161 -365q152 -133 391 -133q238 0 394 133q162 139 161 365v897h-276v-870q0 -127 -72.5 -204t-204 -77t-205 77t-73.5 204v870h-276v-897zM367 1485l139 -70q41 111 78 111q23 0 90 -41q88 -53 143 -53q68 0 126 62.5t85 158.5l-141 71 q-39 -111 -80 -110q-16 0 -86 41q-82 53 -139 53q-72 0 -131.5 -63.5t-83.5 -159.5z" />
<glyph unicode="&#x169;" horiz-adv-x="1185" d="M127 399q0 -197 90 -305q96 -115 283 -114q172 0 297 98l10 -78h246v987h-269v-704q-111 -90 -217 -90q-102 0 -139 61q-33 55 -33 172v575l-268 -40v-562zM238 1130l139 -69q41 111 78 110q23 0 90 -41q88 -53 143 -53q68 0 126 62.5t85 158.5l-141 72 q-39 -111 -80 -110q-16 0 -86 40q-82 53 -139 54q-72 0 -131.5 -63.5t-83.5 -160.5z" />
<glyph unicode="&#x16a;" horiz-adv-x="1406" d="M150 469q0 -225 161 -365q152 -133 391 -133q238 0 394 133q162 139 161 365v897h-276v-870q0 -127 -72.5 -204t-204 -77t-205 77t-73.5 204v870h-276v-897zM336 1563h743v182h-743v-182z" />
<glyph unicode="&#x16b;" horiz-adv-x="1185" d="M127 399q0 -197 90 -305q96 -115 283 -114q172 0 297 98l10 -78h246v987h-269v-704q-111 -90 -217 -90q-102 0 -139 61q-33 55 -33 172v575l-268 -40v-562zM225 1184h744v182h-744v-182z" />
<glyph unicode="&#x16c;" horiz-adv-x="1406" d="M150 469q0 -225 161 -365q152 -133 391 -133q238 0 394 133q162 139 161 365v897h-276v-870q0 -127 -72.5 -204t-204 -77t-205 77t-73.5 204v870h-276v-897zM365 1772q2 -137 108 -216q94 -74 236 -73q131 0 231 76q109 84 111 213h-205q-27 -125 -137 -125 q-107 0 -134 125h-210z" />
<glyph unicode="&#x16d;" horiz-adv-x="1185" d="M127 399q0 -197 90 -305q96 -115 283 -114q172 0 297 98l10 -78h246v987h-269v-704q-111 -90 -217 -90q-102 0 -139 61q-33 55 -33 172v575l-268 -40v-562zM252 1393q2 -137 108 -215q94 -74 236 -74q131 0 231 76q109 84 111 213h-205q-27 -125 -137 -125 q-106 0 -133 125h-211z" />
<glyph unicode="&#x16e;" horiz-adv-x="1406" d="M150 469q0 -225 161 -365q152 -133 391 -133q238 0 394 133q162 139 161 365v897h-276v-870q0 -127 -72.5 -204t-204 -77t-205 77t-73.5 204v870h-276v-897zM489 1604q0 -94 58.5 -157t154.5 -63q104 0 162 72q53 63 53.5 151.5t-53.5 151.5q-59 70 -162 70 q-100 0 -159 -70q-53 -66 -54 -155zM623 1610q0 41 21.5 66.5t58 25.5t59 -25.5t22.5 -68.5t-22.5 -69t-59.5 -26q-39 0 -59 28t-20 69z" />
<glyph unicode="&#x16f;" horiz-adv-x="1185" d="M127 399q0 -197 90 -305q96 -115 283 -114q172 0 297 98l10 -78h246v987h-269v-704q-111 -90 -217 -90q-102 0 -139 61q-33 55 -33 172v575l-268 -40v-562zM377 1303q0 -94 58.5 -157t154.5 -63q104 0 162 72q53 63 53 151.5t-53 151.5q-59 70 -162 70q-100 0 -160 -70 q-53 -66 -53 -155zM510 1309q0 41 21.5 66.5t58.5 25.5t59.5 -25.5t22.5 -68.5t-22.5 -69t-59.5 -26q-39 0 -59.5 28t-20.5 69z" />
<glyph unicode="&#x170;" horiz-adv-x="1406" d="M150 469q0 -225 161 -365q152 -133 391 -133q238 0 394 133q162 139 161 365v897h-276v-870q0 -127 -72.5 -204t-204 -77t-205 77t-73.5 204v870h-276v-897zM373 1583l86 -96l387 250l-137 155zM756 1575l90 -96l387 250l-143 155z" />
<glyph unicode="&#x171;" horiz-adv-x="1185" d="M127 399q0 -197 90 -305q96 -115 283 -114q172 0 297 98l10 -78h246v987h-269v-704q-111 -90 -217 -90q-102 0 -139 61q-33 55 -33 172v575l-268 -40v-562zM256 1196l80 -88l387 250l-131 147zM633 1196l82 -88l387 250l-135 147z" />
<glyph unicode="&#x172;" horiz-adv-x="1406" d="M150 469q0 -178 94 -293q160 -205 454 -205l-20 -24q-55 -72 -55 -148q0 -82 54 -127t157 -45q91 0 157 37l-49 137q-33 -18 -74 -18q-49 0 -49 55q0 92 117 172q88 35 160 92q162 141 161 367v897h-276v-870q0 -127 -72.5 -204t-204 -77t-205 77t-73.5 204v870h-276 v-897z" />
<glyph unicode="&#x173;" horiz-adv-x="1185" d="M127 399q0 -197 90 -305q96 -115 283 -114q172 0 297 98l10 -78q-109 -82 -109 -201q0 -82 54.5 -127t156.5 -45q92 0 158 37l-49 137q-33 -18 -74 -18q-49 0 -49 55q0 86 102 162h56v987h-269v-704q-111 -90 -217 -90q-102 0 -139 61q-33 55 -33 172v575l-268 -40v-562z " />
<glyph unicode="&#x174;" horiz-adv-x="1593" d="M0 1366l311 -1366h174l310 915l311 -915h174l313 1366h-274l-172 -811l-266 811h-170l-267 -811l-168 811h-276zM455 1585l137 -92l207 199l207 -197l141 86l-248 270h-197z" />
<glyph unicode="&#x175;" horiz-adv-x="1468" d="M0 987l352 -987h195l186 571l189 -571h194l352 987h-278l-178 -594l-197 594h-164l-194 -594l-178 594h-279zM391 1206l137 -92l207 199l207 -197l141 86l-247 271h-197z" />
<glyph unicode="&#x176;" horiz-adv-x="1189" d="M0 1366l461 -817v-549h276v549l453 817h-303l-283 -543l-297 543h-307zM260 1585l137 -92l207 199l207 -197l141 86l-247 270h-197z" />
<glyph unicode="&#x177;" horiz-adv-x="1058" d="M0 987l410 -946l-76 -170q-33 -72 -94 -72q-70 0 -142 35l-84 -190q129 -55 250 -56q209 0 283 179l512 1220h-271l-245 -674l-258 674h-285zM203 1206l137 -92l207 199l207 -197l141 86l-248 271h-196z" />
<glyph unicode="&#x178;" horiz-adv-x="1189" d="M0 1366l461 -817v-549h276v549l453 817h-303l-283 -543l-297 543h-307zM281 1671q0 -59 38 -102t95 -43q55 0 94 44t39 101q0 59 -38 102.5t-95 43.5q-59 0 -96 -42t-37 -104zM666 1671q0 -57 39 -101t94 -44q57 0 95 43t38 102q0 61 -37 103.5t-96 42.5q-57 0 -95 -43 t-38 -103z" />
<glyph unicode="&#x179;" horiz-adv-x="1175" d="M70 0h1046v248h-702l690 885v233h-977v-248h639l-696 -893v-225zM358 1591l74 -110l467 229l-129 170z" />
<glyph unicode="&#x17a;" horiz-adv-x="1040" d="M74 0h872l33 203h-590l557 592v192h-850v-205h543l-565 -600v-182zM272 1212l74 -110l467 229l-129 170z" />
<glyph unicode="&#x17b;" horiz-adv-x="1175" d="M70 0h1046v248h-702l690 885v233h-977v-248h639l-696 -893v-225zM479 1671.5q0 -63.5 41 -111t102.5 -47.5t103.5 47.5t42 111t-42 110.5t-103.5 47t-102.5 -47t-41 -110.5z" />
<glyph unicode="&#x17c;" horiz-adv-x="1040" d="M74 0h872l33 203h-590l557 592v192h-850v-205h543l-565 -600v-182zM391 1292.5q0 -63.5 41 -110.5t102.5 -47t103.5 47t42 110.5t-42 110.5t-103.5 47t-102.5 -47t-41 -110.5z" />
<glyph unicode="&#x17d;" horiz-adv-x="1175" d="M70 0h1046v248h-702l690 885v233h-977v-248h639l-696 -893v-225zM274 1759l248 -266h197l248 272l-142 84l-207 -194l-206 196z" />
<glyph unicode="&#x17e;" horiz-adv-x="1040" d="M74 0h872l33 203h-590l557 592v192h-850v-205h543l-565 -600v-182zM195 1380l247 -266h197l248 272l-142 84l-206 -194l-207 197z" />
<glyph unicode="&#x17f;" horiz-adv-x="686" d="M170 0h268v1020q0 150 119 149q94 0 182 -41l78 205q-123 59 -303 60q-154 0 -244 -88q-100 -96 -100 -283v-1022z" />
<glyph unicode="&#x192;" d="M-55 -41v-238q268 2 407 127q127 111 189 359l116 483h365v234h-305q39 129 100 174q68 47 205 47v235q-225 0 -358 -84q-168 -104 -226 -372h-231v-234h174l-127 -510q-53 -211 -309 -221z" />
<glyph unicode="&#x1a0;" horiz-adv-x="1447" d="M92 684q0 289 156 487q176 223 473 224q199 0 344 -101q35 8 57 31v2q20 14 21 35q0 8 -8 14q-25 23 -60 29l-33 4l80 143l19 -4q76 -25 123 -73q53 -59 43 -125q-6 -63 -62 -121q-29 -29 -55 -47q2 -2 4 -5l4 -6q158 -197 158 -487.5t-158 -486.5q-180 -225 -477 -226 q-299 0 -473 226q-156 201 -156 487zM371 684.5q0 -192.5 90 -326.5q96 -143 260 -143q168 0 264 143q90 133 90 326t-90 326q-96 143 -264 143q-164 0 -260 -143q-90 -133 -90 -325.5z" />
<glyph unicode="&#x1a1;" horiz-adv-x="1138" d="M72 498q0 209 125 354q135 160 372 160q170 0 293 -86q47 6 74 32l2 3q18 14 18 34q0 8 -6 15q-27 23 -61 28l-33 4l80 144l18 -4q76 -25 123 -74q53 -59 43 -125q-6 -63 -61 -121q-39 -39 -78 -61q86 -131 86 -303q0 -209 -123 -357q-139 -164 -374.5 -164t-372.5 164 q-125 145 -125 357zM334 498q0 -131 61 -213q61 -88 174 -88q110 0 176 88q59 84 60 213q0 131 -60 213q-66 86 -176 86t-174 -86q-61 -80 -61 -213z" />
<glyph unicode="&#x1af;" horiz-adv-x="1406" d="M150 469v897h276v-870q0 -127 73.5 -204t205 -77t204 77t72.5 204v870h276v-55q12 8 17 14h2v2q18 12 18 35q0 8 -6 14q-25 23 -59 29l-33 4l80 143l18 -4q72 -23 123 -73q51 -61 43 -125q-6 -63 -61.5 -121t-141.5 -92v-668q0 -225 -161 -365q-156 -133 -394 -133 q-240 0 -391 133q-162 139 -161 365z" />
<glyph unicode="&#x1b0;" horiz-adv-x="1185" d="M127 399v562l268 40v-575q0 -117 33 -172q37 -61 139 -61q106 0 217 90v704h269v-41q12 8 16 15h2v2q18 12 19 34q0 8 -7 15q-29 23 -61 28l-31 4l80 144l19 -4q72 -23 122 -74q51 -61 43 -125q-6 -59 -61 -121q-55 -57 -141 -92v-772h-246l-10 78q-125 -98 -297 -98 q-186 0 -283 114q-90 109 -90 305z" />
<glyph unicode="&#x218;" horiz-adv-x="1138" d="M53 223q152 -252 522 -252q207 0 345 99q152 111 151 299q0 176 -108 280q-94 92 -316 170q-152 53 -215 99.5t-63 115.5q0 61 55 97t158 36q201 0 282 -151l199 141q-70 109 -168 166q-127 72 -311 72q-236 0 -361 -107q-121 -100 -121 -274q0 -160 105 -258 q80 -78 278 -148q190 -66 252 -116q63 -53 64 -138q0 -68 -62.5 -108.5t-167.5 -40.5q-211 -1 -307 157zM367 -371h188l176 281h-237z" />
<glyph unicode="&#x219;" horiz-adv-x="993" d="M59 211q133 -233 453 -234q188 0 301 76q123 80 123 234q0 139 -100 215q-90 68 -281 106q-113 23 -152 43q-41 23 -41 68q0 92 152 92q143 0 229 -115l189 129q-127 186 -418 187q-188 0 -295 -82q-111 -84 -110 -215q0 -133 94 -207q76 -61 252 -100q137 -27 186 -60 q45 -29 45 -74q0 -96 -162 -96q-184 0 -266 154zM303 -371h189l176 281h-238z" />
<glyph unicode="&#x21a;" horiz-adv-x="1112" d="M10 1118h408v-1118h278v1118h406v248h-1092v-248zM307 -371h189l176 281h-238z" />
<glyph unicode="&#x21b;" horiz-adv-x="753" d="M31 782h145v-542q0 -133 86 -203q72 -59 187 -60q150 0 301 101l-97 182q-80 -63 -147 -63q-25 0 -44.5 19.5t-19.5 62.5v503h224l32 205h-256v270l-266 -40v-230h-145v-205zM182 -371h189l176 281h-238z" />
<glyph unicode="&#x2c6;" horiz-adv-x="905" d="M106 1206l138 -92l207 199l206 -197l142 86l-248 271h-197z" />
<glyph unicode="&#x2c7;" horiz-adv-x="905" d="M106 1380l248 -266h197l248 272l-142 84l-206 -194l-207 197z" />
<glyph unicode="&#x2d8;" horiz-adv-x="905" d="M109 1393q2 -137 108 -215q94 -74 236 -74q131 0 231 76q109 84 111 213h-205q-27 -125 -137 -125q-107 0 -134 125h-210z" />
<glyph unicode="&#x2d9;" horiz-adv-x="905" d="M309 1292.5q0 -63.5 41 -110.5t102.5 -47t103.5 47t42 110.5t-42 110.5t-103.5 47t-102.5 -47t-41 -110.5z" />
<glyph unicode="&#x2da;" horiz-adv-x="905" d="M240 1303q0 -94 58.5 -157t154.5 -63q104 0 161 72q53 63 53.5 151.5t-53.5 151.5q-59 70 -161 70q-100 0 -160 -70q-53 -66 -53 -155zM373 1309q0 41 21.5 66.5t58 25.5t59.5 -25.5t23 -68.5t-23 -69t-59 -26q-39 0 -59.5 28t-20.5 69z" />
<glyph unicode="&#x2db;" horiz-adv-x="905" d="M207 -201q0 -82 54 -127t157 -45q91 0 157 37l-49 137q-33 -18 -73 -18q-49 0 -50 55q0 45 39 97.5t99 87.5l-142 20q-78 -23 -137 -96q-55 -68 -55 -148z" />
<glyph unicode="&#x2dc;" horiz-adv-x="905" d="M51 1180l142 -74q16 45 49 86q37 43 75 43q27 0 121 -57q98 -59 156 -60q180 0 260 238l-139 71q-20 -49 -54 -89t-73 -40q-25 0 -56 19l-65 41q-98 57 -156 57q-90 0 -156.5 -63t-103.5 -172z" />
<glyph unicode="&#x2dd;" horiz-adv-x="905" d="M31 1196l80 -88l387 250l-131 147zM408 1196l81 -88l388 250l-136 147z" />
<glyph unicode="&#x3a9;" horiz-adv-x="1501" d="M102 760q0 -322 215 -514h-194v-246h514v233q-102 76 -166 183q-86 139 -86 305q0 207 98.5 319.5t268.5 112.5q168 0 266 -112.5t98 -319.5q0 -174 -82 -307q-61 -100 -172 -181v-233h516v246h-215q96 70 162 207q74 154 74 313q0 287 -170 457q-172 172 -471 172 q-295 0 -475.5 -174t-180.5 -461z" />
<glyph unicode="&#x3c0;" horiz-adv-x="1488" d="M10 801l170 -127q57 74 103 90q33 12 79 12h17v-776h268v778h277v-545q0 -127 66.5 -191.5t185.5 -64.5q100 0 192 31l-33 185q-45 -12 -84 -13q-43 0 -57 19.5t-14 81.5v503h200l33 203h-1044q-61 0 -113 -10q-147 -33 -246 -176z" />
<glyph unicode="&#x1e80;" horiz-adv-x="1593" d="M0 1366l311 -1366h174l310 915l311 -915h174l313 1366h-274l-172 -811l-266 811h-170l-267 -811l-168 811h-276zM498 1710l469 -229l71 110l-411 289z" />
<glyph unicode="&#x1e81;" horiz-adv-x="1468" d="M0 987l352 -987h195l186 571l189 -571h194l352 987h-278l-178 -594l-197 594h-164l-194 -594l-178 594h-279zM442 1331l469 -229l72 110l-412 289z" />
<glyph unicode="&#x1e82;" horiz-adv-x="1593" d="M0 1366l311 -1366h174l310 915l311 -915h174l313 1366h-274l-172 -811l-266 811h-170l-267 -811l-168 811h-276zM567 1591l74 -110l467 229l-129 170z" />
<glyph unicode="&#x1e83;" horiz-adv-x="1468" d="M0 987l352 -987h195l186 571l189 -571h194l352 987h-278l-178 -594l-197 594h-164l-194 -594l-178 594h-279zM504 1212l74 -110l466 229l-129 170z" />
<glyph unicode="&#x1e84;" horiz-adv-x="1593" d="M0 1366l311 -1366h174l310 915l311 -915h174l313 1366h-274l-172 -811l-266 811h-170l-267 -811l-168 811h-276zM471 1671q0 -59 38 -102t95 -43q55 0 94 44t39 101q0 59 -37.5 102.5t-95.5 43.5q-59 0 -96 -42t-37 -104zM856 1671q0 -57 39 -101t94 -44q57 0 95 43 t38 102q0 61 -36.5 103.5t-96.5 42.5q-57 0 -95 -43t-38 -103z" />
<glyph unicode="&#x1e85;" horiz-adv-x="1468" d="M0 987l352 -987h195l186 571l189 -571h194l352 987h-278l-178 -594l-197 594h-164l-194 -594l-178 594h-279zM408 1292q0 -59 38 -102t95 -43q55 0 94 44t39 101q0 59 -38 102.5t-95 43.5q-59 0 -96 -42t-37 -104zM793 1292q0 -57 39 -101t94 -44q57 0 95 43t38 102 q0 61 -37 103.5t-96 42.5q-57 0 -95 -43t-38 -103z" />
<glyph unicode="&#x1ea0;" horiz-adv-x="1325" d="M0 0h279l112 274h527l110 -274h297l-569 1366h-195zM475 506l176 448l176 -448h-352zM494 -231q0 -59 42 -102.5t117.5 -43.5t117.5 43t42 103q0 57 -42 100t-117.5 43t-117.5 -43t-42 -100z" />
<glyph unicode="&#x1ea1;" horiz-adv-x="1052" d="M70 291q0 -141 104 -230q100 -84 238 -84q164 0 256 97l12 -74h246v635q0 193 -109 289q-100 88 -282 88q-104 0 -197 -33q-123 -43 -193 -133l183 -127q76 88 184 88q143 0 143 -133v-33q-252 -18 -381 -72q-205 -86 -204 -278zM330 297q0 94 106 131q53 19 221 33v-201 q-82 -72 -182 -72q-72 0 -108.5 29t-36.5 80zM365 -231q0 -59 42 -102.5t117.5 -43.5t117.5 43t42 103q0 57 -42 100t-117.5 43t-117.5 -43t-42 -100z" />
<glyph unicode="&#x1ea2;" horiz-adv-x="1325" d="M0 0h279l112 274h527l110 -274h297l-569 1366h-195zM418 1757q14 72 80.5 119t154.5 47q86 0 159 -58.5t73 -138.5q0 -100 -99 -182q-43 -35 -49 -49t-10 -84l-154 90q0 25 3.5 42.5t14.5 33.5t18 23.5t27.5 26t29.5 24.5v-2q2 2 16 14t20.5 24.5t6.5 29t-18.5 32.5 t-41.5 18h2q-33 2 -51 -16.5t-41 -73.5zM475 506l176 448l176 -448h-352z" />
<glyph unicode="&#x1ea3;" horiz-adv-x="1052" d="M70 291q0 -141 104 -230q100 -84 238 -84q164 0 256 97l12 -74h246v635q0 193 -109 289q-100 88 -282 88q-104 0 -197 -33q-123 -43 -193 -133l183 -127q76 88 184 88q143 0 143 -133v-33q-252 -18 -381 -72q-205 -86 -204 -278zM291 1403q14 72 80.5 119t154.5 47 q86 0 159 -58.5t73 -138.5q0 -100 -99 -182q-43 -35 -49 -49.5t-10 -83.5l-154 90q0 25 3.5 42t14.5 33.5t18 23.5t27.5 25.5t29.5 24.5v-2q2 2 16 14.5t20.5 25t6.5 28.5t-18.5 32.5t-41.5 18.5h2q-33 2 -51 -16.5t-41 -73.5zM330 297q0 94 106 131q53 19 221 33v-201 q-82 -72 -182 -72q-72 0 -108.5 29t-36.5 80z" />
<glyph unicode="&#x1ea4;" horiz-adv-x="1325" d="M0 0h279l112 274h527l110 -274h297l-569 1366h-195zM344 1505l137 -94l170 164l170 -162l144 86l-224 244h-176zM475 506l176 448l176 -448h-352zM799 1800l73 -110l340 168l-129 170z" />
<glyph unicode="&#x1ea5;" horiz-adv-x="1052" d="M70 291q0 -141 104 -230q100 -84 238 -84q164 0 256 97l12 -74h246v635q0 193 -109 289q-100 88 -282 88q-104 0 -197 -33q-123 -43 -193 -133l183 -127q76 88 184 88q143 0 143 -133v-33q-252 -18 -381 -72q-205 -86 -204 -278zM219 1151l137 -94l170 164l170 -162 l144 86l-224 244h-176zM330 297q0 94 106 131q53 19 221 33v-201q-82 -72 -182 -72q-72 0 -108.5 29t-36.5 80zM674 1446l74 -111l339 168l-129 170z" />
<glyph unicode="&#x1ea6;" horiz-adv-x="1325" d="M0 0h279l112 274h527l110 -274h297l-569 1366h-195zM344 1505l137 -94l170 164l170 -162l144 86l-224 244h-176zM475 506l176 448l176 -448h-352zM614 1858l340 -168l74 110l-285 228z" />
<glyph unicode="&#x1ea7;" horiz-adv-x="1052" d="M70 291q0 -141 104 -230q100 -84 238 -84q164 0 256 97l12 -74h246v635q0 193 -109 289q-100 88 -282 88q-104 0 -197 -33q-123 -43 -193 -133l183 -127q76 88 184 88q143 0 143 -133v-33q-252 -18 -381 -72q-205 -86 -204 -278zM219 1151l137 -94l170 164l170 -162 l144 86l-224 244h-176zM330 297q0 94 106 131q53 19 221 33v-201q-82 -72 -182 -72q-72 0 -108.5 29t-36.5 80zM489 1503l340 -168l74 111l-285 227z" />
<glyph unicode="&#x1ea8;" horiz-adv-x="1325" d="M0 0h279l112 274h527l110 -274h297l-569 1366h-195zM344 1505l137 -94l170 164l170 -162l144 86l-224 244h-176zM475 506l176 448l176 -448h-352zM643 2013q14 72 81 119t155 47q86 0 158.5 -58.5t72.5 -138.5q0 -100 -98 -182q-43 -35 -49.5 -49t-10.5 -84l-153 90 q0 25 3 42.5t14 33.5t18.5 23.5t28 26t28.5 24.5v-2q2 2 16.5 14t20.5 24.5t6 29t-18.5 32.5t-41.5 18h3q-33 2 -51.5 -16.5t-41.5 -73.5z" />
<glyph unicode="&#x1ea9;" horiz-adv-x="1052" d="M70 291q0 -141 104 -230q100 -84 238 -84q164 0 256 97l12 -74h246v635q0 193 -109 289q-100 88 -282 88q-104 0 -197 -33q-123 -43 -193 -133l183 -127q76 88 184 88q143 0 143 -133v-33q-252 -18 -381 -72q-205 -86 -204 -278zM219 1151l137 -94l170 164l170 -162 l144 86l-224 244h-176zM330 297q0 94 106 131q53 19 221 33v-201q-82 -72 -182 -72q-72 0 -108.5 29t-36.5 80zM518 1659q14 72 81 119t155 47q86 0 158.5 -58.5t72.5 -138.5q0 -100 -98 -182q-43 -35 -49.5 -49.5t-10.5 -83.5l-153 90q0 25 3 42t14 33.5t18.5 23.5t28 25.5 t28.5 24.5v-2q2 2 16.5 14.5t20.5 25t6 28.5t-18.5 32.5t-40.5 18.5h2q-33 2 -51.5 -16.5t-41.5 -73.5z" />
<glyph unicode="&#x1eaa;" horiz-adv-x="1325" d="M0 0h279l112 274h527l110 -274h297l-569 1366h-195zM319 1841l140 -69q41 111 78 110q23 0 90 -41q88 -53 143 -53q68 0 126 62.5t85 158.5l-141 72q-39 -111 -80 -111q-16 0 -86 41q-82 53 -139 53q-72 0 -131.5 -63.5t-84.5 -159.5zM344 1505l137 -94l170 164l170 -162 l144 86l-224 244h-176zM475 506l176 448l176 -448h-352z" />
<glyph unicode="&#x1eab;" horiz-adv-x="1052" d="M70 291q0 -141 104 -230q100 -84 238 -84q164 0 256 97l12 -74h246v635q0 193 -109 289q-100 88 -282 88q-104 0 -197 -33q-123 -43 -193 -133l183 -127q76 88 184 88q143 0 143 -133v-33q-252 -18 -381 -72q-205 -86 -204 -278zM195 1487l139 -70q41 111 78 111 q23 0 90 -41q88 -53 143 -53q68 0 126 62.5t85 158.5l-141 71q-39 -111 -80 -110q-16 0 -86 41q-82 53 -139 53q-72 0 -131.5 -63.5t-83.5 -159.5zM219 1151l137 -94l170 164l170 -162l144 86l-224 244h-176zM330 297q0 94 106 131q53 19 221 33v-201q-82 -72 -182 -72 q-72 0 -108.5 29t-36.5 80z" />
<glyph unicode="&#x1eac;" horiz-adv-x="1325" d="M0 0h279l112 274h527l110 -274h297l-569 1366h-195zM344 1505l137 -94l170 164l170 -162l144 86l-224 244h-176zM475 506l176 448l176 -448h-352zM494 -231q0 -59 42 -102.5t117.5 -43.5t117.5 43t42 103q0 57 -42 100t-117.5 43t-117.5 -43t-42 -100z" />
<glyph unicode="&#x1ead;" horiz-adv-x="1052" d="M70 291q0 -141 104 -230q100 -84 238 -84q164 0 256 97l12 -74h246v635q0 193 -109 289q-100 88 -282 88q-104 0 -197 -33q-123 -43 -193 -133l183 -127q76 88 184 88q143 0 143 -133v-33q-252 -18 -381 -72q-205 -86 -204 -278zM219 1151l137 -94l170 164l170 -162 l144 86l-224 244h-176zM330 297q0 94 106 131q53 19 221 33v-201q-82 -72 -182 -72q-72 0 -108.5 29t-36.5 80zM365 -231q0 -59 42 -102.5t117.5 -43.5t117.5 43t42 103q0 57 -42 100t-117.5 43t-117.5 -43t-42 -100z" />
<glyph unicode="&#x1eae;" horiz-adv-x="1325" d="M0 0h279l112 274h527l110 -274h297l-569 1366h-195zM360 1716q2 -133 93 -213q84 -72 202 -71q111 0 197 73q92 82 94 211h-174q-23 -123 -117 -123q-91 0 -114 123h-181zM475 506l176 448l176 -448h-352zM543 1800l73 -110l340 168l-129 170z" />
<glyph unicode="&#x1eaf;" horiz-adv-x="1052" d="M70 291q0 -141 104 -230q100 -84 238 -84q164 0 256 97l12 -74h246v635q0 193 -109 289q-100 88 -282 88q-104 0 -197 -33q-123 -43 -193 -133l183 -127q76 88 184 88q143 0 143 -133v-33q-252 -18 -381 -72q-205 -86 -204 -278zM233 1362q2 -133 93 -213q84 -72 202 -72 q111 0 197 74q92 82 94 211h-174q-23 -123 -117 -123q-91 0 -114 123h-181zM330 297q0 94 106 131q53 19 221 33v-201q-82 -72 -182 -72q-72 0 -108.5 29t-36.5 80zM416 1446l73 -111l340 168l-129 170z" />
<glyph unicode="&#x1eb0;" horiz-adv-x="1325" d="M0 0h279l112 274h527l110 -274h297l-569 1366h-195zM360 1716q2 -133 93 -213q84 -72 202 -71q111 0 197 73q92 82 94 211h-174q-23 -123 -117 -123q-91 0 -114 123h-181zM369 1858l340 -168l73 110l-284 228zM475 506l176 448l176 -448h-352z" />
<glyph unicode="&#x1eb1;" horiz-adv-x="1052" d="M70 291q0 -141 104 -230q100 -84 238 -84q164 0 256 97l12 -74h246v635q0 193 -109 289q-100 88 -282 88q-104 0 -197 -33q-123 -43 -193 -133l183 -127q76 88 184 88q143 0 143 -133v-33q-252 -18 -381 -72q-205 -86 -204 -278zM233 1362q2 -133 93 -213q84 -72 202 -72 q111 0 197 74q92 82 94 211h-174q-23 -123 -117 -123q-91 0 -114 123h-181zM242 1503l340 -168l73 111l-284 227zM330 297q0 94 106 131q53 19 221 33v-201q-82 -72 -182 -72q-72 0 -108.5 29t-36.5 80z" />
<glyph unicode="&#x1eb2;" horiz-adv-x="1325" d="M0 0h279l112 274h527l110 -274h297l-569 1366h-195zM360 1716q2 -133 93 -213q84 -72 202 -71q111 0 197 73q92 82 94 211h-174q-23 -123 -117 -123q-91 0 -114 123h-181zM418 2013q14 72 80.5 119t154.5 47q86 0 159 -58.5t73 -138.5q0 -100 -99 -182q-43 -35 -49 -49 t-10 -84l-154 90q0 25 3.5 42.5t14.5 33.5t18 23.5t27.5 26t29.5 24.5v-2q2 2 16 14t20.5 24.5t6.5 29t-18.5 32.5t-41.5 18h2q-33 2 -51 -16.5t-41 -73.5zM475 506l176 448l176 -448h-352z" />
<glyph unicode="&#x1eb3;" horiz-adv-x="1052" d="M70 291q0 -141 104 -230q100 -84 238 -84q164 0 256 97l12 -74h246v635q0 193 -109 289q-100 88 -282 88q-104 0 -197 -33q-123 -43 -193 -133l183 -127q76 88 184 88q143 0 143 -133v-33q-252 -18 -381 -72q-205 -86 -204 -278zM233 1362q2 -133 93 -213q84 -72 202 -72 q111 0 197 74q92 82 94 211h-174q-23 -123 -117 -123q-91 0 -114 123h-181zM291 1659q14 72 80.5 119t154.5 47q86 0 159 -58.5t73 -138.5q0 -100 -99 -182q-43 -35 -49 -49.5t-10 -83.5l-154 90q0 25 3.5 42t14.5 33.5t18 23.5t27.5 25.5t29.5 24.5v-2q2 2 16 14.5t20.5 25 t6.5 28.5t-18.5 32.5t-41.5 18.5h2q-33 2 -51 -16.5t-41 -73.5zM330 297q0 94 106 131q53 19 221 33v-201q-82 -72 -182 -72q-72 0 -108.5 29t-36.5 80z" />
<glyph unicode="&#x1eb4;" horiz-adv-x="1325" d="M0 0h279l112 274h527l110 -274h297l-569 1366h-195zM319 1841l140 -69q41 111 78 110q23 0 90 -41q88 -53 143 -53q68 0 126 62.5t85 158.5l-141 72q-39 -111 -80 -111q-16 0 -86 41q-82 53 -139 53q-72 0 -131.5 -63.5t-84.5 -159.5zM360 1716q2 -133 93 -213 q84 -72 202 -71q111 0 197 73q92 82 94 211h-174q-23 -123 -117 -123q-91 0 -114 123h-181zM475 506l176 448l176 -448h-352z" />
<glyph unicode="&#x1eb5;" horiz-adv-x="1052" d="M70 291q0 -141 104 -230q100 -84 238 -84q164 0 256 97l12 -74h246v635q0 193 -109 289q-100 88 -282 88q-104 0 -197 -33q-123 -43 -193 -133l183 -127q76 88 184 88q143 0 143 -133v-33q-252 -18 -381 -72q-205 -86 -204 -278zM193 1487l139 -70q41 111 78 111 q23 0 90 -41q88 -53 143 -53q68 0 126 62.5t85 158.5l-141 71q-39 -111 -80 -110q-16 0 -86 41q-82 53 -139 53q-72 0 -131.5 -63.5t-83.5 -159.5zM233 1362q2 -133 93 -213q84 -72 202 -72q111 0 197 74q92 82 94 211h-174q-23 -123 -117 -123q-91 0 -114 123h-181z M330 297q0 94 106 131q53 19 221 33v-201q-82 -72 -182 -72q-72 0 -108.5 29t-36.5 80z" />
<glyph unicode="&#x1eb6;" horiz-adv-x="1325" d="M0 0h279l112 274h527l110 -274h297l-569 1366h-195zM360 1716q2 -133 93 -213q84 -72 202 -71q111 0 197 73q92 82 94 211h-174q-23 -123 -117 -123q-91 0 -114 123h-181zM475 506l176 448l176 -448h-352zM494 -231q0 -59 42 -102.5t117.5 -43.5t117.5 43t42 103 q0 57 -42 100t-117.5 43t-117.5 -43t-42 -100z" />
<glyph unicode="&#x1eb7;" horiz-adv-x="1052" d="M70 291q0 -141 104 -230q100 -84 238 -84q164 0 256 97l12 -74h246v635q0 193 -109 289q-100 88 -282 88q-104 0 -197 -33q-123 -43 -193 -133l183 -127q76 88 184 88q143 0 143 -133v-33q-252 -18 -381 -72q-205 -86 -204 -278zM233 1362q2 -133 93 -213q84 -72 202 -72 q111 0 197 74q92 82 94 211h-174q-23 -123 -117 -123q-91 0 -114 123h-181zM330 297q0 94 106 131q53 19 221 33v-201q-82 -72 -182 -72q-72 0 -108.5 29t-36.5 80zM365 -231q0 -59 42 -102.5t117.5 -43.5t117.5 43t42 103q0 57 -42 100t-117.5 43t-117.5 -43t-42 -100z" />
<glyph unicode="&#x1eb8;" horiz-adv-x="1200" d="M158 0h985v248h-709v311h547v248h-547v311h662v248h-938v-1366zM494 -231q0 -59 42 -102.5t117.5 -43.5t117.5 43t42 103q0 57 -42 100t-117.5 43t-117.5 -43t-42 -100z" />
<glyph unicode="&#x1eb9;" horiz-adv-x="1075" d="M72 494q0 -250 145 -390q129 -127 340 -127q154 0 262.5 54.5t192.5 179.5l-199 121q-57 -82 -113.5 -109.5t-134.5 -27.5q-90 0 -147 55q-66 63 -78 180h674q-4 287 -127 434.5t-336 147.5q-203 0 -338 -135q-141 -141 -141 -383zM346 612q12 88 72.5 142.5t132.5 54.5 t125 -49q57 -54 65 -148h-395zM385 -231q0 -59 42 -102.5t118 -43.5t118 43t42 103q0 57 -42 100t-118 43t-118 -43t-42 -100z" />
<glyph unicode="&#x1eba;" horiz-adv-x="1200" d="M158 0h985v248h-709v311h547v248h-547v311h662v248h-938v-1366zM418 1757q14 72 80.5 119t154.5 47q86 0 159 -58.5t73 -138.5q0 -100 -99 -182q-43 -35 -49 -49t-10 -84l-154 90q0 25 3.5 42.5t14.5 33.5t18 23.5t27.5 26t29.5 24.5v-2q2 2 16 14t20.5 24.5t6.5 29 t-18.5 32.5t-41.5 18h2q-33 2 -51 -16.5t-41 -73.5z" />
<glyph unicode="&#x1ebb;" horiz-adv-x="1075" d="M72 494q0 -250 145 -390q129 -127 340 -127q154 0 262.5 54.5t192.5 179.5l-199 121q-57 -82 -113.5 -109.5t-134.5 -27.5q-90 0 -147 55q-66 63 -78 180h674q-4 287 -127 434.5t-336 147.5q-203 0 -338 -135q-141 -141 -141 -383zM311 1403q14 72 81 119t155 47 q86 0 158.5 -58.5t72.5 -138.5q0 -100 -98 -182q-43 -35 -49 -49.5t-10 -83.5l-154 90q0 25 3 42t14.5 33.5t18.5 23.5t27.5 25.5t28.5 24.5v-2q2 2 16.5 14.5t20.5 25t6 28.5t-18.5 32.5t-40.5 18.5h2q-33 2 -51 -16.5t-41 -73.5zM346 612q12 88 72.5 142.5t132.5 54.5 t125 -49q57 -54 65 -148h-395z" />
<glyph unicode="&#x1ebc;" horiz-adv-x="1200" d="M158 0h985v248h-709v311h547v248h-547v311h662v248h-938v-1366zM319 1485l140 -70q41 111 78 111q23 0 90 -41q88 -53 143 -53q68 0 126 62.5t85 158.5l-141 71q-39 -111 -80 -110q-16 0 -86 41q-82 53 -139 53q-72 0 -131.5 -63.5t-84.5 -159.5z" />
<glyph unicode="&#x1ebd;" horiz-adv-x="1075" d="M72 494q0 -250 145 -390q129 -127 340 -127q154 0 262.5 54.5t192.5 179.5l-199 121q-57 -82 -113.5 -109.5t-134.5 -27.5q-90 0 -147 55q-66 63 -78 180h674q-4 287 -127 434.5t-336 147.5q-203 0 -338 -135q-141 -141 -141 -383zM213 1130l139 -69q41 111 78 110 q23 0 90 -41q88 -53 144 -53q68 0 125.5 62.5t84.5 158.5l-141 72q-39 -111 -80 -110q-16 0 -86 40q-82 53 -139 54q-72 0 -131 -63.5t-84 -160.5zM346 612q12 88 72.5 142.5t132.5 54.5t125 -49q57 -54 65 -148h-395z" />
<glyph unicode="&#x1ebe;" horiz-adv-x="1200" d="M158 0h985v248h-709v311h547v248h-547v311h662v248h-938v-1366zM344 1505l137 -94l170 164l170 -162l144 86l-224 244h-176zM799 1800l73 -110l340 168l-129 170z" />
<glyph unicode="&#x1ebf;" horiz-adv-x="1075" d="M72 494q0 -250 145 -390q129 -127 340 -127q154 0 262.5 54.5t192.5 179.5l-199 121q-57 -82 -113.5 -109.5t-134.5 -27.5q-90 0 -147 55q-66 63 -78 180h674q-4 287 -127 434.5t-336 147.5q-203 0 -338 -135q-141 -141 -141 -383zM240 1151l137 -94l170 164l170 -162 l143 86l-223 244h-176zM346 612q12 88 72.5 142.5t132.5 54.5t125 -49q57 -54 65 -148h-395zM694 1446l74 -111l340 168l-129 170z" />
<glyph unicode="&#x1ec0;" horiz-adv-x="1200" d="M158 0h985v248h-709v311h547v248h-547v311h662v248h-938v-1366zM344 1505l137 -94l170 164l170 -162l144 86l-224 244h-176zM614 1858l340 -168l74 110l-285 228z" />
<glyph unicode="&#x1ec1;" horiz-adv-x="1075" d="M72 494q0 -250 145 -390q129 -127 340 -127q154 0 262.5 54.5t192.5 179.5l-199 121q-57 -82 -113.5 -109.5t-134.5 -27.5q-90 0 -147 55q-66 63 -78 180h674q-4 287 -127 434.5t-336 147.5q-203 0 -338 -135q-141 -141 -141 -383zM240 1151l137 -94l170 164l170 -162 l143 86l-223 244h-176zM346 612q12 88 72.5 142.5t132.5 54.5t125 -49q57 -54 65 -148h-395zM510 1503l340 -168l74 111l-285 227z" />
<glyph unicode="&#x1ec2;" horiz-adv-x="1200" d="M158 0h985v248h-709v311h547v248h-547v311h662v248h-938v-1366zM344 1505l137 -94l170 164l170 -162l144 86l-224 244h-176zM643 2013q14 72 81 119t155 47q86 0 158.5 -58.5t72.5 -138.5q0 -100 -98 -182q-43 -35 -49.5 -49t-10.5 -84l-153 90q0 25 3 42.5t14 33.5 t18.5 23.5t28 26t28.5 24.5v-2q2 2 16.5 14t20.5 24.5t6 29t-18.5 32.5t-41.5 18h3q-33 2 -51.5 -16.5t-41.5 -73.5z" />
<glyph unicode="&#x1ec3;" horiz-adv-x="1075" d="M72 494q0 -250 145 -390q129 -127 340 -127q154 0 262.5 54.5t192.5 179.5l-199 121q-57 -82 -113.5 -109.5t-134.5 -27.5q-90 0 -147 55q-66 63 -78 180h674q-4 287 -127 434.5t-336 147.5q-203 0 -338 -135q-141 -141 -141 -383zM240 1151l137 -94l170 164l170 -162 l143 86l-223 244h-176zM346 612q12 88 72.5 142.5t132.5 54.5t125 -49q57 -54 65 -148h-395zM539 1659q14 72 80.5 119t154.5 47q86 0 159 -58.5t73 -138.5q0 -100 -99 -182q-43 -35 -49 -49.5t-10 -83.5l-154 90q0 25 3 42t14.5 33.5t18.5 23.5t27.5 25.5t28.5 24.5v-2 q2 2 16.5 14.5t20.5 25t6 28.5t-18 32.5t-41 18.5h2q-33 2 -51 -16.5t-41 -73.5z" />
<glyph unicode="&#x1ec4;" horiz-adv-x="1200" d="M158 0h985v248h-709v311h547v248h-547v311h662v248h-938v-1366zM319 1841l140 -69q41 111 78 110q23 0 90 -41q88 -53 143 -53q68 0 126 62.5t85 158.5l-141 72q-39 -111 -80 -111q-16 0 -86 41q-82 53 -139 53q-72 0 -131.5 -63.5t-84.5 -159.5zM344 1505l137 -94 l170 164l170 -162l144 86l-224 244h-176z" />
<glyph unicode="&#x1ec5;" horiz-adv-x="1075" d="M72 494q0 -250 145 -390q129 -127 340 -127q154 0 262.5 54.5t192.5 179.5l-199 121q-57 -82 -113.5 -109.5t-134.5 -27.5q-90 0 -147 55q-66 63 -78 180h674q-4 287 -127 434.5t-336 147.5q-203 0 -338 -135q-141 -141 -141 -383zM215 1487l139 -70q41 111 78 111 q23 0 90 -41q88 -53 144 -53q68 0 126 62.5t85 158.5l-142 71q-39 -111 -80 -110q-16 0 -86 41q-82 53 -139 53q-72 0 -131 -63.5t-84 -159.5zM240 1151l137 -94l170 164l170 -162l143 86l-223 244h-176zM346 612q12 88 72.5 142.5t132.5 54.5t125 -49q57 -54 65 -148h-395z " />
<glyph unicode="&#x1ec6;" horiz-adv-x="1200" d="M158 0h985v248h-709v311h547v248h-547v311h662v248h-938v-1366zM344 1505l137 -94l170 164l170 -162l144 86l-224 244h-176zM494 -231q0 -59 42 -102.5t117.5 -43.5t117.5 43t42 103q0 57 -42 100t-117.5 43t-117.5 -43t-42 -100z" />
<glyph unicode="&#x1ec7;" horiz-adv-x="1075" d="M72 494q0 -250 145 -390q129 -127 340 -127q154 0 262.5 54.5t192.5 179.5l-199 121q-57 -82 -113.5 -109.5t-134.5 -27.5q-90 0 -147 55q-66 63 -78 180h674q-4 287 -127 434.5t-336 147.5q-203 0 -338 -135q-141 -141 -141 -383zM240 1151l137 -94l170 164l170 -162 l143 86l-223 244h-176zM346 612q12 88 72.5 142.5t132.5 54.5t125 -49q57 -54 65 -148h-395zM385 -231q0 -59 42 -102.5t118 -43.5t118 43t42 103q0 57 -42 100t-118 43t-118 -43t-42 -100z" />
<glyph unicode="&#x1ec8;" horiz-adv-x="591" d="M57 1757q14 72 81 119t155 47q86 0 158.5 -58.5t72.5 -138.5q0 -100 -98 -182q-43 -35 -49 -49t-10 -84l-154 90q0 25 3 42.5t14.5 33.5t18.5 23.5t27.5 26t28.5 24.5v-2q2 2 16.5 14t20.5 24.5t6 29t-18.5 32.5t-40.5 18h2q-33 2 -51 -16.5t-41 -73.5zM158 0h276v1366 h-276v-1366z" />
<glyph unicode="&#x1ec9;" horiz-adv-x="532" d="M35 1403q14 72 80.5 119t154.5 47q86 0 159 -58.5t73 -138.5q0 -100 -99 -182q-43 -35 -49 -49.5t-10 -83.5l-154 90q0 25 3.5 42t14.5 33.5t18 23.5t27.5 25.5t29.5 24.5v-2q2 2 16 14.5t20.5 25t6.5 28.5t-18.5 32.5t-41.5 18.5h2q-33 2 -51 -16.5t-41 -73.5zM133 0 h266v1001l-266 -40v-961z" />
<glyph unicode="&#x1eca;" horiz-adv-x="591" d="M135 -231q0 -59 42 -102.5t118 -43.5t118 43t42 103q0 57 -42 100t-118 43t-118 -43t-42 -100zM158 0h276v1366h-276v-1366z" />
<glyph unicode="&#x1ecb;" horiz-adv-x="532" d="M106 1245q0 -59 42 -102t118 -43t118 43t42 102q0 57 -42 100.5t-118 43.5t-118 -43t-42 -101zM109 -231q0 -59 42 -102.5t117.5 -43.5t117.5 43t42 102.5t-42 101.5t-117.5 42t-117.5 -43t-42 -100zM133 0h266v1001l-266 -40v-961z" />
<glyph unicode="&#x1ecc;" horiz-adv-x="1447" d="M92 684q0 -287 156 -487q174 -226 473 -226q297 0 477 226q158 197 158 487.5t-158 486.5q-178 223 -477 224q-297 0 -473 -224q-156 -199 -156 -487zM371 684.5q0 192.5 90 325.5q96 143 260 143q168 0 264 -143q90 -133 90 -325.5t-90 -326.5q-96 -143 -264 -143 q-164 0 -260 143q-90 134 -90 326.5zM561 -231q0 -59 42 -102.5t118 -43.5t118 43t42 103q0 57 -42 100t-118 43t-118 -43t-42 -100z" />
<glyph unicode="&#x1ecd;" horiz-adv-x="1138" d="M72 498q0 -211 125 -357q137 -164 372.5 -164t374.5 164q123 147 123 357q0 207 -123 354q-139 160 -375 160q-238 0 -372 -160q-125 -145 -125 -354zM334 498q0 133 61 213q63 86 174 86t176 -86q59 -82 60 -213q0 -129 -60 -213q-66 -88 -176 -88q-113 0 -174 88 q-61 82 -61 213zM410 -231q0 -59 42 -102.5t117.5 -43.5t117.5 43t42 103q0 57 -42 100t-117.5 43t-117.5 -43t-42 -100z" />
<glyph unicode="&#x1ece;" horiz-adv-x="1447" d="M92 684q0 -287 156 -487q174 -226 473 -226q297 0 477 226q158 197 158 487.5t-158 486.5q-178 223 -477 224q-297 0 -473 -224q-156 -199 -156 -487zM371 684.5q0 192.5 90 325.5q96 143 260 143q168 0 264 -143q90 -133 90 -325.5t-90 -326.5q-96 -143 -264 -143 q-164 0 -260 143q-90 134 -90 326.5zM485 1757q14 72 81 119t155 47q86 0 158.5 -58.5t72.5 -138.5q0 -100 -98 -182q-43 -35 -49 -49t-10 -84l-154 90q0 25 3 42.5t14.5 33.5t18.5 23.5t27.5 26t28.5 24.5v-2q2 2 16.5 14t20.5 24.5t6 29t-18.5 32.5t-40.5 18h2 q-33 2 -51 -16.5t-41 -73.5z" />
<glyph unicode="&#x1ecf;" horiz-adv-x="1138" d="M72 498q0 -211 125 -357q137 -164 372.5 -164t374.5 164q123 147 123 357q0 207 -123 354q-139 160 -375 160q-238 0 -372 -160q-125 -145 -125 -354zM334 498q0 133 61 213q63 86 174 86t176 -86q59 -82 60 -213q0 -129 -60 -213q-66 -88 -176 -88q-113 0 -174 88 q-61 82 -61 213zM336 1403q14 72 80.5 119t154.5 47q86 0 159 -58.5t73 -138.5q0 -100 -98 -182q-43 -35 -49.5 -49.5t-10.5 -83.5l-153 90q0 25 3 42t14 33.5t18.5 23.5t27.5 25.5t29 24.5v-2q2 2 16 14.5t20.5 25t6.5 28.5t-18.5 32.5t-41.5 18.5h2q-33 2 -51 -16.5 t-41 -73.5z" />
<glyph unicode="&#x1ed0;" horiz-adv-x="1447" d="M92 684q0 -287 156 -487q174 -226 473 -226q297 0 477 226q158 197 158 487.5t-158 486.5q-178 223 -477 224q-297 0 -473 -224q-156 -199 -156 -487zM371 684.5q0 192.5 90 325.5q96 143 260 143q168 0 264 -143q90 -133 90 -325.5t-90 -326.5q-96 -143 -264 -143 q-164 0 -260 143q-90 134 -90 326.5zM412 1505l137 -94l170 164l170 -162l143 86l-223 244h-176zM866 1800l74 -110l340 168l-129 170z" />
<glyph unicode="&#x1ed1;" horiz-adv-x="1138" d="M72 498q0 -211 125 -357q137 -164 372.5 -164t374.5 164q123 147 123 357q0 207 -123 354q-139 160 -375 160q-238 0 -372 -160q-125 -145 -125 -354zM264 1151l137 -94l170 164l170 -162l144 86l-223 244h-177zM334 498q0 133 61 213q63 86 174 86t176 -86 q59 -82 60 -213q0 -129 -60 -213q-66 -88 -176 -88q-113 0 -174 88q-61 82 -61 213zM719 1446l74 -111l340 168l-129 170z" />
<glyph unicode="&#x1ed2;" horiz-adv-x="1447" d="M92 684q0 -287 156 -487q174 -226 473 -226q297 0 477 226q158 197 158 487.5t-158 486.5q-178 223 -477 224q-297 0 -473 -224q-156 -199 -156 -487zM371 684.5q0 192.5 90 325.5q96 143 260 143q168 0 264 -143q90 -133 90 -325.5t-90 -326.5q-96 -143 -264 -143 q-164 0 -260 143q-90 134 -90 326.5zM412 1505l137 -94l170 164l170 -162l143 86l-223 244h-176zM682 1858l340 -168l74 110l-285 228z" />
<glyph unicode="&#x1ed3;" horiz-adv-x="1138" d="M72 498q0 -211 125 -357q137 -164 372.5 -164t374.5 164q123 147 123 357q0 207 -123 354q-139 160 -375 160q-238 0 -372 -160q-125 -145 -125 -354zM264 1151l137 -94l170 164l170 -162l144 86l-223 244h-177zM334 498q0 133 61 213q63 86 174 86t176 -86 q59 -82 60 -213q0 -129 -60 -213q-66 -88 -176 -88q-113 0 -174 88q-61 82 -61 213zM535 1503l339 -168l74 111l-284 227z" />
<glyph unicode="&#x1ed4;" horiz-adv-x="1447" d="M92 684q0 -287 156 -487q174 -226 473 -226q297 0 477 226q158 197 158 487.5t-158 486.5q-178 223 -477 224q-297 0 -473 -224q-156 -199 -156 -487zM371 684.5q0 192.5 90 325.5q96 143 260 143q168 0 264 -143q90 -133 90 -325.5t-90 -326.5q-96 -143 -264 -143 q-164 0 -260 143q-90 134 -90 326.5zM412 1505l137 -94l170 164l170 -162l143 86l-223 244h-176zM711 2013q14 72 80.5 119t154.5 47q86 0 159 -58.5t73 -138.5q0 -100 -99 -182q-43 -35 -49 -49t-10 -84l-154 90q0 25 3 42.5t14.5 33.5t18.5 23.5t27.5 26t28.5 24.5v-2 q2 2 16.5 14t20.5 24.5t6 29t-18 32.5t-41 18h2q-33 2 -51 -16.5t-41 -73.5z" />
<glyph unicode="&#x1ed5;" horiz-adv-x="1138" d="M72 498q0 -211 125 -357q137 -164 372.5 -164t374.5 164q123 147 123 357q0 207 -123 354q-139 160 -375 160q-238 0 -372 -160q-125 -145 -125 -354zM264 1151l137 -94l170 164l170 -162l144 86l-223 244h-177zM334 498q0 133 61 213q63 86 174 86t176 -86 q59 -82 60 -213q0 -129 -60 -213q-66 -88 -176 -88q-113 0 -174 88q-61 82 -61 213zM563 1659q14 72 81 119t155 47q86 0 158.5 -58.5t72.5 -138.5q0 -100 -98 -182q-43 -35 -49 -49.5t-11 -83.5l-153 90q0 25 3 42t14.5 33.5t18.5 23.5t27.5 25.5t28.5 24.5v-2 q2 2 16.5 14.5t20.5 25t6 28.5t-18.5 32.5t-40.5 18.5h2q-33 2 -51 -16.5t-41 -73.5z" />
<glyph unicode="&#x1ed6;" horiz-adv-x="1447" d="M92 684q0 -287 156 -487q174 -226 473 -226q297 0 477 226q158 197 158 487.5t-158 486.5q-178 223 -477 224q-297 0 -473 -224q-156 -199 -156 -487zM371 684.5q0 192.5 90 325.5q96 143 260 143q168 0 264 -143q90 -133 90 -325.5t-90 -326.5q-96 -143 -264 -143 q-164 0 -260 143q-90 134 -90 326.5zM387 1841l139 -69q41 111 78 110q23 0 90 -41q88 -53 144 -53q68 0 126 62.5t85 158.5l-142 72q-39 -111 -80 -111q-16 0 -86 41q-82 53 -139 53q-72 0 -131 -63.5t-84 -159.5zM412 1505l137 -94l170 164l170 -162l143 86l-223 244h-176 z" />
<glyph unicode="&#x1ed7;" horiz-adv-x="1138" d="M72 498q0 -211 125 -357q137 -164 372.5 -164t374.5 164q123 147 123 357q0 207 -123 354q-139 160 -375 160q-238 0 -372 -160q-125 -145 -125 -354zM240 1487l139 -70q41 111 78 111q23 0 90 -41q88 -53 143 -53q68 0 126 62.5t85 158.5l-141 71q-39 -111 -80 -110 q-16 0 -86 41q-82 53 -139 53q-72 0 -131.5 -63.5t-83.5 -159.5zM264 1151l137 -94l170 164l170 -162l144 86l-223 244h-177zM334 498q0 133 61 213q63 86 174 86t176 -86q59 -82 60 -213q0 -129 -60 -213q-66 -88 -176 -88q-113 0 -174 88q-61 82 -61 213z" />
<glyph unicode="&#x1ed8;" horiz-adv-x="1447" d="M92 684q0 -287 156 -487q174 -226 473 -226q297 0 477 226q158 197 158 487.5t-158 486.5q-178 223 -477 224q-297 0 -473 -224q-156 -199 -156 -487zM371 684.5q0 192.5 90 325.5q96 143 260 143q168 0 264 -143q90 -133 90 -325.5t-90 -326.5q-96 -143 -264 -143 q-164 0 -260 143q-90 134 -90 326.5zM412 1505l137 -94l170 164l170 -162l143 86l-223 244h-176zM561 -231q0 -59 42 -102.5t118 -43.5t118 43t42 103q0 57 -42 100t-118 43t-118 -43t-42 -100z" />
<glyph unicode="&#x1ed9;" horiz-adv-x="1138" d="M72 498q0 -211 125 -357q137 -164 372.5 -164t374.5 164q123 147 123 357q0 207 -123 354q-139 160 -375 160q-238 0 -372 -160q-125 -145 -125 -354zM264 1151l137 -94l170 164l170 -162l144 86l-223 244h-177zM334 498q0 133 61 213q63 86 174 86t176 -86 q59 -82 60 -213q0 -129 -60 -213q-66 -88 -176 -88q-113 0 -174 88q-61 82 -61 213zM410 -231q0 -59 42 -102.5t117.5 -43.5t117.5 43t42 103q0 57 -42 100t-117.5 43t-117.5 -43t-42 -100z" />
<glyph unicode="&#x1eda;" horiz-adv-x="1447" d="M92 684q0 289 156 487q176 223 473 224q199 0 344 -101q35 8 57 31v2q20 14 21 35q0 8 -8 14q-25 23 -60 29l-33 4l80 143l19 -4q76 -25 123 -73q53 -59 43 -125q-6 -63 -62 -121q-29 -29 -55 -47q2 -2 4 -5l4 -6q158 -197 158 -487.5t-158 -486.5q-180 -225 -477 -226 q-299 0 -473 226q-156 201 -156 487zM371 684.5q0 -192.5 90 -326.5q96 -143 260 -143q168 0 264 143q90 133 90 326t-90 326q-96 143 -264 143q-164 0 -260 -143q-90 -133 -90 -325.5zM610 1550l74 -110l340 168l-129 170z" />
<glyph unicode="&#x1edb;" horiz-adv-x="1138" d="M72 498q0 209 125 354q135 160 372 160q170 0 293 -86q47 6 74 32l2 3q18 14 18 34q0 8 -6 15q-27 23 -61 28l-33 4l80 144l18 -4q76 -25 123 -74q53 -59 43 -125q-6 -63 -61 -121q-39 -39 -78 -61q86 -131 86 -303q0 -209 -123 -357q-139 -164 -374.5 -164t-372.5 164 q-125 145 -125 357zM334 498q0 -131 61 -213q61 -88 174 -88q110 0 176 88q59 84 60 213q0 131 -60 213q-66 86 -176 86t-174 -86q-61 -80 -61 -213zM461 1196l74 -111l339 168l-129 170z" />
<glyph unicode="&#x1edc;" horiz-adv-x="1447" d="M92 684q0 289 156 487q176 223 473 224q199 0 344 -101q35 8 57 31v2q20 14 21 35q0 8 -8 14q-25 23 -60 29l-33 4l80 143l19 -4q76 -25 123 -73q53 -59 43 -125q-6 -63 -62 -121q-29 -29 -55 -47q2 -2 4 -5l4 -6q158 -197 158 -487.5t-158 -486.5q-180 -225 -477 -226 q-299 0 -473 226q-156 201 -156 487zM371 684.5q0 -192.5 90 -326.5q96 -143 260 -143q168 0 264 143q90 133 90 326t-90 326q-96 143 -264 143q-164 0 -260 -143q-90 -133 -90 -325.5zM428 1608l340 -168l74 110l-285 228z" />
<glyph unicode="&#x1edd;" horiz-adv-x="1138" d="M72 498q0 209 125 354q135 160 372 160q170 0 293 -86q47 6 74 32l2 3q18 14 18 34q0 8 -6 15q-27 23 -61 28l-33 4l80 144l18 -4q76 -25 123 -74q53 -59 43 -125q-6 -63 -61 -121q-39 -39 -78 -61q86 -131 86 -303q0 -209 -123 -357q-139 -164 -374.5 -164t-372.5 164 q-125 145 -125 357zM279 1253l339 -168l74 111l-284 227zM334 498q0 -131 61 -213q61 -88 174 -88q110 0 176 88q59 84 60 213q0 131 -60 213q-66 86 -176 86t-174 -86q-61 -80 -61 -213z" />
<glyph unicode="&#x1ede;" horiz-adv-x="1447" d="M92 684q0 289 156 487q176 223 473 224q199 0 344 -101q35 8 57 31v2q20 14 21 35q0 8 -8 14q-25 23 -60 29l-33 4l80 143l19 -4q76 -25 123 -73q53 -59 43 -125q-6 -63 -62 -121q-29 -29 -55 -47q2 -2 4 -5l4 -6q158 -197 158 -487.5t-158 -486.5q-180 -225 -477 -226 q-299 0 -473 226q-156 201 -156 487zM371 684.5q0 -192.5 90 -326.5q96 -143 260 -143q168 0 264 143q90 133 90 326t-90 326q-96 143 -264 143q-164 0 -260 -143q-90 -133 -90 -325.5zM485 1757q14 72 81 119t155 47q86 0 158.5 -58.5t72.5 -138.5q0 -100 -98 -182 q-43 -35 -49 -49t-10 -84l-154 90q0 25 3 42.5t14.5 33.5t18.5 23.5t27.5 26t28.5 24.5v-2q2 2 16.5 14t20.5 24.5t6 29t-18.5 32.5t-40.5 18h2q-33 2 -51 -16.5t-41 -73.5z" />
<glyph unicode="&#x1edf;" horiz-adv-x="1138" d="M72 498q0 209 125 354q135 160 372 160q170 0 293 -86q47 6 74 32l2 3q18 14 18 34q0 8 -6 15q-27 23 -61 28l-33 4l80 144l18 -4q76 -25 123 -74q53 -59 43 -125q-6 -63 -61 -121q-39 -39 -78 -61q86 -131 86 -303q0 -209 -123 -357q-139 -164 -374.5 -164t-372.5 164 q-125 145 -125 357zM334 498q0 -131 61 -213q61 -88 174 -88q110 0 176 88q59 84 60 213q0 131 -60 213q-66 86 -176 86t-174 -86q-61 -80 -61 -213zM336 1403q14 72 80.5 119t154.5 47q86 0 159 -58.5t73 -138.5q0 -100 -98 -182q-43 -35 -49.5 -49.5t-10.5 -83.5l-153 90 q0 25 3 42t14 33.5t18.5 23.5t27.5 25.5t29 24.5v-2q2 2 16 14.5t20.5 25t6.5 28.5t-18.5 32.5t-41.5 18.5h2q-33 2 -51 -16.5t-41 -73.5z" />
<glyph unicode="&#x1ee0;" horiz-adv-x="1447" d="M92 684q0 289 156 487q176 223 473 224q199 0 344 -101q35 8 57 31v2q20 14 21 35q0 8 -8 14q-25 23 -60 29l-33 4l80 143l19 -4q76 -25 123 -73q53 -59 43 -125q-6 -63 -62 -121q-29 -29 -55 -47q2 -2 4 -5l4 -6q158 -197 158 -487.5t-158 -486.5q-180 -225 -477 -226 q-299 0 -473 226q-156 201 -156 487zM371 684.5q0 -192.5 90 -326.5q96 -143 260 -143q168 0 264 143q90 133 90 326t-90 326q-96 143 -264 143q-164 0 -260 -143q-90 -133 -90 -325.5zM387 1485l139 -70q41 111 78 111q23 0 90 -41q88 -53 144 -53q68 0 126 62.5t85 158.5 l-142 71q-39 -111 -80 -110q-16 0 -86 41q-82 53 -139 53q-72 0 -131 -63.5t-84 -159.5z" />
<glyph unicode="&#x1ee1;" horiz-adv-x="1138" d="M72 498q0 209 125 354q135 160 372 160q170 0 293 -86q47 6 74 32l2 3q18 14 18 34q0 8 -6 15q-27 23 -61 28l-33 4l80 144l18 -4q76 -25 123 -74q53 -59 43 -125q-6 -63 -61 -121q-39 -39 -78 -61q86 -131 86 -303q0 -209 -123 -357q-139 -164 -374.5 -164t-372.5 164 q-125 145 -125 357zM238 1130l139 -69q41 111 78 110q23 0 90 -41q88 -53 143 -53q68 0 126 62.5t85 158.5l-141 72q-39 -111 -80 -110q-16 0 -86 40q-82 53 -139 54q-72 0 -131.5 -63.5t-83.5 -160.5zM334 498q0 -131 61 -213q61 -88 174 -88q110 0 176 88q59 84 60 213 q0 131 -60 213q-66 86 -176 86t-174 -86q-61 -80 -61 -213z" />
<glyph unicode="&#x1ee2;" horiz-adv-x="1447" d="M92 684q0 289 156 487q176 223 473 224q199 0 344 -101q35 8 57 31v2q20 14 21 35q0 8 -8 14q-25 23 -60 29l-33 4l80 143l19 -4q76 -25 123 -73q53 -59 43 -125q-6 -63 -62 -121q-29 -29 -55 -47q2 -2 4 -5l4 -6q158 -197 158 -487.5t-158 -486.5q-180 -225 -477 -226 q-299 0 -473 226q-156 201 -156 487zM371 684.5q0 -192.5 90 -326.5q96 -143 260 -143q168 0 264 143q90 133 90 326t-90 326q-96 143 -264 143q-164 0 -260 -143q-90 -133 -90 -325.5zM561 -231q0 -59 42 -102.5t118 -43.5t118 43t42 103q0 57 -42 100t-118 43t-118 -43 t-42 -100z" />
<glyph unicode="&#x1ee3;" horiz-adv-x="1138" d="M72 498q0 209 125 354q135 160 372 160q170 0 293 -86q47 6 74 32l2 3q18 14 18 34q0 8 -6 15q-27 23 -61 28l-33 4l80 144l18 -4q76 -25 123 -74q53 -59 43 -125q-6 -63 -61 -121q-39 -39 -78 -61q86 -131 86 -303q0 -209 -123 -357q-139 -164 -374.5 -164t-372.5 164 q-125 145 -125 357zM334 498q0 -131 61 -213q61 -88 174 -88q110 0 176 88q59 84 60 213q0 131 -60 213q-66 86 -176 86t-174 -86q-61 -80 -61 -213zM410 -231q0 -59 42 -102.5t117.5 -43.5t117.5 43t42 103q0 57 -42 100t-117.5 43t-117.5 -43t-42 -100z" />
<glyph unicode="&#x1ee4;" horiz-adv-x="1406" d="M150 469q0 -225 161 -365q152 -133 391 -133q238 0 394 133q162 139 161 365v897h-276v-870q0 -127 -72.5 -204t-204 -77t-205 77t-73.5 204v870h-276v-897zM541 -231q0 -59 42 -102.5t117.5 -43.5t117.5 43t42 103q0 57 -42 100t-117.5 43t-117.5 -43t-42 -100z" />
<glyph unicode="&#x1ee5;" horiz-adv-x="1185" d="M127 399q0 -197 90 -305q96 -115 283 -114q172 0 297 98l10 -78h246v987h-269v-704q-111 -90 -217 -90q-102 0 -139 61q-33 55 -33 172v575l-268 -40v-562zM410 -231q0 -59 42 -102.5t117.5 -43.5t117.5 43t42 103q0 57 -42 100t-117.5 43t-117.5 -43t-42 -100z" />
<glyph unicode="&#x1ee6;" horiz-adv-x="1406" d="M150 469q0 -225 161 -365q152 -133 391 -133q238 0 394 133q162 139 161 365v897h-276v-870q0 -127 -72.5 -204t-204 -77t-205 77t-73.5 204v870h-276v-897zM465 1757q14 72 80.5 119t154.5 47q86 0 159 -58.5t73 -138.5q0 -100 -98 -182q-43 -35 -49.5 -49t-10.5 -84 l-153 90q0 25 3 42.5t14 33.5t18.5 23.5t28 26t28.5 24.5v-2q2 2 16 14t20.5 24.5t6.5 29t-18.5 32.5t-41.5 18h2q-33 2 -51 -16.5t-41 -73.5z" />
<glyph unicode="&#x1ee7;" horiz-adv-x="1185" d="M127 399q0 -197 90 -305q96 -115 283 -114q172 0 297 98l10 -78h246v987h-269v-704q-111 -90 -217 -90q-102 0 -139 61q-33 55 -33 172v575l-268 -40v-562zM336 1403q14 72 80.5 119t154.5 47q86 0 159 -58.5t73 -138.5q0 -100 -98 -182q-43 -35 -49.5 -49.5t-10.5 -83.5 l-153 90q0 25 3 42t14 33.5t18.5 23.5t27.5 25.5t29 24.5v-2q2 2 16 14.5t20.5 25t6.5 28.5t-18.5 32.5t-41.5 18.5h2q-33 2 -51 -16.5t-41 -73.5z" />
<glyph unicode="&#x1ee8;" horiz-adv-x="1406" d="M150 469v897h276v-870q0 -127 73.5 -204t205 -77t204 77t72.5 204v870h276v-55q12 8 17 14h2v2q18 12 18 35q0 8 -6 14q-25 23 -59 29l-33 4l80 143l18 -4q72 -23 123 -73q51 -61 43 -125q-6 -63 -61.5 -121t-141.5 -92v-668q0 -225 -161 -365q-156 -133 -394 -133 q-240 0 -391 133q-162 139 -161 365zM590 1550l74 -110l340 168l-130 170z" />
<glyph unicode="&#x1ee9;" horiz-adv-x="1185" d="M127 399v562l268 40v-575q0 -117 33 -172q37 -61 139 -61q106 0 217 90v704h269v-41q12 8 16 15h2v2q18 12 19 34q0 8 -7 15q-29 23 -61 28l-31 4l80 144l19 -4q72 -23 122 -74q51 -61 43 -125q-6 -59 -61 -121q-55 -57 -141 -92v-772h-246l-10 78q-125 -98 -297 -98 q-186 0 -283 114q-90 109 -90 305zM461 1196l74 -111l339 168l-129 170z" />
<glyph unicode="&#x1eea;" horiz-adv-x="1406" d="M150 469v897h276v-870q0 -127 73.5 -204t205 -77t204 77t72.5 204v870h276v-55q12 8 17 14h2v2q18 12 18 35q0 8 -6 14q-25 23 -59 29l-33 4l80 143l18 -4q72 -23 123 -73q51 -61 43 -125q-6 -63 -61.5 -121t-141.5 -92v-668q0 -225 -161 -365q-156 -133 -394 -133 q-240 0 -391 133q-162 139 -161 365zM408 1608l340 -168l73 110l-284 228z" />
<glyph unicode="&#x1eeb;" horiz-adv-x="1185" d="M127 399v562l268 40v-575q0 -117 33 -172q37 -61 139 -61q106 0 217 90v704h269v-41q12 8 16 15h2v2q18 12 19 34q0 8 -7 15q-29 23 -61 28l-31 4l80 144l19 -4q72 -23 122 -74q51 -61 43 -125q-6 -59 -61 -121q-55 -57 -141 -92v-772h-246l-10 78q-125 -98 -297 -98 q-186 0 -283 114q-90 109 -90 305zM279 1253l339 -168l74 111l-284 227z" />
<glyph unicode="&#x1eec;" horiz-adv-x="1406" d="M150 469v897h276v-870q0 -127 73.5 -204t205 -77t204 77t72.5 204v870h276v-55q12 8 17 14h2v2q18 12 18 35q0 8 -6 14q-25 23 -59 29l-33 4l80 143l18 -4q72 -23 123 -73q51 -61 43 -125q-6 -63 -61.5 -121t-141.5 -92v-668q0 -225 -161 -365q-156 -133 -394 -133 q-240 0 -391 133q-162 139 -161 365zM465 1757q14 72 80.5 119t154.5 47q86 0 159 -58.5t73 -138.5q0 -100 -98 -182q-43 -35 -49.5 -49t-10.5 -84l-153 90q0 25 3 42.5t14 33.5t18.5 23.5t28 26t28.5 24.5v-2q2 2 16 14t20.5 24.5t6.5 29t-18.5 32.5t-41.5 18h2 q-33 2 -51 -16.5t-41 -73.5z" />
<glyph unicode="&#x1eed;" horiz-adv-x="1185" d="M127 399v562l268 40v-575q0 -117 33 -172q37 -61 139 -61q106 0 217 90v704h269v-41q12 8 16 15h2v2q18 12 19 34q0 8 -7 15q-29 23 -61 28l-31 4l80 144l19 -4q72 -23 122 -74q51 -61 43 -125q-6 -59 -61 -121q-55 -57 -141 -92v-772h-246l-10 78q-125 -98 -297 -98 q-186 0 -283 114q-90 109 -90 305zM336 1403q14 72 80.5 119t154.5 47q86 0 159 -58.5t73 -138.5q0 -100 -98 -182q-43 -35 -49.5 -49.5t-10.5 -83.5l-153 90q0 25 3 42t14 33.5t18.5 23.5t27.5 25.5t29 24.5v-2q2 2 16 14.5t20.5 25t6.5 28.5t-18.5 32.5t-41.5 18.5h2 q-33 2 -51 -16.5t-41 -73.5z" />
<glyph unicode="&#x1eee;" horiz-adv-x="1406" d="M150 469v897h276v-870q0 -127 73.5 -204t205 -77t204 77t72.5 204v870h276v-55q12 8 17 14h2v2q18 12 18 35q0 8 -6 14q-25 23 -59 29l-33 4l80 143l18 -4q72 -23 123 -73q51 -61 43 -125q-6 -63 -61.5 -121t-141.5 -92v-668q0 -225 -161 -365q-156 -133 -394 -133 q-240 0 -391 133q-162 139 -161 365zM367 1485l139 -70q41 111 78 111q23 0 90 -41q88 -53 143 -53q68 0 126 62.5t85 158.5l-141 71q-39 -111 -80 -110q-16 0 -86 41q-82 53 -139 53q-72 0 -131.5 -63.5t-83.5 -159.5z" />
<glyph unicode="&#x1eef;" horiz-adv-x="1185" d="M127 399v562l268 40v-575q0 -117 33 -172q37 -61 139 -61q106 0 217 90v704h269v-41q12 8 16 15h2v2q18 12 19 34q0 8 -7 15q-29 23 -61 28l-31 4l80 144l19 -4q72 -23 122 -74q51 -61 43 -125q-6 -59 -61 -121q-55 -57 -141 -92v-772h-246l-10 78q-125 -98 -297 -98 q-186 0 -283 114q-90 109 -90 305zM238 1130l139 -69q41 111 78 110q23 0 90 -41q88 -53 143 -53q68 0 126 62.5t85 158.5l-141 72q-39 -111 -80 -110q-16 0 -86 40q-82 53 -139 54q-72 0 -131.5 -63.5t-83.5 -160.5z" />
<glyph unicode="&#x1ef0;" horiz-adv-x="1406" d="M150 469v897h276v-870q0 -127 73.5 -204t205 -77t204 77t72.5 204v870h276v-55q12 8 17 14h2v2q18 12 18 35q0 8 -6 14q-25 23 -59 29l-33 4l80 143l18 -4q72 -23 123 -73q51 -61 43 -125q-6 -63 -61.5 -121t-141.5 -92v-668q0 -225 -161 -365q-156 -133 -394 -133 q-240 0 -391 133q-162 139 -161 365zM541 -231q0 -59 42 -102.5t117.5 -43.5t117.5 43t42 103q0 57 -42 100t-117.5 43t-117.5 -43t-42 -100z" />
<glyph unicode="&#x1ef1;" horiz-adv-x="1185" d="M127 399v562l268 40v-575q0 -117 33 -172q37 -61 139 -61q106 0 217 90v704h269v-41q12 8 16 15h2v2q18 12 19 34q0 8 -7 15q-29 23 -61 28l-31 4l80 144l19 -4q72 -23 122 -74q51 -61 43 -125q-6 -59 -61 -121q-55 -57 -141 -92v-772h-246l-10 78q-125 -98 -297 -98 q-186 0 -283 114q-90 109 -90 305zM410 -231q0 -59 42 -102.5t117.5 -43.5t117.5 43t42 103q0 57 -42 100t-117.5 43t-117.5 -43t-42 -100z" />
<glyph unicode="&#x1ef2;" horiz-adv-x="1189" d="M0 1366l461 -817v-549h276v549l453 817h-303l-283 -543l-297 543h-307zM307 1608l340 -168l74 110l-285 228z" />
<glyph unicode="&#x1ef3;" horiz-adv-x="1058" d="M0 987l410 -946l-76 -170q-33 -72 -94 -72q-70 0 -142 35l-84 -190q129 -55 250 -56q209 0 283 179l512 1220h-271l-245 -674l-258 674h-285zM248 1253l340 -168l74 111l-285 227z" />
<glyph unicode="&#x1ef4;" horiz-adv-x="1189" d="M0 1366l461 -817v-549h276v549l453 817h-303l-283 -543l-297 543h-307zM440 -231q0 -59 42 -102.5t118 -43.5t118 43t42 103q0 57 -42 100t-118 43t-118 -43t-42 -100z" />
<glyph unicode="&#x1ef5;" horiz-adv-x="1058" d="M0 987l410 -946l-76 -170q-33 -72 -94 -72q-70 0 -142 35l-84 -190q129 -55 250 -56q209 0 283 179l512 1220h-271l-245 -674l-258 674h-285zM621 -231q0 -59 42 -102.5t117.5 -43.5t117.5 43t42 102.5t-42 101.5t-117.5 42t-117.5 -43t-42 -100z" />
<glyph unicode="&#x1ef6;" horiz-adv-x="1189" d="M0 1366l461 -817v-549h276v549l453 817h-303l-283 -543l-297 543h-307zM365 1757q14 72 80.5 119t154.5 47q86 0 158.5 -58.5t72.5 -138.5q0 -100 -98 -182q-43 -35 -49 -49t-10 -84l-154 90q0 25 3 42.5t14.5 33.5t18.5 23.5t27.5 26t28.5 24.5v-2q2 2 16.5 14 t20.5 24.5t6 29t-18.5 32.5t-40.5 18h2q-33 2 -51 -16.5t-41 -73.5z" />
<glyph unicode="&#x1ef7;" horiz-adv-x="1058" d="M0 987l410 -946l-76 -170q-33 -72 -94 -72q-70 0 -142 35l-84 -190q129 -55 250 -56q209 0 283 179l512 1220h-271l-245 -674l-258 674h-285zM305 1403q14 72 81 119t155 47q86 0 158.5 -58.5t72.5 -138.5q0 -100 -98 -182q-43 -35 -49.5 -49.5t-10.5 -83.5l-153 90 q0 25 3 42t14 33.5t18.5 23.5t28 25.5t28.5 24.5v-2q2 2 16.5 14.5t20.5 25t6 28.5t-18.5 32.5t-40.5 18.5h2q-33 2 -51.5 -16.5t-41.5 -73.5z" />
<glyph unicode="&#x1ef8;" horiz-adv-x="1189" d="M0 1366l461 -817v-549h276v549l453 817h-303l-283 -543l-297 543h-307zM266 1485l140 -70q41 111 77 111q23 0 90 -41q88 -53 144 -53q68 0 126 62.5t85 158.5l-142 71q-39 -111 -79 -110q-16 0 -86 41q-82 53 -140 53q-72 0 -131 -63.5t-84 -159.5z" />
<glyph unicode="&#x1ef9;" horiz-adv-x="1058" d="M0 987l410 -946l-76 -170q-33 -72 -94 -72q-70 0 -142 35l-84 -190q129 -55 250 -56q209 0 283 179l512 1220h-271l-245 -674l-258 674h-285zM207 1130l139 -69q41 111 78 110q23 0 90 -41q88 -53 143 -53q68 0 126 62.5t85 158.5l-141 72q-39 -111 -80 -110 q-16 0 -86 40q-82 53 -139 54q-72 0 -131.5 -63.5t-83.5 -160.5z" />
<glyph unicode="&#x2000;" horiz-adv-x="1089" />
<glyph unicode="&#x2001;" horiz-adv-x="2179" />
<glyph unicode="&#x2002;" horiz-adv-x="1089" />
<glyph unicode="&#x2003;" horiz-adv-x="2179" />
<glyph unicode="&#x2004;" horiz-adv-x="726" />
<glyph unicode="&#x2005;" horiz-adv-x="544" />
<glyph unicode="&#x2006;" horiz-adv-x="363" />
<glyph unicode="&#x2007;" horiz-adv-x="363" />
<glyph unicode="&#x2008;" horiz-adv-x="272" />
<glyph unicode="&#x2009;" horiz-adv-x="435" />
<glyph unicode="&#x200a;" horiz-adv-x="121" />
<glyph unicode="&#x2010;" horiz-adv-x="675" d="M78 436h520v226h-520v-226z" />
<glyph unicode="&#x2011;" horiz-adv-x="675" d="M78 436h520v226h-520v-226z" />
<glyph unicode="&#x2012;" horiz-adv-x="675" d="M78 436h520v226h-520v-226z" />
<glyph unicode="&#x2013;" horiz-adv-x="1024" d="M0 436h1024v226h-1024v-226z" />
<glyph unicode="&#x2014;" horiz-adv-x="1380" d="M0 436h1380v226h-1380v-226z" />
<glyph unicode="&#x2015;" horiz-adv-x="1380" d="M0 436h1380v226h-1380v-226z" />
<glyph unicode="&#x2018;" horiz-adv-x="471" d="M72 1020q0 -74 42 -125t109 -51q66 0 107 44t41 111q0 111 -92 162q31 66 135 113l-58 98q-145 -74 -214.5 -167t-69.5 -185z" />
<glyph unicode="&#x2019;" horiz-adv-x="471" d="M57 942l58 -98q145 74 214.5 167t69.5 185q0 74 -43 125t-108 51q-70 0 -109 -46t-39 -109q0 -51 26 -98.5t67 -63.5q-32 -66 -136 -113z" />
<glyph unicode="&#x201a;" horiz-adv-x="471" d="M57 -156l58 -98q145 74 214.5 167t69.5 185q0 74 -43 125t-108 51q-70 0 -109 -46t-39 -109q0 -51 26 -98.5t67 -63.5q-32 -66 -136 -113z" />
<glyph unicode="&#x201c;" horiz-adv-x="876" d="M72 1020q0 -74 42 -125t109 -51q66 0 107 44t41 111q0 111 -92 162q31 66 135 113l-58 98q-145 -74 -214.5 -167t-69.5 -185zM477 1020q0 -74 42 -125t110 -51q66 0 106.5 44t40.5 111q0 111 -92 162q31 66 135 113l-57 98q-145 -74 -215 -167t-70 -185z" />
<glyph unicode="&#x201d;" horiz-adv-x="876" d="M57 942l58 -98q145 74 214.5 167t69.5 185q0 74 -43 125t-108 51q-70 0 -109 -46t-39 -109q0 -51 26 -98.5t67 -63.5q-32 -66 -136 -113zM463 942l57 -98q145 74 215 167t70 185q0 74 -43 125t-109 51q-70 0 -108.5 -46t-38.5 -109q0 -51 25.5 -98.5t66.5 -63.5 q-31 -66 -135 -113z" />
<glyph unicode="&#x201e;" horiz-adv-x="876" d="M57 -156l58 -98q145 74 214.5 167t69.5 185q0 74 -43 125t-108 51q-70 0 -109 -46t-39 -109q0 -51 26 -98.5t67 -63.5q-32 -66 -136 -113zM463 -156l57 -98q145 74 215 167t70 185q0 74 -43 125t-109 51q-70 0 -108.5 -46t-38.5 -109q0 -51 25.5 -98.5t66.5 -63.5 q-31 -66 -135 -113z" />
<glyph unicode="&#x2020;" horiz-adv-x="985" d="M82 692h285v-991h256v991h280v242h-280v432h-256v-432h-285v-242z" />
<glyph unicode="&#x2021;" horiz-adv-x="993" d="M82 143h287v-442h256v442h286v224h-286v325h280v242h-280v432h-256v-432h-285v-242h285v-325h-287v-224z" />
<glyph unicode="&#x2022;" horiz-adv-x="1052" d="M102 788q0 -129 71.5 -233.5t188.5 -155.5q72 -33 164 -32q174 0 299 124.5t125 297t-125 297t-299 124.5t-299 -124.5t-125 -297.5z" />
<glyph unicode="&#x2026;" horiz-adv-x="1406" d="M78 124.5q0 -61.5 38.5 -104.5t112.5 -43q72 0 110 44.5t38 103.5q0 61 -39 105t-109 44q-74 0 -112.5 -44t-38.5 -105.5zM553 124.5q0 -61.5 39 -104.5t113 -43q72 0 109.5 44.5t37.5 103.5q0 61 -39 105t-108 44q-74 0 -113 -44t-39 -105.5zM1030 124.5 q0 -61.5 39 -104.5t113 -43q72 0 109.5 44.5t37.5 103.5q0 61 -39 105t-108 44q-74 0 -113 -44t-39 -105.5z" />
<glyph unicode="&#x202f;" horiz-adv-x="435" />
<glyph unicode="&#x2030;" horiz-adv-x="2121" d="M53 1030q0 -160 74 -255t215 -95q139 0 217 100q74 96 74 250q0 147 -72 244q-80 104 -219 104q-141 0 -217 -102q-72 -96 -72 -246zM225 1030q0 74 27 125q29 59 90 59t92 -59q27 -51 27 -125q0 -76 -27 -127q-31 -59 -92 -59t-90 59q-27 51 -27 127zM272 84l170 -98 l756 1300l-176 94zM836 342q0 -160 73.5 -255t214.5 -95q139 0 217 100q74 94 74 250q0 147 -72 244q-80 104 -219 104q-141 0 -217 -102q-72 -96 -71 -246zM1008 342q0 74 26 125q29 59 90.5 59t92.5 -59q27 -51 26 -125q0 -76 -26 -127q-31 -59 -92.5 -59t-90.5 59 q-26 51 -26 127zM1491 342q0 -160 74 -255t215 -95q139 0 217 100q74 94 74 250q0 147 -72 244q-80 104 -219 104q-141 0 -217 -102q-72 -96 -72 -246zM1663 342q0 74 27 125q29 59 90 59t92 -59q27 -51 26 -125q0 -76 -26 -127q-31 -59 -92.5 -59t-89.5 59q-27 51 -27 127z " />
<glyph unicode="&#x2039;" horiz-adv-x="708" d="M31 512l465 -420l163 156l-321 276l293 283l-176 139z" />
<glyph unicode="&#x203a;" horiz-adv-x="708" d="M49 248l164 -156l465 420l-424 434l-176 -139l293 -283z" />
<glyph unicode="&#x2044;" horiz-adv-x="176" d="M-375 84l170 -98l756 1300l-176 94z" />
<glyph unicode="&#x205f;" horiz-adv-x="544" />
<glyph unicode="&#x20ac;" d="M29 481h139q29 -231 149 -360q131 -143 359 -144q166 0 267 73t167 216l-201 119q-53 -98 -103 -135t-112 -37q-100 0 -155 78q-53 76 -70 190h365v137h-377v119h377v137h-365q16 117 68 191q53 76 147 76q125 0 190 -158l234 90q-66 162 -168 234.5t-266 72.5 q-223 0 -352 -145q-115 -127 -152 -361h-141v-137h127v-119h-127v-137z" />
<glyph unicode="&#x20ae;" d="M6 1108h408v-403l-260 -111v-152l260 111v-115l-260 -110v-152l260 111v-287h278v403l269 115v152l-269 -115v115l269 114v152l-269 -115v287h406v248h-1092v-248z" />
<glyph unicode="&#x20b4;" d="M29 510h129q-57 -88 -58 -197q0 -166 138 -256q123 -86 327 -86q336 0 484 246l-246 111q-88 -125 -248 -125q-88 0 -139 35.5t-51 101.5q0 88 104 170h608v129h-407q68 31 147 100h260v129h-147q53 84 53 183q0 137 -98 229q-111 100 -312 100q-176 0 -313 -84 q-111 -68 -178 -180l242 -88q102 125 239 125q166 0 166 -131q0 -74 -104 -154h-596v-129h393q-86 -51 -146 -100h-247v-129z" />
<glyph unicode="&#x20b8;" d="M47 729h367v-729h278v729h367v248h-1012v-248zM47 1108h1012v248h-1012v-248z" />
<glyph unicode="&#x20b9;" d="M131 508l430 -508h379l-479 530q160 45 242.5 130t99.5 231h215v137h-217q-20 100 -96 176h313v152h-887v-158h152q193 0 229 -170h-381v-137h381q-37 -172 -262 -172h-119v-211z" />
<glyph unicode="&#x20ba;" d="M23 502l161 51v-551q129 -43 252 -43q252 0 414 145q150 133 186 371l-243 88q-35 -170 -129 -264q-86 -88 -193 -88v434l356 115v145l-356 -114v118l356 115v145l-356 -114v301h-287v-393l-161 -52v-145l161 51v-119l-161 -51v-145z" />
<glyph unicode="&#x2122;" horiz-adv-x="1345" d="M39 1204h164v-426h157v426h164v162h-485v-162zM604 778h154v338l151 -342h31l137 348v-344h154v588h-187l-120 -295l-131 295h-189v-588z" />
<glyph unicode="&#x2202;" horiz-adv-x="1165" d="M80 492q0 -236 143 -375q137 -137 357 -137q231 0 372 157q135 152 135 393q0 342 -188 564q-201 237 -600 292l-35 -174q154 -27 264 -94q127 -76 187 -168q-84 51 -193 51q-207 0 -325 -149q-117 -141 -117 -360zM340 494q0 143 65.5 217.5t178.5 74.5q127 0 207 -55 q36 -86 36 -209q0 -129 -63 -225q-72 -102 -182 -102q-96 0 -166 75q-76 82 -76 224z" />
<glyph unicode="&#x2206;" horiz-adv-x="1341" d="M0 0h1341l-571 1366h-209zM371 225l286 787l304 -787h-590z" />
<glyph unicode="&#x220f;" horiz-adv-x="1392" d="M51 1118h154v-1372h276v1372h430v-1372h277v1372h153v248h-1290v-248z" />
<glyph unicode="&#x2211;" horiz-adv-x="1101" d="M82 1137l434 -562l-432 -604v-227h956v248h-614l424 583l-410 543h592v248h-950v-229z" />
<glyph unicode="&#x221a;" d="M74 498h149l256 -498h185l481 1448l-225 68l-373 -1158l-182 353h-291v-213z" />
<glyph unicode="&#x221e;" horiz-adv-x="1089" d="M25 735q0 -129 65 -217q70 -94 205 -94q74 0 129 37q72 51 123 157q49 -96 106.5 -145t151.5 -49q133 0 203 102q57 84 57 209q0 145 -70.5 227t-189.5 82q-92 0 -148.5 -41.5t-109.5 -152.5q-49 115 -115 160q-53 37 -137 37q-123 0 -196.5 -81t-73.5 -231zM197 735 q0 57 26 103q27 51 82 51q39 0 68.5 -35t68.5 -119q-33 -72 -53 -98q-43 -53 -84 -53q-57 0 -86 49q-23 39 -22 102zM655 733q35 80 54 105q39 53 82 53q49 0 77.5 -41t28.5 -113q0 -61 -20 -100q-29 -55 -82 -55q-68 0 -140 151z" />
<glyph unicode="&#x222b;" horiz-adv-x="845" d="M37 -176v-215q268 4 396 110.5t128 331.5v877q0 129 62 182q53 45 184 55v215q-268 -4 -396 -110.5t-128 -331.5v-877q0 -131 -62 -182q-53 -45 -184 -55z" />
<glyph unicode="&#x2248;" d="M6 377l107 -201q131 76 211 76q72 0 231 -39q156 -39 229 -39q158 0 316 117l-109 196q-131 -78 -211 -77q-74 0 -229 39q-160 39 -234 38q-141 1 -311 -110zM6 817l107 -201q131 76 211 76q72 0 231 -39q156 -39 229 -39q158 0 316 117l-109 197q-131 -78 -211 -78 q-74 0 -229 39q-160 39 -234 39q-141 0 -311 -111z" />
<glyph unicode="&#x2260;" d="M47 217h94l-67 -78l149 -119l170 197h664v225h-469l184 215h285v226h-90l67 80l-155 122l-172 -202h-660v-226h469l-184 -215h-285v-225z" />
<glyph unicode="&#x2264;" d="M47 596l959 -334l71 230l-559 192l539 174l-70 225l-940 -317v-170zM49 0h1010v225h-1010v-225z" />
<glyph unicode="&#x2265;" d="M29 492l71 -230l959 334v170l-940 317l-70 -225l539 -174zM47 0h1010v225h-1010v-225z" />
<glyph unicode="&#x25ca;" horiz-adv-x="1089" d="M113 731l430 -764l434 764l-434 744zM326 731l217 391l221 -393l-215 -420z" />
<glyph unicode="&#x25fc;" horiz-adv-x="983" d="M0 0v983h983v-983h-983z" />
<glyph unicode="&#xfb01;" horiz-adv-x="1159" d="M33 782h137v-782h268v782h205l33 205h-240v25q0 82 50.5 119.5t129.5 37.5q135 0 215 -63l125 194q-135 94 -358 95q-182 0 -297 -82q-131 -98 -131 -291v-35h-137v-205zM760 0h266v1001l-266 -40v-961z" />
<glyph unicode="&#xfb02;" horiz-adv-x="1157" d="M33 782h137v-782h268v782h187l32 205h-221v25q0 152 213 151q76 0 109 -6v-1157h266v1362q-168 31 -334 31q-215 0 -346 -74q-172 -94 -172 -301v-31h-139v-205z" />
</font>
</defs>
</svg>
