<?xml version="1.0" standalone="no"?>
<!DOCTYPE svg PUBLIC "-//W3C//DTD SVG 1.1//EN" "http://www.w3.org/Graphics/SVG/1.1/DTD/svg11.dtd" >
<svg xmlns="http://www.w3.org/2000/svg" xmlns:xlink="http://www.w3.org/1999/xlink" version="1.1">
<metadata>
Created by FontForge 20170731 at Tue Jun 18 16:01:02 2019
 By Aleksey,,,
Copyright 2018 The Asap Condensed Project Authors (https://github.com/Omnibus-Type/AsapCondensed), with Reserved Font Name "(Asap Condensed)".
</metadata>
<defs>
<font id="AsapCondensed-Italic" horiz-adv-x="459" >
  <font-face 
    font-family="Asap Condensed"
    font-weight="400"
    font-style="italic"
    font-stretch="normal"
    units-per-em="1000"
    panose-1="2 15 5 6 3 2 2 13 2 3"
    ascent="800"
    descent="-200"
    x-height="523"
    cap-height="702"
    bbox="-517.615 -237 1086 1042"
    underline-thickness="50"
    underline-position="-150"
    slope="-6"
    unicode-range="U+000D-FB02"
  />
<missing-glyph horiz-adv-x="545" 
d="M69 700h500l-74 -700h-500zM483 650h-340l144 -255zM252 350l-144 255l-54 -510zM508 605l-196 -255l142 -255zM420 50l-144 255l-196 -255h340z" />
    <glyph glyph-name="fi" unicode="fi" horiz-adv-x="540" 
d="M372 15.5q-26 21.5 -26 74.5q0 14 1 22l35 339h-185l-46 -431q-2 -22 -42 -22h-4q-40 0 -38 22l46 431h-29q-10 0 -14.5 7t-2.5 23l1 12q3 30 23 30h29l11 106q8 73 46 100t82 27q26 0 46.5 -8t19.5 -23q-1 -11 -9 -29t-18 -18q-3 0 -12.5 3t-23.5 3q-20 0 -31.5 -12.5
t-15.5 -50.5l-11 -98h234q21 0 28 -6.5t5 -24.5l-39 -384q-1 -5 -1 -14q0 -15 5 -21.5t18 -6.5q12 0 21 2.5t13 2.5q6 0 6 -9q0 -11 -2.5 -25t-5.5 -20q-4 -10 -21 -16.5t-36 -6.5q-31 0 -57 21.5zM397 617l6 60q2 22 47 22q23 0 32.5 -5.5t8.5 -16.5l-6 -60q-2 -22 -46 -22
t-42 22z" />
    <glyph glyph-name="fl" unicode="fl" horiz-adv-x="556" 
d="M67 20l46 431h-29q-10 0 -14.5 7t-2.5 23l1 12q3 30 23 30h29l11 106q8 73 46 100t82 27q26 0 46.5 -8t19.5 -23q-1 -11 -9 -29t-18 -18q-3 0 -12.5 3t-23.5 3q-20 0 -31.5 -12.5t-15.5 -50.5l-11 -98h67q10 0 14.5 -7t2.5 -23l-1 -12q-3 -30 -23 -30h-67l-46 -431
q-2 -22 -42 -22h-4q-40 0 -38 22zM377.5 15.5q-28.5 21.5 -28.5 77.5q0 14 1 22l65 615q2 22 42 22h4q40 0 38 -22l-65 -617q-1 -6 -1 -15q0 -20 8 -26t23 -6q12 0 22.5 2.5t15.5 2.5q6 0 6 -9q0 -10 -2.5 -24.5t-5.5 -20.5q-4 -10 -21 -16.5t-36 -6.5q-37 0 -65.5 21.5z
" />
    <glyph glyph-name="f_f" unicode="ff" horiz-adv-x="572" 
d="M591.5 748q20.5 -8 19.5 -23q-1 -11 -9 -29t-18 -18q-3 0 -12.5 3t-23.5 3q-20 0 -31.5 -12.5t-15.5 -50.5l-11 -98h67q10 0 14.5 -7t2.5 -23l-1 -12q-3 -30 -23 -30h-67l-46 -431q-2 -22 -42 -22h-4q-40 0 -38 22l46 431h-202l-46 -431q-2 -22 -42 -22h-4q-40 0 -38 22
l46 431h-29q-10 0 -14.5 7t-2.5 23l1 12q3 30 23 30h29l11 106q8 73 46 100t82 27q26 0 46.5 -8t19.5 -23q-1 -11 -9 -29t-18 -18q-3 0 -12.5 3t-23.5 3q-20 0 -31.5 -12.5t-15.5 -50.5l-11 -98h202l11 106q8 73 46 100t82 27q26 0 46.5 -8z" />
    <glyph glyph-name="f_f_i" unicode="ffi" horiz-adv-x="826" 
d="M781 62q0 -11 -2.5 -25t-5.5 -20q-4 -10 -21 -16.5t-36 -6.5q-31 0 -57 21.5t-26 74.5q0 14 1 22l35 339h-186l-46 -431q-2 -22 -42 -22h-4q-40 0 -38 22l46 431h-202l-46 -431q-2 -22 -42 -22h-4q-40 0 -38 22l46 431h-29q-10 0 -14.5 7t-2.5 23l1 12q3 30 23 30h29
l11 106q8 73 46 100t82 27q26 0 46.5 -8t19.5 -23q-1 -11 -9 -29t-18 -18q-3 0 -12.5 3t-23.5 3q-20 0 -31.5 -12.5t-15.5 -50.5l-11 -98h202l11 106q8 73 46 100t82 27q26 0 46.5 -8t19.5 -23q-1 -11 -9 -29t-18 -18q-3 0 -12.5 3t-23.5 3q-20 0 -31.5 -12.5t-15.5 -50.5
l-11 -98h230q21 0 30 -6t8 -20l-39 -389q-1 -5 -1 -14q0 -15 5 -21.5t18 -6.5q12 0 21 2.5t13 2.5q6 0 6 -9zM684 617l6 60q2 22 47 22q23 0 32.5 -5.5t8.5 -16.5l-6 -60q-2 -22 -46 -22t-42 22z" />
    <glyph glyph-name="f_f_l" unicode="ffl" horiz-adv-x="842" 
d="M591.5 748q20.5 -8 19.5 -23q-1 -11 -9 -29t-18 -18q-3 0 -12.5 3t-23.5 3q-20 0 -31.5 -12.5t-15.5 -50.5l-11 -98h67q10 0 14.5 -7t2.5 -23l-1 -12q-3 -30 -23 -30h-67l-46 -431q-2 -22 -42 -22h-4q-40 0 -38 22l46 431h-202l-46 -431q-2 -22 -42 -22h-4q-40 0 -38 22
l46 431h-29q-10 0 -14.5 7t-2.5 23l1 12q3 30 23 30h29l11 106q8 73 46 100t82 27q26 0 46.5 -8t19.5 -23q-1 -11 -9 -29t-18 -18q-3 0 -12.5 3t-23.5 3q-20 0 -31.5 -12.5t-15.5 -50.5l-11 -98h202l11 106q8 73 46 100t82 27q26 0 46.5 -8zM663.5 15.5
q-28.5 21.5 -28.5 77.5q0 14 1 22l65 615q2 22 42 22h4q40 0 38 -22l-65 -617q-1 -6 -1 -15q0 -20 8 -26t23 -6q12 0 22.5 2.5t15.5 2.5q6 0 6 -9q0 -10 -2.5 -24.5t-5.5 -20.5q-4 -10 -21 -16.5t-36 -6.5q-37 0 -65.5 21.5z" />
    <glyph glyph-name=".notdef" horiz-adv-x="545" 
d="M69 700h500l-74 -700h-500zM483 650h-340l144 -255zM252 350l-144 255l-54 -510zM508 605l-196 -255l142 -255zM420 50l-144 255l-196 -255h340z" />
    <glyph glyph-name=".null" horiz-adv-x="0" 
 />
    <glyph glyph-name="nonmarkingreturn" unicode="&#xd;" horiz-adv-x="137" 
 />
    <glyph glyph-name="NULL" horiz-adv-x="0" 
 />
    <glyph glyph-name="NULL" horiz-adv-x="0" 
 />
    <glyph glyph-name="space" unicode=" " horiz-adv-x="137" 
 />
    <glyph glyph-name="exclam" unicode="!" horiz-adv-x="246" 
d="M81.5 207.5q-6.5 5.5 -5.5 16.5l48 456q2 22 40 22h23q38 0 35 -22l-76 -456q-2 -11 -9 -16.5t-24 -5.5h-8q-17 0 -23.5 5.5zM43 20l7 66q2 22 40 22h18q38 0 36 -22l-7 -66q-3 -22 -41 -22h-18q-38 0 -35 22z" />
    <glyph glyph-name="quotedbl" unicode="&#x22;" horiz-adv-x="309" 
d="M90 484l-1 196q2 22 42 22h10q43 0 38 -22l-44 -196q-3 -12 -23 -12h-1q-21 0 -21 12zM219 484l-1 196q2 22 42 22h10q43 0 38 -22l-44 -196q-3 -12 -23 -12h-1q-21 0 -21 12z" />
    <glyph glyph-name="numbersign" unicode="#" horiz-adv-x="514" 
d="M63 19l43 177h-68q-10 0 -14.5 7t-2.5 23l2 17q3 30 23 30h80l36 147h-70q-10 0 -14.5 7t-2.5 23l2 17q3 30 23 30h80l41 168q2 11 11.5 16t29.5 5h7q32 0 27 -20l-42 -169h100l40 168q2 11 11.5 16t29.5 5h9q32 0 27 -20l-41 -169h65q10 0 14.5 -7t2.5 -23l-2 -17
q-3 -30 -23 -30h-77l-36 -147h70q10 0 14.5 -7t2.5 -23l-2 -17q-3 -30 -23 -30h-81l-43 -177q-2 -11 -11.5 -16t-28.5 -5h-8q-31 0 -26 22l42 176h-100l-43 -177q-2 -11 -11 -16t-29 -5h-7q-33 0 -27 21zM300 273l36 147h-100l-36 -147h100z" />
    <glyph glyph-name="dollar" unicode="$" horiz-adv-x="460" 
d="M185.5 -63.5q-3.5 4.5 -3.5 15.5l3 43q-51 1 -88.5 10.5t-68.5 33.5q-4 4 -6 8t-2 14q0 17 6.5 35.5t16.5 18.5q4 0 12 -5q55 -37 138 -37l26 244q-66 39 -104 84t-38 112q0 83 50.5 137.5t134.5 59.5l3 25q2 11 6.5 15.5t15.5 4.5h2q16 0 16 -20l-2 -25q36 -2 70 -9.5
t54 -19.5q6 -4 6 -11q0 -12 -10.5 -37.5t-18.5 -25.5q-3 0 -7.5 2t-6.5 3q-53 22 -96 22l-25 -241q64 -36 100 -79t36 -110q0 -88 -47 -143t-131 -64l-5 -45q-1 -20 -22 -20h-1q-10 0 -13.5 4.5zM254 630q-39 -8 -64.5 -33t-25.5 -72q0 -33 16.5 -59t49.5 -49zM294.5 116.5
q21.5 27.5 21.5 71.5q0 61 -58 104l-23 -213q38 10 59.5 37.5z" />
    <glyph glyph-name="percent" unicode="%" horiz-adv-x="686" 
d="M76 520q0 79 35.5 132.5t108.5 53.5q110 0 110 -139q0 -79 -34 -132.5t-108 -53.5q-112 0 -112 139zM129 4q0 3 7 15l386 676q3 5 8 6.5t15 1.5h2q13 0 18 -1t5 -5t-4 -11l-388 -680q-3 -5 -8.5 -6.5t-16.5 -1.5h-3q-21 0 -21 6zM249 474q17 37 17 91q0 40 -11 63t-40 23
q-37 0 -55 -38t-18 -92q0 -39 11.5 -61.5t40.5 -22.5q38 0 55 37zM374 134q0 79 34.5 132.5t107.5 53.5q112 0 112 -140q0 -79 -35 -132t-109 -53q-110 0 -110 139zM546 88.5q18 37.5 18 88.5q0 88 -53 88q-37 0 -54.5 -38t-17.5 -90q0 -86 52 -86q37 0 55 37.5z" />
    <glyph glyph-name="ampersand" unicode="&#x26;" horiz-adv-x="520" 
d="M70 37q-46 43 -46 135q0 76 31 135t88 80l1 4q-30 17 -48 50t-18 79q0 87 47.5 136.5t134.5 49.5q30 0 51.5 -7t19.5 -25q0 -6 -9 -27.5t-17 -21.5q-3 0 -15.5 4.5t-28.5 4.5q-47 0 -72 -32.5t-25 -81.5q0 -47 18.5 -79.5t67.5 -32.5h92l20 101q2 12 11 17t27 5h6
q18 0 24.5 -6.5t4.5 -20.5l-11 -96h61q12 0 17 -7t3 -23l-1 -12q-3 -30 -22 -30h-66l-21 -208q-1 -6 -1 -17q0 -27 11 -36t32 -9q16 0 27 2.5t15 2.5q6 0 6 -9q0 -25 -6 -39t-22.5 -21.5t-36.5 -7.5q-28 0 -55 10t-40 35q-35 -21 -66.5 -33t-71.5 -12q-71 0 -117 43z
M251.5 75q24.5 9 59.5 27q0 21 21 234h-93q-70 0 -98.5 -38t-28.5 -118q0 -61 26.5 -87.5t65.5 -26.5q23 0 47.5 9z" />
    <glyph glyph-name="quotesingle" unicode="'" horiz-adv-x="164" 
d="M82 484l-1 196q2 22 42 22h10q43 0 38 -22l-44 -196q-3 -12 -23 -12h-1q-21 0 -21 12z" />
    <glyph glyph-name="parenleft" unicode="(" horiz-adv-x="249" 
d="M133 -201q-58 62 -89.5 162.5t-31.5 221.5q0 51 6 103q16 152 74 281t144 206q10 10 22 10q9 0 18 -7t9 -16q0 -13 -11 -24q-71 -73 -115.5 -191t-59.5 -259q-7 -70 -7 -118q0 -103 21.5 -189t64.5 -143q9 -10 7 -20q-1 -8 -10.5 -18t-20.5 -10q-10 0 -21 11z" />
    <glyph glyph-name="parenright" unicode=")" horiz-adv-x="249" 
d="M-24.5 -202.5q-8.5 9.5 -7.5 18.5q2 9 10 17q70 73 116 192.5t61 260.5q6 59 6 115q0 105 -21.5 191.5t-65.5 143.5q-8 13 -7 21q1 9 11.5 17.5t21.5 8.5q10 0 20 -10q58 -63 89.5 -164t31.5 -224q0 -42 -5 -99q-16 -152 -74.5 -281.5t-144.5 -205.5q-11 -11 -23 -11
q-10 0 -18.5 9.5z" />
    <glyph glyph-name="asterisk" unicode="*" horiz-adv-x="299" 
d="M80 442q-7 6 -6 13q2 6 7 13l66 86l-77 37q-6 3 -9.5 6t-3.5 7q0 11 7 18.5t14 7.5q5 0 11 -3l74 -34l10 96q1 20 22 20q10 0 14.5 -4.5t3.5 -15.5l-10 -96l79 34q7 3 13 3t10.5 -5t4.5 -14q0 -8 -3 -12t-12 -8l-86 -37l49 -86q4 -7 3 -13q-1 -7 -9 -13t-16 -6
q-9 0 -14 9l-46 81l-65 -81q-7 -9 -16 -9q-8 0 -15 6z" />
    <glyph glyph-name="plus" unicode="+" horiz-adv-x="449" 
d="M171 3q-6 5 -5 17l18 177h-134q-22 0 -19 26l1 13q1 17 6.5 22.5t17.5 5.5h135l19 179q1 11 7.5 15.5t24.5 4.5h7q16 0 22 -5t5 -17l-18 -177h135q9 0 14 -5t4 -19l-1 -15q-1 -15 -8 -21.5t-17 -6.5h-134l-18 -178q-3 -21 -32 -21h-7q-17 0 -23 5z" />
    <glyph glyph-name="comma" unicode="," horiz-adv-x="188" 
d="M-17.5 -112.5q-8.5 3.5 -7.5 11.5q1 6 9 24q18 39 29 74.5t16 78.5q2 15 12 23.5t29 8.5h10q18 0 27.5 -7.5t7.5 -20.5q-6 -56 -27 -100.5t-46 -70t-41 -25.5q-10 0 -18.5 3.5z" />
    <glyph glyph-name="hyphen" unicode="-" horiz-adv-x="254" 
d="M30 257l1 14q1 17 7 23.5t19 6.5h149q22 0 19 -28l-1 -14q-2 -30 -26 -30h-148q-23 0 -20 28z" />
    <glyph glyph-name="period" unicode="." horiz-adv-x="188" 
d="M22 20l7 66q2 22 40 22h18q38 0 36 -22l-7 -66q-3 -22 -41 -22h-18q-38 0 -35 22z" />
    <glyph glyph-name="slash" unicode="/" horiz-adv-x="348" 
d="M-15.5 -73.5q-5.5 2.5 -4.5 10.5q1 9 23 56l311 693q4 10 12 13.5t22 3.5h8q14 0 19 -2.5t4 -9.5q-1 -4 -16 -37l-320 -714q-4 -9 -11.5 -12.5t-22.5 -3.5h-4q-15 0 -20.5 2.5z" />
    <glyph glyph-name="zero" unicode="0" 
d="M82 58q-43 64 -43 206q0 106 24.5 207t78 168t135.5 67q76 0 119.5 -64t43.5 -205q0 -105 -24.5 -206.5t-78.5 -169t-137 -67.5q-75 0 -118 64zM292.5 130q32.5 64 46.5 152.5t14 166.5q0 185 -83 185q-51 0 -83.5 -64t-46.5 -153t-14 -168q0 -183 82 -183q52 0 84.5 64z
" />
    <glyph glyph-name="one" unicode="1" 
d="M30 20q0 6 1 10l1 12q3 30 23 30h133l57 539l-145 -23q-10 -1 -15 10.5t-5 27.5l1 12q1 8 5.5 12.5t14.5 6.5l206 45q12 0 21 -6t8 -15l-64 -609h113q10 0 14.5 -7t2.5 -23l-1 -12q-2 -16 -7.5 -23t-15.5 -7h-330q-18 0 -18 20z" />
    <glyph glyph-name="two" unicode="2" 
d="M14 11q-5 11 -5 24l1 9q2 13 6 17l270 334q40 50 57.5 82t17.5 71q0 40 -27.5 63t-74.5 23q-39 0 -67 -11t-52 -28q-3 -2 -10.5 -6.5t-11.5 -4.5q-8 0 -19 18t-9 30q3 15 29.5 32.5t67 29.5t83.5 12q80 0 129 -39.5t49 -107.5q0 -45 -18.5 -87t-48 -82t-93.5 -118
l-163 -201h256q10 0 14.5 -7t2.5 -23l-1 -11q-3 -30 -23 -30h-348q-7 0 -12 11z" />
    <glyph glyph-name="three" unicode="3" 
d="M91.5 2.5q-39.5 8.5 -63.5 21.5t-24 26t13.5 32t21.5 19q3 0 23 -8q25 -12 50 -19.5t59 -7.5q71 0 112 43.5t41 115.5q0 60 -34 85.5t-96 25.5h-38q-12 0 -16.5 7t-2.5 23l1 11q2 16 7.5 23t17.5 7h34q39 0 71.5 19.5t51 51.5t18.5 67q0 37 -23.5 63t-79.5 26
q-32 0 -55 -7t-46 -19q-14 -7 -19 -7q-8 0 -18 19t-10 32q0 21 55.5 37.5t104.5 16.5q83 0 129.5 -39.5t46.5 -110.5q0 -121 -119 -169l-1 -4q45 -13 77 -54t32 -107q0 -65 -30 -117t-84 -81.5t-122 -29.5q-45 0 -84.5 8.5z" />
    <glyph glyph-name="four" unicode="4" 
d="M252 20l15 147h-247q-7 0 -13.5 14t-6.5 29q0 5 1 8q1 7 4 11l316 460q9 13 35 13h20q30 0 28 -22l-46 -441h56q10 0 14 -7t2 -23l-1 -12q-3 -30 -23 -30h-56l-15 -147q-2 -22 -33 -22h-23q-29 0 -27 22zM275 239l21 200q7 64 21 122l-3 2l-220 -324h181z" />
    <glyph glyph-name="five" unicode="5" 
d="M84 3q-37 9 -57 22.5t-20 26.5q0 11 11 29.5t19 18.5q4 0 22 -7q60 -26 117 -26q70 0 106.5 43.5t36.5 121.5q0 58 -37.5 88t-109.5 30h-75q-14 0 -20 5t-6 16l1 9l48 290q4 30 35 30h248q10 0 14.5 -7t2.5 -23l-1 -12q-3 -30 -23 -30h-199l-35 -206h44q82 0 141 -41.5
t59 -137.5q0 -119 -62.5 -184t-176.5 -65q-46 0 -83 9z" />
    <glyph glyph-name="six" unicode="6" 
d="M77 47q-42 52 -42 146q0 149 68.5 264.5t157.5 180t139 64.5q10 0 17 -10.5t10 -23.5t1 -19q-3 -8 -9 -11q-100 -43 -166.5 -110.5t-99.5 -155.5q52 33 117 33q66 0 107.5 -46.5t41.5 -123.5q0 -66 -27.5 -121t-77.5 -87t-113 -32q-82 0 -124 52zM300 113.5
q33 46.5 33 110.5q0 55 -27.5 82t-69.5 27q-52 0 -105 -32q-5 -17 -8.5 -47t-3.5 -57q0 -71 27 -100.5t66 -29.5q55 0 88 46.5z" />
    <glyph glyph-name="seven" unicode="7" 
d="M73 1.5q-9 3.5 -9 13.5q0 3 6 15l309 598h-278q-10 0 -14.5 7t-2.5 23l1 12q3 30 23 30h350q8 0 14.5 -14.5t6.5 -28.5q0 -11 -4 -19l-318 -624q-7 -16 -42 -16h-12q-21 0 -30 3.5z" />
    <glyph glyph-name="eight" unicode="8" 
d="M79 38q-48 44 -48 128q0 70 30.5 124t92.5 84q-66 51 -66 135q0 56 23 101t65 70.5t98 25.5q68 0 113.5 -37.5t45.5 -110.5q0 -61 -28.5 -108.5t-82.5 -73.5q44 -27 68.5 -61.5t24.5 -94.5q0 -64 -26 -115.5t-73.5 -81t-110.5 -29.5q-78 0 -126 44zM348 546q0 44 -23 66
t-60 22q-42 0 -66.5 -31.5t-24.5 -78.5q0 -42 22.5 -67t64.5 -48q87 51 87 137zM272.5 86q26.5 20 41 53t14.5 70t-15.5 60.5t-36 36.5t-64.5 36q-48 -29 -71 -68.5t-23 -94.5q0 -56 26.5 -84.5t68.5 -28.5q33 0 59.5 20z" />
    <glyph glyph-name="nine" unicode="9" 
d="M61.5 15q-6.5 19 -6.5 34q0 7 9 11q99 42 165.5 110.5t99.5 155.5q-52 -33 -118 -33t-107.5 49.5t-41.5 130.5q0 64 26.5 116.5t75 83t111.5 30.5q84 0 127.5 -55.5t43.5 -157.5q0 -126 -68 -239.5t-157 -184t-139 -70.5q-14 0 -20.5 19zM350 398q12 57 12 92
q0 78 -27.5 109.5t-69.5 31.5q-55 0 -85.5 -43t-30.5 -104q0 -60 27.5 -89.5t69.5 -29.5q51 0 104 33z" />
    <glyph glyph-name="colon" unicode=":" horiz-adv-x="188" 
d="M65 437l7 66q3 22 41 22h18q38 0 35 -22l-7 -66q-2 -22 -40 -22h-18q-38 0 -36 22zM22 20l7 66q2 22 40 22h18q38 0 36 -22l-7 -66q-3 -22 -41 -22h-18q-38 0 -35 22z" />
    <glyph glyph-name="semicolon" unicode=";" horiz-adv-x="188" 
d="M59 437l7 66q3 22 41 22h18q38 0 35 -22l-7 -66q-2 -22 -40 -22h-18q-38 0 -36 22zM-51 -112.5q-8 3.5 -7 11.5q1 6 9 24q18 39 29 74.5t16 78.5q2 15 12 23.5t29 8.5h10q18 0 27.5 -7.5t7.5 -20.5q-6 -56 -27 -100.5t-46 -70t-41 -25.5q-11 0 -19 3.5z" />
    <glyph glyph-name="less" unicode="&#x3c;" horiz-adv-x="448" 
d="M359 10l-315 174q-19 11 -16 35l1 17q3 24 24 35l350 174q8 3 13 3q7 0 10 -7t2 -20l-2 -14q-3 -25 -24 -36l-299 -144l269 -144q19 -10 16 -36l-1 -14q-3 -26 -17 -26q-5 0 -11 3z" />
    <glyph glyph-name="equal" unicode="=" horiz-adv-x="449" 
d="M39 296l1 14q1 17 7 23.5t19 6.5h334q10 0 15 -5.5t4 -20.5l-1 -16q-1 -30 -27 -30h-332q-23 0 -20 28zM22 134l1 14q1 17 7 23.5t19 6.5h334q10 0 15 -5.5t4 -20.5l-1 -16q-1 -30 -27 -30h-332q-23 0 -20 28z" />
    <glyph glyph-name="greater" unicode="&#x3e;" horiz-adv-x="448" 
d="M11 32q0 23 6.5 34.5t19.5 18.5l294 144l-263 142q-10 5 -13 12.5t-3 18.5q0 25 4 34.5t12 9.5t22 -8l304 -168q20 -11 17 -35l-2 -17q-2 -13 -7 -21t-17 -14l-334 -166q-16 -9 -27 -9q-13 0 -13 24z" />
    <glyph glyph-name="question" unicode="?" horiz-adv-x="391" 
d="M105 225q4 34 29.5 77t69.5 87q51 50 75 83.5t24 75.5q0 84 -99 84q-43 0 -93 -26q-4 -2 -11 -5t-11 -3q-7 0 -17.5 20t-8.5 31q2 24 52.5 40.5t105.5 16.5q82 0 129.5 -41.5t47.5 -104.5q0 -39 -16 -72t-37 -58t-61 -67q-47 -47 -70 -76.5t-31 -64.5q-3 -11 -10.5 -15.5
t-24.5 -4.5h-15q-30 0 -28 23zM71 20l7 66q2 22 42 22h17q40 0 38 -22l-7 -66q-3 -22 -43 -22h-17q-40 0 -37 22z" />
    <glyph glyph-name="at" unicode="@" horiz-adv-x="792" 
d="M188.5 -80q-63.5 46 -98.5 128.5t-35 188.5q0 129 51 236.5t139.5 169.5t196.5 62q85 0 149.5 -40t100 -115t35.5 -175q0 -89 -24.5 -162.5t-68 -116t-99.5 -42.5q-37 0 -59 19.5t-25 57.5q-42 -77 -114 -77q-28 0 -55 16.5t-46 57t-19 108.5q0 78 22 139t62.5 95.5
t93.5 34.5q30 0 53.5 -13.5t37.5 -30.5q9 27 14 34t20 7h6q22 0 22 -21l-9 -106q-18 -205 -18 -229t11 -31.5t23 -7.5q30 0 57.5 38.5t44 101t16.5 131.5q0 85 -29 149.5t-82 99t-123 34.5q-91 0 -166.5 -56.5t-119.5 -153.5t-44 -215q0 -94 28.5 -166t80.5 -112t120 -40
q32 0 55 6t52 18q22 9 27 9q7 0 7 -9q0 -8 -3 -20q-4 -20 -53 -34t-89 -14q-82 0 -145.5 46zM409 140.5q26 25.5 45 84.5q3 54 8.5 112.5t10.5 75.5q-32 30 -70 30q-62 0 -87.5 -57t-25.5 -145q0 -67 18.5 -96.5t49.5 -29.5q25 0 51 25.5z" />
    <glyph glyph-name="A" unicode="A" horiz-adv-x="505" 
d="M-13 15q0 4 1 7l2 6l250 655q7 19 42 19h29q35 0 38 -19l115 -655q2 -10 2 -13q-1 -8 -11 -12.5t-28 -4.5h-17q-30 0 -31 16l-26 164h-218l-59 -164q-7 -16 -38 -16h-16q-37 0 -35 17zM340 250l-44 283q-4 27 -6 61h-5q-15 -47 -20 -61l-104 -283h179z" />
    <glyph glyph-name="B" unicode="B" horiz-adv-x="539" 
d="M64 7q-6 7 -4 23l68 640q2 16 9 23t22 7h153q98 0 144.5 -40t46.5 -111q0 -68 -30 -115t-77 -63v-4q33 -12 65 -45t32 -106q0 -110 -57 -163t-178 -53h-173q-15 0 -21 7zM293 398q60 0 88 34t28 105q0 45 -24.5 66t-79.5 21h-92l-24 -226h104zM284 76q61 0 89.5 37
t28.5 99q0 55 -28.5 82.5t-87.5 27.5h-105l-26 -246h129z" />
    <glyph glyph-name="C" unicode="C" 
d="M110 59.5q-56 65.5 -56 201.5q0 214 78.5 329.5t224.5 115.5q52 0 100 -19q14 -6 14 -21q0 -10 -5 -27t-13.5 -27.5t-18.5 -4.5q-37 21 -85 21q-96 0 -149 -94t-53 -265q0 -100 35.5 -148.5t107.5 -48.5q28 0 50 6t47 19q3 2 9 2q11 0 17 -14t6 -31q0 -13 -6.5 -22.5
t-21.5 -16.5q-18 -8 -48 -14.5t-61 -6.5q-116 0 -172 65.5z" />
    <glyph glyph-name="D" unicode="D" horiz-adv-x="577" 
d="M64 7q-6 7 -4 23l68 640q2 16 9 23t21 7h158q111 0 170 -65t59 -211q0 -424 -293 -424h-168q-14 0 -20 7zM258 76q108 0 151 95.5t43 243.5q0 109 -37.5 159t-108.5 50h-92l-58 -548h102z" />
    <glyph glyph-name="E" unicode="E" horiz-adv-x="457" 
d="M59 7q-6 7 -4 23l68 640q2 16 9 23t21 7h288q19 0 16 -30l-2 -16q-3 -30 -22 -30h-225l-24 -228h202q19 0 16 -30l-2 -16q-3 -30 -22 -30h-202l-26 -244h225q10 0 14 -7t2 -23l-2 -16q-2 -16 -7 -23t-15 -7h-288q-14 0 -20 7z" />
    <glyph glyph-name="F" unicode="F" horiz-adv-x="423" 
d="M54 20l69 650q2 16 9 23t21 7h260q19 0 16 -30l-2 -16q-3 -30 -22 -30h-197l-26 -248h180q17 0 17 -20q0 -6 -1 -10l-2 -16q-2 -16 -7 -23t-15 -7h-180l-30 -280q-3 -22 -40 -22h-14q-38 0 -36 22z" />
    <glyph glyph-name="G" unicode="G" horiz-adv-x="552" 
d="M113 63.5q-59 69.5 -59 206.5q0 201 72.5 318.5t231.5 117.5q36 0 72 -9.5t59 -24t23 -27.5q0 -12 -16 -35.5t-26 -23.5q-3 0 -20 11.5t-41.5 20.5t-57.5 9q-107 0 -155 -98.5t-48 -251.5q0 -96 32.5 -151.5t105.5 -55.5q53 0 90 13l23 223h-85q-17 0 -17 20q0 6 1 10
l1 16q3 30 23 30h148q27 0 24 -30l-30 -286q-4 -38 -60.5 -55t-128.5 -17q-103 0 -162 69.5z" />
    <glyph glyph-name="H" unicode="H" horiz-adv-x="601" 
d="M54 20l70 660q2 22 40 22h15q37 0 35 -22l-30 -283h263l30 283q2 22 40 22h14q38 0 36 -22l-70 -660q-2 -22 -40 -22h-14q-38 0 -36 22l32 301h-263l-32 -301q-2 -22 -39 -22h-15q-38 0 -36 22z" />
    <glyph glyph-name="I" unicode="I" horiz-adv-x="262" 
d="M61 20l70 660q2 22 40 22h15q37 0 35 -22l-70 -660q-2 -22 -39 -22h-15q-38 0 -36 22z" />
    <glyph glyph-name="J" unicode="J" horiz-adv-x="355" 
d="M2 2.5q-28 8.5 -27 23.5q2 14 11 34.5t18 20.5q6 0 22.5 -4.5t33.5 -4.5q50 0 75.5 29t32.5 94l51 485q2 22 40 22h14q39 0 37 -22l-50 -475q-10 -99 -58.5 -155t-139.5 -56q-32 0 -60 8.5z" />
    <glyph glyph-name="K" unicode="K" horiz-adv-x="510" 
d="M54 20l70 660q2 22 40 22h13q39 0 37 -22l-32 -306h3l235 314q11 14 48 14h17q17 0 25.5 -3.5t8.5 -9.5q-2 -9 -11 -20l-238 -317l199 -324q6 -10 5 -16q-1 -8 -10 -11t-31 -3h-11q-20 0 -31 2t-16 11l-195 322h-3l-33 -313q-2 -22 -41 -22h-13q-38 0 -36 22z" />
    <glyph glyph-name="L" unicode="L" horiz-adv-x="408" 
d="M59 7q-6 7 -4 23l69 650q2 22 40 22h14q38 0 36 -22l-64 -604h208q10 0 14.5 -7t2.5 -23l-2 -16q-3 -30 -23 -30h-271q-14 0 -20 7z" />
    <glyph glyph-name="M" unicode="M" horiz-adv-x="689" 
d="M47 20l69 660q2 22 40 22h19q29 0 36 -18l121 -296q17 -40 19 -71q11 41 29 68l183 299q12 18 40 18h23q38 0 36 -22l-69 -660q-2 -22 -41 -22h-12q-37 0 -35 22l48 458q4 33 12 71l-4 2q-16 -33 -37 -69l-141 -230q-7 -13 -23 -13h-34q-15 0 -21 13l-93 230
q-8 19 -23 69l-4 -2q2 -41 -2 -71l-48 -458q-2 -22 -41 -22h-12q-37 0 -35 22z" />
    <glyph glyph-name="N" unicode="N" horiz-adv-x="590" 
d="M48 20l69 660q2 22 40 22h24q15 0 24 -4.5t13 -15.5l183 -457q13 -35 20 -63l5 2q-2 12 -2 36q0 20 1 30l48 450q2 22 40 22h12q38 0 36 -22l-69 -660q-3 -22 -41 -22h-18q-28 0 -34 15l-191 472q-11 28 -19 63l-5 -2q2 -12 2 -36q0 -20 -1 -30l-49 -460q-2 -22 -41 -22
h-12q-38 0 -35 22z" />
    <glyph glyph-name="O" unicode="O" horiz-adv-x="599" 
d="M111.5 79q-56.5 85 -56.5 232q0 106 29.5 195.5t92 144.5t158.5 55q106 0 167.5 -74.5t61.5 -235.5q0 -105 -28 -196t-90.5 -148.5t-159.5 -57.5q-118 0 -174.5 85zM431 169.5q42 99.5 42 228.5q0 232 -141 232q-97 0 -140.5 -95t-43.5 -227q0 -238 142 -238
q99 0 141 99.5z" />
    <glyph glyph-name="P" unicode="P" horiz-adv-x="482" 
d="M54 20l69 650q1 16 8.5 23t21.5 7h145q90 0 136.5 -45.5t46.5 -133.5q0 -102 -53 -162.5t-144 -60.5h-110l-30 -278q-2 -22 -40 -22h-14q-39 0 -36 22zM287 374q50 0 76 37t26 108q0 55 -24.5 80t-78.5 25h-78l-26 -250h105z" />
    <glyph glyph-name="Q" unicode="Q" horiz-adv-x="599" 
d="M363 -96q-124 73 -158 96q-52 35 -83.5 71t-49 93t-17.5 147q0 106 29.5 195.5t92 144.5t158.5 55q106 0 167.5 -74.5t61.5 -235.5q0 -104 -26.5 -188t-75.5 -138t-114 -69v-3l194 -84q11 -6 10 -16q-3 -14 -22 -40.5t-34 -26.5q-9 0 -133 73zM431 169.5
q42 99.5 42 228.5q0 232 -141 232q-97 0 -140.5 -95t-43.5 -227q0 -238 142 -238q99 0 141 99.5z" />
    <glyph glyph-name="R" unicode="R" horiz-adv-x="513" 
d="M55 20l69 650q2 16 9 23t21 7h144q90 0 136.5 -45.5t46.5 -133.5q0 -66 -30 -114t-82 -63l-1 -4q20 -9 32 -36.5t24 -78.5l42 -197l2 -14q0 -16 -41 -16h-17q-14 0 -24 4.5t-11 11.5l-48 236q-7 32 -22 45t-46 13h-83l-31 -288q-3 -22 -40 -22h-14q-38 0 -36 22zM284 384
q52 0 78.5 34.5t26.5 100.5q0 55 -24.5 80t-78.5 25h-78l-25 -240h101z" />
    <glyph glyph-name="S" unicode="S" horiz-adv-x="437" 
d="M102 6.5q-42 11.5 -70 29.5q-11 8 -15.5 14.5t-4.5 18.5q0 16 6 29t15 13q6 0 17 -5t14 -6q66 -27 112 -27q58 0 94 28.5t36 86.5q0 42 -23 70.5t-66 53.5q-69 41 -109.5 86t-40.5 111q0 60 25 105.5t70.5 71t106.5 25.5q41 0 83 -8t65 -22q6 -4 6 -11q0 -12 -10.5 -37.5
t-18.5 -25.5q-3 0 -7.5 2t-6.5 3q-49 22 -98 22q-51 0 -89.5 -25t-38.5 -84q0 -41 26 -71.5t77 -59.5q64 -36 101 -79t37 -108q0 -99 -55.5 -155.5t-155.5 -56.5q-40 0 -82 11.5z" />
    <glyph glyph-name="T" unicode="T" horiz-adv-x="454" 
d="M157 20l64 604h-144q-17 0 -17 20q0 6 1 10l2 16q2 16 7 23t15 7h376q18 0 18 -20q0 -6 -1 -10l-2 -16q-2 -16 -7.5 -23t-15.5 -7h-142l-64 -604q-2 -22 -40 -22h-14q-38 0 -36 22z" />
    <glyph glyph-name="U" unicode="U" horiz-adv-x="583" 
d="M112.5 39.5q-52.5 45.5 -52.5 127.5q0 18 1 28l51 485q2 22 40 22h14q38 0 36 -22l-51 -488q-1 -5 -1 -15q0 -48 33.5 -77.5t88.5 -29.5q65 0 102 30.5t44 91.5l51 488q2 22 40 22h14q38 0 36 -22l-51 -485q-10 -95 -73.5 -148t-170.5 -53q-99 0 -151.5 45.5z" />
    <glyph glyph-name="V" unicode="V" horiz-adv-x="508" 
d="M176 16l-112 664q-3 22 42 22h14q32 0 35 -16l73 -492q8 -58 10 -97h3q12 48 27 94l176 495q5 16 39 16h12q38 0 38 -17q0 -2 -4 -14l-244 -657q-5 -16 -39 -16h-36q-31 0 -34 18z" />
    <glyph glyph-name="W" unicode="W" horiz-adv-x="752" 
d="M148 16l-79 665q-3 21 41 21h13q37 0 38 -16l39 -463q8 -87 6 -131h4q9 48 28 114l144 479q5 17 37 17h20q34 0 35 -17l45 -461q7 -65 7 -132h4q6 29 27 111l126 483q4 16 41 16h11q43 0 37 -21l-201 -667q-5 -16 -38 -16h-30q-33 0 -34 18l-42 399q-8 82 -8 166h-4
q-15 -91 -32 -146l-132 -421q-5 -16 -38 -16h-30q-32 0 -35 18z" />
    <glyph glyph-name="X" unicode="X" horiz-adv-x="506" 
d="M3.5 2q-9.5 4 -8.5 13q1 5 9 18l213 337l-126 296q-6 14 -6 21t7 11t25 4h21q15 0 24.5 -3t12.5 -12l96 -244l149 245q5 8 14.5 11t25.5 3h14q42 0 41 -17q-1 -5 -9 -18l-194 -301l141 -329q7 -17 7 -24q0 -15 -29 -15h-25q-16 0 -25 4t-14 16l-109 273l-167 -279
q-8 -14 -41 -14h-15q-22 0 -31.5 4z" />
    <glyph glyph-name="Y" unicode="Y" horiz-adv-x="484" 
d="M172 20l32 297l-134 350q-5 12 -5 18q0 9 9 13t31 4h17q17 0 25 -3t12 -12l99 -283l161 284q5 8 15 11t26 3h13q20 -1 28 -5t8 -12q0 -4 -8 -18l-208 -353l-31 -294q-2 -22 -40 -22h-14q-39 0 -36 22z" />
    <glyph glyph-name="Z" unicode="Z" horiz-adv-x="507" 
d="M21 17.5q-6 17.5 -6 35.5q0 8 3 12l380 559h-279q-16 0 -16 22q0 8 1 12l1 8q2 18 7 26t15 8h366q6 0 11 -18t5 -35q0 -9 -5 -17l-375 -554h301q17 0 17 -23q0 -7 -1 -11l-1 -8q-2 -18 -7.5 -26t-15.5 -8h-385q-10 0 -16 17.5z" />
    <glyph glyph-name="bracketleft" unicode="[" horiz-adv-x="239" 
d="M10 -131q-6 7 -4 23l89 846q2 16 9 23t21 7h102q10 0 14 -6.5t2 -22.5v-5q-2 -16 -7 -22.5t-15 -6.5h-57l-82 -781h57q16 0 16 -18q0 -7 -1 -11v-4q-2 -16 -7 -22.5t-15 -6.5h-102q-14 0 -20 7z" />
    <glyph glyph-name="backslash" unicode="\" horiz-adv-x="348" 
d="M247.5 -72.5q-6.5 3.5 -8.5 12.5l-172 714q-1 4 -5 18t-3 19q1 7 6 9.5t19 2.5h8q14 0 21 -3.5t9 -13.5l167 -693q11 -47 11 -54q0 -9 -6 -12t-21 -3h-4q-15 0 -21.5 3.5z" />
    <glyph glyph-name="bracketright" unicode="]" horiz-adv-x="239" 
d="M8.5 -131.5q-3.5 6.5 -2.5 22.5v4q2 16 7.5 22.5t15.5 6.5h58l82 781h-58q-17 0 -17 19q0 6 1 10v5q1 15 6.5 22t15.5 7h103q14 0 19 -7t4 -23l-89 -846q-1 -16 -8 -23t-21 -7h-103q-10 0 -13.5 6.5z" />
    <glyph glyph-name="asciicircum" unicode="^" horiz-adv-x="360" 
d="M335 331q0 -5 -8.5 -8t-20.5 -3h-8q-14 0 -20 3.5t-8 12.5l-54 266l-111 -267q-4 -9 -10 -12t-20 -3h-9q-24 0 -24 12q0 7 7 23l134 309q5 11 12.5 15.5t18.5 4.5h20q12 0 18.5 -4.5t8.5 -15.5l70 -309q4 -18 4 -24z" />
    <glyph glyph-name="underscore" unicode="_" horiz-adv-x="427" 
d="M-57 -118l1 8q1 20 21 20h423q18 0 17 -20l-1 -8q-1 -20 -21 -20h-423q-18 0 -17 20z" />
    <glyph glyph-name="grave" unicode="`" horiz-adv-x="146" 
d="M126 580q-9 4 -20 20l-37 55q-23 35 -23 46q0 9 11 13t34 4q31 0 43 -7t17 -22l22 -68q7 -21 7 -31q0 -7 -6 -10.5t-17 -3.5q-22 0 -31 4z" />
    <glyph glyph-name="a" unicode="a" horiz-adv-x="481" 
d="M75.5 52q-31.5 59 -31.5 151q0 84 23 158.5t68 121t109 46.5q66 0 108 -54q9 27 17.5 38.5t27.5 11.5h6q28 0 25 -21l-48 -381q-1 -7 -1 -18q0 -39 29 -39q12 0 22 2.5t14 2.5q6 0 6 -9q0 -10 -2.5 -24.5t-5.5 -20.5q-4 -10 -21 -16.5t-36 -6.5q-32 0 -57 19.5t-27 69.5
q-46 -90 -127 -90q-67 0 -98.5 59zM259.5 97.5q29.5 31.5 49.5 100.5l21 169q3 31 7 50q-16 17 -34 28t-46 11q-67 0 -97.5 -73.5t-30.5 -180.5q0 -61 16 -98.5t53 -37.5q32 0 61.5 31.5z" />
    <glyph glyph-name="b" unicode="b" horiz-adv-x="482" 
d="M178 14q-30 20 -49 60q-13 -45 -23 -60.5t-27 -15.5h-6q-17 0 -23 5.5t-4 16.5l75 710q2 22 40 22h11q37 0 35 -22l-27 -252q24 24 49.5 37.5t56.5 13.5q69 0 107.5 -56.5t38.5 -160.5q0 -84 -20.5 -156.5t-63 -117t-105.5 -44.5q-35 0 -65 20zM317 138.5
q25 71.5 25 176.5q0 70 -20.5 105t-63.5 35q-25 0 -45 -11t-40 -34l-19 -183q-6 -62 -13 -91q16 -33 39.5 -51t49.5 -18q62 0 87 71.5z" />
    <glyph glyph-name="c" unicode="c" horiz-adv-x="408" 
d="M88 42.5q-46 48.5 -46 155.5q0 163 61.5 247t177.5 84q45 0 82.5 -13.5t37.5 -31.5q0 -11 -14.5 -33t-22.5 -22q-2 0 -10 4q-3 1 -15.5 8t-29 11.5t-34.5 4.5q-69 0 -105.5 -65.5t-36.5 -190.5q0 -70 25 -102.5t79 -32.5q29 0 48 6t37 16q5 2 8.5 5t5.5 3q9 0 18.5 -18
t9.5 -31q0 -12 -22.5 -24.5t-55 -20.5t-59.5 -8q-93 0 -139 48.5z" />
    <glyph glyph-name="d" unicode="d" horiz-adv-x="481" 
d="M78.5 55q-35.5 61 -35.5 167q0 82 21 152t64.5 112.5t106.5 42.5q35 0 59.5 -13.5t44.5 -37.5l27 252q2 22 39 22h11q38 0 36 -22l-64 -607q-2 -16 -2 -25q0 -15 6 -23.5t22 -8.5q8 0 17 2.5t14 2.5q6 0 6 -9q0 -10 -2.5 -25t-5.5 -20q-5 -10 -21 -16.5t-36 -6.5
q-30 0 -54 17t-29 61q-53 -78 -124 -78q-65 0 -100.5 61zM254.5 85q25.5 18 48.5 51l29 274q-32 45 -82 45q-63 0 -91 -68.5t-28 -164.5q0 -155 75 -155q23 0 48.5 18z" />
    <glyph glyph-name="e" unicode="e" horiz-adv-x="454" 
d="M383 94q0 -15 -3.5 -29.5t-11.5 -22.5q-21 -23 -60.5 -35.5t-70.5 -12.5q-189 0 -189 200q0 95 26 170.5t79.5 120t132.5 44.5q50 0 81.5 -21.5t45 -52t13.5 -59.5q0 -89 -62 -136t-162 -47q-33 0 -67 6v-9q-2 -79 26 -111.5t83 -32.5q33 0 56.5 10t51.5 27q17 12 23 12
q8 0 8 -21zM182.5 410q-32.5 -47 -42.5 -125h53q61 0 104 24.5t43 79.5q0 29 -17 48.5t-46 19.5q-62 0 -94.5 -47z" />
    <glyph glyph-name="f" unicode="f" horiz-adv-x="286" 
d="M67 20l46 431h-29q-10 0 -14.5 7t-2.5 23l1 12q3 30 23 30h29l11 106q8 73 46 100t82 27q26 0 46.5 -8t19.5 -23q-1 -11 -9 -29t-18 -18q-3 0 -12.5 3t-23.5 3q-20 0 -31.5 -12.5t-15.5 -50.5l-11 -98h67q10 0 14.5 -7t2.5 -23l-1 -12q-3 -30 -23 -30h-67l-46 -431
q-2 -22 -42 -22h-4q-40 0 -38 22z" />
    <glyph glyph-name="g" unicode="g" horiz-adv-x="471" 
d="M422.5 520q5.5 -5 5.5 -16l-45 -422q-11 -109 -37.5 -173.5t-68 -92.5t-102.5 -28q-57 0 -95 19.5t-48 41.5q-2 6 -2 14q0 15 4.5 28t12.5 13q3 0 21.5 -12.5t43.5 -22t58 -9.5q57 0 86.5 47t41.5 160l2 15q-47 -82 -125 -82q-67 0 -99 60.5t-32 153.5q0 85 22.5 157
t68 115t111.5 43q64 0 106 -54q9 27 17.5 38.5t27.5 11.5h6q14 0 19.5 -5zM337 417q-16 17 -34.5 28t-44.5 11q-69 0 -99 -67.5t-30 -176.5q0 -139 71 -139q29 0 60 29t51 96l18 169q2 18 8 50z" />
    <glyph glyph-name="h" unicode="h" horiz-adv-x="485" 
d="M329 15.5q-26 21.5 -26 74.5q0 14 1 22l25 253q2 20 2 28q0 34 -13.5 48.5t-44.5 14.5q-37 0 -66.5 -23.5t-39.5 -46.5l-38 -366q-3 -22 -41 -22h-10q-38 0 -35 22l74 710q3 22 41 22h11q37 0 34 -22l-28 -268q24 31 57.5 49t71.5 18q50 0 81.5 -32t31.5 -97
q0 -17 -1 -27l-27 -265q-1 -5 -1 -14q0 -15 5 -21.5t18 -6.5q12 0 21 2.5t13 2.5q6 0 6 -9q0 -10 -2.5 -24.5t-5.5 -20.5q-4 -10 -21 -16.5t-36 -6.5q-31 0 -57 21.5z" />
    <glyph glyph-name="i" unicode="i" horiz-adv-x="254" 
d="M87 15.5q-26 21.5 -26 74.5q0 14 1 22l40 391q1 12 11.5 17t30.5 5h4q21 0 30 -6t8 -20l-39 -391q-1 -5 -1 -14q0 -15 5 -21.5t18 -6.5q12 0 21 2.5t13 2.5q6 0 6 -9q0 -11 -2.5 -25t-5.5 -20q-4 -10 -21 -16.5t-36 -6.5q-31 0 -57 21.5zM112 617l6 60q2 22 47 22
q23 0 32.5 -5.5t8.5 -16.5l-6 -60q-2 -22 -46 -22t-42 22z" />
    <glyph glyph-name="j" unicode="j" horiz-adv-x="249" 
d="M-63 -182q1 11 9 29t17 18q4 0 12 -2.5t24 -2.5q38 0 45 68l60 575q3 22 43 22h4q40 0 37 -22l-61 -583q-8 -74 -44.5 -103t-78.5 -29q-69 0 -67 30zM114 617l6 60q2 22 47 22q23 0 32.5 -5.5t8.5 -16.5l-6 -60q-2 -22 -46 -22t-42 22z" />
    <glyph glyph-name="k" unicode="k" horiz-adv-x="452" 
d="M68 20l74 710q3 22 41 22h11q37 0 34 -22l-47 -447h5l169 228q11 14 45 14h21q16 0 24 -3.5t7 -9.5q0 -8 -10 -21l-168 -226l129 -237q5 -10 5 -16q-1 -8 -10.5 -11t-30.5 -3h-25q-16 0 -21.5 2t-10.5 11l-124 247h-6l-26 -238q-3 -22 -40 -22h-11q-38 0 -35 22z" />
    <glyph glyph-name="l" unicode="l" horiz-adv-x="270" 
d="M91.5 15.5q-28.5 21.5 -28.5 77.5q0 14 1 22l65 615q2 22 42 22h4q40 0 38 -22l-65 -617q-1 -6 -1 -15q0 -20 8 -26t23 -6q12 0 22.5 2.5t15.5 2.5q6 0 6 -9q0 -10 -2.5 -24.5t-5.5 -20.5q-4 -10 -21 -16.5t-36 -6.5q-37 0 -65.5 21.5z" />
    <glyph glyph-name="m" unicode="m" horiz-adv-x="720" 
d="M686 62q0 -10 -2.5 -24.5t-5.5 -20.5q-4 -10 -21 -16.5t-36 -6.5q-31 0 -57 21.5t-26 74.5q0 14 1 22l24 247q1 8 1 22q0 75 -55 75q-29 0 -54.5 -21.5t-38.5 -48.5l-40 -366q-2 -22 -39 -22h-11q-38 0 -36 22l36 339q1 8 1 21q0 76 -60 76q-33 0 -60.5 -24t-35.5 -46
l-39 -366q-2 -22 -40 -22h-11q-38 0 -35 24l21 199q11 99 16 150t5 82q0 20 -0.5 29t-0.5 16q0 12 22 18t38 6q15 0 19.5 -17t4.5 -44v-9q25 35 59 56t73 21q38 0 66.5 -18.5t39.5 -58.5q27 36 62.5 56.5t72.5 20.5q48 0 78 -32t30 -98q0 -10 -2 -32l-26 -259l-1 -12
q0 -30 25 -30q9 0 18 2.5t14 2.5q6 0 6 -9z" />
    <glyph glyph-name="n" unicode="n" horiz-adv-x="482" 
d="M451 62q0 -10 -2.5 -24.5t-5.5 -20.5q-4 -9 -21 -16t-36 -7q-31 0 -57 21.5t-26 75.5q0 14 1 22l25 252q1 7 1 20q0 71 -60 71q-26 0 -51.5 -19t-43.5 -51l-39 -366q-2 -22 -40 -22h-11q-37 0 -34 24l36 345q5 53 5 86q0 19 -1 30t0 16q1 12 23 17.5t37 5.5
q14 0 18.5 -13t4.5 -36q0 -16 -1 -23q26 37 61 58t72 21q54 0 83.5 -34t29.5 -94q0 -8 -2 -28l-28 -265l-1 -12q0 -30 25 -30q9 0 18 2.5t14 2.5q6 0 6 -9z" />
    <glyph glyph-name="o" unicode="o" horiz-adv-x="477" 
d="M90.5 50q-46.5 56 -46.5 166q0 133 52 223t158 90q87 0 133 -57.5t46 -169.5q0 -133 -50.5 -220.5t-157.5 -87.5q-88 0 -134.5 56zM320.5 136q25.5 70 25.5 170q0 151 -98 151q-65 0 -90.5 -71t-25.5 -171q0 -149 98 -149q65 0 90.5 70z" />
    <glyph glyph-name="p" unicode="p" horiz-adv-x="484" 
d="M402 469.5q34 -59.5 34 -164.5q0 -83 -22 -154t-66 -114t-108 -43q-34 0 -57.5 13t-42.5 38l-24 -231q-2 -22 -41 -22h-10q-38 0 -35 22l58 559q5 48 5 85q0 17 -1 27.5t0 15.5q2 11 23.5 16t35.5 5q25 0 25 -48q0 -15 -1 -23q26 39 60 58.5t70 19.5q63 0 97 -59.5z
M319 137.5q29 69.5 29 166.5q0 152 -71 152q-26 0 -52.5 -18t-48.5 -51l-29 -274q30 -45 78 -45q65 0 94 69.5z" />
    <glyph glyph-name="q" unicode="q" horiz-adv-x="481" 
d="M435 503l-72 -689q-3 -22 -41 -22h-11q-37 0 -34 22l24 231q-25 -25 -50.5 -38t-60.5 -13q-65 0 -103 54t-38 152q0 85 22 160.5t65 122t102 46.5q35 0 63.5 -19t47.5 -56q8 41 17 56t26 15h12q33 0 31 -22zM327 302q3 32 12 79q-17 36 -40 55.5t-48 19.5
q-57 0 -85 -77.5t-28 -180.5q0 -130 80 -130q52 0 89 45z" />
    <glyph glyph-name="r" unicode="r" horiz-adv-x="337" 
d="M58 20l38 353q4 40 4 73q0 25 -1.5 38t-1.5 15q0 12 19.5 17.5t36.5 5.5q14 0 19 -15.5t6.5 -31.5t2.5 -21q56 75 113 75q24 0 36 -9.5t12 -25.5q0 -15 -8.5 -36.5t-17.5 -21.5q-5 0 -17.5 5.5t-30.5 5.5q-26 0 -52 -22t-35 -39l-39 -366q-2 -22 -42 -22h-4q-40 0 -38 22
z" />
    <glyph glyph-name="s" unicode="s" horiz-adv-x="353" 
d="M71.5 1q-29.5 10 -47 24.5t-17.5 26.5q0 8 13.5 27t21.5 19q3 0 19.5 -9.5t35 -16.5t43.5 -7q41 0 63 22t22 56q0 32 -18 51t-57 44q-43 28 -69.5 61.5t-26.5 81.5q0 69 46.5 109t118.5 40q39 0 72 -13t32 -30q-1 -11 -13 -29t-22 -18q-4 0 -25.5 9t-47.5 9
q-40 0 -59 -18t-19 -47t17 -47t49 -39q48 -30 76 -63t28 -90q0 -76 -46.5 -119.5t-123.5 -43.5q-36 0 -65.5 10z" />
    <glyph glyph-name="t" unicode="t" horiz-adv-x="298" 
d="M108 18q-31 24 -31 84q0 15 1 24l32 325h-39q-10 0 -14 6.5t-3 20.5l1 15q1 30 24 30h40l21 105q4 22 30 22h19q26 0 23 -27l-11 -100h60q12 0 17 -7t3 -23l-1 -12q-3 -30 -23 -30h-63l-33 -323q-1 -6 -1 -17q0 -27 11 -36t32 -9q16 0 27 2.5t15 2.5q6 0 6 -9
q0 -25 -6 -39q-5 -14 -21.5 -21.5t-37.5 -7.5q-47 0 -78 24z" />
    <glyph glyph-name="u" unicode="u" horiz-adv-x="482" 
d="M449 62q-1 -9 -3.5 -25.5t-4.5 -19.5q-4 -10 -21 -16.5t-36 -6.5q-29 0 -52.5 17.5t-29.5 55.5q-26 -35 -61.5 -54.5t-72.5 -19.5q-56 0 -86 32t-30 89q0 16 1 24l39 364q3 22 40 22h10q38 0 36 -22l-37 -351q-1 -6 -1 -17q0 -68 63 -68q28 0 54.5 19t45.5 51l39 366
q2 22 40 22h10q38 0 36 -22l-41 -394l-1 -12q0 -30 25 -30q9 0 18 2.5t14 2.5q6 0 6 -9z" />
    <glyph glyph-name="v" unicode="v" horiz-adv-x="412" 
d="M123 16l-74 489q-3 20 42 20h13q31 0 34 -16l37 -272q11 -80 13 -149h6q13 60 39 138l97 283q5 16 39 16h12q39 0 34 -17l-4 -14l-173 -480q-5 -16 -38 -16h-42q-32 0 -35 18z" />
    <glyph glyph-name="w" unicode="w" horiz-adv-x="616" 
d="M97 16l-56 490q-2 19 37 19h15q34 0 35 -16l27 -319q3 -44 5 -96h5q19 74 26 97l99 317q4 17 37 17h19q16 0 24.5 -4t9.5 -13l34 -317q2 -32 2 -42l3 -54h5q3 12 7 31q4 13 8 29.5t9 34.5l94 319q5 16 33 16h15q19 0 28 -5t9 -12q0 -5 -4 -17l-157 -477q-4 -16 -38 -16
h-34q-33 0 -34 16l-34 295q-2 50 -2 79h-4l-18 -79l-97 -295q-5 -16 -38 -16h-35q-32 0 -35 18z" />
    <glyph glyph-name="x" unicode="x" horiz-adv-x="404" 
d="M6 2.5q-6 2.5 -6 8.5q0 8 9 22l150 236l-109 220q-5 12 -4 19q1 9 9 13t29 4h10q16 0 24.5 -2.5t12.5 -11.5l62 -141q13 -30 16 -38l19 35l82 143q5 9 15 12t27 3h12q39 0 37 -17q-1 -3 -9 -18l-142 -225l113 -231q7 -14 7 -20q0 -14 -25 -14h-24q-18 0 -25.5 1.5
t-11.5 10.5l-70 157q-7 15 -15 35q-10 -20 -17 -32l-89 -159q-5 -8 -12 -10.5t-17 -2.5h-37q-15 0 -21 2.5z" />
    <glyph glyph-name="y" unicode="y" horiz-adv-x="399" 
d="M406 508q-2 -8 -6 -18l-267 -677q-10 -21 -43 -21h-21q-32 0 -30 16q0 1 6 17l87 209l-90 456q-3 14 -2 18q2 17 41 17h14q31 0 34 -16l42 -281q8 -54 11 -80h6q7 20 11 36l15 44l105 281q5 16 39 16h12q38 0 36 -17z" />
    <glyph glyph-name="z" unicode="z" horiz-adv-x="405" 
d="M22 16q-6 16 -6 30q0 10 7 20l263 385h-194q-19 0 -16 30l1 12q2 16 7 23t15 7h278q7 0 12 -17t5 -31q0 -9 -6 -19l-263 -384h210q19 0 16 -30l-1 -12q-2 -16 -7 -23t-15 -7h-291q-9 0 -15 16z" />
    <glyph glyph-name="braceleft" unicode="{" horiz-adv-x="249" 
d="M84 -117q-21 21 -21 71q0 15 1 24l19 178q3 24 3 43q0 29 -8 47.5t-28 27.5q-12 6 -17 13.5t-4 20.5l1 14q1 13 8.5 20.5t20.5 13.5q29 13 40.5 40t16.5 78l19 178q7 63 35 89.5t55 26.5h45q11 0 14.5 -6.5t2.5 -22.5v-4q-1 -16 -6.5 -22.5t-16.5 -6.5h-17q-20 0 -29 -15
t-12 -46l-19 -187q-6 -58 -33.5 -92.5t-53.5 -51.5q17 -9 37.5 -39.5t20.5 -81.5q0 -14 -1 -21l-20 -186q-1 -8 -1 -22q0 -20 6.5 -30t22.5 -10h17q17 0 17 -19q0 -6 -1 -10v-4q-1 -16 -6.5 -22.5t-16.5 -6.5h-45q-25 0 -46 21z" />
    <glyph glyph-name="bar" unicode="|" horiz-adv-x="200" 
d="M180 748l-91 -866q-2 -22 -26 -22h-10q-24 0 -22 22l91 866q3 22 26 22h10q25 0 22 -22z" />
    <glyph glyph-name="braceright" unicode="}" horiz-adv-x="249" 
d="M-18.5 -131.5q-3.5 6.5 -2.5 22.5v4q2 16 7.5 22.5t16.5 6.5h16q20 0 28.5 15t11.5 47l20 186q4 42 21 73t36 47.5t31 21.5q-21 15 -40 44t-19 78q0 14 1 22l19 187q1 9 1 23q0 20 -6 29t-22 9h-16q-11 0 -14.5 6.5t-2.5 22.5v4q1 16 6.5 22.5t16.5 6.5h44q24 0 45.5 -21
t21.5 -71q0 -16 -1 -24l-19 -178q-2 -30 -2 -42q0 -30 8 -48t28 -28q12 -6 17 -13.5t4 -20.5l-1 -14q-1 -13 -8.5 -20.5t-20.5 -13.5q-29 -13 -41 -40.5t-17 -77.5l-19 -178q-7 -64 -34.5 -90t-55.5 -26h-44q-11 0 -14.5 6.5z" />
    <glyph glyph-name="asciitilde" unicode="~" horiz-adv-x="438" 
d="M56.5 231q-8.5 5 -8.5 9q0 11 8 27q30 57 90 57q20 0 37.5 -5.5t39.5 -16.5q24 -10 39 -15t33 -5q24 0 36.5 9.5t22 23t13.5 13.5q6 0 16 -6t10 -11v-3q0 -6 -8 -21q-17 -31 -39.5 -45.5t-53.5 -14.5q-27 0 -49 6.5t-48 18.5q-14 6 -28.5 11t-26.5 5q-20 0 -32 -8.5
t-22 -21t-14 -12.5q-7 0 -15.5 5z" />
    <glyph glyph-name="uni00A0" unicode="&#xa0;" horiz-adv-x="137" 
 />
    <glyph glyph-name="exclamdown" unicode="&#xa1;" horiz-adv-x="246" 
d="M107 437l7 66q3 22 41 22h18q38 0 35 -22l-7 -66q-2 -22 -40 -22h-18q-38 0 -36 22zM29 -157l77 456q2 11 9 16.5t23 5.5h9q16 0 22.5 -5.5t5.5 -16.5l-48 -456q-2 -22 -40 -22h-23q-38 0 -35 22z" />
    <glyph glyph-name="cent" unicode="&#xa2;" horiz-adv-x="420" 
d="M375 510q26 -12 26 -26q0 -11 -14.5 -33t-22.5 -22q-2 0 -10 4q-3 2 -16.5 9t-32.5 12l-41 -386q29 3 58 20q5 2 8.5 5t5.5 3q9 0 18.5 -18t9.5 -31q0 -15 -34 -30t-74 -21l-5 -49q-1 -18 -28 -18h-5q-25 0 -24 18l5 48q-79 7 -118 55.5t-39 147.5q0 154 54.5 237.5
t158.5 92.5l5 43q2 18 27 18h5q27 0 25 -18l-5 -44q37 -5 63 -17zM150.5 109q17.5 -32 56.5 -40l41 385q-56 -13 -85.5 -77.5t-29.5 -175.5q0 -60 17.5 -92z" />
    <glyph glyph-name="sterling" unicode="&#xa3;" horiz-adv-x="470" 
d="M15 20q0 6 1 10l2 16q1 7 8 13t22 13q29 15 46.5 33t21.5 54l18 180h-51q-24 0 -21 28l1 13q1 18 7.5 24.5t17.5 6.5h54l9 87q21 208 193 208q39 0 69 -7t28 -25q0 -7 -8.5 -28t-18.5 -21q-5 0 -23 4.5t-39 4.5q-54 0 -82 -31.5t-35 -99.5l-9 -92h115q11 0 16 -6t4 -22
l-1 -14q-1 -17 -7 -23.5t-17 -6.5h-118l-9 -90q-14 -142 -81 -177h243q10 0 14.5 -7t2.5 -23l-1 -12q-3 -30 -23 -30h-331q-18 0 -18 20z" />
    <glyph glyph-name="currency" unicode="&#xa4;" horiz-adv-x="470" 
d="M63 152l-1 2q-1 2 -4 6t-3 9q0 12 14 24l33 30q-17 34 -17 77q0 68 38 122l-27 28q-10 12 -8 22q2 9 8 16l4 5q7 8 17 8t21 -12l22 -25q47 36 99 36q53 0 91 -35l28 25q12 10 21 10t18 -9l2 -2q7 -7 7 -14q0 -13 -13 -25l-32 -29q16 -37 16 -77q0 -66 -37 -122l26 -29
q10 -12 9 -21q-1 -5 -4.5 -11t-7.5 -8l-2 -1q-3 -2 -8 -5.5t-10 -3.5q-9 0 -20 11l-23 25q-45 -34 -98 -34q-52 0 -91 34l-28 -26q-11 -10 -22 -10q-13 0 -18 9zM303.5 242.5q31.5 36.5 31.5 99.5q0 45 -23 71t-59 26q-44 0 -75.5 -37t-31.5 -99q0 -46 23 -71.5t59 -25.5
q44 0 75.5 36.5z" />
    <glyph glyph-name="yen" unicode="&#xa5;" horiz-adv-x="490" 
d="M506 667l-168 -285h96q18 0 18 -21l-1 -9l-1 -9q-3 -28 -24 -28h-127l-1 -1l-10 -95h128q18 0 18 -21l-1 -9l-1 -9q-3 -28 -24 -28h-127l-14 -132q-2 -22 -40 -22h-14q-39 0 -36 22l14 132h-126q-19 0 -19 21l1 9l1 9q3 28 25 28h125l11 96h-126q-19 0 -19 21l1 9l1 9
q3 28 25 28h93l-109 285q-5 12 -5 18q0 9 9 13t31 4h17q17 0 25 -3t12 -12l99 -283l161 284q5 8 15 11t26 3h13q20 -1 28 -5t8 -12q0 -4 -8 -18z" />
    <glyph glyph-name="brokenbar" unicode="&#xa6;" horiz-adv-x="200" 
d="M174 764.5q5 -5.5 5 -16.5q0 -12 -12 -132.5t-22 -190.5q-3 -22 -26 -22h-10q-13 0 -17.5 5.5t-4.5 16.5q0 10 8 76q19 152 26 247q2 22 26 22h10q12 0 17 -5.5zM117 220.5q5 -5.5 5 -16.5q0 -12 -12 -132t-22 -190q-3 -22 -26 -22h-10q-13 0 -17.5 5.5t-4.5 16.5
q0 2 9 81q21 184 25 241q2 22 26 22h10q12 0 17 -5.5z" />
    <glyph glyph-name="section" unicode="&#xa7;" horiz-adv-x="355" 
d="M81.5 2q-27.5 8 -44 20.5t-16.5 23.5t15 32.5t23 21.5q3 0 16 -9t29.5 -16t38.5 -7q34 0 54.5 18t20.5 47q0 26 -18.5 41.5t-71.5 43.5q-87 47 -87 124q0 41 21 75t51 52q-38 36 -38 87q0 42 20.5 76t57 53.5t81.5 19.5q40 0 73.5 -12.5t33.5 -28.5q0 -11 -14.5 -33
t-21.5 -22q-2 0 -23 12t-50 12q-33 0 -52.5 -17t-19.5 -44t16.5 -42t36.5 -25l26 -13q43 -23 68.5 -54t25.5 -79q0 -38 -18 -70t-51 -54q38 -38 38 -89q0 -43 -21 -77.5t-58.5 -54.5t-83.5 -20q-30 0 -57.5 8zM235 302.5q15 20.5 15 48.5q0 29 -16 43.5t-53 33.5
q-26 -8 -40.5 -28t-14.5 -49t17 -44.5t51 -30.5q26 6 41 26.5z" />
    <glyph glyph-name="dieresis" unicode="&#xa8;" horiz-adv-x="229" 
d="M46 602.5q-10 5.5 -8 16.5l6 56q2 12 12.5 17t33.5 5q45 0 42 -22l-6 -56q-2 -11 -12.5 -16.5t-33.5 -5.5q-24 0 -34 5.5zM178 619l6 56q2 11 12.5 16.5t33.5 5.5q45 0 42 -22l-6 -56q-2 -11 -12.5 -16.5t-33.5 -5.5q-45 0 -42 22z" />
    <glyph glyph-name="copyright" unicode="&#xa9;" horiz-adv-x="592" 
d="M160.5 37.5q-65.5 42.5 -103.5 124t-38 192.5t38 191.5t103 122.5t146 42t146 -42t103 -122.5t38 -191.5t-38 -192.5t-103.5 -124t-145.5 -42.5t-145.5 42.5zM426 79.5q54 36.5 85.5 107t31.5 167.5q0 98 -31.5 167.5t-85.5 105t-120 35.5t-120 -35.5t-85.5 -105
t-31.5 -167.5q0 -97 31.5 -167.5t85.5 -107t120 -36.5t120 36.5zM204 189q-37 52 -37 160q0 213 153 213q33 0 62.5 -12.5t29.5 -24.5q0 -8 -7.5 -21.5t-13.5 -13.5q-1 0 -19 13.5t-52 13.5q-51 0 -75.5 -40.5t-24.5 -127.5q0 -86 24 -126.5t74 -40.5q23 0 39.5 7t27 15
t12.5 8q7 0 14 -12.5t7 -19.5q0 -8 -15 -18.5t-38.5 -17.5t-46.5 -7q-77 0 -114 52z" />
    <glyph glyph-name="ordfeminine" unicode="&#xaa;" horiz-adv-x="281" 
d="M77.5 470q-18.5 30 -18.5 75q0 66 29.5 114.5t81.5 48.5q21 0 36.5 -8t22.5 -19q5 14 9 19.5t13 5.5h8q15 0 13 -10l-24 -191l-1 -9q0 -19 15 -19q7 0 11 1t7 1t3 -5q0 -12 -4 -22q-2 -5 -10.5 -8t-18.5 -3q-17 0 -30.5 10t-11.5 34q-27 -45 -73 -45q-39 0 -57.5 30z
M181.5 500q15.5 14 26.5 46l10 76l2 23q-6 7 -18 12.5t-27 5.5q-35 0 -51 -33.5t-16 -82.5q0 -61 41 -61q17 0 32.5 14z" />
    <glyph glyph-name="guillemotleft" unicode="&#xab;" horiz-adv-x="471" 
d="M156 74l-100 156q-8 12 -8 23q0 7 4 13.5t15 19.5l143 161q6 8 15 8q11 0 22 -10.5t11 -20.5q0 -8 -12 -22l-129 -149l86 -147q7 -12 7 -20t-12 -16t-25 -8q-9 0 -17 12zM328 74l-100 156q-8 12 -8 23q0 7 4 13.5t15 19.5l143 161q6 8 15 8q11 0 22 -10.5t11 -20.5
q0 -8 -12 -22l-129 -149l86 -147q7 -12 7 -20t-12 -16t-25 -8q-9 0 -17 12z" />
    <glyph glyph-name="logicalnot" unicode="&#xac;" horiz-adv-x="449" 
d="M333 83q-7 6 -5 18l16 164h-291q-22 0 -19 28l1 13q2 17 7.5 24.5t17.5 7.5h337q16 0 22.5 -7.5t4.5 -24.5l-22 -207q-2 -22 -34 -22h-10q-18 0 -25 6z" />
    <glyph glyph-name="uni00AD" unicode="&#xad;" horiz-adv-x="254" 
d="M30 257l1 14q1 17 7 23.5t19 6.5h149q22 0 19 -28l-1 -14q-2 -30 -26 -30h-148q-23 0 -20 28z" />
    <glyph glyph-name="registered" unicode="&#xae;" horiz-adv-x="592" 
d="M160.5 37.5q-65.5 42.5 -103.5 124t-38 192.5t38 191.5t103 122.5t146 42t146 -42t103 -122.5t38 -191.5t-38 -192.5t-103.5 -124t-145.5 -42.5t-145.5 42.5zM426 79.5q54 36.5 85.5 107t31.5 167.5q0 98 -31.5 167.5t-85.5 105t-120 35.5t-120 -35.5t-85.5 -105
t-31.5 -167.5q0 -97 31.5 -167.5t85.5 -107t120 -36.5t120 36.5zM207 158v383q0 18 16 18h82q57 0 85 -24.5t28 -79.5q0 -37 -14.5 -62t-39.5 -38v-2q12 -6 21 -24t19 -50l36 -116q2 -4 2 -9q0 -9 -22 -9h-10q-8 0 -14 2.5t-7 6.5l-35 116q-10 34 -23 46t-39 12h-33v-170
q0 -13 -22 -13h-8q-22 0 -22 13zM313 373q21 0 36 21.5t15 50.5q0 35 -14.5 52t-39.5 17h-52v-141h55z" />
    <glyph glyph-name="macron" unicode="&#xaf;" horiz-adv-x="237" 
d="M40 642l1 10q3 30 22 30h199q11 0 14.5 -7t1.5 -23l-1 -10q-3 -30 -22 -30h-199q-19 0 -16 30z" />
    <glyph glyph-name="degree" unicode="&#xb0;" horiz-adv-x="276" 
d="M90 472q-26 31 -26 83q0 66 31.5 108.5t87.5 42.5q43 0 69 -31.5t26 -85.5q0 -62 -31.5 -105t-87.5 -43q-43 0 -69 31zM213.5 515q15.5 29 15.5 72q0 35 -13.5 54.5t-38.5 19.5q-35 0 -50.5 -30t-15.5 -72q0 -35 13.5 -54t38.5 -19q35 0 50.5 29z" />
    <glyph glyph-name="plusminus" unicode="&#xb1;" horiz-adv-x="449" 
d="M185.5 133q-6.5 5 -4.5 17l18 177h-135q-22 0 -19 26l1 13q1 17 6.5 22.5t17.5 5.5h136l19 179q1 11 7.5 15.5t24.5 4.5h7q16 0 22.5 -5t5.5 -17l-19 -177h134q9 0 14 -5t4 -19l-1 -15q-1 -15 -8 -21.5t-17 -6.5h-133l-19 -179q-1 -20 -32 -20h-7q-16 0 -22.5 5zM12 26
l1 13q1 17 6.5 22.5t17.5 5.5h335q9 0 14 -5t4 -19l-1 -15q-1 -15 -8 -21.5t-17 -6.5h-333q-22 0 -19 26z" />
    <glyph glyph-name="uni00B2" unicode="&#xb2;" horiz-adv-x="280" 
d="M42.5 355.5q-2.5 5.5 -2.5 12.5q0 12 5 19l154 191q30 37 39 52t9 34q0 24 -17 37.5t-46 13.5q-22 0 -38 -6.5t-28.5 -15t-15.5 -8.5q-4 0 -10 10t-6 18q0 16 35.5 30t68.5 14q46 0 74 -23t28 -62q0 -23 -8 -42.5t-22.5 -39t-30.5 -39.5l-129 -160h156q6 0 8 -3.5
t1 -13.5l-1 -7q-2 -9 -4.5 -13t-9.5 -4h-203q-4 0 -6.5 5.5z" />
    <glyph glyph-name="uni00B3" unicode="&#xb3;" horiz-adv-x="280" 
d="M66.5 354q-29.5 10 -29.5 22q0 7 9 18.5t14 11.5q3 0 23 -9.5t49 -9.5q41 0 66 24.5t25 66.5q0 64 -76 64h-23q-5 0 -7.5 4t-2.5 14v6q0 17 14 17h21q38 0 60 26.5t22 54.5q0 20 -14.5 35.5t-47.5 15.5q-28 0 -46.5 -9.5t-21.5 -9.5q-4 0 -10 11.5t-6 17.5
q0 13 31.5 22.5t59.5 9.5q48 0 76.5 -23.5t28.5 -64.5t-21.5 -66.5t-48.5 -33.5v-2q26 -8 44.5 -30t18.5 -60q0 -59 -39.5 -96t-99.5 -37q-39 0 -68.5 10z" />
    <glyph glyph-name="acute" unicode="&#xb4;" horiz-adv-x="146" 
d="M34 588q0 7 14 33l38 71q7 13 20 19.5t45 6.5q22 0 31.5 -3.5t9.5 -10.5q0 -5 -5 -12t-13 -16l-14 -16l-50 -60q-13 -16 -23 -20t-32 -4q-21 0 -21 12z" />
    <glyph glyph-name="uni00B5" unicode="&#xb5;" horiz-adv-x="453" 
d="M441 68.5q1 -2.5 1 -6.5q0 -10 -4 -35q-2 -14 -21.5 -22t-40.5 -8q-29 0 -52.5 15.5t-29.5 55.5q-61 -74 -131 -74q-29 0 -52 17q3 -35 3 -70q0 -63 -9 -127q-3 -22 -39 -22h-11q-39 0 -36 22l72 689q3 22 41 22h11q37 0 34 -22l-35 -339q-1 -8 -1 -22q0 -36 15.5 -55.5
t45.5 -19.5q25 0 49.5 18.5t44.5 51.5l38 366q3 22 41 22h10q37 0 35 -22l-41 -393q-4 -44 22 -44q13 0 22 2.5t13 2.5t5 -2.5z" />
    <glyph glyph-name="paragraph" unicode="&#xb6;" horiz-adv-x="466" 
d="M165 -151l39 375q-45 7 -80.5 38t-55.5 79.5t-20 104.5q0 67 27.5 125t78 93.5t115.5 35.5h217q21 0 18 -24l-2 -14q-2 -13 -7 -18.5t-15 -5.5h-30l-83 -789q-3 -22 -27 -22h-14q-23 0 -21 22l83 789h-78l-83 -789q-3 -22 -27 -22h-14q-24 0 -21 22z" />
    <glyph glyph-name="periodcentered" unicode="&#xb7;" horiz-adv-x="214" 
d="M81 322q-13 13 -13 34q0 24 14.5 40t38.5 16q20 0 33 -13t13 -34q0 -27 -15 -41.5t-38 -14.5q-20 0 -33 13z" />
    <glyph glyph-name="cedilla" unicode="&#xb8;" horiz-adv-x="190" 
d="M149 -120q0 -41 -28 -65.5t-76 -24.5q-35 0 -63 9.5t-28 27.5q0 9 5.5 16.5t15.5 7.5q8 0 23 -5q27 -9 47 -9t32.5 10.5t12.5 28.5q0 13 -7.5 18t-23.5 12q-12 4 -17 7t-5 10q0 8 29 77h44l-23 -56q62 -12 62 -64z" />
    <glyph glyph-name="uni00B9" unicode="&#xb9;" horiz-adv-x="280" 
d="M146 351.5q-6 3.5 -5 10.5l36 343l-64 -13h-2q-5 0 -7 6.5t-2 14.5q0 9 2 13.5t9 5.5l102 25h3q5 0 9.5 -3.5t3.5 -7.5l-40 -384q-1 -14 -23 -14h-8q-8 0 -14 3.5z" />
    <glyph glyph-name="ordmasculine" unicode="&#xba;" horiz-adv-x="292" 
d="M95 470q-26 29 -26 84q0 75 31 113.5t90 38.5q48 0 73 -29.5t25 -85.5q0 -74 -30 -112t-88 -38q-49 0 -75 29zM238 589q0 72 -54 72q-65 0 -65 -105q0 -34 13.5 -52t40.5 -18q65 0 65 103z" />
    <glyph glyph-name="guillemotright" unicode="&#xbb;" horiz-adv-x="471" 
d="M142 441l100 -156q8 -12 8 -23q0 -7 -4 -13.5t-15 -19.5l-143 -161q-6 -8 -15 -8q-11 0 -22 10.5t-11 20.5q0 8 12 22l129 149l-86 147q-7 12 -7 20t12 16t25 8q9 0 17 -12zM314 441l100 -156q8 -12 8 -23q0 -7 -4 -13.5t-15 -19.5l-143 -161q-6 -8 -15 -8
q-11 0 -22 10.5t-11 20.5q0 8 12 22l129 149l-86 147q-7 12 -7 20t12 16t25 8q9 0 17 -12z" />
    <glyph glyph-name="onequarter" unicode="&#xbc;" horiz-adv-x="675" 
d="M106 291.5q-6 3.5 -5 10.5l36 343l-64 -13h-2q-5 0 -7 6.5t-2 14.5q0 9 2 13.5t9 5.5l102 25h3q5 0 9.5 -3.5t3.5 -7.5l-40 -384q-1 -14 -23 -14h-8q-8 0 -14 3.5zM536 11l9 85h-143q-4 0 -7.5 8t-3.5 17q0 7 4 12l181 264q5 8 21 8h11q8 0 12.5 -3.5t3.5 -9.5l-26 -255
h32q6 0 7.5 -3.5t1.5 -13.5v-7q0 -17 -14 -17h-32l-9 -85q-1 -13 -19 -13h-13q-17 0 -16 13zM550 137l12 116q4 41 12 70l-3 1l-126 -187h105zM105 4q0 3 7 15l386 676q3 5 8 6.5t15 1.5h2q13 0 18 -1t5 -5t-4 -11l-388 -680q-3 -5 -8.5 -6.5t-16.5 -1.5h-3q-21 0 -21 6z
" />
    <glyph glyph-name="onehalf" unicode="&#xbd;" horiz-adv-x="675" 
d="M106 291.5q-6 3.5 -5 10.5l36 343l-64 -13h-2q-5 0 -7 6.5t-2 14.5q0 9 2 13.5t9 5.5l102 25h3q5 0 9.5 -3.5t3.5 -7.5l-40 -384q-1 -14 -23 -14h-8q-8 0 -14 3.5zM388.5 5.5q-2.5 5.5 -2.5 12.5q0 12 5 19l154 191q30 37 39 52t9 34q0 24 -17 37.5t-46 13.5
q-22 0 -38 -6.5t-28.5 -15t-15.5 -8.5q-4 0 -10 10t-6 18q0 16 35.5 30t68.5 14q46 0 74 -23t28 -62q0 -23 -8 -42.5t-22.5 -39t-30.5 -39.5l-129 -160h156q6 0 8 -3.5t1 -13.5l-1 -7q-2 -9 -4.5 -13t-9.5 -4h-203q-4 0 -6.5 5.5zM90 4q0 3 7 15l386 676q3 5 8 6.5t15 1.5h2
q13 0 18 -1t5 -5t-4 -11l-388 -680q-3 -5 -8.5 -6.5t-16.5 -1.5h-3q-21 0 -21 6z" />
    <glyph glyph-name="threequarters" unicode="&#xbe;" horiz-adv-x="675" 
d="M50.5 294q-29.5 10 -29.5 22q0 7 9 18.5t14 11.5q3 0 23 -9.5t49 -9.5q41 0 66 24.5t25 66.5q0 64 -76 64h-23q-5 0 -7.5 4t-2.5 14v6q0 17 14 17h21q38 0 60 26.5t22 54.5q0 20 -14.5 35.5t-47.5 15.5q-28 0 -46.5 -9.5t-21.5 -9.5q-4 0 -10 11.5t-6 17.5
q0 13 31.5 22.5t59.5 9.5q48 0 76.5 -23.5t28.5 -64.5t-21.5 -66.5t-48.5 -33.5v-2q26 -8 44.5 -30t18.5 -60q0 -59 -39.5 -96t-99.5 -37q-39 0 -68.5 10zM536 11l9 85h-143q-4 0 -7.5 8t-3.5 17q0 7 4 12l181 264q5 8 21 8h11q8 0 12.5 -3.5t3.5 -9.5l-26 -255h32
q6 0 7.5 -3.5t1.5 -13.5v-7q0 -17 -14 -17h-32l-9 -85q-1 -13 -19 -13h-13q-17 0 -16 13zM550 137l12 116q4 41 12 70l-3 1l-126 -187h105zM144 4q0 3 7 15l386 676q3 5 8 6.5t15 1.5h2q13 0 18 -1t5 -5t-4 -11l-388 -680q-3 -5 -8.5 -6.5t-16.5 -1.5h-3q-21 0 -21 6z" />
    <glyph glyph-name="questiondown" unicode="&#xbf;" horiz-adv-x="391" 
d="M319 503l-7 -66q-2 -22 -42 -22h-17q-40 0 -38 22l7 66q3 22 43 22h17q40 0 37 -22zM285 298q-4 -34 -29.5 -77t-69.5 -87q-51 -50 -75 -83.5t-24 -75.5q0 -84 99 -84q43 0 93 26q4 2 11 5t11 3q7 0 17.5 -20t8.5 -31q-2 -24 -52.5 -40.5t-105.5 -16.5q-82 0 -129.5 41.5
t-47.5 104.5q0 39 16 72t37 58t61 67q47 47 70 76.5t31 64.5q3 11 10.5 15.5t24.5 4.5h15q30 0 28 -23z" />
    <glyph glyph-name="Agrave" unicode="&#xc0;" horiz-adv-x="505" 
d="M-13 15q0 4 1 7l2 6l250 655q7 19 42 19h29q35 0 38 -19l115 -655q2 -10 2 -13q-1 -8 -11 -12.5t-28 -4.5h-17q-30 0 -31 16l-26 164h-218l-59 -164q-7 -16 -38 -16h-16q-37 0 -35 17zM340 250l-44 283q-4 27 -6 61h-5q-15 -47 -20 -61l-104 -283h179zM297 754.5
q-9 2.5 -15 10.5l-41 54q-5 6 -10 14t-5 14q0 17 44 17q24 0 35 -5t17 -18l26 -59q5 -11 5 -17q0 -7 -6.5 -10t-22.5 -3q-18 0 -27 2.5z" />
    <glyph glyph-name="Aacute" unicode="&#xc1;" horiz-adv-x="505" 
d="M-13 15q0 4 1 7l2 6l250 655q7 19 42 19h29q35 0 38 -19l115 -655q2 -10 2 -13q-1 -8 -11 -12.5t-28 -4.5h-17q-30 0 -31 16l-26 164h-218l-59 -164q-7 -16 -38 -16h-16q-37 0 -35 17zM340 250l-44 283q-4 27 -6 61h-5q-15 -47 -20 -61l-104 -283h179zM250 762
q0 5 4 11.5t5 8.5l38 59q9 13 21 18t37 5q40 0 40 -14q0 -10 -21 -31l-53 -54q-8 -8 -16.5 -10.5t-27.5 -2.5q-27 0 -27 10z" />
    <glyph glyph-name="Acircumflex" unicode="&#xc2;" horiz-adv-x="505" 
d="M-13 15q0 4 1 7l2 6l250 655q7 19 42 19h29q35 0 38 -19l115 -655q2 -10 2 -13q-1 -8 -11 -12.5t-28 -4.5h-17q-30 0 -31 16l-26 164h-218l-59 -164q-7 -16 -38 -16h-16q-37 0 -35 17zM340 250l-44 283q-4 27 -6 61h-5q-15 -47 -20 -61l-104 -283h179zM189 752q0 8 17 32
l33 47q10 14 22.5 18.5t40.5 4.5h26q24 0 37 -4t20 -19l22 -45q12 -24 12 -32q0 -12 -29 -12q-17 0 -24 3t-12 8l-45 46l-52 -44q-7 -6 -15.5 -9.5t-26.5 -3.5q-26 0 -26 10z" />
    <glyph glyph-name="Atilde" unicode="&#xc3;" horiz-adv-x="505" 
d="M-13 15q0 4 1 7l2 6l250 655q7 19 42 19h29q35 0 38 -19l115 -655q2 -10 2 -13q-1 -8 -11 -12.5t-28 -4.5h-17q-30 0 -31 16l-26 164h-218l-59 -164q-7 -16 -38 -16h-16q-37 0 -35 17zM340 250l-44 283q-4 27 -6 61h-5q-15 -47 -20 -61l-104 -283h179zM330 763.5
q-16 5.5 -39 16.5q-3 1 -13 6t-19 7.5t-16 2.5q-21 0 -38 -24q-2 -2 -7.5 -8t-11.5 -6q-7 0 -18 6t-11 12q0 5 5 15q33 67 90 67q21 0 36 -5.5t35 -15.5q3 -1 13 -6t19 -7.5t18 -2.5q13 0 22.5 6.5t19.5 17.5q13 15 21 15q5 0 16.5 -7t11.5 -12t-6 -17q-33 -66 -92 -66
q-20 0 -36 5.5z" />
    <glyph glyph-name="Adieresis" unicode="&#xc4;" horiz-adv-x="505" 
d="M-13 15q0 4 1 7l2 6l250 655q7 19 42 19h29q35 0 38 -19l115 -655q2 -10 2 -13q-1 -8 -11 -12.5t-28 -4.5h-17q-30 0 -31 16l-26 164h-218l-59 -164q-7 -16 -38 -16h-16q-37 0 -35 17zM340 250l-44 283q-4 27 -6 61h-5q-15 -47 -20 -61l-104 -283h179zM196.5 764
q-7.5 6 -6.5 16l6 56q1 10 9.5 16t34.5 6q25 0 33 -6t7 -16l-6 -56q-1 -9 -9 -15.5t-35 -6.5q-26 0 -33.5 6zM340 780l6 56q2 9 9 15.5t35 6.5q43 0 40 -22l-6 -56q-2 -9 -9 -15.5t-35 -6.5q-43 0 -40 22z" />
    <glyph glyph-name="Aring" unicode="&#xc5;" horiz-adv-x="505" 
d="M-13 15q0 4 1 7l2 6l250 655q7 19 42 19h29q35 0 38 -19l115 -655q2 -10 2 -13q-1 -8 -11 -12.5t-28 -4.5h-17q-30 0 -31 16l-26 164h-218l-59 -164q-7 -16 -38 -16h-16q-37 0 -35 17zM340 250l-44 283q-4 27 -6 61h-5q-15 -47 -20 -61l-104 -283h179zM250 768.5
q-22 21.5 -22 53.5q0 39 26.5 66.5t65.5 27.5q34 0 56 -22t22 -54q0 -39 -26.5 -66t-66.5 -27q-33 0 -55 21.5zM338.5 805q12.5 13 12.5 31q0 15 -9.5 25t-24.5 10q-17 0 -29.5 -13t-12.5 -31q0 -15 9.5 -25t23.5 -10q18 0 30.5 13z" />
    <glyph glyph-name="AE" unicode="&#xc6;" horiz-adv-x="746" 
d="M-25 15q3 11 6 16l323 642q8 14 16.5 20.5t21.5 6.5h342q19 0 16 -30l-2 -16q-3 -30 -22 -30h-256l11 -228h218q19 0 16 -30l-2 -16q-3 -30 -22 -30h-206l13 -244h192q16 0 16 -19q0 -7 -1 -11l-1 -16q-2 -16 -7 -23t-15 -7h-243q-26 0 -26 29l-7 149h-216l-80 -164
q-7 -16 -35 -16h-14q-38 0 -36 17zM351 253l-12 273l4 58h-2l-25 -58l-136 -273h171z" />
    <glyph glyph-name="Ccedilla" unicode="&#xc7;" 
d="M471 666q0 -10 -5 -27t-13.5 -27.5t-18.5 -4.5q-37 21 -85 21q-96 0 -149 -94t-53 -265q0 -100 35.5 -148.5t107.5 -48.5q28 0 50 6t47 19q3 2 9 2q11 0 17 -14t6 -31q0 -13 -6.5 -22.5t-21.5 -16.5q-18 -8 -47.5 -14.5t-60.5 -6.5l-21 -50q62 -12 62 -64
q0 -41 -28 -65.5t-76 -24.5q-35 0 -63 9.5t-28 27.5q0 9 5.5 16.5t15.5 7.5q8 0 23 -5q27 -9 47 -9t32.5 10.5t12.5 28.5q0 13 -7.5 18t-23.5 12q-12 4 -17 7t-5 10t27 73q-94 11 -139.5 76.5t-45.5 188.5q0 214 78.5 329.5t224.5 115.5q52 0 100 -19q14 -6 14 -21z" />
    <glyph glyph-name="Egrave" unicode="&#xc8;" horiz-adv-x="457" 
d="M59 7q-6 7 -4 23l68 640q2 16 9 23t21 7h288q19 0 16 -30l-2 -16q-3 -30 -22 -30h-225l-24 -228h202q19 0 16 -30l-2 -16q-3 -30 -22 -30h-202l-26 -244h225q10 0 14 -7t2 -23l-2 -16q-2 -16 -7 -23t-15 -7h-288q-14 0 -20 7zM288 754.5q-9 2.5 -15 10.5l-41 54
q-5 6 -10 14t-5 14q0 17 44 17q24 0 35 -5t17 -18l26 -59q5 -11 5 -17q0 -7 -6.5 -10t-22.5 -3q-18 0 -27 2.5z" />
    <glyph glyph-name="Eacute" unicode="&#xc9;" horiz-adv-x="457" 
d="M59 7q-6 7 -4 23l68 640q2 16 9 23t21 7h288q19 0 16 -30l-2 -16q-3 -30 -22 -30h-225l-24 -228h202q19 0 16 -30l-2 -16q-3 -30 -22 -30h-202l-26 -244h225q10 0 14 -7t2 -23l-2 -16q-2 -16 -7 -23t-15 -7h-288q-14 0 -20 7zM241 762q0 5 4 11.5t5 8.5l38 59q9 13 21 18
t37 5q40 0 40 -14q0 -10 -21 -31l-53 -54q-8 -8 -16.5 -10.5t-27.5 -2.5q-27 0 -27 10z" />
    <glyph glyph-name="Ecircumflex" unicode="&#xca;" horiz-adv-x="457" 
d="M59 7q-6 7 -4 23l68 640q2 16 9 23t21 7h288q19 0 16 -30l-2 -16q-3 -30 -22 -30h-225l-24 -228h202q19 0 16 -30l-2 -16q-3 -30 -22 -30h-202l-26 -244h225q10 0 14 -7t2 -23l-2 -16q-2 -16 -7 -23t-15 -7h-288q-14 0 -20 7zM180 752q0 8 17 32l33 47q10 14 22.5 18.5
t40.5 4.5h26q24 0 37 -4t20 -19l22 -45q12 -24 12 -32q0 -12 -29 -12q-17 0 -24 3t-12 8l-45 46l-52 -44q-7 -6 -15.5 -9.5t-26.5 -3.5q-26 0 -26 10z" />
    <glyph glyph-name="Edieresis" unicode="&#xcb;" horiz-adv-x="457" 
d="M59 7q-6 7 -4 23l68 640q2 16 9 23t21 7h288q19 0 16 -30l-2 -16q-3 -30 -22 -30h-225l-24 -228h202q19 0 16 -30l-2 -16q-3 -30 -22 -30h-202l-26 -244h225q10 0 14 -7t2 -23l-2 -16q-2 -16 -7 -23t-15 -7h-288q-14 0 -20 7zM187.5 764q-7.5 6 -6.5 16l6 56q1 10 9.5 16
t34.5 6q25 0 33 -6t7 -16l-6 -56q-1 -9 -9 -15.5t-35 -6.5q-26 0 -33.5 6zM331 780l6 56q2 9 9 15.5t35 6.5q43 0 40 -22l-6 -56q-2 -9 -9 -15.5t-35 -6.5q-43 0 -40 22z" />
    <glyph glyph-name="Igrave" unicode="&#xcc;" horiz-adv-x="262" 
d="M61 20l70 660q2 22 40 22h15q37 0 35 -22l-70 -660q-2 -22 -39 -22h-15q-38 0 -36 22zM175 754.5q-9 2.5 -15 10.5l-41 54q-5 6 -10 14t-5 14q0 17 44 17q24 0 35 -5t17 -18l26 -59q5 -11 5 -17q0 -7 -6.5 -10t-22.5 -3q-18 0 -27 2.5z" />
    <glyph glyph-name="Iacute" unicode="&#xcd;" horiz-adv-x="262" 
d="M61 20l70 660q2 22 40 22h15q37 0 35 -22l-70 -660q-2 -22 -39 -22h-15q-38 0 -36 22zM128 762q0 5 4 11.5t5 8.5l38 59q9 13 21 18t37 5q40 0 40 -14q0 -10 -21 -31l-53 -54q-8 -8 -16.5 -10.5t-27.5 -2.5q-27 0 -27 10z" />
    <glyph glyph-name="Icircumflex" unicode="&#xce;" horiz-adv-x="262" 
d="M61 20l70 660q2 22 40 22h15q37 0 35 -22l-70 -660q-2 -22 -39 -22h-15q-38 0 -36 22zM67 752q0 8 17 32l33 47q10 14 22.5 18.5t40.5 4.5h26q24 0 37 -4t20 -19l22 -45q12 -24 12 -32q0 -12 -29 -12q-17 0 -24 3t-12 8l-45 46l-52 -44q-7 -6 -15.5 -9.5t-26.5 -3.5
q-26 0 -26 10z" />
    <glyph glyph-name="Idieresis" unicode="&#xcf;" horiz-adv-x="262" 
d="M61 20l70 660q2 22 40 22h15q37 0 35 -22l-70 -660q-2 -22 -39 -22h-15q-38 0 -36 22zM74.5 764q-7.5 6 -6.5 16l6 56q1 10 9.5 16t34.5 6q25 0 33 -6t7 -16l-6 -56q-1 -9 -9 -15.5t-35 -6.5q-26 0 -33.5 6zM218 780l6 56q2 9 9 15.5t35 6.5q43 0 40 -22l-6 -56
q-2 -9 -9 -15.5t-35 -6.5q-43 0 -40 22z" />
    <glyph glyph-name="Eth" unicode="&#xd0;" horiz-adv-x="577" 
d="M486 635q59 -65 59 -211q0 -424 -293 -424h-168q-14 0 -20 7t-4 23l31 290h-52q-22 0 -19 29l2 18q1 16 7.5 22.5t18.5 6.5h51l29 274q2 16 9 23t21 7h158q111 0 170 -65zM409 171.5q43 95.5 43 243.5q0 109 -37.5 159t-108.5 50h-92l-24 -228h106q12 0 17 -7.5t3 -24.5
l-1 -12q-3 -32 -23 -32h-110l-26 -244h102q108 0 151 95.5z" />
    <glyph glyph-name="Ntilde" unicode="&#xd1;" horiz-adv-x="590" 
d="M48 20l69 660q2 22 40 22h24q15 0 24 -4.5t13 -15.5l183 -457q13 -35 20 -63l5 2q-2 12 -2 36q0 20 1 30l48 450q2 22 40 22h12q38 0 36 -22l-69 -660q-3 -22 -41 -22h-18q-28 0 -34 15l-191 472q-11 28 -19 63l-5 -2q2 -12 2 -36q0 -20 -1 -30l-49 -460q-2 -22 -41 -22
h-12q-38 0 -35 22zM368 763.5q-16 5.5 -39 16.5q-3 1 -13 6t-19 7.5t-16 2.5q-21 0 -38 -24q-2 -2 -7.5 -8t-11.5 -6q-7 0 -18 6t-11 12q0 5 5 15q33 67 90 67q21 0 36 -5.5t35 -15.5q3 -1 13 -6t19 -7.5t18 -2.5q13 0 22.5 6.5t19.5 17.5q13 15 21 15q5 0 16.5 -7t11.5 -12
t-6 -17q-33 -66 -92 -66q-20 0 -36 5.5z" />
    <glyph glyph-name="Ograve" unicode="&#xd2;" horiz-adv-x="599" 
d="M111.5 79q-56.5 85 -56.5 232q0 106 29.5 195.5t92 144.5t158.5 55q106 0 167.5 -74.5t61.5 -235.5q0 -105 -28 -196t-90.5 -148.5t-159.5 -57.5q-118 0 -174.5 85zM431 169.5q42 99.5 42 228.5q0 232 -141 232q-97 0 -140.5 -95t-43.5 -227q0 -238 142 -238
q99 0 141 99.5zM332 754.5q-9 2.5 -15 10.5l-41 54q-5 6 -10 14t-5 14q0 17 44 17q24 0 35 -5t17 -18l26 -59q5 -11 5 -17q0 -7 -6.5 -10t-22.5 -3q-18 0 -27 2.5z" />
    <glyph glyph-name="Oacute" unicode="&#xd3;" horiz-adv-x="599" 
d="M111.5 79q-56.5 85 -56.5 232q0 106 29.5 195.5t92 144.5t158.5 55q106 0 167.5 -74.5t61.5 -235.5q0 -105 -28 -196t-90.5 -148.5t-159.5 -57.5q-118 0 -174.5 85zM431 169.5q42 99.5 42 228.5q0 232 -141 232q-97 0 -140.5 -95t-43.5 -227q0 -238 142 -238
q99 0 141 99.5zM285 762q0 5 4 11.5t5 8.5l38 59q9 13 21 18t37 5q40 0 40 -14q0 -10 -21 -31l-53 -54q-8 -8 -16.5 -10.5t-27.5 -2.5q-27 0 -27 10z" />
    <glyph glyph-name="Ocircumflex" unicode="&#xd4;" horiz-adv-x="599" 
d="M111.5 79q-56.5 85 -56.5 232q0 106 29.5 195.5t92 144.5t158.5 55q106 0 167.5 -74.5t61.5 -235.5q0 -105 -28 -196t-90.5 -148.5t-159.5 -57.5q-118 0 -174.5 85zM431 169.5q42 99.5 42 228.5q0 232 -141 232q-97 0 -140.5 -95t-43.5 -227q0 -238 142 -238
q99 0 141 99.5zM224 752q0 8 17 32l33 47q10 14 22.5 18.5t40.5 4.5h26q24 0 37 -4t20 -19l22 -45q12 -24 12 -32q0 -12 -29 -12q-17 0 -24 3t-12 8l-45 46l-52 -44q-7 -6 -15.5 -9.5t-26.5 -3.5q-26 0 -26 10z" />
    <glyph glyph-name="Otilde" unicode="&#xd5;" horiz-adv-x="599" 
d="M111.5 79q-56.5 85 -56.5 232q0 106 29.5 195.5t92 144.5t158.5 55q106 0 167.5 -74.5t61.5 -235.5q0 -105 -28 -196t-90.5 -148.5t-159.5 -57.5q-118 0 -174.5 85zM431 169.5q42 99.5 42 228.5q0 232 -141 232q-97 0 -140.5 -95t-43.5 -227q0 -238 142 -238
q99 0 141 99.5zM365 763.5q-16 5.5 -39 16.5q-3 1 -13 6t-19 7.5t-16 2.5q-21 0 -38 -24q-2 -2 -7.5 -8t-11.5 -6q-7 0 -18 6t-11 12q0 5 5 15q33 67 90 67q21 0 36 -5.5t35 -15.5q3 -1 13 -6t19 -7.5t18 -2.5q13 0 22.5 6.5t19.5 17.5q13 15 21 15q5 0 16.5 -7t11.5 -12
t-6 -17q-33 -66 -92 -66q-20 0 -36 5.5z" />
    <glyph glyph-name="Odieresis" unicode="&#xd6;" horiz-adv-x="599" 
d="M111.5 79q-56.5 85 -56.5 232q0 106 29.5 195.5t92 144.5t158.5 55q106 0 167.5 -74.5t61.5 -235.5q0 -105 -28 -196t-90.5 -148.5t-159.5 -57.5q-118 0 -174.5 85zM431 169.5q42 99.5 42 228.5q0 232 -141 232q-97 0 -140.5 -95t-43.5 -227q0 -238 142 -238
q99 0 141 99.5zM231.5 764q-7.5 6 -6.5 16l6 56q1 10 9.5 16t34.5 6q25 0 33 -6t7 -16l-6 -56q-1 -9 -9 -15.5t-35 -6.5q-26 0 -33.5 6zM375 780l6 56q2 9 9 15.5t35 6.5q43 0 40 -22l-6 -56q-2 -9 -9 -15.5t-35 -6.5q-43 0 -40 22z" />
    <glyph glyph-name="multiply" unicode="&#xd7;" horiz-adv-x="448" 
d="M27.5 14.5q-14.5 13.5 -14.5 21.5q0 4 4.5 10.5t11.5 14.5l143 166l-107 164q-7 10 -10.5 16.5t-3.5 10.5q0 6 17 19.5t26 13.5t17 -12l108 -165l141 166q11 12 20 12q8 0 23 -13.5t15 -20.5q0 -6 -12 -20l-151 -177l107 -165q11 -16 11 -24q0 -7 -16.5 -19t-25.5 -12
q-5 0 -9 3t-9 11l-105 159l-138 -160q-12 -13 -20 -13t-22.5 13.5z" />
    <glyph glyph-name="Oslash" unicode="&#xd8;" horiz-adv-x="599" 
d="M564 396q0 -105 -28 -196t-90.5 -148.5t-159.5 -57.5q-89 0 -145 51l-32 -51q-7 -12 -15 -12q-7 0 -15 6t-8 13q0 8 5 14l38 61q-59 81 -59 235q0 106 29.5 195.5t92 144.5t158.5 55q84 0 139 -45l27 44q6 11 15 11q8 0 15.5 -5.5t7.5 -13.5q0 -5 -4 -12l-33 -53
q62 -79 62 -236zM168 164l260 422q-34 44 -96 44q-97 0 -140.5 -95t-43.5 -227q0 -88 20 -144zM431 169.5q42 99.5 42 228.5q0 95 -23 149l-262 -425q36 -52 102 -52q99 0 141 99.5z" />
    <glyph glyph-name="Ugrave" unicode="&#xd9;" horiz-adv-x="583" 
d="M112.5 39.5q-52.5 45.5 -52.5 127.5q0 18 1 28l51 485q2 22 40 22h14q38 0 36 -22l-51 -488q-1 -5 -1 -15q0 -48 33.5 -77.5t88.5 -29.5q65 0 102 30.5t44 91.5l51 488q2 22 40 22h14q38 0 36 -22l-51 -485q-10 -95 -73.5 -148t-170.5 -53q-99 0 -151.5 45.5zM338 756.5
q-9 2.5 -15 10.5l-41 54q-5 6 -10 14t-5 14q0 17 44 17q24 0 35 -5t17 -18l26 -59q5 -11 5 -17q0 -7 -6.5 -10t-22.5 -3q-18 0 -27 2.5z" />
    <glyph glyph-name="Uacute" unicode="&#xda;" horiz-adv-x="583" 
d="M112.5 39.5q-52.5 45.5 -52.5 127.5q0 18 1 28l51 485q2 22 40 22h14q38 0 36 -22l-51 -488q-1 -5 -1 -15q0 -48 33.5 -77.5t88.5 -29.5q65 0 102 30.5t44 91.5l51 488q2 22 40 22h14q38 0 36 -22l-51 -485q-10 -95 -73.5 -148t-170.5 -53q-99 0 -151.5 45.5zM291 764
q0 5 4 11.5t5 8.5l38 59q9 13 21 18t37 5q40 0 40 -14q0 -10 -21 -31l-53 -54q-8 -8 -16.5 -10.5t-27.5 -2.5q-27 0 -27 10z" />
    <glyph glyph-name="Ucircumflex" unicode="&#xdb;" horiz-adv-x="583" 
d="M112.5 39.5q-52.5 45.5 -52.5 127.5q0 18 1 28l51 485q2 22 40 22h14q38 0 36 -22l-51 -488q-1 -5 -1 -15q0 -48 33.5 -77.5t88.5 -29.5q65 0 102 30.5t44 91.5l51 488q2 22 40 22h14q38 0 36 -22l-51 -485q-10 -95 -73.5 -148t-170.5 -53q-99 0 -151.5 45.5zM230 754
q0 8 17 32l33 47q10 14 22.5 18.5t40.5 4.5h26q24 0 37 -4t20 -19l22 -45q12 -24 12 -32q0 -12 -29 -12q-17 0 -24 3t-12 8l-45 46l-52 -44q-7 -6 -15.5 -9.5t-26.5 -3.5q-26 0 -26 10z" />
    <glyph glyph-name="Udieresis" unicode="&#xdc;" horiz-adv-x="583" 
d="M112.5 39.5q-52.5 45.5 -52.5 127.5q0 18 1 28l51 485q2 22 40 22h14q38 0 36 -22l-51 -488q-1 -5 -1 -15q0 -48 33.5 -77.5t88.5 -29.5q65 0 102 30.5t44 91.5l51 488q2 22 40 22h14q38 0 36 -22l-51 -485q-10 -95 -73.5 -148t-170.5 -53q-99 0 -151.5 45.5zM237.5 766
q-7.5 6 -6.5 16l6 56q1 10 9.5 16t34.5 6q25 0 33 -6t7 -16l-6 -56q-1 -9 -9 -15.5t-35 -6.5q-26 0 -33.5 6zM381 782l6 56q2 9 9 15.5t35 6.5q43 0 40 -22l-6 -56q-2 -9 -9 -15.5t-35 -6.5q-43 0 -40 22z" />
    <glyph glyph-name="Yacute" unicode="&#xdd;" horiz-adv-x="484" 
d="M172 20l32 297l-134 350q-5 12 -5 18q0 9 9 13t31 4h17q17 0 25 -3t12 -12l99 -283l161 284q5 8 15 11t26 3h13q20 -1 28 -5t8 -12q0 -4 -8 -18l-208 -353l-31 -294q-2 -22 -40 -22h-14q-39 0 -36 22zM240 762q0 5 4 11.5t5 8.5l38 59q9 13 21 18t37 5q40 0 40 -14
q0 -10 -21 -31l-53 -54q-8 -8 -16.5 -10.5t-27.5 -2.5q-27 0 -27 10z" />
    <glyph glyph-name="Thorn" unicode="&#xde;" horiz-adv-x="482" 
d="M48 20l69 660q2 22 40 22h14q39 0 36 -22l-11 -101h82q90 0 136.5 -45.5t46.5 -133.5q0 -102 -53 -162.5t-144 -60.5h-110l-16 -157q-2 -22 -41 -22h-14q-38 0 -35 22zM267 253q50 0 76 37t26 108q0 55 -24.5 80t-78.5 25h-78l-26 -250h105z" />
    <glyph glyph-name="germandbls" unicode="&#xdf;" horiz-adv-x="480" 
d="M55 20l53 512q8 78 57.5 126t129.5 48q65 0 107 -33.5t42 -104.5q0 -60 -28.5 -110t-74.5 -71v-3q45 -13 67.5 -52t22.5 -96q0 -66 -24.5 -119.5t-70 -85t-106.5 -31.5h-19q-12 0 -17 6t-4 20l2 16q3 30 22 30h21q29 0 53.5 19t39 55t14.5 84q0 52 -23 81t-60 29h-17
q-19 0 -16 30l2 12q3 30 21 30h6q25 0 48 18t37 50.5t14 73.5q0 80 -70 80q-38 0 -61.5 -26.5t-28.5 -75.5l-53 -512q-3 -22 -40 -22h-11q-38 0 -35 22z" />
    <glyph glyph-name="agrave" unicode="&#xe0;" horiz-adv-x="481" 
d="M75.5 52q-31.5 59 -31.5 151q0 84 23 158.5t68 121t109 46.5q66 0 108 -54q9 27 17.5 38.5t27.5 11.5h6q28 0 25 -21l-48 -381q-1 -7 -1 -18q0 -39 29 -39q12 0 22 2.5t14 2.5q6 0 6 -9q0 -10 -2.5 -24.5t-5.5 -20.5q-4 -10 -21 -16.5t-36 -6.5q-32 0 -57 19.5t-27 69.5
q-46 -90 -127 -90q-67 0 -98.5 59zM259.5 97.5q29.5 31.5 49.5 100.5l21 169q3 31 7 50q-16 17 -34 28t-46 11q-67 0 -97.5 -73.5t-30.5 -180.5q0 -61 16 -98.5t53 -37.5q32 0 61.5 31.5zM274 580q-9 4 -20 20l-37 55q-23 35 -23 46q0 9 11 13t34 4q31 0 43 -7t17 -22
l22 -68q7 -21 7 -31q0 -7 -6 -10.5t-17 -3.5q-22 0 -31 4z" />
    <glyph glyph-name="aacute" unicode="&#xe1;" horiz-adv-x="481" 
d="M75.5 52q-31.5 59 -31.5 151q0 84 23 158.5t68 121t109 46.5q66 0 108 -54q9 27 17.5 38.5t27.5 11.5h6q28 0 25 -21l-48 -381q-1 -7 -1 -18q0 -39 29 -39q12 0 22 2.5t14 2.5q6 0 6 -9q0 -10 -2.5 -24.5t-5.5 -20.5q-4 -10 -21 -16.5t-36 -6.5q-32 0 -57 19.5t-27 69.5
q-46 -90 -127 -90q-67 0 -98.5 59zM259.5 97.5q29.5 31.5 49.5 100.5l21 169q3 31 7 50q-16 17 -34 28t-46 11q-67 0 -97.5 -73.5t-30.5 -180.5q0 -61 16 -98.5t53 -37.5q32 0 61.5 31.5zM218 588q0 7 14 33l38 71q7 13 20 19.5t45 6.5q22 0 31.5 -3.5t9.5 -10.5
q0 -5 -5 -12t-13 -16l-14 -16l-50 -60q-13 -16 -23 -20t-32 -4q-21 0 -21 12z" />
    <glyph glyph-name="acircumflex" unicode="&#xe2;" horiz-adv-x="481" 
d="M75.5 52q-31.5 59 -31.5 151q0 84 23 158.5t68 121t109 46.5q66 0 108 -54q9 27 17.5 38.5t27.5 11.5h6q28 0 25 -21l-48 -381q-1 -7 -1 -18q0 -39 29 -39q12 0 22 2.5t14 2.5q6 0 6 -9q0 -10 -2.5 -24.5t-5.5 -20.5q-4 -10 -21 -16.5t-36 -6.5q-32 0 -57 19.5t-27 69.5
q-46 -90 -127 -90q-67 0 -98.5 59zM259.5 97.5q29.5 31.5 49.5 100.5l21 169q3 31 7 50q-16 17 -34 28t-46 11q-67 0 -97.5 -73.5t-30.5 -180.5q0 -61 16 -98.5t53 -37.5q32 0 61.5 31.5zM168 588q0 7 14 33l38 71q7 13 19.5 19.5t35.5 6.5h31q23 0 34 -6.5t15 -19.5l22 -71
q8 -26 8 -31q0 -14 -28 -14q-19 0 -26 5t-15 19l-32 56l-45 -56q-11 -14 -19.5 -19t-24.5 -5q-27 0 -27 12z" />
    <glyph glyph-name="atilde" unicode="&#xe3;" horiz-adv-x="481" 
d="M75.5 52q-31.5 59 -31.5 151q0 84 23 158.5t68 121t109 46.5q66 0 108 -54q9 27 17.5 38.5t27.5 11.5h6q28 0 25 -21l-48 -381q-1 -7 -1 -18q0 -39 29 -39q12 0 22 2.5t14 2.5q6 0 6 -9q0 -10 -2.5 -24.5t-5.5 -20.5q-4 -10 -21 -16.5t-36 -6.5q-32 0 -57 19.5t-27 69.5
q-46 -90 -127 -90q-67 0 -98.5 59zM259.5 97.5q29.5 31.5 49.5 100.5l21 169q3 31 7 50q-16 17 -34 28t-46 11q-67 0 -97.5 -73.5t-30.5 -180.5q0 -61 16 -98.5t53 -37.5q32 0 61.5 31.5zM141.5 603.5q-11.5 5.5 -11.5 11.5q0 5 5 17q12 28 36 46t51 18q26 0 70 -20
q19 -9 31.5 -13t23.5 -4q13 0 21.5 6t18.5 17q1 1 5 6t7.5 7t7.5 2q6 0 17 -6.5t11 -11.5q0 -7 -5 -19q-28 -60 -88 -60q-16 0 -32.5 5t-38.5 15q-38 17 -55 17q-13 0 -21 -6.5t-18 -18.5q-1 -1 -6.5 -7.5t-11.5 -6.5t-17.5 5.5z" />
    <glyph glyph-name="adieresis" unicode="&#xe4;" horiz-adv-x="481" 
d="M75.5 52q-31.5 59 -31.5 151q0 84 23 158.5t68 121t109 46.5q66 0 108 -54q9 27 17.5 38.5t27.5 11.5h6q28 0 25 -21l-48 -381q-1 -7 -1 -18q0 -39 29 -39q12 0 22 2.5t14 2.5q6 0 6 -9q0 -10 -2.5 -24.5t-5.5 -20.5q-4 -10 -21 -16.5t-36 -6.5q-32 0 -57 19.5t-27 69.5
q-46 -90 -127 -90q-67 0 -98.5 59zM259.5 97.5q29.5 31.5 49.5 100.5l21 169q3 31 7 50q-16 17 -34 28t-46 11q-67 0 -97.5 -73.5t-30.5 -180.5q0 -61 16 -98.5t53 -37.5q32 0 61.5 31.5zM174 602.5q-10 5.5 -8 16.5l6 56q2 12 12.5 17t33.5 5q45 0 42 -22l-6 -56
q-2 -11 -12.5 -16.5t-33.5 -5.5q-24 0 -34 5.5zM306 619l6 56q2 11 12.5 16.5t33.5 5.5q45 0 42 -22l-6 -56q-2 -11 -12.5 -16.5t-33.5 -5.5q-45 0 -42 22z" />
    <glyph glyph-name="aring" unicode="&#xe5;" horiz-adv-x="481" 
d="M75.5 52q-31.5 59 -31.5 151q0 84 23 158.5t68 121t109 46.5q66 0 108 -54q9 27 17.5 38.5t27.5 11.5h6q28 0 25 -21l-48 -381q-1 -7 -1 -18q0 -39 29 -39q12 0 22 2.5t14 2.5q6 0 6 -9q0 -10 -2.5 -24.5t-5.5 -20.5q-4 -10 -21 -16.5t-36 -6.5q-32 0 -57 19.5t-27 69.5
q-46 -90 -127 -90q-67 0 -98.5 59zM259.5 97.5q29.5 31.5 49.5 100.5l21 169q3 31 7 50q-16 17 -34 28t-46 11q-67 0 -97.5 -73.5t-30.5 -180.5q0 -61 16 -98.5t53 -37.5q32 0 61.5 31.5zM221.5 590q-19.5 20 -19.5 55q0 41 25 67.5t65 26.5q34 0 54 -20t20 -56
q0 -40 -25 -66.5t-65 -26.5q-35 0 -54.5 20zM306.5 629q10.5 12 10.5 32q0 15 -8 24t-21 9q-16 0 -26.5 -13t-10.5 -32q0 -15 8 -23.5t21 -8.5q16 0 26.5 12z" />
    <glyph glyph-name="ae" unicode="&#xe6;" horiz-adv-x="688" 
d="M61 30.5q-42 36.5 -42 92.5q0 86 62.5 127.5t197.5 45.5q12 66 44 118q-16 22 -41 30.5t-51 8.5q-35 0 -55 -5.5t-37 -14.5q-18 -8 -26 -8q-9 0 -19 18t-10 28q0 13 23.5 26.5t58 22.5t64.5 9q102 0 149 -50q32 26 64.5 38t69.5 12q63 0 101.5 -38.5t38.5 -99.5
q0 -69 -33 -105t-88 -48t-136 -12h-38q-2 -18 -2 -27q0 -58 35 -95.5t92 -37.5q43 0 93 24q18 8 23 8q10 0 10 -14q0 -1 0.5 -13.5t-5.5 -29.5q-4 -10 -23 -21t-49.5 -18.5t-64.5 -7.5q-32 0 -73.5 13t-71.5 43q-29 -26 -70.5 -41t-81.5 -15q-67 0 -109 36.5zM485 304.5
q43 7.5 62 26.5t19 54q0 29 -16.5 46.5t-49.5 17.5q-43 0 -81 -37.5t-54 -113.5q77 -1 120 6.5zM287 108q-17 36 -17 92q0 17 1 26q-78 0 -122 -22.5t-44 -65.5q0 -33 20 -51t59 -18q49 0 103 39z" />
    <glyph glyph-name="ccedilla" unicode="&#xe7;" horiz-adv-x="408" 
d="M363.5 515.5q37.5 -13.5 37.5 -31.5q0 -11 -14.5 -33t-22.5 -22q-2 0 -10 4q-3 1 -15.5 8t-29 11.5t-34.5 4.5q-69 0 -105.5 -65.5t-36.5 -190.5q0 -70 25 -102.5t79 -32.5q29 0 48 6t37 16q5 2 8.5 5t5.5 3q9 0 18.5 -18t9.5 -31q0 -12 -22.5 -24.5t-55 -20.5t-59.5 -8
h-2l-21 -50q62 -12 62 -64q0 -41 -28 -65.5t-76 -24.5q-35 0 -63 9.5t-28 27.5q0 9 5.5 16.5t15.5 7.5q8 0 23 -5q27 -9 47 -9t32.5 10.5t12.5 28.5q0 13 -7.5 18t-23.5 12q-12 4 -17 7t-5 10t28 74q-71 11 -105.5 59.5t-34.5 141.5q0 163 61.5 247t177.5 84
q45 0 82.5 -13.5z" />
    <glyph glyph-name="egrave" unicode="&#xe8;" horiz-adv-x="454" 
d="M383 94q0 -15 -3.5 -29.5t-11.5 -22.5q-21 -23 -60.5 -35.5t-70.5 -12.5q-189 0 -189 200q0 95 26 170.5t79.5 120t132.5 44.5q50 0 81.5 -21.5t45 -52t13.5 -59.5q0 -89 -62 -136t-162 -47q-33 0 -67 6v-9q-2 -79 26 -111.5t83 -32.5q33 0 56.5 10t51.5 27q17 12 23 12
q8 0 8 -21zM182.5 410q-32.5 -47 -42.5 -125h53q61 0 104 24.5t43 79.5q0 29 -17 48.5t-46 19.5q-62 0 -94.5 -47zM277 580q-9 4 -20 20l-37 55q-23 35 -23 46q0 9 11 13t34 4q31 0 43 -7t17 -22l22 -68q7 -21 7 -31q0 -7 -6 -10.5t-17 -3.5q-22 0 -31 4z" />
    <glyph glyph-name="eacute" unicode="&#xe9;" horiz-adv-x="454" 
d="M383 94q0 -15 -3.5 -29.5t-11.5 -22.5q-21 -23 -60.5 -35.5t-70.5 -12.5q-189 0 -189 200q0 95 26 170.5t79.5 120t132.5 44.5q50 0 81.5 -21.5t45 -52t13.5 -59.5q0 -89 -62 -136t-162 -47q-33 0 -67 6v-9q-2 -79 26 -111.5t83 -32.5q33 0 56.5 10t51.5 27q17 12 23 12
q8 0 8 -21zM182.5 410q-32.5 -47 -42.5 -125h53q61 0 104 24.5t43 79.5q0 29 -17 48.5t-46 19.5q-62 0 -94.5 -47zM221 588q0 7 14 33l38 71q7 13 20 19.5t45 6.5q22 0 31.5 -3.5t9.5 -10.5q0 -5 -5 -12t-13 -16l-14 -16l-50 -60q-13 -16 -23 -20t-32 -4q-21 0 -21 12z" />
    <glyph glyph-name="ecircumflex" unicode="&#xea;" horiz-adv-x="454" 
d="M383 94q0 -15 -3.5 -29.5t-11.5 -22.5q-21 -23 -60.5 -35.5t-70.5 -12.5q-189 0 -189 200q0 95 26 170.5t79.5 120t132.5 44.5q50 0 81.5 -21.5t45 -52t13.5 -59.5q0 -89 -62 -136t-162 -47q-33 0 -67 6v-9q-2 -79 26 -111.5t83 -32.5q33 0 56.5 10t51.5 27q17 12 23 12
q8 0 8 -21zM182.5 410q-32.5 -47 -42.5 -125h53q61 0 104 24.5t43 79.5q0 29 -17 48.5t-46 19.5q-62 0 -94.5 -47zM171 588q0 7 14 33l38 71q7 13 19.5 19.5t35.5 6.5h31q23 0 34 -6.5t15 -19.5l22 -71q8 -26 8 -31q0 -14 -28 -14q-19 0 -26 5t-15 19l-32 56l-45 -56
q-11 -14 -19.5 -19t-24.5 -5q-27 0 -27 12z" />
    <glyph glyph-name="edieresis" unicode="&#xeb;" horiz-adv-x="454" 
d="M383 94q0 -15 -3.5 -29.5t-11.5 -22.5q-21 -23 -60.5 -35.5t-70.5 -12.5q-189 0 -189 200q0 95 26 170.5t79.5 120t132.5 44.5q50 0 81.5 -21.5t45 -52t13.5 -59.5q0 -89 -62 -136t-162 -47q-33 0 -67 6v-9q-2 -79 26 -111.5t83 -32.5q33 0 56.5 10t51.5 27q17 12 23 12
q8 0 8 -21zM182.5 410q-32.5 -47 -42.5 -125h53q61 0 104 24.5t43 79.5q0 29 -17 48.5t-46 19.5q-62 0 -94.5 -47zM177 602.5q-10 5.5 -8 16.5l6 56q2 12 12.5 17t33.5 5q45 0 42 -22l-6 -56q-2 -11 -12.5 -16.5t-33.5 -5.5q-24 0 -34 5.5zM309 619l6 56q2 11 12.5 16.5
t33.5 5.5q45 0 42 -22l-6 -56q-2 -11 -12.5 -16.5t-33.5 -5.5q-45 0 -42 22z" />
    <glyph glyph-name="igrave" unicode="&#xec;" horiz-adv-x="254" 
d="M87 15.5q-26 21.5 -26 74.5q0 14 1 22l40 391q1 12 11.5 17t30.5 5h4q21 0 30 -6t8 -20l-39 -391q-1 -5 -1 -14q0 -15 5 -21.5t18 -6.5q12 0 21 2.5t13 2.5q6 0 6 -9q0 -11 -2.5 -25t-5.5 -20q-4 -10 -21 -16.5t-36 -6.5q-31 0 -57 21.5zM111 580q-9 4 -20 20l-37 55
q-23 35 -23 46q0 9 11 13t34 4q31 0 43 -7t17 -22l22 -68q7 -21 7 -31q0 -7 -6 -10.5t-17 -3.5q-22 0 -31 4z" />
    <glyph glyph-name="iacute" unicode="&#xed;" horiz-adv-x="254" 
d="M87 15.5q-26 21.5 -26 74.5q0 14 1 22l40 391q1 12 11.5 17t30.5 5h4q21 0 30 -6t8 -20l-39 -391q-1 -5 -1 -14q0 -15 5 -21.5t18 -6.5q12 0 21 2.5t13 2.5q6 0 6 -9q0 -11 -2.5 -25t-5.5 -20q-4 -10 -21 -16.5t-36 -6.5q-31 0 -57 21.5zM91 588q0 7 14 33l38 71
q7 13 20 19.5t45 6.5q22 0 31.5 -3.5t9.5 -10.5q0 -5 -5 -12t-13 -16l-14 -16l-50 -60q-13 -16 -23 -20t-32 -4q-21 0 -21 12z" />
    <glyph glyph-name="icircumflex" unicode="&#xee;" horiz-adv-x="254" 
d="M87 15.5q-26 21.5 -26 74.5q0 14 1 22l40 391q1 12 11.5 17t30.5 5h4q21 0 30 -6t8 -20l-39 -391q-1 -5 -1 -14q0 -15 5 -21.5t18 -6.5q12 0 21 2.5t13 2.5q6 0 6 -9q0 -11 -2.5 -25t-5.5 -20q-4 -10 -21 -16.5t-36 -6.5q-31 0 -57 21.5zM26 588q0 7 14 33l38 71
q7 13 19.5 19.5t35.5 6.5h31q23 0 34 -6.5t15 -19.5l22 -71q8 -26 8 -31q0 -14 -28 -14q-19 0 -26 5t-15 19l-32 56l-45 -56q-11 -14 -19.5 -19t-24.5 -5q-27 0 -27 12z" />
    <glyph glyph-name="idieresis" unicode="&#xef;" horiz-adv-x="254" 
d="M87 15.5q-26 21.5 -26 74.5q0 14 1 22l40 391q1 12 11.5 17t30.5 5h4q21 0 30 -6t8 -20l-39 -391q-1 -5 -1 -14q0 -15 5 -21.5t18 -6.5q12 0 21 2.5t13 2.5q6 0 6 -9q0 -11 -2.5 -25t-5.5 -20q-4 -10 -21 -16.5t-36 -6.5q-31 0 -57 21.5zM36 602.5q-10 5.5 -8 16.5l6 56
q2 12 12.5 17t33.5 5q45 0 42 -22l-6 -56q-2 -11 -12.5 -16.5t-33.5 -5.5q-24 0 -34 5.5zM168 619l6 56q2 11 12.5 16.5t33.5 5.5q45 0 42 -22l-6 -56q-2 -11 -12.5 -16.5t-33.5 -5.5q-45 0 -42 22z" />
    <glyph glyph-name="eth" unicode="&#xf0;" horiz-adv-x="477" 
d="M436.5 630.5q-4.5 -3.5 -11.5 -4.5l-60 -8q32 -68 50 -153t18 -167q0 -131 -49 -217.5t-158 -86.5q-85 0 -133.5 58.5t-48.5 177.5q0 75 20 142.5t64 110.5t111 43q26 0 50.5 -7t40.5 -18q-5 41 -37 107l-96 -13q-10 -1 -17 10t-6 22q1 5 5.5 8.5t11.5 4.5l80 11l-11 18
q-2 4 -9.5 15t-7.5 18q0 4 4 6t13 4q14 2 27 2q11 0 15 -2t9 -8q17 -20 31 -44l78 11q12 2 17 -10t5 -22q-1 -5 -5.5 -8.5zM319.5 133q26.5 67 26.5 154q0 89 -25 128t-71 39q-68 0 -93.5 -66.5t-25.5 -153.5q0 -91 24.5 -129.5t69.5 -38.5q68 0 94.5 67z" />
    <glyph glyph-name="ntilde" unicode="&#xf1;" horiz-adv-x="482" 
d="M451 62q0 -10 -2.5 -24.5t-5.5 -20.5q-4 -9 -21 -16t-36 -7q-31 0 -57 21.5t-26 75.5q0 14 1 22l25 252q1 7 1 20q0 71 -60 71q-26 0 -51.5 -19t-43.5 -51l-39 -366q-2 -22 -40 -22h-11q-37 0 -34 24l36 345q5 53 5 86q0 19 -1 30t0 16q1 12 23 17.5t37 5.5
q14 0 18.5 -13t4.5 -36q0 -16 -1 -23q26 37 61 58t72 21q54 0 83.5 -34t29.5 -94q0 -8 -2 -28l-28 -265l-1 -12q0 -30 25 -30q9 0 18 2.5t14 2.5q6 0 6 -9zM132.5 603.5q-11.5 5.5 -11.5 11.5q0 5 5 17q12 28 36 46t51 18q26 0 70 -20q19 -9 31.5 -13t23.5 -4q13 0 21.5 6
t18.5 17q1 1 5 6t7.5 7t7.5 2q6 0 17 -6.5t11 -11.5q0 -7 -5 -19q-28 -60 -88 -60q-16 0 -32.5 5t-38.5 15q-38 17 -55 17q-13 0 -21 -6.5t-18 -18.5q-1 -1 -6.5 -7.5t-11.5 -6.5t-17.5 5.5z" />
    <glyph glyph-name="ograve" unicode="&#xf2;" horiz-adv-x="477" 
d="M90.5 50q-46.5 56 -46.5 166q0 133 52 223t158 90q87 0 133 -57.5t46 -169.5q0 -133 -50.5 -220.5t-157.5 -87.5q-88 0 -134.5 56zM320.5 136q25.5 70 25.5 170q0 151 -98 151q-65 0 -90.5 -71t-25.5 -171q0 -149 98 -149q65 0 90.5 70zM253 580q-9 4 -20 20l-37 55
q-23 35 -23 46q0 9 11 13t34 4q31 0 43 -7t17 -22l22 -68q7 -21 7 -31q0 -7 -6 -10.5t-17 -3.5q-22 0 -31 4z" />
    <glyph glyph-name="oacute" unicode="&#xf3;" horiz-adv-x="477" 
d="M90.5 50q-46.5 56 -46.5 166q0 133 52 223t158 90q87 0 133 -57.5t46 -169.5q0 -133 -50.5 -220.5t-157.5 -87.5q-88 0 -134.5 56zM320.5 136q25.5 70 25.5 170q0 151 -98 151q-65 0 -90.5 -71t-25.5 -171q0 -149 98 -149q65 0 90.5 70zM197 588q0 7 14 33l38 71
q7 13 20 19.5t45 6.5q22 0 31.5 -3.5t9.5 -10.5q0 -5 -5 -12t-13 -16l-14 -16l-50 -60q-13 -16 -23 -20t-32 -4q-21 0 -21 12z" />
    <glyph glyph-name="ocircumflex" unicode="&#xf4;" horiz-adv-x="477" 
d="M90.5 50q-46.5 56 -46.5 166q0 133 52 223t158 90q87 0 133 -57.5t46 -169.5q0 -133 -50.5 -220.5t-157.5 -87.5q-88 0 -134.5 56zM320.5 136q25.5 70 25.5 170q0 151 -98 151q-65 0 -90.5 -71t-25.5 -171q0 -149 98 -149q65 0 90.5 70zM147 588q0 7 14 33l38 71
q7 13 19.5 19.5t35.5 6.5h31q23 0 34 -6.5t15 -19.5l22 -71q8 -26 8 -31q0 -14 -28 -14q-19 0 -26 5t-15 19l-32 56l-45 -56q-11 -14 -19.5 -19t-24.5 -5q-27 0 -27 12z" />
    <glyph glyph-name="otilde" unicode="&#xf5;" horiz-adv-x="477" 
d="M90.5 50q-46.5 56 -46.5 166q0 133 52 223t158 90q87 0 133 -57.5t46 -169.5q0 -133 -50.5 -220.5t-157.5 -87.5q-88 0 -134.5 56zM320.5 136q25.5 70 25.5 170q0 151 -98 151q-65 0 -90.5 -71t-25.5 -171q0 -149 98 -149q65 0 90.5 70zM120.5 603.5
q-11.5 5.5 -11.5 11.5q0 5 5 17q12 28 36 46t51 18q26 0 70 -20q19 -9 31.5 -13t23.5 -4q13 0 21.5 6t18.5 17q1 1 5 6t7.5 7t7.5 2q6 0 17 -6.5t11 -11.5q0 -7 -5 -19q-28 -60 -88 -60q-16 0 -32.5 5t-38.5 15q-38 17 -55 17q-13 0 -21 -6.5t-18 -18.5q-1 -1 -6.5 -7.5
t-11.5 -6.5t-17.5 5.5z" />
    <glyph glyph-name="odieresis" unicode="&#xf6;" horiz-adv-x="477" 
d="M90.5 50q-46.5 56 -46.5 166q0 133 52 223t158 90q87 0 133 -57.5t46 -169.5q0 -133 -50.5 -220.5t-157.5 -87.5q-88 0 -134.5 56zM320.5 136q25.5 70 25.5 170q0 151 -98 151q-65 0 -90.5 -71t-25.5 -171q0 -149 98 -149q65 0 90.5 70zM153 602.5q-10 5.5 -8 16.5l6 56
q2 12 12.5 17t33.5 5q45 0 42 -22l-6 -56q-2 -11 -12.5 -16.5t-33.5 -5.5q-24 0 -34 5.5zM285 619l6 56q2 11 12.5 16.5t33.5 5.5q45 0 42 -22l-6 -56q-2 -11 -12.5 -16.5t-33.5 -5.5q-45 0 -42 22z" />
    <glyph glyph-name="divide" unicode="&#xf7;" horiz-adv-x="448" 
d="M197 390l5 51q2 22 40 22h5q38 0 36 -22l-5 -51q-3 -22 -41 -22h-5q-38 0 -35 22zM26 222l1 14q1 17 7 23.5t19 6.5h343q10 0 15 -5.5t4 -20.5l-1 -16q-1 -30 -27 -30h-341q-23 0 -20 28zM158 20l5 51q2 22 40 22h5q38 0 36 -22l-5 -51q-3 -22 -41 -22h-5q-38 0 -35 22z
" />
    <glyph glyph-name="oslash" unicode="&#xf8;" horiz-adv-x="477" 
d="M433 302q0 -133 -50.5 -220.5t-157.5 -87.5q-75 0 -118 39l-22 -31q-4 -8 -13 -8q-7 0 -16.5 7t-9.5 14q0 4 6 13l27 39q-35 55 -35 149q0 133 52 223t158 90q71 0 115 -38l20 29q6 8 13 8t16.5 -7t9.5 -14q0 -4 -6 -13l-25 -36q36 -57 36 -156zM137 153l184 267
q-25 37 -73 37q-65 0 -90.5 -71t-25.5 -171q0 -32 5 -62zM320.5 136q25.5 70 25.5 170q0 40 -6 68l-185 -269q26 -39 75 -39q65 0 90.5 70z" />
    <glyph glyph-name="ugrave" unicode="&#xf9;" horiz-adv-x="482" 
d="M449 62q-1 -9 -3.5 -25.5t-4.5 -19.5q-4 -10 -21 -16.5t-36 -6.5q-29 0 -52.5 17.5t-29.5 55.5q-26 -35 -61.5 -54.5t-72.5 -19.5q-56 0 -86 32t-30 89q0 16 1 24l39 364q3 22 40 22h10q38 0 36 -22l-37 -351q-1 -6 -1 -17q0 -68 63 -68q28 0 54.5 19t45.5 51l39 366
q2 22 40 22h10q38 0 36 -22l-41 -394l-1 -12q0 -30 25 -30q9 0 18 2.5t14 2.5q6 0 6 -9zM266 580q-9 4 -20 20l-37 55q-23 35 -23 46q0 9 11 13t34 4q31 0 43 -7t17 -22l22 -68q7 -21 7 -31q0 -7 -6 -10.5t-17 -3.5q-22 0 -31 4z" />
    <glyph glyph-name="uacute" unicode="&#xfa;" horiz-adv-x="482" 
d="M449 62q-1 -9 -3.5 -25.5t-4.5 -19.5q-4 -10 -21 -16.5t-36 -6.5q-29 0 -52.5 17.5t-29.5 55.5q-26 -35 -61.5 -54.5t-72.5 -19.5q-56 0 -86 32t-30 89q0 16 1 24l39 364q3 22 40 22h10q38 0 36 -22l-37 -351q-1 -6 -1 -17q0 -68 63 -68q28 0 54.5 19t45.5 51l39 366
q2 22 40 22h10q38 0 36 -22l-41 -394l-1 -12q0 -30 25 -30q9 0 18 2.5t14 2.5q6 0 6 -9zM210 588q0 7 14 33l38 71q7 13 20 19.5t45 6.5q22 0 31.5 -3.5t9.5 -10.5q0 -5 -5 -12t-13 -16l-14 -16l-50 -60q-13 -16 -23 -20t-32 -4q-21 0 -21 12z" />
    <glyph glyph-name="ucircumflex" unicode="&#xfb;" horiz-adv-x="482" 
d="M449 62q-1 -9 -3.5 -25.5t-4.5 -19.5q-4 -10 -21 -16.5t-36 -6.5q-29 0 -52.5 17.5t-29.5 55.5q-26 -35 -61.5 -54.5t-72.5 -19.5q-56 0 -86 32t-30 89q0 16 1 24l39 364q3 22 40 22h10q38 0 36 -22l-37 -351q-1 -6 -1 -17q0 -68 63 -68q28 0 54.5 19t45.5 51l39 366
q2 22 40 22h10q38 0 36 -22l-41 -394l-1 -12q0 -30 25 -30q9 0 18 2.5t14 2.5q6 0 6 -9zM160 588q0 7 14 33l38 71q7 13 19.5 19.5t35.5 6.5h31q23 0 34 -6.5t15 -19.5l22 -71q8 -26 8 -31q0 -14 -28 -14q-19 0 -26 5t-15 19l-32 56l-45 -56q-11 -14 -19.5 -19t-24.5 -5
q-27 0 -27 12z" />
    <glyph glyph-name="udieresis" unicode="&#xfc;" horiz-adv-x="482" 
d="M449 62q-1 -9 -3.5 -25.5t-4.5 -19.5q-4 -10 -21 -16.5t-36 -6.5q-29 0 -52.5 17.5t-29.5 55.5q-26 -35 -61.5 -54.5t-72.5 -19.5q-56 0 -86 32t-30 89q0 16 1 24l39 364q3 22 40 22h10q38 0 36 -22l-37 -351q-1 -6 -1 -17q0 -68 63 -68q28 0 54.5 19t45.5 51l39 366
q2 22 40 22h10q38 0 36 -22l-41 -394l-1 -12q0 -30 25 -30q9 0 18 2.5t14 2.5q6 0 6 -9zM166 602.5q-10 5.5 -8 16.5l6 56q2 12 12.5 17t33.5 5q45 0 42 -22l-6 -56q-2 -11 -12.5 -16.5t-33.5 -5.5q-24 0 -34 5.5zM298 619l6 56q2 11 12.5 16.5t33.5 5.5q45 0 42 -22l-6 -56
q-2 -11 -12.5 -16.5t-33.5 -5.5q-45 0 -42 22z" />
    <glyph glyph-name="yacute" unicode="&#xfd;" horiz-adv-x="399" 
d="M406 508q-2 -8 -6 -18l-267 -677q-10 -21 -43 -21h-21q-32 0 -30 16q0 1 6 17l87 209l-90 456q-3 14 -2 18q2 17 41 17h14q31 0 34 -16l42 -281q8 -54 11 -80h6q7 20 11 36l15 44l105 281q5 16 39 16h12q38 0 36 -17zM172 588q0 7 14 33l38 71q7 13 20 19.5t45 6.5
q22 0 31.5 -3.5t9.5 -10.5q0 -5 -5 -12t-13 -16l-14 -16l-50 -60q-13 -16 -23 -20t-32 -4q-21 0 -21 12z" />
    <glyph glyph-name="thorn" unicode="&#xfe;" horiz-adv-x="483" 
d="M28 -186l96 916q2 22 43 22h6q40 0 37 -22l-28 -266q53 65 120 65q63 0 98 -58t35 -159q0 -85 -22.5 -157.5t-66.5 -116.5t-107 -44q-35 0 -58.5 13t-42.5 38l-24 -231q-2 -22 -39 -22h-11q-39 0 -36 22zM318 140.5q29 72.5 29 172.5q0 71 -18.5 107t-53.5 36
q-25 0 -51.5 -18t-49.5 -51l-29 -274q30 -45 81 -45q63 0 92 72.5z" />
    <glyph glyph-name="ydieresis" unicode="&#xff;" horiz-adv-x="399" 
d="M406 508q-2 -8 -6 -18l-267 -677q-10 -21 -43 -21h-21q-32 0 -30 16q0 1 6 17l87 209l-90 456q-3 14 -2 18q2 17 41 17h14q31 0 34 -16l42 -281q8 -54 11 -80h6q7 20 11 36l15 44l105 281q5 16 39 16h12q38 0 36 -17zM128 602.5q-10 5.5 -8 16.5l6 56q2 12 12.5 17
t33.5 5q45 0 42 -22l-6 -56q-2 -11 -12.5 -16.5t-33.5 -5.5q-24 0 -34 5.5zM260 619l6 56q2 11 12.5 16.5t33.5 5.5q45 0 42 -22l-6 -56q-2 -11 -12.5 -16.5t-33.5 -5.5q-45 0 -42 22z" />
    <glyph glyph-name="Amacron" unicode="&#x100;" horiz-adv-x="505" 
d="M-13 15q0 4 1 7l2 6l250 655q7 19 42 19h29q35 0 38 -19l115 -655q2 -10 2 -13q-1 -8 -11 -12.5t-28 -4.5h-17q-30 0 -31 16l-26 164h-218l-59 -164q-7 -16 -38 -16h-16q-37 0 -35 17zM340 250l-44 283q-4 27 -6 61h-5q-15 -47 -20 -61l-104 -283h179zM193 781
q-4 7 -2 23l1 10q3 30 22 30h199q10 0 14 -7t2 -23l-1 -10q-3 -30 -22 -30h-199q-10 0 -14 7z" />
    <glyph glyph-name="amacron" unicode="&#x101;" horiz-adv-x="481" 
d="M75.5 52q-31.5 59 -31.5 151q0 84 23 158.5t68 121t109 46.5q66 0 108 -54q9 27 17.5 38.5t27.5 11.5h6q28 0 25 -21l-48 -381q-1 -7 -1 -18q0 -39 29 -39q12 0 22 2.5t14 2.5q6 0 6 -9q0 -10 -2.5 -24.5t-5.5 -20.5q-4 -10 -21 -16.5t-36 -6.5q-32 0 -57 19.5t-27 69.5
q-46 -90 -127 -90q-67 0 -98.5 59zM259.5 97.5q29.5 31.5 49.5 100.5l21 169q3 31 7 50q-16 17 -34 28t-46 11q-67 0 -97.5 -73.5t-30.5 -180.5q0 -61 16 -98.5t53 -37.5q32 0 61.5 31.5zM164 642l1 10q3 30 22 30h199q11 0 14.5 -7t1.5 -23l-1 -10q-3 -30 -22 -30h-199
q-19 0 -16 30z" />
    <glyph glyph-name="Abreve" unicode="&#x102;" horiz-adv-x="505" 
d="M-13 15q0 4 1 7l2 6l250 655q7 19 42 19h29q35 0 38 -19l115 -655q2 -10 2 -13q-1 -8 -11 -12.5t-28 -4.5h-17q-30 0 -31 16l-26 164h-218l-59 -164q-7 -16 -38 -16h-16q-37 0 -35 17zM340 250l-44 283q-4 27 -6 61h-5q-15 -47 -20 -61l-104 -283h179zM222 771
q-31 27 -31 73q0 17 4 23.5t16 6.5q8 0 11 -4t4.5 -8t1.5 -5q15 -47 85 -47q33 0 52.5 12t32.5 36q4 9 7.5 12.5t12.5 3.5q17 0 17 -13q0 -32 -17 -58.5t-46.5 -42.5t-65.5 -16q-53 0 -84 27z" />
    <glyph glyph-name="abreve" unicode="&#x103;" horiz-adv-x="481" 
d="M75.5 52q-31.5 59 -31.5 151q0 84 23 158.5t68 121t109 46.5q66 0 108 -54q9 27 17.5 38.5t27.5 11.5h6q28 0 25 -21l-48 -381q-1 -7 -1 -18q0 -39 29 -39q12 0 22 2.5t14 2.5q6 0 6 -9q0 -10 -2.5 -24.5t-5.5 -20.5q-4 -10 -21 -16.5t-36 -6.5q-32 0 -57 19.5t-27 69.5
q-46 -90 -127 -90q-67 0 -98.5 59zM259.5 97.5q29.5 31.5 49.5 100.5l21 169q3 31 7 50q-16 17 -34 28t-46 11q-67 0 -97.5 -73.5t-30.5 -180.5q0 -61 16 -98.5t53 -37.5q32 0 61.5 31.5zM203 610q-27 27 -27 74q0 16 4 22.5t15 6.5q9 0 12.5 -3.5t4.5 -8t1 -5.5
q11 -47 70 -47q31 0 52 12.5t30 35.5q0 1 3 8.5t17 7.5q15 0 15 -16q0 -18 -12 -45t-39.5 -48t-71.5 -21q-47 0 -74 27z" />
    <glyph glyph-name="Aogonek" unicode="&#x104;" horiz-adv-x="505" 
d="M480.5 -118.5q6.5 -11.5 6.5 -22.5q0 -16 -25 -30t-59 -14q-45 0 -66.5 19t-21.5 50q0 33 21 64t56 52q-12 5 -13 14l-26 164h-218l-59 -164q-7 -16 -38 -16h-16q-37 0 -35 17q0 4 1 7l2 6l250 655q7 19 42 19h29q35 0 38 -19l115 -655q2 -10 2 -13q-2 -11 -17 -15
q-28 -19 -46 -44.5t-18 -45.5q0 -12 8 -19.5t24 -7.5q13 0 29 6q14 4 21 4t13.5 -11.5zM340 250l-44 283q-4 27 -6 61h-5q-15 -47 -20 -61l-104 -283h179z" />
    <glyph glyph-name="aogonek" unicode="&#x105;" horiz-adv-x="481" 
d="M451.5 -116.5q6.5 -11.5 6.5 -22.5q0 -16 -25 -30t-59 -14q-45 0 -66.5 19t-21.5 50q0 30 19 60.5t51 51.5q-23 7 -38.5 27.5t-16.5 57.5q-46 -90 -127 -90q-67 0 -98.5 59t-31.5 151q0 84 23 158.5t68 121t109 46.5q66 0 108 -54q9 27 17.5 38.5t27.5 11.5h6
q28 0 25 -21l-48 -381q-1 -7 -1 -18q0 -39 29 -39q12 0 22 2.5t14 2.5q6 0 6 -9q0 -10 -2.5 -24.5t-5.5 -20.5q-5 -12 -28 -19q-26 -19 -42 -43t-16 -43q0 -12 8 -19.5t24 -7.5q13 0 29 6q14 4 21 4t13.5 -11.5zM337 417q-16 17 -34 28t-46 11q-67 0 -97.5 -73.5
t-30.5 -180.5q0 -61 16 -98.5t53 -37.5q32 0 61.5 31.5t49.5 100.5l21 169q3 31 7 50z" />
    <glyph glyph-name="Cacute" unicode="&#x106;" 
d="M110 59.5q-56 65.5 -56 201.5q0 214 78.5 329.5t224.5 115.5q52 0 100 -19q14 -6 14 -21q0 -10 -5 -27t-13.5 -27.5t-18.5 -4.5q-37 21 -85 21q-96 0 -149 -94t-53 -265q0 -100 35.5 -148.5t107.5 -48.5q28 0 50 6t47 19q3 2 9 2q11 0 17 -14t6 -31q0 -13 -6.5 -22.5
t-21.5 -16.5q-18 -8 -48 -14.5t-61 -6.5q-116 0 -172 65.5zM289 762q0 5 4 11.5t5 8.5l38 59q9 13 21 18t37 5q40 0 40 -14q0 -10 -21 -31l-53 -54q-8 -8 -16.5 -10.5t-27.5 -2.5q-27 0 -27 10z" />
    <glyph glyph-name="cacute" unicode="&#x107;" horiz-adv-x="408" 
d="M88 42.5q-46 48.5 -46 155.5q0 163 61.5 247t177.5 84q45 0 82.5 -13.5t37.5 -31.5q0 -11 -14.5 -33t-22.5 -22q-2 0 -10 4q-3 1 -15.5 8t-29 11.5t-34.5 4.5q-69 0 -105.5 -65.5t-36.5 -190.5q0 -70 25 -102.5t79 -32.5q29 0 48 6t37 16q5 2 8.5 5t5.5 3q9 0 18.5 -18
t9.5 -31q0 -12 -22.5 -24.5t-55 -20.5t-59.5 -8q-93 0 -139 48.5zM222 588q0 7 14 33l38 71q7 13 20 19.5t45 6.5q22 0 31.5 -3.5t9.5 -10.5q0 -5 -5 -12t-13 -16l-14 -16l-50 -60q-13 -16 -23 -20t-32 -4q-21 0 -21 12z" />
    <glyph glyph-name="Ccircumflex" unicode="&#x108;" 
d="M110 59.5q-56 65.5 -56 201.5q0 214 78.5 329.5t224.5 115.5q52 0 100 -19q14 -6 14 -21q0 -10 -5 -27t-13.5 -27.5t-18.5 -4.5q-37 21 -85 21q-96 0 -149 -94t-53 -265q0 -100 35.5 -148.5t107.5 -48.5q28 0 50 6t47 19q3 2 9 2q11 0 17 -14t6 -31q0 -13 -6.5 -22.5
t-21.5 -16.5q-18 -8 -48 -14.5t-61 -6.5q-116 0 -172 65.5zM228 752q0 8 17 32l33 47q10 14 22.5 18.5t40.5 4.5h26q24 0 37 -4t20 -19l22 -45q12 -24 12 -32q0 -12 -29 -12q-17 0 -24 3t-12 8l-45 46l-52 -44q-7 -6 -15.5 -9.5t-26.5 -3.5q-26 0 -26 10z" />
    <glyph glyph-name="ccircumflex" unicode="&#x109;" horiz-adv-x="408" 
d="M88 42.5q-46 48.5 -46 155.5q0 163 61.5 247t177.5 84q45 0 82.5 -13.5t37.5 -31.5q0 -11 -14.5 -33t-22.5 -22q-2 0 -10 4q-3 1 -15.5 8t-29 11.5t-34.5 4.5q-69 0 -105.5 -65.5t-36.5 -190.5q0 -70 25 -102.5t79 -32.5q29 0 48 6t37 16q5 2 8.5 5t5.5 3q9 0 18.5 -18
t9.5 -31q0 -12 -22.5 -24.5t-55 -20.5t-59.5 -8q-93 0 -139 48.5zM172 588q0 7 14 33l38 71q7 13 19.5 19.5t35.5 6.5h31q23 0 34 -6.5t15 -19.5l22 -71q8 -26 8 -31q0 -14 -28 -14q-19 0 -26 5t-15 19l-32 56l-45 -56q-11 -14 -19.5 -19t-24.5 -5q-27 0 -27 12z" />
    <glyph glyph-name="Cdotaccent" unicode="&#x10a;" 
d="M110 59.5q-56 65.5 -56 201.5q0 214 78.5 329.5t224.5 115.5q52 0 100 -19q14 -6 14 -21q0 -10 -5 -27t-13.5 -27.5t-18.5 -4.5q-37 21 -85 21q-96 0 -149 -94t-53 -265q0 -100 35.5 -148.5t107.5 -48.5q28 0 50 6t47 19q3 2 9 2q11 0 17 -14t6 -31q0 -13 -6.5 -22.5
t-21.5 -16.5q-18 -8 -48 -14.5t-61 -6.5q-116 0 -172 65.5zM308 763.5q-6 6.5 -6 15.5l6 60q2 22 48 22q25 0 33 -6t7 -16l-6 -60q-2 -22 -47 -22q-29 0 -35 6.5z" />
    <glyph glyph-name="cdotaccent" unicode="&#x10b;" horiz-adv-x="408" 
d="M88 42.5q-46 48.5 -46 155.5q0 163 61.5 247t177.5 84q45 0 82.5 -13.5t37.5 -31.5q0 -11 -14.5 -33t-22.5 -22q-2 0 -10 4q-3 1 -15.5 8t-29 11.5t-34.5 4.5q-69 0 -105.5 -65.5t-36.5 -190.5q0 -70 25 -102.5t79 -32.5q29 0 48 6t37 16q5 2 8.5 5t5.5 3q9 0 18.5 -18
t9.5 -31q0 -12 -22.5 -24.5t-55 -20.5t-59.5 -8q-93 0 -139 48.5zM240 617l6 60q2 22 47 22q23 0 32.5 -5.5t8.5 -16.5l-6 -60q-2 -22 -46 -22t-42 22z" />
    <glyph glyph-name="Ccaron" unicode="&#x10c;" 
d="M110 59.5q-56 65.5 -56 201.5q0 214 78.5 329.5t224.5 115.5q52 0 100 -19q14 -6 14 -21q0 -10 -5 -27t-13.5 -27.5t-18.5 -4.5q-37 21 -85 21q-96 0 -149 -94t-53 -265q0 -100 35.5 -148.5t107.5 -48.5q28 0 50 6t47 19q3 2 9 2q11 0 17 -14t6 -31q0 -13 -6.5 -22.5
t-21.5 -16.5q-18 -8 -48 -14.5t-61 -6.5q-116 0 -172 65.5zM292 757q-12 5 -19 18l-23 47q-11 22 -11 30q0 12 23 12q19 0 28 -2.5t17 -10.5l42 -44l55 46q8 6 16.5 8.5t27.5 2.5q21 0 21 -10q0 -6 -19 -34l-31 -45q-9 -13 -22.5 -18t-40.5 -5h-26q-26 0 -38 5z" />
    <glyph glyph-name="ccaron" unicode="&#x10d;" horiz-adv-x="408" 
d="M88 42.5q-46 48.5 -46 155.5q0 163 61.5 247t177.5 84q45 0 82.5 -13.5t37.5 -31.5q0 -11 -14.5 -33t-22.5 -22q-2 0 -10 4q-3 1 -15.5 8t-29 11.5t-34.5 4.5q-69 0 -105.5 -65.5t-36.5 -190.5q0 -70 25 -102.5t79 -32.5q29 0 48 6t37 16q5 2 8.5 5t5.5 3q9 0 18.5 -18
t9.5 -31q0 -12 -22.5 -24.5t-55 -20.5t-59.5 -8q-93 0 -139 48.5zM230.5 582.5q-11.5 6.5 -15.5 19.5l-22 71q-8 26 -8 31q0 14 28 14q17 0 25 -5t16 -19l33 -56l44 56q11 14 19 19t26 5q26 0 26 -12q0 -7 -14 -33l-38 -71q-7 -13 -19.5 -19.5t-34.5 -6.5h-31
q-23 0 -34.5 6.5z" />
    <glyph glyph-name="Dcaron" unicode="&#x10e;" horiz-adv-x="577" 
d="M64 7q-6 7 -4 23l68 640q2 16 9 23t21 7h158q111 0 170 -65t59 -211q0 -424 -293 -424h-168q-14 0 -20 7zM258 76q108 0 151 95.5t43 243.5q0 109 -37.5 159t-108.5 50h-92l-58 -548h102zM274 757q-12 5 -19 18l-23 47q-11 22 -11 30q0 12 23 12q19 0 28 -2.5t17 -10.5
l42 -44l55 46q8 6 16.5 8.5t27.5 2.5q21 0 21 -10q0 -6 -19 -34l-31 -45q-9 -13 -22.5 -18t-40.5 -5h-26q-26 0 -38 5z" />
    <glyph glyph-name="dcaron" unicode="&#x10f;" horiz-adv-x="481" 
d="M78.5 55q-35.5 61 -35.5 167q0 82 21 152t64.5 112.5t106.5 42.5q35 0 59.5 -13.5t44.5 -37.5l27 252q2 22 39 22h11q38 0 36 -22l-64 -607q-2 -16 -2 -25q0 -15 6 -23.5t22 -8.5q8 0 17 2.5t14 2.5q6 0 6 -9q0 -10 -2.5 -25t-5.5 -20q-5 -10 -21 -16.5t-36 -6.5
q-30 0 -54 17t-29 61q-53 -78 -124 -78q-65 0 -100.5 61zM254.5 85q25.5 18 48.5 51l29 274q-32 45 -82 45q-63 0 -91 -68.5t-28 -164.5q0 -155 75 -155q23 0 48.5 18zM503 583.5q-8 3.5 -8 11.5q0 12 3 28q9 50 9 99q0 15 9 23.5t27 8.5h8q16 0 26 -7.5t10 -20.5
q0 -42 -11.5 -75.5t-27 -52t-27.5 -18.5q-10 0 -18 3.5z" />
    <glyph glyph-name="Dcroat" unicode="&#x110;" horiz-adv-x="577" 
d="M486 635q59 -65 59 -211q0 -424 -293 -424h-168q-14 0 -20 7t-4 23l31 290h-52q-22 0 -19 29l2 18q1 16 7.5 22.5t18.5 6.5h51l29 274q2 16 9 23t21 7h158q111 0 170 -65zM409 171.5q43 95.5 43 243.5q0 109 -37.5 159t-108.5 50h-92l-24 -228h106q12 0 17 -7.5t3 -24.5
l-1 -12q-3 -32 -23 -32h-110l-26 -244h102q108 0 151 95.5z" />
    <glyph glyph-name="dcroat" unicode="&#x111;" horiz-adv-x="481" 
d="M518.5 658q3.5 -7 1.5 -23l-1 -10q-3 -30 -22 -30h-59l-50 -472q-2 -16 -2 -25q0 -15 6 -23.5t22 -8.5q8 0 17 2.5t14 2.5q6 0 6 -9q0 -10 -2.5 -25t-5.5 -20q-5 -10 -21 -16.5t-36 -6.5q-30 0 -54 17t-29 61q-53 -78 -124 -78q-65 0 -100.5 61t-35.5 167q0 82 21 152
t64.5 112.5t106.5 42.5q35 0 59.5 -13.5t44.5 -37.5l13 117h-164q-19 0 -16 30l1 10q3 30 22 30h164l7 65q2 22 39 22h11q38 0 36 -22l-7 -65h59q11 0 14.5 -7zM332 410q-32 45 -82 45q-63 0 -91 -68.5t-28 -164.5q0 -155 75 -155q23 0 48.5 18t48.5 51z" />
    <glyph glyph-name="Emacron" unicode="&#x112;" horiz-adv-x="457" 
d="M59 7q-6 7 -4 23l68 640q2 16 9 23t21 7h288q19 0 16 -30l-2 -16q-3 -30 -22 -30h-225l-24 -228h202q19 0 16 -30l-2 -16q-3 -30 -22 -30h-202l-26 -244h225q10 0 14 -7t2 -23l-2 -16q-2 -16 -7 -23t-15 -7h-288q-14 0 -20 7zM184 781q-4 7 -2 23l1 10q3 30 22 30h199
q10 0 14 -7t2 -23l-1 -10q-3 -30 -22 -30h-199q-10 0 -14 7z" />
    <glyph glyph-name="emacron" unicode="&#x113;" horiz-adv-x="454" 
d="M383 94q0 -15 -3.5 -29.5t-11.5 -22.5q-21 -23 -60.5 -35.5t-70.5 -12.5q-189 0 -189 200q0 95 26 170.5t79.5 120t132.5 44.5q50 0 81.5 -21.5t45 -52t13.5 -59.5q0 -89 -62 -136t-162 -47q-33 0 -67 6v-9q-2 -79 26 -111.5t83 -32.5q33 0 56.5 10t51.5 27q17 12 23 12
q8 0 8 -21zM182.5 410q-32.5 -47 -42.5 -125h53q61 0 104 24.5t43 79.5q0 29 -17 48.5t-46 19.5q-62 0 -94.5 -47zM167 642l1 10q3 30 22 30h199q11 0 14.5 -7t1.5 -23l-1 -10q-3 -30 -22 -30h-199q-19 0 -16 30z" />
    <glyph glyph-name="Ebreve" unicode="&#x114;" horiz-adv-x="457" 
d="M59 7q-6 7 -4 23l68 640q2 16 9 23t21 7h288q19 0 16 -30l-2 -16q-3 -30 -22 -30h-225l-24 -228h202q19 0 16 -30l-2 -16q-3 -30 -22 -30h-202l-26 -244h225q10 0 14 -7t2 -23l-2 -16q-2 -16 -7 -23t-15 -7h-288q-14 0 -20 7zM213 771q-31 27 -31 73q0 17 4 23.5t16 6.5
q8 0 11 -4t4.5 -8t1.5 -5q15 -47 85 -47q33 0 52.5 12t32.5 36q4 9 7.5 12.5t12.5 3.5q17 0 17 -13q0 -32 -17 -58.5t-46.5 -42.5t-65.5 -16q-53 0 -84 27z" />
    <glyph glyph-name="ebreve" unicode="&#x115;" horiz-adv-x="454" 
d="M383 94q0 -15 -3.5 -29.5t-11.5 -22.5q-21 -23 -60.5 -35.5t-70.5 -12.5q-189 0 -189 200q0 95 26 170.5t79.5 120t132.5 44.5q50 0 81.5 -21.5t45 -52t13.5 -59.5q0 -89 -62 -136t-162 -47q-33 0 -67 6v-9q-2 -79 26 -111.5t83 -32.5q33 0 56.5 10t51.5 27q17 12 23 12
q8 0 8 -21zM182.5 410q-32.5 -47 -42.5 -125h53q61 0 104 24.5t43 79.5q0 29 -17 48.5t-46 19.5q-62 0 -94.5 -47zM206 610q-27 27 -27 74q0 16 4 22.5t15 6.5q9 0 12.5 -3.5t4.5 -8t1 -5.5q11 -47 70 -47q31 0 52 12.5t30 35.5q0 1 3 8.5t17 7.5q15 0 15 -16q0 -18 -12 -45
t-39.5 -48t-71.5 -21q-47 0 -74 27z" />
    <glyph glyph-name="Edotaccent" unicode="&#x116;" horiz-adv-x="457" 
d="M59 7q-6 7 -4 23l68 640q2 16 9 23t21 7h288q19 0 16 -30l-2 -16q-3 -30 -22 -30h-225l-24 -228h202q19 0 16 -30l-2 -16q-3 -30 -22 -30h-202l-26 -244h225q10 0 14 -7t2 -23l-2 -16q-2 -16 -7 -23t-15 -7h-288q-14 0 -20 7zM260 763.5q-6 6.5 -6 15.5l6 60q2 22 48 22
q25 0 33 -6t7 -16l-6 -60q-2 -22 -47 -22q-29 0 -35 6.5z" />
    <glyph glyph-name="edotaccent" unicode="&#x117;" horiz-adv-x="454" 
d="M383 94q0 -15 -3.5 -29.5t-11.5 -22.5q-21 -23 -60.5 -35.5t-70.5 -12.5q-189 0 -189 200q0 95 26 170.5t79.5 120t132.5 44.5q50 0 81.5 -21.5t45 -52t13.5 -59.5q0 -89 -62 -136t-162 -47q-33 0 -67 6v-9q-2 -79 26 -111.5t83 -32.5q33 0 56.5 10t51.5 27q17 12 23 12
q8 0 8 -21zM182.5 410q-32.5 -47 -42.5 -125h53q61 0 104 24.5t43 79.5q0 29 -17 48.5t-46 19.5q-62 0 -94.5 -47zM239 617l6 60q2 22 47 22q23 0 32.5 -5.5t8.5 -16.5l-6 -60q-2 -22 -46 -22t-42 22z" />
    <glyph glyph-name="Eogonek" unicode="&#x118;" horiz-adv-x="457" 
d="M457 670l-2 -16q-3 -30 -22 -30h-225l-24 -228h202q19 0 16 -30l-2 -16q-3 -30 -22 -30h-202l-26 -244h225q10 0 14 -7t2 -23l-2 -16q-2 -16 -7 -23t-15 -7h-1q-27 -19 -44 -43.5t-17 -44.5q0 -12 8 -19.5t24 -7.5q13 0 29 6q14 4 21 4t13.5 -11.5t6.5 -22.5
q0 -16 -25 -30t-59 -14q-45 0 -66.5 19t-21.5 50t20 61.5t53 52.5h-229q-14 0 -20 7t-4 23l68 640q2 16 9 23t21 7h288q19 0 16 -30z" />
    <glyph glyph-name="eogonek" unicode="&#x119;" horiz-adv-x="454" 
d="M383 94q0 -15 -3.5 -29.5t-11.5 -22.5q-24 -26 -74 -39q-28 -20 -46 -45.5t-18 -45.5q0 -12 8 -19.5t24 -7.5q13 0 29 6q14 4 21 4t13.5 -11.5t6.5 -22.5q0 -16 -25 -30t-59 -14q-45 0 -66.5 19t-21.5 50q0 29 17.5 58t47.5 50q-177 7 -177 200q0 95 26 170.5t79.5 120
t132.5 44.5q50 0 81.5 -21.5t45 -52t13.5 -59.5q0 -89 -62 -136t-162 -47q-33 0 -67 6v-9q-2 -79 26 -111.5t83 -32.5q33 0 56.5 10t51.5 27q17 12 23 12q8 0 8 -21zM182.5 410q-32.5 -47 -42.5 -125h53q61 0 104 24.5t43 79.5q0 29 -17 48.5t-46 19.5q-62 0 -94.5 -47z" />
    <glyph glyph-name="Ecaron" unicode="&#x11a;" horiz-adv-x="457" 
d="M59 7q-6 7 -4 23l68 640q2 16 9 23t21 7h288q19 0 16 -30l-2 -16q-3 -30 -22 -30h-225l-24 -228h202q19 0 16 -30l-2 -16q-3 -30 -22 -30h-202l-26 -244h225q10 0 14 -7t2 -23l-2 -16q-2 -16 -7 -23t-15 -7h-288q-14 0 -20 7zM244 757q-12 5 -19 18l-23 47q-11 22 -11 30
q0 12 23 12q19 0 28 -2.5t17 -10.5l42 -44l55 46q8 6 16.5 8.5t27.5 2.5q21 0 21 -10q0 -6 -19 -34l-31 -45q-9 -13 -22.5 -18t-40.5 -5h-26q-26 0 -38 5z" />
    <glyph glyph-name="ecaron" unicode="&#x11b;" horiz-adv-x="454" 
d="M383 94q0 -15 -3.5 -29.5t-11.5 -22.5q-21 -23 -60.5 -35.5t-70.5 -12.5q-189 0 -189 200q0 95 26 170.5t79.5 120t132.5 44.5q50 0 81.5 -21.5t45 -52t13.5 -59.5q0 -89 -62 -136t-162 -47q-33 0 -67 6v-9q-2 -79 26 -111.5t83 -32.5q33 0 56.5 10t51.5 27q17 12 23 12
q8 0 8 -21zM182.5 410q-32.5 -47 -42.5 -125h53q61 0 104 24.5t43 79.5q0 29 -17 48.5t-46 19.5q-62 0 -94.5 -47zM229.5 582.5q-11.5 6.5 -15.5 19.5l-22 71q-8 26 -8 31q0 14 28 14q17 0 25 -5t16 -19l33 -56l44 56q11 14 19 19t26 5q26 0 26 -12q0 -7 -14 -33l-38 -71
q-7 -13 -19.5 -19.5t-34.5 -6.5h-31q-23 0 -34.5 6.5z" />
    <glyph glyph-name="Gcircumflex" unicode="&#x11c;" horiz-adv-x="552" 
d="M113 63.5q-59 69.5 -59 206.5q0 201 72.5 318.5t231.5 117.5q36 0 72 -9.5t59 -24t23 -27.5q0 -12 -16 -35.5t-26 -23.5q-3 0 -20 11.5t-41.5 20.5t-57.5 9q-107 0 -155 -98.5t-48 -251.5q0 -96 32.5 -151.5t105.5 -55.5q53 0 90 13l23 223h-85q-17 0 -17 20q0 6 1 10
l1 16q3 30 23 30h148q27 0 24 -30l-30 -286q-4 -38 -60.5 -55t-128.5 -17q-103 0 -162 69.5zM229 752q0 8 17 32l33 47q10 14 22.5 18.5t40.5 4.5h26q24 0 37 -4t20 -19l22 -45q12 -24 12 -32q0 -12 -29 -12q-17 0 -24 3t-12 8l-45 46l-52 -44q-7 -6 -15.5 -9.5t-26.5 -3.5
q-26 0 -26 10z" />
    <glyph glyph-name="gcircumflex" unicode="&#x11d;" horiz-adv-x="471" 
d="M422.5 520q5.5 -5 5.5 -16l-45 -422q-11 -109 -37.5 -173.5t-68 -92.5t-102.5 -28q-57 0 -95 19.5t-48 41.5q-2 6 -2 14q0 15 4.5 28t12.5 13q3 0 21.5 -12.5t43.5 -22t58 -9.5q57 0 86.5 47t41.5 160l2 15q-47 -82 -125 -82q-67 0 -99 60.5t-32 153.5q0 85 22.5 157
t68 115t111.5 43q64 0 106 -54q9 27 17.5 38.5t27.5 11.5h6q14 0 19.5 -5zM337 417q-16 17 -34.5 28t-44.5 11q-69 0 -99 -67.5t-30 -176.5q0 -139 71 -139q29 0 60 29t51 96l18 169q2 18 8 50zM161 588q0 7 14 33l38 71q7 13 19.5 19.5t35.5 6.5h31q23 0 34 -6.5t15 -19.5
l22 -71q8 -26 8 -31q0 -14 -28 -14q-19 0 -26 5t-15 19l-32 56l-45 -56q-11 -14 -19.5 -19t-24.5 -5q-27 0 -27 12z" />
    <glyph glyph-name="Gbreve" unicode="&#x11e;" horiz-adv-x="552" 
d="M113 63.5q-59 69.5 -59 206.5q0 201 72.5 318.5t231.5 117.5q36 0 72 -9.5t59 -24t23 -27.5q0 -12 -16 -35.5t-26 -23.5q-3 0 -20 11.5t-41.5 20.5t-57.5 9q-107 0 -155 -98.5t-48 -251.5q0 -96 32.5 -151.5t105.5 -55.5q53 0 90 13l23 223h-85q-17 0 -17 20q0 6 1 10
l1 16q3 30 23 30h148q27 0 24 -30l-30 -286q-4 -38 -60.5 -55t-128.5 -17q-103 0 -162 69.5zM262 771q-31 27 -31 73q0 17 4 23.5t16 6.5q8 0 11 -4t4.5 -8t1.5 -5q15 -47 85 -47q33 0 52.5 12t32.5 36q4 9 7.5 12.5t12.5 3.5q17 0 17 -13q0 -32 -17 -58.5t-46.5 -42.5
t-65.5 -16q-53 0 -84 27z" />
    <glyph glyph-name="gbreve" unicode="&#x11f;" horiz-adv-x="471" 
d="M422.5 520q5.5 -5 5.5 -16l-45 -422q-11 -109 -37.5 -173.5t-68 -92.5t-102.5 -28q-57 0 -95 19.5t-48 41.5q-2 6 -2 14q0 15 4.5 28t12.5 13q3 0 21.5 -12.5t43.5 -22t58 -9.5q57 0 86.5 47t41.5 160l2 15q-47 -82 -125 -82q-67 0 -99 60.5t-32 153.5q0 85 22.5 157
t68 115t111.5 43q64 0 106 -54q9 27 17.5 38.5t27.5 11.5h6q14 0 19.5 -5zM337 417q-16 17 -34.5 28t-44.5 11q-69 0 -99 -67.5t-30 -176.5q0 -139 71 -139q29 0 60 29t51 96l18 169q2 18 8 50zM196 610q-27 27 -27 74q0 16 4 22.5t15 6.5q9 0 12.5 -3.5t4.5 -8t1 -5.5
q11 -47 70 -47q31 0 52 12.5t30 35.5q0 1 3 8.5t17 7.5q15 0 15 -16q0 -18 -12 -45t-39.5 -48t-71.5 -21q-47 0 -74 27z" />
    <glyph glyph-name="Gdotaccent" unicode="&#x120;" horiz-adv-x="552" 
d="M113 63.5q-59 69.5 -59 206.5q0 201 72.5 318.5t231.5 117.5q36 0 72 -9.5t59 -24t23 -27.5q0 -12 -16 -35.5t-26 -23.5q-3 0 -20 11.5t-41.5 20.5t-57.5 9q-107 0 -155 -98.5t-48 -251.5q0 -96 32.5 -151.5t105.5 -55.5q53 0 90 13l23 223h-85q-17 0 -17 20q0 6 1 10
l1 16q3 30 23 30h148q27 0 24 -30l-30 -286q-4 -38 -60.5 -55t-128.5 -17q-103 0 -162 69.5zM309 763.5q-6 6.5 -6 15.5l6 60q2 22 48 22q25 0 33 -6t7 -16l-6 -60q-2 -22 -47 -22q-29 0 -35 6.5z" />
    <glyph glyph-name="gdotaccent" unicode="&#x121;" horiz-adv-x="471" 
d="M422.5 520q5.5 -5 5.5 -16l-45 -422q-11 -109 -37.5 -173.5t-68 -92.5t-102.5 -28q-57 0 -95 19.5t-48 41.5q-2 6 -2 14q0 15 4.5 28t12.5 13q3 0 21.5 -12.5t43.5 -22t58 -9.5q57 0 86.5 47t41.5 160l2 15q-47 -82 -125 -82q-67 0 -99 60.5t-32 153.5q0 85 22.5 157
t68 115t111.5 43q64 0 106 -54q9 27 17.5 38.5t27.5 11.5h6q14 0 19.5 -5zM337 417q-16 17 -34.5 28t-44.5 11q-69 0 -99 -67.5t-30 -176.5q0 -139 71 -139q29 0 60 29t51 96l18 169q2 18 8 50zM229 617l6 60q2 22 47 22q23 0 32.5 -5.5t8.5 -16.5l-6 -60q-2 -22 -46 -22
t-42 22z" />
    <glyph glyph-name="uni0122" unicode="&#x122;" horiz-adv-x="552" 
d="M113 63.5q-59 69.5 -59 206.5q0 201 72.5 318.5t231.5 117.5q36 0 72 -9.5t59 -24t23 -27.5q0 -12 -16 -35.5t-26 -23.5q-3 0 -20 11.5t-41.5 20.5t-57.5 9q-107 0 -155 -98.5t-48 -251.5q0 -96 32.5 -151.5t105.5 -55.5q53 0 90 13l23 223h-85q-17 0 -17 20q0 6 1 10
l1 16q3 30 23 30h148q27 0 24 -30l-30 -286q-4 -38 -60.5 -55t-128.5 -17q-103 0 -162 69.5zM200 -231.5q-8 3.5 -8 10.5q0 9 12 35q12 25 20 48t11 55q2 14 12.5 23t29.5 9h10q15 0 23.5 -6.5t8.5 -17.5q0 -31 -16.5 -69t-40.5 -64.5t-44 -26.5q-10 0 -18 3.5z" />
    <glyph glyph-name="uni0123" unicode="&#x123;" horiz-adv-x="471" 
d="M422.5 520q5.5 -5 5.5 -16l-45 -422q-11 -109 -37.5 -173.5t-68 -92.5t-102.5 -28q-57 0 -95 19.5t-48 41.5q-2 6 -2 14q0 15 4.5 28t12.5 13q3 0 21.5 -12.5t43.5 -22t58 -9.5q57 0 86.5 47t41.5 160l2 15q-47 -82 -125 -82q-67 0 -99 60.5t-32 153.5q0 85 22.5 157
t68 115t111.5 43q64 0 106 -54q9 27 17.5 38.5t27.5 11.5h6q14 0 19.5 -5zM337 417q-16 17 -34.5 28t-44.5 11q-69 0 -99 -67.5t-30 -176.5q0 -139 71 -139q29 0 60 29t51 96l18 169q2 18 8 50zM224 615q-10 7 -10 18q0 31 18 68.5t44 64t48 26.5q10 0 18.5 -3.5t8.5 -10.5
q0 -8 -5.5 -20t-7.5 -15q-13 -25 -22 -48.5t-12 -54.5q-2 -15 -13.5 -23.5t-30.5 -8.5h-9q-17 0 -27 7z" />
    <glyph glyph-name="Hcircumflex" unicode="&#x124;" horiz-adv-x="601" 
d="M54 20l70 660q2 22 40 22h15q37 0 35 -22l-30 -283h263l30 283q2 22 40 22h14q38 0 36 -22l-70 -660q-2 -22 -40 -22h-14q-38 0 -36 22l32 301h-263l-32 -301q-2 -22 -39 -22h-15q-38 0 -36 22zM238 752q0 8 17 32l33 47q10 14 22.5 18.5t40.5 4.5h26q24 0 37 -4t20 -19
l22 -45q12 -24 12 -32q0 -12 -29 -12q-17 0 -24 3t-12 8l-45 46l-52 -44q-7 -6 -15.5 -9.5t-26.5 -3.5q-26 0 -26 10z" />
    <glyph glyph-name="hcircumflex" unicode="&#x125;" horiz-adv-x="485" 
d="M329 15.5q-26 21.5 -26 74.5q0 14 1 22l25 253q2 20 2 28q0 34 -13.5 48.5t-44.5 14.5q-37 0 -66.5 -23.5t-39.5 -46.5l-38 -366q-3 -22 -41 -22h-10q-38 0 -35 22l74 710q3 22 41 22h11q37 0 34 -22l-28 -268q24 31 57.5 49t71.5 18q50 0 81.5 -32t31.5 -97
q0 -17 -1 -27l-27 -265q-1 -5 -1 -14q0 -15 5 -21.5t18 -6.5q12 0 21 2.5t13 2.5q6 0 6 -9q0 -10 -2.5 -24.5t-5.5 -20.5q-4 -10 -21 -16.5t-36 -6.5q-31 0 -57 21.5zM51 777q0 8 17 32l33 47q10 14 22.5 18.5t40.5 4.5h26q24 0 37 -4t20 -19l22 -45q12 -24 12 -32
q0 -12 -29 -12q-17 0 -24 3t-12 8l-45 46l-52 -44q-7 -6 -15.5 -9.5t-26.5 -3.5q-26 0 -26 10z" />
    <glyph glyph-name="Hbar" unicode="&#x126;" horiz-adv-x="601" 
d="M584 556q5 -6 4 -21l-1 -14q-1 -17 -7 -23.5t-17 -6.5h-16l-50 -471q-2 -22 -40 -22h-14q-38 0 -36 22l32 301h-263l-32 -301q-2 -22 -39 -22h-15q-38 0 -36 22l50 471h-12q-24 0 -21 28l1 13q1 17 7.5 23.5t17.5 6.5h14l13 118q2 22 40 22h15q37 0 35 -22l-13 -118h263
l13 118q2 22 40 22h14q38 0 36 -22l-13 -118h14q11 0 16 -6zM457 491h-263l-10 -94h263z" />
    <glyph glyph-name="hbar" unicode="&#x127;" horiz-adv-x="485" 
d="M451 62q0 -10 -2.5 -24.5t-5.5 -20.5q-4 -10 -21 -16.5t-36 -6.5q-31 0 -57 21.5t-26 74.5q0 14 1 22l25 253q2 20 2 28q0 34 -13.5 48.5t-44.5 14.5q-37 0 -66.5 -23.5t-39.5 -46.5l-38 -366q-3 -22 -41 -22h-10q-38 0 -35 22l60 575h-49q-19 0 -16 30l1 10q3 30 22 30
h49l7 65q3 22 41 22h11q37 0 34 -22l-7 -65h147q11 0 14.5 -7t1.5 -23l-1 -10q-3 -30 -22 -30h-147l-14 -133q24 31 57.5 49t71.5 18q50 0 81.5 -32t31.5 -97q0 -17 -1 -27l-27 -265q-1 -5 -1 -14q0 -15 5 -21.5t18 -6.5q12 0 21 2.5t13 2.5q6 0 6 -9z" />
    <glyph glyph-name="Itilde" unicode="&#x128;" horiz-adv-x="262" 
d="M61 20l70 660q2 22 40 22h15q37 0 35 -22l-70 -660q-2 -22 -39 -22h-15q-38 0 -36 22zM208 763.5q-16 5.5 -39 16.5q-3 1 -13 6t-19 7.5t-16 2.5q-21 0 -38 -24q-2 -2 -7.5 -8t-11.5 -6q-7 0 -18 6t-11 12q0 5 5 15q33 67 90 67q21 0 36 -5.5t35 -15.5q3 -1 13 -6
t19 -7.5t18 -2.5q13 0 22.5 6.5t19.5 17.5q13 15 21 15q5 0 16.5 -7t11.5 -12t-6 -17q-33 -66 -92 -66q-20 0 -36 5.5z" />
    <glyph glyph-name="itilde" unicode="&#x129;" horiz-adv-x="254" 
d="M30.5 603.5q-10.5 5.5 -10.5 11.5q0 5 5 17q11 28 32.5 46t45.5 18q15 0 29.5 -5t33.5 -15q32 -17 50 -17q11 0 19 6t16 17q11 15 19 15q5 0 15 -6.5t10 -11.5q0 -7 -5 -19q-25 -60 -79 -60q-14 0 -29 5t-35 15q-13 7 -26 12t-23 5q-12 0 -19 -6t-16 -18
q-4 -6 -8.5 -10.5t-8.5 -4.5q-5 0 -15.5 5.5zM87 15.5q-26 21.5 -26 74.5q0 14 1 22l40 391q1 12 11.5 17t30.5 5h4q21 0 30 -6t8 -20l-39 -391q-1 -5 -1 -14q0 -15 5 -21.5t18 -6.5q12 0 21 2.5t13 2.5q6 0 6 -9q0 -11 -2.5 -25t-5.5 -20q-4 -10 -21 -16.5t-36 -6.5
q-31 0 -57 21.5z" />
    <glyph glyph-name="Imacron" unicode="&#x12a;" horiz-adv-x="262" 
d="M61 20l70 660q2 22 40 22h15q37 0 35 -22l-70 -660q-2 -22 -39 -22h-15q-38 0 -36 22zM71 781q-4 7 -2 23l1 10q3 30 22 30h199q10 0 14 -7t2 -23l-1 -10q-3 -30 -22 -30h-199q-10 0 -14 7z" />
    <glyph glyph-name="imacron" unicode="&#x12b;" horiz-adv-x="254" 
d="M87 15.5q-26 21.5 -26 74.5q0 14 1 22l40 391q1 12 11.5 17t30.5 5h4q21 0 30 -6t8 -20l-39 -391q-1 -5 -1 -14q0 -15 5 -21.5t18 -6.5q12 0 21 2.5t13 2.5q6 0 6 -9q0 -11 -2.5 -25t-5.5 -20q-4 -10 -21 -16.5t-36 -6.5q-31 0 -57 21.5zM40 642l1 10q3 30 22 30h199
q11 0 14.5 -7t1.5 -23l-1 -10q-3 -30 -22 -30h-199q-19 0 -16 30z" />
    <glyph glyph-name="Ibreve" unicode="&#x12c;" horiz-adv-x="262" 
d="M61 20l70 660q2 22 40 22h15q37 0 35 -22l-70 -660q-2 -22 -39 -22h-15q-38 0 -36 22zM100 771q-31 27 -31 73q0 17 4 23.5t16 6.5q8 0 11 -4t4.5 -8t1.5 -5q15 -47 85 -47q33 0 52.5 12t32.5 36q4 9 7.5 12.5t12.5 3.5q17 0 17 -13q0 -32 -17 -58.5t-46.5 -42.5
t-65.5 -16q-53 0 -84 27z" />
    <glyph glyph-name="ibreve" unicode="&#x12d;" horiz-adv-x="254" 
d="M87 15.5q-26 21.5 -26 74.5q0 14 1 22l40 391q1 12 11.5 17t30.5 5h4q21 0 30 -6t8 -20l-39 -391q-1 -5 -1 -14q0 -15 5 -21.5t18 -6.5q12 0 21 2.5t13 2.5q6 0 6 -9q0 -11 -2.5 -25t-5.5 -20q-4 -10 -21 -16.5t-36 -6.5q-31 0 -57 21.5zM65 610q-27 27 -27 74
q0 16 4 22.5t15 6.5q9 0 12.5 -3.5t4.5 -8t1 -5.5q11 -47 70 -47q31 0 52 12.5t30 35.5q0 1 3 8.5t17 7.5q15 0 15 -16q0 -18 -12 -45t-39.5 -48t-71.5 -21q-47 0 -74 27z" />
    <glyph glyph-name="Iogonek" unicode="&#x12e;" horiz-adv-x="262" 
d="M81.5 -45q-16.5 -24 -16.5 -43q0 -12 8 -19.5t24 -7.5q13 0 29 6q14 4 21 4t13.5 -11.5t6.5 -22.5q0 -16 -25 -30t-59 -14q-45 0 -66.5 19t-21.5 50q0 32 21 63.5t55 52.5q-11 7 -10 18l70 660q2 22 40 22h15q37 0 35 -22l-70 -660q-2 -18 -27 -21q-26 -20 -42.5 -44z
" />
    <glyph glyph-name="iogonek" unicode="&#x12f;" horiz-adv-x="254" 
d="M112 617l6 60q2 22 47 22q23 0 32.5 -5.5t8.5 -16.5l-6 -60q-2 -22 -46 -22t-42 22zM209.5 -116.5q6.5 -11.5 6.5 -22.5q0 -16 -25 -30t-59 -14q-45 0 -66.5 19t-21.5 50t19 61t52 52q-54 18 -54 92q0 14 1 21l40 391q1 12 11.5 17t30.5 5h4q21 0 30 -6t8 -20l-39 -391
q-1 -5 -1 -14q0 -15 5 -21.5t18 -6.5q12 0 21 2.5t13 2.5q6 0 6 -9q0 -11 -2.5 -25t-5.5 -20q-4 -12 -29 -19q-26 -19 -42 -43t-16 -43q0 -12 8 -19.5t24 -7.5q13 0 29 6q14 4 21 4t13.5 -11.5z" />
    <glyph glyph-name="Idotaccent" unicode="&#x130;" horiz-adv-x="262" 
d="M61 20l70 660q2 22 40 22h15q37 0 35 -22l-70 -660q-2 -22 -39 -22h-15q-38 0 -36 22zM147 763.5q-6 6.5 -6 15.5l6 60q2 22 48 22q25 0 33 -6t7 -16l-6 -60q-2 -22 -47 -22q-29 0 -35 6.5z" />
    <glyph glyph-name="dotlessi" unicode="&#x131;" horiz-adv-x="254" 
d="M87 15.5q-26 21.5 -26 74.5q0 14 1 22l40 391q1 12 11.5 17t30.5 5h4q21 0 30 -6t8 -20l-39 -391q-1 -5 -1 -14q0 -15 5 -21.5t18 -6.5q12 0 21 2.5t13 2.5q6 0 6 -9q0 -11 -2.5 -25t-5.5 -20q-4 -10 -21 -16.5t-36 -6.5q-31 0 -57 21.5z" />
    <glyph glyph-name="IJ" unicode="&#x132;" horiz-adv-x="617" 
d="M61 20l70 660q2 22 40 22h15q37 0 35 -22l-70 -660q-2 -22 -39 -22h-15q-38 0 -36 22zM264 2.5q-28 8.5 -27 23.5q2 14 11 34.5t18 20.5q6 0 22.5 -4.5t33.5 -4.5q50 0 75.5 29t32.5 94l51 485q2 22 40 22h14q39 0 37 -22l-50 -475q-10 -99 -58.5 -155t-139.5 -56
q-32 0 -60 8.5z" />
    <glyph glyph-name="ij" unicode="&#x133;" horiz-adv-x="503" 
d="M87 15.5q-26 21.5 -26 74.5q0 14 1 22l40 391q1 12 11.5 17t30.5 5h4q21 0 30 -6t8 -20l-39 -391q-1 -5 -1 -14q0 -15 5 -21.5t18 -6.5q12 0 21 2.5t13 2.5q6 0 6 -9q0 -11 -2.5 -25t-5.5 -20q-4 -10 -21 -16.5t-36 -6.5q-31 0 -57 21.5zM112 617l6 60q2 22 47 22
q23 0 32.5 -5.5t8.5 -16.5l-6 -60q-2 -22 -46 -22t-42 22zM191 -182q1 11 9 29t17 18q4 0 12 -2.5t24 -2.5q38 0 45 68l60 575q3 22 43 22h4q40 0 37 -22l-61 -583q-8 -74 -44.5 -103t-78.5 -29q-69 0 -67 30zM368 617l6 60q2 22 47 22q23 0 32.5 -5.5t8.5 -16.5l-6 -60
q-2 -22 -46 -22t-42 22z" />
    <glyph glyph-name="Jcircumflex" unicode="&#x134;" horiz-adv-x="355" 
d="M2 2.5q-28 8.5 -27 23.5q2 14 11 34.5t18 20.5q6 0 22.5 -4.5t33.5 -4.5q50 0 75.5 29t32.5 94l51 485q2 22 40 22h14q39 0 37 -22l-50 -475q-10 -99 -58.5 -155t-139.5 -56q-32 0 -60 8.5zM155 752q0 8 17 32l33 47q10 14 22.5 18.5t40.5 4.5h26q24 0 37 -4t20 -19
l22 -45q12 -24 12 -32q0 -12 -29 -12q-17 0 -24 3t-12 8l-45 46l-52 -44q-7 -6 -15.5 -9.5t-26.5 -3.5q-26 0 -26 10z" />
    <glyph glyph-name="jcircumflex" unicode="&#x135;" horiz-adv-x="249" 
d="M-63 -182q1 11 9 29t17 18q4 0 12 -2.5t24 -2.5q38 0 45 68l60 575q3 22 43 22h4q40 0 37 -22l-61 -583q-8 -74 -44.5 -103t-78.5 -29q-69 0 -67 30zM46 588q0 7 14 33l38 71q7 13 19.5 19.5t35.5 6.5h31q23 0 34 -6.5t15 -19.5l22 -71q8 -26 8 -31q0 -14 -28 -14
q-19 0 -26 5t-15 19l-32 56l-45 -56q-11 -14 -19.5 -19t-24.5 -5q-27 0 -27 12z" />
    <glyph glyph-name="uni0136" unicode="&#x136;" horiz-adv-x="510" 
d="M54 20l70 660q2 22 40 22h13q39 0 37 -22l-32 -306h3l235 314q11 14 48 14h17q17 0 25.5 -3.5t8.5 -9.5q-2 -9 -11 -20l-238 -317l199 -324q6 -10 5 -16q-1 -8 -10 -11t-31 -3h-11q-20 0 -31 2t-16 11l-195 322h-3l-33 -313q-2 -22 -41 -22h-13q-38 0 -36 22zM145 -231.5
q-8 3.5 -8 10.5q0 9 12 35q12 25 20 48t11 55q2 14 12.5 23t29.5 9h10q15 0 23.5 -6.5t8.5 -17.5q0 -31 -16.5 -69t-40.5 -64.5t-44 -26.5q-10 0 -18 3.5z" />
    <glyph glyph-name="uni0137" unicode="&#x137;" horiz-adv-x="452" 
d="M68 20l74 710q3 22 41 22h11q37 0 34 -22l-47 -447h5l169 228q11 14 45 14h21q16 0 24 -3.5t7 -9.5q0 -8 -10 -21l-168 -226l129 -237q5 -10 5 -16q-1 -8 -10.5 -11t-30.5 -3h-25q-16 0 -21.5 2t-10.5 11l-124 247h-6l-26 -238q-3 -22 -40 -22h-11q-38 0 -35 22z
M131 -231.5q-8 3.5 -8 10.5q0 9 12 35q12 25 20 48t11 55q2 14 12.5 23t29.5 9h10q15 0 23.5 -6.5t8.5 -17.5q0 -31 -16.5 -69t-40.5 -64.5t-44 -26.5q-10 0 -18 3.5z" />
    <glyph glyph-name="kgreenlandic" unicode="&#x138;" horiz-adv-x="452" 
d="M68.5 3.5q-8.5 5.5 -7.5 16.5l51 483q2 22 40 22h11q38 0 35 -22l-23 -220h5l169 228q11 14 44 14h12q16 0 24 -3.5t8 -8.5q0 -9 -13 -26l-169 -219l134 -240q5 -9 5 -15q0 -9 -10 -12t-30 -3h-8q-19 0 -28.5 2t-14.5 11l-126 237h-6l-24 -228q-2 -22 -39 -22h-11
q-20 0 -28.5 5.5z" />
    <glyph glyph-name="Lacute" unicode="&#x139;" horiz-adv-x="408" 
d="M59 7q-6 7 -4 23l69 650q2 22 40 22h14q38 0 36 -22l-64 -604h208q10 0 14.5 -7t2.5 -23l-2 -16q-3 -30 -23 -30h-271q-14 0 -20 7zM124 764q0 5 4 11.5t5 8.5l38 59q9 13 21 18t37 5q40 0 40 -14q0 -10 -21 -31l-53 -54q-8 -8 -16.5 -10.5t-27.5 -2.5q-27 0 -27 10z" />
    <glyph glyph-name="lacute" unicode="&#x13a;" horiz-adv-x="270" 
d="M91.5 15.5q-28.5 21.5 -28.5 77.5q0 14 1 22l65 615q2 22 42 22h4q40 0 38 -22l-65 -617q-1 -6 -1 -15q0 -20 8 -26t23 -6q12 0 22.5 2.5t15.5 2.5q6 0 6 -9q0 -10 -2.5 -24.5t-5.5 -20.5q-4 -10 -21 -16.5t-36 -6.5q-37 0 -65.5 21.5zM118 785q0 7 14 33l38 71
q7 13 20 19.5t45 6.5q22 0 31.5 -3.5t9.5 -10.5q0 -5 -5 -12t-13 -16l-14 -16l-50 -60q-13 -16 -23 -20t-32 -4q-21 0 -21 12z" />
    <glyph glyph-name="uni013B" unicode="&#x13b;" horiz-adv-x="408" 
d="M59 7q-6 7 -4 23l69 650q2 22 40 22h14q38 0 36 -22l-64 -604h208q10 0 14.5 -7t2.5 -23l-2 -16q-3 -30 -23 -30h-271q-14 0 -20 7zM126 -231.5q-8 3.5 -8 10.5q0 9 12 35q12 25 20 48t11 55q2 14 12.5 23t29.5 9h10q15 0 23.5 -6.5t8.5 -17.5q0 -31 -16.5 -69
t-40.5 -64.5t-44 -26.5q-10 0 -18 3.5z" />
    <glyph glyph-name="uni013C" unicode="&#x13c;" horiz-adv-x="270" 
d="M91.5 15.5q-28.5 21.5 -28.5 77.5q0 14 1 22l65 615q2 22 42 22h4q40 0 38 -22l-65 -617q-1 -6 -1 -15q0 -20 8 -26t23 -6q12 0 22.5 2.5t15.5 2.5q6 0 6 -9q0 -10 -2.5 -24.5t-5.5 -20.5q-4 -10 -21 -16.5t-36 -6.5q-37 0 -65.5 21.5zM48 -231.5q-8 3.5 -8 10.5
q0 9 12 35q12 25 20 48t11 55q2 14 12.5 23t29.5 9h10q15 0 23.5 -6.5t8.5 -17.5q0 -31 -16.5 -69t-40.5 -64.5t-44 -26.5q-10 0 -18 3.5z" />
    <glyph glyph-name="Lcaron" unicode="&#x13d;" horiz-adv-x="408" 
d="M59 7q-6 7 -4 23l69 650q2 22 40 22h14q38 0 36 -22l-64 -604h208q10 0 14.5 -7t2.5 -23l-2 -16q-3 -30 -23 -30h-271q-14 0 -20 7zM325 531.5q-8 3.5 -8 11.5q0 12 3 28q9 50 9 99q0 15 9 23.5t27 8.5h8q16 0 26 -7.5t10 -20.5q0 -42 -11.5 -75.5t-27 -52t-27.5 -18.5
q-10 0 -18 3.5z" />
    <glyph glyph-name="lcaron" unicode="&#x13e;" horiz-adv-x="270" 
d="M91.5 15.5q-28.5 21.5 -28.5 77.5q0 14 1 22l65 615q2 22 42 22h4q40 0 38 -22l-65 -617q-1 -6 -1 -15q0 -20 8 -26t23 -6q12 0 22.5 2.5t15.5 2.5q6 0 6 -9q0 -10 -2.5 -24.5t-5.5 -20.5q-4 -10 -21 -16.5t-36 -6.5q-37 0 -65.5 21.5zM276 583.5q-8 3.5 -8 11.5
q0 12 3 28q9 50 9 99q0 15 9 23.5t27 8.5h8q16 0 26 -7.5t10 -20.5q0 -42 -11.5 -75.5t-27 -52t-27.5 -18.5q-10 0 -18 3.5z" />
    <glyph glyph-name="Ldot" unicode="&#x13f;" horiz-adv-x="408" 
d="M59 7q-6 7 -4 23l69 650q2 22 40 22h14q38 0 36 -22l-64 -604h208q10 0 14.5 -7t2.5 -23l-2 -16q-3 -30 -23 -30h-271q-14 0 -20 7zM294 297q-13 13 -13 34q0 24 14.5 40t38.5 16q20 0 33 -13t13 -34q0 -27 -15 -41.5t-38 -14.5q-20 0 -33 13z" />
    <glyph glyph-name="ldot" unicode="&#x140;" horiz-adv-x="270" 
d="M91.5 15.5q-28.5 21.5 -28.5 77.5q0 14 1 22l65 615q2 22 42 22h4q40 0 38 -22l-65 -617q-1 -6 -1 -15q0 -20 8 -26t23 -6q12 0 22.5 2.5t15.5 2.5q6 0 6 -9q0 -10 -2.5 -24.5t-5.5 -20.5q-4 -10 -21 -16.5t-36 -6.5q-37 0 -65.5 21.5zM238 330.5q-12 11.5 -12 30.5
q0 22 13.5 36.5t34.5 14.5q18 0 29.5 -12t11.5 -31q0 -24 -13.5 -37t-33.5 -13q-18 0 -30 11.5z" />
    <glyph glyph-name="Lslash" unicode="&#x141;" horiz-adv-x="408" 
d="M370.5 69q4.5 -7 2.5 -23l-2 -16q-3 -30 -23 -30h-271q-14 0 -20 7t-4 23l28 259l-53 -31q-8 -4 -10 -4q-4 0 -6.5 3.5t-2.5 10.5v6q0 19 19 30l58 34l36 342q2 22 40 22h14q38 0 36 -22l-30 -285l73 44q8 4 10 4q4 0 6.5 -3.5t2.5 -10.5v-6q0 -19 -19 -30l-78 -47
l-29 -270h208q10 0 14.5 -7z" />
    <glyph glyph-name="lslash" unicode="&#x142;" horiz-adv-x="270" 
d="M245 473q2 -3 1 -11l-1 -6q-2 -12 -5 -18t-14 -12l-48 -29l-30 -284q-1 -6 -1 -15q0 -20 8 -26t23 -6q12 0 22.5 2.5t15.5 2.5q6 0 6 -9q0 -10 -2.5 -24.5t-5.5 -20.5q-4 -10 -21 -16.5t-36 -6.5q-37 0 -65.5 21.5t-28.5 77.5q0 14 1 22l24 229l-27 -16q-8 -4 -10 -4
q-6 0 -8 3t-1 11l1 6q2 12 5 18t14 12l31 19l36 337q2 22 42 22h4q40 0 38 -22l-30 -284l44 26q8 4 10 4q6 0 8 -3z" />
    <glyph glyph-name="Nacute" unicode="&#x143;" horiz-adv-x="590" 
d="M48 20l69 660q2 22 40 22h24q15 0 24 -4.5t13 -15.5l183 -457q13 -35 20 -63l5 2q-2 12 -2 36q0 20 1 30l48 450q2 22 40 22h12q38 0 36 -22l-69 -660q-3 -22 -41 -22h-18q-28 0 -34 15l-191 472q-11 28 -19 63l-5 -2q2 -12 2 -36q0 -20 -1 -30l-49 -460q-2 -22 -41 -22
h-12q-38 0 -35 22zM288 762q0 5 4 11.5t5 8.5l38 59q9 13 21 18t37 5q40 0 40 -14q0 -10 -21 -31l-53 -54q-8 -8 -16.5 -10.5t-27.5 -2.5q-27 0 -27 10z" />
    <glyph glyph-name="nacute" unicode="&#x144;" horiz-adv-x="482" 
d="M451 62q0 -10 -2.5 -24.5t-5.5 -20.5q-4 -9 -21 -16t-36 -7q-31 0 -57 21.5t-26 75.5q0 14 1 22l25 252q1 7 1 20q0 71 -60 71q-26 0 -51.5 -19t-43.5 -51l-39 -366q-2 -22 -40 -22h-11q-37 0 -34 24l36 345q5 53 5 86q0 19 -1 30t0 16q1 12 23 17.5t37 5.5
q14 0 18.5 -13t4.5 -36q0 -16 -1 -23q26 37 61 58t72 21q54 0 83.5 -34t29.5 -94q0 -8 -2 -28l-28 -265l-1 -12q0 -30 25 -30q9 0 18 2.5t14 2.5q6 0 6 -9zM209 588q0 7 14 33l38 71q7 13 20 19.5t45 6.5q22 0 31.5 -3.5t9.5 -10.5q0 -5 -5 -12t-13 -16l-14 -16l-50 -60
q-13 -16 -23 -20t-32 -4q-21 0 -21 12z" />
    <glyph glyph-name="uni0145" unicode="&#x145;" horiz-adv-x="590" 
d="M48 20l69 660q2 22 40 22h24q15 0 24 -4.5t13 -15.5l183 -457q13 -35 20 -63l5 2q-2 12 -2 36q0 20 1 30l48 450q2 22 40 22h12q38 0 36 -22l-69 -660q-3 -22 -41 -22h-18q-28 0 -34 15l-191 472q-11 28 -19 63l-5 -2q2 -12 2 -36q0 -20 -1 -30l-49 -460q-2 -22 -41 -22
h-12q-38 0 -35 22zM178 -231.5q-8 3.5 -8 10.5q0 9 12 35q12 25 20 48t11 55q2 14 12.5 23t29.5 9h10q15 0 23.5 -6.5t8.5 -17.5q0 -31 -16.5 -69t-40.5 -64.5t-44 -26.5q-10 0 -18 3.5z" />
    <glyph glyph-name="uni0146" unicode="&#x146;" horiz-adv-x="482" 
d="M451 62q0 -10 -2.5 -24.5t-5.5 -20.5q-4 -9 -21 -16t-36 -7q-31 0 -57 21.5t-26 75.5q0 14 1 22l25 252q1 7 1 20q0 71 -60 71q-26 0 -51.5 -19t-43.5 -51l-39 -366q-2 -22 -40 -22h-11q-37 0 -34 24l36 345q5 53 5 86q0 19 -1 30t0 16q1 12 23 17.5t37 5.5
q14 0 18.5 -13t4.5 -36q0 -16 -1 -23q26 37 61 58t72 21q54 0 83.5 -34t29.5 -94q0 -8 -2 -28l-28 -265l-1 -12q0 -30 25 -30q9 0 18 2.5t14 2.5q6 0 6 -9zM137 -231.5q-8 3.5 -8 10.5q0 9 12 35q12 25 20 48t11 55q2 14 12.5 23t29.5 9h10q15 0 23.5 -6.5t8.5 -17.5
q0 -31 -16.5 -69t-40.5 -64.5t-44 -26.5q-10 0 -18 3.5z" />
    <glyph glyph-name="Ncaron" unicode="&#x147;" horiz-adv-x="590" 
d="M48 20l69 660q2 22 40 22h24q15 0 24 -4.5t13 -15.5l183 -457q13 -35 20 -63l5 2q-2 12 -2 36q0 20 1 30l48 450q2 22 40 22h12q38 0 36 -22l-69 -660q-3 -22 -41 -22h-18q-28 0 -34 15l-191 472q-11 28 -19 63l-5 -2q2 -12 2 -36q0 -20 -1 -30l-49 -460q-2 -22 -41 -22
h-12q-38 0 -35 22zM291 757q-12 5 -19 18l-23 47q-11 22 -11 30q0 12 23 12q19 0 28 -2.5t17 -10.5l42 -44l55 46q8 6 16.5 8.5t27.5 2.5q21 0 21 -10q0 -6 -19 -34l-31 -45q-9 -13 -22.5 -18t-40.5 -5h-26q-26 0 -38 5z" />
    <glyph glyph-name="ncaron" unicode="&#x148;" horiz-adv-x="482" 
d="M451 62q0 -10 -2.5 -24.5t-5.5 -20.5q-4 -9 -21 -16t-36 -7q-31 0 -57 21.5t-26 75.5q0 14 1 22l25 252q1 7 1 20q0 71 -60 71q-26 0 -51.5 -19t-43.5 -51l-39 -366q-2 -22 -40 -22h-11q-37 0 -34 24l36 345q5 53 5 86q0 19 -1 30t0 16q1 12 23 17.5t37 5.5
q14 0 18.5 -13t4.5 -36q0 -16 -1 -23q26 37 61 58t72 21q54 0 83.5 -34t29.5 -94q0 -8 -2 -28l-28 -265l-1 -12q0 -30 25 -30q9 0 18 2.5t14 2.5q6 0 6 -9zM217.5 582.5q-11.5 6.5 -15.5 19.5l-22 71q-8 26 -8 31q0 14 28 14q17 0 25 -5t16 -19l33 -56l44 56q11 14 19 19
t26 5q26 0 26 -12q0 -7 -14 -33l-38 -71q-7 -13 -19.5 -19.5t-34.5 -6.5h-31q-23 0 -34.5 6.5z" />
    <glyph glyph-name="napostrophe" unicode="&#x149;" horiz-adv-x="482" 
d="M64 540.5q-8 3.5 -8 10.5q0 9 12 35q12 25 20 48t11 55q2 14 12.5 23t29.5 9h10q15 0 23.5 -6.5t8.5 -17.5q0 -31 -16.5 -69t-40.5 -64.5t-44 -26.5q-10 0 -18 3.5zM451 62q0 -10 -2.5 -24.5t-5.5 -20.5q-4 -9 -21 -16t-36 -7q-31 0 -57 21.5t-26 75.5q0 14 1 22l25 252
q1 7 1 20q0 71 -60 71q-26 0 -51.5 -19t-43.5 -51l-39 -366q-2 -22 -40 -22h-11q-37 0 -34 24l36 345q5 53 5 86q0 19 -1 30t0 16q1 12 23 17.5t37 5.5q14 0 18.5 -13t4.5 -36q0 -16 -1 -23q26 37 61 58t72 21q54 0 83.5 -34t29.5 -94q0 -8 -2 -28l-28 -265l-1 -12
q0 -30 25 -30q9 0 18 2.5t14 2.5q6 0 6 -9z" />
    <glyph glyph-name="Eng" unicode="&#x14a;" horiz-adv-x="590" 
d="M292 -182q1 11 9 29t17 18q4 0 12 -2.5t24 -2.5q41 0 48 68l6 60l-200 497q-11 28 -19 63l-5 -2q2 -12 2 -36q0 -20 -1 -30l-49 -460q-2 -22 -41 -22h-12q-20 0 -28 6t-6 19l68 657q2 22 40 22h24q15 0 24 -4.5t13 -15.5l183 -457q8 -21 16 -63l5 2q0 44 3 66l48 450
q2 22 40 22h12q38 0 35 -25l-78 -757q-7 -73 -44 -102.5t-79 -29.5q-69 0 -67 30z" />
    <glyph glyph-name="eng" unicode="&#x14b;" horiz-adv-x="482" 
d="M182 -182q1 11 9 29t17 18q4 0 12 -2.5t24 -2.5q38 0 45 68l44 437q1 7 1 20q0 71 -60 71q-26 0 -51.5 -19t-43.5 -51l-39 -366q-2 -22 -40 -22h-11q-37 0 -34 24l36 345q5 53 5 86q0 19 -1 30t0 16q1 12 23 17.5t37 5.5q13 0 18.5 -14t5.5 -35q0 -9 -2 -23q26 37 61 58
t72 21q54 0 83.5 -34t29.5 -94q0 -8 -2 -28l-49 -453q-8 -74 -44.5 -103t-78.5 -29q-69 0 -67 30z" />
    <glyph glyph-name="Omacron" unicode="&#x14c;" horiz-adv-x="599" 
d="M111.5 79q-56.5 85 -56.5 232q0 106 29.5 195.5t92 144.5t158.5 55q106 0 167.5 -74.5t61.5 -235.5q0 -105 -28 -196t-90.5 -148.5t-159.5 -57.5q-118 0 -174.5 85zM431 169.5q42 99.5 42 228.5q0 232 -141 232q-97 0 -140.5 -95t-43.5 -227q0 -238 142 -238
q99 0 141 99.5zM228 781q-4 7 -2 23l1 10q3 30 22 30h199q10 0 14 -7t2 -23l-1 -10q-3 -30 -22 -30h-199q-10 0 -14 7z" />
    <glyph glyph-name="omacron" unicode="&#x14d;" horiz-adv-x="477" 
d="M90.5 50q-46.5 56 -46.5 166q0 133 52 223t158 90q87 0 133 -57.5t46 -169.5q0 -133 -50.5 -220.5t-157.5 -87.5q-88 0 -134.5 56zM320.5 136q25.5 70 25.5 170q0 151 -98 151q-65 0 -90.5 -71t-25.5 -171q0 -149 98 -149q65 0 90.5 70zM143 642l1 10q3 30 22 30h199
q11 0 14.5 -7t1.5 -23l-1 -10q-3 -30 -22 -30h-199q-19 0 -16 30z" />
    <glyph glyph-name="Obreve" unicode="&#x14e;" horiz-adv-x="599" 
d="M111.5 79q-56.5 85 -56.5 232q0 106 29.5 195.5t92 144.5t158.5 55q106 0 167.5 -74.5t61.5 -235.5q0 -105 -28 -196t-90.5 -148.5t-159.5 -57.5q-118 0 -174.5 85zM431 169.5q42 99.5 42 228.5q0 232 -141 232q-97 0 -140.5 -95t-43.5 -227q0 -238 142 -238
q99 0 141 99.5zM257 771q-31 27 -31 73q0 17 4 23.5t16 6.5q8 0 11 -4t4.5 -8t1.5 -5q15 -47 85 -47q33 0 52.5 12t32.5 36q4 9 7.5 12.5t12.5 3.5q17 0 17 -13q0 -32 -17 -58.5t-46.5 -42.5t-65.5 -16q-53 0 -84 27z" />
    <glyph glyph-name="obreve" unicode="&#x14f;" horiz-adv-x="477" 
d="M90.5 50q-46.5 56 -46.5 166q0 133 52 223t158 90q87 0 133 -57.5t46 -169.5q0 -133 -50.5 -220.5t-157.5 -87.5q-88 0 -134.5 56zM320.5 136q25.5 70 25.5 170q0 151 -98 151q-65 0 -90.5 -71t-25.5 -171q0 -149 98 -149q65 0 90.5 70zM182 610q-27 27 -27 74
q0 16 4 22.5t15 6.5q9 0 12.5 -3.5t4.5 -8t1 -5.5q11 -47 70 -47q31 0 52 12.5t30 35.5q0 1 3 8.5t17 7.5q15 0 15 -16q0 -18 -12 -45t-39.5 -48t-71.5 -21q-47 0 -74 27z" />
    <glyph glyph-name="Ohungarumlaut" unicode="&#x150;" horiz-adv-x="599" 
d="M111.5 79q-56.5 85 -56.5 232q0 106 29.5 195.5t92 144.5t158.5 55q106 0 167.5 -74.5t61.5 -235.5q0 -105 -28 -196t-90.5 -148.5t-159.5 -57.5q-118 0 -174.5 85zM431 169.5q42 99.5 42 228.5q0 232 -141 232q-97 0 -140.5 -95t-43.5 -227q0 -238 142 -238
q99 0 141 99.5zM213 762q0 5 4 11.5t5 8.5l38 59q9 13 21 18t37 5q40 0 40 -14q0 -10 -21 -31l-53 -54q-8 -8 -16.5 -10.5t-27.5 -2.5q-27 0 -27 10zM342 761q0 5 4 11.5t5 8.5l38 59q9 13 21 18t37 5q40 0 40 -14q0 -10 -21 -31l-53 -54q-8 -8 -16.5 -10.5t-27.5 -2.5
q-27 0 -27 10z" />
    <glyph glyph-name="ohungarumlaut" unicode="&#x151;" horiz-adv-x="477" 
d="M90.5 50q-46.5 56 -46.5 166q0 133 52 223t158 90q87 0 133 -57.5t46 -169.5q0 -133 -50.5 -220.5t-157.5 -87.5q-88 0 -134.5 56zM320.5 136q25.5 70 25.5 170q0 151 -98 151q-65 0 -90.5 -71t-25.5 -171q0 -149 98 -149q65 0 90.5 70zM126 588q0 7 14 33l38 71
q7 13 20 19.5t45 6.5q22 0 31.5 -3.5t9.5 -10.5q0 -5 -5 -12t-13 -16l-14 -16l-50 -60q-13 -16 -23 -20t-32 -4q-21 0 -21 12zM258 588q0 7 14 33l38 71q7 13 20 19.5t45 6.5q22 0 31.5 -3.5t9.5 -10.5q0 -5 -5 -12t-13 -16l-14 -16l-50 -60q-13 -16 -23 -20t-32 -4
q-21 0 -21 12z" />
    <glyph glyph-name="OE" unicode="&#x152;" horiz-adv-x="831" 
d="M828 670l-2 -16q-3 -30 -22 -30h-225l-24 -228h202q19 0 16 -30l-2 -16q-3 -30 -22 -30h-202l-26 -244h225q10 0 14 -7t2 -23l-2 -16q-2 -16 -7 -23t-15 -7h-288q-14 0 -20 7t-4 23l3 31q-32 -32 -68.5 -49.5t-74.5 -17.5q-118 0 -174.5 84.5t-56.5 232.5
q0 106 29.5 195.5t92.5 144.5t158 55q104 0 156 -69l3 33q2 16 9 23t21 7h288q19 0 16 -30zM429 172.5q44 102.5 44 259.5q0 103 -38 150.5t-103 47.5q-97 0 -140.5 -94.5t-43.5 -227.5q0 -238 142 -238q95 0 139 102.5z" />
    <glyph glyph-name="oe" unicode="&#x153;" horiz-adv-x="721" 
d="M662 94q0 -15 -3.5 -29.5t-11.5 -22.5q-21 -23 -60.5 -35.5t-70.5 -12.5q-106 0 -152 62q-53 -62 -139 -62q-88 0 -134.5 56t-46.5 166q0 133 52 223t158 90q101 0 146 -77q63 77 165 77q50 0 81.5 -21.5t45 -52t13.5 -59.5q0 -89 -62 -136t-162 -47q-33 0 -67 6v-9
q-2 -79 26 -111.5t83 -32.5q33 0 56.5 10t51.5 27q17 12 23 12q8 0 8 -21zM329 160q-2 20 -2 34q0 78 18 144q-10 119 -97 119q-65 0 -90.5 -71t-25.5 -171q0 -149 98 -149q69 0 99 94zM461.5 410q-32.5 -47 -42.5 -125h53q61 0 104 24.5t43 79.5q0 29 -17 48.5t-46 19.5
q-62 0 -94.5 -47z" />
    <glyph glyph-name="Racute" unicode="&#x154;" horiz-adv-x="513" 
d="M55 20l69 650q2 16 9 23t21 7h144q90 0 136.5 -45.5t46.5 -133.5q0 -66 -30 -114t-82 -63l-1 -4q20 -9 32 -36.5t24 -78.5l42 -197l2 -14q0 -16 -41 -16h-17q-14 0 -24 4.5t-11 11.5l-48 236q-7 32 -22 45t-46 13h-83l-31 -288q-3 -22 -40 -22h-14q-38 0 -36 22zM284 384
q52 0 78.5 34.5t26.5 100.5q0 55 -24.5 80t-78.5 25h-78l-25 -240h101zM250 762q0 5 4 11.5t5 8.5l38 59q9 13 21 18t37 5q40 0 40 -14q0 -10 -21 -31l-53 -54q-8 -8 -16.5 -10.5t-27.5 -2.5q-27 0 -27 10z" />
    <glyph glyph-name="racute" unicode="&#x155;" horiz-adv-x="337" 
d="M58 20l38 353q4 40 4 73q0 25 -1.5 38t-1.5 15q0 12 19.5 17.5t36.5 5.5q14 0 19 -15.5t6.5 -31.5t2.5 -21q56 75 113 75q24 0 36 -9.5t12 -25.5q0 -15 -8.5 -36.5t-17.5 -21.5q-5 0 -17.5 5.5t-30.5 5.5q-26 0 -52 -22t-35 -39l-39 -366q-2 -22 -42 -22h-4q-40 0 -38 22
zM162 585q0 7 14 33l38 71q7 13 20 19.5t45 6.5q22 0 31.5 -3.5t9.5 -10.5q0 -5 -5 -12t-13 -16l-14 -16l-50 -60q-13 -16 -23 -20t-32 -4q-21 0 -21 12z" />
    <glyph glyph-name="uni0156" unicode="&#x156;" horiz-adv-x="513" 
d="M55 20l69 650q2 16 9 23t21 7h144q90 0 136.5 -45.5t46.5 -133.5q0 -66 -30 -114t-82 -63l-1 -4q20 -9 32 -36.5t24 -78.5l42 -197l2 -14q0 -16 -41 -16h-17q-14 0 -24 4.5t-11 11.5l-48 236q-7 32 -22 45t-46 13h-83l-31 -288q-3 -22 -40 -22h-14q-38 0 -36 22zM284 384
q52 0 78.5 34.5t26.5 100.5q0 55 -24.5 80t-78.5 25h-78l-25 -240h101zM171 -231.5q-8 3.5 -8 10.5q0 9 12 35q12 25 20 48t11 55q2 14 12.5 23t29.5 9h10q15 0 23.5 -6.5t8.5 -17.5q0 -31 -16.5 -69t-40.5 -64.5t-44 -26.5q-10 0 -18 3.5z" />
    <glyph glyph-name="uni0157" unicode="&#x157;" horiz-adv-x="337" 
d="M58 20l38 353q4 40 4 73q0 25 -1.5 38t-1.5 15q0 12 19.5 17.5t36.5 5.5q14 0 19 -15.5t6.5 -31.5t2.5 -21q56 75 113 75q24 0 36 -9.5t12 -25.5q0 -15 -8.5 -36.5t-17.5 -21.5q-5 0 -17.5 5.5t-30.5 5.5q-26 0 -52 -22t-35 -39l-39 -366q-2 -22 -42 -22h-4q-40 0 -38 22
zM11 -233.5q-8 3.5 -8 10.5q0 9 12 35q12 25 20 48t11 55q2 14 12.5 23t29.5 9h10q15 0 23.5 -6.5t8.5 -17.5q0 -31 -16.5 -69t-40.5 -64.5t-44 -26.5q-10 0 -18 3.5z" />
    <glyph glyph-name="Rcaron" unicode="&#x158;" horiz-adv-x="513" 
d="M55 20l69 650q2 16 9 23t21 7h144q90 0 136.5 -45.5t46.5 -133.5q0 -66 -30 -114t-82 -63l-1 -4q20 -9 32 -36.5t24 -78.5l42 -197l2 -14q0 -16 -41 -16h-17q-14 0 -24 4.5t-11 11.5l-48 236q-7 32 -22 45t-46 13h-83l-31 -288q-3 -22 -40 -22h-14q-38 0 -36 22zM284 384
q52 0 78.5 34.5t26.5 100.5q0 55 -24.5 80t-78.5 25h-78l-25 -240h101zM253 757q-12 5 -19 18l-23 47q-11 22 -11 30q0 12 23 12q19 0 28 -2.5t17 -10.5l42 -44l55 46q8 6 16.5 8.5t27.5 2.5q21 0 21 -10q0 -6 -19 -34l-31 -45q-9 -13 -22.5 -18t-40.5 -5h-26q-26 0 -38 5z
" />
    <glyph glyph-name="rcaron" unicode="&#x159;" horiz-adv-x="337" 
d="M58 20l38 353q4 40 4 73q0 25 -1.5 38t-1.5 15q0 12 19.5 17.5t36.5 5.5q14 0 19 -15.5t6.5 -31.5t2.5 -21q56 75 113 75q24 0 36 -9.5t12 -25.5q0 -15 -8.5 -36.5t-17.5 -21.5q-5 0 -17.5 5.5t-30.5 5.5q-26 0 -52 -22t-35 -39l-39 -366q-2 -22 -42 -22h-4q-40 0 -38 22
zM170.5 579.5q-11.5 6.5 -15.5 19.5l-22 71q-8 26 -8 31q0 14 28 14q17 0 25 -5t16 -19l33 -56l44 56q11 14 19 19t26 5q26 0 26 -12q0 -7 -14 -33l-38 -71q-7 -13 -19.5 -19.5t-34.5 -6.5h-31q-23 0 -34.5 6.5z" />
    <glyph glyph-name="Sacute" unicode="&#x15a;" horiz-adv-x="437" 
d="M102 6.5q-42 11.5 -70 29.5q-11 8 -15.5 14.5t-4.5 18.5q0 16 6 29t15 13q6 0 17 -5t14 -6q66 -27 112 -27q58 0 94 28.5t36 86.5q0 42 -23 70.5t-66 53.5q-69 41 -109.5 86t-40.5 111q0 60 25 105.5t70.5 71t106.5 25.5q41 0 83 -8t65 -22q6 -4 6 -11q0 -12 -10.5 -37.5
t-18.5 -25.5q-3 0 -7.5 2t-6.5 3q-49 22 -98 22q-51 0 -89.5 -25t-38.5 -84q0 -41 26 -71.5t77 -59.5q64 -36 101 -79t37 -108q0 -99 -55.5 -155.5t-155.5 -56.5q-40 0 -82 11.5zM229 762q0 5 4 11.5t5 8.5l38 59q9 13 21 18t37 5q40 0 40 -14q0 -10 -21 -31l-53 -54
q-8 -8 -16.5 -10.5t-27.5 -2.5q-27 0 -27 10z" />
    <glyph glyph-name="sacute" unicode="&#x15b;" horiz-adv-x="353" 
d="M71.5 1q-29.5 10 -47 24.5t-17.5 26.5q0 8 13.5 27t21.5 19q3 0 19.5 -9.5t35 -16.5t43.5 -7q41 0 63 22t22 56q0 32 -18 51t-57 44q-43 28 -69.5 61.5t-26.5 81.5q0 69 46.5 109t118.5 40q39 0 72 -13t32 -30q-1 -11 -13 -29t-22 -18q-4 0 -25.5 9t-47.5 9
q-40 0 -59 -18t-19 -47t17 -47t49 -39q48 -30 76 -63t28 -90q0 -76 -46.5 -119.5t-123.5 -43.5q-36 0 -65.5 10zM156 588q0 7 14 33l38 71q7 13 20 19.5t45 6.5q22 0 31.5 -3.5t9.5 -10.5q0 -5 -5 -12t-13 -16l-14 -16l-50 -60q-13 -16 -23 -20t-32 -4q-21 0 -21 12z" />
    <glyph glyph-name="Scircumflex" unicode="&#x15c;" horiz-adv-x="437" 
d="M102 6.5q-42 11.5 -70 29.5q-11 8 -15.5 14.5t-4.5 18.5q0 16 6 29t15 13q6 0 17 -5t14 -6q66 -27 112 -27q58 0 94 28.5t36 86.5q0 42 -23 70.5t-66 53.5q-69 41 -109.5 86t-40.5 111q0 60 25 105.5t70.5 71t106.5 25.5q41 0 83 -8t65 -22q6 -4 6 -11q0 -12 -10.5 -37.5
t-18.5 -25.5q-3 0 -7.5 2t-6.5 3q-49 22 -98 22q-51 0 -89.5 -25t-38.5 -84q0 -41 26 -71.5t77 -59.5q64 -36 101 -79t37 -108q0 -99 -55.5 -155.5t-155.5 -56.5q-40 0 -82 11.5zM168 752q0 8 17 32l33 47q10 14 22.5 18.5t40.5 4.5h26q24 0 37 -4t20 -19l22 -45
q12 -24 12 -32q0 -12 -29 -12q-17 0 -24 3t-12 8l-45 46l-52 -44q-7 -6 -15.5 -9.5t-26.5 -3.5q-26 0 -26 10z" />
    <glyph glyph-name="scircumflex" unicode="&#x15d;" horiz-adv-x="353" 
d="M71.5 1q-29.5 10 -47 24.5t-17.5 26.5q0 8 13.5 27t21.5 19q3 0 19.5 -9.5t35 -16.5t43.5 -7q41 0 63 22t22 56q0 32 -18 51t-57 44q-43 28 -69.5 61.5t-26.5 81.5q0 69 46.5 109t118.5 40q39 0 72 -13t32 -30q-1 -11 -13 -29t-22 -18q-4 0 -25.5 9t-47.5 9
q-40 0 -59 -18t-19 -47t17 -47t49 -39q48 -30 76 -63t28 -90q0 -76 -46.5 -119.5t-123.5 -43.5q-36 0 -65.5 10zM106 588q0 7 14 33l38 71q7 13 19.5 19.5t35.5 6.5h31q23 0 34 -6.5t15 -19.5l22 -71q8 -26 8 -31q0 -14 -28 -14q-19 0 -26 5t-15 19l-32 56l-45 -56
q-11 -14 -19.5 -19t-24.5 -5q-27 0 -27 12z" />
    <glyph glyph-name="Scedilla" unicode="&#x15e;" horiz-adv-x="437" 
d="M192.5 609q-38.5 -25 -38.5 -84q0 -41 26 -71.5t77 -59.5q64 -36 101 -79t37 -108q0 -96 -52 -152t-147 -60l-21 -51q62 -12 62 -64q0 -41 -28 -65.5t-76 -24.5q-35 0 -63 9.5t-28 27.5q0 9 5.5 16.5t15.5 7.5q8 0 23 -5q27 -9 47 -9t32.5 10.5t12.5 28.5q0 13 -7.5 18
t-23.5 12q-12 4 -17 7t-5 10t28 74q-34 4 -66.5 14.5t-54.5 24.5q-11 8 -15.5 14.5t-4.5 18.5q0 16 6 29t15 13q6 0 17 -5t14 -6q66 -27 112 -27q58 0 94 28.5t36 86.5q0 42 -23 70.5t-66 53.5q-69 41 -109.5 86t-40.5 111q0 60 25 105.5t70.5 71t106.5 25.5q41 0 83 -8
t65 -22q6 -4 6 -11q0 -12 -10.5 -37.5t-18.5 -25.5q-3 0 -7.5 2t-6.5 3q-49 22 -98 22q-51 0 -89.5 -25z" />
    <glyph glyph-name="scedilla" unicode="&#x15f;" horiz-adv-x="353" 
d="M156 440q-19 -18 -19 -47t17 -47t49 -39q48 -30 76 -63t28 -90q0 -72 -42 -115t-113 -48l-20 -47q62 -12 62 -64q0 -41 -28 -65.5t-76 -24.5q-35 0 -63 9.5t-28 27.5q0 9 5.5 16.5t15.5 7.5q8 0 23 -5q27 -9 47 -9t32.5 10.5t12.5 28.5q0 13 -7.5 18t-23.5 12
q-12 4 -17 7t-5 10q0 9 26 70q-42 6 -71.5 24.5t-29.5 34.5q0 8 13.5 27t21.5 19q3 0 19.5 -9.5t35 -16.5t43.5 -7q41 0 63 22t22 56q0 32 -18 51t-57 44q-43 28 -69.5 61.5t-26.5 81.5q0 69 46.5 109t118.5 40q39 0 72 -13t32 -30q-1 -11 -13 -29t-22 -18q-4 0 -25.5 9
t-47.5 9q-40 0 -59 -18z" />
    <glyph glyph-name="Scaron" unicode="&#x160;" horiz-adv-x="437" 
d="M102 6.5q-42 11.5 -70 29.5q-11 8 -15.5 14.5t-4.5 18.5q0 16 6 29t15 13q6 0 17 -5t14 -6q66 -27 112 -27q58 0 94 28.5t36 86.5q0 42 -23 70.5t-66 53.5q-69 41 -109.5 86t-40.5 111q0 60 25 105.5t70.5 71t106.5 25.5q41 0 83 -8t65 -22q6 -4 6 -11q0 -12 -10.5 -37.5
t-18.5 -25.5q-3 0 -7.5 2t-6.5 3q-49 22 -98 22q-51 0 -89.5 -25t-38.5 -84q0 -41 26 -71.5t77 -59.5q64 -36 101 -79t37 -108q0 -99 -55.5 -155.5t-155.5 -56.5q-40 0 -82 11.5zM232 757q-12 5 -19 18l-23 47q-11 22 -11 30q0 12 23 12q19 0 28 -2.5t17 -10.5l42 -44l55 46
q8 6 16.5 8.5t27.5 2.5q21 0 21 -10q0 -6 -19 -34l-31 -45q-9 -13 -22.5 -18t-40.5 -5h-26q-26 0 -38 5z" />
    <glyph glyph-name="scaron" unicode="&#x161;" horiz-adv-x="353" 
d="M71.5 1q-29.5 10 -47 24.5t-17.5 26.5q0 8 13.5 27t21.5 19q3 0 19.5 -9.5t35 -16.5t43.5 -7q41 0 63 22t22 56q0 32 -18 51t-57 44q-43 28 -69.5 61.5t-26.5 81.5q0 69 46.5 109t118.5 40q39 0 72 -13t32 -30q-1 -11 -13 -29t-22 -18q-4 0 -25.5 9t-47.5 9
q-40 0 -59 -18t-19 -47t17 -47t49 -39q48 -30 76 -63t28 -90q0 -76 -46.5 -119.5t-123.5 -43.5q-36 0 -65.5 10zM164.5 582.5q-11.5 6.5 -15.5 19.5l-22 71q-8 26 -8 31q0 14 28 14q17 0 25 -5t16 -19l33 -56l44 56q11 14 19 19t26 5q26 0 26 -12q0 -7 -14 -33l-38 -71
q-7 -13 -19.5 -19.5t-34.5 -6.5h-31q-23 0 -34.5 6.5z" />
    <glyph glyph-name="uni0162" unicode="&#x162;" horiz-adv-x="454" 
d="M479 680q0 -6 -1 -10l-2 -16q-2 -16 -7.5 -23t-15.5 -7h-142l-64 -604q-2 -22 -40 -22h-8l-22 -54q62 -12 62 -64q0 -41 -28 -65.5t-76 -24.5q-35 0 -63 9.5t-28 27.5q0 9 5.5 16.5t15.5 7.5q8 0 23 -5q27 -9 47 -9t32.5 10.5t12.5 28.5q0 13 -7.5 18t-23.5 12
q-12 4 -17 7t-5 10q0 8 29 77h18q-19 4 -17 20l64 604h-144q-17 0 -17 20q0 6 1 10l2 16q2 16 7 23t15 7h376q18 0 18 -20z" />
    <glyph glyph-name="uni0163" unicode="&#x163;" horiz-adv-x="298" 
d="M278 516q5 -7 3 -23l-1 -12q-3 -30 -23 -30h-63l-33 -323q-1 -6 -1 -17q0 -27 11 -36t32 -9q16 0 27 2.5t15 2.5q6 0 6 -9q0 -25 -6 -39q-5 -14 -21.5 -21.5t-37.5 -7.5t-37 4l-22 -54q62 -12 62 -64q0 -41 -28 -65.5t-76 -24.5q-35 0 -63 9.5t-28 27.5q0 9 5.5 16.5
t15.5 7.5q8 0 23 -5q27 -9 47 -9t32.5 10.5t12.5 28.5q0 13 -7.5 18t-23.5 12q-12 4 -17 7t-5 10q0 8 29 77h36q-65 19 -65 102q0 16 1 24l32 325h-39q-10 0 -14 6.5t-3 20.5l1 15q1 30 24 30h40l21 105q4 22 30 22h19q26 0 23 -27l-11 -100h60q12 0 17 -7z" />
    <glyph glyph-name="Tcaron" unicode="&#x164;" horiz-adv-x="454" 
d="M157 20l64 604h-144q-17 0 -17 20q0 6 1 10l2 16q2 16 7 23t15 7h376q18 0 18 -20q0 -6 -1 -10l-2 -16q-2 -16 -7.5 -23t-15.5 -7h-142l-64 -604q-2 -22 -40 -22h-14q-38 0 -36 22zM226 757q-12 5 -19 18l-23 47q-11 22 -11 30q0 12 23 12q19 0 28 -2.5t17 -10.5l42 -44
l55 46q8 6 16.5 8.5t27.5 2.5q21 0 21 -10q0 -6 -19 -34l-31 -45q-9 -13 -22.5 -18t-40.5 -5h-26q-26 0 -38 5z" />
    <glyph glyph-name="tcaron" unicode="&#x165;" horiz-adv-x="298" 
d="M108 18q-31 24 -31 84q0 15 1 24l32 325h-39q-10 0 -14 6.5t-3 20.5l1 15q1 30 24 30h40l21 105q4 22 30 22h19q26 0 23 -27l-11 -100h60q12 0 17 -7t3 -23l-1 -12q-3 -30 -23 -30h-63l-33 -323q-1 -6 -1 -17q0 -27 11 -36t32 -9q16 0 27 2.5t15 2.5q6 0 6 -9
q0 -25 -6 -39q-5 -14 -21.5 -21.5t-37.5 -7.5q-47 0 -78 24zM283 581.5q-8 3.5 -8 11.5q0 12 3 28q9 50 9 99q0 15 9 23.5t27 8.5h8q16 0 26 -7.5t10 -20.5q0 -42 -11.5 -75.5t-27 -52t-27.5 -18.5q-10 0 -18 3.5z" />
    <glyph glyph-name="Tbar" unicode="&#x166;" horiz-adv-x="454" 
d="M479 680q0 -6 -1 -10l-2 -16q-2 -16 -7.5 -23t-15.5 -7h-142l-25 -238h106q10 0 14.5 -7t2.5 -23l-1 -11q-3 -30 -23 -30h-107l-31 -295q-2 -22 -40 -22h-14q-38 0 -36 22l31 295h-111q-19 0 -16 30l1 11q3 30 22 30h112l25 238h-144q-17 0 -17 20q0 6 1 10l2 16
q2 16 7 23t15 7h376q18 0 18 -20z" />
    <glyph glyph-name="tbar" unicode="&#x167;" horiz-adv-x="298" 
d="M278 516q5 -7 3 -23l-1 -12q-3 -30 -23 -30h-63l-15 -146h59q11 0 14.5 -7t1.5 -23l-1 -10q-3 -30 -22 -30h-59l-11 -107q-1 -6 -1 -17q0 -27 11 -36t32 -9q16 0 27 2.5t15 2.5q6 0 6 -9q0 -25 -6 -39q-5 -14 -21.5 -21.5t-37.5 -7.5q-47 0 -78 24t-31 84q0 15 1 24
l11 109h-42q-19 0 -16 30l1 10q3 30 22 30h42l14 146h-39q-10 0 -14 6.5t-3 20.5l1 15q1 30 24 30h40l21 105q4 22 30 22h19q26 0 23 -27l-11 -100h60q12 0 17 -7z" />
    <glyph glyph-name="Utilde" unicode="&#x168;" horiz-adv-x="583" 
d="M112.5 39.5q-52.5 45.5 -52.5 127.5q0 18 1 28l51 485q2 22 40 22h14q38 0 36 -22l-51 -488q-1 -5 -1 -15q0 -48 33.5 -77.5t88.5 -29.5q65 0 102 30.5t44 91.5l51 488q2 22 40 22h14q38 0 36 -22l-51 -485q-10 -95 -73.5 -148t-170.5 -53q-99 0 -151.5 45.5zM371 765.5
q-16 5.5 -39 16.5q-3 1 -13 6t-19 7.5t-16 2.5q-21 0 -38 -24q-2 -2 -7.5 -8t-11.5 -6q-7 0 -18 6t-11 12q0 5 5 15q33 67 90 67q21 0 36 -5.5t35 -15.5q3 -1 13 -6t19 -7.5t18 -2.5q13 0 22.5 6.5t19.5 17.5q13 15 21 15q5 0 16.5 -7t11.5 -12t-6 -17q-33 -66 -92 -66
q-20 0 -36 5.5z" />
    <glyph glyph-name="utilde" unicode="&#x169;" horiz-adv-x="482" 
d="M449 62q-1 -9 -3.5 -25.5t-4.5 -19.5q-4 -10 -21 -16.5t-36 -6.5q-29 0 -52.5 17.5t-29.5 55.5q-26 -35 -61.5 -54.5t-72.5 -19.5q-56 0 -86 32t-30 89q0 16 1 24l39 364q3 22 40 22h10q38 0 36 -22l-37 -351q-1 -6 -1 -17q0 -68 63 -68q28 0 54.5 19t45.5 51l39 366
q2 22 40 22h10q38 0 36 -22l-41 -394l-1 -12q0 -30 25 -30q9 0 18 2.5t14 2.5q6 0 6 -9zM133.5 603.5q-11.5 5.5 -11.5 11.5q0 5 5 17q12 28 36 46t51 18q26 0 70 -20q19 -9 31.5 -13t23.5 -4q13 0 21.5 6t18.5 17q1 1 5 6t7.5 7t7.5 2q6 0 17 -6.5t11 -11.5q0 -7 -5 -19
q-28 -60 -88 -60q-16 0 -32.5 5t-38.5 15q-38 17 -55 17q-13 0 -21 -6.5t-18 -18.5q-1 -1 -6.5 -7.5t-11.5 -6.5t-17.5 5.5z" />
    <glyph glyph-name="Umacron" unicode="&#x16a;" horiz-adv-x="583" 
d="M112.5 39.5q-52.5 45.5 -52.5 127.5q0 18 1 28l51 485q2 22 40 22h14q38 0 36 -22l-51 -488q-1 -5 -1 -15q0 -48 33.5 -77.5t88.5 -29.5q65 0 102 30.5t44 91.5l51 488q2 22 40 22h14q38 0 36 -22l-51 -485q-10 -95 -73.5 -148t-170.5 -53q-99 0 -151.5 45.5zM234 783
q-4 7 -2 23l1 10q3 30 22 30h199q10 0 14 -7t2 -23l-1 -10q-3 -30 -22 -30h-199q-10 0 -14 7z" />
    <glyph glyph-name="umacron" unicode="&#x16b;" horiz-adv-x="482" 
d="M449 62q-1 -9 -3.5 -25.5t-4.5 -19.5q-4 -10 -21 -16.5t-36 -6.5q-29 0 -52.5 17.5t-29.5 55.5q-26 -35 -61.5 -54.5t-72.5 -19.5q-56 0 -86 32t-30 89q0 16 1 24l39 364q3 22 40 22h10q38 0 36 -22l-37 -351q-1 -6 -1 -17q0 -68 63 -68q28 0 54.5 19t45.5 51l39 366
q2 22 40 22h10q38 0 36 -22l-41 -394l-1 -12q0 -30 25 -30q9 0 18 2.5t14 2.5q6 0 6 -9zM156 642l1 10q3 30 22 30h199q11 0 14.5 -7t1.5 -23l-1 -10q-3 -30 -22 -30h-199q-19 0 -16 30z" />
    <glyph glyph-name="Ubreve" unicode="&#x16c;" horiz-adv-x="583" 
d="M112.5 39.5q-52.5 45.5 -52.5 127.5q0 18 1 28l51 485q2 22 40 22h14q38 0 36 -22l-51 -488q-1 -5 -1 -15q0 -48 33.5 -77.5t88.5 -29.5q65 0 102 30.5t44 91.5l51 488q2 22 40 22h14q38 0 36 -22l-51 -485q-10 -95 -73.5 -148t-170.5 -53q-99 0 -151.5 45.5zM263 773
q-31 27 -31 73q0 17 4 23.5t16 6.5q8 0 11 -4t4.5 -8t1.5 -5q15 -47 85 -47q33 0 52.5 12t32.5 36q4 9 7.5 12.5t12.5 3.5q17 0 17 -13q0 -32 -17 -58.5t-46.5 -42.5t-65.5 -16q-53 0 -84 27z" />
    <glyph glyph-name="ubreve" unicode="&#x16d;" horiz-adv-x="482" 
d="M449 62q-1 -9 -3.5 -25.5t-4.5 -19.5q-4 -10 -21 -16.5t-36 -6.5q-29 0 -52.5 17.5t-29.5 55.5q-26 -35 -61.5 -54.5t-72.5 -19.5q-56 0 -86 32t-30 89q0 16 1 24l39 364q3 22 40 22h10q38 0 36 -22l-37 -351q-1 -6 -1 -17q0 -68 63 -68q28 0 54.5 19t45.5 51l39 366
q2 22 40 22h10q38 0 36 -22l-41 -394l-1 -12q0 -30 25 -30q9 0 18 2.5t14 2.5q6 0 6 -9zM195 610q-27 27 -27 74q0 16 4 22.5t15 6.5q9 0 12.5 -3.5t4.5 -8t1 -5.5q11 -47 70 -47q31 0 52 12.5t30 35.5q0 1 3 8.5t17 7.5q15 0 15 -16q0 -18 -12 -45t-39.5 -48t-71.5 -21
q-47 0 -74 27z" />
    <glyph glyph-name="Uring" unicode="&#x16e;" horiz-adv-x="583" 
d="M112.5 39.5q-52.5 45.5 -52.5 127.5q0 18 1 28l51 485q2 22 40 22h14q38 0 36 -22l-51 -488q-1 -5 -1 -15q0 -48 33.5 -77.5t88.5 -29.5q65 0 102 30.5t44 91.5l51 488q2 22 40 22h14q38 0 36 -22l-51 -485q-10 -95 -73.5 -148t-170.5 -53q-99 0 -151.5 45.5zM291 770.5
q-22 21.5 -22 53.5q0 39 26.5 66.5t65.5 27.5q34 0 56 -22t22 -54q0 -39 -26.5 -66t-66.5 -27q-33 0 -55 21.5zM379.5 807q12.5 13 12.5 31q0 15 -9.5 25t-24.5 10q-17 0 -29.5 -13t-12.5 -31q0 -15 9.5 -25t23.5 -10q18 0 30.5 13z" />
    <glyph glyph-name="uring" unicode="&#x16f;" horiz-adv-x="482" 
d="M449 62q-1 -9 -3.5 -25.5t-4.5 -19.5q-4 -10 -21 -16.5t-36 -6.5q-29 0 -52.5 17.5t-29.5 55.5q-26 -35 -61.5 -54.5t-72.5 -19.5q-56 0 -86 32t-30 89q0 16 1 24l39 364q3 22 40 22h10q38 0 36 -22l-37 -351q-1 -6 -1 -17q0 -68 63 -68q28 0 54.5 19t45.5 51l39 366
q2 22 40 22h10q38 0 36 -22l-41 -394l-1 -12q0 -30 25 -30q9 0 18 2.5t14 2.5q6 0 6 -9zM213.5 590q-19.5 20 -19.5 55q0 41 25 67.5t65 26.5q34 0 54 -20t20 -56q0 -40 -25 -66.5t-65 -26.5q-35 0 -54.5 20zM298.5 629q10.5 12 10.5 32q0 15 -8 24t-21 9q-16 0 -26.5 -13
t-10.5 -32q0 -15 8 -23.5t21 -8.5q16 0 26.5 12z" />
    <glyph glyph-name="Uhungarumlaut" unicode="&#x170;" horiz-adv-x="583" 
d="M112.5 39.5q-52.5 45.5 -52.5 127.5q0 18 1 28l51 485q2 22 40 22h14q38 0 36 -22l-51 -488q-1 -5 -1 -15q0 -48 33.5 -77.5t88.5 -29.5q65 0 102 30.5t44 91.5l51 488q2 22 40 22h14q38 0 36 -22l-51 -485q-10 -95 -73.5 -148t-170.5 -53q-99 0 -151.5 45.5zM219 764
q0 5 4 11.5t5 8.5l38 59q9 13 21 18t37 5q40 0 40 -14q0 -10 -21 -31l-53 -54q-8 -8 -16.5 -10.5t-27.5 -2.5q-27 0 -27 10zM348 763q0 5 4 11.5t5 8.5l38 59q9 13 21 18t37 5q40 0 40 -14q0 -10 -21 -31l-53 -54q-8 -8 -16.5 -10.5t-27.5 -2.5q-27 0 -27 10z" />
    <glyph glyph-name="uhungarumlaut" unicode="&#x171;" horiz-adv-x="482" 
d="M449 62q-1 -9 -3.5 -25.5t-4.5 -19.5q-4 -10 -21 -16.5t-36 -6.5q-29 0 -52.5 17.5t-29.5 55.5q-26 -35 -61.5 -54.5t-72.5 -19.5q-56 0 -86 32t-30 89q0 16 1 24l39 364q3 22 40 22h10q38 0 36 -22l-37 -351q-1 -6 -1 -17q0 -68 63 -68q28 0 54.5 19t45.5 51l39 366
q2 22 40 22h10q38 0 36 -22l-41 -394l-1 -12q0 -30 25 -30q9 0 18 2.5t14 2.5q6 0 6 -9zM139 588q0 7 14 33l38 71q7 13 20 19.5t45 6.5q22 0 31.5 -3.5t9.5 -10.5q0 -5 -5 -12t-13 -16l-14 -16l-50 -60q-13 -16 -23 -20t-32 -4q-21 0 -21 12zM271 588q0 7 14 33l38 71
q7 13 20 19.5t45 6.5q22 0 31.5 -3.5t9.5 -10.5q0 -5 -5 -12t-13 -16l-14 -16l-50 -60q-13 -16 -23 -20t-32 -4q-21 0 -21 12z" />
    <glyph glyph-name="Uogonek" unicode="&#x172;" horiz-adv-x="583" 
d="M559 680l-51 -485q-9 -88 -65 -140.5t-150 -59.5q-24 -19 -39 -41.5t-15 -41.5q0 -12 8 -19.5t24 -7.5q13 0 29 6q14 4 21 4t13.5 -11.5t6.5 -22.5q0 -16 -25 -30t-59 -14q-45 0 -66.5 19t-21.5 50q0 30 18 59t48 50q-86 7 -130.5 51.5t-44.5 120.5q0 18 1 28l51 485
q2 22 40 22h14q38 0 36 -22l-51 -488q-1 -5 -1 -15q0 -48 33.5 -77.5t88.5 -29.5q65 0 102 30.5t44 91.5l51 488q2 22 40 22h14q38 0 36 -22z" />
    <glyph glyph-name="uogonek" unicode="&#x173;" horiz-adv-x="482" 
d="M450.5 -116.5q6.5 -11.5 6.5 -22.5q0 -16 -25 -30t-59 -14q-45 0 -66.5 19t-21.5 50t19 61t52 51q-46 17 -54 69q-26 -35 -61.5 -54.5t-72.5 -19.5q-56 0 -86 32t-30 89q0 16 1 24l39 364q3 22 40 22h10q38 0 36 -22l-37 -351q-1 -6 -1 -17q0 -68 63 -68q28 0 54.5 19
t45.5 51l39 366q2 22 40 22h10q38 0 36 -22l-41 -394l-1 -12q0 -30 25 -30q9 0 18 2.5t14 2.5q6 0 6 -9q-1 -9 -3.5 -25.5t-4.5 -19.5q-5 -11 -27 -19q-26 -19 -42.5 -42.5t-16.5 -43.5q0 -12 8 -19.5t24 -7.5q13 0 29 6q14 4 21 4t13.5 -11.5z" />
    <glyph glyph-name="Wcircumflex" unicode="&#x174;" horiz-adv-x="752" 
d="M148 16l-79 665q-3 21 41 21h13q37 0 38 -16l39 -463q8 -87 6 -131h4q9 48 28 114l144 479q5 17 37 17h20q34 0 35 -17l45 -461q7 -65 7 -132h4q6 29 27 111l126 483q4 16 41 16h11q43 0 37 -21l-201 -667q-5 -16 -38 -16h-30q-33 0 -34 18l-42 399q-8 82 -8 166h-4
q-15 -91 -32 -146l-132 -421q-5 -16 -38 -16h-30q-32 0 -35 18zM317 752q0 8 17 32l33 47q10 14 22.5 18.5t40.5 4.5h26q24 0 37 -4t20 -19l22 -45q12 -24 12 -32q0 -12 -29 -12q-17 0 -24 3t-12 8l-45 46l-52 -44q-7 -6 -15.5 -9.5t-26.5 -3.5q-26 0 -26 10z" />
    <glyph glyph-name="wcircumflex" unicode="&#x175;" horiz-adv-x="616" 
d="M97 16l-56 490q-2 19 37 19h15q34 0 35 -16l27 -319q3 -44 5 -96h5q19 74 26 97l99 317q4 17 37 17h19q16 0 24.5 -4t9.5 -13l34 -317q2 -32 2 -42l3 -54h5q3 12 7 31q4 13 8 29.5t9 34.5l94 319q5 16 33 16h15q19 0 28 -5t9 -12q0 -5 -4 -17l-157 -477q-4 -16 -38 -16
h-34q-33 0 -34 16l-34 295q-2 50 -2 79h-4l-18 -79l-97 -295q-5 -16 -38 -16h-35q-32 0 -35 18zM233 588q0 7 14 33l38 71q7 13 19.5 19.5t35.5 6.5h31q23 0 34 -6.5t15 -19.5l22 -71q8 -26 8 -31q0 -14 -28 -14q-19 0 -26 5t-15 19l-32 56l-45 -56q-11 -14 -19.5 -19
t-24.5 -5q-27 0 -27 12z" />
    <glyph glyph-name="Ycircumflex" unicode="&#x176;" horiz-adv-x="484" 
d="M172 20l32 297l-134 350q-5 12 -5 18q0 9 9 13t31 4h17q17 0 25 -3t12 -12l99 -283l161 284q5 8 15 11t26 3h13q20 -1 28 -5t8 -12q0 -4 -8 -18l-208 -353l-31 -294q-2 -22 -40 -22h-14q-39 0 -36 22zM179 752q0 8 17 32l33 47q10 14 22.5 18.5t40.5 4.5h26q24 0 37 -4
t20 -19l22 -45q12 -24 12 -32q0 -12 -29 -12q-17 0 -24 3t-12 8l-45 46l-52 -44q-7 -6 -15.5 -9.5t-26.5 -3.5q-26 0 -26 10z" />
    <glyph glyph-name="ycircumflex" unicode="&#x177;" horiz-adv-x="399" 
d="M406 508q-2 -8 -6 -18l-267 -677q-10 -21 -43 -21h-21q-32 0 -30 16q0 1 6 17l87 209l-90 456q-3 14 -2 18q2 17 41 17h14q31 0 34 -16l42 -281q8 -54 11 -80h6q7 20 11 36l15 44l105 281q5 16 39 16h12q38 0 36 -17zM122 588q0 7 14 33l38 71q7 13 19.5 19.5t35.5 6.5
h31q23 0 34 -6.5t15 -19.5l22 -71q8 -26 8 -31q0 -14 -28 -14q-19 0 -26 5t-15 19l-32 56l-45 -56q-11 -14 -19.5 -19t-24.5 -5q-27 0 -27 12z" />
    <glyph glyph-name="Ydieresis" unicode="&#x178;" horiz-adv-x="484" 
d="M172 20l32 297l-134 350q-5 12 -5 18q0 9 9 13t31 4h17q17 0 25 -3t12 -12l99 -283l161 284q5 8 15 11t26 3h13q20 -1 28 -5t8 -12q0 -4 -8 -18l-208 -353l-31 -294q-2 -22 -40 -22h-14q-39 0 -36 22zM186.5 764q-7.5 6 -6.5 16l6 56q1 10 9.5 16t34.5 6q25 0 33 -6
t7 -16l-6 -56q-1 -9 -9 -15.5t-35 -6.5q-26 0 -33.5 6zM330 780l6 56q2 9 9 15.5t35 6.5q43 0 40 -22l-6 -56q-2 -9 -9 -15.5t-35 -6.5q-43 0 -40 22z" />
    <glyph glyph-name="Zacute" unicode="&#x179;" horiz-adv-x="507" 
d="M21 17.5q-6 17.5 -6 35.5q0 8 3 12l380 559h-279q-16 0 -16 22q0 8 1 12l1 8q2 18 7 26t15 8h366q6 0 11 -18t5 -35q0 -9 -5 -17l-375 -554h301q17 0 17 -23q0 -7 -1 -11l-1 -8q-2 -18 -7.5 -26t-15.5 -8h-385q-10 0 -16 17.5zM252 762q0 5 4 11.5t5 8.5l38 59
q9 13 21 18t37 5q40 0 40 -14q0 -10 -21 -31l-53 -54q-8 -8 -16.5 -10.5t-27.5 -2.5q-27 0 -27 10z" />
    <glyph glyph-name="zacute" unicode="&#x17a;" horiz-adv-x="405" 
d="M22 16q-6 16 -6 30q0 10 7 20l263 385h-194q-19 0 -16 30l1 12q2 16 7 23t15 7h278q7 0 12 -17t5 -31q0 -9 -6 -19l-263 -384h210q19 0 16 -30l-1 -12q-2 -16 -7 -23t-15 -7h-291q-9 0 -15 16zM184 588q0 7 14 33l38 71q7 13 20 19.5t45 6.5q22 0 31.5 -3.5t9.5 -10.5
q0 -5 -5 -12t-13 -16l-14 -16l-50 -60q-13 -16 -23 -20t-32 -4q-21 0 -21 12z" />
    <glyph glyph-name="Zdotaccent" unicode="&#x17b;" horiz-adv-x="507" 
d="M21 17.5q-6 17.5 -6 35.5q0 8 3 12l380 559h-279q-16 0 -16 22q0 8 1 12l1 8q2 18 7 26t15 8h366q6 0 11 -18t5 -35q0 -9 -5 -17l-375 -554h301q17 0 17 -23q0 -7 -1 -11l-1 -8q-2 -18 -7.5 -26t-15.5 -8h-385q-10 0 -16 17.5zM271 763.5q-6 6.5 -6 15.5l6 60q2 22 48 22
q25 0 33 -6t7 -16l-6 -60q-2 -22 -47 -22q-29 0 -35 6.5z" />
    <glyph glyph-name="zdotaccent" unicode="&#x17c;" horiz-adv-x="405" 
d="M22 16q-6 16 -6 30q0 10 7 20l263 385h-194q-19 0 -16 30l1 12q2 16 7 23t15 7h278q7 0 12 -17t5 -31q0 -9 -6 -19l-263 -384h210q19 0 16 -30l-1 -12q-2 -16 -7 -23t-15 -7h-291q-9 0 -15 16zM202 617l6 60q2 22 47 22q23 0 32.5 -5.5t8.5 -16.5l-6 -60q-2 -22 -46 -22
t-42 22z" />
    <glyph glyph-name="Zcaron" unicode="&#x17d;" horiz-adv-x="507" 
d="M21 17.5q-6 17.5 -6 35.5q0 8 3 12l380 559h-279q-16 0 -16 22q0 8 1 12l1 8q2 18 7 26t15 8h366q6 0 11 -18t5 -35q0 -9 -5 -17l-375 -554h301q17 0 17 -23q0 -7 -1 -11l-1 -8q-2 -18 -7.5 -26t-15.5 -8h-385q-10 0 -16 17.5zM255 757q-12 5 -19 18l-23 47
q-11 22 -11 30q0 12 23 12q19 0 28 -2.5t17 -10.5l42 -44l55 46q8 6 16.5 8.5t27.5 2.5q21 0 21 -10q0 -6 -19 -34l-31 -45q-9 -13 -22.5 -18t-40.5 -5h-26q-26 0 -38 5z" />
    <glyph glyph-name="zcaron" unicode="&#x17e;" horiz-adv-x="405" 
d="M22 16q-6 16 -6 30q0 10 7 20l263 385h-194q-19 0 -16 30l1 12q2 16 7 23t15 7h278q7 0 12 -17t5 -31q0 -9 -6 -19l-263 -384h210q19 0 16 -30l-1 -12q-2 -16 -7 -23t-15 -7h-291q-9 0 -15 16zM192.5 582.5q-11.5 6.5 -15.5 19.5l-22 71q-8 26 -8 31q0 14 28 14
q17 0 25 -5t16 -19l33 -56l44 56q11 14 19 19t26 5q26 0 26 -12q0 -7 -14 -33l-38 -71q-7 -13 -19.5 -19.5t-34.5 -6.5h-31q-23 0 -34.5 6.5z" />
    <glyph glyph-name="longs" unicode="&#x17f;" horiz-adv-x="273" 
d="M66 20l45 431h-29q-10 0 -14.5 7t-2.5 23l1 12q2 16 7.5 23t15.5 7h29l12 106q7 73 45 100t82 27q26 0 46.5 -8t19.5 -23q-1 -11 -9 -29t-18 -18q-3 0 -12.5 3t-23.5 3q-23 0 -33 -13t-14 -50l-63 -601q-2 -22 -43 -22h-4q-40 0 -37 22z" />
    <glyph glyph-name="uni018F" unicode="&#x18f;" horiz-adv-x="560" 
d="M454 632q56 -74 56 -232q0 -119 -31 -211.5t-91.5 -145t-146.5 -52.5t-136 53t-50 155q0 112 61.5 178t174.5 66q61 0 128 -19q-3 108 -37.5 159t-114.5 51q-40 0 -68 -9.5t-47 -20t-22 -10.5q-8 0 -17 18.5t-9 26.5q0 10 23.5 26.5t64 28.5t91.5 12q115 0 171 -74z
M368 148q43 79 50 207q-61 16 -115 16q-81 0 -120.5 -44t-39.5 -125q0 -67 27 -100t76 -33q79 0 122 79z" />
    <glyph glyph-name="florin" unicode="&#x192;" horiz-adv-x="330" 
d="M56.5 -202.5q-8.5 5.5 -7.5 18.5l84 635h-35q-24 0 -21 28l1 13q1 18 7.5 24.5t17.5 6.5h41l13 101q17 132 148 132q60 0 60 -30q0 -9 -10 -29t-18 -20q-2 0 -11.5 3.5t-23.5 3.5q-26 0 -41 -14t-21 -56l-12 -91h61q11 0 16 -6t4 -22l-1 -14q-1 -17 -7 -23.5t-17 -6.5
h-67l-84 -637q-3 -22 -43 -22h-4q-21 0 -29.5 5.5z" />
    <glyph glyph-name="uni019D" unicode="&#x19d;" horiz-adv-x="590" 
d="M-100 -204q-28 8 -28 22q0 10 10 33.5t19 23.5q6 0 22.5 -4.5t33.5 -4.5q41 0 62 29t26 94l72 691q2 22 40 22h24q15 0 24 -4.5t13 -15.5l183 -457q13 -35 20 -63l5 2q-2 12 -2 36q0 20 1 30l48 450q2 22 40 22h12q38 0 36 -22l-69 -660q-3 -22 -41 -22h-18q-28 0 -34 15
l-191 472q-11 28 -19 63l-5 -2q2 -12 2 -36q0 -20 -1 -30l-51 -481q-9 -99 -52 -155t-123 -56q-31 0 -59 8z" />
    <glyph glyph-name="Ohorn" unicode="&#x1a0;" horiz-adv-x="599" 
d="M111.5 79q-56.5 85 -56.5 232q0 106 29.5 195.5t93.5 144.5t162 55q42 0 71 -9.5t61 -27.5q12 -7 20.5 -10.5t19.5 -3.5q17 0 27 9.5t10 25.5q0 12 -4 21t-13 22q-10 13 -10 20q0 9 16 20l10 7q1 0 6 4t13 4q17 0 30 -25.5t13 -53.5q0 -41 -26 -62.5t-76 -22.5
q56 -73 56 -228q0 -105 -28 -196t-90.5 -148.5t-159.5 -57.5q-118 0 -174.5 85zM431 169.5q42 99.5 42 228.5q0 232 -138 232q-99 0 -143 -95t-44 -227q0 -238 142 -238q99 0 141 99.5z" />
    <glyph glyph-name="ohorn" unicode="&#x1a1;" horiz-adv-x="477" 
d="M90.5 50q-46.5 56 -46.5 166q0 133 52 223t158 90q45 0 83 -19q36 -18 56 -18q14 0 22.5 8.5t8.5 22.5q0 13 -5 23.5t-13 22.5t-9 16q0 10 9 16l24 16q5 4 12 4q16 0 29.5 -25t13.5 -49q0 -38 -23.5 -63.5t-64.5 -25.5q36 -58 36 -156q0 -133 -50.5 -220.5t-157.5 -87.5
q-88 0 -134.5 56zM320.5 136q25.5 70 25.5 170q0 151 -98 151q-65 0 -90.5 -71t-25.5 -171q0 -149 98 -149q65 0 90.5 70z" />
    <glyph glyph-name="Uhorn" unicode="&#x1af;" horiz-adv-x="583" 
d="M558 670l-50 -475q-10 -95 -73.5 -148t-170.5 -53q-99 0 -151.5 45.5t-52.5 127.5q0 18 1 28l51 485q2 22 40 22h14q38 0 36 -22l-51 -488q-1 -5 -1 -15q0 -48 33.5 -77.5t88.5 -29.5q65 0 102 30.5t44 91.5l51 488q2 22 40 22h36q24 0 36 10.5t12 27.5q0 16 -10.5 34
t-10.5 22q0 5 3.5 9.5t7.5 7.5l25 16q6 4 13 4q15 0 25 -21.5t10 -47.5q0 -88 -98 -94z" />
    <glyph glyph-name="uhorn" unicode="&#x1b0;" horiz-adv-x="482" 
d="M387 108l-1 -12q0 -30 25 -30q9 0 18 2.5t14 2.5q6 0 6 -9q-1 -9 -3.5 -25.5t-4.5 -19.5q-4 -10 -21 -16.5t-36 -6.5q-29 0 -52.5 17.5t-29.5 55.5q-26 -35 -61.5 -54.5t-72.5 -19.5q-56 0 -86 32t-30 89q0 16 1 24l39 364q3 22 40 22h10q38 0 36 -22l-37 -351
q-1 -6 -1 -17q0 -68 63 -68q28 0 54.5 19t45.5 51l39 366q2 22 40 22h24q24 0 35.5 11t11.5 27t-10.5 34t-10.5 23q0 9 11 16l25 16q6 4 12 4q16 0 26 -22t10 -47q0 -37 -24 -62.5t-65 -31.5z" />
    <glyph glyph-name="uni01C4" unicode="&#x1c4;" horiz-adv-x="1084" 
d="M64 7q-6 7 -4 23l68 640q2 16 9 23t21 7h158q111 0 170 -65t59 -211q0 -424 -293 -424h-168q-14 0 -20 7zM258 76q108 0 151 95.5t43 243.5q0 109 -37.5 159t-108.5 50h-92l-58 -548h102zM598 17.5q-6 17.5 -6 35.5q0 8 3 12l380 559h-279q-16 0 -16 22q0 8 1 12l1 8
q2 18 7 26t15 8h366q6 0 11 -18t5 -35q0 -9 -5 -17l-375 -554h301q17 0 17 -23q0 -7 -1 -11l-1 -8q-2 -18 -7.5 -26t-15.5 -8h-385q-10 0 -16 17.5zM832 757q-12 5 -19 18l-23 47q-11 22 -11 30q0 12 23 12q19 0 28 -2.5t17 -10.5l42 -44l55 46q8 6 16.5 8.5t27.5 2.5
q21 0 21 -10q0 -6 -19 -34l-31 -45q-9 -13 -22.5 -18t-40.5 -5h-26q-26 0 -38 5z" />
    <glyph glyph-name="uni01C5" unicode="&#x1c5;" horiz-adv-x="982" 
d="M64 7q-6 7 -4 23l68 640q2 16 9 23t21 7h158q111 0 170 -65t59 -211q0 -424 -293 -424h-168q-14 0 -20 7zM258 76q108 0 151 95.5t43 243.5q0 109 -37.5 159t-108.5 50h-92l-58 -548h102zM599 16q-6 16 -6 30q0 10 7 20l263 385h-194q-19 0 -16 30l1 12q2 16 7 23t15 7
h278q7 0 12 -17t5 -31q0 -9 -6 -19l-263 -384h210q19 0 16 -30l-1 -12q-2 -16 -7 -23t-15 -7h-291q-9 0 -15 16zM769.5 582.5q-11.5 6.5 -15.5 19.5l-22 71q-8 26 -8 31q0 14 28 14q17 0 25 -5t16 -19l33 -56l44 56q11 14 19 19t26 5q26 0 26 -12q0 -7 -14 -33l-38 -71
q-7 -13 -19.5 -19.5t-34.5 -6.5h-31q-23 0 -34.5 6.5z" />
    <glyph glyph-name="uni01C6" unicode="&#x1c6;" horiz-adv-x="886" 
d="M78.5 55q-35.5 61 -35.5 167q0 82 21 152t64.5 112.5t106.5 42.5q35 0 59.5 -13.5t44.5 -37.5l27 252q2 22 39 22h11q38 0 36 -22l-64 -607q-2 -16 -2 -25q0 -15 6 -23.5t22 -8.5q8 0 17 2.5t14 2.5q6 0 6 -9q0 -10 -2.5 -25t-5.5 -20q-5 -10 -21 -16.5t-36 -6.5
q-30 0 -54 17t-29 61q-53 -78 -124 -78q-65 0 -100.5 61zM254.5 85q25.5 18 48.5 51l29 274q-32 45 -82 45q-63 0 -91 -68.5t-28 -164.5q0 -155 75 -155q23 0 48.5 18zM503 16q-6 16 -6 30q0 10 7 20l263 385h-194q-19 0 -16 30l1 12q2 16 7 23t15 7h278q7 0 12 -17t5 -31
q0 -9 -6 -19l-263 -384h210q19 0 16 -30l-1 -12q-2 -16 -7 -23t-15 -7h-291q-9 0 -15 16zM673.5 582.5q-11.5 6.5 -15.5 19.5l-22 71q-8 26 -8 31q0 14 28 14q17 0 25 -5t16 -19l33 -56l44 56q11 14 19 19t26 5q26 0 26 -12q0 -7 -14 -33l-38 -71q-7 -13 -19.5 -19.5
t-34.5 -6.5h-31q-23 0 -34.5 6.5z" />
    <glyph glyph-name="uni01C7" unicode="&#x1c7;" horiz-adv-x="645" 
d="M197.5 696.5q8.5 -5.5 8.5 -16.5l-63 -604h197q17 0 17 -22q0 -25 -4.5 -39.5t-20.5 -14.5h-255q-16 0 -21.5 7t-5.5 23l68 650q2 22 42 22h8q21 0 29.5 -5.5zM612.5 696.5q8.5 -5.5 8.5 -16.5l-66 -628q-10 -99 -65.5 -155t-161.5 -56q-38 0 -63 7.5t-25 24.5
q0 59 15 59q5 0 22 -4.5t44 -4.5q69 0 103.5 30t41.5 95l67 632q2 22 42 22h8q21 0 29.5 -5.5z" />
    <glyph glyph-name="uni01C8" unicode="&#x1c8;" horiz-adv-x="657" 
d="M59 7q-6 7 -4 23l69 650q2 22 40 22h14q38 0 36 -22l-64 -604h208q10 0 14.5 -7t2.5 -23l-2 -16q-3 -30 -23 -30h-271q-14 0 -20 7zM345 -182q1 11 9 29t17 18q4 0 12 -2.5t24 -2.5q38 0 45 68l60 575q3 22 43 22h4q40 0 37 -22l-61 -583q-8 -74 -44.5 -103t-78.5 -29
q-69 0 -67 30zM522 617l6 60q2 22 47 22q23 0 32.5 -5.5t8.5 -16.5l-6 -60q-2 -22 -46 -22t-42 22z" />
    <glyph glyph-name="uni01C9" unicode="&#x1c9;" horiz-adv-x="519" 
d="M91.5 15.5q-28.5 21.5 -28.5 77.5q0 14 1 22l65 615q2 22 42 22h4q40 0 38 -22l-65 -617q-1 -6 -1 -15q0 -20 8 -26t23 -6q12 0 22.5 2.5t15.5 2.5q6 0 6 -9q0 -10 -2.5 -24.5t-5.5 -20.5q-4 -10 -21 -16.5t-36 -6.5q-37 0 -65.5 21.5zM207 -182q1 11 9 29t17 18
q4 0 12 -2.5t24 -2.5q38 0 45 68l60 575q3 22 43 22h4q40 0 37 -22l-61 -583q-8 -74 -44.5 -103t-78.5 -29q-69 0 -67 30zM384 617l6 60q2 22 47 22q23 0 32.5 -5.5t8.5 -16.5l-6 -60q-2 -22 -46 -22t-42 22z" />
    <glyph glyph-name="uni01CA" unicode="&#x1ca;" horiz-adv-x="945" 
d="M48 20l69 660q2 22 40 22h24q15 0 24 -4.5t13 -15.5l183 -457q13 -35 20 -63l5 2q-2 12 -2 36q0 20 1 30l48 450q2 22 40 22h12q38 0 36 -22l-69 -660q-3 -22 -41 -22h-18q-28 0 -34 15l-191 472q-11 28 -19 63l-5 -2q2 -12 2 -36q0 -20 -1 -30l-49 -460q-2 -22 -41 -22
h-12q-38 0 -35 22zM592 2.5q-28 8.5 -27 23.5q2 14 11 34.5t18 20.5q6 0 22.5 -4.5t33.5 -4.5q50 0 75.5 29t32.5 94l51 485q2 22 40 22h14q39 0 37 -22l-50 -475q-10 -99 -58.5 -155t-139.5 -56q-32 0 -60 8.5z" />
    <glyph glyph-name="uni01CB" unicode="&#x1cb;" horiz-adv-x="839" 
d="M48 20l69 660q2 22 40 22h24q15 0 24 -4.5t13 -15.5l183 -457q13 -35 20 -63l5 2q-2 12 -2 36q0 20 1 30l48 450q2 22 40 22h12q38 0 36 -22l-69 -660q-3 -22 -41 -22h-18q-28 0 -34 15l-191 472q-11 28 -19 63l-5 -2q2 -12 2 -36q0 -20 -1 -30l-49 -460q-2 -22 -41 -22
h-12q-38 0 -35 22zM527 -182q1 11 9 29t17 18q4 0 12 -2.5t24 -2.5q38 0 45 68l60 575q3 22 43 22h4q40 0 37 -22l-61 -583q-8 -74 -44.5 -103t-78.5 -29q-69 0 -67 30zM704 617l6 60q2 22 47 22q23 0 32.5 -5.5t8.5 -16.5l-6 -60q-2 -22 -46 -22t-42 22z" />
    <glyph glyph-name="uni01CC" unicode="&#x1cc;" horiz-adv-x="731" 
d="M451 62q0 -10 -2.5 -24.5t-5.5 -20.5q-4 -9 -21 -16t-36 -7q-31 0 -57 21.5t-26 75.5q0 14 1 22l25 252q1 7 1 20q0 71 -60 71q-26 0 -51.5 -19t-43.5 -51l-39 -366q-2 -22 -40 -22h-11q-37 0 -34 24l36 345q5 53 5 86q0 19 -1 30t0 16q1 12 23 17.5t37 5.5
q14 0 18.5 -13t4.5 -36q0 -16 -1 -23q26 37 61 58t72 21q54 0 83.5 -34t29.5 -94q0 -8 -2 -28l-28 -265l-1 -12q0 -30 25 -30q9 0 18 2.5t14 2.5q6 0 6 -9zM419 -182q1 11 9 29t17 18q4 0 12 -2.5t24 -2.5q38 0 45 68l60 575q3 22 43 22h4q40 0 37 -22l-61 -583
q-8 -74 -44.5 -103t-78.5 -29q-69 0 -67 30zM596 617l6 60q2 22 47 22q23 0 32.5 -5.5t8.5 -16.5l-6 -60q-2 -22 -46 -22t-42 22z" />
    <glyph glyph-name="uni01CD" unicode="&#x1cd;" horiz-adv-x="505" 
d="M-13 15q0 4 1 7l2 6l250 655q7 19 42 19h29q35 0 38 -19l115 -655q2 -10 2 -13q-1 -8 -11 -12.5t-28 -4.5h-17q-30 0 -31 16l-26 164h-218l-59 -164q-7 -16 -38 -16h-16q-37 0 -35 17zM340 250l-44 283q-4 27 -6 61h-5q-15 -47 -20 -61l-104 -283h179zM253 757
q-12 5 -19 18l-23 47q-11 22 -11 30q0 12 23 12q19 0 28 -2.5t17 -10.5l42 -44l55 46q8 6 16.5 8.5t27.5 2.5q21 0 21 -10q0 -6 -19 -34l-31 -45q-9 -13 -22.5 -18t-40.5 -5h-26q-26 0 -38 5z" />
    <glyph glyph-name="uni01CE" unicode="&#x1ce;" horiz-adv-x="481" 
d="M75.5 52q-31.5 59 -31.5 151q0 84 23 158.5t68 121t109 46.5q66 0 108 -54q9 27 17.5 38.5t27.5 11.5h6q28 0 25 -21l-48 -381q-1 -7 -1 -18q0 -39 29 -39q12 0 22 2.5t14 2.5q6 0 6 -9q0 -10 -2.5 -24.5t-5.5 -20.5q-4 -10 -21 -16.5t-36 -6.5q-32 0 -57 19.5t-27 69.5
q-46 -90 -127 -90q-67 0 -98.5 59zM259.5 97.5q29.5 31.5 49.5 100.5l21 169q3 31 7 50q-16 17 -34 28t-46 11q-67 0 -97.5 -73.5t-30.5 -180.5q0 -61 16 -98.5t53 -37.5q32 0 61.5 31.5zM226.5 582.5q-11.5 6.5 -15.5 19.5l-22 71q-8 26 -8 31q0 14 28 14q17 0 25 -5
t16 -19l33 -56l44 56q11 14 19 19t26 5q26 0 26 -12q0 -7 -14 -33l-38 -71q-7 -13 -19.5 -19.5t-34.5 -6.5h-31q-23 0 -34.5 6.5z" />
    <glyph glyph-name="uni01CF" unicode="&#x1cf;" horiz-adv-x="262" 
d="M61 20l70 660q2 22 40 22h15q37 0 35 -22l-70 -660q-2 -22 -39 -22h-15q-38 0 -36 22zM131 757q-12 5 -19 18l-23 47q-11 22 -11 30q0 12 23 12q19 0 28 -2.5t17 -10.5l42 -44l55 46q8 6 16.5 8.5t27.5 2.5q21 0 21 -10q0 -6 -19 -34l-31 -45q-9 -13 -22.5 -18t-40.5 -5
h-26q-26 0 -38 5z" />
    <glyph glyph-name="uni01D0" unicode="&#x1d0;" horiz-adv-x="254" 
d="M87 15.5q-26 21.5 -26 74.5q0 14 1 22l40 391q1 12 11.5 17t30.5 5h4q21 0 30 -6t8 -20l-39 -391q-1 -5 -1 -14q0 -15 5 -21.5t18 -6.5q12 0 21 2.5t13 2.5q6 0 6 -9q0 -11 -2.5 -25t-5.5 -20q-4 -10 -21 -16.5t-36 -6.5q-31 0 -57 21.5zM102.5 582.5
q-11.5 6.5 -15.5 19.5l-22 71q-8 26 -8 31q0 14 28 14q17 0 25 -5t16 -19l33 -56l44 56q11 14 19 19t26 5q26 0 26 -12q0 -7 -14 -33l-38 -71q-7 -13 -19.5 -19.5t-34.5 -6.5h-31q-23 0 -34.5 6.5z" />
    <glyph glyph-name="uni01D1" unicode="&#x1d1;" horiz-adv-x="599" 
d="M111.5 79q-56.5 85 -56.5 232q0 106 29.5 195.5t92 144.5t158.5 55q106 0 167.5 -74.5t61.5 -235.5q0 -105 -28 -196t-90.5 -148.5t-159.5 -57.5q-118 0 -174.5 85zM431 169.5q42 99.5 42 228.5q0 232 -141 232q-97 0 -140.5 -95t-43.5 -227q0 -238 142 -238
q99 0 141 99.5zM288 757q-12 5 -19 18l-23 47q-11 22 -11 30q0 12 23 12q19 0 28 -2.5t17 -10.5l42 -44l55 46q8 6 16.5 8.5t27.5 2.5q21 0 21 -10q0 -6 -19 -34l-31 -45q-9 -13 -22.5 -18t-40.5 -5h-26q-26 0 -38 5z" />
    <glyph glyph-name="uni01D2" unicode="&#x1d2;" horiz-adv-x="477" 
d="M90.5 50q-46.5 56 -46.5 166q0 133 52 223t158 90q87 0 133 -57.5t46 -169.5q0 -133 -50.5 -220.5t-157.5 -87.5q-88 0 -134.5 56zM320.5 136q25.5 70 25.5 170q0 151 -98 151q-65 0 -90.5 -71t-25.5 -171q0 -149 98 -149q65 0 90.5 70zM205.5 582.5
q-11.5 6.5 -15.5 19.5l-22 71q-8 26 -8 31q0 14 28 14q17 0 25 -5t16 -19l33 -56l44 56q11 14 19 19t26 5q26 0 26 -12q0 -7 -14 -33l-38 -71q-7 -13 -19.5 -19.5t-34.5 -6.5h-31q-23 0 -34.5 6.5z" />
    <glyph glyph-name="uni01D3" unicode="&#x1d3;" horiz-adv-x="583" 
d="M112.5 39.5q-52.5 45.5 -52.5 127.5q0 18 1 28l51 485q2 22 40 22h14q38 0 36 -22l-51 -488q-1 -5 -1 -15q0 -48 33.5 -77.5t88.5 -29.5q65 0 102 30.5t44 91.5l51 488q2 22 40 22h14q38 0 36 -22l-51 -485q-10 -95 -73.5 -148t-170.5 -53q-99 0 -151.5 45.5zM294 759
q-12 5 -19 18l-23 47q-11 22 -11 30q0 12 23 12q19 0 28 -2.5t17 -10.5l42 -44l55 46q8 6 16.5 8.5t27.5 2.5q21 0 21 -10q0 -6 -19 -34l-31 -45q-9 -13 -22.5 -18t-40.5 -5h-26q-26 0 -38 5z" />
    <glyph glyph-name="uni01D4" unicode="&#x1d4;" horiz-adv-x="482" 
d="M449 62q-1 -9 -3.5 -25.5t-4.5 -19.5q-4 -10 -21 -16.5t-36 -6.5q-29 0 -52.5 17.5t-29.5 55.5q-26 -35 -61.5 -54.5t-72.5 -19.5q-56 0 -86 32t-30 89q0 16 1 24l39 364q3 22 40 22h10q38 0 36 -22l-37 -351q-1 -6 -1 -17q0 -68 63 -68q28 0 54.5 19t45.5 51l39 366
q2 22 40 22h10q38 0 36 -22l-41 -394l-1 -12q0 -30 25 -30q9 0 18 2.5t14 2.5q6 0 6 -9zM218.5 582.5q-11.5 6.5 -15.5 19.5l-22 71q-8 26 -8 31q0 14 28 14q17 0 25 -5t16 -19l33 -56l44 56q11 14 19 19t26 5q26 0 26 -12q0 -7 -14 -33l-38 -71q-7 -13 -19.5 -19.5
t-34.5 -6.5h-31q-23 0 -34.5 6.5z" />
    <glyph glyph-name="uni01D5" unicode="&#x1d5;" horiz-adv-x="583" 
d="M112.5 39.5q-52.5 45.5 -52.5 127.5q0 18 1 28l51 485q2 22 40 22h14q38 0 36 -22l-51 -488q-1 -5 -1 -15q0 -48 33.5 -77.5t88.5 -29.5q65 0 102 30.5t44 91.5l51 488q2 22 40 22h14q38 0 36 -22l-51 -485q-10 -95 -73.5 -148t-170.5 -53q-99 0 -151.5 45.5zM237.5 766
q-7.5 6 -6.5 16l6 56q1 10 9.5 16t34.5 6q25 0 33 -6t7 -16l-6 -56q-1 -9 -9 -15.5t-35 -6.5q-26 0 -33.5 6zM381 782l6 56q2 9 9 15.5t35 6.5q43 0 40 -22l-6 -56q-2 -9 -9 -15.5t-35 -6.5q-43 0 -40 22zM249 925q-4 7 -2 23l1 10q3 30 22 30h199q10 0 14 -7t2 -23l-1 -10
q-3 -30 -22 -30h-199q-10 0 -14 7z" />
    <glyph glyph-name="uni01D6" unicode="&#x1d6;" horiz-adv-x="482" 
d="M449 62q-1 -9 -3.5 -25.5t-4.5 -19.5q-4 -10 -21 -16.5t-36 -6.5q-29 0 -52.5 17.5t-29.5 55.5q-26 -35 -61.5 -54.5t-72.5 -19.5q-56 0 -86 32t-30 89q0 16 1 24l39 364q3 22 40 22h10q38 0 36 -22l-37 -351q-1 -6 -1 -17q0 -68 63 -68q28 0 54.5 19t45.5 51l39 366
q2 22 40 22h10q38 0 36 -22l-41 -394l-1 -12q0 -30 25 -30q9 0 18 2.5t14 2.5q6 0 6 -9zM166 602.5q-10 5.5 -8 16.5l6 56q2 12 12.5 17t33.5 5q45 0 42 -22l-6 -56q-2 -11 -12.5 -16.5t-33.5 -5.5q-24 0 -34 5.5zM298 619l6 56q2 11 12.5 16.5t33.5 5.5q45 0 42 -22l-6 -56
q-2 -11 -12.5 -16.5t-33.5 -5.5q-45 0 -42 22zM172 794l1 10q3 30 22 30h199q11 0 14.5 -7t1.5 -23l-1 -10q-3 -30 -22 -30h-199q-19 0 -16 30z" />
    <glyph glyph-name="uni01D7" unicode="&#x1d7;" horiz-adv-x="583" 
d="M112.5 39.5q-52.5 45.5 -52.5 127.5q0 18 1 28l51 485q2 22 40 22h14q38 0 36 -22l-51 -488q-1 -5 -1 -15q0 -48 33.5 -77.5t88.5 -29.5q65 0 102 30.5t44 91.5l51 488q2 22 40 22h14q38 0 36 -22l-51 -485q-10 -95 -73.5 -148t-170.5 -53q-99 0 -151.5 45.5zM237.5 766
q-7.5 6 -6.5 16l6 56q1 10 9.5 16t34.5 6q25 0 33 -6t7 -16l-6 -56q-1 -9 -9 -15.5t-35 -6.5q-26 0 -33.5 6zM381 782l6 56q2 9 9 15.5t35 6.5q43 0 40 -22l-6 -56q-2 -9 -9 -15.5t-35 -6.5q-43 0 -40 22zM306 906q0 5 4 11.5t5 8.5l38 59q9 13 21 18t37 5q40 0 40 -14
q0 -10 -21 -31l-53 -54q-8 -8 -16.5 -10.5t-27.5 -2.5q-27 0 -27 10z" />
    <glyph glyph-name="uni01D8" unicode="&#x1d8;" horiz-adv-x="482" 
d="M449 62q-1 -9 -3.5 -25.5t-4.5 -19.5q-4 -10 -21 -16.5t-36 -6.5q-29 0 -52.5 17.5t-29.5 55.5q-26 -35 -61.5 -54.5t-72.5 -19.5q-56 0 -86 32t-30 89q0 16 1 24l39 364q3 22 40 22h10q38 0 36 -22l-37 -351q-1 -6 -1 -17q0 -68 63 -68q28 0 54.5 19t45.5 51l39 366
q2 22 40 22h10q38 0 36 -22l-41 -394l-1 -12q0 -30 25 -30q9 0 18 2.5t14 2.5q6 0 6 -9zM166 602.5q-10 5.5 -8 16.5l6 56q2 12 12.5 17t33.5 5q45 0 42 -22l-6 -56q-2 -11 -12.5 -16.5t-33.5 -5.5q-24 0 -34 5.5zM298 619l6 56q2 11 12.5 16.5t33.5 5.5q45 0 42 -22l-6 -56
q-2 -11 -12.5 -16.5t-33.5 -5.5q-45 0 -42 22zM226 740q0 7 14 33l38 71q7 13 20 19.5t45 6.5q22 0 31.5 -3.5t9.5 -10.5q0 -5 -5 -12t-13 -16l-14 -16l-50 -60q-13 -16 -23 -20t-32 -4q-21 0 -21 12z" />
    <glyph glyph-name="uni01D9" unicode="&#x1d9;" horiz-adv-x="583" 
d="M112.5 39.5q-52.5 45.5 -52.5 127.5q0 18 1 28l51 485q2 22 40 22h14q38 0 36 -22l-51 -488q-1 -5 -1 -15q0 -48 33.5 -77.5t88.5 -29.5q65 0 102 30.5t44 91.5l51 488q2 22 40 22h14q38 0 36 -22l-51 -485q-10 -95 -73.5 -148t-170.5 -53q-99 0 -151.5 45.5zM237.5 766
q-7.5 6 -6.5 16l6 56q1 10 9.5 16t34.5 6q25 0 33 -6t7 -16l-6 -56q-1 -9 -9 -15.5t-35 -6.5q-26 0 -33.5 6zM381 782l6 56q2 9 9 15.5t35 6.5q43 0 40 -22l-6 -56q-2 -9 -9 -15.5t-35 -6.5q-43 0 -40 22zM309 901q-12 5 -19 18l-23 47q-11 22 -11 30q0 12 23 12
q19 0 28 -2.5t17 -10.5l42 -44l55 46q8 6 16.5 8.5t27.5 2.5q21 0 21 -10q0 -6 -19 -34l-31 -45q-9 -13 -22.5 -18t-40.5 -5h-26q-26 0 -38 5z" />
    <glyph glyph-name="uni01DA" unicode="&#x1da;" horiz-adv-x="482" 
d="M449 62q-1 -9 -3.5 -25.5t-4.5 -19.5q-4 -10 -21 -16.5t-36 -6.5q-29 0 -52.5 17.5t-29.5 55.5q-26 -35 -61.5 -54.5t-72.5 -19.5q-56 0 -86 32t-30 89q0 16 1 24l39 364q3 22 40 22h10q38 0 36 -22l-37 -351q-1 -6 -1 -17q0 -68 63 -68q28 0 54.5 19t45.5 51l39 366
q2 22 40 22h10q38 0 36 -22l-41 -394l-1 -12q0 -30 25 -30q9 0 18 2.5t14 2.5q6 0 6 -9zM166 602.5q-10 5.5 -8 16.5l6 56q2 12 12.5 17t33.5 5q45 0 42 -22l-6 -56q-2 -11 -12.5 -16.5t-33.5 -5.5q-24 0 -34 5.5zM298 619l6 56q2 11 12.5 16.5t33.5 5.5q45 0 42 -22l-6 -56
q-2 -11 -12.5 -16.5t-33.5 -5.5q-45 0 -42 22zM234.5 734.5q-11.5 6.5 -15.5 19.5l-22 71q-8 26 -8 31q0 14 28 14q17 0 25 -5t16 -19l33 -56l44 56q11 14 19 19t26 5q26 0 26 -12q0 -7 -14 -33l-38 -71q-7 -13 -19.5 -19.5t-34.5 -6.5h-31q-23 0 -34.5 6.5z" />
    <glyph glyph-name="uni01DB" unicode="&#x1db;" horiz-adv-x="583" 
d="M112.5 39.5q-52.5 45.5 -52.5 127.5q0 18 1 28l51 485q2 22 40 22h14q38 0 36 -22l-51 -488q-1 -5 -1 -15q0 -48 33.5 -77.5t88.5 -29.5q65 0 102 30.5t44 91.5l51 488q2 22 40 22h14q38 0 36 -22l-51 -485q-10 -95 -73.5 -148t-170.5 -53q-99 0 -151.5 45.5zM237.5 766
q-7.5 6 -6.5 16l6 56q1 10 9.5 16t34.5 6q25 0 33 -6t7 -16l-6 -56q-1 -9 -9 -15.5t-35 -6.5q-26 0 -33.5 6zM381 782l6 56q2 9 9 15.5t35 6.5q43 0 40 -22l-6 -56q-2 -9 -9 -15.5t-35 -6.5q-43 0 -40 22zM353 898.5q-9 2.5 -15 10.5l-41 54q-5 6 -10 14t-5 14q0 17 44 17
q24 0 35 -5t17 -18l26 -59q5 -11 5 -17q0 -7 -6.5 -10t-22.5 -3q-18 0 -27 2.5z" />
    <glyph glyph-name="uni01DC" unicode="&#x1dc;" horiz-adv-x="482" 
d="M449 62q-1 -9 -3.5 -25.5t-4.5 -19.5q-4 -10 -21 -16.5t-36 -6.5q-29 0 -52.5 17.5t-29.5 55.5q-26 -35 -61.5 -54.5t-72.5 -19.5q-56 0 -86 32t-30 89q0 16 1 24l39 364q3 22 40 22h10q38 0 36 -22l-37 -351q-1 -6 -1 -17q0 -68 63 -68q28 0 54.5 19t45.5 51l39 366
q2 22 40 22h10q38 0 36 -22l-41 -394l-1 -12q0 -30 25 -30q9 0 18 2.5t14 2.5q6 0 6 -9zM166 602.5q-10 5.5 -8 16.5l6 56q2 12 12.5 17t33.5 5q45 0 42 -22l-6 -56q-2 -11 -12.5 -16.5t-33.5 -5.5q-24 0 -34 5.5zM298 619l6 56q2 11 12.5 16.5t33.5 5.5q45 0 42 -22l-6 -56
q-2 -11 -12.5 -16.5t-33.5 -5.5q-45 0 -42 22zM282 732q-9 4 -20 20l-37 55q-23 35 -23 46q0 9 11 13t34 4q31 0 43 -7t17 -22l22 -68q7 -21 7 -31q0 -7 -6 -10.5t-17 -3.5q-22 0 -31 4z" />
    <glyph glyph-name="Gcaron" unicode="&#x1e6;" horiz-adv-x="552" 
d="M113 63.5q-59 69.5 -59 206.5q0 201 72.5 318.5t231.5 117.5q36 0 72 -9.5t59 -24t23 -27.5q0 -12 -16 -35.5t-26 -23.5q-3 0 -20 11.5t-41.5 20.5t-57.5 9q-107 0 -155 -98.5t-48 -251.5q0 -96 32.5 -151.5t105.5 -55.5q53 0 90 13l23 223h-85q-17 0 -17 20q0 6 1 10
l1 16q3 30 23 30h148q27 0 24 -30l-30 -286q-4 -38 -60.5 -55t-128.5 -17q-103 0 -162 69.5zM293 757q-12 5 -19 18l-23 47q-11 22 -11 30q0 12 23 12q19 0 28 -2.5t17 -10.5l42 -44l55 46q8 6 16.5 8.5t27.5 2.5q21 0 21 -10q0 -6 -19 -34l-31 -45q-9 -13 -22.5 -18
t-40.5 -5h-26q-26 0 -38 5z" />
    <glyph glyph-name="gcaron" unicode="&#x1e7;" horiz-adv-x="471" 
d="M422.5 520q5.5 -5 5.5 -16l-45 -422q-11 -109 -37.5 -173.5t-68 -92.5t-102.5 -28q-57 0 -95 19.5t-48 41.5q-2 6 -2 14q0 15 4.5 28t12.5 13q3 0 21.5 -12.5t43.5 -22t58 -9.5q57 0 86.5 47t41.5 160l2 15q-47 -82 -125 -82q-67 0 -99 60.5t-32 153.5q0 85 22.5 157
t68 115t111.5 43q64 0 106 -54q9 27 17.5 38.5t27.5 11.5h6q14 0 19.5 -5zM337 417q-16 17 -34.5 28t-44.5 11q-69 0 -99 -67.5t-30 -176.5q0 -139 71 -139q29 0 60 29t51 96l18 169q2 18 8 50zM219.5 582.5q-11.5 6.5 -15.5 19.5l-22 71q-8 26 -8 31q0 14 28 14q17 0 25 -5
t16 -19l33 -56l44 56q11 14 19 19t26 5q26 0 26 -12q0 -7 -14 -33l-38 -71q-7 -13 -19.5 -19.5t-34.5 -6.5h-31q-23 0 -34.5 6.5z" />
    <glyph glyph-name="uni01EA" unicode="&#x1ea;" horiz-adv-x="599" 
d="M284.5 -46q-15.5 -23 -15.5 -42q0 -12 8 -19.5t24 -7.5q13 0 29 6q14 4 21 4t13.5 -11.5t6.5 -22.5q0 -16 -25 -30t-59 -14q-45 0 -66.5 19t-21.5 50q0 29 17.5 58t47.5 51q-106 8 -157.5 92t-51.5 224q0 106 29.5 195.5t92 144.5t158.5 55q106 0 167.5 -74.5
t61.5 -235.5q0 -98 -24 -184t-78 -145t-137 -70q-25 -20 -40.5 -43zM290 70q99 0 141 99.5t42 228.5q0 232 -141 232q-97 0 -140.5 -95t-43.5 -227q0 -238 142 -238z" />
    <glyph glyph-name="uni01EB" unicode="&#x1eb;" horiz-adv-x="477" 
d="M211.5 -47q-15.5 -23 -15.5 -41q0 -12 8 -19.5t24 -7.5q13 0 29 6q14 4 21 4t13.5 -11.5t6.5 -22.5q0 -16 -25 -30t-59 -14q-45 0 -66.5 19t-21.5 50q0 30 18.5 59.5t48.5 50.5q-73 10 -111 65t-38 155q0 133 52 223t158 90q87 0 133 -57.5t46 -169.5
q0 -125 -44.5 -210.5t-137.5 -96.5q-24 -19 -39.5 -42zM230 66q65 0 90.5 70t25.5 170q0 151 -98 151q-65 0 -90.5 -71t-25.5 -171q0 -149 98 -149z" />
    <glyph glyph-name="uni01F1" unicode="&#x1f1;" horiz-adv-x="1084" 
d="M64 7q-6 7 -4 23l68 640q2 16 9 23t21 7h158q111 0 170 -65t59 -211q0 -424 -293 -424h-168q-14 0 -20 7zM258 76q108 0 151 95.5t43 243.5q0 109 -37.5 159t-108.5 50h-92l-58 -548h102zM598 17.5q-6 17.5 -6 35.5q0 8 3 12l380 559h-279q-16 0 -16 22q0 8 1 12l1 8
q2 18 7 26t15 8h366q6 0 11 -18t5 -35q0 -9 -5 -17l-375 -554h301q17 0 17 -23q0 -7 -1 -11l-1 -8q-2 -18 -7.5 -26t-15.5 -8h-385q-10 0 -16 17.5z" />
    <glyph glyph-name="uni01F2" unicode="&#x1f2;" horiz-adv-x="982" 
d="M64 7q-6 7 -4 23l68 640q2 16 9 23t21 7h158q111 0 170 -65t59 -211q0 -424 -293 -424h-168q-14 0 -20 7zM258 76q108 0 151 95.5t43 243.5q0 109 -37.5 159t-108.5 50h-92l-58 -548h102zM599 16q-6 16 -6 30q0 10 7 20l263 385h-194q-19 0 -16 30l1 12q2 16 7 23t15 7
h278q7 0 12 -17t5 -31q0 -9 -6 -19l-263 -384h210q19 0 16 -30l-1 -12q-2 -16 -7 -23t-15 -7h-291q-9 0 -15 16z" />
    <glyph glyph-name="uni01F3" unicode="&#x1f3;" horiz-adv-x="886" 
d="M78.5 55q-35.5 61 -35.5 167q0 82 21 152t64.5 112.5t106.5 42.5q35 0 59.5 -13.5t44.5 -37.5l27 252q2 22 39 22h11q38 0 36 -22l-64 -607q-2 -16 -2 -25q0 -15 6 -23.5t22 -8.5q8 0 17 2.5t14 2.5q6 0 6 -9q0 -10 -2.5 -25t-5.5 -20q-5 -10 -21 -16.5t-36 -6.5
q-30 0 -54 17t-29 61q-53 -78 -124 -78q-65 0 -100.5 61zM254.5 85q25.5 18 48.5 51l29 274q-32 45 -82 45q-63 0 -91 -68.5t-28 -164.5q0 -155 75 -155q23 0 48.5 18zM503 16q-6 16 -6 30q0 10 7 20l263 385h-194q-19 0 -16 30l1 12q2 16 7 23t15 7h278q7 0 12 -17t5 -31
q0 -9 -6 -19l-263 -384h210q19 0 16 -30l-1 -12q-2 -16 -7 -23t-15 -7h-291q-9 0 -15 16z" />
    <glyph glyph-name="Aringacute" unicode="&#x1fa;" horiz-adv-x="505" 
d="M272 832l33 53q6 8 12 18q9 14 24.5 20t40.5 6t36 -3t10 -10q0 -3 -6.5 -9.5t-20.5 -18.5l-54 -48q-18 -18 -53 -18q-22 0 -22 10zM466 15q-1 -8 -11 -12.5t-28 -4.5h-17q-30 0 -31 16l-26 164h-218l-59 -164q-7 -16 -38 -16h-16q-37 0 -35 17q0 4 1 7l2 6l240 628
q-18 20 -18 49q0 39 26.5 66.5t65.5 27.5q34 0 56 -22t22 -54q0 -40 -28 -68l110 -627q2 -10 2 -13zM271.5 741q-12.5 -13 -12.5 -31q0 -15 9.5 -25t23.5 -10q18 0 30.5 13t12.5 31q0 15 -9.5 25t-24.5 10q-17 0 -29.5 -13zM340 250l-44 283q-4 27 -6 61h-5q-15 -47 -20 -61
l-104 -283h179z" />
    <glyph glyph-name="aringacute" unicode="&#x1fb;" horiz-adv-x="481" 
d="M75.5 52q-31.5 59 -31.5 151q0 84 23 158.5t68 121t109 46.5q66 0 108 -54q9 27 17.5 38.5t27.5 11.5h6q28 0 25 -21l-48 -381q-1 -7 -1 -18q0 -39 29 -39q12 0 22 2.5t14 2.5q6 0 6 -9q0 -10 -2.5 -24.5t-5.5 -20.5q-4 -10 -21 -16.5t-36 -6.5q-32 0 -57 19.5t-27 69.5
q-46 -90 -127 -90q-67 0 -98.5 59zM259.5 97.5q29.5 31.5 49.5 100.5l21 169q3 31 7 50q-16 17 -34 28t-46 11q-67 0 -97.5 -73.5t-30.5 -180.5q0 -61 16 -98.5t53 -37.5q32 0 61.5 31.5zM221.5 590q-19.5 20 -19.5 55q0 41 25 67.5t65 26.5q34 0 54 -20t20 -56
q0 -40 -25 -66.5t-65 -26.5q-35 0 -54.5 20zM306.5 629q10.5 12 10.5 32q0 15 -8 24t-21 9q-16 0 -26.5 -13t-10.5 -32q0 -15 8 -23.5t21 -8.5q16 0 26.5 12zM238 765q0 7 14 33l38 71q7 13 20 19.5t45 6.5q22 0 31.5 -3.5t9.5 -10.5q0 -5 -5 -12t-13 -16l-14 -16l-50 -60
q-13 -16 -23 -20t-32 -4q-21 0 -21 12z" />
    <glyph glyph-name="AEacute" unicode="&#x1fc;" horiz-adv-x="746" 
d="M-25 15q3 11 6 16l323 642q8 14 16.5 20.5t21.5 6.5h342q19 0 16 -30l-2 -16q-3 -30 -22 -30h-256l11 -228h218q19 0 16 -30l-2 -16q-3 -30 -22 -30h-206l13 -244h192q16 0 16 -19q0 -7 -1 -11l-1 -16q-2 -16 -7 -23t-15 -7h-243q-26 0 -26 29l-7 149h-216l-80 -164
q-7 -16 -35 -16h-14q-38 0 -36 17zM351 253l-12 273l4 58h-2l-25 -58l-136 -273h171zM432 762q0 5 4 11.5t5 8.5l38 59q9 13 21 18t37 5q40 0 40 -14q0 -10 -21 -31l-53 -54q-8 -8 -16.5 -10.5t-27.5 -2.5q-27 0 -27 10z" />
    <glyph glyph-name="aeacute" unicode="&#x1fd;" horiz-adv-x="688" 
d="M61 30.5q-42 36.5 -42 92.5q0 86 62.5 127.5t197.5 45.5q12 66 44 118q-16 22 -41 30.5t-51 8.5q-35 0 -55 -5.5t-37 -14.5q-18 -8 -26 -8q-9 0 -19 18t-10 28q0 13 23.5 26.5t58 22.5t64.5 9q102 0 149 -50q32 26 64.5 38t69.5 12q63 0 101.5 -38.5t38.5 -99.5
q0 -69 -33 -105t-88 -48t-136 -12h-38q-2 -18 -2 -27q0 -58 35 -95.5t92 -37.5q43 0 93 24q18 8 23 8q10 0 10 -14q0 -1 0.5 -13.5t-5.5 -29.5q-4 -10 -23 -21t-49.5 -18.5t-64.5 -7.5q-32 0 -73.5 13t-71.5 43q-29 -26 -70.5 -41t-81.5 -15q-67 0 -109 36.5zM485 304.5
q43 7.5 62 26.5t19 54q0 29 -16.5 46.5t-49.5 17.5q-43 0 -81 -37.5t-54 -113.5q77 -1 120 6.5zM287 108q-17 36 -17 92q0 17 1 26q-78 0 -122 -22.5t-44 -65.5q0 -33 20 -51t59 -18q49 0 103 39zM330 588q0 7 14 33l38 71q7 13 20 19.5t45 6.5q22 0 31.5 -3.5t9.5 -10.5
q0 -5 -5 -12t-13 -16l-14 -16l-50 -60q-13 -16 -23 -20t-32 -4q-21 0 -21 12z" />
    <glyph glyph-name="Oslashacute" unicode="&#x1fe;" horiz-adv-x="599" 
d="M564 396q0 -105 -28 -196t-90.5 -148.5t-159.5 -57.5q-89 0 -145 51l-32 -51q-7 -12 -15 -12q-7 0 -15 6t-8 13q0 8 5 14l38 61q-59 81 -59 235q0 106 29.5 195.5t92 144.5t158.5 55q84 0 139 -45l27 44q6 11 15 11q8 0 15.5 -5.5t7.5 -13.5q0 -5 -4 -12l-33 -53
q62 -79 62 -236zM168 164l260 422q-34 44 -96 44q-97 0 -140.5 -95t-43.5 -227q0 -88 20 -144zM431 169.5q42 99.5 42 228.5q0 95 -23 149l-262 -425q36 -52 102 -52q99 0 141 99.5zM294 762q0 5 4 11.5t5 8.5l38 59q9 13 21 18t37 5q40 0 40 -14q0 -10 -21 -31l-53 -54
q-8 -8 -16.5 -10.5t-27.5 -2.5q-27 0 -27 10z" />
    <glyph glyph-name="oslashacute" unicode="&#x1ff;" horiz-adv-x="477" 
d="M433 302q0 -133 -50.5 -220.5t-157.5 -87.5q-75 0 -118 39l-22 -31q-4 -8 -13 -8q-7 0 -16.5 7t-9.5 14q0 4 6 13l27 39q-35 55 -35 149q0 133 52 223t158 90q71 0 115 -38l20 29q6 8 13 8t16.5 -7t9.5 -14q0 -4 -6 -13l-25 -36q36 -57 36 -156zM137 153l184 267
q-25 37 -73 37q-65 0 -90.5 -71t-25.5 -171q0 -32 5 -62zM320.5 136q25.5 70 25.5 170q0 40 -6 68l-185 -269q26 -39 75 -39q65 0 90.5 70zM214 588q0 7 14 33l38 71q7 13 20 19.5t45 6.5q22 0 31.5 -3.5t9.5 -10.5q0 -5 -5 -12t-13 -16l-14 -16l-50 -60q-13 -16 -23 -20
t-32 -4q-21 0 -21 12z" />
    <glyph glyph-name="uni0200" unicode="&#x200;" horiz-adv-x="505" 
d="M-13 15q0 4 1 7l2 6l250 655q7 19 42 19h29q35 0 38 -19l115 -655q2 -10 2 -13q-1 -8 -11 -12.5t-28 -4.5h-17q-30 0 -31 16l-26 164h-218l-59 -164q-7 -16 -38 -16h-16q-37 0 -35 17zM340 250l-44 283q-4 27 -6 61h-5q-15 -47 -20 -61l-104 -283h179zM231 754.5
q-9 2.5 -15 10.5l-41 54q-5 6 -10 14t-5 14q0 17 44 17q24 0 35 -5t17 -18l26 -59q5 -11 5 -17q0 -7 -6.5 -10t-22.5 -3q-18 0 -27 2.5zM351 754.5q-9 2.5 -15 10.5l-41 54q-5 6 -10 14t-5 14q0 17 44 17q24 0 35 -5t17 -18l26 -59q5 -11 5 -17q0 -7 -6.5 -10t-22.5 -3
q-18 0 -27 2.5z" />
    <glyph glyph-name="uni0201" unicode="&#x201;" horiz-adv-x="481" 
d="M75.5 52q-31.5 59 -31.5 151q0 84 23 158.5t68 121t109 46.5q66 0 108 -54q9 27 17.5 38.5t27.5 11.5h6q28 0 25 -21l-48 -381q-1 -7 -1 -18q0 -39 29 -39q12 0 22 2.5t14 2.5q6 0 6 -9q0 -10 -2.5 -24.5t-5.5 -20.5q-4 -10 -21 -16.5t-36 -6.5q-32 0 -57 19.5t-27 69.5
q-46 -90 -127 -90q-67 0 -98.5 59zM259.5 97.5q29.5 31.5 49.5 100.5l21 169q3 31 7 50q-16 17 -34 28t-46 11q-67 0 -97.5 -73.5t-30.5 -180.5q0 -61 16 -98.5t53 -37.5q32 0 61.5 31.5zM205 580q-9 4 -20 20l-37 55q-23 35 -23 46q0 9 11 13t34 4q31 0 43 -7t17 -22
l22 -68q7 -21 7 -31q0 -7 -6 -10.5t-17 -3.5q-22 0 -31 4zM337 580q-9 4 -20 20l-37 55q-23 35 -23 46q0 9 11 13t34 4q31 0 43 -7t17 -22l22 -68q7 -21 7 -31q0 -7 -6 -10.5t-17 -3.5q-22 0 -31 4z" />
    <glyph glyph-name="uni0202" unicode="&#x202;" horiz-adv-x="505" 
d="M-13 15q0 4 1 7l2 6l250 655q7 19 42 19h29q35 0 38 -19l115 -655q2 -10 2 -13q-1 -8 -11 -12.5t-28 -4.5h-17q-30 0 -31 16l-26 164h-218l-59 -164q-7 -16 -38 -16h-16q-37 0 -35 17zM340 250l-44 283q-4 27 -6 61h-5q-15 -47 -20 -61l-104 -283h179zM397 858
q31 -27 31 -73q0 -17 -4 -23.5t-16 -6.5q-8 0 -11 4t-4.5 8t-1.5 5q-15 47 -85 47q-33 0 -52.5 -12t-32.5 -36q-4 -9 -7.5 -12.5t-12.5 -3.5q-17 0 -17 13q0 32 17 58.5t46.5 42.5t65.5 16q53 0 84 -27z" />
    <glyph glyph-name="uni0203" unicode="&#x203;" horiz-adv-x="481" 
d="M75.5 52q-31.5 59 -31.5 151q0 84 23 158.5t68 121t109 46.5q66 0 108 -54q9 27 17.5 38.5t27.5 11.5h6q28 0 25 -21l-48 -381q-1 -7 -1 -18q0 -39 29 -39q12 0 22 2.5t14 2.5q6 0 6 -9q0 -10 -2.5 -24.5t-5.5 -20.5q-4 -10 -21 -16.5t-36 -6.5q-32 0 -57 19.5t-27 69.5
q-46 -90 -127 -90q-67 0 -98.5 59zM259.5 97.5q29.5 31.5 49.5 100.5l21 169q3 31 7 50q-16 17 -34 28t-46 11q-67 0 -97.5 -73.5t-30.5 -180.5q0 -61 16 -98.5t53 -37.5q32 0 61.5 31.5zM363 680q27 -27 27 -74q0 -16 -4 -22.5t-15 -6.5q-9 0 -12.5 3.5t-4.5 8t-1 5.5
q-11 47 -70 47q-31 0 -52 -12.5t-30 -35.5q0 -1 -3 -8.5t-17 -7.5q-15 0 -15 16q0 18 12 45t39.5 48t71.5 21q47 0 74 -27z" />
    <glyph glyph-name="uni0204" unicode="&#x204;" horiz-adv-x="457" 
d="M59 7q-6 7 -4 23l68 640q2 16 9 23t21 7h288q19 0 16 -30l-2 -16q-3 -30 -22 -30h-225l-24 -228h202q19 0 16 -30l-2 -16q-3 -30 -22 -30h-202l-26 -244h225q10 0 14 -7t2 -23l-2 -16q-2 -16 -7 -23t-15 -7h-288q-14 0 -20 7zM222 754.5q-9 2.5 -15 10.5l-41 54
q-5 6 -10 14t-5 14q0 17 44 17q24 0 35 -5t17 -18l26 -59q5 -11 5 -17q0 -7 -6.5 -10t-22.5 -3q-18 0 -27 2.5zM342 754.5q-9 2.5 -15 10.5l-41 54q-5 6 -10 14t-5 14q0 17 44 17q24 0 35 -5t17 -18l26 -59q5 -11 5 -17q0 -7 -6.5 -10t-22.5 -3q-18 0 -27 2.5z" />
    <glyph glyph-name="uni0205" unicode="&#x205;" horiz-adv-x="454" 
d="M383 94q0 -15 -3.5 -29.5t-11.5 -22.5q-21 -23 -60.5 -35.5t-70.5 -12.5q-189 0 -189 200q0 95 26 170.5t79.5 120t132.5 44.5q50 0 81.5 -21.5t45 -52t13.5 -59.5q0 -89 -62 -136t-162 -47q-33 0 -67 6v-9q-2 -79 26 -111.5t83 -32.5q33 0 56.5 10t51.5 27q17 12 23 12
q8 0 8 -21zM182.5 410q-32.5 -47 -42.5 -125h53q61 0 104 24.5t43 79.5q0 29 -17 48.5t-46 19.5q-62 0 -94.5 -47zM208 580q-9 4 -20 20l-37 55q-23 35 -23 46q0 9 11 13t34 4q31 0 43 -7t17 -22l22 -68q7 -21 7 -31q0 -7 -6 -10.5t-17 -3.5q-22 0 -31 4zM340 580
q-9 4 -20 20l-37 55q-23 35 -23 46q0 9 11 13t34 4q31 0 43 -7t17 -22l22 -68q7 -21 7 -31q0 -7 -6 -10.5t-17 -3.5q-22 0 -31 4z" />
    <glyph glyph-name="uni0206" unicode="&#x206;" horiz-adv-x="457" 
d="M59 7q-6 7 -4 23l68 640q2 16 9 23t21 7h288q19 0 16 -30l-2 -16q-3 -30 -22 -30h-225l-24 -228h202q19 0 16 -30l-2 -16q-3 -30 -22 -30h-202l-26 -244h225q10 0 14 -7t2 -23l-2 -16q-2 -16 -7 -23t-15 -7h-288q-14 0 -20 7zM388 858q31 -27 31 -73q0 -17 -4 -23.5
t-16 -6.5q-8 0 -11 4t-4.5 8t-1.5 5q-15 47 -85 47q-33 0 -52.5 -12t-32.5 -36q-4 -9 -7.5 -12.5t-12.5 -3.5q-17 0 -17 13q0 32 17 58.5t46.5 42.5t65.5 16q53 0 84 -27z" />
    <glyph glyph-name="uni0207" unicode="&#x207;" horiz-adv-x="454" 
d="M383 94q0 -15 -3.5 -29.5t-11.5 -22.5q-21 -23 -60.5 -35.5t-70.5 -12.5q-189 0 -189 200q0 95 26 170.5t79.5 120t132.5 44.5q50 0 81.5 -21.5t45 -52t13.5 -59.5q0 -89 -62 -136t-162 -47q-33 0 -67 6v-9q-2 -79 26 -111.5t83 -32.5q33 0 56.5 10t51.5 27q17 12 23 12
q8 0 8 -21zM182.5 410q-32.5 -47 -42.5 -125h53q61 0 104 24.5t43 79.5q0 29 -17 48.5t-46 19.5q-62 0 -94.5 -47zM366 680q27 -27 27 -74q0 -16 -4 -22.5t-15 -6.5q-9 0 -12.5 3.5t-4.5 8t-1 5.5q-11 47 -70 47q-31 0 -52 -12.5t-30 -35.5q0 -1 -3 -8.5t-17 -7.5
q-15 0 -15 16q0 18 12 45t39.5 48t71.5 21q47 0 74 -27z" />
    <glyph glyph-name="uni0208" unicode="&#x208;" horiz-adv-x="262" 
d="M61 20l70 660q2 22 40 22h15q37 0 35 -22l-70 -660q-2 -22 -39 -22h-15q-38 0 -36 22zM109 754.5q-9 2.5 -15 10.5l-41 54q-5 6 -10 14t-5 14q0 17 44 17q24 0 35 -5t17 -18l26 -59q5 -11 5 -17q0 -7 -6.5 -10t-22.5 -3q-18 0 -27 2.5zM229 754.5q-9 2.5 -15 10.5l-41 54
q-5 6 -10 14t-5 14q0 17 44 17q24 0 35 -5t17 -18l26 -59q5 -11 5 -17q0 -7 -6.5 -10t-22.5 -3q-18 0 -27 2.5z" />
    <glyph glyph-name="uni0209" unicode="&#x209;" horiz-adv-x="254" 
d="M87 15.5q-26 21.5 -26 74.5q0 14 1 22l40 391q1 12 11.5 17t30.5 5h4q21 0 30 -6t8 -20l-39 -391q-1 -5 -1 -14q0 -15 5 -21.5t18 -6.5q12 0 21 2.5t13 2.5q6 0 6 -9q0 -11 -2.5 -25t-5.5 -20q-4 -10 -21 -16.5t-36 -6.5q-31 0 -57 21.5zM81 580q-9 4 -20 20l-37 55
q-23 35 -23 46q0 9 11 13t34 4q31 0 43 -7t17 -22l22 -68q7 -21 7 -31q0 -7 -6 -10.5t-17 -3.5q-22 0 -31 4zM213 580q-9 4 -20 20l-37 55q-23 35 -23 46q0 9 11 13t34 4q31 0 43 -7t17 -22l22 -68q7 -21 7 -31q0 -7 -6 -10.5t-17 -3.5q-22 0 -31 4z" />
    <glyph glyph-name="uni020A" unicode="&#x20a;" horiz-adv-x="262" 
d="M61 20l70 660q2 22 40 22h15q37 0 35 -22l-70 -660q-2 -22 -39 -22h-15q-38 0 -36 22zM275 858q31 -27 31 -73q0 -17 -4 -23.5t-16 -6.5q-8 0 -11 4t-4.5 8t-1.5 5q-15 47 -85 47q-33 0 -52.5 -12t-32.5 -36q-4 -9 -7.5 -12.5t-12.5 -3.5q-17 0 -17 13q0 32 17 58.5
t46.5 42.5t65.5 16q53 0 84 -27z" />
    <glyph glyph-name="uni020B" unicode="&#x20b;" horiz-adv-x="254" 
d="M87 15.5q-26 21.5 -26 74.5q0 14 1 22l40 391q1 12 11.5 17t30.5 5h4q21 0 30 -6t8 -20l-39 -391q-1 -5 -1 -14q0 -15 5 -21.5t18 -6.5q12 0 21 2.5t13 2.5q6 0 6 -9q0 -11 -2.5 -25t-5.5 -20q-4 -10 -21 -16.5t-36 -6.5q-31 0 -57 21.5zM239 680q27 -27 27 -74
q0 -16 -4 -22.5t-15 -6.5q-9 0 -12.5 3.5t-4.5 8t-1 5.5q-11 47 -70 47q-31 0 -52 -12.5t-30 -35.5q0 -1 -3 -8.5t-17 -7.5q-15 0 -15 16q0 18 12 45t39.5 48t71.5 21q47 0 74 -27z" />
    <glyph glyph-name="uni020C" unicode="&#x20c;" horiz-adv-x="599" 
d="M111.5 79q-56.5 85 -56.5 232q0 106 29.5 195.5t92 144.5t158.5 55q106 0 167.5 -74.5t61.5 -235.5q0 -105 -28 -196t-90.5 -148.5t-159.5 -57.5q-118 0 -174.5 85zM431 169.5q42 99.5 42 228.5q0 232 -141 232q-97 0 -140.5 -95t-43.5 -227q0 -238 142 -238
q99 0 141 99.5zM266 754.5q-9 2.5 -15 10.5l-41 54q-5 6 -10 14t-5 14q0 17 44 17q24 0 35 -5t17 -18l26 -59q5 -11 5 -17q0 -7 -6.5 -10t-22.5 -3q-18 0 -27 2.5zM386 754.5q-9 2.5 -15 10.5l-41 54q-5 6 -10 14t-5 14q0 17 44 17q24 0 35 -5t17 -18l26 -59q5 -11 5 -17
q0 -7 -6.5 -10t-22.5 -3q-18 0 -27 2.5z" />
    <glyph glyph-name="uni020D" unicode="&#x20d;" horiz-adv-x="477" 
d="M90.5 50q-46.5 56 -46.5 166q0 133 52 223t158 90q87 0 133 -57.5t46 -169.5q0 -133 -50.5 -220.5t-157.5 -87.5q-88 0 -134.5 56zM320.5 136q25.5 70 25.5 170q0 151 -98 151q-65 0 -90.5 -71t-25.5 -171q0 -149 98 -149q65 0 90.5 70zM184 580q-9 4 -20 20l-37 55
q-23 35 -23 46q0 9 11 13t34 4q31 0 43 -7t17 -22l22 -68q7 -21 7 -31q0 -7 -6 -10.5t-17 -3.5q-22 0 -31 4zM316 580q-9 4 -20 20l-37 55q-23 35 -23 46q0 9 11 13t34 4q31 0 43 -7t17 -22l22 -68q7 -21 7 -31q0 -7 -6 -10.5t-17 -3.5q-22 0 -31 4z" />
    <glyph glyph-name="uni020E" unicode="&#x20e;" horiz-adv-x="599" 
d="M111.5 79q-56.5 85 -56.5 232q0 106 29.5 195.5t92 144.5t158.5 55q106 0 167.5 -74.5t61.5 -235.5q0 -105 -28 -196t-90.5 -148.5t-159.5 -57.5q-118 0 -174.5 85zM431 169.5q42 99.5 42 228.5q0 232 -141 232q-97 0 -140.5 -95t-43.5 -227q0 -238 142 -238
q99 0 141 99.5zM432 858q31 -27 31 -73q0 -17 -4 -23.5t-16 -6.5q-8 0 -11 4t-4.5 8t-1.5 5q-15 47 -85 47q-33 0 -52.5 -12t-32.5 -36q-4 -9 -7.5 -12.5t-12.5 -3.5q-17 0 -17 13q0 32 17 58.5t46.5 42.5t65.5 16q53 0 84 -27z" />
    <glyph glyph-name="uni020F" unicode="&#x20f;" horiz-adv-x="477" 
d="M90.5 50q-46.5 56 -46.5 166q0 133 52 223t158 90q87 0 133 -57.5t46 -169.5q0 -133 -50.5 -220.5t-157.5 -87.5q-88 0 -134.5 56zM320.5 136q25.5 70 25.5 170q0 151 -98 151q-65 0 -90.5 -71t-25.5 -171q0 -149 98 -149q65 0 90.5 70zM342 680q27 -27 27 -74
q0 -16 -4 -22.5t-15 -6.5q-9 0 -12.5 3.5t-4.5 8t-1 5.5q-11 47 -70 47q-31 0 -52 -12.5t-30 -35.5q0 -1 -3 -8.5t-17 -7.5q-15 0 -15 16q0 18 12 45t39.5 48t71.5 21q47 0 74 -27z" />
    <glyph glyph-name="uni0210" unicode="&#x210;" horiz-adv-x="513" 
d="M55 20l69 650q2 16 9 23t21 7h144q90 0 136.5 -45.5t46.5 -133.5q0 -66 -30 -114t-82 -63l-1 -4q20 -9 32 -36.5t24 -78.5l42 -197l2 -14q0 -16 -41 -16h-17q-14 0 -24 4.5t-11 11.5l-48 236q-7 32 -22 45t-46 13h-83l-31 -288q-3 -22 -40 -22h-14q-38 0 -36 22zM284 384
q52 0 78.5 34.5t26.5 100.5q0 55 -24.5 80t-78.5 25h-78l-25 -240h101zM231 754.5q-9 2.5 -15 10.5l-41 54q-5 6 -10 14t-5 14q0 17 44 17q24 0 35 -5t17 -18l26 -59q5 -11 5 -17q0 -7 -6.5 -10t-22.5 -3q-18 0 -27 2.5zM351 754.5q-9 2.5 -15 10.5l-41 54q-5 6 -10 14
t-5 14q0 17 44 17q24 0 35 -5t17 -18l26 -59q5 -11 5 -17q0 -7 -6.5 -10t-22.5 -3q-18 0 -27 2.5z" />
    <glyph glyph-name="uni0211" unicode="&#x211;" horiz-adv-x="337" 
d="M58 20l38 353q4 40 4 73q0 25 -1.5 38t-1.5 15q0 12 19.5 17.5t36.5 5.5q14 0 19 -15.5t6.5 -31.5t2.5 -21q56 75 113 75q24 0 36 -9.5t12 -25.5q0 -15 -8.5 -36.5t-17.5 -21.5q-5 0 -17.5 5.5t-30.5 5.5q-26 0 -52 -22t-35 -39l-39 -366q-2 -22 -42 -22h-4q-40 0 -38 22
zM149 577q-9 4 -20 20l-37 55q-23 35 -23 46q0 9 11 13t34 4q31 0 43 -7t17 -22l22 -68q7 -21 7 -31q0 -7 -6 -10.5t-17 -3.5q-22 0 -31 4zM281 577q-9 4 -20 20l-37 55q-23 35 -23 46q0 9 11 13t34 4q31 0 43 -7t17 -22l22 -68q7 -21 7 -31q0 -7 -6 -10.5t-17 -3.5
q-22 0 -31 4z" />
    <glyph glyph-name="uni0212" unicode="&#x212;" horiz-adv-x="513" 
d="M55 20l69 650q2 16 9 23t21 7h144q90 0 136.5 -45.5t46.5 -133.5q0 -66 -30 -114t-82 -63l-1 -4q20 -9 32 -36.5t24 -78.5l42 -197l2 -14q0 -16 -41 -16h-17q-14 0 -24 4.5t-11 11.5l-48 236q-7 32 -22 45t-46 13h-83l-31 -288q-3 -22 -40 -22h-14q-38 0 -36 22zM284 384
q52 0 78.5 34.5t26.5 100.5q0 55 -24.5 80t-78.5 25h-78l-25 -240h101zM397 858q31 -27 31 -73q0 -17 -4 -23.5t-16 -6.5q-8 0 -11 4t-4.5 8t-1.5 5q-15 47 -85 47q-33 0 -52.5 -12t-32.5 -36q-4 -9 -7.5 -12.5t-12.5 -3.5q-17 0 -17 13q0 32 17 58.5t46.5 42.5t65.5 16
q53 0 84 -27z" />
    <glyph glyph-name="uni0213" unicode="&#x213;" horiz-adv-x="337" 
d="M58 20l38 353q4 40 4 73q0 25 -1.5 38t-1.5 15q0 12 19.5 17.5t36.5 5.5q14 0 19 -15.5t6.5 -31.5t2.5 -21q56 75 113 75q24 0 36 -9.5t12 -25.5q0 -15 -8.5 -36.5t-17.5 -21.5q-5 0 -17.5 5.5t-30.5 5.5q-26 0 -52 -22t-35 -39l-39 -366q-2 -22 -42 -22h-4q-40 0 -38 22
zM307 677q27 -27 27 -74q0 -16 -4 -22.5t-15 -6.5q-9 0 -12.5 3.5t-4.5 8t-1 5.5q-11 47 -70 47q-31 0 -52 -12.5t-30 -35.5q0 -1 -3 -8.5t-17 -7.5q-15 0 -15 16q0 18 12 45t39.5 48t71.5 21q47 0 74 -27z" />
    <glyph glyph-name="uni0214" unicode="&#x214;" horiz-adv-x="583" 
d="M112.5 39.5q-52.5 45.5 -52.5 127.5q0 18 1 28l51 485q2 22 40 22h14q38 0 36 -22l-51 -488q-1 -5 -1 -15q0 -48 33.5 -77.5t88.5 -29.5q65 0 102 30.5t44 91.5l51 488q2 22 40 22h14q38 0 36 -22l-51 -485q-10 -95 -73.5 -148t-170.5 -53q-99 0 -151.5 45.5zM272 756.5
q-9 2.5 -15 10.5l-41 54q-5 6 -10 14t-5 14q0 17 44 17q24 0 35 -5t17 -18l26 -59q5 -11 5 -17q0 -7 -6.5 -10t-22.5 -3q-18 0 -27 2.5zM392 756.5q-9 2.5 -15 10.5l-41 54q-5 6 -10 14t-5 14q0 17 44 17q24 0 35 -5t17 -18l26 -59q5 -11 5 -17q0 -7 -6.5 -10t-22.5 -3
q-18 0 -27 2.5z" />
    <glyph glyph-name="uni0215" unicode="&#x215;" horiz-adv-x="482" 
d="M449 62q-1 -9 -3.5 -25.5t-4.5 -19.5q-4 -10 -21 -16.5t-36 -6.5q-29 0 -52.5 17.5t-29.5 55.5q-26 -35 -61.5 -54.5t-72.5 -19.5q-56 0 -86 32t-30 89q0 16 1 24l39 364q3 22 40 22h10q38 0 36 -22l-37 -351q-1 -6 -1 -17q0 -68 63 -68q28 0 54.5 19t45.5 51l39 366
q2 22 40 22h10q38 0 36 -22l-41 -394l-1 -12q0 -30 25 -30q9 0 18 2.5t14 2.5q6 0 6 -9zM197 580q-9 4 -20 20l-37 55q-23 35 -23 46q0 9 11 13t34 4q31 0 43 -7t17 -22l22 -68q7 -21 7 -31q0 -7 -6 -10.5t-17 -3.5q-22 0 -31 4zM329 580q-9 4 -20 20l-37 55q-23 35 -23 46
q0 9 11 13t34 4q31 0 43 -7t17 -22l22 -68q7 -21 7 -31q0 -7 -6 -10.5t-17 -3.5q-22 0 -31 4z" />
    <glyph glyph-name="uni0216" unicode="&#x216;" horiz-adv-x="583" 
d="M112.5 39.5q-52.5 45.5 -52.5 127.5q0 18 1 28l51 485q2 22 40 22h14q38 0 36 -22l-51 -488q-1 -5 -1 -15q0 -48 33.5 -77.5t88.5 -29.5q65 0 102 30.5t44 91.5l51 488q2 22 40 22h14q38 0 36 -22l-51 -485q-10 -95 -73.5 -148t-170.5 -53q-99 0 -151.5 45.5zM438 860
q31 -27 31 -73q0 -17 -4 -23.5t-16 -6.5q-8 0 -11 4t-4.5 8t-1.5 5q-15 47 -85 47q-33 0 -52.5 -12t-32.5 -36q-4 -9 -7.5 -12.5t-12.5 -3.5q-17 0 -17 13q0 32 17 58.5t46.5 42.5t65.5 16q53 0 84 -27z" />
    <glyph glyph-name="uni0217" unicode="&#x217;" horiz-adv-x="482" 
d="M449 62q-1 -9 -3.5 -25.5t-4.5 -19.5q-4 -10 -21 -16.5t-36 -6.5q-29 0 -52.5 17.5t-29.5 55.5q-26 -35 -61.5 -54.5t-72.5 -19.5q-56 0 -86 32t-30 89q0 16 1 24l39 364q3 22 40 22h10q38 0 36 -22l-37 -351q-1 -6 -1 -17q0 -68 63 -68q28 0 54.5 19t45.5 51l39 366
q2 22 40 22h10q38 0 36 -22l-41 -394l-1 -12q0 -30 25 -30q9 0 18 2.5t14 2.5q6 0 6 -9zM355 680q27 -27 27 -74q0 -16 -4 -22.5t-15 -6.5q-9 0 -12.5 3.5t-4.5 8t-1 5.5q-11 47 -70 47q-31 0 -52 -12.5t-30 -35.5q0 -1 -3 -8.5t-17 -7.5q-15 0 -15 16q0 18 12 45t39.5 48
t71.5 21q47 0 74 -27z" />
    <glyph glyph-name="uni0218" unicode="&#x218;" horiz-adv-x="437" 
d="M102 6.5q-42 11.5 -70 29.5q-11 8 -15.5 14.5t-4.5 18.5q0 16 6 29t15 13q6 0 17 -5t14 -6q66 -27 112 -27q58 0 94 28.5t36 86.5q0 42 -23 70.5t-66 53.5q-69 41 -109.5 86t-40.5 111q0 60 25 105.5t70.5 71t106.5 25.5q41 0 83 -8t65 -22q6 -4 6 -11q0 -12 -10.5 -37.5
t-18.5 -25.5q-3 0 -7.5 2t-6.5 3q-49 22 -98 22q-51 0 -89.5 -25t-38.5 -84q0 -41 26 -71.5t77 -59.5q64 -36 101 -79t37 -108q0 -99 -55.5 -155.5t-155.5 -56.5q-40 0 -82 11.5zM114 -231.5q-8 3.5 -8 10.5q0 9 12 35q12 25 20 48t11 55q2 14 12.5 23t29.5 9h10
q15 0 23.5 -6.5t8.5 -17.5q0 -31 -16.5 -69t-40.5 -64.5t-44 -26.5q-10 0 -18 3.5z" />
    <glyph glyph-name="uni0219" unicode="&#x219;" horiz-adv-x="353" 
d="M71.5 1q-29.5 10 -47 24.5t-17.5 26.5q0 8 13.5 27t21.5 19q3 0 19.5 -9.5t35 -16.5t43.5 -7q41 0 63 22t22 56q0 32 -18 51t-57 44q-43 28 -69.5 61.5t-26.5 81.5q0 69 46.5 109t118.5 40q39 0 72 -13t32 -30q-1 -11 -13 -29t-22 -18q-4 0 -25.5 9t-47.5 9
q-40 0 -59 -18t-19 -47t17 -47t49 -39q48 -30 76 -63t28 -90q0 -76 -46.5 -119.5t-123.5 -43.5q-36 0 -65.5 10zM68 -231.5q-8 3.5 -8 10.5q0 9 12 35q12 25 20 48t11 55q2 14 12.5 23t29.5 9h10q15 0 23.5 -6.5t8.5 -17.5q0 -31 -16.5 -69t-40.5 -64.5t-44 -26.5
q-10 0 -18 3.5z" />
    <glyph glyph-name="uni021A" unicode="&#x21a;" horiz-adv-x="454" 
d="M157 20l64 604h-144q-17 0 -17 20q0 6 1 10l2 16q2 16 7 23t15 7h376q18 0 18 -20q0 -6 -1 -10l-2 -16q-2 -16 -7.5 -23t-15.5 -7h-142l-64 -604q-2 -22 -40 -22h-14q-38 0 -36 22zM116 -231.5q-8 3.5 -8 10.5q0 9 12 35q12 25 20 48t11 55q2 14 12.5 23t29.5 9h10
q15 0 23.5 -6.5t8.5 -17.5q0 -31 -16.5 -69t-40.5 -64.5t-44 -26.5q-10 0 -18 3.5z" />
    <glyph glyph-name="uni021B" unicode="&#x21b;" horiz-adv-x="298" 
d="M108 18q-31 24 -31 84q0 15 1 24l32 325h-39q-10 0 -14 6.5t-3 20.5l1 15q1 30 24 30h40l21 105q4 22 30 22h19q26 0 23 -27l-11 -100h60q12 0 17 -7t3 -23l-1 -12q-3 -30 -23 -30h-63l-33 -323q-1 -6 -1 -17q0 -27 11 -36t32 -9q16 0 27 2.5t15 2.5q6 0 6 -9
q0 -25 -6 -39q-5 -14 -21.5 -21.5t-37.5 -7.5q-47 0 -78 24zM63 -231.5q-8 3.5 -8 10.5q0 9 12 35q12 25 20 48t11 55q2 14 12.5 23t29.5 9h10q15 0 23.5 -6.5t8.5 -17.5q0 -31 -16.5 -69t-40.5 -64.5t-44 -26.5q-10 0 -18 3.5z" />
    <glyph glyph-name="uni022A" unicode="&#x22a;" horiz-adv-x="599" 
d="M111.5 79q-56.5 85 -56.5 232q0 106 29.5 195.5t92 144.5t158.5 55q106 0 167.5 -74.5t61.5 -235.5q0 -105 -28 -196t-90.5 -148.5t-159.5 -57.5q-118 0 -174.5 85zM431 169.5q42 99.5 42 228.5q0 232 -141 232q-97 0 -140.5 -95t-43.5 -227q0 -238 142 -238
q99 0 141 99.5zM231.5 764q-7.5 6 -6.5 16l6 56q1 10 9.5 16t34.5 6q25 0 33 -6t7 -16l-6 -56q-1 -9 -9 -15.5t-35 -6.5q-26 0 -33.5 6zM375 780l6 56q2 9 9 15.5t35 6.5q43 0 40 -22l-6 -56q-2 -9 -9 -15.5t-35 -6.5q-43 0 -40 22zM243 923q-4 7 -2 23l1 10q3 30 22 30h199
q10 0 14 -7t2 -23l-1 -10q-3 -30 -22 -30h-199q-10 0 -14 7z" />
    <glyph glyph-name="uni022B" unicode="&#x22b;" horiz-adv-x="477" 
d="M90.5 50q-46.5 56 -46.5 166q0 133 52 223t158 90q87 0 133 -57.5t46 -169.5q0 -133 -50.5 -220.5t-157.5 -87.5q-88 0 -134.5 56zM320.5 136q25.5 70 25.5 170q0 151 -98 151q-65 0 -90.5 -71t-25.5 -171q0 -149 98 -149q65 0 90.5 70zM153 602.5q-10 5.5 -8 16.5l6 56
q2 12 12.5 17t33.5 5q45 0 42 -22l-6 -56q-2 -11 -12.5 -16.5t-33.5 -5.5q-24 0 -34 5.5zM285 619l6 56q2 11 12.5 16.5t33.5 5.5q45 0 42 -22l-6 -56q-2 -11 -12.5 -16.5t-33.5 -5.5q-45 0 -42 22zM159 794l1 10q3 30 22 30h199q11 0 14.5 -7t1.5 -23l-1 -10
q-3 -30 -22 -30h-199q-19 0 -16 30z" />
    <glyph glyph-name="uni022C" unicode="&#x22c;" horiz-adv-x="599" 
d="M111.5 79q-56.5 85 -56.5 232q0 106 29.5 195.5t92 144.5t158.5 55q106 0 167.5 -74.5t61.5 -235.5q0 -105 -28 -196t-90.5 -148.5t-159.5 -57.5q-118 0 -174.5 85zM431 169.5q42 99.5 42 228.5q0 232 -141 232q-97 0 -140.5 -95t-43.5 -227q0 -238 142 -238
q99 0 141 99.5zM365 763.5q-16 5.5 -39 16.5q-3 1 -13 6t-19 7.5t-16 2.5q-21 0 -38 -24q-2 -2 -7.5 -8t-11.5 -6q-7 0 -18 6t-11 12q0 5 5 15q33 67 90 67q21 0 36 -5.5t35 -15.5q3 -1 13 -6t19 -7.5t18 -2.5q13 0 22.5 6.5t19.5 17.5q13 15 21 15q5 0 16.5 -7t11.5 -12
t-6 -17q-33 -66 -92 -66q-20 0 -36 5.5zM242 918q-4 7 -2 23l1 10q3 30 22 30h199q10 0 14 -7t2 -23l-1 -10q-3 -30 -22 -30h-199q-10 0 -14 7z" />
    <glyph glyph-name="uni022D" unicode="&#x22d;" horiz-adv-x="477" 
d="M90.5 50q-46.5 56 -46.5 166q0 133 52 223t158 90q87 0 133 -57.5t46 -169.5q0 -133 -50.5 -220.5t-157.5 -87.5q-88 0 -134.5 56zM320.5 136q25.5 70 25.5 170q0 151 -98 151q-65 0 -90.5 -71t-25.5 -171q0 -149 98 -149q65 0 90.5 70zM120.5 603.5
q-11.5 5.5 -11.5 11.5q0 5 5 17q12 28 36 46t51 18q26 0 70 -20q19 -9 31.5 -13t23.5 -4q13 0 21.5 6t18.5 17q1 1 5 6t7.5 7t7.5 2q6 0 17 -6.5t11 -11.5q0 -7 -5 -19q-28 -60 -88 -60q-16 0 -32.5 5t-38.5 15q-38 17 -55 17q-13 0 -21 -6.5t-18 -18.5q-1 -1 -6.5 -7.5
t-11.5 -6.5t-17.5 5.5zM160 794l1 10q3 30 22 30h199q11 0 14.5 -7t1.5 -23l-1 -10q-3 -30 -22 -30h-199q-19 0 -16 30z" />
    <glyph glyph-name="uni0230" unicode="&#x230;" horiz-adv-x="599" 
d="M111.5 79q-56.5 85 -56.5 232q0 106 29.5 195.5t92 144.5t158.5 55q106 0 167.5 -74.5t61.5 -235.5q0 -105 -28 -196t-90.5 -148.5t-159.5 -57.5q-118 0 -174.5 85zM431 169.5q42 99.5 42 228.5q0 232 -141 232q-97 0 -140.5 -95t-43.5 -227q0 -238 142 -238
q99 0 141 99.5zM304 763.5q-6 6.5 -6 15.5l6 60q2 22 48 22q25 0 33 -6t7 -16l-6 -60q-2 -22 -47 -22q-29 0 -35 6.5zM242 923q-4 7 -2 23l1 10q3 30 22 30h199q10 0 14 -7t2 -23l-1 -10q-3 -30 -22 -30h-199q-10 0 -14 7z" />
    <glyph glyph-name="uni0231" unicode="&#x231;" horiz-adv-x="477" 
d="M90.5 50q-46.5 56 -46.5 166q0 133 52 223t158 90q87 0 133 -57.5t46 -169.5q0 -133 -50.5 -220.5t-157.5 -87.5q-88 0 -134.5 56zM320.5 136q25.5 70 25.5 170q0 151 -98 151q-65 0 -90.5 -71t-25.5 -171q0 -149 98 -149q65 0 90.5 70zM215 617l6 60q2 22 47 22
q23 0 32.5 -5.5t8.5 -16.5l-6 -60q-2 -22 -46 -22t-42 22zM159 794l1 10q3 30 22 30h199q11 0 14.5 -7t1.5 -23l-1 -10q-3 -30 -22 -30h-199q-19 0 -16 30z" />
    <glyph glyph-name="uni0232" unicode="&#x232;" horiz-adv-x="484" 
d="M172 20l32 297l-134 350q-5 12 -5 18q0 9 9 13t31 4h17q17 0 25 -3t12 -12l99 -283l161 284q5 8 15 11t26 3h13q20 -1 28 -5t8 -12q0 -4 -8 -18l-208 -353l-31 -294q-2 -22 -40 -22h-14q-39 0 -36 22zM183 781q-4 7 -2 23l1 10q3 30 22 30h199q10 0 14 -7t2 -23l-1 -10
q-3 -30 -22 -30h-199q-10 0 -14 7z" />
    <glyph glyph-name="uni0233" unicode="&#x233;" horiz-adv-x="399" 
d="M406 508q-2 -8 -6 -18l-267 -677q-10 -21 -43 -21h-21q-32 0 -30 16q0 1 6 17l87 209l-90 456q-3 14 -2 18q2 17 41 17h14q31 0 34 -16l42 -281q8 -54 11 -80h6q7 20 11 36l15 44l105 281q5 16 39 16h12q38 0 36 -17zM118 642l1 10q3 30 22 30h199q11 0 14.5 -7t1.5 -23
l-1 -10q-3 -30 -22 -30h-199q-19 0 -16 30z" />
    <glyph glyph-name="uni0237" unicode="&#x237;" horiz-adv-x="249" 
d="M-63 -182q1 11 9 29t17 18q4 0 12 -2.5t24 -2.5q38 0 45 68l60 575q3 22 43 22h4q40 0 37 -22l-61 -583q-8 -74 -44.5 -103t-78.5 -29q-69 0 -67 30z" />
    <glyph glyph-name="uni0259" unicode="&#x259;" horiz-adv-x="454" 
d="M406 329q0 -95 -26 -170.5t-79.5 -120t-132.5 -44.5q-50 0 -81.5 21.5t-45 52t-13.5 59.5q0 89 62 136t162 47q33 0 67 -6v9q2 79 -26 111.5t-83 32.5q-33 0 -56.5 -10t-51.5 -27q-17 -12 -23 -12q-8 0 -8 21q0 15 3.5 29.5t11.5 22.5q21 23 60.5 35.5t70.5 12.5
q189 0 189 -200zM271.5 113q32.5 47 42.5 125h-53q-61 0 -104 -24.5t-43 -79.5q0 -29 17 -48.5t46 -19.5q62 0 94.5 47z" />
    <glyph glyph-name="uni0272" unicode="&#x272;" horiz-adv-x="482" 
d="M-66 -182q1 11 9 29t17 18q4 0 12 -2.5t24 -2.5q38 0 45 68l46 439q5 53 5 86q0 19 -1 30t0 16q1 12 23 17.5t37 5.5q14 0 18.5 -13t4.5 -36q0 -16 -1 -23q26 37 61 58t72 21q54 0 83.5 -34t29.5 -94q0 -8 -2 -28l-28 -265l-1 -12q0 -30 25 -30q9 0 18 2.5t14 2.5
q6 0 6 -9q0 -10 -2.5 -24.5t-5.5 -20.5q-4 -9 -21 -16t-36 -7q-31 0 -57 21.5t-26 75.5q0 14 1 22l25 252q1 7 1 20q0 71 -60 71q-26 0 -51.5 -19t-43.5 -51l-50 -466q-8 -74 -44.5 -103t-79.5 -29q-70 0 -67 30z" />
    <glyph glyph-name="uni02B9" unicode="&#x2b9;" horiz-adv-x="100" 
d="M25 503q0 6 36 228q2 12 12 16.5t31 4.5h11q34 0 34 -20q0 -3 -4 -14l-79 -215q-4 -11 -22 -11h-4q-15 0 -15 11z" />
    <glyph glyph-name="uni02BA" unicode="&#x2ba;" horiz-adv-x="222" 
d="M25 503q0 6 36 228q2 12 12 16.5t31 4.5h11q34 0 34 -20q0 -3 -4 -14l-79 -215q-4 -11 -22 -11h-4q-15 0 -15 11zM147 503q0 6 36 228q2 12 12 16.5t31 4.5h11q34 0 34 -20q0 -3 -4 -14l-79 -215q-4 -11 -22 -11h-4q-15 0 -15 11z" />
    <glyph glyph-name="uni02BC" unicode="&#x2bc;" horiz-adv-x="113" 
d="M39 540.5q-8 3.5 -8 10.5q0 9 12 35q12 25 20 48t11 55q2 14 12.5 23t29.5 9h10q15 0 23.5 -6.5t8.5 -17.5q0 -31 -16.5 -69t-40.5 -64.5t-44 -26.5q-10 0 -18 3.5z" />
    <glyph glyph-name="circumflex" unicode="&#x2c6;" horiz-adv-x="217" 
d="M34 588q0 7 14 33l38 71q7 13 19.5 19.5t35.5 6.5h31q23 0 34 -6.5t15 -19.5l22 -71q8 -26 8 -31q0 -14 -28 -14q-19 0 -26 5t-15 19l-32 56l-45 -56q-11 -14 -19.5 -19t-24.5 -5q-27 0 -27 12z" />
    <glyph glyph-name="caron" unicode="&#x2c7;" horiz-adv-x="217" 
d="M92.5 582.5q-11.5 6.5 -15.5 19.5l-22 71q-8 26 -8 31q0 14 28 14q17 0 25 -5t16 -19l33 -56l44 56q11 14 19 19t26 5q26 0 26 -12q0 -7 -14 -33l-38 -71q-7 -13 -19.5 -19.5t-34.5 -6.5h-31q-23 0 -34.5 6.5z" />
    <glyph glyph-name="uni02C9" unicode="&#x2c9;" horiz-adv-x="237" 
d="M40 642l1 10q3 30 22 30h199q11 0 14.5 -7t1.5 -23l-1 -10q-3 -30 -22 -30h-199q-19 0 -16 30z" />
    <glyph glyph-name="breve" unicode="&#x2d8;" horiz-adv-x="223" 
d="M72 610q-27 27 -27 74q0 16 4 22.5t15 6.5q9 0 12.5 -3.5t4.5 -8t1 -5.5q11 -47 70 -47q31 0 52 12.5t30 35.5q0 1 3 8.5t17 7.5q15 0 15 -16q0 -18 -12 -45t-39.5 -48t-71.5 -21q-47 0 -74 27z" />
    <glyph glyph-name="dotaccent" unicode="&#x2d9;" horiz-adv-x="89" 
d="M38 617l6 60q2 22 47 22q23 0 32.5 -5.5t8.5 -16.5l-6 -60q-2 -22 -46 -22t-42 22z" />
    <glyph glyph-name="ring" unicode="&#x2da;" horiz-adv-x="163" 
d="M60.5 590q-19.5 20 -19.5 55q0 41 25 67.5t65 26.5q34 0 54 -20t20 -56q0 -40 -25 -66.5t-65 -26.5q-35 0 -54.5 20zM145.5 629q10.5 12 10.5 32q0 15 -8 24t-21 9q-16 0 -26.5 -13t-10.5 -32q0 -15 8 -23.5t21 -8.5q16 0 26.5 12z" />
    <glyph glyph-name="ogonek" unicode="&#x2db;" horiz-adv-x="175" 
d="M-17.5 -164q-21.5 19 -21.5 50q0 39 29.5 75t75.5 56l41 -7q-32 -19 -54 -47t-22 -51q0 -12 8 -19.5t24 -7.5q13 0 29 6q14 4 21 4t13.5 -11.5t6.5 -22.5q0 -16 -25 -30t-59 -14q-45 0 -66.5 19z" />
    <glyph glyph-name="tilde" unicode="&#x2dc;" horiz-adv-x="300" 
d="M48.5 603.5q-11.5 5.5 -11.5 11.5q0 5 5 17q12 28 36 46t51 18q26 0 70 -20q19 -9 31.5 -13t23.5 -4q13 0 21.5 6t18.5 17q1 1 5 6t7.5 7t7.5 2q6 0 17 -6.5t11 -11.5q0 -7 -5 -19q-28 -60 -88 -60q-16 0 -32.5 5t-38.5 15q-38 17 -55 17q-13 0 -21 -6.5t-18 -18.5
q-1 -1 -6.5 -7.5t-11.5 -6.5t-17.5 5.5z" />
    <glyph glyph-name="hungarumlaut" unicode="&#x2dd;" horiz-adv-x="278" 
d="M34 588q0 7 14 33l38 71q7 13 20 19.5t45 6.5q22 0 31.5 -3.5t9.5 -10.5q0 -5 -5 -12t-13 -16l-14 -16l-50 -60q-13 -16 -23 -20t-32 -4q-21 0 -21 12zM166 588q0 7 14 33l38 71q7 13 20 19.5t45 6.5q22 0 31.5 -3.5t9.5 -10.5q0 -5 -5 -12t-13 -16l-14 -16l-50 -60
q-13 -16 -23 -20t-32 -4q-21 0 -21 12z" />
    <glyph glyph-name="gravecomb" unicode="&#x300;" horiz-adv-x="0" 
d="M-20 580q-9 4 -20 20l-37 55q-23 35 -23 46q0 9 11 13t34 4q31 0 43 -7t17 -22l22 -68q7 -21 7 -31q0 -7 -6 -10.5t-17 -3.5q-22 0 -31 4z" />
    <glyph glyph-name="acutecomb" unicode="&#x301;" horiz-adv-x="0" 
d="M-112 588q0 7 14 33l38 71q7 13 20 19.5t45 6.5q22 0 31.5 -3.5t9.5 -10.5q0 -5 -5 -12t-13 -16l-14 -16l-50 -60q-13 -16 -23 -20t-32 -4q-21 0 -21 12z" />
    <glyph glyph-name="uni0302" unicode="&#x302;" horiz-adv-x="0" 
d="M-183 588q0 7 14 33l38 71q7 13 19.5 19.5t35.5 6.5h31q23 0 34 -6.5t15 -19.5l22 -71q8 -26 8 -31q0 -14 -28 -14q-19 0 -26 5t-15 19l-32 56l-45 -56q-11 -14 -19.5 -19t-24.5 -5q-27 0 -27 12z" />
    <glyph glyph-name="tildecomb" unicode="&#x303;" horiz-adv-x="0" 
d="M-251.5 603.5q-11.5 5.5 -11.5 11.5q0 5 5 17q12 28 36 46t51 18q26 0 70 -20q19 -9 31.5 -13t23.5 -4q13 0 21.5 6t18.5 17q1 1 5 6t7.5 7t7.5 2q6 0 17 -6.5t11 -11.5q0 -7 -5 -19q-28 -60 -88 -60q-16 0 -32.5 5t-38.5 15q-38 17 -55 17q-13 0 -21 -6.5t-18 -18.5
q-1 -1 -6.5 -7.5t-11.5 -6.5t-17.5 5.5z" />
    <glyph glyph-name="uni0304" unicode="&#x304;" horiz-adv-x="0" 
d="M-197 642l1 10q3 30 22 30h199q11 0 14.5 -7t1.5 -23l-1 -10q-3 -30 -22 -30h-199q-19 0 -16 30z" />
    <glyph glyph-name="uni0306" unicode="&#x306;" horiz-adv-x="0" 
d="M-151 610q-27 27 -27 74q0 16 4 22.5t15 6.5q9 0 12.5 -3.5t4.5 -8t1 -5.5q11 -47 70 -47q31 0 52 12.5t30 35.5q0 1 3 8.5t17 7.5q15 0 15 -16q0 -18 -12 -45t-39.5 -48t-71.5 -21q-47 0 -74 27z" />
    <glyph glyph-name="uni0307" unicode="&#x307;" horiz-adv-x="0" 
d="M-51 617l6 60q2 22 47 22q23 0 32.5 -5.5t8.5 -16.5l-6 -60q-2 -22 -46 -22t-42 22z" />
    <glyph glyph-name="uni0308" unicode="&#x308;" horiz-adv-x="0" 
d="M-183 602.5q-10 5.5 -8 16.5l6 56q2 12 12.5 17t33.5 5q45 0 42 -22l-6 -56q-2 -11 -12.5 -16.5t-33.5 -5.5q-24 0 -34 5.5zM-51 619l6 56q2 11 12.5 16.5t33.5 5.5q45 0 42 -22l-6 -56q-2 -11 -12.5 -16.5t-33.5 -5.5q-45 0 -42 22z" />
    <glyph glyph-name="hookabovecomb" unicode="&#x309;" horiz-adv-x="0" 
d="M-79.5 568.5q-11.5 5.5 -11.5 14.5q0 7 7 13.5t20 15.5q22 16 33.5 29t11.5 31q0 27 -35 27q-20 0 -32.5 -6.5t-14.5 -6.5q-5 0 -12.5 12.5t-7.5 18.5q0 11 27.5 22t54.5 11q30 0 56.5 -15.5t26.5 -48.5q0 -30 -21 -58t-47.5 -46.5t-36.5 -18.5q-7 0 -18.5 5.5z" />
    <glyph glyph-name="uni030A" unicode="&#x30a;" horiz-adv-x="0" 
d="M-102.5 590q-19.5 20 -19.5 55q0 41 25 67.5t65 26.5q34 0 54 -20t20 -56q0 -40 -25 -66.5t-65 -26.5q-35 0 -54.5 20zM-17.5 629q10.5 12 10.5 32q0 15 -8 24t-21 9q-16 0 -26.5 -13t-10.5 -32q0 -15 8 -23.5t21 -8.5q16 0 26.5 12z" />
    <glyph glyph-name="uni030B" unicode="&#x30b;" horiz-adv-x="0" 
d="M-244 588q0 7 14 33l38 71q7 13 20 19.5t45 6.5q22 0 31.5 -3.5t9.5 -10.5q0 -5 -5 -12t-13 -16l-14 -16l-50 -60q-13 -16 -23 -20t-32 -4q-21 0 -21 12zM-112 588q0 7 14 33l38 71q7 13 20 19.5t45 6.5q22 0 31.5 -3.5t9.5 -10.5q0 -5 -5 -12t-13 -16l-14 -16l-50 -60
q-13 -16 -23 -20t-32 -4q-21 0 -21 12z" />
    <glyph glyph-name="uni030C" unicode="&#x30c;" horiz-adv-x="0" 
d="M-124.5 582.5q-11.5 6.5 -15.5 19.5l-22 71q-8 26 -8 31q0 14 28 14q17 0 25 -5t16 -19l33 -56l44 56q11 14 19 19t26 5q26 0 26 -12q0 -7 -14 -33l-38 -71q-7 -13 -19.5 -19.5t-34.5 -6.5h-31q-23 0 -34.5 6.5z" />
    <glyph glyph-name="uni030F" unicode="&#x30f;" horiz-adv-x="0" 
d="M-152 580q-9 4 -20 20l-37 55q-23 35 -23 46q0 9 11 13t34 4q31 0 43 -7t17 -22l22 -68q7 -21 7 -31q0 -7 -6 -10.5t-17 -3.5q-22 0 -31 4zM-20 580q-9 4 -20 20l-37 55q-23 35 -23 46q0 9 11 13t34 4q31 0 43 -7t17 -22l22 -68q7 -21 7 -31q0 -7 -6 -10.5t-17 -3.5
q-22 0 -31 4z" />
    </font>
</defs>
</svg>
