<?xml version="1.0" standalone="no"?>
<!DOCTYPE svg PUBLIC "-//W3C//DTD SVG 1.1//EN" "http://www.w3.org/Graphics/SVG/1.1/DTD/svg11.dtd" >
<svg xmlns="http://www.w3.org/2000/svg" xmlns:xlink="http://www.w3.org/1999/xlink" version="1.1">
<metadata>
Created by FontForge 20170731 at Tue Jun 18 16:01:01 2019
 By Aleksey,,,
Copyright 2018 The Asap Condensed Project Authors (https://github.com/Omnibus-Type/AsapCondensed), with Reserved Font Name "(Asap Condensed)".
</metadata>
<defs>
<font id="AsapCondensed-Bold" horiz-adv-x="459" >
  <font-face 
    font-family="Asap Condensed"
    font-weight="700"
    font-stretch="normal"
    units-per-em="1000"
    panose-1="2 15 8 6 3 2 2 6 2 3"
    ascent="800"
    descent="-200"
    x-height="523"
    cap-height="703"
    bbox="-520 -242 1052 1055"
    underline-thickness="50"
    underline-position="-150"
    unicode-range="U+000D-FB02"
  />
<missing-glyph horiz-adv-x="545" 
d="M23 700h500v-700h-500v700zM442 650h-340l171 -255zM243 350l-171 255v-510zM472 605l-169 -255l169 -255v510zM443 50l-171 255l-169 -255h340z" />
    <glyph glyph-name="fi" unicode="fi" horiz-adv-x="540" 
d="M65 30v376h-12q-16 0 -23 12t-7 38v17q0 26 7 38t23 12h12v75q0 162 141 162q32 0 64.5 -12t32.5 -38q0 -6 -4 -24t-11 -33t-16 -15q-3 0 -13.5 2.5t-14.5 2.5q-16 0 -23.5 -10t-7.5 -33v-77h214q32 0 46 -7t14 -23v-463q0 -32 -60 -32h-28q-60 0 -60 32v376h-126v-376
q0 -32 -60 -32h-28q-60 0 -60 32zM339 606v78q0 32 74 32t74 -32v-78q0 -32 -74 -32t-74 32z" />
    <glyph glyph-name="fl" unicode="fl" horiz-adv-x="556" 
d="M65 30v376h-12q-16 0 -23 12t-7 38v17q0 26 7 38t23 12h12v75q0 162 141 162q32 0 64.5 -12t32.5 -38q0 -6 -4 -24t-11 -33t-16 -15q-3 0 -13.5 2.5t-14.5 2.5q-16 0 -23.5 -10t-7.5 -33v-77h33q16 0 23 -12t7 -38v-17q0 -26 -7 -38t-23 -12h-33v-376q0 -32 -60 -32h-28
q-60 0 -60 32zM336 144v578q0 32 60 32h28q60 0 60 -32v-580q0 -17 5.5 -25t18.5 -8q4 0 11 2t11 2q13 0 21 -26.5t8 -47.5q0 -24 -29.5 -35.5t-64.5 -11.5q-129 0 -129 152z" />
    <glyph glyph-name="f_f" unicode="ff" horiz-adv-x="572" 
d="M506.5 633q-7.5 -10 -7.5 -33v-77h33q16 0 23 -12t7 -38v-17q0 -26 -7 -38t-23 -12h-33v-376q0 -32 -60 -32h-28q-60 0 -60 32v376h-138v-376q0 -32 -60 -32h-28q-60 0 -60 32v376h-12q-16 0 -23 12t-7 38v17q0 26 7 38t23 12h12v75q0 162 141 162q32 0 64.5 -12
t32.5 -38q0 -6 -4 -24t-11 -33t-16 -15q-3 0 -13.5 2.5t-14.5 2.5q-16 0 -23.5 -10t-7.5 -33v-77h138v75q0 162 141 162q32 0 64.5 -12t32.5 -38q0 -6 -4 -24t-11 -33t-16 -15q-3 0 -13.5 2.5t-14.5 2.5q-16 0 -23.5 -10z" />
    <glyph glyph-name="f_f_i" unicode="ffi" horiz-adv-x="826" 
d="M773 491v-461q0 -32 -60 -32h-28q-60 0 -60 32v376h-126v-376q0 -32 -60 -32h-28q-60 0 -60 32v376h-138v-376q0 -32 -60 -32h-28q-60 0 -60 32v376h-12q-16 0 -23 12t-7 38v17q0 26 7 38t23 12h12v75q0 162 141 162q32 0 64.5 -12t32.5 -38q0 -6 -4 -24t-11 -33t-16 -15
q-3 0 -13.5 2.5t-14.5 2.5q-16 0 -23.5 -10t-7.5 -33v-77h138v75q0 162 141 162q32 0 64.5 -12t32.5 -38q0 -6 -4 -24t-11 -33t-16 -15q-3 0 -13.5 2.5t-14.5 2.5q-16 0 -23.5 -10t-7.5 -33v-77h214q60 0 60 -32zM774 684v-78q0 -32 -74 -32t-74 32v78q0 32 74 32t74 -32z
" />
    <glyph glyph-name="f_f_l" unicode="ffl" horiz-adv-x="842" 
d="M506.5 633q-7.5 -10 -7.5 -33v-77h33q16 0 23 -12t7 -38v-17q0 -26 -7 -38t-23 -12h-33v-376q0 -32 -60 -32h-28q-60 0 -60 32v376h-138v-376q0 -32 -60 -32h-28q-60 0 -60 32v376h-12q-16 0 -23 12t-7 38v17q0 26 7 38t23 12h12v75q0 162 141 162q32 0 64.5 -12
t32.5 -38q0 -6 -4 -24t-11 -33t-16 -15q-3 0 -13.5 2.5t-14.5 2.5q-16 0 -23.5 -10t-7.5 -33v-77h138v75q0 162 141 162q32 0 64.5 -12t32.5 -38q0 -6 -4 -24t-11 -33t-16 -15q-3 0 -13.5 2.5t-14.5 2.5q-16 0 -23.5 -10zM622 144v578q0 32 60 32h28q60 0 60 -32v-580
q0 -17 5.5 -25t18.5 -8q4 0 11 2t11 2q13 0 21 -26.5t8 -47.5q0 -24 -29.5 -35.5t-64.5 -11.5q-129 0 -129 152z" />
    <glyph glyph-name=".notdef" horiz-adv-x="545" 
d="M23 700h500v-700h-500v700zM442 650h-340l171 -255zM243 350l-171 255v-510zM472 605l-169 -255l169 -255v510zM443 50l-171 255l-169 -255h340z" />
    <glyph glyph-name=".null" horiz-adv-x="0" 
 />
    <glyph glyph-name="nonmarkingreturn" unicode="&#xd;" horiz-adv-x="137" 
 />
    <glyph glyph-name="NULL" horiz-adv-x="0" 
 />
    <glyph glyph-name="NULL" horiz-adv-x="0" 
 />
    <glyph glyph-name="space" unicode=" " horiz-adv-x="137" 
 />
    <glyph glyph-name="exclam" unicode="!" horiz-adv-x="246" 
d="M77.5 229.5q-10.5 7.5 -10.5 24.5v416q0 32 58 32h46q27 0 42.5 -7.5t15.5 -20.5l-51 -420q-3 -18 -12 -25t-39 -7h-8q-31 0 -41.5 7.5zM47 30v92q0 32 58 32h33q58 0 58 -32v-92q0 -32 -58 -32h-33q-58 0 -58 32z" />
    <glyph glyph-name="quotedbl" unicode="&#x22;" horiz-adv-x="309" 
d="M46 471q-8 7 -10 23l-22 176q-5 32 60 32h10q65 0 60 -32l-22 -176q-2 -16 -10 -23t-24 -7h-18q-16 0 -24 7zM197 471q-8 7 -10 23l-22 176q-5 32 60 32h10q65 0 60 -32l-22 -176q-2 -16 -10 -23t-24 -7h-18q-16 0 -24 7z" />
    <glyph glyph-name="numbersign" unicode="#" horiz-adv-x="514" 
d="M59 28q1 15 7.5 59.5t15.5 95.5h-44q-16 0 -23 12t-7 38v10q0 26 7 38t23 12h60l16 110h-48q-16 0 -23 12t-7 38v10q0 26 7 38t23 12h64l20 141q6 32 51 32h18q47 0 44 -31l-21 -142h77l20 141q6 32 51 32h18q23 0 34 -8t10 -23l-21 -142h45q16 0 23 -12t7 -38v-10
q0 -26 -7 -38t-23 -12h-61l-16 -110h53q16 0 23 -12t7 -38v-10q0 -26 -7 -38t-23 -12h-69l-22 -153q-6 -32 -51 -32h-18q-44 0 -44 28q1 17 7 60.5t15 96.5h-75l-23 -153q-6 -32 -50 -32h-19q-45 0 -44 30zM287 293l16 110h-76l-16 -110h76z" />
    <glyph glyph-name="dollar" unicode="$" horiz-adv-x="460" 
d="M396.5 64.5q-44.5 -58.5 -130.5 -69.5v-51q0 -25 -26 -25h-5q-26 0 -26 25v48q-52 2 -97 17t-65 40q-13 16 -13 33q0 27 15 57.5t34 30.5q6 0 16.5 -5t19.5 -10.5t15 -9.5q38 -20 75 -22v155q-12 6 -18 10q-53 31 -85.5 56.5t-56.5 68t-24 103.5q0 84 50 134t134 57v36
q0 25 26 25h5q26 0 26 -25v-37q34 -4 63.5 -13.5t44.5 -22.5q17 -15 17 -36q0 -26 -12 -54.5t-29 -28.5q-6 0 -29 9q-35 13 -55 15v-154l16 -9q51 -28 82.5 -51.5t54 -62.5t22.5 -95q0 -80 -44.5 -138.5zM209 457v113q-19 -7 -26.5 -21.5t-7.5 -28.5q0 -35 34 -63zM295 189
q0 29 -29 52v-106q29 17 29 54z" />
    <glyph glyph-name="percent" unicode="%" horiz-adv-x="686" 
d="M70 409q-39 37 -39 131t39 131t97 37q59 0 98 -37t39 -131t-39 -131t-98 -37q-58 0 -97 37zM161 3.5q-7 5.5 -7 14.5q0 7 4 15l279 641q12 28 41 28h33q13 0 20 -5.5t7 -14.5q0 -7 -4 -15l-278 -641q-13 -28 -42 -28h-33q-13 0 -20 5.5zM194 473q7 19 7 67q0 44 -7 63
t-27 19t-27 -19t-7 -63q0 -48 7 -67t27 -19t27 19zM426 29q-39 37 -39 131t39 131t97 37q59 0 98 -37t39 -131t-39 -131t-98 -37q-58 0 -97 37zM550 93q7 19 7 67q0 44 -7 63t-27 19t-27 -19t-7 -63q0 -48 7 -67t27 -19t27 19z" />
    <glyph glyph-name="ampersand" unicode="&#x26;" horiz-adv-x="520" 
d="M511.5 83.5q8.5 -29.5 8.5 -42.5q0 -49 -88 -49q-34 0 -55 9.5t-36 30.5q-45 -23 -76 -31.5t-77 -8.5q-91 0 -137 55t-46 157q0 69 18.5 113.5t69.5 65.5v4q-34 18 -52 56t-18 90q0 81 44 128t122 47q36 0 68 -11.5t32 -30.5q0 -34 -11 -58t-23 -24q-3 0 -14.5 3.5
t-21.5 3.5q-21 0 -32 -22t-11 -60q0 -37 19.5 -60t47.5 -23h63l12 95q3 32 54 32h35q50 0 50 -32v-95h22q15 0 22 -12t7 -38v-17q0 -26 -7 -38t-22 -12h-22v-157q0 -25 2.5 -34t13.5 -9q5 0 10 2t8 2q12 0 20.5 -29.5zM168 132.5q12 -23.5 45 -23.5q22 0 42 5t51 19v176h-73
q-45 0 -61 -24.5t-16 -78.5q0 -50 12 -73.5z" />
    <glyph glyph-name="quotesingle" unicode="'" horiz-adv-x="164" 
d="M51 471q-8 7 -10 23l-22 176q-5 32 60 32h10q65 0 60 -32l-22 -176q-2 -16 -10 -23t-24 -7h-18q-16 0 -24 7z" />
    <glyph glyph-name="parenleft" unicode="(" horiz-adv-x="249" 
d="M172 -192q-70 98 -104.5 221t-34.5 258q0 136 34.5 259.5t104.5 220.5q12 16 27 16q16 0 36.5 -15t20.5 -31q0 -11 -5 -20q-58 -103 -79.5 -205t-21.5 -225q0 -124 21.5 -225t79.5 -204q5 -9 5 -20q0 -16 -20.5 -31t-36.5 -15q-15 0 -27 16z" />
    <glyph glyph-name="parenright" unicode=")" horiz-adv-x="249" 
d="M13.5 -193q-20.5 15 -20.5 31q0 11 5 20q57 103 78.5 204.5t21.5 224.5q0 125 -21 226t-79 204q-5 9 -5 20q0 16 20.5 31t36.5 15q15 0 27 -16q70 -97 104 -221t34 -259q0 -136 -34 -259t-104 -220q-12 -16 -27 -16q-16 0 -36.5 15z" />
    <glyph glyph-name="asterisk" unicode="*" horiz-adv-x="299" 
d="M56.5 420.5q-11.5 8.5 -11.5 17.5v3q0 8 9 21l47 70l-63 32q-12 6 -17 10.5t-5 12.5q0 13 7 25t21 12q10 0 16 -3l57 -29v86q0 16 7 23t23 7t23 -7t7 -23v-86l56 29q6 3 16 3q13 0 21 -11.5t8 -25.5q0 -8 -5 -12.5t-17 -10.5l-64 -32l48 -70q9 -13 9 -24
q-1 -9 -12.5 -17.5t-21.5 -8.5q-12 2 -23 17l-45 64l-45 -64q-10 -15 -23 -17q-11 0 -22.5 8.5z" />
    <glyph glyph-name="plus" unicode="+" horiz-adv-x="449" 
d="M178 7q-12 7 -12 23v152h-107q-15 0 -22 12t-7 38v7q0 26 7 38t22 12h107v154q0 16 12 23t38 7h14q26 0 38 -7t12 -23v-154h111q15 0 21.5 -12t6.5 -38v-7q0 -26 -6.5 -38t-21.5 -12h-111v-152q0 -16 -12 -23t-38 -7h-14q-26 0 -38 7z" />
    <glyph glyph-name="comma" unicode="," horiz-adv-x="188" 
d="M10 -119.5q-14 5.5 -14 16.5q0 5 2.5 15t3.5 18l6 20q11 36 17.5 72t6.5 88q0 44 58 44h20q30 0 44 -12t14 -32q0 -53 -22.5 -107.5t-53.5 -91t-52 -36.5q-16 0 -30 5.5z" />
    <glyph glyph-name="hyphen" unicode="-" horiz-adv-x="254" 
d="M22 224q-7 12 -7 38v7q0 26 7 38t22 12h166q15 0 22 -12t7 -38v-7q0 -26 -7 -38t-22 -12h-166q-15 0 -22 12z" />
    <glyph glyph-name="period" unicode="." horiz-adv-x="188" 
d="M19 30v92q0 32 58 32h33q58 0 58 -32v-92q0 -32 -58 -32h-33q-58 0 -58 32z" />
    <glyph glyph-name="slash" unicode="/" horiz-adv-x="348" 
d="M11.5 -73.5q-11.5 5.5 -11.5 17.5q0 5 4 18l222 710q5 16 20.5 23t43.5 7h7q28 0 39.5 -5.5t11.5 -17.5q0 -9 -4 -21l-222 -707q-5 -16 -20.5 -23t-43.5 -7h-7q-28 0 -39.5 5.5z" />
    <glyph glyph-name="zero" unicode="0" 
d="M75.5 84.5q-50.5 92.5 -50.5 265.5t50.5 265.5t153.5 92.5t154 -93t51 -265t-51 -265t-154 -93t-153.5 92.5zM259 128q11 19 16.5 71t5.5 151t-5.5 151t-16.5 71t-30 19t-30 -19t-16.5 -71t-5.5 -151t5.5 -151t16.5 -71t30 -19t30 19z" />
    <glyph glyph-name="one" unicode="1" 
d="M43 12q-7 12 -7 38v17q0 26 7 38t23 12h107v449l-108 -15q-17 0 -24.5 27.5t-7.5 56.5q0 23 26 28l221 41q13 0 27 -7.5t14 -16.5v-563h94q16 0 23 -12t7 -38v-17q0 -26 -7 -38t-23 -12h-349q-16 0 -23 12z" />
    <glyph glyph-name="two" unicode="2" 
d="M24 31.5q-9 31.5 -9 56.5q0 11 3 15l218 317q21 31 30 54.5t9 45.5q0 35 -21.5 52.5t-57.5 17.5q-25 0 -46.5 -8.5t-43.5 -22.5q-19 -12 -26 -12q-22 0 -39.5 24t-17.5 45q0 42 61 67t135 25q99 0 152.5 -50.5t53.5 -132.5q0 -78 -53 -153l-173 -255h201q16 0 23 -12
t7 -38v-17q0 -26 -7 -38t-23 -12h-357q-10 0 -19 31.5z" />
    <glyph glyph-name="three" unicode="3" 
d="M73 12q-58 20 -58 62q0 10 8 28.5t19 33t22 14.5q5 0 22 -10q23 -14 45.5 -22.5t51.5 -8.5q42 0 67 25.5t25 71.5q0 51 -26 76.5t-84 25.5h-35q-16 0 -23 12t-7 38v18q0 26 7 38t23 12h26q45 0 70.5 22.5t25.5 60.5t-19 59.5t-55 21.5q-26 0 -42.5 -6.5t-30.5 -15.5
t-19 -9q-15 0 -32.5 27.5t-17.5 48.5q0 35 52 54t126 19q86 0 137 -47.5t51 -127.5q0 -51 -25 -89.5t-68 -56.5v-4q58 -22 87 -69t29 -110q0 -100 -61 -156t-168 -56q-65 0 -123 20z" />
    <glyph glyph-name="four" unicode="4" 
d="M247 30v112h-206q-12 0 -24.5 35t-12.5 58q0 7 2 11l215 432q7 16 21.5 20t41.5 4h51q60 0 60 -32v-411h27q16 0 23 -12t7 -38v-17q0 -26 -7 -38t-23 -12h-27v-112q0 -32 -60 -32h-28q-60 0 -60 32zM246 259v97q0 61 10 137l-4 1l-110 -235h104z" />
    <glyph glyph-name="five" unicode="5" 
d="M71.5 13q-50.5 21 -50.5 51q0 9 9 28.5t21.5 35t23.5 15.5q2 0 21 -9.5t43 -17t54 -7.5q39 0 61.5 27.5t22.5 75.5q0 55 -23 83t-77 28h-94q-21 0 -29 9t-8 31l19 297q2 21 11.5 30.5t30.5 9.5h267q16 0 23 -12t7 -38v-27q0 -21 -7 -30.5t-23 -9.5h-174l-10 -143h15
q108 0 165 -51t57 -173q0 -80 -33 -130t-85 -72t-111 -22q-76 0 -126.5 21z" />
    <glyph glyph-name="six" unicode="6" 
d="M131.5 18.5q-46.5 26.5 -76.5 85t-30 149.5q0 171 68 271.5t144 140t102 39.5q16 0 27 -15.5t17 -35.5t6 -32q0 -10 -2.5 -14t-10.5 -7q-71 -23 -117.5 -72.5t-65.5 -122.5q39 23 81 23q36 0 74 -21t64.5 -68.5t26.5 -122.5q0 -77 -29.5 -127t-76.5 -73.5t-101 -23.5
t-100.5 26.5zM280 138q19 29 19 74t-19.5 72t-53.5 27q-24 0 -49 -15q-5 -18 -5 -55q0 -70 17 -101t45 -31q27 0 46 29z" />
    <glyph glyph-name="seven" unicode="7" 
d="M60 17q0 5 6 21l210 545h-214q-16 0 -23 12t-7 38v17q0 26 7 38t23 12h345q8 0 19 -33t11 -57q0 -7 -2 -13l-224 -579q-4 -11 -18.5 -15.5t-38.5 -4.5h-37q-57 0 -57 19z" />
    <glyph glyph-name="eight" unicode="8" 
d="M78.5 50.5q-51.5 58.5 -51.5 148.5q0 65 24.5 107.5t63.5 65.5q-35 29 -55 64t-20 88q0 82 52 133t145 51q88 0 138 -49t50 -127q0 -60 -22.5 -95.5t-59.5 -57.5q44 -28 69 -71.5t25 -112.5q0 -53 -21 -99t-66.5 -75t-115.5 -29q-104 0 -155.5 58.5zM292 527q0 30 -16 47
t-40 17t-41.5 -16t-17.5 -46t17.5 -50.5t49.5 -38.5q48 33 48 87zM280 132.5q17 23.5 17 56.5q0 42 -22 67.5t-63 48.5q-23 -18 -34.5 -42t-11.5 -60q0 -48 18 -71t49 -23q30 0 47 23.5z" />
    <glyph glyph-name="nine" unicode="9" 
d="M93 8.5q-11 15.5 -17 35.5t-6 32q0 11 2.5 15t10.5 6q70 23 117 72.5t66 123.5q-38 -24 -82 -24q-36 0 -73.5 21t-64 68.5t-26.5 122.5q0 77 29.5 127t76.5 73.5t100 23.5q54 0 101 -26.5t77 -85t30 -149.5q0 -171 -68 -271.5t-144 -140t-102 -39.5q-16 0 -27 15.5z
M282 401q1 18 1 55q0 70 -16 101t-42 31q-27 0 -46 -29t-19 -75q0 -45 19.5 -71.5t53.5 -26.5q22 0 49 15z" />
    <glyph glyph-name="colon" unicode=":" horiz-adv-x="188" 
d="M19 401v92q0 32 58 32h33q58 0 58 -32v-92q0 -32 -58 -32h-33q-58 0 -58 32zM19 30v92q0 32 58 32h33q58 0 58 -32v-92q0 -32 -58 -32h-33q-58 0 -58 32z" />
    <glyph glyph-name="semicolon" unicode=";" horiz-adv-x="188" 
d="M19 401v92q0 32 58 32h33q58 0 58 -32v-92q0 -32 -58 -32h-33q-58 0 -58 32zM10 -119.5q-14 5.5 -14 16.5q0 5 2.5 15t3.5 18l6 20q11 36 17.5 72t6.5 88q0 44 58 44h20q30 0 44 -12t14 -32q0 -53 -22.5 -107.5t-53.5 -91t-52 -36.5q-16 0 -30 5.5z" />
    <glyph glyph-name="less" unicode="&#x3c;" horiz-adv-x="448" 
d="M385 16l-334 177q-13 7 -18.5 16.5t-5.5 26.5v19q0 16 5.5 25.5t18.5 16.5l321 170q16 8 22 8q10 0 13 -9t3 -28v-16q0 -28 -5 -40.5t-20 -22.5l-203 -114l205 -114q17 -11 21 -21.5t4 -41.5v-16q0 -22 -2.5 -31.5t-10.5 -9.5q-4 0 -14 5z" />
    <glyph glyph-name="equal" unicode="=" horiz-adv-x="449" 
d="M37 279q-7 12 -7 38v7q0 26 7 38t23 12h329q16 0 23 -12t7 -38v-7q0 -26 -7 -38t-23 -12h-329q-16 0 -23 12zM37 99q-7 12 -7 38v7q0 26 7 38t23 12h329q16 0 23 -12t7 -38v-7q0 -26 -7 -38t-23 -12h-329q-16 0 -23 12z" />
    <glyph glyph-name="greater" unicode="&#x3e;" horiz-adv-x="448" 
d="M29.5 20.5q-2.5 9.5 -2.5 31.5v16q0 31 4 41.5t21 21.5l205 114l-203 114q-15 10 -20 22.5t-5 40.5v16q0 19 3 28t13 9q6 0 22 -8l321 -170q13 -7 18.5 -16.5t5.5 -25.5v-19q0 -17 -5.5 -26.5t-18.5 -16.5l-334 -177q-10 -5 -14 -5q-8 0 -10.5 9.5z" />
    <glyph glyph-name="question" unicode="?" horiz-adv-x="391" 
d="M109.5 228.5q-11.5 6.5 -11.5 22.5q0 42 14.5 79t42.5 74l22 26q28 33 40.5 53t12.5 37q0 56 -65 56q-20 0 -36 -6.5t-31.5 -15.5t-19.5 -9q-13 0 -27.5 15.5t-25 35.5t-10.5 31q0 25 26.5 43t66 28t77.5 10q92 0 146.5 -44.5t54.5 -124.5q0 -40 -11.5 -69t-28 -49
t-45.5 -48q-34 -32 -53 -59t-25 -65q-4 -15 -16 -21t-37 -6h-23q-26 0 -37.5 6.5zM85 30v92q0 32 60 32h32q60 0 60 -32v-92q0 -32 -60 -32h-32q-60 0 -60 32z" />
    <glyph glyph-name="at" unicode="@" horiz-adv-x="792" 
d="M591 667.5q65 -40.5 100.5 -114t35.5 -170.5q0 -89 -28 -163.5t-77 -118t-109 -43.5q-37 0 -62.5 16.5t-35.5 43.5q-14 -27 -39 -43.5t-56 -16.5q-51 0 -81 47t-30 134q0 79 20 140.5t55 95t81 33.5q26 0 47.5 -12.5t36.5 -29.5q6 22 15.5 29.5t34.5 7.5h12q47 0 47 -24
l-9 -97q-3 -36 -10 -116t-7 -92q0 -15 7 -24t21 -9q27 0 50.5 33t38 88.5t14.5 117.5q0 83 -28 145t-78.5 95.5t-117.5 33.5q-88 0 -161.5 -55t-116 -150.5t-42.5 -211.5q0 -90 26.5 -159.5t75.5 -108t113 -38.5q31 0 52 5.5t45 15.5q16 8 24 8q14 0 14 -33q0 -26 -47.5 -38
t-93.5 -12q-80 0 -142 46t-96.5 128t-34.5 188q0 130 51 237.5t139.5 169.5t195.5 62q85 0 150 -40.5zM429 392q-16 18 -34 18q-29 0 -45 -42t-16 -121q0 -50 8.5 -69t27.5 -19q20 0 41 31q5 124 18 202z" />
    <glyph glyph-name="A" unicode="A" horiz-adv-x="505" 
d="M2 20q0 8 3 18l154 636q7 28 61 28h65q55 0 62 -28l154 -636q2 -14 2 -18q0 -22 -43 -22h-53q-48 0 -53 21l-26 122h-152l-27 -122q-4 -21 -47 -21h-52q-48 0 -48 22zM311 263l-45 212q-7 36 -12 76h-5q-5 -40 -12 -76l-44 -212h118z" />
    <glyph glyph-name="B" unicode="B" horiz-adv-x="539" 
d="M66 9.5q-9 9.5 -9 30.5v621q0 20 9 29.5t28 9.5h179q210 0 210 -169q0 -112 -90 -165l1 -4q51 -15 80 -58t29 -107q0 -89 -57.5 -143t-169.5 -54h-182q-19 0 -28 9.5zM274 415q32 0 47.5 20.5t15.5 64.5q0 43 -14.5 61.5t-46.5 18.5h-71v-165h69zM281 121q37 0 54.5 21
t17.5 69q0 46 -17 65.5t-55 19.5h-76v-175h76z" />
    <glyph glyph-name="C" unicode="C" 
d="M100.5 78.5q-63.5 86.5 -63.5 273.5q0 180 66.5 268t205.5 88q47 0 87 -11q31 -9 31 -43q0 -38 -13.5 -68t-33.5 -23q-32 10 -64 10q-60 0 -89.5 -55t-29.5 -167t29.5 -167.5t94.5 -55.5q19 0 32 2.5t34 8.5q3 1 9 1q20 0 30 -25t10 -66q0 -15 -6 -25.5t-23 -16.5
t-45 -10.5t-58 -4.5q-140 0 -203.5 86.5z" />
    <glyph glyph-name="D" unicode="D" horiz-adv-x="575" 
d="M66 9.5q-9 9.5 -9 30.5v620q0 21 9 30.5t28 9.5h190q130 0 191.5 -87t61.5 -263t-61.5 -263t-191.5 -87h-190q-19 0 -28 9.5zM279 131q53 0 76 49.5t23 169.5t-23 169.5t-76 49.5h-64v-438h64z" />
    <glyph glyph-name="E" unicode="E" horiz-adv-x="457" 
d="M67 9.5q-9 9.5 -9 30.5v620q0 21 9 30.5t28 9.5h295q15 0 22 -12t7 -38v-31q0 -26 -7 -38t-22 -12h-176v-145h156q15 0 22 -12t7 -38v-31q0 -26 -7 -38t-22 -12h-156v-162h177q15 0 21.5 -12t6.5 -38v-31q0 -26 -6.5 -38t-21.5 -12h-296q-19 0 -28 9.5z" />
    <glyph glyph-name="F" unicode="F" horiz-adv-x="423" 
d="M57 30v630q0 21 9 30.5t28 9.5h275q15 0 22 -12t7 -38v-31q0 -26 -7 -38t-22 -12h-156v-166h147q15 0 22 -12t7 -38v-31q0 -26 -7 -38t-22 -12h-147v-242q0 -32 -58 -32h-40q-58 0 -58 32z" />
    <glyph glyph-name="G" unicode="G" horiz-adv-x="552" 
d="M493 400.5q9 -9.5 9 -30.5v-298q0 -23 -30.5 -41.5t-75.5 -28.5t-86 -10q-140 0 -206.5 87.5t-66.5 272.5q0 180 67 268t208 88q45 0 87 -10.5t68 -27t26 -33.5q0 -13 -10.5 -35t-25.5 -38.5t-27 -16.5q-4 0 -21 7.5t-38 13t-50 5.5q-64 0 -94 -54t-30 -168
q0 -122 28.5 -172.5t84.5 -50.5q24 0 41 4v146h-51q-15 0 -22 12t-7 38v32q0 26 7 38t22 12h165q19 0 28 -9.5z" />
    <glyph glyph-name="H" unicode="H" horiz-adv-x="601" 
d="M58 30v640q0 32 58 32h42q57 0 57 -32v-247h171v247q0 32 58 32h41q58 0 58 -32v-640q0 -32 -58 -32h-41q-58 0 -58 32v261h-171v-261q0 -32 -57 -32h-42q-58 0 -58 32z" />
    <glyph glyph-name="I" unicode="I" horiz-adv-x="262" 
d="M52 30v640q0 33 58 33h42q57 0 57 -33v-640q0 -33 -57 -33h-42q-58 0 -58 33z" />
    <glyph glyph-name="J" unicode="J" horiz-adv-x="355" 
d="M43 5q-35 13 -35 33q0 29 13 60.5t29 32.5q4 0 17.5 -3t29.5 -3q27 0 38 24t11 78v443q0 33 57 33h42q58 0 58 -33v-468q0 -210 -181 -210q-44 0 -79 13z" />
    <glyph glyph-name="K" unicode="K" horiz-adv-x="510" 
d="M54 30v640q0 32 58 32h40q59 0 59 -32v-298l4 -1l135 312q5 11 17 15t34 4h55q55 0 55 -15q0 -7 -6 -21l-155 -309l166 -323q6 -11 6 -21q0 -15 -52 -15h-66q-23 0 -36 4t-18 15l-136 314l-3 -1v-300q0 -32 -59 -32h-40q-58 0 -58 32z" />
    <glyph glyph-name="L" unicode="L" horiz-adv-x="408" 
d="M66 9.5q-9 9.5 -9 30.5v630q0 32 58 32h40q58 0 58 -32v-539h149q16 0 23 -12t7 -38v-31q0 -26 -7 -38t-23 -12h-268q-19 0 -28 9.5z" />
    <glyph glyph-name="M" unicode="M" horiz-adv-x="689" 
d="M311 228.5q-9 5.5 -16 18.5l-74 138q-6 11 -12 25.5t-9 21.5l-4 -1q6 -36 6 -55v-346q0 -17 -13.5 -24.5t-44.5 -7.5h-34q-31 0 -44.5 7.5t-13.5 24.5v640q0 17 13.5 24.5t44.5 7.5h31q24 0 38 -6.5t22 -21.5l124 -235q10 -18 19 -48q7 27 18 48l124 235q8 15 22 21.5
t38 6.5h31q31 0 44.5 -7.5t13.5 -24.5v-640q0 -17 -13.5 -24.5t-44.5 -7.5h-34q-31 0 -44.5 7.5t-13.5 24.5v346q0 24 7 55l-4 1q-7 -19 -22 -47l-74 -138q-7 -13 -16 -18.5t-24 -5.5h-17q-15 0 -24 5.5z" />
    <glyph glyph-name="N" unicode="N" horiz-adv-x="590" 
d="M52 30v640q0 32 58 32h26q20 0 32 -5.5t20 -22.5l180 -326q14 -26 34 -78l4 2q-8 52 -8 79v319q0 32 58 32h24q58 0 58 -32v-640q0 -32 -58 -32h-19q-20 0 -33 5.5t-21 22.5l-191 340q-9 15 -27 64l-5 -3q8 -46 8 -68v-329q0 -32 -58 -32h-24q-58 0 -58 32z" />
    <glyph glyph-name="O" unicode="O" horiz-adv-x="599" 
d="M38 350q0 358 262 358q128 0 194.5 -87t66.5 -271t-66.5 -271t-194.5 -87q-262 0 -262 358zM359 143q22 20 33 69.5t11 137.5q0 87 -11 136.5t-33 69.5t-58 20t-58.5 -20t-34 -69.5t-11.5 -136.5t11.5 -137t34 -70t58.5 -20t58 20z" />
    <glyph glyph-name="P" unicode="P" horiz-adv-x="482" 
d="M55 30v630q0 21 9.5 30.5t30.5 9.5h173q79 0 139.5 -45.5t60.5 -173.5q0 -88 -35 -136.5t-78 -65.5t-77 -17h-69v-232q0 -32 -60 -32h-34q-60 0 -60 32zM261 391q23 0 40 20t17 70q0 49 -17 68.5t-40 19.5h-53v-178h53z" />
    <glyph glyph-name="Q" unicode="Q" horiz-adv-x="599" 
d="M503 -153.5q-10 5.5 -15 8.5q-115 69 -305 161q-72 36 -108.5 117.5t-36.5 216.5q0 358 262 358q128 0 194.5 -87t66.5 -271q0 -250 -128 -324v-4l139 -69q12 -5 12 -18q-1 -9 -12 -32.5t-26 -42.5t-29 -19q-4 0 -14 5.5zM359 141.5q22 20.5 33 70.5t11 138
q0 87 -11 136.5t-33 69.5t-58 20t-58.5 -20t-34 -69.5t-11.5 -136.5q0 -88 11.5 -138t34 -70.5t58.5 -20.5t58 20.5z" />
    <glyph glyph-name="R" unicode="R" horiz-adv-x="513" 
d="M54 30v630q0 21 9.5 30.5t30.5 9.5h167q92 0 148 -45.5t56 -151.5q0 -117 -95 -169v-4q22 -12 40 -40t27 -60l59 -192l3 -12q0 -27 -62 -27h-35q-53 0 -60 27l-53 190q-9 22 -20.5 31t-36.5 9h-24v-226q0 -32 -60 -32h-34q-60 0 -60 32zM264 402q22 0 37.5 22t15.5 64
t-15.5 61.5t-40.5 19.5h-53v-167h56z" />
    <glyph glyph-name="S" unicode="S" horiz-adv-x="437" 
d="M109 6.5q-48 14.5 -70 39.5q-13 18 -13 35q0 28 15 57t33 29q8 0 25.5 -10t25.5 -14q39 -20 69 -20q32 0 56 15t24 51q0 38 -23 59.5t-72 47.5q-75 43 -109.5 89t-34.5 122q0 61 27 106.5t74.5 70t108.5 24.5q34 0 72 -10.5t59 -25.5q18 -13 18 -35q0 -26 -11.5 -55
t-28.5 -29q-8 0 -29 8q-39 15 -65 15q-42 0 -57.5 -18t-15.5 -41q0 -36 19 -54.5t61 -40.5q9 -4 27 -14q69 -40 99.5 -86t30.5 -121q0 -56 -24 -103.5t-73 -76.5t-121 -29q-49 0 -97 14.5z" />
    <glyph glyph-name="T" unicode="T" horiz-adv-x="454" 
d="M148 30v539h-111q-15 0 -22 12t-7 38v31q0 26 7 38t22 12h380q16 0 23 -12t7 -38v-31q0 -26 -7 -38t-23 -12h-112v-539q0 -32 -58 -32h-41q-58 0 -58 32z" />
    <glyph glyph-name="U" unicode="U" horiz-adv-x="583" 
d="M115 48q-64 56 -64 157v465q0 32 58 32h40q58 0 58 -32v-455q0 -41 23 -66.5t62 -25.5q38 0 61.5 26t23.5 66v455q0 32 58 32h39q58 0 58 -32v-465q0 -101 -63.5 -157t-176.5 -56t-177 56z" />
    <glyph glyph-name="V" unicode="V" horiz-adv-x="508" 
d="M162 19l-152 643q-4 14 -4 18q0 22 58 22h38q50 0 55 -29l79 -412q5 -22 17 -119h4q7 59 17 119l80 412q5 29 55 29h37q57 0 57 -22q0 -7 -3 -18l-152 -643q-5 -21 -53 -21h-80q-48 0 -53 21z" />
    <glyph glyph-name="W" unicode="W" horiz-adv-x="752" 
d="M150 3q-11 5 -13 16l-131 642q-1 4 -0.5 8.5t0.5 6.5q0 26 59 26h29q60 0 64 -31l47 -369q14 -118 16 -150h4q6 53 21 150l61 379q2 12 12.5 16.5t34.5 4.5h50q24 0 34.5 -4.5t12.5 -16.5l60 -379q11 -67 20 -153h4q3 45 18 153l48 369q4 31 64 31h23q59 0 59 -26
q0 -9 -1 -15l-133 -642q-4 -21 -47 -21h-66q-40 0 -45 21l-60 313q-7 33 -11.5 80.5t-5.5 86.5h-4q-1 -41 -6.5 -89t-11.5 -78l-61 -313q-4 -21 -45 -21h-66q-23 0 -34 5z" />
    <glyph glyph-name="X" unicode="X" horiz-adv-x="506" 
d="M9 17q0 6 8 25l145 323l-126 293q-2 4 -5.5 12t-3.5 13q0 9 15.5 14t44.5 5h47q23 0 37 -4t17 -15l70 -236l76 235q4 12 17.5 16t38.5 4h47q59 0 59 -19q0 -7 -8 -25l-136 -295l137 -321q8 -18 8 -25q0 -19 -59 -19h-43q-49 0 -55 19l-82 255l-90 -254q-5 -14 -16.5 -17
t-38.5 -3h-45q-59 0 -59 19z" />
    <glyph glyph-name="Y" unicode="Y" horiz-adv-x="484" 
d="M165 30v272l-154 355q-2 4 -5.5 12.5t-3.5 12.5q0 9 15.5 14.5t44.5 5.5h51q49 0 55 -19l78 -246l77 246q3 11 17 15t38 4h42q63 0 63 -20q0 -10 -7 -25l-154 -358v-269q0 -32 -59 -32h-39q-59 0 -59 32z" />
    <glyph glyph-name="Z" unicode="Z" horiz-adv-x="507" 
d="M36 33q-13 33 -13 56q0 8 1 10l254 470h-205q-15 0 -21.5 12t-6.5 38v31q0 26 6.5 38t21.5 12h365q12 0 24.5 -34.5t12.5 -57.5q0 -10 -3 -16l-249 -461h225q15 0 22 -12t7 -38v-31q0 -26 -7 -38t-22 -12h-386q-13 0 -26 33z" />
    <glyph glyph-name="bracketleft" unicode="[" horiz-adv-x="239" 
d="M57 -128.5q-9 9.5 -9 30.5v826q0 21 9 30.5t28 9.5h106q16 0 22.5 -9.5t6.5 -30.5v-15q0 -21 -6.5 -30.5t-22.5 -9.5h-30v-716h30q16 0 22.5 -9.5t6.5 -30.5v-15q0 -21 -6.5 -30.5t-22.5 -9.5h-106q-19 0 -28 9.5z" />
    <glyph glyph-name="backslash" unicode="\" horiz-adv-x="348" 
d="M246.5 -72q-15.5 7 -20.5 23l-222 707q-4 12 -4 21q0 12 11.5 17.5t39.5 5.5h7q28 0 43.5 -7t20.5 -23l222 -710q4 -13 4 -18q0 -12 -11.5 -17.5t-39.5 -5.5h-7q-28 0 -43.5 7z" />
    <glyph glyph-name="bracketright" unicode="]" horiz-adv-x="239" 
d="M27 -128.5q-7 9.5 -7 30.5v15q0 21 7 30.5t22 9.5h31v716h-31q-15 0 -22 9.5t-7 30.5v15q0 21 7 30.5t22 9.5h106q19 0 28 -9.5t9 -30.5v-826q0 -21 -9 -30.5t-28 -9.5h-106q-15 0 -22 9.5z" />
    <glyph glyph-name="asciicircum" unicode="^" horiz-adv-x="360" 
d="M19 333q0 6 3 15l106 308q10 30 37 30h31q27 0 37 -30l106 -308q3 -9 3 -15q0 -15 -28 -15h-25q-39 0 -49 30l-60 207l-60 -207q-9 -30 -47 -30h-26q-28 0 -28 15z" />
    <glyph glyph-name="underscore" unicode="_" horiz-adv-x="427" 
d="M-9 -126q-7 12 -7 38v7q0 26 7 38t22 12h402q15 0 22 -12t7 -38v-7q0 -26 -7 -38t-22 -12h-402q-15 0 -22 12z" />
    <glyph glyph-name="grave" unicode="`" horiz-adv-x="176" 
d="M94 578.5q-14 6.5 -28 23.5l-47 63q-10 12 -14.5 20t-4.5 16q0 10 11 13.5t40 3.5q39 0 56 -6.5t26 -24.5l34 -72q9 -21 9 -28t-8.5 -11t-32.5 -4q-27 0 -41 6.5z" />
    <glyph glyph-name="a" unicode="a" horiz-adv-x="481" 
d="M73.5 34q-35.5 42 -35.5 115q0 187 233 186v16q0 32 -14.5 47.5t-46.5 15.5q-22 0 -39 -5.5t-38 -15.5q-14 -8 -21 -8q-10 0 -22 15t-21 34.5t-9 30.5q0 17 23.5 32.5t61 24.5t76.5 9q104 0 151 -46t47 -127v-182q0 -46 2.5 -70t6.5 -53q3 -13 3 -22q0 -16 -40.5 -24
t-71.5 -8q-16 0 -22.5 12t-13.5 39q-13 -22 -41 -40t-67 -18q-66 0 -101.5 42zM249.5 108q13.5 9 21.5 24v117q-100 0 -100 -89q0 -28 13 -44.5t36 -16.5q16 0 29.5 9z" />
    <glyph glyph-name="b" unicode="b" horiz-adv-x="482" 
d="M231 11.5q-30 19.5 -46 50.5q-5 -24 -11 -38q-6 -16 -17 -21t-35 -5h-12q-60 0 -60 32v692q0 32 60 32h28q60 0 60 -32v-221q34 30 83 30q79 0 122.5 -70t43.5 -201q0 -127 -41.5 -197.5t-110.5 -70.5q-34 0 -64 19.5zM285 146.5q12 33.5 12 114.5q0 87 -13.5 120
t-43.5 33q-23 0 -42 -15v-252q21 -34 48 -34t39 33.5z" />
    <glyph glyph-name="c" unicode="c" horiz-adv-x="408" 
d="M34 260q0 271 216 271q36 0 69.5 -9.5t54.5 -25.5t21 -34t-15.5 -47t-29.5 -29q-6 0 -19 8q-18 9 -32 14.5t-33 5.5q-41 0 -61 -35t-20 -117t19 -117.5t59 -35.5q18 0 33 5t25 10t13 6q14 7 18 7q15 0 29.5 -28.5t14.5 -47.5t-25 -35t-60.5 -25t-64.5 -9q-212 0 -212 268
z" />
    <glyph glyph-name="d" unicode="d" horiz-adv-x="481" 
d="M107.5 23.5q-33.5 31.5 -53 93t-19.5 147.5q0 128 44 197.5t123 69.5q49 0 82 -29v220q0 32 60 32h28q60 0 60 -32v-546q0 -46 2.5 -70t6.5 -53q3 -13 3 -22q0 -16 -40.5 -24t-71.5 -8q-20 0 -27.5 16.5t-13.5 46.5q-15 -31 -43 -50.5t-63 -19.5q-44 0 -77.5 31.5z
M284 153v247q-20 14 -41 14q-30 0 -44 -35.5t-14 -117.5q0 -78 12 -113t38 -35q29 0 49 40z" />
    <glyph glyph-name="e" unicode="e" horiz-adv-x="454" 
d="M89 59.5q-55 67.5 -55 198.5q0 148 54.5 210.5t153.5 62.5q98 0 142 -69t44 -200q0 -12 -20.5 -35.5t-30.5 -23.5h-190q2 -51 23 -72.5t57 -21.5q22 0 40 6t35 14.5t21 8.5q10 0 22.5 -14.5t21 -33t8.5 -28.5q0 -23 -27 -38.5t-63.5 -23.5t-64.5 -8q-116 0 -171 67.5z
M293 292q0 71 -12 101.5t-40 30.5q-27 0 -41.5 -29t-18.5 -103h112z" />
    <glyph glyph-name="f" unicode="f" horiz-adv-x="286" 
d="M65 30v376h-12q-16 0 -23 12t-7 38v17q0 26 7 38t23 12h12v75q0 162 141 162q32 0 64.5 -12t32.5 -38q0 -6 -4 -24t-11 -33t-16 -15q-3 0 -13.5 2.5t-14.5 2.5q-16 0 -23.5 -10t-7.5 -33v-77h33q16 0 23 -12t7 -38v-17q0 -26 -7 -38t-23 -12h-33v-376q0 -32 -60 -32h-28
q-60 0 -60 32z" />
    <glyph glyph-name="g" unicode="g" horiz-adv-x="471" 
d="M84 -178.5q-49 33.5 -49 99.5q0 81 76 118v3q-20 12 -30.5 31.5t-10.5 44.5q0 56 48 93q-72 42 -72 141q0 90 49.5 134.5t132.5 44.5q31 0 65 -8h130q14 0 20.5 -11t6.5 -34v-16q0 -22 -5.5 -32.5t-17.5 -10.5q-18 0 -34 4l-2 -4q8 -12 12.5 -30.5t4.5 -39.5
q0 -77 -44.5 -118.5t-118.5 -43.5q-50 -1 -50 -39q0 -23 19 -32t63 -18q26 -5 35 -7q57 -13 90.5 -43.5t33.5 -92.5q0 -78 -56 -122.5t-154 -44.5q-93 0 -142 33.5zM267.5 300q15.5 16 15.5 58t-15.5 58.5t-41.5 16.5q-56 0 -56 -75q0 -74 56 -74q26 0 41.5 16zM294.5 -92.5
q18.5 13.5 18.5 38.5q0 19 -13 29.5t-33.5 15.5t-67.5 12q-17 -10 -27 -25.5t-10 -33.5q0 -25 20.5 -37.5t56.5 -12.5q37 0 55.5 13.5z" />
    <glyph glyph-name="h" unicode="h" horiz-adv-x="485" 
d="M51 30v692q0 32 58 32h34q58 0 58 -32v-259q22 30 53.5 49t71.5 19q55 0 84 -35.5t29 -103.5v-362q0 -32 -58 -32h-34q-58 0 -58 32v328q0 26 -9 38.5t-30 12.5q-28 0 -49 -32v-347q0 -32 -58 -32h-34q-58 0 -58 32z" />
    <glyph glyph-name="i" unicode="i" horiz-adv-x="254" 
d="M53 30v463q0 32 60 32h28q60 0 60 -32v-463q0 -32 -60 -32h-28q-60 0 -60 32zM54 606v78q0 32 74 32t74 -32v-78q0 -32 -74 -32t-74 32z" />
    <glyph glyph-name="j" unicode="j" horiz-adv-x="249" 
d="M-7.5 -200.5q-24.5 11.5 -24.5 39.5q0 22 8.5 46t22.5 24q5 0 14.5 -2t15.5 -2q13 0 18.5 10t5.5 33v545q0 32 60 32h28q60 0 60 -32v-543q0 -79 -37 -120.5t-97 -41.5q-50 0 -74.5 11.5zM54 606v78q0 32 74 32t74 -32v-78q0 -32 -74 -32t-74 32z" />
    <glyph glyph-name="k" unicode="k" horiz-adv-x="452" 
d="M447 14q0 -16 -52 -16h-56q-19 0 -26.5 4t-12.5 15l-89 229h-11v-216q0 -32 -58 -32h-32q-58 0 -58 32v692q0 32 58 32h32q58 0 58 -32v-416h5l85 200q6 13 12.5 16t26.5 3h52q54 0 54 -17q0 -6 -7 -21l-94 -213l107 -240q6 -13 6 -20z" />
    <glyph glyph-name="l" unicode="l" horiz-adv-x="270" 
d="M50 144v578q0 32 60 32h28q60 0 60 -32v-580q0 -17 5.5 -25t18.5 -8q4 0 11 2t11 2q13 0 21 -26.5t8 -47.5q0 -24 -29.5 -35.5t-64.5 -11.5q-129 0 -129 152z" />
    <glyph glyph-name="m" unicode="m" horiz-adv-x="720" 
d="M643 495.5q28 -35.5 28 -103.5v-362q0 -32 -58 -32h-34q-58 0 -58 32v328q0 26 -8 38.5t-29 12.5q-26 0 -49 -27v-352q0 -32 -58 -32h-34q-58 0 -58 32v328q0 26 -8 38.5t-29 12.5q-26 0 -49 -32v-347q0 -16 -14 -24t-43 -8h-35q-57 0 -57 32v319q0 71 -5 101t-5 37
q0 18 42 26.5t73 8.5q19 0 25 -11t8.5 -28.5t4.5 -27.5q23 33 55.5 54.5t75.5 21.5q79 0 101 -70q22 30 56.5 50t78.5 20q55 0 83 -35.5z" />
    <glyph glyph-name="n" unicode="n" horiz-adv-x="482" 
d="M50 30v319q0 71 -5 101t-5 37q0 18 42 26.5t73 8.5q19 0 25 -11t8.5 -28.5t4.5 -27.5q22 33 55.5 54.5t75.5 21.5q55 0 83.5 -35.5t28.5 -103.5v-362q0 -32 -58 -32h-34q-58 0 -58 32v328q0 26 -8 38.5t-29 12.5q-27 0 -50 -32v-347q0 -16 -14 -24t-43 -8h-35
q-57 0 -57 32z" />
    <glyph glyph-name="o" unicode="o" horiz-adv-x="477" 
d="M86 61.5q-52 69.5 -52 200.5t51.5 200t152.5 69t153 -69t52 -200t-52 -200.5t-153 -69.5q-100 0 -152 69.5zM280.5 143.5q12.5 34.5 12.5 118.5t-12.5 118t-41.5 34q-30 0 -42.5 -34t-12.5 -118t12.5 -118.5t42.5 -34.5q29 0 41.5 34.5z" />
    <glyph glyph-name="p" unicode="p" horiz-adv-x="484" 
d="M52 -174v521q0 46 -2.5 69.5t-6.5 52.5q-3 14 -3 21q0 16 40.5 24t71.5 8q20 0 27.5 -16t13.5 -45q15 31 43 50.5t63 19.5q44 0 77.5 -31.5t53 -93t19.5 -147.5q0 -128 -44 -197.5t-123 -69.5q-49 0 -82 29v-195q0 -32 -60 -32h-28q-60 0 -60 32zM285 144.5
q14 35.5 14 117.5q0 78 -12 113t-38 35q-29 0 -49 -40v-247q20 -14 41 -14q30 0 44 35.5z" />
    <glyph glyph-name="q" unicode="q" horiz-adv-x="481" 
d="M286 -174v196q-34 -30 -82 -30q-81 0 -125 70t-44 201q0 127 42 197.5t112 70.5q35 0 65 -19.5t45 -50.5l9 38q4 15 16.5 20.5t37.5 5.5h12q60 0 60 -32v-667q0 -32 -60 -32h-28q-60 0 -60 32zM286 124v252q-21 34 -48 34q-28 0 -40.5 -33.5t-12.5 -114.5q0 -87 14 -120
t45 -33q23 0 42 15z" />
    <glyph glyph-name="r" unicode="r" horiz-adv-x="337" 
d="M55 30v319q0 44 -2.5 67.5t-6.5 52.5q-3 14 -3 21q0 16 40.5 24t71.5 8q18 0 25 -14t10.5 -30.5t4.5 -22.5q14 35 33 55.5t52 20.5q28 0 37.5 -12.5t9.5 -41.5q0 -22 -7.5 -56t-18.5 -34q-6 0 -21 4t-26 4q-19 0 -32 -14t-19 -36v-315q0 -32 -60 -32h-28q-60 0 -60 32z
" />
    <glyph glyph-name="s" unicode="s" horiz-adv-x="353" 
d="M65.5 10q-44.5 18 -44.5 47q0 21 19.5 52t34.5 31q4 0 17.5 -8t25.5 -13.5t28 -5.5q24 0 37 10t13 27q0 20 -13 32t-41 27l-20 12q-43 26 -68.5 57.5t-25.5 91.5q0 75 45.5 118t119.5 43q46 0 88 -14.5t42 -43.5q0 -20 -14.5 -50.5t-26.5 -30.5q-3 0 -23 9t-41 9
q-50 0 -50 -34q0 -17 12 -27.5t40 -26.5q13 -6 32 -18q39 -25 61.5 -57t22.5 -86q0 -75 -46.5 -122t-127.5 -47q-52 0 -96.5 18z" />
    <glyph glyph-name="t" unicode="t" horiz-adv-x="298" 
d="M90.5 30.5q-32.5 38.5 -32.5 117.5v258h-11q-16 0 -23 12t-7 38v17q0 26 7 38t23 12h11l13 95q5 32 54 32h31q50 0 50 -32v-95h37q16 0 23 -12t7 -38v-17q0 -26 -7 -38t-23 -12h-37v-262q0 -18 5.5 -26.5t18.5 -8.5q5 0 13.5 2t13.5 2q12 0 21 -28.5t9 -42.5
q0 -25 -34 -37.5t-70 -12.5q-60 0 -92.5 38.5z" />
    <glyph glyph-name="u" unicode="u" horiz-adv-x="482" 
d="M75.5 26.5q-29.5 35.5 -29.5 103.5v363q0 32 58 32h34q58 0 58 -32v-330q0 -25 8 -37.5t29 -12.5q27 0 50 32v348q0 16 14 24t43 8h35q57 0 57 -32v-319q0 -71 5 -102t5 -38q0 -18 -42 -26t-73 -8q-19 0 -25 11t-8.5 28.5t-4.5 27.5q-22 -33 -53.5 -54.5t-72.5 -21.5
q-58 0 -87.5 35.5z" />
    <glyph glyph-name="v" unicode="v" horiz-adv-x="412" 
d="M126 19l-119 466q-2 7 -2 18q0 22 52 22h44q49 0 53 -21l35 -222q9 -56 17 -144h4q6 70 17 144l35 222q4 21 53 21h40q52 0 52 -22q0 -11 -2 -18l-119 -466q-5 -21 -52 -21h-56q-47 0 -52 21z" />
    <glyph glyph-name="w" unicode="w" horiz-adv-x="616" 
d="M132.5 3q-9.5 5 -11.5 16l-106 465q-1 6 -1 15q0 26 61 26q71 0 72 -21l26 -247l10 -111h4q6 58 16 116l42 242q1 10 15.5 15.5t36.5 5.5h26q21 0 36 -5.5t16 -15.5l42 -244q7 -39 15 -114h4q2 14 3 29t2 27l5 55l27 247q3 21 67 21q61 0 61 -26q0 -9 -1 -15l-104 -465
q-3 -21 -41 -21h-32q-22 0 -31 5t-11 16l-63 263q-3 25 -4 39q-2 30 -4 38h-4q-3 -25 -4 -38q-2 -31 -4 -39l-62 -263q-2 -11 -11 -16t-30 -5h-33q-20 0 -29.5 5z" />
    <glyph glyph-name="x" unicode="x" horiz-adv-x="404" 
d="M0 16q0 5 9 25l119 224l-113 216q-9 18 -9 26t15 13t44 5h37q26 0 39.5 -3t16.5 -16l36 -129l9 -35l9 36l37 128q4 13 17 16t39 3h36q29 0 44 -5t15 -13t-9 -26l-115 -216l117 -224q10 -18 10 -25q0 -16 -37 -16h-62q-29 0 -40.5 2t-14.5 15l-39 140l-9 32l-8 -32
l-41 -140q-4 -13 -15 -15t-39 -2h-71q-27 0 -27 16z" />
    <glyph glyph-name="y" unicode="y" horiz-adv-x="408" 
d="M404 503q0 -4 -2 -18l-170 -670q-5 -21 -55 -21h-20q-56 0 -56 21q0 7 3 18l43 156l-137 491q-4 12 -4 22q0 23 50 23h43q23 0 35.5 -4.5t15.5 -18.5l37 -203q6 -36 16 -112h4q5 35 7 45q6 48 10 67l40 205q4 21 53 21h29q58 0 58 -22z" />
    <glyph glyph-name="z" unicode="z" horiz-adv-x="405" 
d="M33 27.5q-9 27.5 -9 48.5q0 8 2 14l170 316h-132q-15 0 -22 12t-7 38v17q0 26 7 38t22 12h285q7 0 17 -28t10 -49q0 -9 -3 -15l-170 -314h149q15 0 22 -12t7 -38v-17q0 -26 -7 -38t-22 -12h-301q-9 0 -18 27.5z" />
    <glyph glyph-name="braceleft" unicode="{" horiz-adv-x="249" 
d="M104.5 -105.5q-27.5 32.5 -27.5 83.5v185q0 42 -8.5 64t-27.5 32q-15 9 -22 20t-7 30v12q0 19 7 30t22 20q19 10 27.5 32t8.5 64v185q0 51 27.5 83.5t71.5 32.5h39q16 0 23 -9.5t7 -30.5v-14q0 -39 -26 -40h2q-16 0 -22.5 -8t-6.5 -28v-187q0 -50 -14.5 -85t-42.5 -51
q28 -16 42.5 -51t14.5 -85v-187q0 -36 24 -36h1q14 -1 21 -10.5t7 -29.5v-14q0 -21 -7 -30.5t-23 -9.5h-39q-44 0 -71.5 32.5z" />
    <glyph glyph-name="bar" unicode="|" horiz-adv-x="200" 
d="M53.5 -131q-12.5 7 -12.5 23v846q0 16 12.5 23t40.5 7h14q28 0 40.5 -7t12.5 -23v-846q0 -16 -12.5 -23t-40.5 -7h-14q-28 0 -40.5 7z" />
    <glyph glyph-name="braceright" unicode="}" horiz-adv-x="249" 
d="M20 -128.5q-7 9.5 -7 30.5v14q0 20 7 29.5t21 10.5h1q24 0 24 36v187q0 50 14.5 85t42.5 51q-28 16 -42.5 51t-14.5 85v187q0 20 -6 28t-22 8h1q-26 1 -26 40v14q0 21 7 30.5t23 9.5h39q44 0 71.5 -32.5t27.5 -83.5v-185q0 -42 8 -64t28 -32q15 -9 22 -20t7 -30v-12
q0 -19 -7 -30t-22 -20q-20 -10 -28 -32t-8 -64v-185q0 -51 -27.5 -83.5t-71.5 -32.5h-39q-16 0 -23 9.5z" />
    <glyph glyph-name="asciitilde" unicode="~" horiz-adv-x="438" 
d="M54 214.5q-13 7.5 -14 15.5v4q0 11 2 15q12 37 38 59.5t65 22.5q23 0 65 -12q24 -7 41 -10.5t38 -3.5q19 0 30.5 6.5t23.5 17.5t17 11q9 0 23.5 -8.5t14.5 -16.5q0 -9 -5 -24q-24 -74 -103 -74q-22 0 -41.5 4t-45.5 11q-38 11 -56 11q-27 0 -54 -25q-13 -11 -18 -11
q-8 0 -21 7.5z" />
    <glyph glyph-name="uni00A0" unicode="&#xa0;" horiz-adv-x="137" 
 />
    <glyph glyph-name="exclamdown" unicode="&#xa1;" horiz-adv-x="246" 
d="M55 401v92q0 32 58 32h33q58 0 58 -32v-92q0 -32 -58 -32h-33q-58 0 -58 32zM36.5 -172.5q-15.5 7.5 -15.5 20.5q0 14 42 345l10 75q3 18 11.5 25t38.5 7h9q30 0 40.5 -7.5t10.5 -24.5v-416q0 -32 -58 -32h-46q-27 0 -42.5 7.5z" />
    <glyph glyph-name="cent" unicode="&#xa2;" horiz-adv-x="420" 
d="M365 24.5q-27 -16.5 -65 -25.5v-55q0 -25 -26 -25h-5q-26 0 -26 25v48h-1q-212 0 -212 268q0 270 213 271v31q0 25 26 25h5q26 0 26 -25v-37q39 -8 65 -25t26 -38q0 -18 -15.5 -47t-29.5 -29q-6 0 -19 8q-15 9 -27 13v-290q12 4 30 13q14 7 18 7q15 0 29.5 -28.5
t14.5 -47.5q0 -20 -27 -36.5zM196 152.5q15 -35.5 47 -41.5v301q-31 -7 -46.5 -42.5t-15.5 -107.5q0 -74 15 -109.5z" />
    <glyph glyph-name="sterling" unicode="&#xa3;" horiz-adv-x="470" 
d="M39.5 9.5q-9.5 9.5 -9.5 30.5v19q0 12 7 20t24 22q22 18 33.5 33.5t11.5 40.5v136h-33q-16 0 -23 12t-7 38v17q0 26 7 38t23 12h33v74q0 206 201 206q37 0 68 -10t31 -35q0 -26 -13.5 -50.5t-26.5 -24.5q-2 0 -20.5 4t-32.5 4q-31 0 -46.5 -21.5t-15.5 -67.5v-79h68
q16 0 23 -12t7 -38v-17q0 -26 -7 -38t-23 -12h-68v-60q0 -93 -41 -134h177q16 0 23 -12t7 -38v-17q0 -26 -7 -38t-23 -12h-317q-21 0 -30.5 9.5z" />
    <glyph glyph-name="currency" unicode="&#xa4;" horiz-adv-x="470" 
d="M81 84l-30 30q-12 12 -12 25t12 25l27 27q-21 48 -21 98q0 55 23 101l-32 32q-12 12 -12 25t12 25l30 30q12 12 25 12t25 -12l26 -26q38 24 80 24q44 0 83 -25l26 27q12 12 25 12t25 -12l30 -30q12 -12 12 -25t-12 -25l-34 -34q22 -47 22 -99q0 -47 -20 -95l29 -30
q12 -12 12 -25t-12 -25l-30 -30q-12 -12 -25 -12t-25 12l-20 21q-39 -27 -86 -27q-45 0 -84 25l-19 -19q-12 -12 -25 -12t-25 12zM278.5 217q17.5 25 17.5 72t-17.5 72t-44.5 25q-28 0 -45.5 -25t-17.5 -72t17.5 -72t45.5 -25q27 0 44.5 25z" />
    <glyph glyph-name="yen" unicode="&#xa5;" horiz-adv-x="490" 
d="M479 657l-123 -287h60q15 0 22 -7t7 -23v-15q0 -31 -29 -31h-91v-55h91q15 0 22 -7t7 -23v-15q0 -16 -7 -23t-22 -7h-91v-134q0 -32 -59 -32h-39q-59 0 -59 32v134h-105q-15 0 -22 7t-7 23v15q0 16 7 23t22 7h105v56h-105q-15 0 -22 7t-7 23v15q0 16 7 23t22 7h76
l-125 287q-2 4 -5.5 12.5t-3.5 12.5q0 9 15.5 14.5t44.5 5.5h51q49 0 55 -19l78 -246l77 246q3 11 17 15t38 4h42q63 0 63 -20q0 -10 -7 -25z" />
    <glyph glyph-name="brokenbar" unicode="&#xa6;" horiz-adv-x="200" 
d="M41 412v326q0 32 53 32h14q28 0 40.5 -8t12.5 -24v-326q0 -16 -12.5 -24t-40.5 -8h-14q-53 0 -53 32zM41 -108v326q0 32 53 32h14q28 0 40.5 -8t12.5 -24v-326q0 -16 -12.5 -24t-40.5 -8h-14q-53 0 -53 32z" />
    <glyph glyph-name="section" unicode="&#xa7;" horiz-adv-x="355" 
d="M71 8q-44 16 -44 47q0 19 18 50.5t31 31.5q4 0 23.5 -12t40.5 -12q40 0 40 28q0 15 -12 24t-39 23l-18 9q-43 23 -69.5 58t-26.5 94q0 71 48 113q-37 39 -37 97q0 69 45.5 108.5t120.5 39.5q43 0 86 -14t43 -46q0 -17 -14.5 -48t-26.5 -31q-3 0 -22.5 9.5t-40.5 9.5
q-20 0 -31 -7t-11 -20q0 -15 12 -24t29 -17.5t24 -11.5q44 -23 72 -57.5t28 -93.5q0 -35 -12.5 -65t-35.5 -50q37 -39 37 -96q0 -68 -45.5 -110.5t-123.5 -42.5q-45 0 -89 16zM217 338q0 24 -16 36.5t-47 23.5q-15 -12 -15 -34q0 -24 16 -36.5t47 -23.5q15 15 15 34z" />
    <glyph glyph-name="dieresis" unicode="&#xa8;" horiz-adv-x="300" 
d="M14.5 588.5q-14.5 7.5 -14.5 24.5v64q0 17 14.5 24.5t47.5 7.5t47.5 -7.5t14.5 -24.5v-64q0 -17 -14.5 -24.5t-47.5 -7.5t-47.5 7.5zM190.5 588.5q-14.5 7.5 -14.5 24.5v64q0 17 14.5 24.5t47.5 7.5t47.5 -7.5t14.5 -24.5v-64q0 -17 -14.5 -24.5t-47.5 -7.5t-47.5 7.5z
" />
    <glyph glyph-name="copyright" unicode="&#xa9;" horiz-adv-x="592" 
d="M150.5 32.5q-64.5 40.5 -102.5 121.5t-38 196t38 196t102.5 121.5t145.5 40.5t145.5 -40.5t102 -121.5t37.5 -196t-37.5 -196t-102 -121.5t-145.5 -40.5t-145.5 40.5zM407.5 88q49.5 32 78.5 98.5t29 163.5t-29 163.5t-78.5 98.5t-111.5 32t-112 -32t-79 -98.5
t-29 -163.5t29 -163.5t79 -98.5t112 -32t111.5 32zM196 201q-35 49 -35 152q0 199 145 199q31 0 63 -11.5t32 -27.5q0 -13 -13 -33t-23 -20q-2 0 -16.5 9t-44.5 9q-56 0 -56 -125q0 -128 56 -128q28 0 46.5 11.5t20.5 11.5q13 0 23 -19.5t10 -29.5q0 -15 -18.5 -26
t-42.5 -16t-39 -5q-73 0 -108 49z" />
    <glyph glyph-name="ordfeminine" unicode="&#xaa;" horiz-adv-x="281" 
d="M37 460.5q-20 21.5 -20 56.5q0 88 137 88v2q0 23 -31 23q-23 0 -44 -7t-24 -7q-9 0 -18 23t-9 36q0 14 29.5 24t70.5 10q60 0 90 -26t30 -69v-83q0 -36 3 -52t3 -19q0 -9 -26.5 -13t-47.5 -4q-9 0 -12.5 5t-7.5 18q-8 -10 -25 -18.5t-43 -8.5q-35 0 -55 21.5zM154 519v33
q-46 0 -46 -28q0 -21 20 -21q17 0 26 16z" />
    <glyph glyph-name="guillemotleft" unicode="&#xab;" horiz-adv-x="405" 
d="M134 61l-102 153q-15 21 -15 44t15 44l102 153q9 14 23 14q16 0 37 -13.5t21 -29.5q0 -9 -8 -22l-91 -146l91 -146q8 -13 8 -23q0 -15 -20.5 -28.5t-37.5 -13.5q-14 0 -23 14zM305 61l-101 153q-8 12 -11.5 21.5t-3.5 22.5t3.5 22.5t11.5 21.5l101 153q9 14 24 14
q16 0 37 -13.5t21 -29.5q0 -9 -8 -22l-90 -146l90 -146q8 -13 8 -23q0 -15 -20.5 -28.5t-37.5 -13.5q-15 0 -24 14z" />
    <glyph glyph-name="logicalnot" unicode="&#xac;" horiz-adv-x="449" 
d="M314 104v138h-264q-16 0 -23 12t-7 38v7q0 26 7 38t23 12h339q21 0 30.5 -9.5t9.5 -30.5v-205q0 -32 -50 -32h-15q-50 0 -50 32z" />
    <glyph glyph-name="uni00AD" unicode="&#xad;" horiz-adv-x="254" 
d="M22 224q-7 12 -7 38v7q0 26 7 38t22 12h166q15 0 22 -12t7 -38v-7q0 -26 -7 -38t-22 -12h-166q-15 0 -22 12z" />
    <glyph glyph-name="registered" unicode="&#xae;" horiz-adv-x="591" 
d="M150.5 32.5q-64.5 40.5 -102.5 121.5t-38 196t38 196t102.5 121.5t145.5 40.5t145.5 -40.5t102 -121.5t37.5 -196t-37.5 -196t-102 -121.5t-145.5 -40.5t-145.5 40.5zM407.5 88q49.5 32 78.5 98.5t29 163.5t-29 163.5t-78.5 98.5t-111.5 32t-112 -32t-79 -98.5
t-29 -163.5t29 -163.5t79 -98.5t112 -32t111.5 32zM188 174v352q0 22 20 22h92q58 0 84 -26.5t26 -78.5q0 -31 -14.5 -54t-37.5 -35v-4q6 -6 15 -19.5t14 -28.5l39 -124q2 -10 2 -11q0 -11 -30 -11h-27q-26 0 -30 12l-36 109q-5 21 -9 27t-20 6h-2v-136q0 -18 -32 -18h-22
q-32 0 -32 18zM304 384q7 0 13 14.5t6 33.5q0 20 -6 31.5t-16 11.5h-27v-91h30z" />
    <glyph glyph-name="macron" unicode="&#xaf;" horiz-adv-x="289" 
d="M7 606.5q-7 9.5 -7 30.5v15q0 21 7 30.5t22 9.5h231q16 0 22.5 -9.5t6.5 -30.5v-15q0 -21 -6.5 -30.5t-22.5 -9.5h-231q-15 0 -22 9.5z" />
    <glyph glyph-name="degree" unicode="&#xb0;" horiz-adv-x="276" 
d="M60.5 476q-29.5 33 -29.5 99t29.5 99.5t76.5 33.5t76.5 -33.5t29.5 -99.5t-29.5 -99t-76.5 -33t-76.5 33zM165.5 522.5q11.5 17.5 11.5 52.5t-11.5 53t-29.5 18t-29.5 -18t-11.5 -53t11.5 -52.5t29.5 -17.5t29.5 17.5z" />
    <glyph glyph-name="plusminus" unicode="&#xb1;" horiz-adv-x="449" 
d="M178 147q-12 7 -12 23v142h-106q-16 0 -23 12t-7 38v7q0 26 7 38t23 12h106v154q0 16 12 23t38 7h14q26 0 38 -7t12 -23v-154h109q16 0 23 -12t7 -38v-7q0 -26 -7 -38t-23 -12h-109v-142q0 -16 -12 -23t-38 -7h-14q-26 0 -38 7zM37 12q-7 12 -7 38v7q0 26 7 38t23 12h329
q16 0 23 -12t7 -38v-7q0 -26 -7 -38t-23 -12h-329q-16 0 -23 12z" />
    <glyph glyph-name="uni00B2" unicode="&#xb2;" horiz-adv-x="280" 
d="M22.5 366.5q-5.5 16.5 -5.5 30.5q0 9 6 18l119 173q27 39 27 67q0 20 -12.5 30.5t-33.5 10.5q-14 0 -26 -5t-24.5 -13t-16.5 -8q-13 0 -23.5 14.5t-10.5 26.5q0 24 35.5 38.5t79.5 14.5q58 0 89 -29t31 -77q0 -25 -9 -50t-31 -56l-94 -134h120q9 0 13 -6.5t4 -22.5v-10
q0 -29 -17 -29h-207q-8 0 -13.5 16.5z" />
    <glyph glyph-name="uni00B3" unicode="&#xb3;" horiz-adv-x="280" 
d="M58 355q-34 12 -34 36q0 11 9.5 28t19.5 17q3 0 23 -12t46 -12q25 0 39.5 15t14.5 42q0 30 -15 45t-49 15h-21q-17 0 -17 29v11q0 29 17 29h16q26 0 41 13t15 36q0 22 -11.5 34.5t-32.5 12.5q-22 0 -36.5 -9t-17.5 -9q-8 0 -18.5 16.5t-10.5 28.5q0 21 30.5 32t74.5 11
q50 0 80 -28t30 -75q0 -30 -14.5 -52.5t-40.5 -33.5v-2q34 -13 51 -40.5t17 -64.5q0 -59 -35.5 -92t-98.5 -33q-38 0 -72 12z" />
    <glyph glyph-name="acute" unicode="&#xb4;" horiz-adv-x="176" 
d="M8.5 576q-8.5 4 -8.5 11t9 28l34 72q9 18 26 24.5t56 6.5q29 0 40 -3.5t11 -13.5q0 -8 -4.5 -16t-14.5 -20l-47 -63q-14 -17 -28 -23.5t-41 -6.5q-24 0 -32.5 4z" />
    <glyph glyph-name="uni00B5" unicode="&#xb5;" horiz-adv-x="453" 
d="M410 53q2 -18 2 -22q0 -16 -43 -24t-75 -8q-16 0 -22 13.5t-8.5 30.5t-3.5 25q-11 -25 -34.5 -45.5t-54.5 -27.5q13 -66 13 -169q0 -32 -57 -32h-35q-58 0 -58 32v667q0 32 58 32h35q57 0 57 -32v-317q0 -33 5.5 -47.5t22.5 -14.5q20 0 30.5 18.5t10.5 39.5v321
q0 32 58 32h34q58 0 58 -32v-317q0 -76 7 -123z" />
    <glyph glyph-name="paragraph" unicode="&#xb6;" horiz-adv-x="466" 
d="M209 -164q-7 7 -7 23v354q-77 11 -125 73.5t-48 169.5q0 121 55.5 182.5t142.5 61.5h198q16 0 23 -7.5t7 -24.5v-1q0 -15 -7 -22t-23 -7h-21v-779q0 -15 -7 -22.5t-23 -7.5h-2q-16 0 -23 7t-7 23v779h-78v-779q0 -15 -7 -22.5t-23 -7.5h-2q-16 0 -23 7z" />
    <glyph glyph-name="periodcentered" unicode="&#xb7;" horiz-adv-x="214" 
d="M58 310q-20 20 -20 49t20 49t49 20t49 -20t20 -49t-20 -49t-49 -20t-49 20z" />
    <glyph glyph-name="cedilla" unicode="&#xb8;" horiz-adv-x="207" 
d="M190 -75q17 -18 17 -45q0 -45 -30 -68.5t-89 -23.5q-32 0 -60 11.5t-28 29.5q0 16 10 26.5t18 10.5t20 -5q3 -1 15.5 -4.5t27.5 -3.5q34 0 34 26q0 12 -9 18.5t-24 11.5q-2 1 -8.5 4t-9.5 5.5t-3 6.5q0 8 25 85h64l-17 -62q30 -5 47 -23z" />
    <glyph glyph-name="uni00B9" unicode="&#xb9;" horiz-adv-x="280" 
d="M104 368v315l-65 -12q-11 0 -15 16t-4 34q0 14 14 17l137 25q5 0 13 -4.5t8 -9.5v-381q0 -10 -7.5 -14.5t-26.5 -4.5h-19q-35 0 -35 19z" />
    <glyph glyph-name="ordmasculine" unicode="&#xba;" horiz-adv-x="292" 
d="M62 474q-29 35 -29 100t29 100t84 35t84 -35t29 -100t-29 -100t-84 -35t-84 35zM173 521q8 16 8 53t-8 53t-26 16q-20 0 -28 -16t-8 -53t8 -53t28 -16q18 0 26 16z" />
    <glyph glyph-name="guillemotright" unicode="&#xbb;" horiz-adv-x="405" 
d="M45 60.5q-21 13.5 -21 28.5q0 10 8 23l90 146l-90 146q-8 13 -8 22q0 16 21 29.5t37 13.5q15 0 24 -14l101 -153q8 -12 11.5 -21.5t3.5 -22.5t-3.5 -22.5t-11.5 -21.5l-101 -153q-9 -14 -24 -14q-16 0 -37 13.5zM217 60.5q-21 13.5 -21 28.5q0 10 8 23l92 146l-92 146
q-8 13 -8 22q0 16 21 29.5t37 13.5q15 0 23 -14l102 -153q15 -21 15 -44t-15 -44l-102 -153q-8 -14 -23 -14q-16 0 -37 13.5z" />
    <glyph glyph-name="onequarter" unicode="&#xbc;" horiz-adv-x="675" 
d="M94 308v315l-65 -12q-11 0 -15 16t-4 34q0 14 14 17l137 25q5 0 13 -4.5t8 -9.5v-381q0 -10 -7.5 -14.5t-26.5 -4.5h-19q-35 0 -35 19zM535 8v65h-121q-8 0 -16 19.5t-8 32.5q0 6 3 12l124 250q5 9 14.5 11.5t25.5 2.5h30q35 0 35 -19v-240h16q9 0 13 -7t4 -23v-10
q0 -29 -17 -29h-16v-65q0 -10 -8 -14.5t-27 -4.5h-16q-36 0 -36 19zM537 142v56q0 31 2 52t7 48l-4 1l-74 -157h69zM154 11q0 7 6 19l265 644q11 26 42 26h16q20 0 20 -11q0 -6 -4 -15l-267 -647q-11 -27 -42 -27h-16q-20 0 -20 11z" />
    <glyph glyph-name="onehalf" unicode="&#xbd;" horiz-adv-x="675" 
d="M94 308v315l-65 -12q-11 0 -15 16t-4 34q0 14 14 17l137 25q5 0 13 -4.5t8 -9.5v-381q0 -10 -7.5 -14.5t-26.5 -4.5h-19q-35 0 -35 19zM425.5 16.5q-5.5 16.5 -5.5 30.5q0 9 6 18l119 173q27 39 27 67q0 20 -12.5 30.5t-33.5 10.5q-14 0 -26 -5t-24.5 -13t-16.5 -8
q-13 0 -23.5 14.5t-10.5 26.5q0 24 35.5 38.5t79.5 14.5q58 0 89 -29t31 -77q0 -25 -9 -50t-31 -56l-94 -134h120q9 0 13 -6.5t4 -22.5v-10q0 -29 -17 -29h-207q-8 0 -13.5 16.5zM141 11q0 7 6 19l265 644q11 26 42 26h16q20 0 20 -11q0 -6 -4 -15l-267 -647
q-11 -27 -42 -27h-16q-20 0 -20 11z" />
    <glyph glyph-name="threequarters" unicode="&#xbe;" horiz-adv-x="675" 
d="M47 295q-34 12 -34 36q0 11 9.5 28t19.5 17q3 0 23 -12t46 -12q25 0 39.5 15t14.5 42q0 30 -15 45t-49 15h-21q-17 0 -17 29v11q0 29 17 29h16q26 0 41 13t15 36q0 22 -11.5 34.5t-32.5 12.5q-22 0 -36.5 -9t-17.5 -9q-8 0 -18.5 16.5t-10.5 28.5q0 21 30.5 32t74.5 11
q50 0 80 -28t30 -75q0 -30 -14.5 -52.5t-40.5 -33.5v-2q34 -13 51 -40.5t17 -64.5q0 -59 -35.5 -92t-98.5 -33q-38 0 -72 12zM535 8v65h-121q-8 0 -16 19.5t-8 32.5q0 6 3 12l124 250q5 9 14.5 11.5t25.5 2.5h30q35 0 35 -19v-240h16q9 0 13 -7t4 -23v-10q0 -29 -17 -29h-16
v-65q0 -10 -8 -14.5t-27 -4.5h-16q-36 0 -36 19zM537 142v56q0 31 2 52t7 48l-4 1l-74 -157h69zM176 11q0 7 6 19l265 644q11 26 42 26h16q20 0 20 -11q0 -6 -4 -15l-267 -647q-11 -27 -42 -27h-16q-20 0 -20 11z" />
    <glyph glyph-name="questiondown" unicode="&#xbf;" horiz-adv-x="391" 
d="M306 493v-92q0 -32 -60 -32h-32q-60 0 -60 32v92q0 32 60 32h32q60 0 60 -32zM281.5 294.5q11.5 -6.5 11.5 -22.5q0 -42 -14.5 -79t-42.5 -74l-22 -26q-28 -33 -40.5 -53t-12.5 -37q0 -56 65 -56q20 0 36 6.5t31.5 15.5t19.5 9q13 0 27.5 -15.5t25 -35.5t10.5 -31
q0 -25 -26.5 -43t-66 -28t-77.5 -10q-92 0 -146.5 44.5t-54.5 124.5q0 40 11.5 69t28 49t45.5 48q34 32 53 59t25 65q4 15 16 21t37 6h23q26 0 37.5 -6.5z" />
    <glyph glyph-name="Agrave" unicode="&#xc0;" horiz-adv-x="505" 
d="M2 20q0 8 3 18l154 636q7 28 61 28h65q55 0 62 -28l154 -636q2 -14 2 -18q0 -22 -43 -22h-53q-48 0 -53 21l-26 122h-152l-27 -122q-4 -21 -47 -21h-52q-48 0 -48 22zM311 263l-45 212q-7 36 -12 76h-5q-5 -40 -12 -76l-44 -212h118zM248 752.5q-13 3.5 -28 16.5l-64 52
q-15 14 -21 22t-6 14q0 11 15 14.5t51 3.5q32 0 48 -5.5t29 -24.5l41 -57q11 -19 11 -27q0 -6 -6.5 -9t-28.5 -3q-28 0 -41 3.5z" />
    <glyph glyph-name="Aacute" unicode="&#xc1;" horiz-adv-x="505" 
d="M2 20q0 8 3 18l154 636q7 28 61 28h65q55 0 62 -28l154 -636q2 -14 2 -18q0 -22 -43 -22h-53q-48 0 -53 21l-26 122h-152l-27 -122q-4 -21 -47 -21h-52q-48 0 -48 22zM311 263l-45 212q-7 36 -12 76h-5q-5 -40 -12 -76l-44 -212h118zM187.5 752q-6.5 3 -6.5 9q0 12 11 27
l41 57q14 19 30 24.5t47 5.5q36 0 51 -3.5t15 -14.5q0 -14 -27 -36l-64 -52q-15 -13 -28 -16.5t-41 -3.5q-22 0 -28.5 3z" />
    <glyph glyph-name="Acircumflex" unicode="&#xc2;" horiz-adv-x="505" 
d="M2 20q0 8 3 18l154 636q7 28 61 28h65q55 0 62 -28l154 -636q2 -14 2 -18q0 -22 -43 -22h-53q-48 0 -53 21l-26 122h-152l-27 -122q-4 -21 -47 -21h-52q-48 0 -48 22zM311 263l-45 212q-7 36 -12 76h-5q-5 -40 -12 -76l-44 -212h118zM130 737q-11 3 -11 13q0 9 9 22
l37 59q11 19 26 24t50 5h24q35 0 50 -5t26 -24l37 -59q9 -13 9 -22t-11 -12.5t-34 -3.5t-32.5 2.5t-22.5 14.5l-34 32l-34 -32q-13 -12 -22.5 -14.5t-32.5 -2.5t-34 3z" />
    <glyph glyph-name="Atilde" unicode="&#xc3;" horiz-adv-x="505" 
d="M2 20q0 8 3 18l154 636q7 28 61 28h65q55 0 62 -28l154 -636q2 -14 2 -18q0 -22 -43 -22h-53q-48 0 -53 21l-26 122h-152l-27 -122q-4 -21 -47 -21h-52q-48 0 -48 22zM311 263l-45 212q-7 36 -12 76h-5q-5 -40 -12 -76l-44 -212h118zM114.5 764.5q-16.5 8.5 -16.5 18.5
t5 22q13 29 36 47.5t55 18.5q19 0 35 -5t39 -15q3 -1 16.5 -6.5t23.5 -5.5q11 0 17.5 4.5t15.5 15.5q11 15 21 15q12 0 28.5 -9.5t16.5 -19.5q0 -3 -3 -15q-11 -29 -36 -50t-56 -21t-71 18q-3 1 -17.5 6.5t-25.5 5.5t-18.5 -5t-16.5 -14q-14 -14 -22 -14q-10 0 -26.5 8.5z
" />
    <glyph glyph-name="Adieresis" unicode="&#xc4;" horiz-adv-x="505" 
d="M2 20q0 8 3 18l154 636q7 28 61 28h65q55 0 62 -28l154 -636q2 -14 2 -18q0 -22 -43 -22h-53q-48 0 -53 21l-26 122h-152l-27 -122q-4 -21 -47 -21h-52q-48 0 -48 22zM311 263l-45 212q-7 36 -12 76h-5q-5 -40 -12 -76l-44 -212h118zM119.5 753.5q-14.5 7.5 -14.5 24.5
v68q0 17 14.5 24.5t45.5 7.5t45.5 -7.5t14.5 -24.5v-68q0 -17 -14.5 -24.5t-45.5 -7.5t-45.5 7.5zM295.5 753.5q-14.5 7.5 -14.5 24.5v68q0 17 14.5 24.5t45.5 7.5t45.5 -7.5t14.5 -24.5v-68q0 -17 -14.5 -24.5t-45.5 -7.5t-45.5 7.5z" />
    <glyph glyph-name="Aring" unicode="&#xc5;" horiz-adv-x="505" 
d="M2 20q0 8 3 18l154 636q7 28 61 28h65q55 0 62 -28l154 -636q2 -14 2 -18q0 -22 -43 -22h-53q-48 0 -53 21l-26 122h-152l-27 -122q-4 -21 -47 -21h-52q-48 0 -48 22zM311 263l-45 212q-7 36 -12 76h-5q-5 -40 -12 -76l-44 -212h118zM181.5 746.5q-28.5 28.5 -28.5 70.5
q0 43 28.5 71.5t70.5 28.5q43 0 71.5 -28.5t28.5 -71.5q0 -42 -28.5 -70.5t-71.5 -28.5q-42 0 -70.5 28.5zM277 792q10 10 10 24q0 15 -10 25t-25 10q-14 0 -24 -10t-10 -25q0 -14 10 -24t24 -10q15 0 25 10z" />
    <glyph glyph-name="AE" unicode="&#xc6;" horiz-adv-x="746" 
d="M3 20q0 9 3 18l246 635q10 27 35 27h392q15 0 22 -12t7 -38v-31q0 -26 -7 -38t-22 -12h-228l15 -145h193q15 0 22 -12t7 -38v-31q0 -26 -7 -38t-22 -12h-176l17 -162h180q15 0 22 -12t7 -38v-31q0 -26 -7 -38t-22 -12h-287q-13 0 -19 7t-8 23l-12 111h-160l-47 -122
q-7 -21 -39 -21h-46q-59 0 -59 22zM342 273l-16 181v72h-4l-23 -71l-64 -182h107z" />
    <glyph glyph-name="Ccedilla" unicode="&#xc7;" 
d="M396 140q20 0 30 -25t10 -66q0 -15 -6 -25.5t-23 -16.5q-29 -10 -74 -14l-12 -45q30 -5 47 -23t17 -45q0 -45 -30 -68.5t-89 -23.5q-32 0 -60 11.5t-28 29.5q0 16 10 26.5t18 10.5t20 -5q3 -1 15.5 -4.5t27.5 -3.5q34 0 34 26q0 12 -9 18.5t-24 11.5q-2 1 -8.5 4
t-9.5 5.5t-3 6.5q0 7 20 68q-121 10 -176.5 97t-55.5 262q0 180 66.5 268t205.5 88q47 0 87 -11q31 -9 31 -43q0 -38 -13.5 -68t-33.5 -23q-32 10 -64 10q-60 0 -89.5 -55t-29.5 -167t29.5 -167.5t94.5 -55.5q19 0 32 2.5t34 8.5q3 1 9 1z" />
    <glyph glyph-name="Egrave" unicode="&#xc8;" horiz-adv-x="457" 
d="M67 9.5q-9 9.5 -9 30.5v620q0 21 9 30.5t28 9.5h295q15 0 22 -12t7 -38v-31q0 -26 -7 -38t-22 -12h-176v-145h156q15 0 22 -12t7 -38v-31q0 -26 -7 -38t-22 -12h-156v-162h177q15 0 21.5 -12t6.5 -38v-31q0 -26 -6.5 -38t-21.5 -12h-296q-19 0 -28 9.5zM230 752.5
q-13 3.5 -28 16.5l-64 52q-15 14 -21 22t-6 14q0 11 15 14.5t51 3.5q32 0 48 -5.5t29 -24.5l41 -57q11 -19 11 -27q0 -6 -6.5 -9t-28.5 -3q-28 0 -41 3.5z" />
    <glyph glyph-name="Eacute" unicode="&#xc9;" horiz-adv-x="457" 
d="M67 9.5q-9 9.5 -9 30.5v620q0 21 9 30.5t28 9.5h295q15 0 22 -12t7 -38v-31q0 -26 -7 -38t-22 -12h-176v-145h156q15 0 22 -12t7 -38v-31q0 -26 -7 -38t-22 -12h-156v-162h177q15 0 21.5 -12t6.5 -38v-31q0 -26 -6.5 -38t-21.5 -12h-296q-19 0 -28 9.5zM169.5 752
q-6.5 3 -6.5 9q0 12 11 27l41 57q14 19 30 24.5t47 5.5q36 0 51 -3.5t15 -14.5q0 -14 -27 -36l-64 -52q-15 -13 -28 -16.5t-41 -3.5q-22 0 -28.5 3z" />
    <glyph glyph-name="Ecircumflex" unicode="&#xca;" horiz-adv-x="457" 
d="M67 9.5q-9 9.5 -9 30.5v620q0 21 9 30.5t28 9.5h295q15 0 22 -12t7 -38v-31q0 -26 -7 -38t-22 -12h-176v-145h156q15 0 22 -12t7 -38v-31q0 -26 -7 -38t-22 -12h-156v-162h177q15 0 21.5 -12t6.5 -38v-31q0 -26 -6.5 -38t-21.5 -12h-296q-19 0 -28 9.5zM112 737
q-11 3 -11 13q0 9 9 22l37 59q11 19 26 24t50 5h24q35 0 50 -5t26 -24l37 -59q9 -13 9 -22t-11 -12.5t-34 -3.5t-32.5 2.5t-22.5 14.5l-34 32l-34 -32q-13 -12 -22.5 -14.5t-32.5 -2.5t-34 3z" />
    <glyph glyph-name="Edieresis" unicode="&#xcb;" horiz-adv-x="457" 
d="M67 9.5q-9 9.5 -9 30.5v620q0 21 9 30.5t28 9.5h295q15 0 22 -12t7 -38v-31q0 -26 -7 -38t-22 -12h-176v-145h156q15 0 22 -12t7 -38v-31q0 -26 -7 -38t-22 -12h-156v-162h177q15 0 21.5 -12t6.5 -38v-31q0 -26 -6.5 -38t-21.5 -12h-296q-19 0 -28 9.5zM101.5 753.5
q-14.5 7.5 -14.5 24.5v68q0 17 14.5 24.5t45.5 7.5t45.5 -7.5t14.5 -24.5v-68q0 -17 -14.5 -24.5t-45.5 -7.5t-45.5 7.5zM277.5 753.5q-14.5 7.5 -14.5 24.5v68q0 17 14.5 24.5t45.5 7.5t45.5 -7.5t14.5 -24.5v-68q0 -17 -14.5 -24.5t-45.5 -7.5t-45.5 7.5z" />
    <glyph glyph-name="Igrave" unicode="&#xcc;" horiz-adv-x="262" 
d="M52 30v640q0 33 58 33h42q57 0 57 -33v-640q0 -33 -57 -33h-42q-58 0 -58 33zM126 752.5q-13 3.5 -28 16.5l-64 52q-15 14 -21 22t-6 14q0 11 15 14.5t51 3.5q32 0 48 -5.5t29 -24.5l41 -57q11 -19 11 -27q0 -6 -6.5 -9t-28.5 -3q-28 0 -41 3.5z" />
    <glyph glyph-name="Iacute" unicode="&#xcd;" horiz-adv-x="262" 
d="M52 30v640q0 33 58 33h42q57 0 57 -33v-640q0 -33 -57 -33h-42q-58 0 -58 33zM65.5 752q-6.5 3 -6.5 9q0 12 11 27l41 57q14 19 30 24.5t47 5.5q36 0 51 -3.5t15 -14.5q0 -14 -27 -36l-64 -52q-15 -13 -28 -16.5t-41 -3.5q-22 0 -28.5 3z" />
    <glyph glyph-name="Icircumflex" unicode="&#xce;" horiz-adv-x="262" 
d="M52 30v640q0 33 58 33h42q57 0 57 -33v-640q0 -33 -57 -33h-42q-58 0 -58 33zM8 737q-11 3 -11 13q0 9 9 22l37 59q11 19 26 24t50 5h24q35 0 50 -5t26 -24l37 -59q9 -13 9 -22t-11 -12.5t-34 -3.5t-32.5 2.5t-22.5 14.5l-34 32l-34 -32q-13 -12 -22.5 -14.5t-32.5 -2.5
t-34 3z" />
    <glyph glyph-name="Idieresis" unicode="&#xcf;" horiz-adv-x="262" 
d="M52 30v640q0 33 58 33h42q57 0 57 -33v-640q0 -33 -57 -33h-42q-58 0 -58 33zM-2.5 753.5q-14.5 7.5 -14.5 24.5v68q0 17 14.5 24.5t45.5 7.5t45.5 -7.5t14.5 -24.5v-68q0 -17 -14.5 -24.5t-45.5 -7.5t-45.5 7.5zM173.5 753.5q-14.5 7.5 -14.5 24.5v68q0 17 14.5 24.5
t45.5 7.5t45.5 -7.5t14.5 -24.5v-68q0 -17 -14.5 -24.5t-45.5 -7.5t-45.5 7.5z" />
    <glyph glyph-name="Eth" unicode="&#xd0;" horiz-adv-x="577" 
d="M475.5 613q61.5 -87 61.5 -263t-61.5 -263t-191.5 -87h-190q-19 0 -28 9.5t-9 30.5v251h-21q-15 0 -22 12t-7 38v30q0 26 7 38t22 12h21v239q0 21 9 30.5t28 9.5h190q130 0 191.5 -87zM355 180.5q23 49.5 23 169.5t-23 169.5t-76 49.5h-64v-148h49q15 0 22 -12t7 -38v-30
q0 -26 -7 -38t-22 -12h-49v-160h64q53 0 76 49.5z" />
    <glyph glyph-name="Ntilde" unicode="&#xd1;" horiz-adv-x="590" 
d="M52 30v640q0 32 58 32h26q20 0 32 -5.5t20 -22.5l180 -326q14 -26 34 -78l4 2q-8 52 -8 79v319q0 32 58 32h24q58 0 58 -32v-640q0 -32 -58 -32h-19q-20 0 -33 5.5t-21 22.5l-191 340q-9 15 -27 64l-5 -3q8 -46 8 -68v-329q0 -32 -58 -32h-24q-58 0 -58 32zM156.5 764.5
q-16.5 8.5 -16.5 18.5t5 22q13 29 36 47.5t55 18.5q19 0 35 -5t39 -15q3 -1 16.5 -6.5t23.5 -5.5q11 0 17.5 4.5t15.5 15.5q11 15 21 15q12 0 28.5 -9.5t16.5 -19.5q0 -3 -3 -15q-11 -29 -36 -50t-56 -21t-71 18q-3 1 -17.5 6.5t-25.5 5.5t-18.5 -5t-16.5 -14
q-14 -14 -22 -14q-10 0 -26.5 8.5z" />
    <glyph glyph-name="Ograve" unicode="&#xd2;" horiz-adv-x="599" 
d="M38 350q0 358 262 358q128 0 194.5 -87t66.5 -271t-66.5 -271t-194.5 -87q-262 0 -262 358zM359 143q22 20 33 69.5t11 137.5q0 87 -11 136.5t-33 69.5t-58 20t-58.5 -20t-34 -69.5t-11.5 -136.5t11.5 -137t34 -70t58.5 -20t58 20zM295 752.5q-13 3.5 -28 16.5l-64 52
q-15 14 -21 22t-6 14q0 11 15 14.5t51 3.5q32 0 48 -5.5t29 -24.5l41 -57q11 -19 11 -27q0 -6 -6.5 -9t-28.5 -3q-28 0 -41 3.5z" />
    <glyph glyph-name="Oacute" unicode="&#xd3;" horiz-adv-x="599" 
d="M38 350q0 358 262 358q128 0 194.5 -87t66.5 -271t-66.5 -271t-194.5 -87q-262 0 -262 358zM359 143q22 20 33 69.5t11 137.5q0 87 -11 136.5t-33 69.5t-58 20t-58.5 -20t-34 -69.5t-11.5 -136.5t11.5 -137t34 -70t58.5 -20t58 20zM234.5 752q-6.5 3 -6.5 9q0 12 11 27
l41 57q14 19 30 24.5t47 5.5q36 0 51 -3.5t15 -14.5q0 -14 -27 -36l-64 -52q-15 -13 -28 -16.5t-41 -3.5q-22 0 -28.5 3z" />
    <glyph glyph-name="Ocircumflex" unicode="&#xd4;" horiz-adv-x="599" 
d="M38 350q0 358 262 358q128 0 194.5 -87t66.5 -271t-66.5 -271t-194.5 -87q-262 0 -262 358zM359 143q22 20 33 69.5t11 137.5q0 87 -11 136.5t-33 69.5t-58 20t-58.5 -20t-34 -69.5t-11.5 -136.5t11.5 -137t34 -70t58.5 -20t58 20zM177 737q-11 3 -11 13q0 9 9 22l37 59
q11 19 26 24t50 5h24q35 0 50 -5t26 -24l37 -59q9 -13 9 -22t-11 -12.5t-34 -3.5t-32.5 2.5t-22.5 14.5l-34 32l-34 -32q-13 -12 -22.5 -14.5t-32.5 -2.5t-34 3z" />
    <glyph glyph-name="Otilde" unicode="&#xd5;" horiz-adv-x="599" 
d="M38 350q0 358 262 358q128 0 194.5 -87t66.5 -271t-66.5 -271t-194.5 -87q-262 0 -262 358zM359 143q22 20 33 69.5t11 137.5q0 87 -11 136.5t-33 69.5t-58 20t-58.5 -20t-34 -69.5t-11.5 -136.5t11.5 -137t34 -70t58.5 -20t58 20zM161.5 764.5q-16.5 8.5 -16.5 18.5
t5 22q13 29 36 47.5t55 18.5q19 0 35 -5t39 -15q3 -1 16.5 -6.5t23.5 -5.5q11 0 17.5 4.5t15.5 15.5q11 15 21 15q12 0 28.5 -9.5t16.5 -19.5q0 -3 -3 -15q-11 -29 -36 -50t-56 -21t-71 18q-3 1 -17.5 6.5t-25.5 5.5t-18.5 -5t-16.5 -14q-14 -14 -22 -14q-10 0 -26.5 8.5z
" />
    <glyph glyph-name="Odieresis" unicode="&#xd6;" horiz-adv-x="599" 
d="M38 350q0 358 262 358q128 0 194.5 -87t66.5 -271t-66.5 -271t-194.5 -87q-262 0 -262 358zM359 143q22 20 33 69.5t11 137.5q0 87 -11 136.5t-33 69.5t-58 20t-58.5 -20t-34 -69.5t-11.5 -136.5t11.5 -137t34 -70t58.5 -20t58 20zM166.5 753.5q-14.5 7.5 -14.5 24.5v68
q0 17 14.5 24.5t45.5 7.5t45.5 -7.5t14.5 -24.5v-68q0 -17 -14.5 -24.5t-45.5 -7.5t-45.5 7.5zM342.5 753.5q-14.5 7.5 -14.5 24.5v68q0 17 14.5 24.5t45.5 7.5t45.5 -7.5t14.5 -24.5v-68q0 -17 -14.5 -24.5t-45.5 -7.5t-45.5 7.5z" />
    <glyph glyph-name="multiply" unicode="&#xd7;" horiz-adv-x="448" 
d="M67 21q-18 11 -33 24.5t-15 21.5t15 28l106 147l-106 147q-14 19 -14 27q0 9 14.5 23t32 25t23.5 11q7 0 18 -11l106 -147l100 141q10 14 22 14q7 0 25 -11t32 -24.5t14 -21.5t-12 -26l-107 -147l107 -147q14 -21 14 -28q0 -9 -14.5 -22t-33 -23t-25.5 -10q-12 0 -22 14
l-100 141l-106 -147q-8 -10 -16 -10q-7 0 -25 11z" />
    <glyph glyph-name="Oslash" unicode="&#xd8;" horiz-adv-x="599" 
d="M561 350q0 -184 -66.5 -271t-194.5 -87q-100 0 -162 52l-34 -51q-10 -16 -24 -16t-32.5 14t-18.5 27q0 8 7 18l49 75q-47 86 -47 239q0 358 262 358q89 0 149 -42l32 48q6 8 11 12t12 4q14 0 32.5 -14t18.5 -27q0 -10 -7 -19l-43 -65q56 -88 56 -255zM199 284l170 260
q-22 32 -68 32q-36 0 -58.5 -20t-34 -69.5t-11.5 -136.5q0 -26 2 -66zM359 143q22 20 33 69.5t11 137.5q0 58 -4 93l-177 -270q12 -27 31.5 -38.5t47.5 -11.5q36 0 58 20z" />
    <glyph glyph-name="Ugrave" unicode="&#xd9;" horiz-adv-x="583" 
d="M115 48q-64 56 -64 157v465q0 32 58 32h40q58 0 58 -32v-455q0 -41 23 -66.5t62 -25.5q38 0 61.5 26t23.5 66v455q0 32 58 32h39q58 0 58 -32v-465q0 -101 -63.5 -157t-176.5 -56t-177 56zM287 752.5q-13 3.5 -28 16.5l-64 52q-15 14 -21 22t-6 14q0 11 15 14.5t51 3.5
q32 0 48 -5.5t29 -24.5l41 -57q11 -19 11 -27q0 -6 -6.5 -9t-28.5 -3q-28 0 -41 3.5z" />
    <glyph glyph-name="Uacute" unicode="&#xda;" horiz-adv-x="583" 
d="M115 48q-64 56 -64 157v465q0 32 58 32h40q58 0 58 -32v-455q0 -41 23 -66.5t62 -25.5q38 0 61.5 26t23.5 66v455q0 32 58 32h39q58 0 58 -32v-465q0 -101 -63.5 -157t-176.5 -56t-177 56zM226.5 752q-6.5 3 -6.5 9q0 12 11 27l41 57q14 19 30 24.5t47 5.5q36 0 51 -3.5
t15 -14.5q0 -14 -27 -36l-64 -52q-15 -13 -28 -16.5t-41 -3.5q-22 0 -28.5 3z" />
    <glyph glyph-name="Ucircumflex" unicode="&#xdb;" horiz-adv-x="583" 
d="M115 48q-64 56 -64 157v465q0 32 58 32h40q58 0 58 -32v-455q0 -41 23 -66.5t62 -25.5q38 0 61.5 26t23.5 66v455q0 32 58 32h39q58 0 58 -32v-465q0 -101 -63.5 -157t-176.5 -56t-177 56zM169 737q-11 3 -11 13q0 9 9 22l37 59q11 19 26 24t50 5h24q35 0 50 -5t26 -24
l37 -59q9 -13 9 -22t-11 -12.5t-34 -3.5t-32.5 2.5t-22.5 14.5l-34 32l-34 -32q-13 -12 -22.5 -14.5t-32.5 -2.5t-34 3z" />
    <glyph glyph-name="Udieresis" unicode="&#xdc;" horiz-adv-x="583" 
d="M115 48q-64 56 -64 157v465q0 32 58 32h40q58 0 58 -32v-455q0 -41 23 -66.5t62 -25.5q38 0 61.5 26t23.5 66v455q0 32 58 32h39q58 0 58 -32v-465q0 -101 -63.5 -157t-176.5 -56t-177 56zM158.5 753.5q-14.5 7.5 -14.5 24.5v68q0 17 14.5 24.5t45.5 7.5t45.5 -7.5
t14.5 -24.5v-68q0 -17 -14.5 -24.5t-45.5 -7.5t-45.5 7.5zM334.5 753.5q-14.5 7.5 -14.5 24.5v68q0 17 14.5 24.5t45.5 7.5t45.5 -7.5t14.5 -24.5v-68q0 -17 -14.5 -24.5t-45.5 -7.5t-45.5 7.5z" />
    <glyph glyph-name="Yacute" unicode="&#xdd;" horiz-adv-x="484" 
d="M165 30v272l-154 355q-2 4 -5.5 12.5t-3.5 12.5q0 9 15.5 14.5t44.5 5.5h51q49 0 55 -19l78 -246l77 246q3 11 17 15t38 4h42q63 0 63 -20q0 -10 -7 -25l-154 -358v-269q0 -32 -59 -32h-39q-59 0 -59 32zM176.5 752q-6.5 3 -6.5 9q0 12 11 27l41 57q14 19 30 24.5t47 5.5
q36 0 51 -3.5t15 -14.5q0 -14 -27 -36l-64 -52q-15 -13 -28 -16.5t-41 -3.5q-22 0 -28.5 3z" />
    <glyph glyph-name="Thorn" unicode="&#xde;" horiz-adv-x="482" 
d="M55 30v640q0 32 58 32h40q58 0 58 -32v-79h57q79 0 139.5 -45.5t60.5 -173.5q0 -88 -35 -136.5t-78 -65.5t-77 -17h-67v-123q0 -32 -58 -32h-40q-58 0 -58 32zM261 282q24 0 40.5 20t16.5 70q0 49 -16.5 68.5t-40.5 19.5h-50v-178h50z" />
    <glyph glyph-name="germandbls" unicode="&#xdf;" horiz-adv-x="480" 
d="M47 30v471q0 96 53.5 151.5t148.5 55.5q88 0 142.5 -46.5t54.5 -137.5q0 -53 -19.5 -91t-56.5 -57v-4q47 -23 68.5 -61.5t21.5 -105.5q0 -100 -50 -152.5t-139 -52.5h-17q-16 0 -23 12t-7 38v17q0 26 7 38t23 12h8q25 0 38.5 20.5t13.5 67.5q0 51 -15 73t-43 22h-2
q-16 0 -23 12t-7 38v17q0 50 27 50h3q20 0 31 21.5t11 62.5q0 42 -11 62t-36 20t-39.5 -17.5t-14.5 -46.5v-489q0 -32 -60 -32h-28q-60 0 -60 32z" />
    <glyph glyph-name="agrave" unicode="&#xe0;" horiz-adv-x="481" 
d="M73.5 34q-35.5 42 -35.5 115q0 187 233 186v16q0 32 -14.5 47.5t-46.5 15.5q-22 0 -39 -5.5t-38 -15.5q-14 -8 -21 -8q-10 0 -22 15t-21 34.5t-9 30.5q0 17 23.5 32.5t61 24.5t76.5 9q104 0 151 -46t47 -127v-182q0 -46 2.5 -70t6.5 -53q3 -13 3 -22q0 -16 -40.5 -24
t-71.5 -8q-16 0 -22.5 12t-13.5 39q-13 -22 -41 -40t-67 -18q-66 0 -101.5 42zM249.5 108q13.5 9 21.5 24v117q-100 0 -100 -89q0 -28 13 -44.5t36 -16.5q16 0 29.5 9zM208 578.5q-14 6.5 -28 23.5l-47 63q-10 12 -14.5 20t-4.5 16q0 10 11 13.5t40 3.5q39 0 56 -6.5
t26 -24.5l34 -72q9 -21 9 -28t-8.5 -11t-32.5 -4q-27 0 -41 6.5z" />
    <glyph glyph-name="aacute" unicode="&#xe1;" horiz-adv-x="481" 
d="M73.5 34q-35.5 42 -35.5 115q0 187 233 186v16q0 32 -14.5 47.5t-46.5 15.5q-22 0 -39 -5.5t-38 -15.5q-14 -8 -21 -8q-10 0 -22 15t-21 34.5t-9 30.5q0 17 23.5 32.5t61 24.5t76.5 9q104 0 151 -46t47 -127v-182q0 -46 2.5 -70t6.5 -53q3 -13 3 -22q0 -16 -40.5 -24
t-71.5 -8q-16 0 -22.5 12t-13.5 39q-13 -22 -41 -40t-67 -18q-66 0 -101.5 42zM249.5 108q13.5 9 21.5 24v117q-100 0 -100 -89q0 -28 13 -44.5t36 -16.5q16 0 29.5 9zM175.5 576q-8.5 4 -8.5 11t9 28l34 72q9 18 26 24.5t56 6.5q29 0 40 -3.5t11 -13.5q0 -8 -4.5 -16
t-14.5 -20l-47 -63q-14 -17 -28 -23.5t-41 -6.5q-24 0 -32.5 4z" />
    <glyph glyph-name="acircumflex" unicode="&#xe2;" horiz-adv-x="481" 
d="M73.5 34q-35.5 42 -35.5 115q0 187 233 186v16q0 32 -14.5 47.5t-46.5 15.5q-22 0 -39 -5.5t-38 -15.5q-14 -8 -21 -8q-10 0 -22 15t-21 34.5t-9 30.5q0 17 23.5 32.5t61 24.5t76.5 9q104 0 151 -46t47 -127v-182q0 -46 2.5 -70t6.5 -53q3 -13 3 -22q0 -16 -40.5 -24
t-71.5 -8q-16 0 -22.5 12t-13.5 39q-13 -22 -41 -40t-67 -18q-66 0 -101.5 42zM249.5 108q13.5 9 21.5 24v117q-100 0 -100 -89q0 -28 13 -44.5t36 -16.5q16 0 29.5 9zM110 587q0 7 9 28l34 72q9 18 24 24.5t48 6.5h18q34 0 49 -6.5t24 -24.5l34 -72q9 -21 9 -28
q0 -15 -31 -15q-30 0 -43 6t-24 24l-26 44l-27 -44q-11 -18 -24.5 -24t-42.5 -6q-31 0 -31 15z" />
    <glyph glyph-name="atilde" unicode="&#xe3;" horiz-adv-x="481" 
d="M73.5 34q-35.5 42 -35.5 115q0 187 233 186v16q0 32 -14.5 47.5t-46.5 15.5q-22 0 -39 -5.5t-38 -15.5q-14 -8 -21 -8q-10 0 -22 15t-21 34.5t-9 30.5q0 17 23.5 32.5t61 24.5t76.5 9q104 0 151 -46t47 -127v-182q0 -46 2.5 -70t6.5 -53q3 -13 3 -22q0 -16 -40.5 -24
t-71.5 -8q-16 0 -22.5 12t-13.5 39q-13 -22 -41 -40t-67 -18q-66 0 -101.5 42zM249.5 108q13.5 9 21.5 24v117q-100 0 -100 -89q0 -28 13 -44.5t36 -16.5q16 0 29.5 9zM95.5 594.5q-16.5 8.5 -16.5 19.5q0 4 1.5 11t3.5 13q29 66 89 66q30 0 74 -19q32 -13 46 -13
q10 0 17 4.5t15 13.5l6.5 6.5t12.5 5.5q12 0 29.5 -10.5t17.5 -20.5q0 -6 -7 -24q-11 -27 -35.5 -44t-53.5 -17q-18 0 -34.5 4.5t-37.5 13.5q-33 13 -50 13q-11 0 -18.5 -5t-15.5 -14l-6.5 -6.5t-11.5 -5.5q-9 0 -25.5 8.5z" />
    <glyph glyph-name="adieresis" unicode="&#xe4;" horiz-adv-x="481" 
d="M73.5 34q-35.5 42 -35.5 115q0 187 233 186v16q0 32 -14.5 47.5t-46.5 15.5q-22 0 -39 -5.5t-38 -15.5q-14 -8 -21 -8q-10 0 -22 15t-21 34.5t-9 30.5q0 17 23.5 32.5t61 24.5t76.5 9q104 0 151 -46t47 -127v-182q0 -46 2.5 -70t6.5 -53q3 -13 3 -22q0 -16 -40.5 -24
t-71.5 -8q-16 0 -22.5 12t-13.5 39q-13 -22 -41 -40t-67 -18q-66 0 -101.5 42zM249.5 108q13.5 9 21.5 24v117q-100 0 -100 -89q0 -28 13 -44.5t36 -16.5q16 0 29.5 9zM99.5 588.5q-14.5 7.5 -14.5 24.5v64q0 17 14.5 24.5t47.5 7.5t47.5 -7.5t14.5 -24.5v-64
q0 -17 -14.5 -24.5t-47.5 -7.5t-47.5 7.5zM275.5 588.5q-14.5 7.5 -14.5 24.5v64q0 17 14.5 24.5t47.5 7.5t47.5 -7.5t14.5 -24.5v-64q0 -17 -14.5 -24.5t-47.5 -7.5t-47.5 7.5z" />
    <glyph glyph-name="aring" unicode="&#xe5;" horiz-adv-x="481" 
d="M73.5 34q-35.5 42 -35.5 115q0 187 233 186v16q0 32 -14.5 47.5t-46.5 15.5q-22 0 -39 -5.5t-38 -15.5q-14 -8 -21 -8q-10 0 -22 15t-21 34.5t-9 30.5q0 17 23.5 32.5t61 24.5t76.5 9q104 0 151 -46t47 -127v-182q0 -46 2.5 -70t6.5 -53q3 -13 3 -22q0 -16 -40.5 -24
t-71.5 -8q-16 0 -22.5 12t-13.5 39q-13 -22 -41 -40t-67 -18q-66 0 -101.5 42zM249.5 108q13.5 9 21.5 24v117q-100 0 -100 -89q0 -28 13 -44.5t36 -16.5q16 0 29.5 9zM165.5 567.5q-25.5 26.5 -25.5 72.5t25.5 73t68.5 27t69 -27t26 -73t-25.5 -72.5t-69.5 -26.5
q-43 0 -68.5 26.5zM264 640q0 35 -30 35q-29 0 -29 -35q0 -34 29 -34q30 0 30 34z" />
    <glyph glyph-name="ae" unicode="&#xe6;" horiz-adv-x="688" 
d="M77 34q-39 42 -39 115q0 187 234 186q3 23 9 43q-14 36 -69 36q-21 0 -36.5 -5t-39.5 -15q-18 -9 -24 -9q-10 0 -22.5 15t-21 34.5t-8.5 30.5q0 17 23.5 32.5t61.5 24.5t80 9q41 0 75.5 -8.5t56.5 -22.5q45 31 117 31q100 0 144 -67t44 -198q0 -12 -20.5 -35.5
t-30.5 -23.5h-189q0 -52 22 -75t57 -23q21 0 38.5 6t37.5 15q16 8 21 8q14 0 32.5 -29t18.5 -48q0 -21 -26 -36.5t-63.5 -24t-70.5 -8.5q-101 0 -160 59q-18 -25 -56.5 -42t-84.5 -17q-72 0 -111 42zM520 306q0 59 -10.5 83.5t-34.5 24.5t-38.5 -23t-17.5 -85h101z
M254.5 117.5q16.5 8.5 26.5 24.5q-11 40 -13 96q-89 0 -89 -78q0 -23 10.5 -37t30.5 -14q18 0 34.5 8.5z" />
    <glyph glyph-name="ccedilla" unicode="&#xe7;" horiz-adv-x="408" 
d="M360.5 20q-35.5 -18 -79.5 -25l-13 -47q30 -5 47 -23t17 -45q0 -45 -30 -68.5t-89 -23.5q-32 0 -60 11.5t-28 29.5q0 16 10 26.5t18 10.5t20 -5q3 -1 15.5 -4.5t27.5 -3.5q34 0 34 26q0 12 -9 18.5t-24 11.5q-2 1 -8.5 4t-9.5 5.5t-3 6.5q0 7 20 68q-182 20 -182 267
q0 271 216 271q36 0 69.5 -9.5t54.5 -25.5t21 -34t-15.5 -47t-29.5 -29q-6 0 -19 8q-18 9 -32 14.5t-33 5.5q-41 0 -61 -35t-20 -117t19 -117.5t59 -35.5q18 0 33 5t25 10t13 6q14 7 18 7q15 0 29.5 -28.5t14.5 -47.5q0 -23 -35.5 -41z" />
    <glyph glyph-name="egrave" unicode="&#xe8;" horiz-adv-x="454" 
d="M89 59.5q-55 67.5 -55 198.5q0 148 54.5 210.5t153.5 62.5q98 0 142 -69t44 -200q0 -12 -20.5 -35.5t-30.5 -23.5h-190q2 -51 23 -72.5t57 -21.5q22 0 40 6t35 14.5t21 8.5q10 0 22.5 -14.5t21 -33t8.5 -28.5q0 -23 -27 -38.5t-63.5 -23.5t-64.5 -8q-116 0 -171 67.5z
M293 292q0 71 -12 101.5t-40 30.5q-27 0 -41.5 -29t-18.5 -103h112zM210 578.5q-14 6.5 -28 23.5l-47 63q-10 12 -14.5 20t-4.5 16q0 10 11 13.5t40 3.5q39 0 56 -6.5t26 -24.5l34 -72q9 -21 9 -28t-8.5 -11t-32.5 -4q-27 0 -41 6.5z" />
    <glyph glyph-name="eacute" unicode="&#xe9;" horiz-adv-x="454" 
d="M89 59.5q-55 67.5 -55 198.5q0 148 54.5 210.5t153.5 62.5q98 0 142 -69t44 -200q0 -12 -20.5 -35.5t-30.5 -23.5h-190q2 -51 23 -72.5t57 -21.5q22 0 40 6t35 14.5t21 8.5q10 0 22.5 -14.5t21 -33t8.5 -28.5q0 -23 -27 -38.5t-63.5 -23.5t-64.5 -8q-116 0 -171 67.5z
M293 292q0 71 -12 101.5t-40 30.5q-27 0 -41.5 -29t-18.5 -103h112zM177.5 576q-8.5 4 -8.5 11t9 28l34 72q9 18 26 24.5t56 6.5q29 0 40 -3.5t11 -13.5q0 -8 -4.5 -16t-14.5 -20l-47 -63q-14 -17 -28 -23.5t-41 -6.5q-24 0 -32.5 4z" />
    <glyph glyph-name="ecircumflex" unicode="&#xea;" horiz-adv-x="454" 
d="M89 59.5q-55 67.5 -55 198.5q0 148 54.5 210.5t153.5 62.5q98 0 142 -69t44 -200q0 -12 -20.5 -35.5t-30.5 -23.5h-190q2 -51 23 -72.5t57 -21.5q22 0 40 6t35 14.5t21 8.5q10 0 22.5 -14.5t21 -33t8.5 -28.5q0 -23 -27 -38.5t-63.5 -23.5t-64.5 -8q-116 0 -171 67.5z
M293 292q0 71 -12 101.5t-40 30.5q-27 0 -41.5 -29t-18.5 -103h112zM112 587q0 7 9 28l34 72q9 18 24 24.5t48 6.5h18q34 0 49 -6.5t24 -24.5l34 -72q9 -21 9 -28q0 -15 -31 -15q-30 0 -43 6t-24 24l-26 44l-27 -44q-11 -18 -24.5 -24t-42.5 -6q-31 0 -31 15z" />
    <glyph glyph-name="edieresis" unicode="&#xeb;" horiz-adv-x="454" 
d="M89 59.5q-55 67.5 -55 198.5q0 148 54.5 210.5t153.5 62.5q98 0 142 -69t44 -200q0 -12 -20.5 -35.5t-30.5 -23.5h-190q2 -51 23 -72.5t57 -21.5q22 0 40 6t35 14.5t21 8.5q10 0 22.5 -14.5t21 -33t8.5 -28.5q0 -23 -27 -38.5t-63.5 -23.5t-64.5 -8q-116 0 -171 67.5z
M293 292q0 71 -12 101.5t-40 30.5q-27 0 -41.5 -29t-18.5 -103h112zM101.5 588.5q-14.5 7.5 -14.5 24.5v64q0 17 14.5 24.5t47.5 7.5t47.5 -7.5t14.5 -24.5v-64q0 -17 -14.5 -24.5t-47.5 -7.5t-47.5 7.5zM277.5 588.5q-14.5 7.5 -14.5 24.5v64q0 17 14.5 24.5t47.5 7.5
t47.5 -7.5t14.5 -24.5v-64q0 -17 -14.5 -24.5t-47.5 -7.5t-47.5 7.5z" />
    <glyph glyph-name="igrave" unicode="&#xec;" horiz-adv-x="254" 
d="M53 30v463q0 32 60 32h28q60 0 60 -32v-463q0 -32 -60 -32h-28q-60 0 -60 32zM101 578.5q-14 6.5 -28 23.5l-47 63q-10 12 -14.5 20t-4.5 16q0 10 11 13.5t40 3.5q39 0 56 -6.5t26 -24.5l34 -72q9 -21 9 -28t-8.5 -11t-32.5 -4q-27 0 -41 6.5z" />
    <glyph glyph-name="iacute" unicode="&#xed;" horiz-adv-x="254" 
d="M53 30v463q0 32 60 32h28q60 0 60 -32v-463q0 -32 -60 -32h-28q-60 0 -60 32zM68.5 576q-8.5 4 -8.5 11t9 28l34 72q9 18 26 24.5t56 6.5q29 0 40 -3.5t11 -13.5q0 -8 -4.5 -16t-14.5 -20l-47 -63q-14 -17 -28 -23.5t-41 -6.5q-24 0 -32.5 4z" />
    <glyph glyph-name="icircumflex" unicode="&#xee;" horiz-adv-x="254" 
d="M53 30v463q0 32 60 32h28q60 0 60 -32v-463q0 -32 -60 -32h-28q-60 0 -60 32zM3 587q0 7 9 28l34 72q9 18 24 24.5t48 6.5h18q34 0 49 -6.5t24 -24.5l34 -72q9 -21 9 -28q0 -15 -31 -15q-30 0 -43 6t-24 24l-26 44l-27 -44q-11 -18 -24.5 -24t-42.5 -6q-31 0 -31 15z" />
    <glyph glyph-name="idieresis" unicode="&#xef;" horiz-adv-x="254" 
d="M53 30v463q0 32 60 32h28q60 0 60 -32v-463q0 -32 -60 -32h-28q-60 0 -60 32zM-7.5 588.5q-14.5 7.5 -14.5 24.5v64q0 17 14.5 24.5t47.5 7.5t47.5 -7.5t14.5 -24.5v-64q0 -17 -14.5 -24.5t-47.5 -7.5t-47.5 7.5zM168.5 588.5q-14.5 7.5 -14.5 24.5v64q0 17 14.5 24.5
t47.5 7.5t47.5 -7.5t14.5 -24.5v-64q0 -17 -14.5 -24.5t-47.5 -7.5t-47.5 7.5z" />
    <glyph glyph-name="eth" unicode="&#xf0;" horiz-adv-x="477" 
d="M414.5 449.5q28.5 -92.5 28.5 -187.5q0 -131 -52 -200.5t-153 -69.5q-100 0 -152 69.5t-52 200.5q0 129 51.5 196.5t152.5 67.5q11 0 17 -1q-9 21 -32 64q-55 -8 -61 -8q-15 0 -27 13t-12 29q0 13 21 16l43 6l-14 18q-24 26 -24 33q0 9 19 12l62 7q21 0 38 -11
q15 -11 40 -43l68 9q13 0 25 -13.5t12 -28.5q0 -13 -21 -16l-46 -6q40 -64 68.5 -156.5zM280.5 143.5q12.5 34.5 12.5 118.5q0 81 -12.5 114t-41.5 33q-30 0 -42.5 -33t-12.5 -114q0 -84 12.5 -118.5t42.5 -34.5q29 0 41.5 34.5z" />
    <glyph glyph-name="ntilde" unicode="&#xf1;" horiz-adv-x="482" 
d="M50 30v319q0 71 -5 101t-5 37q0 18 42 26.5t73 8.5q19 0 25 -11t8.5 -28.5t4.5 -27.5q22 33 55.5 54.5t75.5 21.5q55 0 83.5 -35.5t28.5 -103.5v-362q0 -32 -58 -32h-34q-58 0 -58 32v328q0 26 -8 38.5t-29 12.5q-27 0 -50 -32v-347q0 -16 -14 -24t-43 -8h-35
q-57 0 -57 32zM102.5 594.5q-16.5 8.5 -16.5 19.5q0 4 1.5 11t3.5 13q29 66 89 66q30 0 74 -19q32 -13 46 -13q10 0 17 4.5t15 13.5l6.5 6.5t12.5 5.5q12 0 29.5 -10.5t17.5 -20.5q0 -6 -7 -24q-11 -27 -35.5 -44t-53.5 -17q-18 0 -34.5 4.5t-37.5 13.5q-33 13 -50 13
q-11 0 -18.5 -5t-15.5 -14l-6.5 -6.5t-11.5 -5.5q-9 0 -25.5 8.5z" />
    <glyph glyph-name="ograve" unicode="&#xf2;" horiz-adv-x="477" 
d="M86 61.5q-52 69.5 -52 200.5t51.5 200t152.5 69t153 -69t52 -200t-52 -200.5t-153 -69.5q-100 0 -152 69.5zM280.5 143.5q12.5 34.5 12.5 118.5t-12.5 118t-41.5 34q-30 0 -42.5 -34t-12.5 -118t12.5 -118.5t42.5 -34.5q29 0 41.5 34.5zM212 578.5q-14 6.5 -28 23.5
l-47 63q-10 12 -14.5 20t-4.5 16q0 10 11 13.5t40 3.5q39 0 56 -6.5t26 -24.5l34 -72q9 -21 9 -28t-8.5 -11t-32.5 -4q-27 0 -41 6.5z" />
    <glyph glyph-name="oacute" unicode="&#xf3;" horiz-adv-x="477" 
d="M86 61.5q-52 69.5 -52 200.5t51.5 200t152.5 69t153 -69t52 -200t-52 -200.5t-153 -69.5q-100 0 -152 69.5zM280.5 143.5q12.5 34.5 12.5 118.5t-12.5 118t-41.5 34q-30 0 -42.5 -34t-12.5 -118t12.5 -118.5t42.5 -34.5q29 0 41.5 34.5zM179.5 576q-8.5 4 -8.5 11t9 28
l34 72q9 18 26 24.5t56 6.5q29 0 40 -3.5t11 -13.5q0 -8 -4.5 -16t-14.5 -20l-47 -63q-14 -17 -28 -23.5t-41 -6.5q-24 0 -32.5 4z" />
    <glyph glyph-name="ocircumflex" unicode="&#xf4;" horiz-adv-x="477" 
d="M86 61.5q-52 69.5 -52 200.5t51.5 200t152.5 69t153 -69t52 -200t-52 -200.5t-153 -69.5q-100 0 -152 69.5zM280.5 143.5q12.5 34.5 12.5 118.5t-12.5 118t-41.5 34q-30 0 -42.5 -34t-12.5 -118t12.5 -118.5t42.5 -34.5q29 0 41.5 34.5zM114 587q0 7 9 28l34 72
q9 18 24 24.5t48 6.5h18q34 0 49 -6.5t24 -24.5l34 -72q9 -21 9 -28q0 -15 -31 -15q-30 0 -43 6t-24 24l-26 44l-27 -44q-11 -18 -24.5 -24t-42.5 -6q-31 0 -31 15z" />
    <glyph glyph-name="otilde" unicode="&#xf5;" horiz-adv-x="477" 
d="M86 61.5q-52 69.5 -52 200.5t51.5 200t152.5 69t153 -69t52 -200t-52 -200.5t-153 -69.5q-100 0 -152 69.5zM280.5 143.5q12.5 34.5 12.5 118.5t-12.5 118t-41.5 34q-30 0 -42.5 -34t-12.5 -118t12.5 -118.5t42.5 -34.5q29 0 41.5 34.5zM99.5 594.5q-16.5 8.5 -16.5 19.5
q0 4 1.5 11t3.5 13q29 66 89 66q30 0 74 -19q32 -13 46 -13q10 0 17 4.5t15 13.5l6.5 6.5t12.5 5.5q12 0 29.5 -10.5t17.5 -20.5q0 -6 -7 -24q-11 -27 -35.5 -44t-53.5 -17q-18 0 -34.5 4.5t-37.5 13.5q-33 13 -50 13q-11 0 -18.5 -5t-15.5 -14l-6.5 -6.5t-11.5 -5.5
q-9 0 -25.5 8.5z" />
    <glyph glyph-name="odieresis" unicode="&#xf6;" horiz-adv-x="477" 
d="M86 61.5q-52 69.5 -52 200.5t51.5 200t152.5 69t153 -69t52 -200t-52 -200.5t-153 -69.5q-100 0 -152 69.5zM280.5 143.5q12.5 34.5 12.5 118.5t-12.5 118t-41.5 34q-30 0 -42.5 -34t-12.5 -118t12.5 -118.5t42.5 -34.5q29 0 41.5 34.5zM103.5 588.5
q-14.5 7.5 -14.5 24.5v64q0 17 14.5 24.5t47.5 7.5t47.5 -7.5t14.5 -24.5v-64q0 -17 -14.5 -24.5t-47.5 -7.5t-47.5 7.5zM279.5 588.5q-14.5 7.5 -14.5 24.5v64q0 17 14.5 24.5t47.5 7.5t47.5 -7.5t14.5 -24.5v-64q0 -17 -14.5 -24.5t-47.5 -7.5t-47.5 7.5z" />
    <glyph glyph-name="divide" unicode="&#xf7;" horiz-adv-x="448" 
d="M160 350v71q0 32 58 32h12q58 0 58 -32v-71q0 -32 -58 -32h-12q-58 0 -58 32zM22 184q-7 12 -7 38v7q0 26 7 38t23 12h358q16 0 23 -12t7 -38v-7q0 -26 -7 -38t-23 -12h-358q-16 0 -23 12zM160 30v71q0 32 58 32h12q58 0 58 -32v-71q0 -32 -58 -32h-12q-58 0 -58 32z" />
    <glyph glyph-name="oslash" unicode="&#xf8;" horiz-adv-x="477" 
d="M404 443q39 -66 39 -181q0 -131 -52 -200.5t-153 -69.5q-72 0 -121 38l-24 -35q-9 -13 -20 -13q-13 0 -32.5 15t-19.5 28q0 6 4 12.5t5 8.5l35 51q-31 62 -31 165q0 131 51.5 200t152.5 69q64 0 108 -27l23 33q9 13 21 13q14 0 33.5 -14.5t19.5 -26.5q0 -8 -8 -21z
M197.5 381.5q-12.5 -32.5 -13.5 -112.5l88 128q-11 17 -33 17q-29 0 -41.5 -32.5zM293 283l-97 -139q13 -35 43 -35q29 0 41.5 34.5t12.5 118.5v21z" />
    <glyph glyph-name="ugrave" unicode="&#xf9;" horiz-adv-x="482" 
d="M75.5 26.5q-29.5 35.5 -29.5 103.5v363q0 32 58 32h34q58 0 58 -32v-330q0 -25 8 -37.5t29 -12.5q27 0 50 32v348q0 16 14 24t43 8h35q57 0 57 -32v-319q0 -71 5 -102t5 -38q0 -18 -42 -26t-73 -8q-19 0 -25 11t-8.5 28.5t-4.5 27.5q-22 -33 -53.5 -54.5t-72.5 -21.5
q-58 0 -87.5 35.5zM213 578.5q-14 6.5 -28 23.5l-47 63q-10 12 -14.5 20t-4.5 16q0 10 11 13.5t40 3.5q39 0 56 -6.5t26 -24.5l34 -72q9 -21 9 -28t-8.5 -11t-32.5 -4q-27 0 -41 6.5z" />
    <glyph glyph-name="uacute" unicode="&#xfa;" horiz-adv-x="482" 
d="M75.5 26.5q-29.5 35.5 -29.5 103.5v363q0 32 58 32h34q58 0 58 -32v-330q0 -25 8 -37.5t29 -12.5q27 0 50 32v348q0 16 14 24t43 8h35q57 0 57 -32v-319q0 -71 5 -102t5 -38q0 -18 -42 -26t-73 -8q-19 0 -25 11t-8.5 28.5t-4.5 27.5q-22 -33 -53.5 -54.5t-72.5 -21.5
q-58 0 -87.5 35.5zM180.5 576q-8.5 4 -8.5 11t9 28l34 72q9 18 26 24.5t56 6.5q29 0 40 -3.5t11 -13.5q0 -8 -4.5 -16t-14.5 -20l-47 -63q-14 -17 -28 -23.5t-41 -6.5q-24 0 -32.5 4z" />
    <glyph glyph-name="ucircumflex" unicode="&#xfb;" horiz-adv-x="482" 
d="M75.5 26.5q-29.5 35.5 -29.5 103.5v363q0 32 58 32h34q58 0 58 -32v-330q0 -25 8 -37.5t29 -12.5q27 0 50 32v348q0 16 14 24t43 8h35q57 0 57 -32v-319q0 -71 5 -102t5 -38q0 -18 -42 -26t-73 -8q-19 0 -25 11t-8.5 28.5t-4.5 27.5q-22 -33 -53.5 -54.5t-72.5 -21.5
q-58 0 -87.5 35.5zM115 587q0 7 9 28l34 72q9 18 24 24.5t48 6.5h18q34 0 49 -6.5t24 -24.5l34 -72q9 -21 9 -28q0 -15 -31 -15q-30 0 -43 6t-24 24l-26 44l-27 -44q-11 -18 -24.5 -24t-42.5 -6q-31 0 -31 15z" />
    <glyph glyph-name="udieresis" unicode="&#xfc;" horiz-adv-x="482" 
d="M75.5 26.5q-29.5 35.5 -29.5 103.5v363q0 32 58 32h34q58 0 58 -32v-330q0 -25 8 -37.5t29 -12.5q27 0 50 32v348q0 16 14 24t43 8h35q57 0 57 -32v-319q0 -71 5 -102t5 -38q0 -18 -42 -26t-73 -8q-19 0 -25 11t-8.5 28.5t-4.5 27.5q-22 -33 -53.5 -54.5t-72.5 -21.5
q-58 0 -87.5 35.5zM104.5 588.5q-14.5 7.5 -14.5 24.5v64q0 17 14.5 24.5t47.5 7.5t47.5 -7.5t14.5 -24.5v-64q0 -17 -14.5 -24.5t-47.5 -7.5t-47.5 7.5zM280.5 588.5q-14.5 7.5 -14.5 24.5v64q0 17 14.5 24.5t47.5 7.5t47.5 -7.5t14.5 -24.5v-64q0 -17 -14.5 -24.5
t-47.5 -7.5t-47.5 7.5z" />
    <glyph glyph-name="yacute" unicode="&#xfd;" horiz-adv-x="408" 
d="M404 503q0 -4 -2 -18l-170 -670q-5 -21 -55 -21h-20q-56 0 -56 21q0 7 3 18l43 156l-137 491q-4 12 -4 22q0 23 50 23h43q23 0 35.5 -4.5t15.5 -18.5l37 -203q6 -36 16 -112h4q5 35 7 45q6 48 10 67l40 205q4 21 53 21h29q58 0 58 -22zM144.5 576q-8.5 4 -8.5 11t9 28
l34 72q9 18 26 24.5t56 6.5q29 0 40 -3.5t11 -13.5q0 -8 -4.5 -16t-14.5 -20l-47 -63q-14 -17 -28 -23.5t-41 -6.5q-24 0 -32.5 4z" />
    <glyph glyph-name="thorn" unicode="&#xfe;" horiz-adv-x="483" 
d="M50 -174v896q0 32 60 32h28q60 0 60 -32v-247q15 25 41.5 40.5t57.5 15.5q44 0 77.5 -31.5t53 -93t19.5 -147.5q0 -128 -44 -197.5t-123 -69.5q-49 0 -82 29v-195q0 -32 -60 -32h-28q-60 0 -60 32zM283 144.5q14 35.5 14 117.5q0 78 -12 113t-38 35q-29 0 -49 -40v-247
q20 -14 41 -14q30 0 44 35.5z" />
    <glyph glyph-name="ydieresis" unicode="&#xff;" horiz-adv-x="408" 
d="M404 503q0 -4 -2 -18l-170 -670q-5 -21 -55 -21h-20q-56 0 -56 21q0 7 3 18l43 156l-137 491q-4 12 -4 22q0 23 50 23h43q23 0 35.5 -4.5t15.5 -18.5l37 -203q6 -36 16 -112h4q5 35 7 45q6 48 10 67l40 205q4 21 53 21h29q58 0 58 -22zM68.5 588.5q-14.5 7.5 -14.5 24.5
v64q0 17 14.5 24.5t47.5 7.5t47.5 -7.5t14.5 -24.5v-64q0 -17 -14.5 -24.5t-47.5 -7.5t-47.5 7.5zM244.5 588.5q-14.5 7.5 -14.5 24.5v64q0 17 14.5 24.5t47.5 7.5t47.5 -7.5t14.5 -24.5v-64q0 -17 -14.5 -24.5t-47.5 -7.5t-47.5 7.5z" />
    <glyph glyph-name="Amacron" unicode="&#x100;" horiz-adv-x="505" 
d="M2 20q0 8 3 18l154 636q7 28 61 28h65q55 0 62 -28l154 -636q2 -14 2 -18q0 -22 -43 -22h-53q-48 0 -53 21l-26 122h-152l-27 -122q-4 -21 -47 -21h-52q-48 0 -48 22zM311 263l-45 212q-7 36 -12 76h-5q-5 -40 -12 -76l-44 -212h118zM110 775.5q-7 9.5 -7 30.5v15
q0 21 7 30.5t22 9.5h241q16 0 22.5 -9.5t6.5 -30.5v-15q0 -21 -6.5 -30.5t-22.5 -9.5h-241q-15 0 -22 9.5z" />
    <glyph glyph-name="amacron" unicode="&#x101;" horiz-adv-x="481" 
d="M73.5 34q-35.5 42 -35.5 115q0 187 233 186v16q0 32 -14.5 47.5t-46.5 15.5q-22 0 -39 -5.5t-38 -15.5q-14 -8 -21 -8q-10 0 -22 15t-21 34.5t-9 30.5q0 17 23.5 32.5t61 24.5t76.5 9q104 0 151 -46t47 -127v-182q0 -46 2.5 -70t6.5 -53q3 -13 3 -22q0 -16 -40.5 -24
t-71.5 -8q-16 0 -22.5 12t-13.5 39q-13 -22 -41 -40t-67 -18q-66 0 -101.5 42zM249.5 108q13.5 9 21.5 24v117q-100 0 -100 -89q0 -28 13 -44.5t36 -16.5q16 0 29.5 9zM97 606.5q-7 9.5 -7 30.5v15q0 21 7 30.5t22 9.5h231q16 0 22.5 -9.5t6.5 -30.5v-15q0 -21 -6.5 -30.5
t-22.5 -9.5h-231q-15 0 -22 9.5z" />
    <glyph glyph-name="Abreve" unicode="&#x102;" horiz-adv-x="505" 
d="M2 20q0 8 3 18l154 636q7 28 61 28h65q55 0 62 -28l154 -636q2 -14 2 -18q0 -22 -43 -22h-53q-48 0 -53 21l-26 122h-152l-27 -122q-4 -21 -47 -21h-52q-48 0 -48 22zM311 263l-45 212q-7 36 -12 76h-5q-5 -40 -12 -76l-44 -212h118zM177.5 758.5q-30.5 17.5 -45.5 42
t-15 46.5q0 14 10.5 24t26.5 10q8 0 14.5 -4t15.5 -14q27 -32 69 -32q45 0 70 34q7 9 12.5 12.5t15.5 3.5q16 0 26.5 -10t10.5 -24q0 -21 -15 -46t-45.5 -42.5t-75.5 -17.5q-44 0 -74.5 17.5z" />
    <glyph glyph-name="abreve" unicode="&#x103;" horiz-adv-x="481" 
d="M73.5 34q-35.5 42 -35.5 115q0 187 233 186v16q0 32 -14.5 47.5t-46.5 15.5q-22 0 -39 -5.5t-38 -15.5q-14 -8 -21 -8q-10 0 -22 15t-21 34.5t-9 30.5q0 17 23.5 32.5t61 24.5t76.5 9q104 0 151 -46t47 -127v-182q0 -46 2.5 -70t6.5 -53q3 -13 3 -22q0 -16 -40.5 -24
t-71.5 -8q-16 0 -22.5 12t-13.5 39q-13 -22 -41 -40t-67 -18q-66 0 -101.5 42zM249.5 108q13.5 9 21.5 24v117q-100 0 -100 -89q0 -28 13 -44.5t36 -16.5q16 0 29.5 9zM141.5 607.5q-32.5 32.5 -32.5 73.5q0 18 10.5 26t26.5 8q12 0 18.5 -4.5t11.5 -13.5q10 -20 22 -27
t37 -7q26 0 38 7.5t22 28.5q7 16 28 16q16 0 26.5 -8t10.5 -26q0 -26 -13.5 -50t-42 -40t-70.5 -16q-60 0 -92.5 32.5z" />
    <glyph glyph-name="Aogonek" unicode="&#x104;" horiz-adv-x="505" 
d="M501 -115.5q9 -16.5 9 -29.5q0 -22 -25.5 -36.5t-61.5 -14.5q-45 0 -69 25.5t-24 64.5q0 24 16 52.5t45 52.5q-33 2 -37 20l-26 122h-152l-27 -122q-4 -21 -47 -21h-52q-48 0 -48 22q0 8 3 18l154 636q7 28 61 28h65q55 0 62 -28l154 -636q2 -14 2 -18q0 -22 -41 -22
q-57 -43 -57 -82q0 -11 7.5 -18.5t23.5 -7.5q15 0 28 5.5t19 5.5q9 0 18 -16.5zM311 263l-45 212q-7 36 -12 76h-5q-5 -40 -12 -76l-44 -212h118z" />
    <glyph glyph-name="aogonek" unicode="&#x105;" horiz-adv-x="481" 
d="M424 -115.5q9 -16.5 9 -29.5q0 -22 -25.5 -36.5t-61.5 -14.5q-45 0 -69 25.5t-24 64.5q0 24 16 53t46 52q-14 1 -19.5 12t-12.5 39q-13 -22 -41 -40t-67 -18q-66 0 -101.5 42t-35.5 115q0 187 233 186v16q0 32 -14.5 47.5t-46.5 15.5q-22 0 -39 -5.5t-38 -15.5
q-14 -8 -21 -8q-10 0 -22 15t-21 34.5t-9 30.5q0 17 23.5 32.5t61 24.5t76.5 9q104 0 151 -46t47 -127v-182q0 -46 2.5 -70t6.5 -53q3 -13 3 -22q0 -11 -28 -20q-36 -24 -55.5 -49t-19.5 -46q0 -11 7.5 -18.5t23.5 -7.5q15 0 28 5.5t19 5.5q9 0 18 -16.5zM271 249
q-100 0 -100 -89q0 -28 13 -44.5t36 -16.5q16 0 29.5 9t21.5 24v117z" />
    <glyph glyph-name="Cacute" unicode="&#x106;" 
d="M100.5 78.5q-63.5 86.5 -63.5 273.5q0 180 66.5 268t205.5 88q47 0 87 -11q31 -9 31 -43q0 -38 -13.5 -68t-33.5 -23q-32 10 -64 10q-60 0 -89.5 -55t-29.5 -167t29.5 -167.5t94.5 -55.5q19 0 32 2.5t34 8.5q3 1 9 1q20 0 30 -25t10 -66q0 -15 -6 -25.5t-23 -16.5
t-45 -10.5t-58 -4.5q-140 0 -203.5 86.5zM216.5 752q-6.5 3 -6.5 9q0 12 11 27l41 57q14 19 30 24.5t47 5.5q36 0 51 -3.5t15 -14.5q0 -14 -27 -36l-64 -52q-15 -13 -28 -16.5t-41 -3.5q-22 0 -28.5 3z" />
    <glyph glyph-name="cacute" unicode="&#x107;" horiz-adv-x="408" 
d="M34 260q0 271 216 271q36 0 69.5 -9.5t54.5 -25.5t21 -34t-15.5 -47t-29.5 -29q-6 0 -19 8q-18 9 -32 14.5t-33 5.5q-41 0 -61 -35t-20 -117t19 -117.5t59 -35.5q18 0 33 5t25 10t13 6q14 7 18 7q15 0 29.5 -28.5t14.5 -47.5t-25 -35t-60.5 -25t-64.5 -9q-212 0 -212 268
zM168.5 576q-8.5 4 -8.5 11t9 28l34 72q9 18 26 24.5t56 6.5q29 0 40 -3.5t11 -13.5q0 -8 -4.5 -16t-14.5 -20l-47 -63q-14 -17 -28 -23.5t-41 -6.5q-24 0 -32.5 4z" />
    <glyph glyph-name="Ccircumflex" unicode="&#x108;" 
d="M100.5 78.5q-63.5 86.5 -63.5 273.5q0 180 66.5 268t205.5 88q47 0 87 -11q31 -9 31 -43q0 -38 -13.5 -68t-33.5 -23q-32 10 -64 10q-60 0 -89.5 -55t-29.5 -167t29.5 -167.5t94.5 -55.5q19 0 32 2.5t34 8.5q3 1 9 1q20 0 30 -25t10 -66q0 -15 -6 -25.5t-23 -16.5
t-45 -10.5t-58 -4.5q-140 0 -203.5 86.5zM159 737q-11 3 -11 13q0 9 9 22l37 59q11 19 26 24t50 5h24q35 0 50 -5t26 -24l37 -59q9 -13 9 -22t-11 -12.5t-34 -3.5t-32.5 2.5t-22.5 14.5l-34 32l-34 -32q-13 -12 -22.5 -14.5t-32.5 -2.5t-34 3z" />
    <glyph glyph-name="ccircumflex" unicode="&#x109;" horiz-adv-x="408" 
d="M34 260q0 271 216 271q36 0 69.5 -9.5t54.5 -25.5t21 -34t-15.5 -47t-29.5 -29q-6 0 -19 8q-18 9 -32 14.5t-33 5.5q-41 0 -61 -35t-20 -117t19 -117.5t59 -35.5q18 0 33 5t25 10t13 6q14 7 18 7q15 0 29.5 -28.5t14.5 -47.5t-25 -35t-60.5 -25t-64.5 -9q-212 0 -212 268
zM103 587q0 7 9 28l34 72q9 18 24 24.5t48 6.5h18q34 0 49 -6.5t24 -24.5l34 -72q9 -21 9 -28q0 -15 -31 -15q-30 0 -43 6t-24 24l-26 44l-27 -44q-11 -18 -24.5 -24t-42.5 -6q-31 0 -31 15z" />
    <glyph glyph-name="Cdotaccent" unicode="&#x10a;" 
d="M100.5 78.5q-63.5 86.5 -63.5 273.5q0 180 66.5 268t205.5 88q47 0 87 -11q31 -9 31 -43q0 -38 -13.5 -68t-33.5 -23q-32 10 -64 10q-60 0 -89.5 -55t-29.5 -167t29.5 -167.5t94.5 -55.5q19 0 32 2.5t34 8.5q3 1 9 1q20 0 30 -25t10 -66q0 -15 -6 -25.5t-23 -16.5
t-45 -10.5t-58 -4.5q-140 0 -203.5 86.5zM208 772v78q0 32 74 32t74 -32v-78q0 -32 -74 -32t-74 32z" />
    <glyph glyph-name="cdotaccent" unicode="&#x10b;" horiz-adv-x="408" 
d="M34 260q0 271 216 271q36 0 69.5 -9.5t54.5 -25.5t21 -34t-15.5 -47t-29.5 -29q-6 0 -19 8q-18 9 -32 14.5t-33 5.5q-41 0 -61 -35t-20 -117t19 -117.5t59 -35.5q18 0 33 5t25 10t13 6q14 7 18 7q15 0 29.5 -28.5t14.5 -47.5t-25 -35t-60.5 -25t-64.5 -9q-212 0 -212 268
zM154 606v78q0 32 74 32t74 -32v-78q0 -32 -74 -32t-74 32z" />
    <glyph glyph-name="Ccaron" unicode="&#x10c;" 
d="M100.5 78.5q-63.5 86.5 -63.5 273.5q0 180 66.5 268t205.5 88q47 0 87 -11q31 -9 31 -43q0 -38 -13.5 -68t-33.5 -23q-32 10 -64 10q-60 0 -89.5 -55t-29.5 -167t29.5 -167.5t94.5 -55.5q19 0 32 2.5t34 8.5q3 1 9 1q20 0 30 -25t10 -66q0 -15 -6 -25.5t-23 -16.5
t-45 -10.5t-58 -4.5q-140 0 -203.5 86.5zM220 754q-15 5 -26 24l-37 59q-9 14 -9 22q0 10 11 13t34 3t32.5 -2.5t22.5 -14.5l34 -32l34 32q13 12 22.5 14.5t32.5 2.5t34 -3.5t11 -12.5q0 -8 -9 -22l-37 -59q-11 -19 -26 -24t-50 -5h-24q-35 0 -50 5z" />
    <glyph glyph-name="ccaron" unicode="&#x10d;" horiz-adv-x="408" 
d="M34 260q0 271 216 271q36 0 69.5 -9.5t54.5 -25.5t21 -34t-15.5 -47t-29.5 -29q-6 0 -19 8q-18 9 -32 14.5t-33 5.5q-41 0 -61 -35t-20 -117t19 -117.5t59 -35.5q18 0 33 5t25 10t13 6q14 7 18 7q15 0 29.5 -28.5t14.5 -47.5t-25 -35t-60.5 -25t-64.5 -9q-212 0 -212 268
zM168 578.5q-13 6.5 -22 24.5l-34 72q-9 21 -9 28q0 15 31 15q30 0 43 -6t24 -24l26 -44l27 44q11 18 24.5 24t42.5 6q31 0 31 -15q0 -7 -9 -28l-34 -72q-9 -18 -21.5 -24.5t-40.5 -6.5h-38q-28 0 -41 6.5z" />
    <glyph glyph-name="Dcaron" unicode="&#x10e;" horiz-adv-x="575" 
d="M66 9.5q-9 9.5 -9 30.5v620q0 21 9 30.5t28 9.5h190q130 0 191.5 -87t61.5 -263t-61.5 -263t-191.5 -87h-190q-19 0 -28 9.5zM279 131q53 0 76 49.5t23 169.5t-23 169.5t-76 49.5h-64v-438h64zM220 754q-15 5 -26 24l-37 59q-9 14 -9 22q0 10 11 13t34 3t32.5 -2.5
t22.5 -14.5l34 -32l34 32q13 12 22.5 14.5t32.5 2.5t34 -3.5t11 -12.5q0 -8 -9 -22l-37 -59q-11 -19 -26 -24t-50 -5h-24q-35 0 -50 5z" />
    <glyph glyph-name="dcaron" unicode="&#x10f;" horiz-adv-x="481" 
d="M107.5 23.5q-33.5 31.5 -53 93t-19.5 147.5q0 128 44 197.5t123 69.5q49 0 82 -29v220q0 32 60 32h28q60 0 60 -32v-546q0 -46 2.5 -70t6.5 -53q3 -13 3 -22q0 -16 -40.5 -24t-71.5 -8q-20 0 -27.5 16.5t-13.5 46.5q-15 -31 -43 -50.5t-63 -19.5q-44 0 -77.5 31.5z
M284 153v247q-20 14 -41 14q-30 0 -44 -35.5t-14 -117.5q0 -78 12 -113t38 -35q29 0 49 40zM464 568.5q-13 5.5 -13 16.5q0 31 2 73q2 36 2 50q0 44 45 44h17q22 0 33.5 -12t11.5 -32q0 -32 -12.5 -65.5t-29 -56.5t-28.5 -23q-15 0 -28 5.5z" />
    <glyph glyph-name="Dcroat" unicode="&#x110;" horiz-adv-x="577" 
d="M475.5 613q61.5 -87 61.5 -263t-61.5 -263t-191.5 -87h-190q-19 0 -28 9.5t-9 30.5v251h-21q-15 0 -22 12t-7 38v30q0 26 7 38t22 12h21v239q0 21 9 30.5t28 9.5h190q130 0 191.5 -87zM355 180.5q23 49.5 23 169.5t-23 169.5t-76 49.5h-64v-148h49q15 0 22 -12t7 -38v-30
q0 -26 -7 -38t-22 -12h-49v-160h64q53 0 76 49.5z" />
    <glyph glyph-name="dcroat" unicode="&#x111;" horiz-adv-x="481" 
d="M473 670.5q8 -9.5 8 -30.5v-15q0 -21 -8 -30.5t-27 -9.5h-14v-409q0 -46 2.5 -70t6.5 -53q3 -13 3 -22q0 -16 -40.5 -24t-71.5 -8q-20 0 -27.5 16.5t-13.5 46.5q-15 -31 -43 -50.5t-63 -19.5q-44 0 -77.5 31.5t-53 93t-19.5 147.5q0 128 44 197.5t123 69.5q49 0 82 -29
v83h-122q-19 0 -27.5 9.5t-8.5 30.5v15q0 21 8.5 30.5t27.5 9.5h122v42q0 32 60 32h28q60 0 60 -32v-42h14q19 0 27 -9.5zM284 400q-20 14 -41 14q-30 0 -44 -35.5t-14 -117.5q0 -78 12 -113t38 -35q29 0 49 40v247z" />
    <glyph glyph-name="Emacron" unicode="&#x112;" horiz-adv-x="457" 
d="M67 9.5q-9 9.5 -9 30.5v620q0 21 9 30.5t28 9.5h295q15 0 22 -12t7 -38v-31q0 -26 -7 -38t-22 -12h-176v-145h156q15 0 22 -12t7 -38v-31q0 -26 -7 -38t-22 -12h-156v-162h177q15 0 21.5 -12t6.5 -38v-31q0 -26 -6.5 -38t-21.5 -12h-296q-19 0 -28 9.5zM92 775.5
q-7 9.5 -7 30.5v15q0 21 7 30.5t22 9.5h241q16 0 22.5 -9.5t6.5 -30.5v-15q0 -21 -6.5 -30.5t-22.5 -9.5h-241q-15 0 -22 9.5z" />
    <glyph glyph-name="emacron" unicode="&#x113;" horiz-adv-x="454" 
d="M89 59.5q-55 67.5 -55 198.5q0 148 54.5 210.5t153.5 62.5q98 0 142 -69t44 -200q0 -12 -20.5 -35.5t-30.5 -23.5h-190q2 -51 23 -72.5t57 -21.5q22 0 40 6t35 14.5t21 8.5q10 0 22.5 -14.5t21 -33t8.5 -28.5q0 -23 -27 -38.5t-63.5 -23.5t-64.5 -8q-116 0 -171 67.5z
M293 292q0 71 -12 101.5t-40 30.5q-27 0 -41.5 -29t-18.5 -103h112zM99 606.5q-7 9.5 -7 30.5v15q0 21 7 30.5t22 9.5h231q16 0 22.5 -9.5t6.5 -30.5v-15q0 -21 -6.5 -30.5t-22.5 -9.5h-231q-15 0 -22 9.5z" />
    <glyph glyph-name="Ebreve" unicode="&#x114;" horiz-adv-x="457" 
d="M67 9.5q-9 9.5 -9 30.5v620q0 21 9 30.5t28 9.5h295q15 0 22 -12t7 -38v-31q0 -26 -7 -38t-22 -12h-176v-145h156q15 0 22 -12t7 -38v-31q0 -26 -7 -38t-22 -12h-156v-162h177q15 0 21.5 -12t6.5 -38v-31q0 -26 -6.5 -38t-21.5 -12h-296q-19 0 -28 9.5zM159.5 758.5
q-30.5 17.5 -45.5 42t-15 46.5q0 14 10.5 24t26.5 10q8 0 14.5 -4t15.5 -14q27 -32 69 -32q45 0 70 34q7 9 12.5 12.5t15.5 3.5q16 0 26.5 -10t10.5 -24q0 -21 -15 -46t-45.5 -42.5t-75.5 -17.5q-44 0 -74.5 17.5z" />
    <glyph glyph-name="ebreve" unicode="&#x115;" horiz-adv-x="454" 
d="M89 59.5q-55 67.5 -55 198.5q0 148 54.5 210.5t153.5 62.5q98 0 142 -69t44 -200q0 -12 -20.5 -35.5t-30.5 -23.5h-190q2 -51 23 -72.5t57 -21.5q22 0 40 6t35 14.5t21 8.5q10 0 22.5 -14.5t21 -33t8.5 -28.5q0 -23 -27 -38.5t-63.5 -23.5t-64.5 -8q-116 0 -171 67.5z
M293 292q0 71 -12 101.5t-40 30.5q-27 0 -41.5 -29t-18.5 -103h112zM143.5 607.5q-32.5 32.5 -32.5 73.5q0 18 10.5 26t26.5 8q12 0 18.5 -4.5t11.5 -13.5q10 -20 22 -27t37 -7q26 0 38 7.5t22 28.5q7 16 28 16q16 0 26.5 -8t10.5 -26q0 -26 -13.5 -50t-42 -40t-70.5 -16
q-60 0 -92.5 32.5z" />
    <glyph glyph-name="Edotaccent" unicode="&#x116;" horiz-adv-x="457" 
d="M67 9.5q-9 9.5 -9 30.5v620q0 21 9 30.5t28 9.5h295q15 0 22 -12t7 -38v-31q0 -26 -7 -38t-22 -12h-176v-145h156q15 0 22 -12t7 -38v-31q0 -26 -7 -38t-22 -12h-156v-162h177q15 0 21.5 -12t6.5 -38v-31q0 -26 -6.5 -38t-21.5 -12h-296q-19 0 -28 9.5zM161 772v78
q0 32 74 32t74 -32v-78q0 -32 -74 -32t-74 32z" />
    <glyph glyph-name="edotaccent" unicode="&#x117;" horiz-adv-x="454" 
d="M89 59.5q-55 67.5 -55 198.5q0 148 54.5 210.5t153.5 62.5q98 0 142 -69t44 -200q0 -12 -20.5 -35.5t-30.5 -23.5h-190q2 -51 23 -72.5t57 -21.5q22 0 40 6t35 14.5t21 8.5q10 0 22.5 -14.5t21 -33t8.5 -28.5q0 -23 -27 -38.5t-63.5 -23.5t-64.5 -8q-116 0 -171 67.5z
M293 292q0 71 -12 101.5t-40 30.5q-27 0 -41.5 -29t-18.5 -103h112zM163 606v78q0 32 74 32t74 -32v-78q0 -32 -74 -32t-74 32z" />
    <glyph glyph-name="Eogonek" unicode="&#x118;" horiz-adv-x="457" 
d="M416 -115.5q9 -16.5 9 -29.5q0 -22 -25.5 -36.5t-61.5 -14.5q-45 0 -69 25.5t-24 64.5q0 25 16.5 54t46.5 52h-213q-19 0 -28 9.5t-9 30.5v620q0 21 9 30.5t28 9.5h295q15 0 22 -12t7 -38v-31q0 -26 -7 -38t-22 -12h-176v-145h156q15 0 22 -12t7 -38v-31q0 -26 -7 -38
t-22 -12h-156v-162h177q15 0 21.5 -12t6.5 -38v-31q0 -26 -6.5 -38t-21.5 -12h-11q-29 -21 -44.5 -43t-15.5 -41q0 -11 7.5 -18.5t23.5 -7.5q15 0 28 5.5t19 5.5q9 0 18 -16.5z" />
    <glyph glyph-name="eogonek" unicode="&#x119;" horiz-adv-x="454" 
d="M385.5 123.5q12.5 -14.5 21 -33t8.5 -28.5q0 -29 -48 -49q-38 -24 -58.5 -49.5t-20.5 -47.5q0 -11 7.5 -18.5t23.5 -7.5q15 0 28 5.5t19 5.5q9 0 18 -16.5t9 -29.5q0 -22 -25.5 -36.5t-61.5 -14.5q-45 0 -69 25.5t-24 64.5q0 23 14 49.5t40 48.5h-7q-116 0 -171 67.5
t-55 198.5q0 148 54.5 210.5t153.5 62.5q98 0 142 -69t44 -200q0 -12 -20.5 -35.5t-30.5 -23.5h-190q2 -51 23 -72.5t57 -21.5q22 0 40 6t35 14.5t21 8.5q10 0 22.5 -14.5zM199.5 395q-14.5 -29 -18.5 -103h112q0 71 -12 101.5t-40 30.5q-27 0 -41.5 -29z" />
    <glyph glyph-name="Ecaron" unicode="&#x11a;" horiz-adv-x="457" 
d="M67 9.5q-9 9.5 -9 30.5v620q0 21 9 30.5t28 9.5h295q15 0 22 -12t7 -38v-31q0 -26 -7 -38t-22 -12h-176v-145h156q15 0 22 -12t7 -38v-31q0 -26 -7 -38t-22 -12h-156v-162h177q15 0 21.5 -12t6.5 -38v-31q0 -26 -6.5 -38t-21.5 -12h-296q-19 0 -28 9.5zM173 754
q-15 5 -26 24l-37 59q-9 14 -9 22q0 10 11 13t34 3t32.5 -2.5t22.5 -14.5l34 -32l34 32q13 12 22.5 14.5t32.5 2.5t34 -3.5t11 -12.5q0 -8 -9 -22l-37 -59q-11 -19 -26 -24t-50 -5h-24q-35 0 -50 5z" />
    <glyph glyph-name="ecaron" unicode="&#x11b;" horiz-adv-x="454" 
d="M89 59.5q-55 67.5 -55 198.5q0 148 54.5 210.5t153.5 62.5q98 0 142 -69t44 -200q0 -12 -20.5 -35.5t-30.5 -23.5h-190q2 -51 23 -72.5t57 -21.5q22 0 40 6t35 14.5t21 8.5q10 0 22.5 -14.5t21 -33t8.5 -28.5q0 -23 -27 -38.5t-63.5 -23.5t-64.5 -8q-116 0 -171 67.5z
M293 292q0 71 -12 101.5t-40 30.5q-27 0 -41.5 -29t-18.5 -103h112zM177 578.5q-13 6.5 -22 24.5l-34 72q-9 21 -9 28q0 15 31 15q30 0 43 -6t24 -24l26 -44l27 44q11 18 24.5 24t42.5 6q31 0 31 -15q0 -7 -9 -28l-34 -72q-9 -18 -21.5 -24.5t-40.5 -6.5h-38q-28 0 -41 6.5z
" />
    <glyph glyph-name="Gcircumflex" unicode="&#x11c;" horiz-adv-x="552" 
d="M493 400.5q9 -9.5 9 -30.5v-298q0 -23 -30.5 -41.5t-75.5 -28.5t-86 -10q-140 0 -206.5 87.5t-66.5 272.5q0 180 67 268t208 88q45 0 87 -10.5t68 -27t26 -33.5q0 -13 -10.5 -35t-25.5 -38.5t-27 -16.5q-4 0 -21 7.5t-38 13t-50 5.5q-64 0 -94 -54t-30 -168
q0 -122 28.5 -172.5t84.5 -50.5q24 0 41 4v146h-51q-15 0 -22 12t-7 38v32q0 26 7 38t22 12h165q19 0 28 -9.5zM175 737q-11 3 -11 13q0 9 9 22l37 59q11 19 26 24t50 5h24q35 0 50 -5t26 -24l37 -59q9 -13 9 -22t-11 -12.5t-34 -3.5t-32.5 2.5t-22.5 14.5l-34 32l-34 -32
q-13 -12 -22.5 -14.5t-32.5 -2.5t-34 3z" />
    <glyph glyph-name="gcircumflex" unicode="&#x11d;" horiz-adv-x="471" 
d="M84 -178.5q-49 33.5 -49 99.5q0 81 76 118v3q-20 12 -30.5 31.5t-10.5 44.5q0 56 48 93q-72 42 -72 141q0 90 49.5 134.5t132.5 44.5q31 0 65 -8h130q14 0 20.5 -11t6.5 -34v-16q0 -22 -5.5 -32.5t-17.5 -10.5q-18 0 -34 4l-2 -4q8 -12 12.5 -30.5t4.5 -39.5
q0 -77 -44.5 -118.5t-118.5 -43.5q-50 -1 -50 -39q0 -23 19 -32t63 -18q26 -5 35 -7q57 -13 90.5 -43.5t33.5 -92.5q0 -78 -56 -122.5t-154 -44.5q-93 0 -142 33.5zM267.5 300q15.5 16 15.5 58t-15.5 58.5t-41.5 16.5q-56 0 -56 -75q0 -74 56 -74q26 0 41.5 16zM294.5 -92.5
q18.5 13.5 18.5 38.5q0 19 -13 29.5t-33.5 15.5t-67.5 12q-17 -10 -27 -25.5t-10 -33.5q0 -25 20.5 -37.5t56.5 -12.5q37 0 55.5 13.5zM104 587q0 7 9 28l34 72q9 18 24 24.5t48 6.5h18q34 0 49 -6.5t24 -24.5l34 -72q9 -21 9 -28q0 -15 -31 -15q-30 0 -43 6t-24 24l-26 44
l-27 -44q-11 -18 -24.5 -24t-42.5 -6q-31 0 -31 15z" />
    <glyph glyph-name="Gbreve" unicode="&#x11e;" horiz-adv-x="552" 
d="M493 400.5q9 -9.5 9 -30.5v-298q0 -23 -30.5 -41.5t-75.5 -28.5t-86 -10q-140 0 -206.5 87.5t-66.5 272.5q0 180 67 268t208 88q45 0 87 -10.5t68 -27t26 -33.5q0 -13 -10.5 -35t-25.5 -38.5t-27 -16.5q-4 0 -21 7.5t-38 13t-50 5.5q-64 0 -94 -54t-30 -168
q0 -122 28.5 -172.5t84.5 -50.5q24 0 41 4v146h-51q-15 0 -22 12t-7 38v32q0 26 7 38t22 12h165q19 0 28 -9.5zM222.5 758.5q-30.5 17.5 -45.5 42t-15 46.5q0 14 10.5 24t26.5 10q8 0 14.5 -4t15.5 -14q27 -32 69 -32q45 0 70 34q7 9 12.5 12.5t15.5 3.5q16 0 26.5 -10
t10.5 -24q0 -21 -15 -46t-45.5 -42.5t-75.5 -17.5q-44 0 -74.5 17.5z" />
    <glyph glyph-name="gbreve" unicode="&#x11f;" horiz-adv-x="471" 
d="M84 -178.5q-49 33.5 -49 99.5q0 81 76 118v3q-20 12 -30.5 31.5t-10.5 44.5q0 56 48 93q-72 42 -72 141q0 90 49.5 134.5t132.5 44.5q31 0 65 -8h130q14 0 20.5 -11t6.5 -34v-16q0 -22 -5.5 -32.5t-17.5 -10.5q-18 0 -34 4l-2 -4q8 -12 12.5 -30.5t4.5 -39.5
q0 -77 -44.5 -118.5t-118.5 -43.5q-50 -1 -50 -39q0 -23 19 -32t63 -18q26 -5 35 -7q57 -13 90.5 -43.5t33.5 -92.5q0 -78 -56 -122.5t-154 -44.5q-93 0 -142 33.5zM267.5 300q15.5 16 15.5 58t-15.5 58.5t-41.5 16.5q-56 0 -56 -75q0 -74 56 -74q26 0 41.5 16zM294.5 -92.5
q18.5 13.5 18.5 38.5q0 19 -13 29.5t-33.5 15.5t-67.5 12q-17 -10 -27 -25.5t-10 -33.5q0 -25 20.5 -37.5t56.5 -12.5q37 0 55.5 13.5zM135.5 607.5q-32.5 32.5 -32.5 73.5q0 18 10.5 26t26.5 8q12 0 18.5 -4.5t11.5 -13.5q10 -20 22 -27t37 -7q26 0 38 7.5t22 28.5
q7 16 28 16q16 0 26.5 -8t10.5 -26q0 -26 -13.5 -50t-42 -40t-70.5 -16q-60 0 -92.5 32.5z" />
    <glyph glyph-name="Gdotaccent" unicode="&#x120;" horiz-adv-x="552" 
d="M493 400.5q9 -9.5 9 -30.5v-298q0 -23 -30.5 -41.5t-75.5 -28.5t-86 -10q-140 0 -206.5 87.5t-66.5 272.5q0 180 67 268t208 88q45 0 87 -10.5t68 -27t26 -33.5q0 -13 -10.5 -35t-25.5 -38.5t-27 -16.5q-4 0 -21 7.5t-38 13t-50 5.5q-64 0 -94 -54t-30 -168
q0 -122 28.5 -172.5t84.5 -50.5q24 0 41 4v146h-51q-15 0 -22 12t-7 38v32q0 26 7 38t22 12h165q19 0 28 -9.5zM224 772v78q0 32 74 32t74 -32v-78q0 -32 -74 -32t-74 32z" />
    <glyph glyph-name="gdotaccent" unicode="&#x121;" horiz-adv-x="471" 
d="M84 -178.5q-49 33.5 -49 99.5q0 81 76 118v3q-20 12 -30.5 31.5t-10.5 44.5q0 56 48 93q-72 42 -72 141q0 90 49.5 134.5t132.5 44.5q31 0 65 -8h130q14 0 20.5 -11t6.5 -34v-16q0 -22 -5.5 -32.5t-17.5 -10.5q-18 0 -34 4l-2 -4q8 -12 12.5 -30.5t4.5 -39.5
q0 -77 -44.5 -118.5t-118.5 -43.5q-50 -1 -50 -39q0 -23 19 -32t63 -18q26 -5 35 -7q57 -13 90.5 -43.5t33.5 -92.5q0 -78 -56 -122.5t-154 -44.5q-93 0 -142 33.5zM267.5 300q15.5 16 15.5 58t-15.5 58.5t-41.5 16.5q-56 0 -56 -75q0 -74 56 -74q26 0 41.5 16zM294.5 -92.5
q18.5 13.5 18.5 38.5q0 19 -13 29.5t-33.5 15.5t-67.5 12q-17 -10 -27 -25.5t-10 -33.5q0 -25 20.5 -37.5t56.5 -12.5q37 0 55.5 13.5zM155 606v78q0 32 74 32t74 -32v-78q0 -32 -74 -32t-74 32z" />
    <glyph glyph-name="uni0122" unicode="&#x122;" horiz-adv-x="552" 
d="M493 400.5q9 -9.5 9 -30.5v-298q0 -23 -30.5 -41.5t-75.5 -28.5t-86 -10q-140 0 -206.5 87.5t-66.5 272.5q0 180 67 268t208 88q45 0 87 -10.5t68 -27t26 -33.5q0 -13 -10.5 -35t-25.5 -38.5t-27 -16.5q-4 0 -21 7.5t-38 13t-50 5.5q-64 0 -94 -54t-30 -168
q0 -122 28.5 -172.5t84.5 -50.5q24 0 41 4v146h-51q-15 0 -22 12t-7 38v32q0 26 7 38t22 12h165q19 0 28 -9.5zM258 -234.5q-14 5.5 -14 16.5q0 3 2 21q8 51 8 102q0 44 58 44h20q45 0 45 -44q0 -32 -15.5 -65.5t-37 -56.5t-36.5 -23q-16 0 -30 5.5z" />
    <glyph glyph-name="uni0123" unicode="&#x123;" horiz-adv-x="471" 
d="M84 -178.5q-49 33.5 -49 99.5q0 81 76 118v3q-20 12 -30.5 31.5t-10.5 44.5q0 56 48 93q-72 42 -72 141q0 90 49.5 134.5t132.5 44.5q31 0 65 -8h130q14 0 20.5 -11t6.5 -34v-16q0 -22 -5.5 -32.5t-17.5 -10.5q-18 0 -34 4l-2 -4q8 -12 12.5 -30.5t4.5 -39.5
q0 -77 -44.5 -118.5t-118.5 -43.5q-50 -1 -50 -39q0 -23 19 -32t63 -18q26 -5 35 -7q57 -13 90.5 -43.5t33.5 -92.5q0 -78 -56 -122.5t-154 -44.5q-93 0 -142 33.5zM267.5 300q15.5 16 15.5 58t-15.5 58.5t-41.5 16.5q-56 0 -56 -75q0 -74 56 -74q26 0 41.5 16zM294.5 -92.5
q18.5 13.5 18.5 38.5q0 19 -13 29.5t-33.5 15.5t-67.5 12q-17 -10 -27 -25.5t-10 -33.5q0 -25 20.5 -37.5t56.5 -12.5q37 0 55.5 13.5zM161 622q0 32 15.5 65.5t37 56.5t36.5 23q16 0 30 -5.5t14 -16.5q0 -3 -2 -21q-8 -51 -8 -102q0 -44 -58 -44h-20q-45 0 -45 44z" />
    <glyph glyph-name="Hcircumflex" unicode="&#x124;" horiz-adv-x="601" 
d="M58 30v640q0 32 58 32h42q57 0 57 -32v-247h171v247q0 32 58 32h41q58 0 58 -32v-640q0 -32 -58 -32h-41q-58 0 -58 32v261h-171v-261q0 -32 -57 -32h-42q-58 0 -58 32zM177 737q-11 3 -11 13q0 9 9 22l37 59q11 19 26 24t50 5h24q35 0 50 -5t26 -24l37 -59q9 -13 9 -22
t-11 -12.5t-34 -3.5t-32.5 2.5t-22.5 14.5l-34 32l-34 -32q-13 -12 -22.5 -14.5t-32.5 -2.5t-34 3z" />
    <glyph glyph-name="hcircumflex" unicode="&#x125;" horiz-adv-x="485" 
d="M51 30v692q0 32 58 32h34q58 0 58 -32v-259q22 30 53.5 49t71.5 19q55 0 84 -35.5t29 -103.5v-362q0 -32 -58 -32h-34q-58 0 -58 32v328q0 26 -9 38.5t-30 12.5q-28 0 -49 -32v-347q0 -32 -58 -32h-34q-58 0 -58 32zM4 772q-11 3 -11 13q0 9 9 22l37 59q11 19 26 24t50 5
h24q35 0 50 -5t26 -24l37 -59q9 -13 9 -22t-11 -12.5t-34 -3.5t-32.5 2.5t-22.5 14.5l-34 32l-34 -32q-13 -12 -22.5 -14.5t-32.5 -2.5t-34 3z" />
    <glyph glyph-name="Hbar" unicode="&#x126;" horiz-adv-x="601" 
d="M576 580.5q7 -9.5 7 -30.5v-15q0 -21 -7 -30.5t-22 -9.5h-11v-465q0 -32 -58 -32h-41q-58 0 -58 32v261h-171v-261q0 -32 -57 -32h-42q-58 0 -58 32v465h-12q-16 0 -22.5 9.5t-6.5 30.5v15q0 21 6.5 30.5t22.5 9.5h12v80q0 32 58 32h42q57 0 57 -32v-80h171v80
q0 32 58 32h41q58 0 58 -32v-80h11q15 0 22 -9.5zM386 495h-171v-72h171v72z" />
    <glyph glyph-name="hbar" unicode="&#x127;" horiz-adv-x="485" 
d="M410 495.5q29 -35.5 29 -103.5v-362q0 -32 -58 -32h-34q-58 0 -58 32v328q0 26 -9 38.5t-30 12.5q-28 0 -49 -32v-347q0 -32 -58 -32h-34q-58 0 -58 32v555h-15q-19 0 -27.5 9.5t-8.5 30.5v15q0 21 8.5 30.5t27.5 9.5h15v42q0 32 58 32h34q58 0 58 -32v-42h100
q19 0 27 -9.5t8 -30.5v-15q0 -21 -8 -30.5t-27 -9.5h-100v-122q22 30 53.5 49t71.5 19q55 0 84 -35.5z" />
    <glyph glyph-name="Itilde" unicode="&#x128;" horiz-adv-x="262" 
d="M52 30v640q0 33 58 33h42q57 0 57 -33v-640q0 -33 -57 -33h-42q-58 0 -58 33zM-7.5 764.5q-16.5 8.5 -16.5 18.5t5 22q13 29 36 47.5t55 18.5q19 0 35 -5t39 -15q3 -1 16.5 -6.5t23.5 -5.5q11 0 17.5 4.5t15.5 15.5q11 15 21 15q12 0 28.5 -9.5t16.5 -19.5q0 -3 -3 -15
q-11 -29 -36 -50t-56 -21t-71 18q-3 1 -17.5 6.5t-25.5 5.5t-18.5 -5t-16.5 -14q-14 -14 -22 -14q-10 0 -26.5 8.5z" />
    <glyph glyph-name="itilde" unicode="&#x129;" horiz-adv-x="254" 
d="M53 30v463q0 32 60 32h28q60 0 60 -32v-463q0 -32 -60 -32h-28q-60 0 -60 32zM-11.5 594.5q-16.5 8.5 -16.5 19.5q0 4 1.5 11t3.5 13q29 66 89 66q30 0 74 -19q32 -13 46 -13q10 0 17 4.5t15 13.5l6.5 6.5t12.5 5.5q12 0 29.5 -10.5t17.5 -20.5q0 -6 -7 -24
q-11 -27 -35.5 -44t-53.5 -17q-18 0 -34.5 4.5t-37.5 13.5q-33 13 -50 13q-11 0 -18.5 -5t-15.5 -14l-6.5 -6.5t-11.5 -5.5q-9 0 -25.5 8.5z" />
    <glyph glyph-name="Imacron" unicode="&#x12a;" horiz-adv-x="262" 
d="M52 30v640q0 33 58 33h42q57 0 57 -33v-640q0 -33 -57 -33h-42q-58 0 -58 33zM-12 775.5q-7 9.5 -7 30.5v15q0 21 7 30.5t22 9.5h241q16 0 22.5 -9.5t6.5 -30.5v-15q0 -21 -6.5 -30.5t-22.5 -9.5h-241q-15 0 -22 9.5z" />
    <glyph glyph-name="imacron" unicode="&#x12b;" horiz-adv-x="254" 
d="M53 30v463q0 32 60 32h28q60 0 60 -32v-463q0 -32 -60 -32h-28q-60 0 -60 32zM-10 606.5q-7 9.5 -7 30.5v15q0 21 7 30.5t22 9.5h231q16 0 22.5 -9.5t6.5 -30.5v-15q0 -21 -6.5 -30.5t-22.5 -9.5h-231q-15 0 -22 9.5z" />
    <glyph glyph-name="Ibreve" unicode="&#x12c;" horiz-adv-x="262" 
d="M52 30v640q0 33 58 33h42q57 0 57 -33v-640q0 -33 -57 -33h-42q-58 0 -58 33zM55.5 758.5q-30.5 17.5 -45.5 42t-15 46.5q0 14 10.5 24t26.5 10q8 0 14.5 -4t15.5 -14q27 -32 69 -32q45 0 70 34q7 9 12.5 12.5t15.5 3.5q16 0 26.5 -10t10.5 -24q0 -21 -15 -46
t-45.5 -42.5t-75.5 -17.5q-44 0 -74.5 17.5z" />
    <glyph glyph-name="ibreve" unicode="&#x12d;" horiz-adv-x="254" 
d="M53 30v463q0 32 60 32h28q60 0 60 -32v-463q0 -32 -60 -32h-28q-60 0 -60 32zM34.5 607.5q-32.5 32.5 -32.5 73.5q0 18 10.5 26t26.5 8q12 0 18.5 -4.5t11.5 -13.5q10 -20 22 -27t37 -7q26 0 38 7.5t22 28.5q7 16 28 16q16 0 26.5 -8t10.5 -26q0 -26 -13.5 -50t-42 -40
t-70.5 -16q-60 0 -92.5 32.5z" />
    <glyph glyph-name="Iogonek" unicode="&#x12e;" horiz-adv-x="262" 
d="M210 -115.5q9 -16.5 9 -29.5q0 -22 -25.5 -36.5t-61.5 -14.5q-45 0 -69 25.5t-24 64.5q0 24 15.5 52t44.5 51q-47 3 -47 33v640q0 33 58 33h42q57 0 57 -33v-640q0 -26 -38 -32q-57 -43 -57 -82q0 -11 7.5 -18.5t23.5 -7.5q15 0 28 5.5t19 5.5q9 0 18 -16.5z" />
    <glyph glyph-name="iogonek" unicode="&#x12f;" horiz-adv-x="254" 
d="M54 606v78q0 32 74 32t74 -32v-78q0 -32 -74 -32t-74 32zM200 -115.5q9 -16.5 9 -29.5q0 -22 -25.5 -36.5t-61.5 -14.5q-45 0 -69 25.5t-24 64.5q0 24 16 53t46 52q-38 6 -38 31v463q0 32 60 32h28q60 0 60 -32v-463q0 -25 -38 -31q-28 -21 -43.5 -42.5t-15.5 -40.5
q0 -11 7.5 -18.5t23.5 -7.5q15 0 28 5.5t19 5.5q9 0 18 -16.5z" />
    <glyph glyph-name="Idotaccent" unicode="&#x130;" horiz-adv-x="262" 
d="M52 30v640q0 33 58 33h42q57 0 57 -33v-640q0 -33 -57 -33h-42q-58 0 -58 33zM57 772v78q0 32 74 32t74 -32v-78q0 -32 -74 -32t-74 32z" />
    <glyph glyph-name="dotlessi" unicode="&#x131;" horiz-adv-x="254" 
d="M53 30v463q0 32 60 32h28q60 0 60 -32v-463q0 -32 -60 -32h-28q-60 0 -60 32z" />
    <glyph glyph-name="IJ" unicode="&#x132;" horiz-adv-x="617" 
d="M52 30v640q0 33 58 33h42q57 0 57 -33v-640q0 -33 -57 -33h-42q-58 0 -58 33zM305 5q-35 13 -35 33q0 29 13 60.5t29 32.5q4 0 17.5 -3t29.5 -3q27 0 38 24t11 78v443q0 33 57 33h42q58 0 58 -33v-468q0 -210 -181 -210q-44 0 -79 13z" />
    <glyph glyph-name="ij" unicode="&#x133;" horiz-adv-x="503" 
d="M53 30v463q0 32 60 32h28q60 0 60 -32v-463q0 -32 -60 -32h-28q-60 0 -60 32zM54 606v78q0 32 74 32t74 -32v-78q0 -32 -74 -32t-74 32zM246.5 -200.5q-24.5 11.5 -24.5 39.5q0 22 8.5 46t22.5 24q5 0 14.5 -2t15.5 -2q13 0 18.5 10t5.5 33v545q0 32 60 32h28
q60 0 60 -32v-543q0 -79 -37 -120.5t-97 -41.5q-50 0 -74.5 11.5zM308 606v78q0 32 74 32t74 -32v-78q0 -32 -74 -32t-74 32z" />
    <glyph glyph-name="Jcircumflex" unicode="&#x134;" horiz-adv-x="355" 
d="M43 5q-35 13 -35 33q0 29 13 60.5t29 32.5q4 0 17.5 -3t29.5 -3q27 0 38 24t11 78v443q0 33 57 33h42q58 0 58 -33v-468q0 -210 -181 -210q-44 0 -79 13zM100 737q-11 3 -11 13q0 9 9 22l37 59q11 19 26 24t50 5h24q35 0 50 -5t26 -24l37 -59q9 -13 9 -22t-11 -12.5
t-34 -3.5t-32.5 2.5t-22.5 14.5l-34 32l-34 -32q-13 -12 -22.5 -14.5t-32.5 -2.5t-34 3z" />
    <glyph glyph-name="jcircumflex" unicode="&#x135;" horiz-adv-x="249" 
d="M-7.5 -200.5q-24.5 11.5 -24.5 39.5q0 22 8.5 46t22.5 24q5 0 14.5 -2t15.5 -2q13 0 18.5 10t5.5 33v545q0 32 60 32h28q60 0 60 -32v-543q0 -79 -37 -120.5t-97 -41.5q-50 0 -74.5 11.5zM3 587q0 7 9 28l34 72q9 18 24 24.5t48 6.5h18q34 0 49 -6.5t24 -24.5l34 -72
q9 -21 9 -28q0 -15 -31 -15q-30 0 -43 6t-24 24l-26 44l-27 -44q-11 -18 -24.5 -24t-42.5 -6q-31 0 -31 15z" />
    <glyph glyph-name="uni0136" unicode="&#x136;" horiz-adv-x="510" 
d="M54 30v640q0 32 58 32h40q59 0 59 -32v-298l4 -1l135 312q5 11 17 15t34 4h55q55 0 55 -15q0 -7 -6 -21l-155 -309l166 -323q6 -11 6 -21q0 -15 -52 -15h-66q-23 0 -36 4t-18 15l-136 314l-3 -1v-300q0 -32 -59 -32h-40q-58 0 -58 32zM208 -234.5q-14 5.5 -14 16.5
q0 3 2 21q8 51 8 102q0 44 58 44h20q45 0 45 -44q0 -32 -15.5 -65.5t-37 -56.5t-36.5 -23q-16 0 -30 5.5z" />
    <glyph glyph-name="uni0137" unicode="&#x137;" horiz-adv-x="452" 
d="M447 14q0 -16 -52 -16h-56q-19 0 -26.5 4t-12.5 15l-89 229h-11v-216q0 -32 -58 -32h-32q-58 0 -58 32v692q0 32 58 32h32q58 0 58 -32v-416h5l85 200q6 13 12.5 16t26.5 3h52q54 0 54 -17q0 -6 -7 -21l-94 -213l107 -240q6 -13 6 -20zM174 -234.5q-14 5.5 -14 16.5
q0 3 2 21q8 51 8 102q0 44 58 44h20q45 0 45 -44q0 -32 -15.5 -65.5t-37 -56.5t-36.5 -23q-16 0 -30 5.5z" />
    <glyph glyph-name="kgreenlandic" unicode="&#x138;" horiz-adv-x="452" 
d="M52 30v463q0 32 58 32h32q58 0 58 -32v-167h5l75 180q5 12 15.5 15.5t33.5 3.5h47q54 0 54 -17q0 -8 -7 -21l-98 -195l116 -258q6 -11 6 -20q0 -16 -52 -16h-53q-21 0 -33 4t-16 15l-88 229h-5v-216q0 -32 -58 -32h-32q-58 0 -58 32z" />
    <glyph glyph-name="Lacute" unicode="&#x139;" horiz-adv-x="408" 
d="M66 9.5q-9 9.5 -9 30.5v630q0 32 58 32h40q58 0 58 -32v-539h149q16 0 23 -12t7 -38v-31q0 -26 -7 -38t-23 -12h-268q-19 0 -28 9.5zM71.5 752q-6.5 3 -6.5 9q0 12 11 27l41 57q14 19 30 24.5t47 5.5q36 0 51 -3.5t15 -14.5q0 -14 -27 -36l-64 -52q-15 -13 -28 -16.5
t-41 -3.5q-22 0 -28.5 3z" />
    <glyph glyph-name="lacute" unicode="&#x13a;" horiz-adv-x="270" 
d="M50 144v578q0 32 60 32h28q60 0 60 -32v-580q0 -17 5.5 -25t18.5 -8q4 0 11 2t11 2q13 0 21 -26.5t8 -47.5q0 -24 -29.5 -35.5t-64.5 -11.5q-129 0 -129 152zM58.5 772q-6.5 3 -6.5 9q0 12 11 27l41 57q14 19 30 24.5t47 5.5q36 0 51 -3.5t15 -14.5q0 -14 -27 -36
l-64 -52q-15 -13 -28 -16.5t-41 -3.5q-22 0 -28.5 3z" />
    <glyph glyph-name="uni013B" unicode="&#x13b;" horiz-adv-x="408" 
d="M66 9.5q-9 9.5 -9 30.5v630q0 32 58 32h40q58 0 58 -32v-539h149q16 0 23 -12t7 -38v-31q0 -26 -7 -38t-23 -12h-268q-19 0 -28 9.5zM171 -234.5q-14 5.5 -14 16.5q0 3 2 21q8 51 8 102q0 44 58 44h20q45 0 45 -44q0 -32 -15.5 -65.5t-37 -56.5t-36.5 -23q-16 0 -30 5.5z
" />
    <glyph glyph-name="uni013C" unicode="&#x13c;" horiz-adv-x="270" 
d="M50 144v578q0 32 60 32h28q60 0 60 -32v-580q0 -17 5.5 -25t18.5 -8q4 0 11 2t11 2q13 0 21 -26.5t8 -47.5q0 -24 -29.5 -35.5t-64.5 -11.5q-129 0 -129 152zM97 -234.5q-14 5.5 -14 16.5q0 3 2 21q8 51 8 102q0 44 58 44h20q45 0 45 -44q0 -32 -15.5 -65.5t-37 -56.5
t-36.5 -23q-16 0 -30 5.5z" />
    <glyph glyph-name="Lcaron" unicode="&#x13d;" horiz-adv-x="408" 
d="M66 9.5q-9 9.5 -9 30.5v630q0 32 58 32h40q58 0 58 -32v-539h149q16 0 23 -12t7 -38v-31q0 -26 -7 -38t-23 -12h-268q-19 0 -28 9.5zM298 518.5q-13 5.5 -13 16.5q0 31 2 73q2 36 2 50q0 44 45 44h17q22 0 33.5 -12t11.5 -32q0 -32 -12.5 -65.5t-29 -56.5t-28.5 -23
q-15 0 -28 5.5z" />
    <glyph glyph-name="lcaron" unicode="&#x13e;" horiz-adv-x="270" 
d="M50 144v578q0 32 60 32h28q60 0 60 -32v-580q0 -17 5.5 -25t18.5 -8q4 0 11 2t11 2q13 0 21 -26.5t8 -47.5q0 -24 -29.5 -35.5t-64.5 -11.5q-129 0 -129 152zM244 568.5q-13 5.5 -13 16.5q0 31 2 73q2 36 2 50q0 44 45 44h17q22 0 33.5 -12t11.5 -32q0 -32 -12.5 -65.5
t-29 -56.5t-28.5 -23q-15 0 -28 5.5z" />
    <glyph glyph-name="Ldot" unicode="&#x13f;" horiz-adv-x="408" 
d="M66 9.5q-9 9.5 -9 30.5v630q0 32 58 32h40q58 0 58 -32v-539h149q16 0 23 -12t7 -38v-31q0 -26 -7 -38t-23 -12h-268q-19 0 -28 9.5zM290 286q-20 20 -20 49t20 49t49 20t49 -20t20 -49t-20 -49t-49 -20t-49 20z" />
    <glyph glyph-name="ldot" unicode="&#x140;" horiz-adv-x="270" 
d="M50 144v578q0 32 60 32h28q60 0 60 -32v-580q0 -17 5.5 -25t18.5 -8q4 0 11 2t11 2q13 0 21 -26.5t8 -47.5q0 -24 -29.5 -35.5t-64.5 -11.5q-129 0 -129 152zM227 336q-16 16 -16 39t16 39t40 16q23 0 39 -16t16 -39t-16 -39t-39 -16q-24 0 -40 16z" />
    <glyph glyph-name="Lslash" unicode="&#x141;" horiz-adv-x="408" 
d="M385 119q7 -12 7 -38v-31q0 -26 -7 -38t-23 -12h-268q-19 0 -28 9.5t-9 30.5v204l-25 -15q-7 -5 -15 -5q-11 0 -11 20v20q0 16 6 26.5t20 18.5l25 15v346q0 32 58 32h40q58 0 58 -32v-250l90 55q9 6 15 6q11 0 11 -20v-20q0 -30 -26 -46l-90 -55v-209h149q16 0 23 -12z
" />
    <glyph glyph-name="lslash" unicode="&#x142;" horiz-adv-x="270" 
d="M271 86.5q8 -26.5 8 -47.5q0 -24 -29.5 -35.5t-64.5 -11.5q-129 0 -129 152v176l-17 -10q-11 -6 -16 -6q-10 0 -10 20v20q0 30 26 46l17 10v322q0 32 60 32h28q60 0 60 -32v-232l29 17q7 5 15 5q11 0 11 -20v-20q0 -16 -6 -26.5t-20 -18.5l-29 -17v-268q0 -17 5.5 -25
t18.5 -8q4 0 11 2t11 2q13 0 21 -26.5z" />
    <glyph glyph-name="Nacute" unicode="&#x143;" horiz-adv-x="590" 
d="M52 30v640q0 32 58 32h26q20 0 32 -5.5t20 -22.5l180 -326q14 -26 34 -78l4 2q-8 52 -8 79v319q0 32 58 32h24q58 0 58 -32v-640q0 -32 -58 -32h-19q-20 0 -33 5.5t-21 22.5l-191 340q-9 15 -27 64l-5 -3q8 -46 8 -68v-329q0 -32 -58 -32h-24q-58 0 -58 32zM229.5 752
q-6.5 3 -6.5 9q0 12 11 27l41 57q14 19 30 24.5t47 5.5q36 0 51 -3.5t15 -14.5q0 -14 -27 -36l-64 -52q-15 -13 -28 -16.5t-41 -3.5q-22 0 -28.5 3z" />
    <glyph glyph-name="nacute" unicode="&#x144;" horiz-adv-x="482" 
d="M50 30v319q0 71 -5 101t-5 37q0 18 42 26.5t73 8.5q19 0 25 -11t8.5 -28.5t4.5 -27.5q22 33 55.5 54.5t75.5 21.5q55 0 83.5 -35.5t28.5 -103.5v-362q0 -32 -58 -32h-34q-58 0 -58 32v328q0 26 -8 38.5t-29 12.5q-27 0 -50 -32v-347q0 -16 -14 -24t-43 -8h-35
q-57 0 -57 32zM182.5 576q-8.5 4 -8.5 11t9 28l34 72q9 18 26 24.5t56 6.5q29 0 40 -3.5t11 -13.5q0 -8 -4.5 -16t-14.5 -20l-47 -63q-14 -17 -28 -23.5t-41 -6.5q-24 0 -32.5 4z" />
    <glyph glyph-name="uni0145" unicode="&#x145;" horiz-adv-x="590" 
d="M52 30v640q0 32 58 32h26q20 0 32 -5.5t20 -22.5l180 -326q14 -26 34 -78l4 2q-8 52 -8 79v319q0 32 58 32h24q58 0 58 -32v-640q0 -32 -58 -32h-19q-20 0 -33 5.5t-21 22.5l-191 340q-9 15 -27 64l-5 -3q8 -46 8 -68v-329q0 -32 -58 -32h-24q-58 0 -58 32zM241 -234.5
q-14 5.5 -14 16.5q0 3 2 21q8 51 8 102q0 44 58 44h20q45 0 45 -44q0 -32 -15.5 -65.5t-37 -56.5t-36.5 -23q-16 0 -30 5.5z" />
    <glyph glyph-name="uni0146" unicode="&#x146;" horiz-adv-x="482" 
d="M50 30v319q0 71 -5 101t-5 37q0 18 42 26.5t73 8.5q19 0 25 -11t8.5 -28.5t4.5 -27.5q22 33 55.5 54.5t75.5 21.5q55 0 83.5 -35.5t28.5 -103.5v-362q0 -32 -58 -32h-34q-58 0 -58 32v328q0 26 -8 38.5t-29 12.5q-27 0 -50 -32v-347q0 -16 -14 -24t-43 -8h-35
q-57 0 -57 32zM184 -234.5q-14 5.5 -14 16.5q0 3 2 21q8 51 8 102q0 44 58 44h20q45 0 45 -44q0 -32 -15.5 -65.5t-37 -56.5t-36.5 -23q-16 0 -30 5.5z" />
    <glyph glyph-name="Ncaron" unicode="&#x147;" horiz-adv-x="590" 
d="M52 30v640q0 32 58 32h26q20 0 32 -5.5t20 -22.5l180 -326q14 -26 34 -78l4 2q-8 52 -8 79v319q0 32 58 32h24q58 0 58 -32v-640q0 -32 -58 -32h-19q-20 0 -33 5.5t-21 22.5l-191 340q-9 15 -27 64l-5 -3q8 -46 8 -68v-329q0 -32 -58 -32h-24q-58 0 -58 32zM233 754
q-15 5 -26 24l-37 59q-9 14 -9 22q0 10 11 13t34 3t32.5 -2.5t22.5 -14.5l34 -32l34 32q13 12 22.5 14.5t32.5 2.5t34 -3.5t11 -12.5q0 -8 -9 -22l-37 -59q-11 -19 -26 -24t-50 -5h-24q-35 0 -50 5z" />
    <glyph glyph-name="ncaron" unicode="&#x148;" horiz-adv-x="482" 
d="M50 30v319q0 71 -5 101t-5 37q0 18 42 26.5t73 8.5q19 0 25 -11t8.5 -28.5t4.5 -27.5q22 33 55.5 54.5t75.5 21.5q55 0 83.5 -35.5t28.5 -103.5v-362q0 -32 -58 -32h-34q-58 0 -58 32v328q0 26 -8 38.5t-29 12.5q-27 0 -50 -32v-347q0 -16 -14 -24t-43 -8h-35
q-57 0 -57 32zM182 578.5q-13 6.5 -22 24.5l-34 72q-9 21 -9 28q0 15 31 15q30 0 43 -6t24 -24l26 -44l27 44q11 18 24.5 24t42.5 6q31 0 31 -15q0 -7 -9 -28l-34 -72q-9 -18 -21.5 -24.5t-40.5 -6.5h-38q-28 0 -41 6.5z" />
    <glyph glyph-name="napostrophe" unicode="&#x149;" horiz-adv-x="482" 
d="M-22 537.5q-14 5.5 -14 16.5q0 3 2 21q8 51 8 102q0 44 58 44h20q45 0 45 -44q0 -32 -15.5 -65.5t-37 -56.5t-36.5 -23q-16 0 -30 5.5zM50 30v319q0 71 -5 101t-5 37q0 18 42 26.5t73 8.5q19 0 25 -11t8.5 -28.5t4.5 -27.5q22 33 55.5 54.5t75.5 21.5q55 0 83.5 -35.5
t28.5 -103.5v-362q0 -32 -58 -32h-34q-58 0 -58 32v328q0 26 -8 38.5t-29 12.5q-27 0 -50 -32v-347q0 -16 -14 -24t-43 -8h-35q-57 0 -57 32z" />
    <glyph glyph-name="Eng" unicode="&#x14a;" horiz-adv-x="590" 
d="M329.5 -200.5q-24.5 11.5 -24.5 39.5q0 22 8.5 46t22.5 24q5 0 14.5 -2t15.5 -2q18 0 25 10t7 33v94l-182 324q-9 15 -27 64l-5 -3q8 -46 8 -68v-329q0 -32 -58 -32h-24q-58 0 -58 32v640q0 32 58 32h26q20 0 32 -5.5t20 -22.5l180 -326q14 -26 34 -78l4 2q-8 52 -8 79
v319q0 32 58 32h24q58 0 58 -32v-720q0 -79 -37 -120.5t-97 -41.5q-50 0 -74.5 11.5z" />
    <glyph glyph-name="eng" unicode="&#x14b;" horiz-adv-x="482" 
d="M226 -200.5q-24 11.5 -24 39.5q0 22 8.5 46t21.5 24q5 0 14.5 -2t15.5 -2q13 0 19 10t6 33v410q0 26 -8 38.5t-29 12.5q-27 0 -50 -32v-347q0 -16 -14 -24t-43 -8h-35q-57 0 -57 32v319q0 71 -5 101t-5 37q0 18 42 26.5t73 8.5q19 0 25 -11t8.5 -28.5t4.5 -27.5
q22 33 55.5 54.5t75.5 21.5q55 0 83.5 -35.5t28.5 -103.5v-442q0 -79 -38 -120.5t-99 -41.5q-50 0 -74 11.5z" />
    <glyph glyph-name="Omacron" unicode="&#x14c;" horiz-adv-x="599" 
d="M38 350q0 358 262 358q128 0 194.5 -87t66.5 -271t-66.5 -271t-194.5 -87q-262 0 -262 358zM359 143q22 20 33 69.5t11 137.5q0 87 -11 136.5t-33 69.5t-58 20t-58.5 -20t-34 -69.5t-11.5 -136.5t11.5 -137t34 -70t58.5 -20t58 20zM157 775.5q-7 9.5 -7 30.5v15
q0 21 7 30.5t22 9.5h241q16 0 22.5 -9.5t6.5 -30.5v-15q0 -21 -6.5 -30.5t-22.5 -9.5h-241q-15 0 -22 9.5z" />
    <glyph glyph-name="omacron" unicode="&#x14d;" horiz-adv-x="477" 
d="M86 61.5q-52 69.5 -52 200.5t51.5 200t152.5 69t153 -69t52 -200t-52 -200.5t-153 -69.5q-100 0 -152 69.5zM280.5 143.5q12.5 34.5 12.5 118.5t-12.5 118t-41.5 34q-30 0 -42.5 -34t-12.5 -118t12.5 -118.5t42.5 -34.5q29 0 41.5 34.5zM101 606.5q-7 9.5 -7 30.5v15
q0 21 7 30.5t22 9.5h231q16 0 22.5 -9.5t6.5 -30.5v-15q0 -21 -6.5 -30.5t-22.5 -9.5h-231q-15 0 -22 9.5z" />
    <glyph glyph-name="Obreve" unicode="&#x14e;" horiz-adv-x="599" 
d="M38 350q0 358 262 358q128 0 194.5 -87t66.5 -271t-66.5 -271t-194.5 -87q-262 0 -262 358zM359 143q22 20 33 69.5t11 137.5q0 87 -11 136.5t-33 69.5t-58 20t-58.5 -20t-34 -69.5t-11.5 -136.5t11.5 -137t34 -70t58.5 -20t58 20zM224.5 758.5q-30.5 17.5 -45.5 42
t-15 46.5q0 14 10.5 24t26.5 10q8 0 14.5 -4t15.5 -14q27 -32 69 -32q45 0 70 34q7 9 12.5 12.5t15.5 3.5q16 0 26.5 -10t10.5 -24q0 -21 -15 -46t-45.5 -42.5t-75.5 -17.5q-44 0 -74.5 17.5z" />
    <glyph glyph-name="obreve" unicode="&#x14f;" horiz-adv-x="477" 
d="M86 61.5q-52 69.5 -52 200.5t51.5 200t152.5 69t153 -69t52 -200t-52 -200.5t-153 -69.5q-100 0 -152 69.5zM280.5 143.5q12.5 34.5 12.5 118.5t-12.5 118t-41.5 34q-30 0 -42.5 -34t-12.5 -118t12.5 -118.5t42.5 -34.5q29 0 41.5 34.5zM145.5 607.5
q-32.5 32.5 -32.5 73.5q0 18 10.5 26t26.5 8q12 0 18.5 -4.5t11.5 -13.5q10 -20 22 -27t37 -7q26 0 38 7.5t22 28.5q7 16 28 16q16 0 26.5 -8t10.5 -26q0 -26 -13.5 -50t-42 -40t-70.5 -16q-60 0 -92.5 32.5z" />
    <glyph glyph-name="Ohungarumlaut" unicode="&#x150;" horiz-adv-x="599" 
d="M38 350q0 358 262 358q128 0 194.5 -87t66.5 -271t-66.5 -271t-194.5 -87q-262 0 -262 358zM359 143q22 20 33 69.5t11 137.5q0 87 -11 136.5t-33 69.5t-58 20t-58.5 -20t-34 -69.5t-11.5 -136.5t11.5 -137t34 -70t58.5 -20t58 20zM157.5 752q-6.5 3 -6.5 9q0 12 11 27
l41 57q14 19 30 24.5t47 5.5q36 0 51 -3.5t15 -14.5q0 -14 -27 -36l-64 -52q-15 -13 -28 -16.5t-41 -3.5q-22 0 -28.5 3zM326.5 751q-6.5 3 -6.5 9q0 12 11 27l41 57q14 19 30 24.5t47 5.5q36 0 51 -3.5t15 -14.5q0 -14 -27 -36l-64 -52q-15 -13 -28 -16.5t-41 -3.5
q-22 0 -28.5 3z" />
    <glyph glyph-name="ohungarumlaut" unicode="&#x151;" horiz-adv-x="477" 
d="M86 61.5q-52 69.5 -52 200.5t51.5 200t152.5 69t153 -69t52 -200t-52 -200.5t-153 -69.5q-100 0 -152 69.5zM280.5 143.5q12.5 34.5 12.5 118.5t-12.5 118t-41.5 34q-30 0 -42.5 -34t-12.5 -118t12.5 -118.5t42.5 -34.5q29 0 41.5 34.5zM103.5 576q-8.5 4 -8.5 11t9 28
l34 72q9 18 26 24.5t56 6.5q29 0 40 -3.5t11 -13.5q0 -8 -4.5 -16t-14.5 -20l-47 -63q-14 -17 -28 -23.5t-41 -6.5q-24 0 -32.5 4zM268.5 576q-8.5 4 -8.5 11t9 28l34 72q9 18 26 24.5t56 6.5q29 0 40 -3.5t11 -13.5q0 -8 -4.5 -16t-14.5 -20l-47 -63q-14 -17 -28 -23.5
t-41 -6.5q-24 0 -32.5 4z" />
    <glyph glyph-name="OE" unicode="&#x152;" horiz-adv-x="831" 
d="M785 119q7 -12 7 -38v-31q0 -26 -7 -38t-21 -12h-323q-17 0 -26 7t-10 23q-28 -20 -57.5 -29t-64.5 -9q-118 0 -182 88.5t-64 269.5q0 182 64 270t182 88q36 0 65 -9t56 -30q2 16 10.5 23.5t26.5 7.5h322q15 0 21.5 -12t6.5 -38v-31q0 -26 -6.5 -38t-21.5 -12h-203v-145
h182q16 0 22.5 -12t6.5 -38v-31q0 -26 -6.5 -38t-22.5 -12h-182v-162h204q14 0 21 -12zM358.5 143.5q22.5 20.5 33.5 70t11 136.5t-11 136t-33 69.5t-58 20.5t-58.5 -20.5t-34 -69.5t-11.5 -136t11.5 -136.5t34 -70t58.5 -20.5q35 0 57.5 20.5z" />
    <glyph glyph-name="oe" unicode="&#x153;" horiz-adv-x="721" 
d="M652.5 123.5q12.5 -14.5 21 -33t8.5 -28.5q0 -23 -27 -38.5t-63.5 -23.5t-64.5 -8q-102 0 -158 53q-50 -53 -131 -53q-204 0 -204 270q0 269 204 269q77 0 129 -50q50 50 142 50q98 0 142 -69t44 -200q0 -12 -20.5 -35.5t-30.5 -23.5h-190q2 -51 23 -72.5t57 -21.5
q22 0 40 6t35 14.5t21 8.5q10 0 22.5 -14.5zM466.5 395q-14.5 -29 -18.5 -103h112q0 71 -12 101.5t-40 30.5q-27 0 -41.5 -29zM280.5 143.5q12.5 34.5 12.5 118.5t-12.5 118t-41.5 34q-30 0 -42.5 -34t-12.5 -118t12.5 -118.5t42.5 -34.5q29 0 41.5 34.5z" />
    <glyph glyph-name="Racute" unicode="&#x154;" horiz-adv-x="513" 
d="M54 30v630q0 21 9.5 30.5t30.5 9.5h167q92 0 148 -45.5t56 -151.5q0 -117 -95 -169v-4q22 -12 40 -40t27 -60l59 -192l3 -12q0 -27 -62 -27h-35q-53 0 -60 27l-53 190q-9 22 -20.5 31t-36.5 9h-24v-226q0 -32 -60 -32h-34q-60 0 -60 32zM264 402q22 0 37.5 22t15.5 64
t-15.5 61.5t-40.5 19.5h-53v-167h56zM185.5 752q-6.5 3 -6.5 9q0 12 11 27l41 57q14 19 30 24.5t47 5.5q36 0 51 -3.5t15 -14.5q0 -14 -27 -36l-64 -52q-15 -13 -28 -16.5t-41 -3.5q-22 0 -28.5 3z" />
    <glyph glyph-name="racute" unicode="&#x155;" horiz-adv-x="337" 
d="M55 30v319q0 44 -2.5 67.5t-6.5 52.5q-3 14 -3 21q0 16 40.5 24t71.5 8q18 0 25 -14t10.5 -30.5t4.5 -22.5q14 35 33 55.5t52 20.5q28 0 37.5 -12.5t9.5 -41.5q0 -22 -7.5 -56t-18.5 -34q-6 0 -21 4t-26 4q-19 0 -32 -14t-19 -36v-315q0 -32 -60 -32h-28q-60 0 -60 32z
M123.5 576q-8.5 4 -8.5 11t9 28l34 72q9 18 26 24.5t56 6.5q29 0 40 -3.5t11 -13.5q0 -8 -4.5 -16t-14.5 -20l-47 -63q-14 -17 -28 -23.5t-41 -6.5q-24 0 -32.5 4z" />
    <glyph glyph-name="uni0156" unicode="&#x156;" horiz-adv-x="513" 
d="M54 30v630q0 21 9.5 30.5t30.5 9.5h167q92 0 148 -45.5t56 -151.5q0 -117 -95 -169v-4q22 -12 40 -40t27 -60l59 -192l3 -12q0 -27 -62 -27h-35q-53 0 -60 27l-53 190q-9 22 -20.5 31t-36.5 9h-24v-226q0 -32 -60 -32h-34q-60 0 -60 32zM264 402q22 0 37.5 22t15.5 64
t-15.5 61.5t-40.5 19.5h-53v-167h56zM218 -234.5q-14 5.5 -14 16.5q0 3 2 21q8 51 8 102q0 44 58 44h20q45 0 45 -44q0 -32 -15.5 -65.5t-37 -56.5t-36.5 -23q-16 0 -30 5.5z" />
    <glyph glyph-name="uni0157" unicode="&#x157;" horiz-adv-x="337" 
d="M55 30v319q0 44 -2.5 67.5t-6.5 52.5q-3 14 -3 21q0 16 40.5 24t71.5 8q18 0 25 -14t10.5 -30.5t4.5 -22.5q14 35 33 55.5t52 20.5q28 0 37.5 -12.5t9.5 -41.5q0 -22 -7.5 -56t-18.5 -34q-6 0 -21 4t-26 4q-19 0 -32 -14t-19 -36v-315q0 -32 -60 -32h-28q-60 0 -60 32z
M77 -236.5q-14 5.5 -14 16.5q0 3 2 21q8 51 8 102q0 44 58 44h20q45 0 45 -44q0 -32 -15.5 -65.5t-37 -56.5t-36.5 -23q-16 0 -30 5.5z" />
    <glyph glyph-name="Rcaron" unicode="&#x158;" horiz-adv-x="513" 
d="M54 30v630q0 21 9.5 30.5t30.5 9.5h167q92 0 148 -45.5t56 -151.5q0 -117 -95 -169v-4q22 -12 40 -40t27 -60l59 -192l3 -12q0 -27 -62 -27h-35q-53 0 -60 27l-53 190q-9 22 -20.5 31t-36.5 9h-24v-226q0 -32 -60 -32h-34q-60 0 -60 32zM264 402q22 0 37.5 22t15.5 64
t-15.5 61.5t-40.5 19.5h-53v-167h56zM189 754q-15 5 -26 24l-37 59q-9 14 -9 22q0 10 11 13t34 3t32.5 -2.5t22.5 -14.5l34 -32l34 32q13 12 22.5 14.5t32.5 2.5t34 -3.5t11 -12.5q0 -8 -9 -22l-37 -59q-11 -19 -26 -24t-50 -5h-24q-35 0 -50 5z" />
    <glyph glyph-name="rcaron" unicode="&#x159;" horiz-adv-x="337" 
d="M55 30v319q0 44 -2.5 67.5t-6.5 52.5q-3 14 -3 21q0 16 40.5 24t71.5 8q18 0 25 -14t10.5 -30.5t4.5 -22.5q14 35 33 55.5t52 20.5q28 0 37.5 -12.5t9.5 -41.5q0 -22 -7.5 -56t-18.5 -34q-6 0 -21 4t-26 4q-19 0 -32 -14t-19 -36v-315q0 -32 -60 -32h-28q-60 0 -60 32z
M123 578.5q-13 6.5 -22 24.5l-34 72q-9 21 -9 28q0 15 31 15q30 0 43 -6t24 -24l26 -44l27 44q11 18 24.5 24t42.5 6q31 0 31 -15q0 -7 -9 -28l-34 -72q-9 -18 -21.5 -24.5t-40.5 -6.5h-38q-28 0 -41 6.5z" />
    <glyph glyph-name="Sacute" unicode="&#x15a;" horiz-adv-x="437" 
d="M109 6.5q-48 14.5 -70 39.5q-13 18 -13 35q0 28 15 57t33 29q8 0 25.5 -10t25.5 -14q39 -20 69 -20q32 0 56 15t24 51q0 38 -23 59.5t-72 47.5q-75 43 -109.5 89t-34.5 122q0 61 27 106.5t74.5 70t108.5 24.5q34 0 72 -10.5t59 -25.5q18 -13 18 -35q0 -26 -11.5 -55
t-28.5 -29q-8 0 -29 8q-39 15 -65 15q-42 0 -57.5 -18t-15.5 -41q0 -36 19 -54.5t61 -40.5q9 -4 27 -14q69 -40 99.5 -86t30.5 -121q0 -56 -24 -103.5t-73 -76.5t-121 -29q-49 0 -97 14.5zM152.5 752q-6.5 3 -6.5 9q0 12 11 27l41 57q14 19 30 24.5t47 5.5q36 0 51 -3.5
t15 -14.5q0 -14 -27 -36l-64 -52q-15 -13 -28 -16.5t-41 -3.5q-22 0 -28.5 3z" />
    <glyph glyph-name="sacute" unicode="&#x15b;" horiz-adv-x="353" 
d="M65.5 10q-44.5 18 -44.5 47q0 21 19.5 52t34.5 31q4 0 17.5 -8t25.5 -13.5t28 -5.5q24 0 37 10t13 27q0 20 -13 32t-41 27l-20 12q-43 26 -68.5 57.5t-25.5 91.5q0 75 45.5 118t119.5 43q46 0 88 -14.5t42 -43.5q0 -20 -14.5 -50.5t-26.5 -30.5q-3 0 -23 9t-41 9
q-50 0 -50 -34q0 -17 12 -27.5t40 -26.5q13 -6 32 -18q39 -25 61.5 -57t22.5 -86q0 -75 -46.5 -122t-127.5 -47q-52 0 -96.5 18zM117.5 576q-8.5 4 -8.5 11t9 28l34 72q9 18 26 24.5t56 6.5q29 0 40 -3.5t11 -13.5q0 -8 -4.5 -16t-14.5 -20l-47 -63q-14 -17 -28 -23.5
t-41 -6.5q-24 0 -32.5 4z" />
    <glyph glyph-name="Scircumflex" unicode="&#x15c;" horiz-adv-x="437" 
d="M109 6.5q-48 14.5 -70 39.5q-13 18 -13 35q0 28 15 57t33 29q8 0 25.5 -10t25.5 -14q39 -20 69 -20q32 0 56 15t24 51q0 38 -23 59.5t-72 47.5q-75 43 -109.5 89t-34.5 122q0 61 27 106.5t74.5 70t108.5 24.5q34 0 72 -10.5t59 -25.5q18 -13 18 -35q0 -26 -11.5 -55
t-28.5 -29q-8 0 -29 8q-39 15 -65 15q-42 0 -57.5 -18t-15.5 -41q0 -36 19 -54.5t61 -40.5q9 -4 27 -14q69 -40 99.5 -86t30.5 -121q0 -56 -24 -103.5t-73 -76.5t-121 -29q-49 0 -97 14.5zM95 737q-11 3 -11 13q0 9 9 22l37 59q11 19 26 24t50 5h24q35 0 50 -5t26 -24
l37 -59q9 -13 9 -22t-11 -12.5t-34 -3.5t-32.5 2.5t-22.5 14.5l-34 32l-34 -32q-13 -12 -22.5 -14.5t-32.5 -2.5t-34 3z" />
    <glyph glyph-name="scircumflex" unicode="&#x15d;" horiz-adv-x="353" 
d="M65.5 10q-44.5 18 -44.5 47q0 21 19.5 52t34.5 31q4 0 17.5 -8t25.5 -13.5t28 -5.5q24 0 37 10t13 27q0 20 -13 32t-41 27l-20 12q-43 26 -68.5 57.5t-25.5 91.5q0 75 45.5 118t119.5 43q46 0 88 -14.5t42 -43.5q0 -20 -14.5 -50.5t-26.5 -30.5q-3 0 -23 9t-41 9
q-50 0 -50 -34q0 -17 12 -27.5t40 -26.5q13 -6 32 -18q39 -25 61.5 -57t22.5 -86q0 -75 -46.5 -122t-127.5 -47q-52 0 -96.5 18zM52 587q0 7 9 28l34 72q9 18 24 24.5t48 6.5h18q34 0 49 -6.5t24 -24.5l34 -72q9 -21 9 -28q0 -15 -31 -15q-30 0 -43 6t-24 24l-26 44l-27 -44
q-11 -18 -24.5 -24t-42.5 -6q-31 0 -31 15z" />
    <glyph glyph-name="Scedilla" unicode="&#x15e;" horiz-adv-x="437" 
d="M380 65.5q-44 -57.5 -130 -70.5l-13 -47q30 -5 47 -23t17 -45q0 -45 -30 -68.5t-89 -23.5q-32 0 -60 11.5t-28 29.5q0 16 10 26.5t18 10.5t20 -5q3 -1 15.5 -4.5t27.5 -3.5q34 0 34 26q0 12 -9 18.5t-24 11.5q-2 1 -8.5 4t-9.5 5.5t-3 6.5q0 7 19 68q-45 3 -85.5 17
t-59.5 36q-13 18 -13 35q0 28 15 57t33 29q8 0 25.5 -10t25.5 -14q39 -20 69 -20q32 0 56 15t24 51q0 38 -23 59.5t-72 47.5q-75 43 -109.5 89t-34.5 122q0 61 27 106.5t74.5 70t108.5 24.5q34 0 72 -10.5t59 -25.5q18 -13 18 -35q0 -26 -11.5 -55t-28.5 -29q-8 0 -29 8
q-39 15 -65 15q-42 0 -57.5 -18t-15.5 -41q0 -36 19 -54.5t61 -40.5q9 -4 27 -14q69 -40 99.5 -86t30.5 -121q0 -78 -44 -135.5z" />
    <glyph glyph-name="scedilla" unicode="&#x15f;" horiz-adv-x="353" 
d="M304 55.5q-32 -43.5 -90 -57.5l-14 -50q30 -5 47 -23t17 -45q0 -45 -30 -68.5t-89 -23.5q-32 0 -60 11.5t-28 29.5q0 16 10 26.5t18 10.5t20 -5q3 -1 15.5 -4.5t27.5 -3.5q34 0 34 26q0 12 -9 18.5t-24 11.5q-2 1 -8.5 4t-9.5 5.5t-3 6.5q0 7 19 67q-50 3 -88 20.5
t-38 44.5q0 21 19.5 52t34.5 31q4 0 17.5 -8t25.5 -13.5t28 -5.5q24 0 37 10t13 27q0 20 -13 32t-41 27l-20 12q-43 26 -68.5 57.5t-25.5 91.5q0 75 45.5 118t119.5 43q46 0 88 -14.5t42 -43.5q0 -20 -14.5 -50.5t-26.5 -30.5q-3 0 -23 9t-41 9q-50 0 -50 -34
q0 -17 12 -27.5t40 -26.5q13 -6 32 -18q39 -25 61.5 -57t22.5 -86q0 -62 -32 -105.5z" />
    <glyph glyph-name="Scaron" unicode="&#x160;" horiz-adv-x="437" 
d="M109 6.5q-48 14.5 -70 39.5q-13 18 -13 35q0 28 15 57t33 29q8 0 25.5 -10t25.5 -14q39 -20 69 -20q32 0 56 15t24 51q0 38 -23 59.5t-72 47.5q-75 43 -109.5 89t-34.5 122q0 61 27 106.5t74.5 70t108.5 24.5q34 0 72 -10.5t59 -25.5q18 -13 18 -35q0 -26 -11.5 -55
t-28.5 -29q-8 0 -29 8q-39 15 -65 15q-42 0 -57.5 -18t-15.5 -41q0 -36 19 -54.5t61 -40.5q9 -4 27 -14q69 -40 99.5 -86t30.5 -121q0 -56 -24 -103.5t-73 -76.5t-121 -29q-49 0 -97 14.5zM156 754q-15 5 -26 24l-37 59q-9 14 -9 22q0 10 11 13t34 3t32.5 -2.5t22.5 -14.5
l34 -32l34 32q13 12 22.5 14.5t32.5 2.5t34 -3.5t11 -12.5q0 -8 -9 -22l-37 -59q-11 -19 -26 -24t-50 -5h-24q-35 0 -50 5z" />
    <glyph glyph-name="scaron" unicode="&#x161;" horiz-adv-x="353" 
d="M65.5 10q-44.5 18 -44.5 47q0 21 19.5 52t34.5 31q4 0 17.5 -8t25.5 -13.5t28 -5.5q24 0 37 10t13 27q0 20 -13 32t-41 27l-20 12q-43 26 -68.5 57.5t-25.5 91.5q0 75 45.5 118t119.5 43q46 0 88 -14.5t42 -43.5q0 -20 -14.5 -50.5t-26.5 -30.5q-3 0 -23 9t-41 9
q-50 0 -50 -34q0 -17 12 -27.5t40 -26.5q13 -6 32 -18q39 -25 61.5 -57t22.5 -86q0 -75 -46.5 -122t-127.5 -47q-52 0 -96.5 18zM117 578.5q-13 6.5 -22 24.5l-34 72q-9 21 -9 28q0 15 31 15q30 0 43 -6t24 -24l26 -44l27 44q11 18 24.5 24t42.5 6q31 0 31 -15q0 -7 -9 -28
l-34 -72q-9 -18 -21.5 -24.5t-40.5 -6.5h-38q-28 0 -41 6.5z" />
    <glyph glyph-name="uni0162" unicode="&#x162;" horiz-adv-x="454" 
d="M440 688q7 -12 7 -38v-31q0 -26 -7 -38t-23 -12h-112v-539q0 -14 -10.5 -22t-34.5 -10l-14 -50q30 -5 47 -23t17 -45q0 -45 -30 -68.5t-89 -23.5q-32 0 -60 11.5t-28 29.5q0 16 10 26.5t18 10.5t20 -5q3 -1 15.5 -4.5t27.5 -3.5q34 0 34 26q0 12 -9 18.5t-24 11.5
q-2 1 -8.5 4t-9.5 5.5t-3 6.5q0 7 21 73q-47 3 -47 32v539h-111q-15 0 -22 12t-7 38v31q0 26 7 38t22 12h380q16 0 23 -12z" />
    <glyph glyph-name="uni0163" unicode="&#x163;" horiz-adv-x="298" 
d="M262 8.5q-25 -11.5 -59 -15.5l-12 -45q30 -5 47 -23t17 -45q0 -45 -30 -68.5t-89 -23.5q-32 0 -60 11.5t-28 29.5q0 16 10 26.5t18 10.5t20 -5q3 -1 15.5 -4.5t27.5 -3.5q34 0 34 26q0 12 -9 18.5t-24 11.5q-2 1 -8.5 4t-9.5 5.5t-3 6.5q0 7 21 73q-39 12 -60.5 49.5
t-21.5 100.5v258h-11q-16 0 -23 12t-7 38v17q0 26 7 38t23 12h11l13 95q5 32 54 32h31q50 0 50 -32v-95h37q16 0 23 -12t7 -38v-17q0 -26 -7 -38t-23 -12h-37v-262q0 -18 5.5 -26.5t18.5 -8.5q5 0 13.5 2t13.5 2q12 0 21 -28.5t9 -42.5q0 -22 -25 -33.5z" />
    <glyph glyph-name="Tcaron" unicode="&#x164;" horiz-adv-x="454" 
d="M148 30v539h-111q-15 0 -22 12t-7 38v31q0 26 7 38t22 12h380q16 0 23 -12t7 -38v-31q0 -26 -7 -38t-23 -12h-112v-539q0 -32 -58 -32h-41q-58 0 -58 32zM165 754q-15 5 -26 24l-37 59q-9 14 -9 22q0 10 11 13t34 3t32.5 -2.5t22.5 -14.5l34 -32l34 32q13 12 22.5 14.5
t32.5 2.5t34 -3.5t11 -12.5q0 -8 -9 -22l-37 -59q-11 -19 -26 -24t-50 -5h-24q-35 0 -50 5z" />
    <glyph glyph-name="tcaron" unicode="&#x165;" horiz-adv-x="298" 
d="M90.5 30.5q-32.5 38.5 -32.5 117.5v258h-11q-16 0 -23 12t-7 38v17q0 26 7 38t23 12h11l13 95q5 32 54 32h31q50 0 50 -32v-95h37q16 0 23 -12t7 -38v-17q0 -26 -7 -38t-23 -12h-37v-262q0 -18 5.5 -26.5t18.5 -8.5q5 0 13.5 2t13.5 2q12 0 21 -28.5t9 -42.5
q0 -25 -34 -37.5t-70 -12.5q-60 0 -92.5 38.5zM243 568.5q-13 5.5 -13 16.5q0 31 2 73q2 36 2 50q0 44 45 44h17q22 0 33.5 -12t11.5 -32q0 -32 -12.5 -65.5t-29 -56.5t-28.5 -23q-15 0 -28 5.5z" />
    <glyph glyph-name="Tbar" unicode="&#x166;" horiz-adv-x="454" 
d="M440 688q7 -12 7 -38v-31q0 -26 -7 -38t-23 -12h-112v-169h67q16 0 22.5 -9.5t6.5 -30.5v-15q0 -21 -6.5 -30.5t-22.5 -9.5h-67v-275q0 -32 -58 -32h-41q-58 0 -58 32v275h-65q-15 0 -22 9.5t-7 30.5v15q0 21 7 30.5t22 9.5h65v169h-111q-15 0 -22 12t-7 38v31q0 26 7 38
t22 12h380q16 0 23 -12z" />
    <glyph glyph-name="tbar" unicode="&#x167;" horiz-adv-x="298" 
d="M278 84.5q9 -28.5 9 -42.5q0 -25 -34 -37.5t-70 -12.5q-60 0 -92.5 38.5t-32.5 117.5v72h-13q-15 0 -22 9.5t-7 30.5v15q0 21 7 30.5t22 9.5h13v91h-11q-16 0 -23 12t-7 38v17q0 26 7 38t23 12h11l13 95q5 32 54 32h31q50 0 50 -32v-95h37q16 0 23 -12t7 -38v-17
q0 -26 -7 -38t-23 -12h-37v-91h36q16 0 22.5 -9.5t6.5 -30.5v-15q0 -21 -6.5 -30.5t-22.5 -9.5h-36v-76q0 -18 5.5 -26.5t18.5 -8.5q5 0 13.5 2t13.5 2q12 0 21 -28.5z" />
    <glyph glyph-name="Utilde" unicode="&#x168;" horiz-adv-x="583" 
d="M115 48q-64 56 -64 157v465q0 32 58 32h40q58 0 58 -32v-455q0 -41 23 -66.5t62 -25.5q38 0 61.5 26t23.5 66v455q0 32 58 32h39q58 0 58 -32v-465q0 -101 -63.5 -157t-176.5 -56t-177 56zM153.5 764.5q-16.5 8.5 -16.5 18.5t5 22q13 29 36 47.5t55 18.5q19 0 35 -5
t39 -15q3 -1 16.5 -6.5t23.5 -5.5q11 0 17.5 4.5t15.5 15.5q11 15 21 15q12 0 28.5 -9.5t16.5 -19.5q0 -3 -3 -15q-11 -29 -36 -50t-56 -21t-71 18q-3 1 -17.5 6.5t-25.5 5.5t-18.5 -5t-16.5 -14q-14 -14 -22 -14q-10 0 -26.5 8.5z" />
    <glyph glyph-name="utilde" unicode="&#x169;" horiz-adv-x="482" 
d="M75.5 26.5q-29.5 35.5 -29.5 103.5v363q0 32 58 32h34q58 0 58 -32v-330q0 -25 8 -37.5t29 -12.5q27 0 50 32v348q0 16 14 24t43 8h35q57 0 57 -32v-319q0 -71 5 -102t5 -38q0 -18 -42 -26t-73 -8q-19 0 -25 11t-8.5 28.5t-4.5 27.5q-22 -33 -53.5 -54.5t-72.5 -21.5
q-58 0 -87.5 35.5zM100.5 594.5q-16.5 8.5 -16.5 19.5q0 4 1.5 11t3.5 13q29 66 89 66q30 0 74 -19q32 -13 46 -13q10 0 17 4.5t15 13.5l6.5 6.5t12.5 5.5q12 0 29.5 -10.5t17.5 -20.5q0 -6 -7 -24q-11 -27 -35.5 -44t-53.5 -17q-18 0 -34.5 4.5t-37.5 13.5q-33 13 -50 13
q-11 0 -18.5 -5t-15.5 -14l-6.5 -6.5t-11.5 -5.5q-9 0 -25.5 8.5z" />
    <glyph glyph-name="Umacron" unicode="&#x16a;" horiz-adv-x="583" 
d="M115 48q-64 56 -64 157v465q0 32 58 32h40q58 0 58 -32v-455q0 -41 23 -66.5t62 -25.5q38 0 61.5 26t23.5 66v455q0 32 58 32h39q58 0 58 -32v-465q0 -101 -63.5 -157t-176.5 -56t-177 56zM149 775.5q-7 9.5 -7 30.5v15q0 21 7 30.5t22 9.5h241q16 0 22.5 -9.5t6.5 -30.5
v-15q0 -21 -6.5 -30.5t-22.5 -9.5h-241q-15 0 -22 9.5z" />
    <glyph glyph-name="umacron" unicode="&#x16b;" horiz-adv-x="482" 
d="M75.5 26.5q-29.5 35.5 -29.5 103.5v363q0 32 58 32h34q58 0 58 -32v-330q0 -25 8 -37.5t29 -12.5q27 0 50 32v348q0 16 14 24t43 8h35q57 0 57 -32v-319q0 -71 5 -102t5 -38q0 -18 -42 -26t-73 -8q-19 0 -25 11t-8.5 28.5t-4.5 27.5q-22 -33 -53.5 -54.5t-72.5 -21.5
q-58 0 -87.5 35.5zM102 606.5q-7 9.5 -7 30.5v15q0 21 7 30.5t22 9.5h231q16 0 22.5 -9.5t6.5 -30.5v-15q0 -21 -6.5 -30.5t-22.5 -9.5h-231q-15 0 -22 9.5z" />
    <glyph glyph-name="Ubreve" unicode="&#x16c;" horiz-adv-x="583" 
d="M115 48q-64 56 -64 157v465q0 32 58 32h40q58 0 58 -32v-455q0 -41 23 -66.5t62 -25.5q38 0 61.5 26t23.5 66v455q0 32 58 32h39q58 0 58 -32v-465q0 -101 -63.5 -157t-176.5 -56t-177 56zM216.5 758.5q-30.5 17.5 -45.5 42t-15 46.5q0 14 10.5 24t26.5 10q8 0 14.5 -4
t15.5 -14q27 -32 69 -32q45 0 70 34q7 9 12.5 12.5t15.5 3.5q16 0 26.5 -10t10.5 -24q0 -21 -15 -46t-45.5 -42.5t-75.5 -17.5q-44 0 -74.5 17.5z" />
    <glyph glyph-name="ubreve" unicode="&#x16d;" horiz-adv-x="482" 
d="M75.5 26.5q-29.5 35.5 -29.5 103.5v363q0 32 58 32h34q58 0 58 -32v-330q0 -25 8 -37.5t29 -12.5q27 0 50 32v348q0 16 14 24t43 8h35q57 0 57 -32v-319q0 -71 5 -102t5 -38q0 -18 -42 -26t-73 -8q-19 0 -25 11t-8.5 28.5t-4.5 27.5q-22 -33 -53.5 -54.5t-72.5 -21.5
q-58 0 -87.5 35.5zM146.5 607.5q-32.5 32.5 -32.5 73.5q0 18 10.5 26t26.5 8q12 0 18.5 -4.5t11.5 -13.5q10 -20 22 -27t37 -7q26 0 38 7.5t22 28.5q7 16 28 16q16 0 26.5 -8t10.5 -26q0 -26 -13.5 -50t-42 -40t-70.5 -16q-60 0 -92.5 32.5z" />
    <glyph glyph-name="Uring" unicode="&#x16e;" horiz-adv-x="583" 
d="M115 48q-64 56 -64 157v465q0 32 58 32h40q58 0 58 -32v-455q0 -41 23 -66.5t62 -25.5q38 0 61.5 26t23.5 66v455q0 32 58 32h39q58 0 58 -32v-465q0 -101 -63.5 -157t-176.5 -56t-177 56zM220.5 746.5q-28.5 28.5 -28.5 70.5q0 43 28.5 71.5t70.5 28.5q43 0 71.5 -28.5
t28.5 -71.5q0 -42 -28.5 -70.5t-71.5 -28.5q-42 0 -70.5 28.5zM316 792q10 10 10 24q0 15 -10 25t-25 10q-14 0 -24 -10t-10 -25q0 -14 10 -24t24 -10q15 0 25 10z" />
    <glyph glyph-name="uring" unicode="&#x16f;" horiz-adv-x="482" 
d="M75.5 26.5q-29.5 35.5 -29.5 103.5v363q0 32 58 32h34q58 0 58 -32v-330q0 -25 8 -37.5t29 -12.5q27 0 50 32v348q0 16 14 24t43 8h35q57 0 57 -32v-319q0 -71 5 -102t5 -38q0 -18 -42 -26t-73 -8q-19 0 -25 11t-8.5 28.5t-4.5 27.5q-22 -33 -53.5 -54.5t-72.5 -21.5
q-58 0 -87.5 35.5zM170.5 567.5q-25.5 26.5 -25.5 72.5t25.5 73t68.5 27t69 -27t26 -73t-25.5 -72.5t-69.5 -26.5q-43 0 -68.5 26.5zM269 640q0 35 -30 35q-29 0 -29 -35q0 -34 29 -34q30 0 30 34z" />
    <glyph glyph-name="Uhungarumlaut" unicode="&#x170;" horiz-adv-x="583" 
d="M115 48q-64 56 -64 157v465q0 32 58 32h40q58 0 58 -32v-455q0 -41 23 -66.5t62 -25.5q38 0 61.5 26t23.5 66v455q0 32 58 32h39q58 0 58 -32v-465q0 -101 -63.5 -157t-176.5 -56t-177 56zM149.5 752q-6.5 3 -6.5 9q0 12 11 27l41 57q14 19 30 24.5t47 5.5q36 0 51 -3.5
t15 -14.5q0 -14 -27 -36l-64 -52q-15 -13 -28 -16.5t-41 -3.5q-22 0 -28.5 3zM318.5 751q-6.5 3 -6.5 9q0 12 11 27l41 57q14 19 30 24.5t47 5.5q36 0 51 -3.5t15 -14.5q0 -14 -27 -36l-64 -52q-15 -13 -28 -16.5t-41 -3.5q-22 0 -28.5 3z" />
    <glyph glyph-name="uhungarumlaut" unicode="&#x171;" horiz-adv-x="482" 
d="M75.5 26.5q-29.5 35.5 -29.5 103.5v363q0 32 58 32h34q58 0 58 -32v-330q0 -25 8 -37.5t29 -12.5q27 0 50 32v348q0 16 14 24t43 8h35q57 0 57 -32v-319q0 -71 5 -102t5 -38q0 -18 -42 -26t-73 -8q-19 0 -25 11t-8.5 28.5t-4.5 27.5q-22 -33 -53.5 -54.5t-72.5 -21.5
q-58 0 -87.5 35.5zM104.5 576q-8.5 4 -8.5 11t9 28l34 72q9 18 26 24.5t56 6.5q29 0 40 -3.5t11 -13.5q0 -8 -4.5 -16t-14.5 -20l-47 -63q-14 -17 -28 -23.5t-41 -6.5q-24 0 -32.5 4zM269.5 576q-8.5 4 -8.5 11t9 28l34 72q9 18 26 24.5t56 6.5q29 0 40 -3.5t11 -13.5
q0 -8 -4.5 -16t-14.5 -20l-47 -63q-14 -17 -28 -23.5t-41 -6.5q-24 0 -32.5 4z" />
    <glyph glyph-name="Uogonek" unicode="&#x172;" horiz-adv-x="583" 
d="M532 670v-465q0 -88 -49.5 -142.5t-138.5 -67.5q-54 -42 -54 -79q0 -11 7.5 -18.5t23.5 -7.5q15 0 28 5.5t19 5.5q9 0 18 -16.5t9 -29.5q0 -22 -25.5 -36.5t-61.5 -14.5q-45 0 -69 25.5t-24 64.5q0 23 14 49.5t40 49.5q-103 5 -160.5 60.5t-57.5 151.5v465q0 32 58 32h40
q58 0 58 -32v-455q0 -41 23 -66.5t62 -25.5q38 0 61.5 26t23.5 66v455q0 32 58 32h39q58 0 58 -32z" />
    <glyph glyph-name="uogonek" unicode="&#x173;" horiz-adv-x="482" 
d="M432 -115.5q9 -16.5 9 -29.5q0 -22 -25.5 -36.5t-61.5 -14.5q-45 0 -69 25.5t-24 64.5q0 25 16.5 54t46.5 52q-17 1 -22.5 12t-9.5 35l-3 20q-22 -33 -53.5 -54.5t-72.5 -21.5q-58 0 -87.5 35.5t-29.5 103.5v363q0 32 58 32h34q58 0 58 -32v-330q0 -25 8 -37.5t29 -12.5
q27 0 50 32v348q0 16 14 24t43 8h35q57 0 57 -32v-319q0 -71 5 -102t5 -38q0 -14 -30 -23q-36 -23 -56 -48.5t-20 -46.5q0 -11 7.5 -18.5t23.5 -7.5q15 0 28 5.5t19 5.5q9 0 18 -16.5z" />
    <glyph glyph-name="Wcircumflex" unicode="&#x174;" horiz-adv-x="752" 
d="M150 3q-11 5 -13 16l-131 642q-1 4 -0.5 8.5t0.5 6.5q0 26 59 26h29q60 0 64 -31l47 -369q14 -118 16 -150h4q6 53 21 150l61 379q2 12 12.5 16.5t34.5 4.5h50q24 0 34.5 -4.5t12.5 -16.5l60 -379q11 -67 20 -153h4q3 45 18 153l48 369q4 31 64 31h23q59 0 59 -26
q0 -9 -1 -15l-133 -642q-4 -21 -47 -21h-66q-40 0 -45 21l-60 313q-7 33 -11.5 80.5t-5.5 86.5h-4q-1 -41 -6.5 -89t-11.5 -78l-61 -313q-4 -21 -45 -21h-66q-23 0 -34 5zM255 737q-11 3 -11 13q0 9 9 22l37 59q11 19 26 24t50 5h24q35 0 50 -5t26 -24l37 -59q9 -13 9 -22
t-11 -12.5t-34 -3.5t-32.5 2.5t-22.5 14.5l-34 32l-34 -32q-13 -12 -22.5 -14.5t-32.5 -2.5t-34 3z" />
    <glyph glyph-name="wcircumflex" unicode="&#x175;" horiz-adv-x="616" 
d="M132.5 3q-9.5 5 -11.5 16l-106 465q-1 6 -1 15q0 26 61 26q71 0 72 -21l26 -247l10 -111h4q6 58 16 116l42 242q1 10 15.5 15.5t36.5 5.5h26q21 0 36 -5.5t16 -15.5l42 -244q7 -39 15 -114h4q2 14 3 29t2 27l5 55l27 247q3 21 67 21q61 0 61 -26q0 -9 -1 -15l-104 -465
q-3 -21 -41 -21h-32q-22 0 -31 5t-11 16l-63 263q-3 25 -4 39q-2 30 -4 38h-4q-3 -25 -4 -38q-2 -31 -4 -39l-62 -263q-2 -11 -11 -16t-30 -5h-33q-20 0 -29.5 5zM183 587q0 7 9 28l34 72q9 18 24 24.5t48 6.5h18q34 0 49 -6.5t24 -24.5l34 -72q9 -21 9 -28q0 -15 -31 -15
q-30 0 -43 6t-24 24l-26 44l-27 -44q-11 -18 -24.5 -24t-42.5 -6q-31 0 -31 15z" />
    <glyph glyph-name="Ycircumflex" unicode="&#x176;" horiz-adv-x="484" 
d="M165 30v272l-154 355q-2 4 -5.5 12.5t-3.5 12.5q0 9 15.5 14.5t44.5 5.5h51q49 0 55 -19l78 -246l77 246q3 11 17 15t38 4h42q63 0 63 -20q0 -10 -7 -25l-154 -358v-269q0 -32 -59 -32h-39q-59 0 -59 32zM119 737q-11 3 -11 13q0 9 9 22l37 59q11 19 26 24t50 5h24
q35 0 50 -5t26 -24l37 -59q9 -13 9 -22t-11 -12.5t-34 -3.5t-32.5 2.5t-22.5 14.5l-34 32l-34 -32q-13 -12 -22.5 -14.5t-32.5 -2.5t-34 3z" />
    <glyph glyph-name="ycircumflex" unicode="&#x177;" horiz-adv-x="408" 
d="M404 503q0 -4 -2 -18l-170 -670q-5 -21 -55 -21h-20q-56 0 -56 21q0 7 3 18l43 156l-137 491q-4 12 -4 22q0 23 50 23h43q23 0 35.5 -4.5t15.5 -18.5l37 -203q6 -36 16 -112h4q5 35 7 45q6 48 10 67l40 205q4 21 53 21h29q58 0 58 -22zM79 587q0 7 9 28l34 72
q9 18 24 24.5t48 6.5h18q34 0 49 -6.5t24 -24.5l34 -72q9 -21 9 -28q0 -15 -31 -15q-30 0 -43 6t-24 24l-26 44l-27 -44q-11 -18 -24.5 -24t-42.5 -6q-31 0 -31 15z" />
    <glyph glyph-name="Ydieresis" unicode="&#x178;" horiz-adv-x="484" 
d="M165 30v272l-154 355q-2 4 -5.5 12.5t-3.5 12.5q0 9 15.5 14.5t44.5 5.5h51q49 0 55 -19l78 -246l77 246q3 11 17 15t38 4h42q63 0 63 -20q0 -10 -7 -25l-154 -358v-269q0 -32 -59 -32h-39q-59 0 -59 32zM108.5 753.5q-14.5 7.5 -14.5 24.5v68q0 17 14.5 24.5t45.5 7.5
t45.5 -7.5t14.5 -24.5v-68q0 -17 -14.5 -24.5t-45.5 -7.5t-45.5 7.5zM284.5 753.5q-14.5 7.5 -14.5 24.5v68q0 17 14.5 24.5t45.5 7.5t45.5 -7.5t14.5 -24.5v-68q0 -17 -14.5 -24.5t-45.5 -7.5t-45.5 7.5z" />
    <glyph glyph-name="Zacute" unicode="&#x179;" horiz-adv-x="507" 
d="M36 33q-13 33 -13 56q0 8 1 10l254 470h-205q-15 0 -21.5 12t-6.5 38v31q0 26 6.5 38t21.5 12h365q12 0 24.5 -34.5t12.5 -57.5q0 -10 -3 -16l-249 -461h225q15 0 22 -12t7 -38v-31q0 -26 -7 -38t-22 -12h-386q-13 0 -26 33zM190.5 752q-6.5 3 -6.5 9q0 12 11 27l41 57
q14 19 30 24.5t47 5.5q36 0 51 -3.5t15 -14.5q0 -14 -27 -36l-64 -52q-15 -13 -28 -16.5t-41 -3.5q-22 0 -28.5 3z" />
    <glyph glyph-name="zacute" unicode="&#x17a;" horiz-adv-x="405" 
d="M33 27.5q-9 27.5 -9 48.5q0 8 2 14l170 316h-132q-15 0 -22 12t-7 38v17q0 26 7 38t22 12h285q7 0 17 -28t10 -49q0 -9 -3 -15l-170 -314h149q15 0 22 -12t7 -38v-17q0 -26 -7 -38t-22 -12h-301q-9 0 -18 27.5zM145.5 576q-8.5 4 -8.5 11t9 28l34 72q9 18 26 24.5t56 6.5
q29 0 40 -3.5t11 -13.5q0 -8 -4.5 -16t-14.5 -20l-47 -63q-14 -17 -28 -23.5t-41 -6.5q-24 0 -32.5 4z" />
    <glyph glyph-name="Zdotaccent" unicode="&#x17b;" horiz-adv-x="507" 
d="M36 33q-13 33 -13 56q0 8 1 10l254 470h-205q-15 0 -21.5 12t-6.5 38v31q0 26 6.5 38t21.5 12h365q12 0 24.5 -34.5t12.5 -57.5q0 -10 -3 -16l-249 -461h225q15 0 22 -12t7 -38v-31q0 -26 -7 -38t-22 -12h-386q-13 0 -26 33zM182 772v78q0 32 74 32t74 -32v-78
q0 -32 -74 -32t-74 32z" />
    <glyph glyph-name="zdotaccent" unicode="&#x17c;" horiz-adv-x="405" 
d="M33 27.5q-9 27.5 -9 48.5q0 8 2 14l170 316h-132q-15 0 -22 12t-7 38v17q0 26 7 38t22 12h285q7 0 17 -28t10 -49q0 -9 -3 -15l-170 -314h149q15 0 22 -12t7 -38v-17q0 -26 -7 -38t-22 -12h-301q-9 0 -18 27.5zM131 606v78q0 32 74 32t74 -32v-78q0 -32 -74 -32t-74 32z
" />
    <glyph glyph-name="Zcaron" unicode="&#x17d;" horiz-adv-x="507" 
d="M36 33q-13 33 -13 56q0 8 1 10l254 470h-205q-15 0 -21.5 12t-6.5 38v31q0 26 6.5 38t21.5 12h365q12 0 24.5 -34.5t12.5 -57.5q0 -10 -3 -16l-249 -461h225q15 0 22 -12t7 -38v-31q0 -26 -7 -38t-22 -12h-386q-13 0 -26 33zM194 754q-15 5 -26 24l-37 59q-9 14 -9 22
q0 10 11 13t34 3t32.5 -2.5t22.5 -14.5l34 -32l34 32q13 12 22.5 14.5t32.5 2.5t34 -3.5t11 -12.5q0 -8 -9 -22l-37 -59q-11 -19 -26 -24t-50 -5h-24q-35 0 -50 5z" />
    <glyph glyph-name="zcaron" unicode="&#x17e;" horiz-adv-x="405" 
d="M33 27.5q-9 27.5 -9 48.5q0 8 2 14l170 316h-132q-15 0 -22 12t-7 38v17q0 26 7 38t22 12h285q7 0 17 -28t10 -49q0 -9 -3 -15l-170 -314h149q15 0 22 -12t7 -38v-17q0 -26 -7 -38t-22 -12h-301q-9 0 -18 27.5zM145 578.5q-13 6.5 -22 24.5l-34 72q-9 21 -9 28
q0 15 31 15q30 0 43 -6t24 -24l26 -44l27 44q11 18 24.5 24t42.5 6q31 0 31 -15q0 -7 -9 -28l-34 -72q-9 -18 -21.5 -24.5t-40.5 -6.5h-38q-28 0 -41 6.5z" />
    <glyph glyph-name="longs" unicode="&#x17f;" horiz-adv-x="273" 
d="M61 30v376h-12q-16 0 -23 12t-7 38v17q0 26 7 38t23 12h12v75q0 162 141 162q32 0 64.5 -12t32.5 -38q0 -6 -4 -24t-11 -33t-16 -15q-3 0 -13.5 2.5t-14.5 2.5q-16 0 -23.5 -10t-7.5 -33v-570q0 -32 -60 -32h-28q-60 0 -60 32z" />
    <glyph glyph-name="uni018F" unicode="&#x18f;" horiz-adv-x="560" 
d="M91.5 83.5q-52.5 84.5 -52.5 233.5q0 12 20.5 35.5t30.5 23.5h273q-2 84 -16 130t-38 62.5t-61 16.5q-35 0 -61 -8t-58 -21q-20 -10 -27 -10q-15 0 -33.5 28.5t-18.5 48.5q0 25 33.5 44.5t82 30t89.5 10.5q134 0 197.5 -94.5t63.5 -282.5q0 -172 -63 -252t-182 -80
q-127 0 -179.5 84.5zM334.5 154q21.5 35 29.5 123h-182q0 -79 18 -118.5t69 -39.5q44 0 65.5 35z" />
    <glyph glyph-name="florin" unicode="&#x192;" horiz-adv-x="330" 
d="M32 -199.5q-12 7.5 -12 24.5l8 78q36 334 52 503h-25q-13 0 -19 7.5t-6 23.5q0 24 8 55t34 31h20l8 75q9 81 53 121.5t116 40.5q35 0 59 -9.5t24 -39.5q0 -9 -6.5 -26.5t-16 -31.5t-18.5 -14q-3 0 -9.5 2t-10.5 2q-19 0 -29 -10t-13 -33l-9 -77h33q24 0 24 -31
q0 -23 -7.5 -54.5t-33.5 -31.5h-28l-60 -580q-2 -17 -16 -25t-46 -8h-31q-31 0 -43 7.5z" />
    <glyph glyph-name="uni019D" unicode="&#x19d;" horiz-adv-x="590" 
d="M-46.5 -199q-34.5 13 -34.5 33q0 29 13 60.5t29 32.5q4 0 17.5 -3t29.5 -3q24 0 34 24t10 78v647q0 32 58 32h26q20 0 32 -5.5t20 -22.5l180 -326q14 -26 34 -78l4 2q-8 52 -8 79v319q0 32 58 32h24q58 0 58 -32v-640q0 -32 -58 -32h-19q-20 0 -33 5.5t-21 22.5l-191 340
q-9 15 -27 64l-5 -3q8 -46 8 -68v-361q0 -210 -164 -210q-40 0 -74.5 13z" />
    <glyph glyph-name="Ohorn" unicode="&#x1a0;" horiz-adv-x="599" 
d="M578 636.5q-25 -24.5 -76 -28.5q59 -90 59 -258q0 -184 -66.5 -271t-194.5 -87q-262 0 -262 358t262 358q90 0 151 -46q16 -11 38 -11q35 0 35 31q0 17 -17 38q-1 1 -5.5 7.5t-4.5 11.5q0 12 11 19l32 22q6 5 16 5q18 0 32.5 -29t14.5 -54q0 -41 -25 -65.5zM359 143
q22 20 33 69.5t11 137.5q0 87 -11 136.5t-33 69.5t-58 20t-58.5 -20t-34 -69.5t-11.5 -136.5t11.5 -137t34 -70t58.5 -20t58 20z" />
    <glyph glyph-name="ohorn" unicode="&#x1a1;" horiz-adv-x="477" 
d="M86 61.5q-52 69.5 -52 200.5t51.5 200t152.5 69q43 0 90 -19q30 -12 48 -12t28.5 9t10.5 23q0 11 -4.5 19.5t-13.5 20t-9 16.5q0 12 11 19l32 22q6 5 16 5q18 0 32.5 -29t14.5 -54q0 -40 -25 -64.5t-75 -28.5q49 -68 49 -196q0 -131 -52 -200.5t-153 -69.5
q-100 0 -152 69.5zM280.5 143.5q12.5 34.5 12.5 118.5t-12.5 118t-41.5 34q-30 0 -42.5 -34t-12.5 -118t12.5 -118.5t42.5 -34.5q29 0 41.5 34.5z" />
    <glyph glyph-name="Uhorn" unicode="&#x1af;" horiz-adv-x="583" 
d="M589 695q-19 -23 -57 -31v-459q0 -101 -63.5 -157t-176.5 -56t-177 56t-64 157v465q0 32 58 32h40q58 0 58 -32v-455q0 -41 23 -66.5t62 -25.5q38 0 61.5 26t23.5 66v455q0 32 58 32h51q20 0 31.5 9t11.5 24q0 10 -4.5 18t-12.5 18q-10 14 -10 19q0 12 11 19l32 22
q6 5 16 5q18 0 32.5 -29t14.5 -54q0 -35 -19 -58z" />
    <glyph glyph-name="uhorn" unicode="&#x1b0;" horiz-adv-x="482" 
d="M484.5 519.5q-17.5 -22.5 -52.5 -31.5v-314q0 -71 5 -102t5 -38q0 -18 -42 -26t-73 -8q-19 0 -25 11t-8.5 28.5t-4.5 27.5q-22 -33 -53.5 -54.5t-72.5 -21.5q-58 0 -87.5 35.5t-29.5 103.5v363q0 32 58 32h34q58 0 58 -32v-330q0 -25 8 -37.5t29 -12.5q27 0 50 32v348
q0 16 14 24t43 8h42q41 0 41 32q0 15 -17 36q-1 1 -5.5 7.5t-4.5 11.5q0 12 11 19l32 22q6 5 16 5q18 0 32.5 -29t14.5 -54q0 -33 -17.5 -55.5z" />
    <glyph glyph-name="uni01C4" unicode="&#x1c4;" horiz-adv-x="1082" 
d="M66 9.5q-9 9.5 -9 30.5v620q0 21 9 30.5t28 9.5h190q130 0 191.5 -87t61.5 -263t-61.5 -263t-191.5 -87h-190q-19 0 -28 9.5zM279 131q53 0 76 49.5t23 169.5t-23 169.5t-76 49.5h-64v-438h64zM611 33q-13 33 -13 56q0 8 1 10l254 470h-205q-15 0 -21.5 12t-6.5 38v31
q0 26 6.5 38t21.5 12h365q12 0 24.5 -34.5t12.5 -57.5q0 -10 -3 -16l-249 -461h225q15 0 22 -12t7 -38v-31q0 -26 -7 -38t-22 -12h-386q-13 0 -26 33zM771 754q-15 5 -26 24l-37 59q-9 14 -9 22q0 10 11 13t34 3t32.5 -2.5t22.5 -14.5l34 -32l34 32q13 12 22.5 14.5
t32.5 2.5t34 -3.5t11 -12.5q0 -8 -9 -22l-37 -59q-11 -19 -26 -24t-50 -5h-24q-35 0 -50 5z" />
    <glyph glyph-name="uni01C5" unicode="&#x1c5;" horiz-adv-x="980" 
d="M66 9.5q-9 9.5 -9 30.5v620q0 21 9 30.5t28 9.5h190q130 0 191.5 -87t61.5 -263t-61.5 -263t-191.5 -87h-190q-19 0 -28 9.5zM279 131q53 0 76 49.5t23 169.5t-23 169.5t-76 49.5h-64v-438h64zM608 27.5q-9 27.5 -9 48.5q0 8 2 14l170 316h-132q-15 0 -22 12t-7 38v17
q0 26 7 38t22 12h285q7 0 17 -28t10 -49q0 -9 -3 -15l-170 -314h149q15 0 22 -12t7 -38v-17q0 -26 -7 -38t-22 -12h-301q-9 0 -18 27.5zM720 578.5q-13 6.5 -22 24.5l-34 72q-9 21 -9 28q0 15 31 15q30 0 43 -6t24 -24l26 -44l27 44q11 18 24.5 24t42.5 6q31 0 31 -15
q0 -7 -9 -28l-34 -72q-9 -18 -21.5 -24.5t-40.5 -6.5h-38q-28 0 -41 6.5z" />
    <glyph glyph-name="uni01C6" unicode="&#x1c6;" horiz-adv-x="886" 
d="M107.5 23.5q-33.5 31.5 -53 93t-19.5 147.5q0 128 44 197.5t123 69.5q49 0 82 -29v220q0 32 60 32h28q60 0 60 -32v-546q0 -46 2.5 -70t6.5 -53q3 -13 3 -22q0 -16 -40.5 -24t-71.5 -8q-20 0 -27.5 16.5t-13.5 46.5q-15 -31 -43 -50.5t-63 -19.5q-44 0 -77.5 31.5z
M284 153v247q-20 14 -41 14q-30 0 -44 -35.5t-14 -117.5q0 -78 12 -113t38 -35q29 0 49 40zM514 27.5q-9 27.5 -9 48.5q0 8 2 14l170 316h-132q-15 0 -22 12t-7 38v17q0 26 7 38t22 12h285q7 0 17 -28t10 -49q0 -9 -3 -15l-170 -314h149q15 0 22 -12t7 -38v-17q0 -26 -7 -38
t-22 -12h-301q-9 0 -18 27.5zM626 578.5q-13 6.5 -22 24.5l-34 72q-9 21 -9 28q0 15 31 15q30 0 43 -6t24 -24l26 -44l27 44q11 18 24.5 24t42.5 6q31 0 31 -15q0 -7 -9 -28l-34 -72q-9 -18 -21.5 -24.5t-40.5 -6.5h-38q-28 0 -41 6.5z" />
    <glyph glyph-name="uni01C7" unicode="&#x1c7;" horiz-adv-x="645" 
d="M343 -168q-35 13 -35 33q0 29 13 60.5t29 32.5q4 0 17.5 -3t29.5 -3q27 0 38 24t11 78v616q0 33 57 33h42q58 0 58 -33v-635q0 -104 -44.5 -160t-136.5 -56q-44 0 -79 13zM66 9.5q-9 9.5 -9 30.5v630q0 32 58 32h40q58 0 58 -32v-539h118q16 0 23 -12t7 -38v-31
q0 -26 -7 -38t-23 -12h-237q-19 0 -28 9.5z" />
    <glyph glyph-name="uni01C8" unicode="&#x1c8;" horiz-adv-x="657" 
d="M66 9.5q-9 9.5 -9 30.5v630q0 32 58 32h40q58 0 58 -32v-539h149q16 0 23 -12t7 -38v-31q0 -26 -7 -38t-23 -12h-268q-19 0 -28 9.5zM400.5 -200.5q-24.5 11.5 -24.5 39.5q0 22 8.5 46t22.5 24q5 0 14.5 -2t15.5 -2q13 0 18.5 10t5.5 33v545q0 32 60 32h28q60 0 60 -32
v-543q0 -79 -37 -120.5t-97 -41.5q-50 0 -74.5 11.5zM462 606v78q0 32 74 32t74 -32v-78q0 -32 -74 -32t-74 32z" />
    <glyph glyph-name="uni01C9" unicode="&#x1c9;" horiz-adv-x="519" 
d="M50 144v578q0 32 60 32h28q60 0 60 -32v-580q0 -17 5.5 -25t18.5 -8q4 0 11 2t11 2q13 0 21 -26.5t8 -47.5q0 -24 -29.5 -35.5t-64.5 -11.5q-129 0 -129 152zM262.5 -200.5q-24.5 11.5 -24.5 39.5q0 22 8.5 46t22.5 24q5 0 14.5 -2t15.5 -2q13 0 18.5 10t5.5 33v545
q0 32 60 32h28q60 0 60 -32v-543q0 -79 -37 -120.5t-97 -41.5q-50 0 -74.5 11.5zM324 606v78q0 32 74 32t74 -32v-78q0 -32 -74 -32t-74 32z" />
    <glyph glyph-name="uni01CA" unicode="&#x1ca;" horiz-adv-x="945" 
d="M52 30v640q0 32 58 32h26q20 0 32 -5.5t20 -22.5l180 -326q14 -26 34 -78l4 2q-8 52 -8 79v319q0 32 58 32h24q58 0 58 -32v-640q0 -32 -58 -32h-19q-20 0 -33 5.5t-21 22.5l-191 340q-9 15 -27 64l-5 -3q8 -46 8 -68v-329q0 -32 -58 -32h-24q-58 0 -58 32zM633 5
q-35 13 -35 33q0 29 13 60.5t29 32.5q4 0 17.5 -3t29.5 -3q27 0 38 24t11 78v443q0 33 57 33h42q58 0 58 -33v-468q0 -210 -181 -210q-44 0 -79 13z" />
    <glyph glyph-name="uni01CB" unicode="&#x1cb;" horiz-adv-x="839" 
d="M52 30v640q0 32 58 32h26q20 0 32 -5.5t20 -22.5l180 -326q14 -26 34 -78l4 2q-8 52 -8 79v319q0 32 58 32h24q58 0 58 -32v-640q0 -32 -58 -32h-19q-20 0 -33 5.5t-21 22.5l-191 340q-9 15 -27 64l-5 -3q8 -46 8 -68v-329q0 -32 -58 -32h-24q-58 0 -58 32zM582.5 -200.5
q-24.5 11.5 -24.5 39.5q0 22 8.5 46t22.5 24q5 0 14.5 -2t15.5 -2q13 0 18.5 10t5.5 33v545q0 32 60 32h28q60 0 60 -32v-543q0 -79 -37 -120.5t-97 -41.5q-50 0 -74.5 11.5zM644 606v78q0 32 74 32t74 -32v-78q0 -32 -74 -32t-74 32z" />
    <glyph glyph-name="uni01CC" unicode="&#x1cc;" horiz-adv-x="731" 
d="M50 30v319q0 71 -5 101t-5 37q0 18 42 26.5t73 8.5q19 0 25 -11t8.5 -28.5t4.5 -27.5q22 33 55.5 54.5t75.5 21.5q55 0 83.5 -35.5t28.5 -103.5v-362q0 -32 -58 -32h-34q-58 0 -58 32v328q0 26 -8 38.5t-29 12.5q-27 0 -50 -32v-347q0 -16 -14 -24t-43 -8h-35
q-57 0 -57 32zM474.5 -200.5q-24.5 11.5 -24.5 39.5q0 22 8.5 46t22.5 24q5 0 14.5 -2t15.5 -2q13 0 18.5 10t5.5 33v545q0 32 60 32h28q60 0 60 -32v-543q0 -79 -37 -120.5t-97 -41.5q-50 0 -74.5 11.5zM536 606v78q0 32 74 32t74 -32v-78q0 -32 -74 -32t-74 32z" />
    <glyph glyph-name="uni01CD" unicode="&#x1cd;" horiz-adv-x="505" 
d="M2 20q0 8 3 18l154 636q7 28 61 28h65q55 0 62 -28l154 -636q2 -14 2 -18q0 -22 -43 -22h-53q-48 0 -53 21l-26 122h-152l-27 -122q-4 -21 -47 -21h-52q-48 0 -48 22zM311 263l-45 212q-7 36 -12 76h-5q-5 -40 -12 -76l-44 -212h118zM191 754q-15 5 -26 24l-37 59
q-9 14 -9 22q0 10 11 13t34 3t32.5 -2.5t22.5 -14.5l34 -32l34 32q13 12 22.5 14.5t32.5 2.5t34 -3.5t11 -12.5q0 -8 -9 -22l-37 -59q-11 -19 -26 -24t-50 -5h-24q-35 0 -50 5z" />
    <glyph glyph-name="uni01CE" unicode="&#x1ce;" horiz-adv-x="481" 
d="M73.5 34q-35.5 42 -35.5 115q0 187 233 186v16q0 32 -14.5 47.5t-46.5 15.5q-22 0 -39 -5.5t-38 -15.5q-14 -8 -21 -8q-10 0 -22 15t-21 34.5t-9 30.5q0 17 23.5 32.5t61 24.5t76.5 9q104 0 151 -46t47 -127v-182q0 -46 2.5 -70t6.5 -53q3 -13 3 -22q0 -16 -40.5 -24
t-71.5 -8q-16 0 -22.5 12t-13.5 39q-13 -22 -41 -40t-67 -18q-66 0 -101.5 42zM249.5 108q13.5 9 21.5 24v117q-100 0 -100 -89q0 -28 13 -44.5t36 -16.5q16 0 29.5 9zM175 578.5q-13 6.5 -22 24.5l-34 72q-9 21 -9 28q0 15 31 15q30 0 43 -6t24 -24l26 -44l27 44
q11 18 24.5 24t42.5 6q31 0 31 -15q0 -7 -9 -28l-34 -72q-9 -18 -21.5 -24.5t-40.5 -6.5h-38q-28 0 -41 6.5z" />
    <glyph glyph-name="uni01CF" unicode="&#x1cf;" horiz-adv-x="262" 
d="M52 30v640q0 33 58 33h42q57 0 57 -33v-640q0 -33 -57 -33h-42q-58 0 -58 33zM69 754q-15 5 -26 24l-37 59q-9 14 -9 22q0 10 11 13t34 3t32.5 -2.5t22.5 -14.5l34 -32l34 32q13 12 22.5 14.5t32.5 2.5t34 -3.5t11 -12.5q0 -8 -9 -22l-37 -59q-11 -19 -26 -24t-50 -5h-24
q-35 0 -50 5z" />
    <glyph glyph-name="uni01D0" unicode="&#x1d0;" horiz-adv-x="254" 
d="M53 30v463q0 32 60 32h28q60 0 60 -32v-463q0 -32 -60 -32h-28q-60 0 -60 32zM68 578.5q-13 6.5 -22 24.5l-34 72q-9 21 -9 28q0 15 31 15q30 0 43 -6t24 -24l26 -44l27 44q11 18 24.5 24t42.5 6q31 0 31 -15q0 -7 -9 -28l-34 -72q-9 -18 -21.5 -24.5t-40.5 -6.5h-38
q-28 0 -41 6.5z" />
    <glyph glyph-name="uni01D1" unicode="&#x1d1;" horiz-adv-x="599" 
d="M38 350q0 358 262 358q128 0 194.5 -87t66.5 -271t-66.5 -271t-194.5 -87q-262 0 -262 358zM359 143q22 20 33 69.5t11 137.5q0 87 -11 136.5t-33 69.5t-58 20t-58.5 -20t-34 -69.5t-11.5 -136.5t11.5 -137t34 -70t58.5 -20t58 20zM238 754q-15 5 -26 24l-37 59
q-9 14 -9 22q0 10 11 13t34 3t32.5 -2.5t22.5 -14.5l34 -32l34 32q13 12 22.5 14.5t32.5 2.5t34 -3.5t11 -12.5q0 -8 -9 -22l-37 -59q-11 -19 -26 -24t-50 -5h-24q-35 0 -50 5z" />
    <glyph glyph-name="uni01D2" unicode="&#x1d2;" horiz-adv-x="477" 
d="M86 61.5q-52 69.5 -52 200.5t51.5 200t152.5 69t153 -69t52 -200t-52 -200.5t-153 -69.5q-100 0 -152 69.5zM280.5 143.5q12.5 34.5 12.5 118.5t-12.5 118t-41.5 34q-30 0 -42.5 -34t-12.5 -118t12.5 -118.5t42.5 -34.5q29 0 41.5 34.5zM179 578.5q-13 6.5 -22 24.5
l-34 72q-9 21 -9 28q0 15 31 15q30 0 43 -6t24 -24l26 -44l27 44q11 18 24.5 24t42.5 6q31 0 31 -15q0 -7 -9 -28l-34 -72q-9 -18 -21.5 -24.5t-40.5 -6.5h-38q-28 0 -41 6.5z" />
    <glyph glyph-name="uni01D3" unicode="&#x1d3;" horiz-adv-x="583" 
d="M115 48q-64 56 -64 157v465q0 32 58 32h40q58 0 58 -32v-455q0 -41 23 -66.5t62 -25.5q38 0 61.5 26t23.5 66v455q0 32 58 32h39q58 0 58 -32v-465q0 -101 -63.5 -157t-176.5 -56t-177 56zM230 754q-15 5 -26 24l-37 59q-9 14 -9 22q0 10 11 13t34 3t32.5 -2.5
t22.5 -14.5l34 -32l34 32q13 12 22.5 14.5t32.5 2.5t34 -3.5t11 -12.5q0 -8 -9 -22l-37 -59q-11 -19 -26 -24t-50 -5h-24q-35 0 -50 5z" />
    <glyph glyph-name="uni01D4" unicode="&#x1d4;" horiz-adv-x="482" 
d="M75.5 26.5q-29.5 35.5 -29.5 103.5v363q0 32 58 32h34q58 0 58 -32v-330q0 -25 8 -37.5t29 -12.5q27 0 50 32v348q0 16 14 24t43 8h35q57 0 57 -32v-319q0 -71 5 -102t5 -38q0 -18 -42 -26t-73 -8q-19 0 -25 11t-8.5 28.5t-4.5 27.5q-22 -33 -53.5 -54.5t-72.5 -21.5
q-58 0 -87.5 35.5zM180 578.5q-13 6.5 -22 24.5l-34 72q-9 21 -9 28q0 15 31 15q30 0 43 -6t24 -24l26 -44l27 44q11 18 24.5 24t42.5 6q31 0 31 -15q0 -7 -9 -28l-34 -72q-9 -18 -21.5 -24.5t-40.5 -6.5h-38q-28 0 -41 6.5z" />
    <glyph glyph-name="uni01D5" unicode="&#x1d5;" horiz-adv-x="583" 
d="M115 48q-64 56 -64 157v465q0 32 58 32h40q58 0 58 -32v-455q0 -41 23 -66.5t62 -25.5q38 0 61.5 26t23.5 66v455q0 32 58 32h39q58 0 58 -32v-465q0 -101 -63.5 -157t-176.5 -56t-177 56zM158.5 753.5q-14.5 7.5 -14.5 24.5v68q0 17 14.5 24.5t45.5 7.5t45.5 -7.5
t14.5 -24.5v-68q0 -17 -14.5 -24.5t-45.5 -7.5t-45.5 7.5zM334.5 753.5q-14.5 7.5 -14.5 24.5v68q0 17 14.5 24.5t45.5 7.5t45.5 -7.5t14.5 -24.5v-68q0 -17 -14.5 -24.5t-45.5 -7.5t-45.5 7.5zM149 927.5q-7 9.5 -7 30.5v15q0 21 7 30.5t22 9.5h241q16 0 22.5 -9.5
t6.5 -30.5v-15q0 -21 -6.5 -30.5t-22.5 -9.5h-241q-15 0 -22 9.5z" />
    <glyph glyph-name="uni01D6" unicode="&#x1d6;" horiz-adv-x="482" 
d="M75.5 26.5q-29.5 35.5 -29.5 103.5v363q0 32 58 32h34q58 0 58 -32v-330q0 -25 8 -37.5t29 -12.5q27 0 50 32v348q0 16 14 24t43 8h35q57 0 57 -32v-319q0 -71 5 -102t5 -38q0 -18 -42 -26t-73 -8q-19 0 -25 11t-8.5 28.5t-4.5 27.5q-22 -33 -53.5 -54.5t-72.5 -21.5
q-58 0 -87.5 35.5zM104.5 588.5q-14.5 7.5 -14.5 24.5v64q0 17 14.5 24.5t47.5 7.5t47.5 -7.5t14.5 -24.5v-64q0 -17 -14.5 -24.5t-47.5 -7.5t-47.5 7.5zM280.5 588.5q-14.5 7.5 -14.5 24.5v64q0 17 14.5 24.5t47.5 7.5t47.5 -7.5t14.5 -24.5v-64q0 -17 -14.5 -24.5
t-47.5 -7.5t-47.5 7.5zM102 768.5q-7 9.5 -7 30.5v15q0 21 7 30.5t22 9.5h231q16 0 22.5 -9.5t6.5 -30.5v-15q0 -21 -6.5 -30.5t-22.5 -9.5h-231q-15 0 -22 9.5z" />
    <glyph glyph-name="uni01D7" unicode="&#x1d7;" horiz-adv-x="583" 
d="M115 48q-64 56 -64 157v465q0 32 58 32h40q58 0 58 -32v-455q0 -41 23 -66.5t62 -25.5q38 0 61.5 26t23.5 66v455q0 32 58 32h39q58 0 58 -32v-465q0 -101 -63.5 -157t-176.5 -56t-177 56zM158.5 753.5q-14.5 7.5 -14.5 24.5v68q0 17 14.5 24.5t45.5 7.5t45.5 -7.5
t14.5 -24.5v-68q0 -17 -14.5 -24.5t-45.5 -7.5t-45.5 7.5zM334.5 753.5q-14.5 7.5 -14.5 24.5v68q0 17 14.5 24.5t45.5 7.5t45.5 -7.5t14.5 -24.5v-68q0 -17 -14.5 -24.5t-45.5 -7.5t-45.5 7.5zM226.5 904q-6.5 3 -6.5 9q0 12 11 27l41 57q14 19 30 24.5t47 5.5
q36 0 51 -3.5t15 -14.5q0 -14 -27 -36l-64 -52q-15 -13 -28 -16.5t-41 -3.5q-22 0 -28.5 3z" />
    <glyph glyph-name="uni01D8" unicode="&#x1d8;" horiz-adv-x="482" 
d="M75.5 26.5q-29.5 35.5 -29.5 103.5v363q0 32 58 32h34q58 0 58 -32v-330q0 -25 8 -37.5t29 -12.5q27 0 50 32v348q0 16 14 24t43 8h35q57 0 57 -32v-319q0 -71 5 -102t5 -38q0 -18 -42 -26t-73 -8q-19 0 -25 11t-8.5 28.5t-4.5 27.5q-22 -33 -53.5 -54.5t-72.5 -21.5
q-58 0 -87.5 35.5zM104.5 588.5q-14.5 7.5 -14.5 24.5v64q0 17 14.5 24.5t47.5 7.5t47.5 -7.5t14.5 -24.5v-64q0 -17 -14.5 -24.5t-47.5 -7.5t-47.5 7.5zM280.5 588.5q-14.5 7.5 -14.5 24.5v64q0 17 14.5 24.5t47.5 7.5t47.5 -7.5t14.5 -24.5v-64q0 -17 -14.5 -24.5
t-47.5 -7.5t-47.5 7.5zM180.5 738q-8.5 4 -8.5 11t9 28l34 72q9 18 26 24.5t56 6.5q29 0 40 -3.5t11 -13.5q0 -8 -4.5 -16t-14.5 -20l-47 -63q-14 -17 -28 -23.5t-41 -6.5q-24 0 -32.5 4z" />
    <glyph glyph-name="uni01D9" unicode="&#x1d9;" horiz-adv-x="583" 
d="M115 48q-64 56 -64 157v465q0 32 58 32h40q58 0 58 -32v-455q0 -41 23 -66.5t62 -25.5q38 0 61.5 26t23.5 66v455q0 32 58 32h39q58 0 58 -32v-465q0 -101 -63.5 -157t-176.5 -56t-177 56zM158.5 753.5q-14.5 7.5 -14.5 24.5v68q0 17 14.5 24.5t45.5 7.5t45.5 -7.5
t14.5 -24.5v-68q0 -17 -14.5 -24.5t-45.5 -7.5t-45.5 7.5zM334.5 753.5q-14.5 7.5 -14.5 24.5v68q0 17 14.5 24.5t45.5 7.5t45.5 -7.5t14.5 -24.5v-68q0 -17 -14.5 -24.5t-45.5 -7.5t-45.5 7.5zM230 906q-15 5 -26 24l-37 59q-9 14 -9 22q0 10 11 13t34 3t32.5 -2.5
t22.5 -14.5l34 -32l34 32q13 12 22.5 14.5t32.5 2.5t34 -3.5t11 -12.5q0 -8 -9 -22l-37 -59q-11 -19 -26 -24t-50 -5h-24q-35 0 -50 5z" />
    <glyph glyph-name="uni01DA" unicode="&#x1da;" horiz-adv-x="482" 
d="M75.5 26.5q-29.5 35.5 -29.5 103.5v363q0 32 58 32h34q58 0 58 -32v-330q0 -25 8 -37.5t29 -12.5q27 0 50 32v348q0 16 14 24t43 8h35q57 0 57 -32v-319q0 -71 5 -102t5 -38q0 -18 -42 -26t-73 -8q-19 0 -25 11t-8.5 28.5t-4.5 27.5q-22 -33 -53.5 -54.5t-72.5 -21.5
q-58 0 -87.5 35.5zM104.5 588.5q-14.5 7.5 -14.5 24.5v64q0 17 14.5 24.5t47.5 7.5t47.5 -7.5t14.5 -24.5v-64q0 -17 -14.5 -24.5t-47.5 -7.5t-47.5 7.5zM280.5 588.5q-14.5 7.5 -14.5 24.5v64q0 17 14.5 24.5t47.5 7.5t47.5 -7.5t14.5 -24.5v-64q0 -17 -14.5 -24.5
t-47.5 -7.5t-47.5 7.5zM180 740.5q-13 6.5 -22 24.5l-34 72q-9 21 -9 28q0 15 31 15q30 0 43 -6t24 -24l26 -44l27 44q11 18 24.5 24t42.5 6q31 0 31 -15q0 -7 -9 -28l-34 -72q-9 -18 -21.5 -24.5t-40.5 -6.5h-38q-28 0 -41 6.5z" />
    <glyph glyph-name="uni01DB" unicode="&#x1db;" horiz-adv-x="583" 
d="M115 48q-64 56 -64 157v465q0 32 58 32h40q58 0 58 -32v-455q0 -41 23 -66.5t62 -25.5q38 0 61.5 26t23.5 66v455q0 32 58 32h39q58 0 58 -32v-465q0 -101 -63.5 -157t-176.5 -56t-177 56zM158.5 753.5q-14.5 7.5 -14.5 24.5v68q0 17 14.5 24.5t45.5 7.5t45.5 -7.5
t14.5 -24.5v-68q0 -17 -14.5 -24.5t-45.5 -7.5t-45.5 7.5zM334.5 753.5q-14.5 7.5 -14.5 24.5v68q0 17 14.5 24.5t45.5 7.5t45.5 -7.5t14.5 -24.5v-68q0 -17 -14.5 -24.5t-45.5 -7.5t-45.5 7.5zM287 904.5q-13 3.5 -28 16.5l-64 52q-15 14 -21 22t-6 14q0 11 15 14.5t51 3.5
q32 0 48 -5.5t29 -24.5l41 -57q11 -19 11 -27q0 -6 -6.5 -9t-28.5 -3q-28 0 -41 3.5z" />
    <glyph glyph-name="uni01DC" unicode="&#x1dc;" horiz-adv-x="482" 
d="M75.5 26.5q-29.5 35.5 -29.5 103.5v363q0 32 58 32h34q58 0 58 -32v-330q0 -25 8 -37.5t29 -12.5q27 0 50 32v348q0 16 14 24t43 8h35q57 0 57 -32v-319q0 -71 5 -102t5 -38q0 -18 -42 -26t-73 -8q-19 0 -25 11t-8.5 28.5t-4.5 27.5q-22 -33 -53.5 -54.5t-72.5 -21.5
q-58 0 -87.5 35.5zM104.5 588.5q-14.5 7.5 -14.5 24.5v64q0 17 14.5 24.5t47.5 7.5t47.5 -7.5t14.5 -24.5v-64q0 -17 -14.5 -24.5t-47.5 -7.5t-47.5 7.5zM280.5 588.5q-14.5 7.5 -14.5 24.5v64q0 17 14.5 24.5t47.5 7.5t47.5 -7.5t14.5 -24.5v-64q0 -17 -14.5 -24.5
t-47.5 -7.5t-47.5 7.5zM213 740.5q-14 6.5 -28 23.5l-47 63q-10 12 -14.5 20t-4.5 16q0 10 11 13.5t40 3.5q39 0 56 -6.5t26 -24.5l34 -72q9 -21 9 -28t-8.5 -11t-32.5 -4q-27 0 -41 6.5z" />
    <glyph glyph-name="Gcaron" unicode="&#x1e6;" horiz-adv-x="552" 
d="M493 400.5q9 -9.5 9 -30.5v-298q0 -23 -30.5 -41.5t-75.5 -28.5t-86 -10q-140 0 -206.5 87.5t-66.5 272.5q0 180 67 268t208 88q45 0 87 -10.5t68 -27t26 -33.5q0 -13 -10.5 -35t-25.5 -38.5t-27 -16.5q-4 0 -21 7.5t-38 13t-50 5.5q-64 0 -94 -54t-30 -168
q0 -122 28.5 -172.5t84.5 -50.5q24 0 41 4v146h-51q-15 0 -22 12t-7 38v32q0 26 7 38t22 12h165q19 0 28 -9.5zM236 754q-15 5 -26 24l-37 59q-9 14 -9 22q0 10 11 13t34 3t32.5 -2.5t22.5 -14.5l34 -32l34 32q13 12 22.5 14.5t32.5 2.5t34 -3.5t11 -12.5q0 -8 -9 -22
l-37 -59q-11 -19 -26 -24t-50 -5h-24q-35 0 -50 5z" />
    <glyph glyph-name="gcaron" unicode="&#x1e7;" horiz-adv-x="471" 
d="M84 -178.5q-49 33.5 -49 99.5q0 81 76 118v3q-20 12 -30.5 31.5t-10.5 44.5q0 56 48 93q-72 42 -72 141q0 90 49.5 134.5t132.5 44.5q31 0 65 -8h130q14 0 20.5 -11t6.5 -34v-16q0 -22 -5.5 -32.5t-17.5 -10.5q-18 0 -34 4l-2 -4q8 -12 12.5 -30.5t4.5 -39.5
q0 -77 -44.5 -118.5t-118.5 -43.5q-50 -1 -50 -39q0 -23 19 -32t63 -18q26 -5 35 -7q57 -13 90.5 -43.5t33.5 -92.5q0 -78 -56 -122.5t-154 -44.5q-93 0 -142 33.5zM267.5 300q15.5 16 15.5 58t-15.5 58.5t-41.5 16.5q-56 0 -56 -75q0 -74 56 -74q26 0 41.5 16zM294.5 -92.5
q18.5 13.5 18.5 38.5q0 19 -13 29.5t-33.5 15.5t-67.5 12q-17 -10 -27 -25.5t-10 -33.5q0 -25 20.5 -37.5t56.5 -12.5q37 0 55.5 13.5zM169 578.5q-13 6.5 -22 24.5l-34 72q-9 21 -9 28q0 15 31 15q30 0 43 -6t24 -24l26 -44l27 44q11 18 24.5 24t42.5 6q31 0 31 -15
q0 -7 -9 -28l-34 -72q-9 -18 -21.5 -24.5t-40.5 -6.5h-38q-28 0 -41 6.5z" />
    <glyph glyph-name="uni01EA" unicode="&#x1ea;" horiz-adv-x="599" 
d="M300.5 -46.5q-13.5 -20.5 -13.5 -37.5q0 -11 7.5 -18.5t23.5 -7.5q15 0 28 5.5t19 5.5q9 0 18 -16.5t9 -29.5q0 -22 -25.5 -36.5t-61.5 -14.5q-45 0 -69 25.5t-24 64.5q0 23 14.5 50t40.5 49q-229 22 -229 357q0 358 262 358q128 0 194.5 -87t66.5 -271
q0 -169 -56.5 -256.5t-165.5 -99.5q-25 -20 -38.5 -40.5zM208.5 213q11.5 -50 34 -70t58.5 -20t58 20t33 69.5t11 137.5q0 87 -11 136.5t-33 69.5t-58 20t-58.5 -20t-34 -69.5t-11.5 -136.5t11.5 -137z" />
    <glyph glyph-name="uni01EB" unicode="&#x1eb;" horiz-adv-x="477" 
d="M225 -84q0 -11 7.5 -18.5t23.5 -7.5q15 0 28 5.5t19 5.5q9 0 18 -16.5t9 -29.5q0 -22 -25.5 -36.5t-61.5 -14.5q-45 0 -69 25.5t-24 64.5q0 23 14.5 50.5t41.5 49.5q-84 11 -128 79.5t-44 188.5q0 131 51.5 200t152.5 69t153 -69t52 -200q0 -117 -42 -185.5t-123 -81.5
q-53 -42 -53 -79zM196.5 380q-12.5 -34 -12.5 -118t12.5 -118.5t42.5 -34.5q29 0 41.5 34.5t12.5 118.5t-12.5 118t-41.5 34q-30 0 -42.5 -34z" />
    <glyph glyph-name="uni01F1" unicode="&#x1f1;" horiz-adv-x="1082" 
d="M66 9.5q-9 9.5 -9 30.5v620q0 21 9 30.5t28 9.5h190q130 0 191.5 -87t61.5 -263t-61.5 -263t-191.5 -87h-190q-19 0 -28 9.5zM279 131q53 0 76 49.5t23 169.5t-23 169.5t-76 49.5h-64v-438h64zM611 33q-13 33 -13 56q0 8 1 10l254 470h-205q-15 0 -21.5 12t-6.5 38v31
q0 26 6.5 38t21.5 12h365q12 0 24.5 -34.5t12.5 -57.5q0 -10 -3 -16l-249 -461h225q15 0 22 -12t7 -38v-31q0 -26 -7 -38t-22 -12h-386q-13 0 -26 33z" />
    <glyph glyph-name="uni01F2" unicode="&#x1f2;" horiz-adv-x="980" 
d="M66 9.5q-9 9.5 -9 30.5v620q0 21 9 30.5t28 9.5h190q130 0 191.5 -87t61.5 -263t-61.5 -263t-191.5 -87h-190q-19 0 -28 9.5zM279 131q53 0 76 49.5t23 169.5t-23 169.5t-76 49.5h-64v-438h64zM608 27.5q-9 27.5 -9 48.5q0 8 2 14l170 316h-132q-15 0 -22 12t-7 38v17
q0 26 7 38t22 12h285q7 0 17 -28t10 -49q0 -9 -3 -15l-170 -314h149q15 0 22 -12t7 -38v-17q0 -26 -7 -38t-22 -12h-301q-9 0 -18 27.5z" />
    <glyph glyph-name="uni01F3" unicode="&#x1f3;" horiz-adv-x="886" 
d="M107.5 23.5q-33.5 31.5 -53 93t-19.5 147.5q0 128 44 197.5t123 69.5q49 0 82 -29v220q0 32 60 32h28q60 0 60 -32v-546q0 -46 2.5 -70t6.5 -53q3 -13 3 -22q0 -16 -40.5 -24t-71.5 -8q-20 0 -27.5 16.5t-13.5 46.5q-15 -31 -43 -50.5t-63 -19.5q-44 0 -77.5 31.5z
M284 153v247q-20 14 -41 14q-30 0 -44 -35.5t-14 -117.5q0 -78 12 -113t38 -35q29 0 49 40zM514 27.5q-9 27.5 -9 48.5q0 8 2 14l170 316h-132q-15 0 -22 12t-7 38v17q0 26 7 38t22 12h285q7 0 17 -28t10 -49q0 -9 -3 -15l-170 -314h149q15 0 22 -12t7 -38v-17q0 -26 -7 -38
t-22 -12h-301q-9 0 -18 27.5z" />
    <glyph glyph-name="Aringacute" unicode="&#x1fa;" horiz-adv-x="505" 
d="M187.5 822q-6.5 3 -6.5 9q0 12 11 27l41 57q14 19 30 24.5t47 5.5q36 0 51 -3.5t15 -14.5q0 -14 -27 -36l-64 -52q-15 -13 -28 -16.5t-41 -3.5q-22 0 -28.5 3zM503 20q0 -22 -43 -22h-53q-48 0 -53 21l-26 122h-152l-27 -122q-4 -21 -47 -21h-52q-48 0 -48 22q0 8 3 18
l152 626q-5 17 -5 31q0 43 28.5 71.5t70.5 28.5q43 0 71.5 -28.5t28.5 -71.5q0 -13 -3 -25l153 -632q2 -14 2 -18zM227 719q-10 -10 -10 -25q0 -14 10 -24t24 -10q15 0 25 10t10 24q0 15 -10 25t-25 10q-14 0 -24 -10zM311 263l-45 212q-7 36 -12 76h-5q-5 -40 -12 -76
l-44 -212h118z" />
    <glyph glyph-name="aringacute" unicode="&#x1fb;" horiz-adv-x="481" 
d="M73.5 34q-35.5 42 -35.5 115q0 187 233 186v16q0 32 -14.5 47.5t-46.5 15.5q-22 0 -39 -5.5t-38 -15.5q-14 -8 -21 -8q-10 0 -22 15t-21 34.5t-9 30.5q0 17 23.5 32.5t61 24.5t76.5 9q104 0 151 -46t47 -127v-182q0 -46 2.5 -70t6.5 -53q3 -13 3 -22q0 -16 -40.5 -24
t-71.5 -8q-16 0 -22.5 12t-13.5 39q-13 -22 -41 -40t-67 -18q-66 0 -101.5 42zM249.5 108q13.5 9 21.5 24v117q-100 0 -100 -89q0 -28 13 -44.5t36 -16.5q16 0 29.5 9zM165.5 567.5q-25.5 26.5 -25.5 72.5t25.5 73t68.5 27t69 -27t26 -73t-25.5 -72.5t-69.5 -26.5
q-43 0 -68.5 26.5zM264 640q0 35 -30 35q-29 0 -29 -35q0 -34 29 -34q30 0 30 34zM175.5 768q-8.5 4 -8.5 11t9 28l34 72q9 18 26 24.5t56 6.5q29 0 40 -3.5t11 -13.5q0 -8 -4.5 -16t-14.5 -20l-47 -63q-14 -17 -28 -23.5t-41 -6.5q-24 0 -32.5 4z" />
    <glyph glyph-name="AEacute" unicode="&#x1fc;" horiz-adv-x="746" 
d="M3 20q0 9 3 18l246 635q10 27 35 27h392q15 0 22 -12t7 -38v-31q0 -26 -7 -38t-22 -12h-228l15 -145h193q15 0 22 -12t7 -38v-31q0 -26 -7 -38t-22 -12h-176l17 -162h180q15 0 22 -12t7 -38v-31q0 -26 -7 -38t-22 -12h-287q-13 0 -19 7t-8 23l-12 111h-160l-47 -122
q-7 -21 -39 -21h-46q-59 0 -59 22zM342 273l-16 181v72h-4l-23 -71l-64 -182h107zM385.5 752q-6.5 3 -6.5 9q0 12 11 27l41 57q14 19 30 24.5t47 5.5q36 0 51 -3.5t15 -14.5q0 -14 -27 -36l-64 -52q-15 -13 -28 -16.5t-41 -3.5q-22 0 -28.5 3z" />
    <glyph glyph-name="aeacute" unicode="&#x1fd;" horiz-adv-x="688" 
d="M77 34q-39 42 -39 115q0 187 234 186q3 23 9 43q-14 36 -69 36q-21 0 -36.5 -5t-39.5 -15q-18 -9 -24 -9q-10 0 -22.5 15t-21 34.5t-8.5 30.5q0 17 23.5 32.5t61.5 24.5t80 9q41 0 75.5 -8.5t56.5 -22.5q45 31 117 31q100 0 144 -67t44 -198q0 -12 -20.5 -35.5
t-30.5 -23.5h-189q0 -52 22 -75t57 -23q21 0 38.5 6t37.5 15q16 8 21 8q14 0 32.5 -29t18.5 -48q0 -21 -26 -36.5t-63.5 -24t-70.5 -8.5q-101 0 -160 59q-18 -25 -56.5 -42t-84.5 -17q-72 0 -111 42zM520 306q0 59 -10.5 83.5t-34.5 24.5t-38.5 -23t-17.5 -85h101z
M254.5 117.5q16.5 8.5 26.5 24.5q-11 40 -13 96q-89 0 -89 -78q0 -23 10.5 -37t30.5 -14q18 0 34.5 8.5zM302.5 576q-8.5 4 -8.5 11t9 28l34 72q9 18 26 24.5t56 6.5q29 0 40 -3.5t11 -13.5q0 -8 -4.5 -16t-14.5 -20l-47 -63q-14 -17 -28 -23.5t-41 -6.5q-24 0 -32.5 4z" />
    <glyph glyph-name="Oslashacute" unicode="&#x1fe;" horiz-adv-x="599" 
d="M561 350q0 -184 -66.5 -271t-194.5 -87q-100 0 -162 52l-34 -51q-10 -16 -24 -16t-32.5 14t-18.5 27q0 8 7 18l49 75q-47 86 -47 239q0 358 262 358q89 0 149 -42l32 48q6 8 11 12t12 4q14 0 32.5 -14t18.5 -27q0 -10 -7 -19l-43 -65q56 -88 56 -255zM199 284l170 260
q-22 32 -68 32q-36 0 -58.5 -20t-34 -69.5t-11.5 -136.5q0 -26 2 -66zM359 143q22 20 33 69.5t11 137.5q0 58 -4 93l-177 -270q12 -27 31.5 -38.5t47.5 -11.5q36 0 58 20zM234.5 752q-6.5 3 -6.5 9q0 12 11 27l41 57q14 19 30 24.5t47 5.5q36 0 51 -3.5t15 -14.5
q0 -14 -27 -36l-64 -52q-15 -13 -28 -16.5t-41 -3.5q-22 0 -28.5 3z" />
    <glyph glyph-name="oslashacute" unicode="&#x1ff;" horiz-adv-x="477" 
d="M404 443q39 -66 39 -181q0 -131 -52 -200.5t-153 -69.5q-72 0 -121 38l-24 -35q-9 -13 -20 -13q-13 0 -32.5 15t-19.5 28q0 6 4 12.5t5 8.5l35 51q-31 62 -31 165q0 131 51.5 200t152.5 69q64 0 108 -27l23 33q9 13 21 13q14 0 33.5 -14.5t19.5 -26.5q0 -8 -8 -21z
M197.5 381.5q-12.5 -32.5 -13.5 -112.5l88 128q-11 17 -33 17q-29 0 -41.5 -32.5zM293 283l-97 -139q13 -35 43 -35q29 0 41.5 34.5t12.5 118.5v21zM178.5 576q-8.5 4 -8.5 11t9 28l34 72q9 18 26 24.5t56 6.5q29 0 40 -3.5t11 -13.5q0 -8 -4.5 -16t-14.5 -20l-47 -63
q-14 -17 -28 -23.5t-41 -6.5q-24 0 -32.5 4z" />
    <glyph glyph-name="uni0200" unicode="&#x200;" horiz-adv-x="505" 
d="M2 20q0 8 3 18l154 636q7 28 61 28h65q55 0 62 -28l154 -636q2 -14 2 -18q0 -22 -43 -22h-53q-48 0 -53 21l-26 122h-152l-27 -122q-4 -21 -47 -21h-52q-48 0 -48 22zM311 263l-45 212q-7 36 -12 76h-5q-5 -40 -12 -76l-44 -212h118zM155 752.5q-13 3.5 -28 16.5l-64 52
q-15 14 -21 22t-6 14q0 11 15 14.5t51 3.5q32 0 48 -5.5t29 -24.5l41 -57q11 -19 11 -27q0 -6 -6.5 -9t-28.5 -3q-28 0 -41 3.5zM324 752.5q-13 3.5 -28 16.5l-64 52q-15 14 -21 22t-6 14q0 11 15 14.5t51 3.5q32 0 48 -5.5t29 -24.5l41 -57q11 -19 11 -27q0 -6 -6.5 -9
t-28.5 -3q-28 0 -41 3.5z" />
    <glyph glyph-name="uni0201" unicode="&#x201;" horiz-adv-x="481" 
d="M73.5 34q-35.5 42 -35.5 115q0 187 233 186v16q0 32 -14.5 47.5t-46.5 15.5q-22 0 -39 -5.5t-38 -15.5q-14 -8 -21 -8q-10 0 -22 15t-21 34.5t-9 30.5q0 17 23.5 32.5t61 24.5t76.5 9q104 0 151 -46t47 -127v-182q0 -46 2.5 -70t6.5 -53q3 -13 3 -22q0 -16 -40.5 -24
t-71.5 -8q-16 0 -22.5 12t-13.5 39q-13 -22 -41 -40t-67 -18q-66 0 -101.5 42zM249.5 108q13.5 9 21.5 24v117q-100 0 -100 -89q0 -28 13 -44.5t36 -16.5q16 0 29.5 9zM132 578.5q-14 6.5 -28 23.5l-47 63q-10 12 -14.5 20t-4.5 16q0 10 11 13.5t40 3.5q39 0 56 -6.5
t26 -24.5l34 -72q9 -21 9 -28t-8.5 -11t-32.5 -4q-27 0 -41 6.5zM292 578.5q-14 6.5 -28 23.5l-47 63q-10 12 -14.5 20t-4.5 16q0 10 11 13.5t40 3.5q39 0 56 -6.5t26 -24.5l34 -72q9 -21 9 -28t-8.5 -11t-32.5 -4q-27 0 -41 6.5z" />
    <glyph glyph-name="uni0202" unicode="&#x202;" horiz-adv-x="505" 
d="M2 20q0 8 3 18l154 636q7 28 61 28h65q55 0 62 -28l154 -636q2 -14 2 -18q0 -22 -43 -22h-53q-48 0 -53 21l-26 122h-152l-27 -122q-4 -21 -47 -21h-52q-48 0 -48 22zM311 263l-45 212q-7 36 -12 76h-5q-5 -40 -12 -76l-44 -212h118zM327.5 867.5q30.5 -17.5 45.5 -42.5
t15 -46q0 -14 -10.5 -24t-26.5 -10q-10 0 -15.5 3.5t-12.5 12.5q-25 34 -70 34q-42 0 -69 -32q-9 -10 -15.5 -14t-14.5 -4q-16 0 -26.5 10t-10.5 24q0 22 15 46.5t45.5 42t74.5 17.5q45 0 75.5 -17.5z" />
    <glyph glyph-name="uni0203" unicode="&#x203;" horiz-adv-x="481" 
d="M73.5 34q-35.5 42 -35.5 115q0 187 233 186v16q0 32 -14.5 47.5t-46.5 15.5q-22 0 -39 -5.5t-38 -15.5q-14 -8 -21 -8q-10 0 -22 15t-21 34.5t-9 30.5q0 17 23.5 32.5t61 24.5t76.5 9q104 0 151 -46t47 -127v-182q0 -46 2.5 -70t6.5 -53q3 -13 3 -22q0 -16 -40.5 -24
t-71.5 -8q-16 0 -22.5 12t-13.5 39q-13 -22 -41 -40t-67 -18q-66 0 -101.5 42zM249.5 108q13.5 9 21.5 24v117q-100 0 -100 -89q0 -28 13 -44.5t36 -16.5q16 0 29.5 9zM304.5 699q28.5 -16 42 -40t13.5 -50q0 -18 -10.5 -26t-26.5 -8q-21 0 -28 16q-10 21 -22 28.5t-38 7.5
q-25 0 -37 -7t-22 -27q-5 -9 -11.5 -13.5t-18.5 -4.5q-16 0 -26.5 8t-10.5 26q0 42 32 74t93 32q42 0 70.5 -16z" />
    <glyph glyph-name="uni0204" unicode="&#x204;" horiz-adv-x="457" 
d="M67 9.5q-9 9.5 -9 30.5v620q0 21 9 30.5t28 9.5h295q15 0 22 -12t7 -38v-31q0 -26 -7 -38t-22 -12h-176v-145h156q15 0 22 -12t7 -38v-31q0 -26 -7 -38t-22 -12h-156v-162h177q15 0 21.5 -12t6.5 -38v-31q0 -26 -6.5 -38t-21.5 -12h-296q-19 0 -28 9.5zM137 752.5
q-13 3.5 -28 16.5l-64 52q-15 14 -21 22t-6 14q0 11 15 14.5t51 3.5q32 0 48 -5.5t29 -24.5l41 -57q11 -19 11 -27q0 -6 -6.5 -9t-28.5 -3q-28 0 -41 3.5zM306 752.5q-13 3.5 -28 16.5l-64 52q-15 14 -21 22t-6 14q0 11 15 14.5t51 3.5q32 0 48 -5.5t29 -24.5l41 -57
q11 -19 11 -27q0 -6 -6.5 -9t-28.5 -3q-28 0 -41 3.5z" />
    <glyph glyph-name="uni0205" unicode="&#x205;" horiz-adv-x="454" 
d="M89 59.5q-55 67.5 -55 198.5q0 148 54.5 210.5t153.5 62.5q98 0 142 -69t44 -200q0 -12 -20.5 -35.5t-30.5 -23.5h-190q2 -51 23 -72.5t57 -21.5q22 0 40 6t35 14.5t21 8.5q10 0 22.5 -14.5t21 -33t8.5 -28.5q0 -23 -27 -38.5t-63.5 -23.5t-64.5 -8q-116 0 -171 67.5z
M293 292q0 71 -12 101.5t-40 30.5q-27 0 -41.5 -29t-18.5 -103h112zM134 578.5q-14 6.5 -28 23.5l-47 63q-10 12 -14.5 20t-4.5 16q0 10 11 13.5t40 3.5q39 0 56 -6.5t26 -24.5l34 -72q9 -21 9 -28t-8.5 -11t-32.5 -4q-27 0 -41 6.5zM294 578.5q-14 6.5 -28 23.5l-47 63
q-10 12 -14.5 20t-4.5 16q0 10 11 13.5t40 3.5q39 0 56 -6.5t26 -24.5l34 -72q9 -21 9 -28t-8.5 -11t-32.5 -4q-27 0 -41 6.5z" />
    <glyph glyph-name="uni0206" unicode="&#x206;" horiz-adv-x="457" 
d="M67 9.5q-9 9.5 -9 30.5v620q0 21 9 30.5t28 9.5h295q15 0 22 -12t7 -38v-31q0 -26 -7 -38t-22 -12h-176v-145h156q15 0 22 -12t7 -38v-31q0 -26 -7 -38t-22 -12h-156v-162h177q15 0 21.5 -12t6.5 -38v-31q0 -26 -6.5 -38t-21.5 -12h-296q-19 0 -28 9.5zM309.5 867.5
q30.5 -17.5 45.5 -42.5t15 -46q0 -14 -10.5 -24t-26.5 -10q-10 0 -15.5 3.5t-12.5 12.5q-25 34 -70 34q-42 0 -69 -32q-9 -10 -15.5 -14t-14.5 -4q-16 0 -26.5 10t-10.5 24q0 22 15 46.5t45.5 42t74.5 17.5q45 0 75.5 -17.5z" />
    <glyph glyph-name="uni0207" unicode="&#x207;" horiz-adv-x="454" 
d="M89 59.5q-55 67.5 -55 198.5q0 148 54.5 210.5t153.5 62.5q98 0 142 -69t44 -200q0 -12 -20.5 -35.5t-30.5 -23.5h-190q2 -51 23 -72.5t57 -21.5q22 0 40 6t35 14.5t21 8.5q10 0 22.5 -14.5t21 -33t8.5 -28.5q0 -23 -27 -38.5t-63.5 -23.5t-64.5 -8q-116 0 -171 67.5z
M293 292q0 71 -12 101.5t-40 30.5q-27 0 -41.5 -29t-18.5 -103h112zM306.5 699q28.5 -16 42 -40t13.5 -50q0 -18 -10.5 -26t-26.5 -8q-21 0 -28 16q-10 21 -22 28.5t-38 7.5q-25 0 -37 -7t-22 -27q-5 -9 -11.5 -13.5t-18.5 -4.5q-16 0 -26.5 8t-10.5 26q0 42 32 74t93 32
q42 0 70.5 -16z" />
    <glyph glyph-name="uni0208" unicode="&#x208;" horiz-adv-x="262" 
d="M52 30v640q0 33 58 33h42q57 0 57 -33v-640q0 -33 -57 -33h-42q-58 0 -58 33zM33 752.5q-13 3.5 -28 16.5l-64 52q-15 14 -21 22t-6 14q0 11 15 14.5t51 3.5q32 0 48 -5.5t29 -24.5l41 -57q11 -19 11 -27q0 -6 -6.5 -9t-28.5 -3q-28 0 -41 3.5zM202 752.5
q-13 3.5 -28 16.5l-64 52q-15 14 -21 22t-6 14q0 11 15 14.5t51 3.5q32 0 48 -5.5t29 -24.5l41 -57q11 -19 11 -27q0 -6 -6.5 -9t-28.5 -3q-28 0 -41 3.5z" />
    <glyph glyph-name="uni0209" unicode="&#x209;" horiz-adv-x="254" 
d="M53 30v463q0 32 60 32h28q60 0 60 -32v-463q0 -32 -60 -32h-28q-60 0 -60 32zM25 578.5q-14 6.5 -28 23.5l-47 63q-10 12 -14.5 20t-4.5 16q0 10 11 13.5t40 3.5q39 0 56 -6.5t26 -24.5l34 -72q9 -21 9 -28t-8.5 -11t-32.5 -4q-27 0 -41 6.5zM185 578.5q-14 6.5 -28 23.5
l-47 63q-10 12 -14.5 20t-4.5 16q0 10 11 13.5t40 3.5q39 0 56 -6.5t26 -24.5l34 -72q9 -21 9 -28t-8.5 -11t-32.5 -4q-27 0 -41 6.5z" />
    <glyph glyph-name="uni020A" unicode="&#x20a;" horiz-adv-x="262" 
d="M52 30v640q0 33 58 33h42q57 0 57 -33v-640q0 -33 -57 -33h-42q-58 0 -58 33zM205.5 867.5q30.5 -17.5 45.5 -42.5t15 -46q0 -14 -10.5 -24t-26.5 -10q-10 0 -15.5 3.5t-12.5 12.5q-25 34 -70 34q-42 0 -69 -32q-9 -10 -15.5 -14t-14.5 -4q-16 0 -26.5 10t-10.5 24
q0 22 15 46.5t45.5 42t74.5 17.5q45 0 75.5 -17.5z" />
    <glyph glyph-name="uni020B" unicode="&#x20b;" horiz-adv-x="254" 
d="M53 30v463q0 32 60 32h28q60 0 60 -32v-463q0 -32 -60 -32h-28q-60 0 -60 32zM197.5 699q28.5 -16 42 -40t13.5 -50q0 -18 -10.5 -26t-26.5 -8q-21 0 -28 16q-10 21 -22 28.5t-38 7.5q-25 0 -37 -7t-22 -27q-5 -9 -11.5 -13.5t-18.5 -4.5q-16 0 -26.5 8t-10.5 26
q0 42 32 74t93 32q42 0 70.5 -16z" />
    <glyph glyph-name="uni020C" unicode="&#x20c;" horiz-adv-x="599" 
d="M38 350q0 358 262 358q128 0 194.5 -87t66.5 -271t-66.5 -271t-194.5 -87q-262 0 -262 358zM359 143q22 20 33 69.5t11 137.5q0 87 -11 136.5t-33 69.5t-58 20t-58.5 -20t-34 -69.5t-11.5 -136.5t11.5 -137t34 -70t58.5 -20t58 20zM202 752.5q-13 3.5 -28 16.5l-64 52
q-15 14 -21 22t-6 14q0 11 15 14.5t51 3.5q32 0 48 -5.5t29 -24.5l41 -57q11 -19 11 -27q0 -6 -6.5 -9t-28.5 -3q-28 0 -41 3.5zM371 752.5q-13 3.5 -28 16.5l-64 52q-15 14 -21 22t-6 14q0 11 15 14.5t51 3.5q32 0 48 -5.5t29 -24.5l41 -57q11 -19 11 -27q0 -6 -6.5 -9
t-28.5 -3q-28 0 -41 3.5z" />
    <glyph glyph-name="uni020D" unicode="&#x20d;" horiz-adv-x="477" 
d="M86 61.5q-52 69.5 -52 200.5t51.5 200t152.5 69t153 -69t52 -200t-52 -200.5t-153 -69.5q-100 0 -152 69.5zM280.5 143.5q12.5 34.5 12.5 118.5t-12.5 118t-41.5 34q-30 0 -42.5 -34t-12.5 -118t12.5 -118.5t42.5 -34.5q29 0 41.5 34.5zM136 578.5q-14 6.5 -28 23.5
l-47 63q-10 12 -14.5 20t-4.5 16q0 10 11 13.5t40 3.5q39 0 56 -6.5t26 -24.5l34 -72q9 -21 9 -28t-8.5 -11t-32.5 -4q-27 0 -41 6.5zM296 578.5q-14 6.5 -28 23.5l-47 63q-10 12 -14.5 20t-4.5 16q0 10 11 13.5t40 3.5q39 0 56 -6.5t26 -24.5l34 -72q9 -21 9 -28t-8.5 -11
t-32.5 -4q-27 0 -41 6.5z" />
    <glyph glyph-name="uni020E" unicode="&#x20e;" horiz-adv-x="599" 
d="M38 350q0 358 262 358q128 0 194.5 -87t66.5 -271t-66.5 -271t-194.5 -87q-262 0 -262 358zM359 143q22 20 33 69.5t11 137.5q0 87 -11 136.5t-33 69.5t-58 20t-58.5 -20t-34 -69.5t-11.5 -136.5t11.5 -137t34 -70t58.5 -20t58 20zM374.5 867.5q30.5 -17.5 45.5 -42.5
t15 -46q0 -14 -10.5 -24t-26.5 -10q-10 0 -15.5 3.5t-12.5 12.5q-25 34 -70 34q-42 0 -69 -32q-9 -10 -15.5 -14t-14.5 -4q-16 0 -26.5 10t-10.5 24q0 22 15 46.5t45.5 42t74.5 17.5q45 0 75.5 -17.5z" />
    <glyph glyph-name="uni020F" unicode="&#x20f;" horiz-adv-x="477" 
d="M86 61.5q-52 69.5 -52 200.5t51.5 200t152.5 69t153 -69t52 -200t-52 -200.5t-153 -69.5q-100 0 -152 69.5zM280.5 143.5q12.5 34.5 12.5 118.5t-12.5 118t-41.5 34q-30 0 -42.5 -34t-12.5 -118t12.5 -118.5t42.5 -34.5q29 0 41.5 34.5zM308.5 699q28.5 -16 42 -40
t13.5 -50q0 -18 -10.5 -26t-26.5 -8q-21 0 -28 16q-10 21 -22 28.5t-38 7.5q-25 0 -37 -7t-22 -27q-5 -9 -11.5 -13.5t-18.5 -4.5q-16 0 -26.5 8t-10.5 26q0 42 32 74t93 32q42 0 70.5 -16z" />
    <glyph glyph-name="uni0210" unicode="&#x210;" horiz-adv-x="513" 
d="M54 30v630q0 21 9.5 30.5t30.5 9.5h167q92 0 148 -45.5t56 -151.5q0 -117 -95 -169v-4q22 -12 40 -40t27 -60l59 -192l3 -12q0 -27 -62 -27h-35q-53 0 -60 27l-53 190q-9 22 -20.5 31t-36.5 9h-24v-226q0 -32 -60 -32h-34q-60 0 -60 32zM264 402q22 0 37.5 22t15.5 64
t-15.5 61.5t-40.5 19.5h-53v-167h56zM153 752.5q-13 3.5 -28 16.5l-64 52q-15 14 -21 22t-6 14q0 11 15 14.5t51 3.5q32 0 48 -5.5t29 -24.5l41 -57q11 -19 11 -27q0 -6 -6.5 -9t-28.5 -3q-28 0 -41 3.5zM322 752.5q-13 3.5 -28 16.5l-64 52q-15 14 -21 22t-6 14
q0 11 15 14.5t51 3.5q32 0 48 -5.5t29 -24.5l41 -57q11 -19 11 -27q0 -6 -6.5 -9t-28.5 -3q-28 0 -41 3.5z" />
    <glyph glyph-name="uni0211" unicode="&#x211;" horiz-adv-x="337" 
d="M55 30v319q0 44 -2.5 67.5t-6.5 52.5q-3 14 -3 21q0 16 40.5 24t71.5 8q18 0 25 -14t10.5 -30.5t4.5 -22.5q14 35 33 55.5t52 20.5q28 0 37.5 -12.5t9.5 -41.5q0 -22 -7.5 -56t-18.5 -34q-6 0 -21 4t-26 4q-19 0 -32 -14t-19 -36v-315q0 -32 -60 -32h-28q-60 0 -60 32z
M80 578.5q-14 6.5 -28 23.5l-47 63q-10 12 -14.5 20t-4.5 16q0 10 11 13.5t40 3.5q39 0 56 -6.5t26 -24.5l34 -72q9 -21 9 -28t-8.5 -11t-32.5 -4q-27 0 -41 6.5zM240 578.5q-14 6.5 -28 23.5l-47 63q-10 12 -14.5 20t-4.5 16q0 10 11 13.5t40 3.5q39 0 56 -6.5t26 -24.5
l34 -72q9 -21 9 -28t-8.5 -11t-32.5 -4q-27 0 -41 6.5z" />
    <glyph glyph-name="uni0212" unicode="&#x212;" horiz-adv-x="513" 
d="M54 30v630q0 21 9.5 30.5t30.5 9.5h167q92 0 148 -45.5t56 -151.5q0 -117 -95 -169v-4q22 -12 40 -40t27 -60l59 -192l3 -12q0 -27 -62 -27h-35q-53 0 -60 27l-53 190q-9 22 -20.5 31t-36.5 9h-24v-226q0 -32 -60 -32h-34q-60 0 -60 32zM264 402q22 0 37.5 22t15.5 64
t-15.5 61.5t-40.5 19.5h-53v-167h56zM325.5 867.5q30.5 -17.5 45.5 -42.5t15 -46q0 -14 -10.5 -24t-26.5 -10q-10 0 -15.5 3.5t-12.5 12.5q-25 34 -70 34q-42 0 -69 -32q-9 -10 -15.5 -14t-14.5 -4q-16 0 -26.5 10t-10.5 24q0 22 15 46.5t45.5 42t74.5 17.5q45 0 75.5 -17.5
z" />
    <glyph glyph-name="uni0213" unicode="&#x213;" horiz-adv-x="337" 
d="M55 30v319q0 44 -2.5 67.5t-6.5 52.5q-3 14 -3 21q0 16 40.5 24t71.5 8q18 0 25 -14t10.5 -30.5t4.5 -22.5q14 35 33 55.5t52 20.5q28 0 37.5 -12.5t9.5 -41.5q0 -22 -7.5 -56t-18.5 -34q-6 0 -21 4t-26 4q-19 0 -32 -14t-19 -36v-315q0 -32 -60 -32h-28q-60 0 -60 32z
M252.5 699q28.5 -16 42 -40t13.5 -50q0 -18 -10.5 -26t-26.5 -8q-21 0 -28 16q-10 21 -22 28.5t-38 7.5q-25 0 -37 -7t-22 -27q-5 -9 -11.5 -13.5t-18.5 -4.5q-16 0 -26.5 8t-10.5 26q0 42 32 74t93 32q42 0 70.5 -16z" />
    <glyph glyph-name="uni0214" unicode="&#x214;" horiz-adv-x="583" 
d="M115 48q-64 56 -64 157v465q0 32 58 32h40q58 0 58 -32v-455q0 -41 23 -66.5t62 -25.5q38 0 61.5 26t23.5 66v455q0 32 58 32h39q58 0 58 -32v-465q0 -101 -63.5 -157t-176.5 -56t-177 56zM194 752.5q-13 3.5 -28 16.5l-64 52q-15 14 -21 22t-6 14q0 11 15 14.5t51 3.5
q32 0 48 -5.5t29 -24.5l41 -57q11 -19 11 -27q0 -6 -6.5 -9t-28.5 -3q-28 0 -41 3.5zM363 752.5q-13 3.5 -28 16.5l-64 52q-15 14 -21 22t-6 14q0 11 15 14.5t51 3.5q32 0 48 -5.5t29 -24.5l41 -57q11 -19 11 -27q0 -6 -6.5 -9t-28.5 -3q-28 0 -41 3.5z" />
    <glyph glyph-name="uni0215" unicode="&#x215;" horiz-adv-x="482" 
d="M75.5 26.5q-29.5 35.5 -29.5 103.5v363q0 32 58 32h34q58 0 58 -32v-330q0 -25 8 -37.5t29 -12.5q27 0 50 32v348q0 16 14 24t43 8h35q57 0 57 -32v-319q0 -71 5 -102t5 -38q0 -18 -42 -26t-73 -8q-19 0 -25 11t-8.5 28.5t-4.5 27.5q-22 -33 -53.5 -54.5t-72.5 -21.5
q-58 0 -87.5 35.5zM137 578.5q-14 6.5 -28 23.5l-47 63q-10 12 -14.5 20t-4.5 16q0 10 11 13.5t40 3.5q39 0 56 -6.5t26 -24.5l34 -72q9 -21 9 -28t-8.5 -11t-32.5 -4q-27 0 -41 6.5zM297 578.5q-14 6.5 -28 23.5l-47 63q-10 12 -14.5 20t-4.5 16q0 10 11 13.5t40 3.5
q39 0 56 -6.5t26 -24.5l34 -72q9 -21 9 -28t-8.5 -11t-32.5 -4q-27 0 -41 6.5z" />
    <glyph glyph-name="uni0216" unicode="&#x216;" horiz-adv-x="583" 
d="M115 48q-64 56 -64 157v465q0 32 58 32h40q58 0 58 -32v-455q0 -41 23 -66.5t62 -25.5q38 0 61.5 26t23.5 66v455q0 32 58 32h39q58 0 58 -32v-465q0 -101 -63.5 -157t-176.5 -56t-177 56zM366.5 867.5q30.5 -17.5 45.5 -42.5t15 -46q0 -14 -10.5 -24t-26.5 -10
q-10 0 -15.5 3.5t-12.5 12.5q-25 34 -70 34q-42 0 -69 -32q-9 -10 -15.5 -14t-14.5 -4q-16 0 -26.5 10t-10.5 24q0 22 15 46.5t45.5 42t74.5 17.5q45 0 75.5 -17.5z" />
    <glyph glyph-name="uni0217" unicode="&#x217;" horiz-adv-x="482" 
d="M75.5 26.5q-29.5 35.5 -29.5 103.5v363q0 32 58 32h34q58 0 58 -32v-330q0 -25 8 -37.5t29 -12.5q27 0 50 32v348q0 16 14 24t43 8h35q57 0 57 -32v-319q0 -71 5 -102t5 -38q0 -18 -42 -26t-73 -8q-19 0 -25 11t-8.5 28.5t-4.5 27.5q-22 -33 -53.5 -54.5t-72.5 -21.5
q-58 0 -87.5 35.5zM309.5 699q28.5 -16 42 -40t13.5 -50q0 -18 -10.5 -26t-26.5 -8q-21 0 -28 16q-10 21 -22 28.5t-38 7.5q-25 0 -37 -7t-22 -27q-5 -9 -11.5 -13.5t-18.5 -4.5q-16 0 -26.5 8t-10.5 26q0 42 32 74t93 32q42 0 70.5 -16z" />
    <glyph glyph-name="uni0218" unicode="&#x218;" horiz-adv-x="437" 
d="M109 6.5q-48 14.5 -70 39.5q-13 18 -13 35q0 28 15 57t33 29q8 0 25.5 -10t25.5 -14q39 -20 69 -20q32 0 56 15t24 51q0 38 -23 59.5t-72 47.5q-75 43 -109.5 89t-34.5 122q0 61 27 106.5t74.5 70t108.5 24.5q34 0 72 -10.5t59 -25.5q18 -13 18 -35q0 -26 -11.5 -55
t-28.5 -29q-8 0 -29 8q-39 15 -65 15q-42 0 -57.5 -18t-15.5 -41q0 -36 19 -54.5t61 -40.5q9 -4 27 -14q69 -40 99.5 -86t30.5 -121q0 -56 -24 -103.5t-73 -76.5t-121 -29q-49 0 -97 14.5zM164 -234.5q-14 5.5 -14 16.5q0 3 2 21q8 51 8 102q0 44 58 44h20q45 0 45 -44
q0 -32 -15.5 -65.5t-37 -56.5t-36.5 -23q-16 0 -30 5.5z" />
    <glyph glyph-name="uni0219" unicode="&#x219;" horiz-adv-x="353" 
d="M65.5 10q-44.5 18 -44.5 47q0 21 19.5 52t34.5 31q4 0 17.5 -8t25.5 -13.5t28 -5.5q24 0 37 10t13 27q0 20 -13 32t-41 27l-20 12q-43 26 -68.5 57.5t-25.5 91.5q0 75 45.5 118t119.5 43q46 0 88 -14.5t42 -43.5q0 -20 -14.5 -50.5t-26.5 -30.5q-3 0 -23 9t-41 9
q-50 0 -50 -34q0 -17 12 -27.5t40 -26.5q13 -6 32 -18q39 -25 61.5 -57t22.5 -86q0 -75 -46.5 -122t-127.5 -47q-52 0 -96.5 18zM119 -234.5q-14 5.5 -14 16.5q0 3 2 21q8 51 8 102q0 44 58 44h20q45 0 45 -44q0 -32 -15.5 -65.5t-37 -56.5t-36.5 -23q-16 0 -30 5.5z" />
    <glyph glyph-name="uni021A" unicode="&#x21a;" horiz-adv-x="454" 
d="M148 30v539h-111q-15 0 -22 12t-7 38v31q0 26 7 38t22 12h380q16 0 23 -12t7 -38v-31q0 -26 -7 -38t-23 -12h-112v-539q0 -32 -58 -32h-41q-58 0 -58 32zM173 -234.5q-14 5.5 -14 16.5q0 3 2 21q8 51 8 102q0 44 58 44h20q45 0 45 -44q0 -32 -15.5 -65.5t-37 -56.5
t-36.5 -23q-16 0 -30 5.5z" />
    <glyph glyph-name="uni021B" unicode="&#x21b;" horiz-adv-x="298" 
d="M90.5 30.5q-32.5 38.5 -32.5 117.5v258h-11q-16 0 -23 12t-7 38v17q0 26 7 38t23 12h11l13 95q5 32 54 32h31q50 0 50 -32v-95h37q16 0 23 -12t7 -38v-17q0 -26 -7 -38t-23 -12h-37v-262q0 -18 5.5 -26.5t18.5 -8.5q5 0 13.5 2t13.5 2q12 0 21 -28.5t9 -42.5
q0 -25 -34 -37.5t-70 -12.5q-60 0 -92.5 38.5zM110 -234.5q-14 5.5 -14 16.5q0 3 2 21q8 51 8 102q0 44 58 44h20q45 0 45 -44q0 -32 -15.5 -65.5t-37 -56.5t-36.5 -23q-16 0 -30 5.5z" />
    <glyph glyph-name="uni022A" unicode="&#x22a;" horiz-adv-x="599" 
d="M38 350q0 358 262 358q128 0 194.5 -87t66.5 -271t-66.5 -271t-194.5 -87q-262 0 -262 358zM359 143q22 20 33 69.5t11 137.5q0 87 -11 136.5t-33 69.5t-58 20t-58.5 -20t-34 -69.5t-11.5 -136.5t11.5 -137t34 -70t58.5 -20t58 20zM166.5 753.5q-14.5 7.5 -14.5 24.5v68
q0 17 14.5 24.5t45.5 7.5t45.5 -7.5t14.5 -24.5v-68q0 -17 -14.5 -24.5t-45.5 -7.5t-45.5 7.5zM342.5 753.5q-14.5 7.5 -14.5 24.5v68q0 17 14.5 24.5t45.5 7.5t45.5 -7.5t14.5 -24.5v-68q0 -17 -14.5 -24.5t-45.5 -7.5t-45.5 7.5zM157 927.5q-7 9.5 -7 30.5v15q0 21 7 30.5
t22 9.5h241q16 0 22.5 -9.5t6.5 -30.5v-15q0 -21 -6.5 -30.5t-22.5 -9.5h-241q-15 0 -22 9.5z" />
    <glyph glyph-name="uni022B" unicode="&#x22b;" horiz-adv-x="477" 
d="M86 61.5q-52 69.5 -52 200.5t51.5 200t152.5 69t153 -69t52 -200t-52 -200.5t-153 -69.5q-100 0 -152 69.5zM280.5 143.5q12.5 34.5 12.5 118.5t-12.5 118t-41.5 34q-30 0 -42.5 -34t-12.5 -118t12.5 -118.5t42.5 -34.5q29 0 41.5 34.5zM103.5 588.5
q-14.5 7.5 -14.5 24.5v64q0 17 14.5 24.5t47.5 7.5t47.5 -7.5t14.5 -24.5v-64q0 -17 -14.5 -24.5t-47.5 -7.5t-47.5 7.5zM279.5 588.5q-14.5 7.5 -14.5 24.5v64q0 17 14.5 24.5t47.5 7.5t47.5 -7.5t14.5 -24.5v-64q0 -17 -14.5 -24.5t-47.5 -7.5t-47.5 7.5zM101 768.5
q-7 9.5 -7 30.5v15q0 21 7 30.5t22 9.5h231q16 0 22.5 -9.5t6.5 -30.5v-15q0 -21 -6.5 -30.5t-22.5 -9.5h-231q-15 0 -22 9.5z" />
    <glyph glyph-name="uni022C" unicode="&#x22c;" horiz-adv-x="599" 
d="M38 350q0 358 262 358q128 0 194.5 -87t66.5 -271t-66.5 -271t-194.5 -87q-262 0 -262 358zM359 143q22 20 33 69.5t11 137.5q0 87 -11 136.5t-33 69.5t-58 20t-58.5 -20t-34 -69.5t-11.5 -136.5t11.5 -137t34 -70t58.5 -20t58 20zM161.5 764.5q-16.5 8.5 -16.5 18.5
t5 22q13 29 36 47.5t55 18.5q19 0 35 -5t39 -15q3 -1 16.5 -6.5t23.5 -5.5q11 0 17.5 4.5t15.5 15.5q11 15 21 15q12 0 28.5 -9.5t16.5 -19.5q0 -3 -3 -15q-11 -29 -36 -50t-56 -21t-71 18q-3 1 -17.5 6.5t-25.5 5.5t-18.5 -5t-16.5 -14q-14 -14 -22 -14q-10 0 -26.5 8.5z
M157 922.5q-7 9.5 -7 30.5v15q0 21 7 30.5t22 9.5h241q16 0 22.5 -9.5t6.5 -30.5v-15q0 -21 -6.5 -30.5t-22.5 -9.5h-241q-15 0 -22 9.5z" />
    <glyph glyph-name="uni022D" unicode="&#x22d;" horiz-adv-x="477" 
d="M86 61.5q-52 69.5 -52 200.5t51.5 200t152.5 69t153 -69t52 -200t-52 -200.5t-153 -69.5q-100 0 -152 69.5zM280.5 143.5q12.5 34.5 12.5 118.5t-12.5 118t-41.5 34q-30 0 -42.5 -34t-12.5 -118t12.5 -118.5t42.5 -34.5q29 0 41.5 34.5zM99.5 594.5q-16.5 8.5 -16.5 19.5
q0 4 1.5 11t3.5 13q29 66 89 66q30 0 74 -19q32 -13 46 -13q10 0 17 4.5t15 13.5l6.5 6.5t12.5 5.5q12 0 29.5 -10.5t17.5 -20.5q0 -6 -7 -24q-11 -27 -35.5 -44t-53.5 -17q-18 0 -34.5 4.5t-37.5 13.5q-33 13 -50 13q-11 0 -18.5 -5t-15.5 -14l-6.5 -6.5t-11.5 -5.5
q-9 0 -25.5 8.5zM101 768.5q-7 9.5 -7 30.5v15q0 21 7 30.5t22 9.5h231q16 0 22.5 -9.5t6.5 -30.5v-15q0 -21 -6.5 -30.5t-22.5 -9.5h-231q-15 0 -22 9.5z" />
    <glyph glyph-name="uni0230" unicode="&#x230;" horiz-adv-x="599" 
d="M38 350q0 358 262 358q128 0 194.5 -87t66.5 -271t-66.5 -271t-194.5 -87q-262 0 -262 358zM359 143q22 20 33 69.5t11 137.5q0 87 -11 136.5t-33 69.5t-58 20t-58.5 -20t-34 -69.5t-11.5 -136.5t11.5 -137t34 -70t58.5 -20t58 20zM226 772v78q0 32 74 32t74 -32v-78
q0 -32 -74 -32t-74 32zM157 927.5q-7 9.5 -7 30.5v15q0 21 7 30.5t22 9.5h241q16 0 22.5 -9.5t6.5 -30.5v-15q0 -21 -6.5 -30.5t-22.5 -9.5h-241q-15 0 -22 9.5z" />
    <glyph glyph-name="uni0231" unicode="&#x231;" horiz-adv-x="477" 
d="M86 61.5q-52 69.5 -52 200.5t51.5 200t152.5 69t153 -69t52 -200t-52 -200.5t-153 -69.5q-100 0 -152 69.5zM280.5 143.5q12.5 34.5 12.5 118.5t-12.5 118t-41.5 34q-30 0 -42.5 -34t-12.5 -118t12.5 -118.5t42.5 -34.5q29 0 41.5 34.5zM165 606v78q0 32 74 32t74 -32
v-78q0 -32 -74 -32t-74 32zM101 768.5q-7 9.5 -7 30.5v15q0 21 7 30.5t22 9.5h231q16 0 22.5 -9.5t6.5 -30.5v-15q0 -21 -6.5 -30.5t-22.5 -9.5h-231q-15 0 -22 9.5z" />
    <glyph glyph-name="uni0232" unicode="&#x232;" horiz-adv-x="484" 
d="M165 30v272l-154 355q-2 4 -5.5 12.5t-3.5 12.5q0 9 15.5 14.5t44.5 5.5h51q49 0 55 -19l78 -246l77 246q3 11 17 15t38 4h42q63 0 63 -20q0 -10 -7 -25l-154 -358v-269q0 -32 -59 -32h-39q-59 0 -59 32zM99 775.5q-7 9.5 -7 30.5v15q0 21 7 30.5t22 9.5h241
q16 0 22.5 -9.5t6.5 -30.5v-15q0 -21 -6.5 -30.5t-22.5 -9.5h-241q-15 0 -22 9.5z" />
    <glyph glyph-name="uni0233" unicode="&#x233;" horiz-adv-x="408" 
d="M404 503q0 -4 -2 -18l-170 -670q-5 -21 -55 -21h-20q-56 0 -56 21q0 7 3 18l43 156l-137 491q-4 12 -4 22q0 23 50 23h43q23 0 35.5 -4.5t15.5 -18.5l37 -203q6 -36 16 -112h4q5 35 7 45q6 48 10 67l40 205q4 21 53 21h29q58 0 58 -22zM66 606.5q-7 9.5 -7 30.5v15
q0 21 7 30.5t22 9.5h231q16 0 22.5 -9.5t6.5 -30.5v-15q0 -21 -6.5 -30.5t-22.5 -9.5h-231q-15 0 -22 9.5z" />
    <glyph glyph-name="uni0237" unicode="&#x237;" horiz-adv-x="249" 
d="M-7.5 -200.5q-24.5 11.5 -24.5 39.5q0 22 8.5 46t22.5 24q5 0 14.5 -2t15.5 -2q13 0 18.5 10t5.5 33v545q0 32 60 32h28q60 0 60 -32v-543q0 -79 -37 -120.5t-97 -41.5q-50 0 -74.5 11.5z" />
    <glyph glyph-name="uni0259" unicode="&#x259;" horiz-adv-x="440" 
d="M357 463.5q55 -67.5 55 -198.5q0 -148 -54.5 -210.5t-153.5 -62.5q-98 0 -142 69t-44 200q0 12 20.5 35.5t30.5 23.5h190q-2 51 -23 72.5t-57 21.5q-22 0 -40 -6t-35 -14.5t-21 -8.5q-10 0 -22.5 14.5t-21 33t-8.5 28.5q0 23 27 38.5t63.5 23.5t64.5 8q116 0 171 -67.5z
M153 231q0 -71 12 -101.5t40 -30.5q27 0 41.5 29t18.5 103h-112z" />
    <glyph glyph-name="uni0272" unicode="&#x272;" horiz-adv-x="482" 
d="M-10.5 -200.5q-24.5 11.5 -24.5 39.5q0 22 8.5 46t22.5 24q5 0 14.5 -2t15.5 -2q13 0 18.5 10t5.5 33v401q0 71 -5 101t-5 37q0 18 42 26.5t73 8.5q19 0 25 -11t8.5 -28.5t4.5 -27.5q22 33 55.5 54.5t75.5 21.5q55 0 83.5 -35.5t28.5 -103.5v-362q0 -32 -58 -32h-34
q-58 0 -58 32v328q0 26 -8 38.5t-29 12.5q-27 0 -50 -32v-427q0 -79 -37.5 -120.5t-97.5 -41.5q-50 0 -74.5 11.5z" />
    <glyph glyph-name="uni02B9" unicode="&#x2b9;" horiz-adv-x="146" 
d="M0 508q0 32 16 214q2 16 15.5 24t44.5 8h10q60 0 60 -32q0 -6 -5 -23l-51 -185q-5 -16 -12 -23t-22 -7h-25q-31 0 -31 24z" />
    <glyph glyph-name="uni02BA" unicode="&#x2ba;" horiz-adv-x="296" 
d="M0 508q0 32 16 214q2 16 15.5 24t44.5 8h10q60 0 60 -32q0 -6 -5 -23l-51 -185q-5 -16 -12 -23t-22 -7h-25q-31 0 -31 24zM150 508q0 32 16 214q2 16 15.5 24t44.5 8h10q60 0 60 -32q0 -6 -5 -23l-51 -185q-5 -16 -12 -23t-22 -7h-25q-31 0 -31 24z" />
    <glyph glyph-name="uni02BC" unicode="&#x2bc;" horiz-adv-x="133" 
d="M14 537.5q-14 5.5 -14 16.5q0 3 2 21q8 51 8 102q0 44 58 44h20q45 0 45 -44q0 -32 -15.5 -65.5t-37 -56.5t-36.5 -23q-16 0 -30 5.5z" />
    <glyph glyph-name="circumflex" unicode="&#x2c6;" horiz-adv-x="249" 
d="M0 587q0 7 9 28l34 72q9 18 24 24.5t48 6.5h18q34 0 49 -6.5t24 -24.5l34 -72q9 -21 9 -28q0 -15 -31 -15q-30 0 -43 6t-24 24l-26 44l-27 -44q-11 -18 -24.5 -24t-42.5 -6q-31 0 -31 15z" />
    <glyph glyph-name="caron" unicode="&#x2c7;" horiz-adv-x="249" 
d="M65 578.5q-13 6.5 -22 24.5l-34 72q-9 21 -9 28q0 15 31 15q30 0 43 -6t24 -24l26 -44l27 44q11 18 24.5 24t42.5 6q31 0 31 -15q0 -7 -9 -28l-34 -72q-9 -18 -21.5 -24.5t-40.5 -6.5h-38q-28 0 -41 6.5z" />
    <glyph glyph-name="uni02C9" unicode="&#x2c9;" horiz-adv-x="289" 
d="M7 606.5q-7 9.5 -7 30.5v15q0 21 7 30.5t22 9.5h231q16 0 22.5 -9.5t6.5 -30.5v-15q0 -21 -6.5 -30.5t-22.5 -9.5h-231q-15 0 -22 9.5z" />
    <glyph glyph-name="breve" unicode="&#x2d8;" horiz-adv-x="251" 
d="M32.5 607.5q-32.5 32.5 -32.5 73.5q0 18 10.5 26t26.5 8q12 0 18.5 -4.5t11.5 -13.5q10 -20 22 -27t37 -7q26 0 38 7.5t22 28.5q7 16 28 16q16 0 26.5 -8t10.5 -26q0 -26 -13.5 -50t-42 -40t-70.5 -16q-60 0 -92.5 32.5z" />
    <glyph glyph-name="dotaccent" unicode="&#x2d9;" horiz-adv-x="148" 
d="M0 606v78q0 32 74 32t74 -32v-78q0 -32 -74 -32t-74 32z" />
    <glyph glyph-name="ring" unicode="&#x2da;" horiz-adv-x="189" 
d="M25.5 567.5q-25.5 26.5 -25.5 72.5t25.5 73t68.5 27t69 -27t26 -73t-25.5 -72.5t-69.5 -26.5q-43 0 -68.5 26.5zM124 640q0 35 -30 35q-29 0 -29 -35q0 -34 29 -34q30 0 30 34z" />
    <glyph glyph-name="ogonek" unicode="&#x2db;" horiz-adv-x="180" 
d="M24 -170.5q-24 25.5 -24 64.5q0 30 23.5 65t65.5 58l65 -4q-38 -24 -58.5 -49.5t-20.5 -47.5q0 -11 7.5 -18.5t23.5 -7.5q15 0 28 5.5t19 5.5q9 0 18 -16.5t9 -29.5q0 -22 -25.5 -36.5t-61.5 -14.5q-45 0 -69 25.5z" />
    <glyph glyph-name="tilde" unicode="&#x2dc;" horiz-adv-x="310" 
d="M16.5 594.5q-16.5 8.5 -16.5 19.5q0 4 1.5 11t3.5 13q29 66 89 66q30 0 74 -19q32 -13 46 -13q10 0 17 4.5t15 13.5l6.5 6.5t12.5 5.5q12 0 29.5 -10.5t17.5 -20.5q0 -6 -7 -24q-11 -27 -35.5 -44t-53.5 -17q-18 0 -34.5 4.5t-37.5 13.5q-33 13 -50 13q-11 0 -18.5 -5
t-15.5 -14l-6.5 -6.5t-11.5 -5.5q-9 0 -25.5 8.5z" />
    <glyph glyph-name="hungarumlaut" unicode="&#x2dd;" horiz-adv-x="341" 
d="M8.5 576q-8.5 4 -8.5 11t9 28l34 72q9 18 26 24.5t56 6.5q29 0 40 -3.5t11 -13.5q0 -8 -4.5 -16t-14.5 -20l-47 -63q-14 -17 -28 -23.5t-41 -6.5q-24 0 -32.5 4zM173.5 576q-8.5 4 -8.5 11t9 28l34 72q9 18 26 24.5t56 6.5q29 0 40 -3.5t11 -13.5q0 -8 -4.5 -16
t-14.5 -20l-47 -63q-14 -17 -28 -23.5t-41 -6.5q-24 0 -32.5 4z" />
    <glyph glyph-name="gravecomb" unicode="&#x300;" horiz-adv-x="0" 
d="M-82 578.5q-14 6.5 -28 23.5l-47 63q-10 12 -14.5 20t-4.5 16q0 10 11 13.5t40 3.5q39 0 56 -6.5t26 -24.5l34 -72q9 -21 9 -28t-8.5 -11t-32.5 -4q-27 0 -41 6.5z" />
    <glyph glyph-name="acutecomb" unicode="&#x301;" horiz-adv-x="0" 
d="M-167.5 576q-8.5 4 -8.5 11t9 28l34 72q9 18 26 24.5t56 6.5q29 0 40 -3.5t11 -13.5q0 -8 -4.5 -16t-14.5 -20l-47 -63q-14 -17 -28 -23.5t-41 -6.5q-24 0 -32.5 4z" />
    <glyph glyph-name="uni0302" unicode="&#x302;" horiz-adv-x="0" 
d="M-249 587q0 7 9 28l34 72q9 18 24 24.5t48 6.5h18q34 0 49 -6.5t24 -24.5l34 -72q9 -21 9 -28q0 -15 -31 -15q-30 0 -43 6t-24 24l-26 44l-27 -44q-11 -18 -24.5 -24t-42.5 -6q-31 0 -31 15z" />
    <glyph glyph-name="tildecomb" unicode="&#x303;" horiz-adv-x="0" 
d="M-293.5 594.5q-16.5 8.5 -16.5 19.5q0 4 1.5 11t3.5 13q29 66 89 66q30 0 74 -19q32 -13 46 -13q10 0 17 4.5t15 13.5l6.5 6.5t12.5 5.5q12 0 29.5 -10.5t17.5 -20.5q0 -6 -7 -24q-11 -27 -35.5 -44t-53.5 -17q-18 0 -34.5 4.5t-37.5 13.5q-33 13 -50 13q-11 0 -18.5 -5
t-15.5 -14l-6.5 -6.5t-11.5 -5.5q-9 0 -25.5 8.5z" />
    <glyph glyph-name="uni0304" unicode="&#x304;" horiz-adv-x="0" 
d="M-282 606.5q-7 9.5 -7 30.5v15q0 21 7 30.5t22 9.5h231q16 0 22.5 -9.5t6.5 -30.5v-15q0 -21 -6.5 -30.5t-22.5 -9.5h-231q-15 0 -22 9.5z" />
    <glyph glyph-name="uni0306" unicode="&#x306;" horiz-adv-x="0" 
d="M-218.5 607.5q-32.5 32.5 -32.5 73.5q0 18 10.5 26t26.5 8q12 0 18.5 -4.5t11.5 -13.5q10 -20 22 -27t37 -7q26 0 38 7.5t22 28.5q7 16 28 16q16 0 26.5 -8t10.5 -26q0 -26 -13.5 -50t-42 -40t-70.5 -16q-60 0 -92.5 32.5z" />
    <glyph glyph-name="uni0307" unicode="&#x307;" horiz-adv-x="0" 
d="M-148 606v78q0 32 74 32t74 -32v-78q0 -32 -74 -32t-74 32z" />
    <glyph glyph-name="uni0308" unicode="&#x308;" horiz-adv-x="0" 
d="M-285.5 588.5q-14.5 7.5 -14.5 24.5v64q0 17 14.5 24.5t47.5 7.5t47.5 -7.5t14.5 -24.5v-64q0 -17 -14.5 -24.5t-47.5 -7.5t-47.5 7.5zM-109.5 588.5q-14.5 7.5 -14.5 24.5v64q0 17 14.5 24.5t47.5 7.5t47.5 -7.5t14.5 -24.5v-64q0 -17 -14.5 -24.5t-47.5 -7.5t-47.5 7.5
z" />
    <glyph glyph-name="hookabovecomb" unicode="&#x309;" horiz-adv-x="0" 
d="M-135.5 568.5q-18.5 8.5 -18.5 14.5q0 8 26 27q19 14 30 25.5t11 22.5q0 10 -9.5 16t-22.5 6t-25.5 -6t-16.5 -6q-6 0 -18 15.5t-12 26.5q0 10 27 20.5t53 10.5q53 0 82 -21t29 -58q0 -24 -20 -47.5t-45 -39t-35 -15.5q-17 0 -35.5 8.5z" />
    <glyph glyph-name="uni030A" unicode="&#x30a;" horiz-adv-x="0" 
d="M-163.5 567.5q-25.5 26.5 -25.5 72.5t25.5 73t68.5 27t69 -27t26 -73t-25.5 -72.5t-69.5 -26.5q-43 0 -68.5 26.5zM-65 640q0 35 -30 35q-29 0 -29 -35q0 -34 29 -34q30 0 30 34z" />
    <glyph glyph-name="uni030B" unicode="&#x30b;" horiz-adv-x="0" 
d="M-332.5 576q-8.5 4 -8.5 11t9 28l34 72q9 18 26 24.5t56 6.5q29 0 40 -3.5t11 -13.5q0 -8 -4.5 -16t-14.5 -20l-47 -63q-14 -17 -28 -23.5t-41 -6.5q-24 0 -32.5 4zM-167.5 576q-8.5 4 -8.5 11t9 28l34 72q9 18 26 24.5t56 6.5q29 0 40 -3.5t11 -13.5q0 -8 -4.5 -16
t-14.5 -20l-47 -63q-14 -17 -28 -23.5t-41 -6.5q-24 0 -32.5 4z" />
    <glyph glyph-name="uni030C" unicode="&#x30c;" horiz-adv-x="0" 
d="M-184 578.5q-13 6.5 -22 24.5l-34 72q-9 21 -9 28q0 15 31 15q30 0 43 -6t24 -24l26 -44l27 44q11 18 24.5 24t42.5 6q31 0 31 -15q0 -7 -9 -28l-34 -72q-9 -18 -21.5 -24.5t-40.5 -6.5h-38q-28 0 -41 6.5z" />
    <glyph glyph-name="uni030F" unicode="&#x30f;" horiz-adv-x="0" 
d="M-242 578.5q-14 6.5 -28 23.5l-47 63q-10 12 -14.5 20t-4.5 16q0 10 11 13.5t40 3.5q39 0 56 -6.5t26 -24.5l34 -72q9 -21 9 -28t-8.5 -11t-32.5 -4q-27 0 -41 6.5zM-82 578.5q-14 6.5 -28 23.5l-47 63q-10 12 -14.5 20t-4.5 16q0 10 11 13.5t40 3.5q39 0 56 -6.5
t26 -24.5l34 -72q9 -21 9 -28t-8.5 -11t-32.5 -4q-27 0 -41 6.5z" />
    <glyph glyph-name="uni0311" unicode="&#x311;" horiz-adv-x="0" 
d="M-55.5 699q28.5 -16 42 -40t13.5 -50q0 -18 -10.5 -26t-26.5 -8q-21 0 -28 16q-10 21 -22 28.5t-38 7.5q-25 0 -37 -7t-22 -27q-5 -9 -11.5 -13.5t-18.5 -4.5q-16 0 -26.5 8t-10.5 26q0 42 32 74t93 32q42 0 70.5 -16z" />
    <glyph glyph-name="uni0312" unicode="&#x312;" horiz-adv-x="0" 
d="M-133 622q0 32 15.5 65.5t37 56.5t36.5 23q16 0 30 -5.5t14 -16.5q0 -3 -2 -21q-8 -51 -8 -102q0 -44 -58 -44h-20q-45 0 -45 44z" />
    <glyph glyph-name="uni031B" unicode="&#x31b;" horiz-adv-x="0" 
d="M-156 523h35q20 0 31.5 9t11.5 24q0 10 -4.5 18t-12.5 18q-11 13 -11 19q0 12 11 19l32 22q6 5 16 5q18 0 32.5 -29t14.5 -54q0 -44 -29.5 -69t-90.5 -25z" />
    <glyph glyph-name="dotbelowcomb" unicode="&#x323;" horiz-adv-x="0" 
d="M-114 -172v60q0 32 56 32q58 0 58 -32v-60q0 -32 -56 -32q-58 0 -58 32z" />
    <glyph glyph-name="uni0324" unicode="&#x324;" horiz-adv-x="0" 
d="M-276 -172v60q0 32 56 32q58 0 58 -32v-60q0 -32 -56 -32q-58 0 -58 32zM-114 -172v60q0 32 56 32q58 0 58 -32v-60q0 -32 -56 -32q-58 0 -58 32z" />
    <glyph glyph-name="uni0326" unicode="&#x326;" horiz-adv-x="0" 
d="M-119 -234.5q-14 5.5 -14 16.5q0 3 2 21q8 51 8 102q0 44 58 44h20q45 0 45 -44q0 -32 -15.5 -65.5t-37 -56.5t-36.5 -23q-16 0 -30 5.5z" />
    <glyph glyph-name="uni0327" unicode="&#x327;" horiz-adv-x="0" 
d="M-17 -75q17 -18 17 -45q0 -45 -30 -68.5t-89 -23.5q-32 0 -60 11.5t-28 29.5q0 16 10 26.5t18 10.5t20 -5q3 -1 15.5 -4.5t27.5 -3.5q34 0 34 26q0 12 -9 18.5t-24 11.5q-2 1 -8.5 4t-9.5 5.5t-3 6.5q0 8 25 85h64l-17 -62q30 -5 47 -23z" />
    <glyph glyph-name="uni0328" unicode="&#x328;" horiz-adv-x="0" 
d="M-156 -170.5q-24 25.5 -24 64.5q0 30 23.5 65t65.5 58l65 -4q-38 -24 -58.5 -49.5t-20.5 -47.5q0 -11 7.5 -18.5t23.5 -7.5q15 0 28 5.5t19 5.5q9 0 18 -16.5t9 -29.5q0 -22 -25.5 -36.5t-61.5 -14.5q-45 0 -69 25.5z" />
    <glyph glyph-name="uni032E" unicode="&#x32e;" horiz-adv-x="0" 
d="M-218.5 -180.5q-32.5 32.5 -32.5 73.5q0 18 10.5 26t26.5 8q12 0 18.5 -4.5t11.5 -13.5q10 -20 22 -27t37 -7q26 0 38 7.5t22 28.5q7 16 28 16q16 0 26.5 -8t10.5 -26q0 -26 -13.5 -50t-42 -40t-70.5 -16q-60 0 -92.5 32.5z" />
    <glyph glyph-name="uni0331" unicode="&#x331;" horiz-adv-x="0" 
d="M-282 -178.5q-7 9.5 -7 30.5v15q0 21 7 30.5t22 9.5h231q16 0 22.5 -9.5t6.5 -30.5v-15q0 -21 -6.5 -30.5t-22.5 -9.5h-231q-15 0 -22 9.5z" />
    <glyph glyph-name="uni0335" unicode="&#x335;" horiz-adv-x="0" 
d="M-513 252.5q-7 9.5 -7 30.5v15q0 21 7 30.5t23 9.5h460q16 0 23 -9.5t7 -30.5v-15q0 -21 -7 -30.5t-23 -9.5h-460q-16 0 -23 9.5z" />
    <glyph glyph-name="uni0394" unicode="&#x394;" horiz-adv-x="581" 
d="M28 35v51q0 23 7 44l185 553q9 27 36 27h66q27 0 35 -27l186 -553q7 -21 7 -44v-51q0 -35 -31 -35h-461q-30 0 -30 35zM394 130l-100 363h-11l-99 -363h210z" />
    <glyph glyph-name="uni03A9" unicode="&#x3a9;" horiz-adv-x="599" 
d="M27 12q-7 12 -7 38v31q0 26 7 38t22 12q28 0 68 -18q-80 92 -80 247q0 168 68.5 258t194.5 90t194.5 -90t68.5 -258q0 -155 -80 -247q11 6 31 12t37 6q16 0 22.5 -12t6.5 -38v-31q0 -26 -6.5 -38t-22.5 -12h-202q-16 0 -23 12t-7 38v26q0 15 3.5 22.5t10.5 13.5
q32 17 51 76.5t19 161.5q0 111 -26 168.5t-77 57.5t-77.5 -57.5t-26.5 -168.5q0 -103 19 -163t52 -75q8 -4 11 -12t3 -24v-26q0 -26 -7 -38t-22 -12h-203q-15 0 -22 12z" />
    <glyph glyph-name="uni03BC" unicode="&#x3bc;" horiz-adv-x="467" 
d="M410 53q2 -18 2 -22q0 -16 -43 -24t-75 -8q-16 0 -22 13.5t-8.5 30.5t-3.5 25q-11 -25 -34.5 -45.5t-54.5 -27.5q13 -66 13 -169q0 -32 -57 -32h-35q-58 0 -58 32v667q0 32 58 32h35q57 0 57 -32v-317q0 -33 5.5 -47.5t22.5 -14.5q20 0 30.5 18.5t10.5 39.5v321
q0 32 58 32h34q58 0 58 -32v-317q0 -76 7 -123z" />
    <glyph glyph-name="pi" unicode="&#x3c0;" horiz-adv-x="507" 
d="M67.5 4.5q-18.5 6.5 -18.5 16.5q0 2 2 10q20 75 35.5 180.5t19.5 194.5q-22 -1 -41 -6.5t-23 -5.5q-22 0 -29 26.5t-7 50.5q0 52 130 52h323q33 0 33 -31q0 -17 -4 -53q-3 -33 -32 -33h-34v-252q0 -68 3.5 -96t3.5 -30q0 -14 -16.5 -22t-49.5 -8h-23q-39 0 -49.5 35
t-9.5 86l5 287h-48q-3 -100 -14.5 -209t-27.5 -170q-5 -14 -25 -21.5t-49 -7.5h-5q-31 0 -49.5 6.5z" />
    <glyph glyph-name="uni1E0C" unicode="&#x1e0c;" horiz-adv-x="575" 
d="M66 9.5q-9 9.5 -9 30.5v620q0 21 9 30.5t28 9.5h190q130 0 191.5 -87t61.5 -263t-61.5 -263t-191.5 -87h-190q-19 0 -28 9.5zM279 131q53 0 76 49.5t23 169.5t-23 169.5t-76 49.5h-64v-438h64zM230.5 -196.5q-14.5 7.5 -14.5 24.5v60q0 17 14 24.5t44 7.5q31 0 45.5 -7.5
t14.5 -24.5v-60q0 -17 -14 -24.5t-44 -7.5q-31 0 -45.5 7.5z" />
    <glyph glyph-name="uni1E0D" unicode="&#x1e0d;" horiz-adv-x="481" 
d="M107.5 23.5q-33.5 31.5 -53 93t-19.5 147.5q0 128 44 197.5t123 69.5q49 0 82 -29v220q0 32 60 32h28q60 0 60 -32v-546q0 -46 2.5 -70t6.5 -53q3 -13 3 -22q0 -16 -40.5 -24t-71.5 -8q-20 0 -27.5 16.5t-13.5 46.5q-15 -31 -43 -50.5t-63 -19.5q-44 0 -77.5 31.5z
M284 153v247q-20 14 -41 14q-30 0 -44 -35.5t-14 -117.5q0 -78 12 -113t38 -35q29 0 49 40zM186 -172v60q0 32 56 32q58 0 58 -32v-60q0 -32 -56 -32q-58 0 -58 32z" />
    <glyph glyph-name="uni1E24" unicode="&#x1e24;" horiz-adv-x="601" 
d="M58 30v640q0 32 58 32h42q57 0 57 -32v-247h171v247q0 32 58 32h41q58 0 58 -32v-640q0 -32 -58 -32h-41q-58 0 -58 32v261h-171v-261q0 -32 -57 -32h-42q-58 0 -58 32zM255.5 -196.5q-14.5 7.5 -14.5 24.5v60q0 17 14 24.5t44 7.5q31 0 45.5 -7.5t14.5 -24.5v-60
q0 -17 -14 -24.5t-44 -7.5q-31 0 -45.5 7.5z" />
    <glyph glyph-name="uni1E25" unicode="&#x1e25;" horiz-adv-x="485" 
d="M51 30v692q0 32 58 32h34q58 0 58 -32v-259q22 30 53.5 49t71.5 19q55 0 84 -35.5t29 -103.5v-362q0 -32 -58 -32h-34q-58 0 -58 32v328q0 26 -9 38.5t-30 12.5q-28 0 -49 -32v-347q0 -32 -58 -32h-34q-58 0 -58 32zM186 -172v60q0 32 56 32q58 0 58 -32v-60
q0 -32 -56 -32q-58 0 -58 32z" />
    <glyph glyph-name="uni1E44" unicode="&#x1e44;" horiz-adv-x="590" 
d="M52 30v640q0 32 58 32h26q20 0 32 -5.5t20 -22.5l180 -326q14 -26 34 -78l4 2q-8 52 -8 79v319q0 32 58 32h24q58 0 58 -32v-640q0 -32 -58 -32h-19q-20 0 -33 5.5t-21 22.5l-191 340q-9 15 -27 64l-5 -3q8 -46 8 -68v-329q0 -32 -58 -32h-24q-58 0 -58 32zM221 772v78
q0 32 74 32t74 -32v-78q0 -32 -74 -32t-74 32z" />
    <glyph glyph-name="uni1E45" unicode="&#x1e45;" horiz-adv-x="482" 
d="M50 30v319q0 71 -5 101t-5 37q0 18 42 26.5t73 8.5q19 0 25 -11t8.5 -28.5t4.5 -27.5q22 33 55.5 54.5t75.5 21.5q55 0 83.5 -35.5t28.5 -103.5v-362q0 -32 -58 -32h-34q-58 0 -58 32v328q0 26 -8 38.5t-29 12.5q-27 0 -50 -32v-347q0 -16 -14 -24t-43 -8h-35
q-57 0 -57 32zM168 606v78q0 32 74 32t74 -32v-78q0 -32 -74 -32t-74 32z" />
    <glyph glyph-name="uni1E5A" unicode="&#x1e5a;" horiz-adv-x="513" 
d="M54 30v630q0 21 9.5 30.5t30.5 9.5h167q92 0 148 -45.5t56 -151.5q0 -117 -95 -169v-4q22 -12 40 -40t27 -60l59 -192l3 -12q0 -27 -62 -27h-35q-53 0 -60 27l-53 190q-9 22 -20.5 31t-36.5 9h-24v-226q0 -32 -60 -32h-34q-60 0 -60 32zM264 402q22 0 37.5 22t15.5 64
t-15.5 61.5t-40.5 19.5h-53v-167h56zM227.5 -196.5q-14.5 7.5 -14.5 24.5v60q0 17 14 24.5t44 7.5q31 0 45.5 -7.5t14.5 -24.5v-60q0 -17 -14 -24.5t-44 -7.5q-31 0 -45.5 7.5z" />
    </font>
</defs>
</svg>
