<svg width="7" height="10" viewBox="0 0 7 10" fill="none" xmlns="http://www.w3.org/2000/svg">
<path fill-rule="evenodd" clip-rule="evenodd" d="M0.641416 9.59091C0.462997 9.59091 0.31836 9.42021 0.31836 9.20963V2.14457C0.318137 1.73578 0.502773 1.35793 0.802676 1.15343C1.10258 0.948923 1.47216 0.948853 1.77212 1.15324L5.97185 4.02426C6.27075 4.22889 6.45472 4.60586 6.45472 5.01368C6.45472 5.42149 6.27075 5.79846 5.97185 6.00309L2.09517 8.67203C1.99503 8.74716 1.86804 8.75145 1.76442 8.6832C1.6608 8.61495 1.59723 8.48514 1.59883 8.34511C1.60044 8.20507 1.66697 8.07734 1.77212 8.01242L5.6488 5.34348C5.74843 5.27527 5.80975 5.14961 5.80975 5.01368C5.80975 4.87774 5.74843 4.75208 5.6488 4.68387L1.44906 1.81285C1.34891 1.74461 1.22548 1.74475 1.12544 1.81323C1.02541 1.88171 0.964013 2.00808 0.964473 2.14457V9.20963C0.964473 9.42021 0.819836 9.59091 0.641416 9.59091Z" fill="#E6152B" stroke="#F51E38" stroke-width="0.3"/>
</svg>
