<svg width="18" height="18" viewBox="0 0 18 18" fill="none" xmlns="http://www.w3.org/2000/svg">
<path d="M9 16.2H16.2V18H9C4.0293 18 0 13.9707 0 9C0 4.0293 4.0293 0 9 0C13.9707 0 18 4.0293 18 9C18.0029 10.9478 17.371 12.8435 16.2 14.4H13.7628C15.0266 13.2854 15.8595 11.7628 16.1163 10.0974C16.3732 8.43198 16.0377 6.72923 15.1684 5.28566C14.2991 3.84209 12.951 2.74917 11.3588 2.1972C9.76668 1.64524 8.03136 1.66921 6.45507 2.26494C4.87878 2.86067 3.56137 3.99041 2.73225 5.45744C1.90314 6.92446 1.61485 8.63583 1.91759 10.2935C2.22033 11.9512 3.09492 13.4502 4.38906 14.5295C5.68319 15.6087 7.31489 16.1999 9 16.2ZM9 7.2C8.52261 7.2 8.06477 7.01036 7.7272 6.67279C7.38964 6.33523 7.2 5.87739 7.2 5.4C7.2 4.92261 7.38964 4.46477 7.7272 4.12721C8.06477 3.78964 8.52261 3.6 9 3.6C9.47738 3.6 9.93522 3.78964 10.2728 4.12721C10.6104 4.46477 10.8 4.92261 10.8 5.4C10.8 5.87739 10.6104 6.33523 10.2728 6.67279C9.93522 7.01036 9.47738 7.2 9 7.2ZM5.4 10.8C4.92261 10.8 4.46477 10.6104 4.12721 10.2728C3.78964 9.93523 3.6 9.47739 3.6 9C3.6 8.52261 3.78964 8.06477 4.12721 7.72721C4.46477 7.38964 4.92261 7.2 5.4 7.2C5.87739 7.2 6.33522 7.38964 6.67279 7.72721C7.01035 8.06477 7.2 8.52261 7.2 9C7.2 9.47739 7.01035 9.93523 6.67279 10.2728C6.33522 10.6104 5.87739 10.8 5.4 10.8ZM12.6 10.8C12.1226 10.8 11.6648 10.6104 11.3272 10.2728C10.9896 9.93523 10.8 9.47739 10.8 9C10.8 8.52261 10.9896 8.06477 11.3272 7.72721C11.6648 7.38964 12.1226 7.2 12.6 7.2C13.0774 7.2 13.5352 7.38964 13.8728 7.72721C14.2103 8.06477 14.4 8.52261 14.4 9C14.4 9.47739 14.2103 9.93523 13.8728 10.2728C13.5352 10.6104 13.0774 10.8 12.6 10.8ZM9 14.4C8.52261 14.4 8.06477 14.2104 7.7272 13.8728C7.38964 13.5352 7.2 13.0774 7.2 12.6C7.2 12.1226 7.38964 11.6648 7.7272 11.3272C8.06477 10.9896 8.52261 10.8 9 10.8C9.47738 10.8 9.93522 10.9896 10.2728 11.3272C10.6104 11.6648 10.8 12.1226 10.8 12.6C10.8 13.0774 10.6104 13.5352 10.2728 13.8728C9.93522 14.2104 9.47738 14.4 9 14.4Z" fill="#ED1F24"/>
</svg>
