<svg width="18" height="18" viewBox="0 0 18 18" fill="none" xmlns="http://www.w3.org/2000/svg">
<path d="M9 0C4.032 0 0 4.032 0 9C0 13.968 4.032 18 9 18C13.968 18 18 13.968 18 9C18 4.032 13.968 0 9 0ZM9.9 2.97L11.115 2.115C12.743 2.61949 14.1397 3.68451 15.057 5.121L14.706 6.327L13.491 6.741L9.9 4.23V2.97ZM6.885 2.115L8.1 2.97V4.23L4.509 6.741L3.294 6.327L2.943 5.121C3.86567 3.68943 5.2603 2.62595 6.885 2.115ZM4.572 13.599L3.546 13.689C2.4178 12.3876 1.79775 10.7224 1.8 9C1.8 8.892 1.809 8.793 1.818 8.685L2.718 8.028L3.96 8.46L5.274 12.366L4.572 13.599ZM11.25 15.831C10.539 16.065 9.783 16.2 9 16.2C8.217 16.2 7.461 16.065 6.75 15.831L6.129 14.49L6.705 13.5H11.304L11.88 14.499L11.25 15.831ZM11.043 11.7H6.957L5.742 8.082L9 5.796L12.267 8.082L11.043 11.7ZM14.454 13.689L13.428 13.599L12.717 12.366L14.031 8.46L15.282 8.037L16.182 8.694C16.191 8.793 16.2 8.892 16.2 9C16.2 10.791 15.543 12.429 14.454 13.689Z" fill="white"/>
</svg>
