{
  "accessors": [
    {
      "bufferView": 2,
      "componentType": 5126,
      "count": 222,
      "max": [
        100,
        97.864997863769531,
        142.43299865722656
      ],
      "min": [
        -100,
        -102.13500213623047,
        -137.56700134277344
      ],
      "type": "VEC3"
    },
    {
      "bufferView": 2,
      "byteOffset": 2664,
      "componentType": 5126,
      "count": 222,
      "max": [
        1,
        1,
        1
      ],
      "min": [
        -1,
        -1,
        -1
      ],
      "type": "VEC3"
    },
    {
      "bufferView": 3,
      "componentType": 5126,
      "count": 222,
      "max": [
        1,
        0.40768334269523621,
        1,
        1
      ],
      "min": [
        -1,
        -0.4366936981678009,
        -1,
        -1
      ],
      "type": "VEC4"
    },
    {
      "bufferView": 1,
      "componentType": 5126,
      "count": 222,
      "max": [
        0.9952545166015625,
        0.99553704261779785
      ],
      "min": [
        0.0040088891983032227,
        0.004302978515625
      ],
      "type": "VEC2"
    },
    {
      "bufferView": 0,
      "componentType": 5125,
      "count": 324,
      "max": [
        221
      ],
      "min": [
        0
      ],
      "type": "SCALAR"
    },
    {
      "bufferView": 2,
      "byteOffset": 5328,
      "componentType": 5126,
      "count": 144,
      "max": [
        188.1151123046875,
        12.644588470458984,
        130.19999694824219
      ],
      "min": [
        0.064818136394023895,
        -56.725948333740234,
        -130.19999694824219
      ],
      "type": "VEC3"
    },
    {
      "bufferView": 2,
      "byteOffset": 7056,
      "componentType": 5126,
      "count": 144,
      "max": [
        0.99990618228912354,
        1,
        0.67747467756271362
      ],
      "min": [
        -0.98970818519592285,
        -1,
        -0.67790317535400391
      ],
      "type": "VEC3"
    },
    {
      "bufferView": 3,
      "byteOffset": 3552,
      "componentType": 5126,
      "count": 144,
      "max": [
        0.45682752132415771,
        0.76157671213150024,
        -0.64044135808944702,
        1
      ],
      "min": [
        -0.47562900185585022,
        -0.75771629810333252,
        -1,
        -1
      ],
      "type": "VEC4"
    },
    {
      "bufferView": 1,
      "byteOffset": 1776,
      "componentType": 5126,
      "count": 144,
      "max": [
        0.43126678466796875,
        0.99545001983642578
      ],
      "min": [
        0.0040088891983032227,
        0.64321136474609375
      ],
      "type": "VEC2"
    },
    {
      "bufferView": 0,
      "byteOffset": 1296,
      "componentType": 5125,
      "count": 228,
      "max": [
        143
      ],
      "min": [
        0
      ],
      "type": "SCALAR"
    },
    {
      "bufferView": 2,
      "byteOffset": 8784,
      "componentType": 5126,
      "count": 132,
      "max": [
        18.829509735107422,
        41.526565551757812,
        23.64910888671875
      ],
      "min": [
        -20.240606307983398,
        -7.5813241004943848,
        -30.346389770507812
      ],
      "type": "VEC3"
    },
    {
      "bufferView": 2,
      "byteOffset": 10368,
      "componentType": 5126,
      "count": 132,
      "max": [
        0.9966503381729126,
        1,
        0.84335285425186157
      ],
      "min": [
        -0.99653404951095581,
        -0.91085809469223022,
        -0.99711698293685913
      ],
      "type": "VEC3"
    },
    {
      "bufferView": 3,
      "byteOffset": 5856,
      "componentType": 5126,
      "count": 132,
      "max": [
        0.13953703641891479,
        0.84334927797317505,
        0.91085225343704224,
        1
      ],
      "min": [
        -0.13955828547477722,
        -0.99795299768447876,
        -1,
        1
      ],
      "type": "VEC4"
    },
    {
      "bufferView": 1,
      "byteOffset": 2928,
      "componentType": 5126,
      "count": 132,
      "max": [
        0.861480712890625,
        0.340545654296875
      ],
      "min": [
        0.6973724365234375,
        0.1397552490234375
      ],
      "type": "VEC2"
    },
    {
      "bufferView": 0,
      "byteOffset": 2208,
      "componentType": 5125,
      "count": 216,
      "max": [
        131
      ],
      "min": [
        0
      ],
      "type": "SCALAR"
    },
    {
      "bufferView": 4,
      "componentType": 5126,
      "count": 2,
      "max": [
        5.5999999046325684
      ],
      "min": [
        0
      ],
      "type": "SCALAR"
    },
    {
      "bufferView": 5,
      "componentType": 5126,
      "count": 2,
      "max": [
        -93.0648193359375,
        191.62541198730469,
        0
      ],
      "min": [
        -93.0648193359375,
        191.62541198730469,
        0
      ],
      "type": "VEC3"
    },
    {
      "bufferView": 4,
      "byteOffset": 8,
      "componentType": 5126,
      "count": 2,
      "max": [
        5.5999999046325684
      ],
      "min": [
        0
      ],
      "type": "SCALAR"
    },
    {
      "bufferView": 5,
      "byteOffset": 24,
      "componentType": 5126,
      "count": 2,
      "max": [
        1,
        1,
        1
      ],
      "min": [
        1,
        1,
        1
      ],
      "type": "VEC3"
    },
    {
      "bufferView": 4,
      "byteOffset": 16,
      "componentType": 5126,
      "count": 154,
      "max": [
        5.5999999046325684
      ],
      "min": [
        0
      ],
      "type": "SCALAR"
    },
    {
      "bufferView": 6,
      "componentType": 5126,
      "count": 154,
      "max": [
        0,
        0,
        0.5,
        1
      ],
      "min": [
        0,
        0,
        0,
        0.86602538824081421
      ],
      "type": "VEC4"
    },
    {
      "bufferView": 4,
      "byteOffset": 632,
      "componentType": 5126,
      "count": 2,
      "max": [
        5.5999999046325684
      ],
      "min": [
        0
      ],
      "type": "SCALAR"
    },
    {
      "bufferView": 5,
      "byteOffset": 48,
      "componentType": 5126,
      "count": 2,
      "max": [
        50.469013214111328,
        135.56985473632812,
        -114.51960754394531
      ],
      "min": [
        50.469013214111328,
        135.56985473632812,
        -114.51960754394531
      ],
      "type": "VEC3"
    },
    {
      "bufferView": 4,
      "byteOffset": 640,
      "componentType": 5126,
      "count": 2,
      "max": [
        5.5999999046325684
      ],
      "min": [
        0
      ],
      "type": "SCALAR"
    },
    {
      "bufferView": 5,
      "byteOffset": 72,
      "componentType": 5126,
      "count": 2,
      "max": [
        1,
        1,
        1
      ],
      "min": [
        1,
        1,
        1
      ],
      "type": "VEC3"
    },
    {
      "bufferView": 4,
      "byteOffset": 648,
      "componentType": 5126,
      "count": 41,
      "max": [
        5.5999999046325684
      ],
      "min": [
        0
      ],
      "type": "SCALAR"
    },
    {
      "bufferView": 6,
      "byteOffset": 2464,
      "componentType": 5126,
      "count": 41,
      "max": [
        0,
        0.17101007699966431,
        -0.29619812965393066,
        0.93969261646270752
      ],
      "min": [
        -0.46984630823135376,
        -0,
        -0.34202015399932861,
        0.81379765272140503
      ],
      "type": "VEC4"
    }
  ],
  "animations": [
    {
      "channels": [
        {
          "sampler": 0,
          "target": {
            "node": 9,
            "path": "translation"
          }
        },
        {
          "sampler": 1,
          "target": {
            "node": 9,
            "path": "scale"
          }
        },
        {
          "sampler": 2,
          "target": {
            "node": 9,
            "path": "rotation"
          }
        },
        {
          "sampler": 3,
          "target": {
            "node": 11,
            "path": "translation"
          }
        },
        {
          "sampler": 4,
          "target": {
            "node": 11,
            "path": "scale"
          }
        },
        {
          "sampler": 5,
          "target": {
            "node": 11,
            "path": "rotation"
          }
        }
      ],
      "name": "CINEMA_4D_Basis",
      "samplers": [
        {
          "input": 15,
          "interpolation": "LINEAR",
          "output": 16
        },
        {
          "input": 17,
          "interpolation": "LINEAR",
          "output": 18
        },
        {
          "input": 19,
          "interpolation": "LINEAR",
          "output": 20
        },
        {
          "input": 21,
          "interpolation": "LINEAR",
          "output": 22
        },
        {
          "input": 23,
          "interpolation": "LINEAR",
          "output": 24
        },
        {
          "input": 25,
          "interpolation": "LINEAR",
          "output": 26
        }
      ]
    }
  ],
  "asset": {
    "extras": {
      "author": "LaVADraGoN (https://sketchfab.com/lavadragon)",
      "license": "CC-BY-4.0 (http://creativecommons.org/licenses/by/4.0/)",
      "source": "https://sketchfab.com/models/042201dac61041fabb88f483368daa3f",
      "title": "Basic Sci-Fi Crate"
    },
    "generator": "Sketchfab-3.19.4",
    "version": "2.0"
  },
  "bufferViews": [
    {
      "buffer": 0,
      "byteLength": 3072,
      "byteOffset": 0,
      "name": "floatBufferViews",
      "target": 34963
    },
    {
      "buffer": 0,
      "byteLength": 3984,
      "byteOffset": 3072,
      "byteStride": 8,
      "name": "floatBufferViews",
      "target": 34962
    },
    {
      "buffer": 0,
      "byteLength": 11952,
      "byteOffset": 7056,
      "byteStride": 12,
      "name": "floatBufferViews",
      "target": 34962
    },
    {
      "buffer": 0,
      "byteLength": 7968,
      "byteOffset": 19008,
      "byteStride": 16,
      "name": "floatBufferViews",
      "target": 34962
    },
    {
      "buffer": 0,
      "byteLength": 812,
      "byteOffset": 26976,
      "name": "floatBufferViews"
    },
    {
      "buffer": 0,
      "byteLength": 96,
      "byteOffset": 27788,
      "byteStride": 12,
      "name": "floatBufferViews"
    },
    {
      "buffer": 0,
      "byteLength": 3120,
      "byteOffset": 27884,
      "byteStride": 16,
      "name": "floatBufferViews"
    }
  ],
  "buffers": [
    {
      "byteLength": 31004,
      "uri": "scene.bin"
    }
  ],
  "images": [
    {
      "uri": "textures/material_metallicRoughness.png"
    },
    {
      "uri": "textures/material_normal.jpeg"
    },
    {
      "uri": "textures/material_baseColor.jpeg"
    }
  ],
  "materials": [
    {
      "doubleSided": true,
      "emissiveFactor": [
        0,
        0,
        0
      ],
      "name": "material",
      "normalTexture": {
        "index": 1,
        "scale": 1,
        "texCoord": 0
      },
      "occlusionTexture": {
        "index": 0,
        "strength": 1,
        "texCoord": 0
      },
      "pbrMetallicRoughness": {
        "baseColorFactor": [
          1,
          1,
          1,
          1
        ],
        "baseColorTexture": {
          "index": 2,
          "texCoord": 0
        },
        "metallicFactor": 1,
        "metallicRoughnessTexture": {
          "index": 0,
          "texCoord": 0
        },
        "roughnessFactor": 1
      }
    }
  ],
  "meshes": [
    {
      "name": "Kiste_Mat_0",
      "primitives": [
        {
          "attributes": {
            "NORMAL": 1,
            "POSITION": 0,
            "TANGENT": 2,
            "TEXCOORD_0": 3
          },
          "indices": 4,
          "material": 0,
          "mode": 4
        }
      ]
    },
    {
      "name": "Deckel_Mat_0",
      "primitives": [
        {
          "attributes": {
            "NORMAL": 6,
            "POSITION": 5,
            "TANGENT": 7,
            "TEXCOORD_0": 8
          },
          "indices": 9,
          "material": 0,
          "mode": 4
        }
      ]
    },
    {
      "name": "Greifer_Mat_0",
      "primitives": [
        {
          "attributes": {
            "NORMAL": 11,
            "POSITION": 10,
            "TANGENT": 12,
            "TEXCOORD_0": 13
          },
          "indices": 14,
          "material": 0,
          "mode": 4
        }
      ]
    }
  ],
  "nodes": [
    {
      "children": [
        1
      ],
      "name": "RootNode (gltf orientation matrix)",
      "rotation": [
        -0.70710678118654746,
        -0,
        -0,
        0.70710678118654757
      ]
    },
    {
      "children": [
        2
      ],
      "name": "RootNode (model correction matrix)"
    },
    {
      "children": [
        3
      ],
      "matrix": [
        1,
        0,
        0,
        0,
        0,
        0,
        1,
        0,
        0,
        -1,
        0,
        0,
        0,
        0,
        0,
        1
      ],
      "name": "basic_sci-fi_crate.fbx"
    },
    {
      "children": [
        4
      ],
      "name": ""
    },
    {
      "children": [
        5,
        6
      ],
      "name": "RootNode"
    },
    {
      "name": "Env",
      "translation": [
        187.27033996582031,
        451.081298828125,
        9.8884592056274414
      ]
    },
    {
      "children": [
        7,
        9,
        11
      ],
      "name": "Kiste_Rig"
    },
    {
      "children": [
        8
      ],
      "name": "Kiste",
      "translation": [
        0,
        102.13500213623047,
        -2.4330000877380371
      ]
    },
    {
      "mesh": 0,
      "name": "Kiste_Mat_0"
    },
    {
      "children": [
        10
      ],
      "name": "Deckel",
      "translation": [
        -93.0648193359375,
        191.62541198730469,
        0
      ]
    },
    {
      "mesh": 1,
      "name": "Deckel_Mat_0"
    },
    {
      "children": [
        12
      ],
      "name": "Greifer",
      "rotation": [
        0,
        -0,
        -0.34202015399932861,
        0.93969261646270752
      ],
      "translation": [
        50.469013214111328,
        135.56985473632812,
        -114.51960754394531
      ]
    },
    {
      "mesh": 2,
      "name": "Greifer_Mat_0"
    }
  ],
  "samplers": [
    {
      "magFilter": 9729,
      "minFilter": 9987,
      "wrapS": 10497,
      "wrapT": 10497
    }
  ],
  "scene": 0,
  "scenes": [
    {
      "name": "OSG_Scene",
      "nodes": [
        0
      ]
    }
  ],
  "textures": [
    {
      "sampler": 0,
      "source": 0
    },
    {
      "sampler": 0,
      "source": 1
    },
    {
      "sampler": 0,
      "source": 2
    }
  ]
}

