<?xml version="1.0" encoding="UTF-8"?>
<svg width="22px" height="20px" viewBox="0 0 22 20" version="1.1" xmlns="http://www.w3.org/2000/svg" xmlns:xlink="http://www.w3.org/1999/xlink">
    <title>D821DE4C-200A-4AFF-8DD7-E511AF4A473E@1.00x</title>
    <g id="Page-1" stroke="none" stroke-width="1" fill="none" fill-rule="evenodd">
        <g id="Map---Post-Details" transform="translate(-424.000000, -727.000000)">
            <g id="Group-13" transform="translate(320.000000, 110.000000)">
                <g id="Post-Details" transform="translate(0.455568, 0.000000)">
                    <g id="Group-21" transform="translate(11.544432, 0.000000)">
                        <g id="Engagement" transform="translate(15.000000, 617.000000)">
                            <g id="Comment" transform="translate(78.000000, 0.000000)">
                                <g id="comment-24px">
                                    <polygon id="Path" points="0 0 20 0 20 20 0 20"></polygon>
                                    <path d="M16.993,4.4 C16.993,3.63 16.37,3 15.6,3 L4.4,3 C3.63,3 3,3.63 3,4.4 L3,12.8 C3,13.57 3.63,14.2 4.4,14.2 L14.2,14.2 L17,17 L16.993,4.4 Z M14,11 L6,11 L6,10 L14,10 L14,11 Z M14,9 L6,9 L6,8 L14,8 L14,9 Z M14,7 L6,7 L6,6 L14,6 L14,7 Z" id="Shape" fill="#747D89" fill-rule="nonzero"></path>
                                </g>
                            </g>
                        </g>
                    </g>
                </g>
            </g>
        </g>
    </g>
</svg>