<?xml version="1.0" encoding="UTF-8"?>
<svg width="22px" height="20px" viewBox="0 0 22 20" version="1.1" xmlns="http://www.w3.org/2000/svg" xmlns:xlink="http://www.w3.org/1999/xlink">
    <title>98DAF47F-EF4E-428C-BF3B-1B1D33D86D7A@1.00x</title>
    <g id="Page-1" stroke="none" stroke-width="1" fill="none" fill-rule="evenodd">
        <g id="Map---Post-Details" transform="translate(-346.000000, -727.000000)">
            <g id="Group-13" transform="translate(320.000000, 110.000000)">
                <g id="Post-Details" transform="translate(0.455568, 0.000000)">
                    <g id="Group-21" transform="translate(11.544432, 0.000000)">
                        <g id="Engagement" transform="translate(15.000000, 617.000000)">
                            <g id="Likes">
                                <g id="favorite-24px">
                                    <polygon id="Path" points="0 0 20 0 20 20 0 20"></polygon>
                                    <path d="M10,16.1458333 L8.985,15.2826181 C5.38,12.2286671 3,10.2144982 3,7.74256358 C3,5.72839464 4.694,4.14583333 6.85,4.14583333 C8.068,4.14583333 9.237,4.67553361 10,5.51259083 C10.763,4.67553361 11.932,4.14583333 13.15,4.14583333 C15.306,4.14583333 17,5.72839464 17,7.74256358 C17,10.2144982 14.62,12.2286671 11.015,15.2891576 L10,16.1458333 Z" id="Path" fill="#747D89" fill-rule="nonzero"></path>
                                </g>
                            </g>
                        </g>
                    </g>
                </g>
            </g>
        </g>
    </g>
</svg>