<?xml version="1.0" encoding="UTF-8"?>
<svg width="26px" height="24px" viewBox="0 0 26 24" version="1.1" xmlns="http://www.w3.org/2000/svg" xmlns:xlink="http://www.w3.org/1999/xlink">
    <title>BC56A702-3AF6-4861-9AED-E7122644BB60@1.00x</title>
    <g id="Page-1" stroke="none" stroke-width="1" fill="none" fill-rule="evenodd">
        <g id="Map---Post-Details" transform="translate(-694.000000, -192.000000)">
            <g id="Group-13" transform="translate(320.000000, 110.000000)">
                <g id="Post-Details" transform="translate(0.455568, 0.000000)">
                    <g id="Group-21" transform="translate(11.544432, 0.000000)">
                        <g id="Group-17" transform="translate(363.000000, 82.000000)">
                            <g id="Group-11">
                                <g id="IG">
                                    <rect id="Rectangle" x="0" y="0" width="24" height="24"></rect>
                                    <path d="M16.5399951,22.9274961 C18.3015705,22.8415656 19.8626414,22.4405566 21.151599,21.151599 C22.4405566,19.8626414 22.8415656,18.3015705 22.9274961,16.5399951 C23.0134266,15.0218895 22.9991049,13.5181056 22.9991049,12 C22.9991049,10.4818944 23.0134266,8.97811051 22.9274961,7.46000488 C22.8415656,5.69842949 22.4405566,4.13735861 21.151599,2.84840101 C19.8626414,1.5594434 18.3015705,1.15843437 16.5399951,1.07250387 C15.0218895,0.986573358 13.5181056,1.00089511 12,1.00089511 C10.4818944,1.00089511 8.97811051,0.986573358 7.46000488,1.07250387 C5.69842949,1.15843437 4.13735861,1.5594434 2.84840101,2.84840101 C1.5594434,4.13735861 1.15843437,5.69842949 1.07250387,7.46000488 C1.00805599,8.5985841 1,9.72910733 1,10.8636586 L1.00089511,12 C1.00089511,13.5181056 0.986573358,15.0218895 1.07250387,16.5399951 C1.15843437,18.3015705 1.5594434,19.8626414 2.84840101,21.151599 C4.13735861,22.4405566 5.69842949,22.8415656 7.46000488,22.9274961 C8.97811051,23.0134266 10.4818944,22.9991049 12,22.9991049 C13.5181056,22.9991049 15.0218895,23.0134266 16.5399951,22.9274961 Z M5.53746332,20.5453852 C5.03815033,20.34566 4.66723211,20.1031365 4.2820478,19.7179522 C3.8968635,19.3327679 3.65434005,18.9618497 3.45461485,18.4625367 C2.88397143,17.0216621 3.0123662,13.5978016 3.0123662,12 C3.0123662,10.4021984 2.88397143,6.97833794 3.45461485,5.53746332 C3.65434005,5.03815033 3.8968635,4.66723211 4.2820478,4.2820478 C4.66723211,3.8968635 5.03815033,3.65434005 5.53746332,3.45461485 C6.97833794,2.88397143 10.4021984,3.0123662 12,3.0123662 C13.5978016,3.0123662 17.0216621,2.88397143 18.4625367,3.45461485 C18.9618497,3.65434005 19.3327679,3.8968635 19.7179522,4.2820478 C20.1031365,4.66723211 20.34566,5.03815033 20.5453852,5.53746332 C21.1160286,6.97833794 20.9876338,10.4021984 20.9876338,12 C20.9876338,13.5978016 21.1160286,17.0216621 20.5453852,18.4625367 C20.34566,18.9618497 20.1031365,19.3327679 19.7179522,19.7179522 C19.3327679,20.1031365 18.9618497,20.34566 18.4625367,20.5453852 C17.0216621,21.1160286 13.5978016,20.9876338 12,20.9876338 C10.4021984,20.9876338 6.97833794,21.1160286 5.53746332,20.5453852 Z M17.5,8 C18.3315217,8 19,7.33152174 19,6.5 C19,5.66847826 18.3315217,5 17.5,5 C16.6684783,5 16,5.66847826 16,6.5 C16,7.33152174 16.6684783,8 17.5,8 Z M12.5,18 C15.5431472,18 18,15.5431472 18,12.5 C18,9.45685279 15.5431472,7 12.5,7 C9.45685279,7 7,9.45685279 7,12.5 C7,15.5431472 9.45685279,18 12.5,18 Z M12.5,16 C10.5722656,16 9,14.4277344 9,12.5 C9,10.5722656 10.5722656,9 12.5,9 C14.4277344,9 16,10.5722656 16,12.5 C16,14.4277344 14.4277344,16 12.5,16 Z" id="" fill="#E30000" fill-rule="nonzero"></path>
                                </g>
                            </g>
                        </g>
                    </g>
                </g>
            </g>
        </g>
    </g>
</svg>