<?xml version="1.0" encoding="UTF-8"?>
<svg width="24px" height="24px" viewBox="0 0 24 24" version="1.1" xmlns="http://www.w3.org/2000/svg" xmlns:xlink="http://www.w3.org/1999/xlink">
    <title>9616ADD0-E34E-4B9C-AC89-AAA1ABE43558@1.00x</title>
    <g id="Page-1" stroke="none" stroke-width="1" fill="none" fill-rule="evenodd">
        <g id="Map---Post-Details" transform="translate(-758.000000, -255.000000)">
            <g id="Group-13" transform="translate(320.000000, 110.000000)">
                <g id="Post-Details" transform="translate(0.455568, 0.000000)">
                    <g id="Group-21" transform="translate(11.544432, 0.000000)">
                        <g id="media_link" transform="translate(426.000000, 145.000000)">
                            <g id="Group-33">
                                <polygon id="Rectangle-3" fill-opacity="0.5" fill="#747D89" points="0 0 24 0 24 24 0 24"></polygon>
                                <path d="M15.8303701,19.0000012 C16.5089423,19.0000012 17.1607288,18.7410723 17.6428722,18.2589289 L18.9553738,16.9553559 C19.4375172,16.482141 19.7143033,15.821426 19.7143033,15.1428537 C19.7143033,14.4553529 19.4553744,13.812495 18.9643024,13.321423 L17.1071573,11.4642779 C16.6250139,10.9821345 15.9642988,10.714277 15.2857265,10.714277 C14.5803686,10.714277 13.9196535,10.9999917 13.4285815,11.4999923 L12.6428573,10.714277 C13.1428573,10.223205 13.4285815,9.55356136 13.4285815,8.84820338 C13.4285815,8.16963114 13.1696526,7.51784465 12.6875092,7.03570122 L10.8482213,5.18748473 C10.3660778,4.69641271 9.71429133,4.42855525 9.02679051,4.42855525 C8.34821828,4.42855525 7.69643179,4.68748413 7.21428835,5.16962756 L5.90178679,6.47320054 C5.41964336,6.94641539 5.14285731,7.60713047 5.14285731,8.28570271 C5.14285731,8.97320352 5.40178619,9.61606143 5.89285821,10.1071334 L7.75000328,11.9642785 C8.23214671,12.446422 8.89286178,12.7142794 9.57143402,12.7142794 C10.276792,12.7142794 10.9375071,12.4285553 11.4285791,11.9285553 L12.2142943,12.7142794 C11.7142937,13.2053514 11.4285791,13.8749951 11.4285791,14.5803531 C11.4285791,15.2589253 11.687508,15.9107118 12.1696514,16.3928552 L14.0089393,18.2410717 C14.4910827,18.7321437 15.1428692,19.0000012 15.8303701,19.0000012 Z M9.57143402,10.9910631 C9.34821947,10.9910631 9.12500492,10.9107058 8.96429044,10.7499914 L7.10714537,8.89284629 C6.94643089,8.73213181 6.85714507,8.51784584 6.85714507,8.28570271 C6.85714507,8.06248815 6.94643089,7.84820218 7.10714537,7.68748771 L8.41964693,6.38391472 C8.58036141,6.23212883 8.80357596,6.14284301 9.02679051,6.14284301 C9.25000507,6.14284301 9.47321962,6.23212883 9.6339341,6.39284331 L11.473222,8.2410598 C11.6339365,8.40177427 11.7232223,8.62498882 11.7232223,8.84820338 C11.7232223,9.11606084 11.6160793,9.32141823 11.4285791,9.49998987 C11.1339359,9.20534666 10.8839356,8.85713196 10.4285779,8.85713196 C9.95536305,8.85713196 9.57143402,9.24106099 9.57143402,9.71427584 C9.57143402,10.1696335 9.91964872,10.4196338 10.2142919,10.714277 C10.0357203,10.9017773 9.8303629,10.9910631 9.57143402,10.9910631 Z M15.8303701,17.2767849 C15.6071555,17.2767849 15.383941,17.1964276 15.2232265,17.0357131 L13.3839386,15.1874966 C13.2232241,15.0267822 13.1339383,14.8035676 13.1339383,14.5803531 C13.1339383,14.3124956 13.2410813,14.1071382 13.4285815,13.9285648 C13.7232247,14.2232098 13.973225,14.5714245 14.4285827,14.5714245 C14.9017975,14.5714245 15.2857265,14.1874955 15.2857265,13.7142806 C15.2857265,13.2589229 14.9375118,13.0089226 14.6428686,12.7142794 C14.8214403,12.5267792 15.0267977,12.4285648 15.2857265,12.4285648 C15.5089411,12.4285648 15.7321557,12.5178506 15.8928701,12.6785651 L17.7500152,14.5357102 C17.9107297,14.6964246 18.0000155,14.9107106 18.0000155,15.1428537 C18.0000155,15.3660683 17.9107297,15.5803543 17.7500152,15.7410687 L16.4375136,17.0446417 C16.2767992,17.1964276 16.0535846,17.2767849 15.8303701,17.2767849 Z" id="ïƒ" fill="#FFFFFF" fill-rule="nonzero"></path>
                            </g>
                        </g>
                    </g>
                </g>
            </g>
        </g>
    </g>
</svg>