<?xml version="1.0" encoding="UTF-8"?>
<svg width="26px" height="24px" viewBox="0 0 26 24" version="1.1" xmlns="http://www.w3.org/2000/svg" xmlns:xlink="http://www.w3.org/1999/xlink">
    <title>483982F7-E7C6-480B-AF9B-B35171A9E00B@2.00x</title>
    <g id="Page-1" stroke="none" stroke-width="1" fill="none" fill-rule="evenodd">
        <g id="Map---Post-Details" transform="translate(-733.000000, -192.000000)" fill="#747D89">
            <g id="Group-13" transform="translate(320.000000, 110.000000)">
                <g id="Post-Details" transform="translate(0.455568, 0.000000)">
                    <g id="Group-21" transform="translate(11.544432, 0.000000)">
                        <g id="Group-17" transform="translate(363.000000, 82.000000)">
                            <g id="Group-11">
                                <g id="IG-Story" transform="translate(39.000000, 0.000000)">
                                    <g id="story">
                                        <path d="M15.4757247,14.6528563 L15.4757247,10.487137 L14.6078665,10.487137 C14.6914381,10.7507088 14.7364381,11.0399949 14.7364381,11.3292809 C14.7364381,12.9749972 13.3607222,14.305713 11.6635773,14.305713 C9.97286102,14.305713 8.59714509,12.9749972 8.59714509,11.3292809 C8.59714509,11.0399949 8.64214515,10.7507088 8.72571668,10.487137 L7.81928702,10.487137 L7.81928702,14.6528563 C7.81928702,14.871428 7.99285866,15.0449996 8.21143035,15.0449996 L15.0835814,15.0449996 C15.3021531,15.0449996 15.4757247,14.871428 15.4757247,14.6528563 Z M13.6500083,11.2264236 C13.6500083,10.1657081 12.7628643,9.3042785 11.6635773,9.3042785 C10.5707189,9.3042785 9.68357496,10.1657081 9.68357496,11.2264236 C9.68357496,12.2871392 10.5707189,13.1485688 11.6635773,13.1485688 C12.7628643,13.1485688 13.6500083,12.2871392 13.6500083,11.2264236 Z M15.4757247,8.91213517 L15.4757247,7.85141962 C15.4757247,7.60713362 15.2764388,7.40784766 15.0321528,7.40784766 L13.91358,7.40784766 C13.669294,7.40784766 13.470008,7.60713362 13.470008,7.85141962 L13.470008,8.91213517 C13.470008,9.15642118 13.669294,9.35570713 13.91358,9.35570713 L15.0321528,9.35570713 C15.2764388,9.35570713 15.4757247,9.15642118 15.4757247,8.91213517 Z M16.5942975,7.57499072 L16.5942975,14.916428 C16.5942975,15.6107146 16.0221539,16.1828581 15.3278674,16.1828581 L7.98643008,16.1828581 C7.29214354,16.1828581 6.72,15.6107146 6.72,14.916428 L6.72,7.57499072 C6.72,6.88070418 7.29214354,6.30856064 7.98643008,6.30856064 L15.3278674,6.30856064 C16.0221539,6.30856064 16.5942975,6.88070418 16.5942975,7.57499072 Z" id=""></path>
                                        <path d="M11.6443429,22.8968944 C9.76781516,22.8968944 7.90655205,22.4325963 6.26102857,21.5543732 C5.87636075,21.3490643 5.73083826,20.8705193 5.93640149,20.485597 C6.14196472,20.1009292 6.62076422,19.9559155 7.00517764,20.1609699 C8.42224099,20.9175851 10.0265501,21.3175175 11.6443429,21.3175175 C12.4045198,21.3175175 13.1618981,21.2307637 13.8948532,21.0598002 C14.320481,20.9605804 14.7445824,21.2246579 14.8435478,21.6495225 C14.9427677,22.0743871 14.6786902,22.4992517 14.2538256,22.5982171 C13.4030788,22.7964025 12.5251101,22.8968944 11.6443429,22.8968944 Z" id="Shape" fill-rule="nonzero"></path>
                                        <path d="M4.31759106,19.9780492 C4.12245863,19.9780492 3.92732621,19.9063056 3.77468025,19.7615463 C2.16604621,18.2378852 1.04129988,16.3005535 0.521794783,14.1591851 C0.419013168,13.7353381 0.679274534,13.3081839 1.1033759,13.2054022 C1.52722286,13.1026206 1.95437714,13.3631364 2.05715876,13.7869834 C2.50441143,15.6317098 3.47422211,17.3011478 4.86101068,18.6149207 C5.17775106,18.9148701 5.19123478,19.4147856 4.89103106,19.731526 C4.73584099,19.895366 4.52697043,19.9780492 4.31759106,19.9780492 Z" id="Shape" fill-rule="nonzero"></path>
                                        <path d="M1.04257193,11.1810624 C1.01662211,11.1810624 0.990417888,11.1797903 0.963959255,11.1772462 C0.529935901,11.1345053 0.212686708,10.7478022 0.255681988,10.3135245 C0.382378137,9.03231602 0.721506584,7.79206758 1.26365416,6.62737888 C1.44784696,6.23177143 1.9174877,6.06004472 2.31309516,6.24474634 C2.7084482,6.42893913 2.8799205,6.89883429 2.6957277,7.29418733 C2.22863106,8.2970713 1.93682286,9.36533863 1.82768099,10.4689689 C1.78748422,10.8765337 1.4437764,11.1810624 1.04257193,11.1810624 Z" id="Shape" fill-rule="nonzero"></path>
                                        <path d="M4.35575255,4.49186186 C4.17944646,4.49186186 4.00186832,4.43309317 3.85507379,4.31250286 C3.51798062,4.03570484 3.46913391,3.5378246 3.74593193,3.20098584 C3.81640348,3.11499528 3.88789267,3.03027677 3.96090832,2.9465759 C4.2471195,2.61762385 4.7462718,2.5830241 5.07522385,2.86999851 C5.4041759,3.1564641 5.43852124,3.65536199 5.15180124,3.98431404 C5.08896199,4.05631205 5.02739478,4.12958211 4.96659081,4.20336099 C4.81038311,4.39340522 4.58395826,4.49186186 4.35575255,4.49186186 Z" id="Shape" fill-rule="nonzero"></path>
                                        <path d="M17.110086,21.3905332 C16.8414291,21.3905332 16.5796412,21.2534062 16.4315747,21.0063742 C16.2074395,20.6321371 16.3293019,20.1469774 16.7035389,19.9230966 C19.6676691,18.1483329 21.5090882,14.9025709 21.5090882,11.4525178 C21.5090882,6.01297888 17.0836273,1.58751801 11.6440884,1.58751801 C11.2077754,1.58751801 10.8541456,1.2338882 10.8541456,0.797575155 C10.8541456,0.361262112 11.2077754,0.00763229814 11.6440884,0.00763229814 C17.954727,0.00763229814 23.0887195,5.14162484 23.0887195,11.4522634 C23.0887195,15.4548949 20.9529481,19.2199076 17.5148522,21.278084 C17.3879016,21.354407 17.2482306,21.3905332 17.110086,21.3905332 Z" id="Shape" fill-rule="nonzero"></path>
                                    </g>
                                </g>
                            </g>
                        </g>
                    </g>
                </g>
            </g>
        </g>
    </g>
</svg>